<svg width="50" height="50" viewBox="0 0 50 50" fill="none" xmlns="http://www.w3.org/2000/svg">
<g clip-path="url(#clip0_2035_666)">
<path fill-rule="evenodd" clip-rule="evenodd" d="M16.5354 15.2248C16.4283 12.7951 16.37 10.2011 16.37 7.51C16.37 3.36 20.24 0 25 0C29.76 0 33.64 3.37 33.64 7.51C33.64 10.18 33.53 12.83 33.31 15.37C33.3052 15.433 33.2925 15.4934 33.273 15.5503C32.9822 18.7696 32.5281 21.8046 31.92 24.58C36.23 27.01 38.88 31.48 38.88 36.39C38.88 43.8983 32.6527 50.0073 24.995 50.01C17.3373 50.0073 11.11 43.8983 11.11 36.39C11.11 31.75 13.44 27.53 17.38 24.99C16.99 22.22 16.7 18.98 16.53 15.33C16.53 15.2943 16.5318 15.2592 16.5354 15.2248ZM31.87 14.55C32.05 12.27 32.14 9.89999 32.14 7.51C32.14 4.19 28.94 1.5 25 1.5C21.06 1.5 17.87 4.2 17.87 7.51C17.87 9.95999 17.91 12.32 18 14.55H31.87ZM18.07 16.05C18.25 19.54 18.54 22.63 18.94 25.26C18.98 25.56 18.84 25.86 18.58 26.01C14.84 28.24 12.61 32.12 12.61 36.39C12.61 43.07 18.17 48.51 25 48.51C31.83 48.51 37.39 43.08 37.39 36.39C37.39 31.85 34.84 27.73 30.74 25.64C30.43 25.48 30.27 25.14 30.35 24.8C30.97 22.12 31.44 19.18 31.74 16.05H18.07Z" fill="#16212D"/>
<path d="M2.01006 23.25C1.68006 23.25 1.38006 23.04 1.29006 22.71C-0.139936 17.73 -0.359936 12.43 0.660064 7.35005C0.740064 6.94005 1.14006 6.68005 1.54006 6.76005C1.95006 6.84005 2.21006 7.24005 2.13006 7.64005C1.15006 12.48 1.36006 17.54 2.73006 22.28C2.84006 22.68 2.62006 23.09 2.22006 23.21C2.15006 23.23 2.08006 23.24 2.01006 23.24V23.25Z" fill="#16212D"/>
<path d="M7.70003 22.6999C7.79003 23.0299 8.09003 23.2499 8.42003 23.2499H8.43003C8.49003 23.2499 8.56003 23.2399 8.63003 23.2199C9.03003 23.1099 9.26003 22.6999 9.15003 22.2999C7.84003 17.5999 7.62003 12.5999 8.52003 7.8099C8.59003 7.3999 8.33003 7.0099 7.92003 6.9299C7.51003 6.8599 7.12003 7.1199 7.04003 7.5299C6.09003 12.5399 6.32003 17.7899 7.70003 22.6999Z" fill="#16212D"/>
<path d="M48.63 23.25C48.63 23.25 48.53 23.25 48.48 23.24C48.07 23.16 47.81 22.76 47.89 22.36C48.87 17.52 48.66 12.46 47.29 7.72C47.18 7.32 47.4 6.91 47.8 6.79C48.2 6.68 48.61 6.91 48.73 7.3C50.16 12.27 50.38 17.59 49.36 22.66C49.29 23.02 48.98 23.26 48.63 23.26V23.25Z" fill="#16212D"/>
<path d="M42.2559 23.08L42.2601 23.08H42.2501L42.2559 23.08Z" fill="#16212D"/>
<path d="M42.1201 23.07C42.1636 23.0787 42.2375 23.0798 42.2559 23.08C42.6134 23.0773 42.9205 22.8281 42.9901 22.47C43.9401 17.46 43.7101 12.21 42.3301 7.29998C42.2201 6.89998 41.8101 6.66998 41.4101 6.77998C41.0101 6.88998 40.7801 7.29998 40.8901 7.69998C42.2001 12.4 42.4201 17.4 41.5201 22.19C41.4501 22.6 41.7101 22.99 42.1201 23.07Z" fill="#16212D"/>
</g>
<defs>
<clipPath id="clip0_2035_666">
<rect width="50" height="50" fill="white"/>
</clipPath>
</defs>
</svg>
