<svg width="50" height="50" viewBox="0 0 50 50" fill="none" xmlns="http://www.w3.org/2000/svg">
<g clip-path="url(#clip0_2035_664)">
<path d="M22.22 1.5C22.34 1.5 22.57 1.76 22.57 2.17V47.82C22.57 48.23 22.34 48.49 22.22 48.49H20.37C20.25 48.49 20.02 48.23 20.02 47.82V2.17C20.02 1.76 20.25 1.5 20.37 1.5H22.22ZM22.22 0H20.37C19.35 0 18.52 0.97 18.52 2.17V47.82C18.52 49.02 19.35 49.99 20.37 49.99H22.22C23.24 49.99 24.07 49.02 24.07 47.82V2.17C24.07 0.97 23.24 0 22.22 0Z" fill="#16212D"/>
<path d="M31.48 1.5C31.6 1.5 31.83 1.76 31.83 2.17V47.82C31.83 48.23 31.6 48.49 31.48 48.49H29.63C29.51 48.49 29.28 48.23 29.28 47.82V2.17C29.28 1.76 29.51 1.5 29.63 1.5H31.48ZM31.48 0H29.63C28.61 0 27.78 0.97 27.78 2.17V47.82C27.78 49.02 28.61 49.99 29.63 49.99H31.48C32.5 49.99 33.33 49.02 33.33 47.82V2.17C33.33 0.97 32.5 0 31.48 0Z" fill="#16212D"/>
<path d="M2.5 9.91C3.88071 9.91 5 8.79071 5 7.41C5 6.02929 3.88071 4.91 2.5 4.91C1.11929 4.91 0 6.02929 0 7.41C0 8.79071 1.11929 9.91 2.5 9.91Z" fill="#16212D"/>
<path d="M2.5 27.5C3.88071 27.5 5 26.3807 5 25C5 23.6193 3.88071 22.5 2.5 22.5C1.11929 22.5 0 23.6193 0 25C0 26.3807 1.11929 27.5 2.5 27.5Z" fill="#16212D"/>
<path d="M10 35C11.3807 35 12.5 33.8807 12.5 32.5C12.5 31.1193 11.3807 30 10 30C8.61929 30 7.5 31.1193 7.5 32.5C7.5 33.8807 8.61929 35 10 35Z" fill="#16212D"/>
<path d="M2.5 45.09C3.88071 45.09 5 43.9707 5 42.59C5 41.2093 3.88071 40.09 2.5 40.09C1.11929 40.09 0 41.2093 0 42.59C0 43.9707 1.11929 45.09 2.5 45.09Z" fill="#16212D"/>
<path d="M10 20C11.3807 20 12.5 18.8807 12.5 17.5C12.5 16.1193 11.3807 15 10 15C8.61929 15 7.5 16.1193 7.5 17.5C7.5 18.8807 8.61929 20 10 20Z" fill="#16212D"/>
<path d="M49.24 25.75H40C39.59 25.75 39.25 25.41 39.25 25C39.25 24.59 39.59 24.25 40 24.25H49.24C49.65 24.25 49.99 24.59 49.99 25C49.99 25.41 49.65 25.75 49.24 25.75Z" fill="#16212D"/>
<path d="M45 30.75C44.82 30.75 44.63 30.68 44.49 30.55C44.19 30.27 44.17 29.79 44.45 29.49L48.43 25.2C48.53 25.1 48.53 24.91 48.43 24.81L44.45 20.52C44.17 20.22 44.19 19.74 44.49 19.46C44.79 19.18 45.27 19.2 45.55 19.5L49.53 23.79C50.16 24.47 50.16 25.54 49.53 26.22L45.55 30.51C45.4 30.67 45.2 30.75 45 30.75Z" fill="#16212D"/>
</g>
<defs>
<clipPath id="clip0_2035_664">
<rect width="50" height="50" fill="white"/>
</clipPath>
</defs>
</svg>
