<svg width="50" height="50" viewBox="0 0 50 50" fill="none" xmlns="http://www.w3.org/2000/svg">
<g clip-path="url(#clip0_2035_675)">
<path d="M13.08 47.72C12.92 47.72 12.76 47.67 12.63 47.57C12.44 47.43 12.33 47.21 12.33 46.97V29.28C12.33 28.91 12.59 28.61 12.94 28.54L49.31 18.37C49.54 18.31 49.78 18.35 49.97 18.49C50.16 18.63 50.27 18.85 50.27 19.09V36.79C50.27 37.13 50.05 37.42 49.72 37.51L13.29 47.68C13.22 47.7 13.16 47.71 13.09 47.71L13.08 47.72ZM13.83 29.84V45.97L48.76 36.22V20.07L13.83 29.84Z" fill="#16212D"/>
<path d="M26.3 26.32C26.14 26.32 25.98 26.27 25.85 26.17C25.66 26.03 25.55 25.81 25.55 25.57V15.83C25.55 15.49 25.77 15.2 26.1 15.11L49.32 8.62002C49.55 8.56002 49.79 8.60002 49.98 8.74002C50.17 8.88002 50.28 9.10002 50.28 9.34002V19.09C50.28 19.43 50.06 19.72 49.73 19.81L26.51 26.29C26.44 26.31 26.38 26.32 26.31 26.32H26.3ZM27.05 16.41V24.59L48.77 18.53V10.34L27.05 16.41Z" fill="#16212D"/>
<path d="M26.3 26.32C26.2 26.32 26.1 26.3 26 26.26L13.48 20.84C13.21 20.72 13.03 20.45 13.03 20.15V10.4C13.03 10.15 13.16 9.91002 13.37 9.77002C13.58 9.63002 13.85 9.61002 14.08 9.71002L26.6 15.14C26.87 15.26 27.05 15.53 27.05 15.83V25.57C27.05 25.82 26.92 26.06 26.71 26.2C26.59 26.28 26.44 26.32 26.3 26.32ZM14.53 19.66L25.55 24.43V16.33L14.53 11.55V19.66Z" fill="#16212D"/>
<path d="M13.09 30.02C12.99 30.02 12.88 30 12.78 29.96L0.279987 24.53C0.00998658 24.41 -0.170013 24.14 -0.170013 23.84C-0.170013 23.5 0.0499866 23.2 0.379987 23.11L13.58 19.43C13.74 19.38 13.92 19.4 14.08 19.46L26.6 24.88C26.89 25.01 27.07 25.3 27.05 25.62C27.03 25.94 26.81 26.21 26.5 26.29L13.29 29.99C13.22 30.01 13.16 30.02 13.09 30.02ZM2.79999 23.99L13.14 28.48L24.06 25.42L13.73 20.95L2.80999 23.99H2.79999Z" fill="#16212D"/>
<path d="M13.08 47.72C12.98 47.72 12.88 47.7 12.78 47.66L0.279987 42.24C0.00998655 42.12 -0.170013 41.85 -0.170013 41.55V23.85C-0.170013 23.6 -0.0400134 23.36 0.169987 23.22C0.379987 23.08 0.649987 23.06 0.879987 23.16L13.39 28.59C13.66 28.71 13.84 28.98 13.84 29.28V46.97C13.84 47.22 13.71 47.46 13.5 47.6C13.38 47.68 13.23 47.72 13.09 47.72L13.08 47.72ZM1.31999 41.06L12.33 45.83V29.77L1.31999 24.99V41.06Z" fill="#16212D"/>
<path d="M26.3 16.59C26.2 16.59 26.1 16.57 26 16.53L13.48 11.1C13.1 10.93 12.93 10.49 13.09 10.11C13.25 9.73002 13.7 9.55002 14.08 9.72002L26.36 15.04L49.32 8.62002C49.72 8.51002 50.13 8.74002 50.24 9.14002C50.35 9.54002 50.12 9.95002 49.72 10.06L26.5 16.55C26.43 16.57 26.37 16.58 26.3 16.58V16.59Z" fill="#16212D"/>
<path d="M21.5 11.89C20.08 11.89 19.29 11.48 19.29 10.72C19.29 9.96002 20.07 9.55002 21.5 9.55002C22.93 9.55002 23.71 9.96002 23.71 10.72C23.71 11.48 22.93 11.89 21.5 11.89ZM26.83 10.51C25.41 10.51 24.62 10.1 24.62 9.34002C24.62 8.58002 25.42 8.16002 26.83 8.16002C28.24 8.16002 29.04 8.59002 29.04 9.34002C29.04 10.09 28.24 10.51 26.83 10.51ZM31.83 9.08002C30.43 9.08002 29.62 8.65002 29.62 7.90002C29.62 7.15002 30.42 6.73002 31.83 6.73002C33.24 6.73002 34.04 7.16002 34.04 7.90002C34.04 8.64002 33.24 9.08002 31.83 9.08002ZM36.78 7.83002C35.38 7.83002 34.57 7.40002 34.57 6.65002C34.57 5.90002 35.37 5.48002 36.78 5.48002C38.19 5.48002 38.99 5.91002 38.99 6.65002C38.99 7.39002 38.19 7.83002 36.78 7.83002Z" fill="#16212D"/>
<path d="M26.46 14.13C25.04 14.13 24.25 13.72 24.25 12.96C24.25 12.2 25.03 11.79 26.46 11.79C27.89 11.79 28.67 12.2 28.67 12.96C28.67 13.72 27.89 14.13 26.46 14.13ZM31.85 12.61C30.43 12.61 29.64 12.2 29.64 11.44C29.64 10.68 30.44 10.26 31.85 10.26C33.26 10.26 34.06 10.69 34.06 11.44C34.06 12.19 33.26 12.61 31.85 12.61ZM36.85 11.18C35.45 11.18 34.64 10.75 34.64 10C34.64 9.25002 35.44 8.83002 36.85 8.83002C38.26 8.83002 39.06 9.26002 39.06 10C39.06 10.74 38.26 11.18 36.85 11.18ZM41.79 9.93002C40.39 9.93002 39.58 9.50002 39.58 8.75002C39.58 8.00002 40.38 7.58002 41.79 7.58002C43.2 7.58002 44 8.00002 44 8.75002C44 9.50002 43.2 9.93002 41.79 9.93002Z" fill="#16212D"/>
<path d="M13.78 11.16C13.45 11.16 13.15 10.94 13.06 10.61C12.95 10.21 13.18 9.80002 13.58 9.69002L36.85 3.25002C37.02 3.20002 37.19 3.22002 37.35 3.28002L49.81 8.68002C50.19 8.85002 50.36 9.29002 50.2 9.67002C50.04 10.05 49.59 10.22 49.21 10.06L36.99 4.76002L13.97 11.13C13.9 11.15 13.84 11.16 13.77 11.16H13.78Z" fill="#16212D"/>
</g>
<defs>
<clipPath id="clip0_2035_675">
<rect width="50" height="50" fill="white"/>
</clipPath>
</defs>
</svg>
