<svg width="50" height="50" viewBox="0 0 50 50" fill="none" xmlns="http://www.w3.org/2000/svg">
<g clip-path="url(#clip0_2491_221)">
<path fill-rule="evenodd" clip-rule="evenodd" d="M25.6631 14.9756C25.9589 15.0364 26.1814 15.2986 26.1816 15.6123V18.5928H27.9854C28.344 18.593 28.6355 18.8845 28.6357 19.2432V26.4092H49.3916C49.7502 26.4095 50.0417 26.701 50.042 27.0596V29.457C50.042 29.8158 49.7504 30.1072 49.3916 30.1074H28.6357V33.3877C28.6357 33.7465 28.3441 34.0379 27.9854 34.0381H4.63672C4.27775 34.0381 3.98635 33.7467 3.98633 33.3877V30.1074H0.606445C0.24746 30.1074 -0.0439453 29.816 -0.0439453 29.457V27.0596L-0.0302734 26.9277C0.0307018 26.632 0.292669 26.4092 0.606445 26.4092H1.27734V22.4297C1.2776 21.4274 2.08555 20.5936 3.10352 20.5811C3.10728 20.5809 3.11146 20.5801 3.11523 20.5801H3.12695C3.436 20.582 3.7291 20.661 3.98633 20.7988V19.2432C3.98659 18.8844 4.27789 18.5928 4.63672 18.5928H6.44043V15.6123L6.45312 15.4814C6.51386 15.1854 6.77682 14.9619 7.09082 14.9619H25.5322L25.6631 14.9756ZM5.28711 32.7373H27.3359V30.1074H5.28711V32.7373ZM1.25684 28.8076H48.7412V27.709H1.25684V28.8076ZM3.12012 21.8799C2.82007 21.8835 2.57838 22.1321 2.57812 22.4297V26.4092H3.66504V22.4297C3.66478 22.1283 3.41777 21.8825 3.12012 21.8799ZM5.28711 26.3984H27.3359V19.8926H25.6445C25.6081 19.899 25.5705 19.9042 25.5322 19.9043H7.09082C7.05234 19.9043 7.01418 19.899 6.97754 19.8926H5.28711V26.3984ZM7.74023 18.5928H24.8818V16.2627H7.74023V18.5928Z" fill="#16212D"/>
</g>
<defs>
<clipPath id="clip0_2491_221">
<rect width="50" height="50" fill="white"/>
</clipPath>
</defs>
</svg>
