<svg width="50" height="50" viewBox="0 0 50 50" fill="none" xmlns="http://www.w3.org/2000/svg">
<g clip-path="url(#clip0_2035_789)">
<path d="M24.9922 27.49C24.8022 27.49 24.6022 27.42 24.4622 27.27L21.9622 24.74C21.8222 24.6 21.7422 24.41 21.7422 24.21C21.7422 24.01 21.8222 23.82 21.9622 23.68L24.4622 21.21C24.7522 20.92 25.2322 20.92 25.5222 21.21C25.8122 21.5 25.8122 21.98 25.5222 22.27L23.5522 24.21L25.5222 26.21C25.8122 26.5 25.8122 26.98 25.5222 27.27C25.3722 27.41 25.1822 27.49 24.9922 27.49Z" fill="#16212D"/>
<path d="M34.4322 27.27C34.5722 27.42 34.7722 27.49 34.9622 27.49C35.1522 27.49 35.3422 27.41 35.4922 27.27L37.9922 24.8C38.1322 24.66 38.2122 24.47 38.2122 24.27C38.2122 24.07 38.1322 23.88 37.9922 23.74L35.4922 21.21C35.2022 20.92 34.7222 20.92 34.4322 21.21C34.1422 21.5 34.1422 21.98 34.4322 22.27L36.4022 24.27L34.4322 26.21C34.1422 26.5 34.1422 26.98 34.4322 27.27Z" fill="#16212D"/>
<path d="M28.9122 29.96C28.8522 29.96 28.7822 29.96 28.7122 29.93C28.3122 29.82 28.0722 29.41 28.1822 29.01L30.8822 19.06C30.9922 18.66 31.4022 18.43 31.8022 18.53C32.2022 18.64 32.4422 19.05 32.3322 19.45L29.6322 29.4C29.5422 29.73 29.2422 29.95 28.9122 29.95V29.96Z" fill="#16212D"/>
<path fill-rule="evenodd" clip-rule="evenodd" d="M13.392 36.9288L13.3592 36.9H11.9722C10.8622 36.9 9.97217 36.01 9.97217 34.9V33.922L1.46221 26.44C0.562211 25.64 0.042211 24.55 0.00221099 23.35C-0.037789 22.15 0.412211 21.03 1.26221 20.18C2.07221 19.37 3.15221 18.92 4.29221 18.92C5.43221 18.92 6.51221 19.37 7.32221 20.18C7.34016 20.189 7.38229 20.2382 7.43413 20.2988L7.45221 20.32L9.22217 22.3311V8.75C9.22217 7.23 10.4522 6 11.9722 6H47.2622C48.7822 6 50.0122 7.23 50.0122 8.75V34.9C50.0122 36.42 48.7822 37.65 47.2622 37.65H22.6209C22.6368 37.7561 22.6567 37.8623 22.6822 37.97C22.7622 38.19 23.4022 38.84 23.9322 38.9C24.0622 38.91 24.1222 38.89 24.2022 38.76C24.4622 38.35 24.7822 38.29 25.0122 38.32C25.3022 38.35 25.5522 38.56 25.6422 38.83C25.9022 39.59 24.7022 40.99 24.2622 41.43C22.8222 42.86 21.1522 43.08 20.2422 43.08L20.2522 43.07C19.9122 43.07 19.6722 43.04 19.5922 43.03C16.9003 42.5714 15.6397 41.2181 14.9583 40.4866L14.9522 40.48L14.7522 40.26C13.8815 39.3399 13.3926 38.1358 13.392 36.9288ZM20.2922 34.9C20.9822 35.6 21.0122 36.09 21.0622 36.94C21.0642 36.9798 21.0692 37.0188 21.0771 37.0566C21.0961 37.4223 21.1212 37.8308 21.2222 38.29C21.3622 38.99 22.2822 39.95 23.2922 40.28L23.2122 40.36C21.8127 41.7407 20.1221 41.5776 19.8639 41.5526C19.8471 41.551 19.8364 41.55 19.8322 41.55C17.6422 41.18 16.6822 40.15 16.0522 39.46L15.8322 39.22C15.2422 38.6 14.8922 37.75 14.8922 36.94L18.0161 33.8161C18.5324 33.8301 19.0376 33.9713 19.4865 34.2314C19.7204 34.3688 19.9396 34.538 20.1388 34.7366L20.1422 34.74C20.1722 34.78 20.2422 34.85 20.2422 34.85L20.2922 34.9ZM22.473 35.9605C22.3674 35.3077 22.108 34.6196 21.3622 33.86C21.3122 33.79 21.2622 33.74 21.1922 33.67C20.3496 32.8184 19.2116 32.3279 18.0235 32.3101L10.7222 24.01V15.06H48.5022V34.9C48.5022 35.59 47.9422 36.15 47.2522 36.15H22.5022V36.16C22.4938 36.0938 22.4842 36.0273 22.473 35.9605ZM6.40221 21.38L13.3717 29.3005L10.3812 32.291L2.45221 25.32C1.86221 24.8 1.52221 24.09 1.50221 23.31C1.47221 22.53 1.77221 21.79 2.32221 21.24C2.86221 20.7 3.57221 20.43 4.28221 20.43C5.01221 20.43 5.75221 20.72 6.33221 21.3L6.40221 21.38ZM14.364 30.4282L11.5094 33.2828L14.1222 35.58L16.6622 33.04L14.364 30.4282ZM48.5022 13.56H10.7222V8.75C10.7222 8.05 11.2722 7.5 11.9722 7.5H47.2522C47.9422 7.5 48.5022 8.06 48.5022 8.75V13.56Z" fill="#16212D"/>
<path d="M25.1498 11.6601C25.724 11.5879 26.177 11.1261 26.2357 10.5478C26.24 10.5058 26.2422 10.4631 26.2422 10.42C26.2422 10.366 26.2388 10.3128 26.2321 10.2607C26.1592 9.68725 25.6978 9.23511 25.12 9.17644C25.078 9.17217 25.0353 9.16998 24.9922 9.16998C24.9403 9.16998 24.8892 9.17314 24.839 9.17927C24.2627 9.24968 23.8075 9.71235 23.7486 10.2922C23.7444 10.3342 23.7422 10.3768 23.7422 10.42C23.7422 10.4724 23.7454 10.5241 23.7517 10.5748C23.8228 11.1504 24.2851 11.6047 24.8644 11.6635C24.9064 11.6678 24.949 11.67 24.9922 11.67C25.0456 11.67 25.0982 11.6666 25.1498 11.6601Z" fill="#16212D"/>
<path d="M21.2357 10.6478C21.24 10.6058 21.2422 10.5631 21.2422 10.52C21.2422 10.466 21.2388 10.4128 21.2321 10.3607C21.1592 9.78726 20.6978 9.33512 20.12 9.27644C20.078 9.27217 20.0353 9.26999 19.9922 9.26999C19.3022 9.26999 18.7422 9.81999 18.7422 10.52C18.7422 11.22 19.3022 11.77 19.9922 11.77C20.0456 11.77 20.0982 11.7666 20.1498 11.7601C20.724 11.6879 21.177 11.2261 21.2357 10.6478Z" fill="#16212D"/>
<path d="M16.2457 10.6478C16.25 10.6058 16.2522 10.5631 16.2522 10.52C16.2522 9.82999 15.7022 9.26999 15.0022 9.26999C14.3122 9.26999 13.7522 9.81999 13.7522 10.52C13.7522 11.22 14.3122 11.77 15.0022 11.77C15.6494 11.77 16.1817 11.2781 16.2457 10.6478Z" fill="#16212D"/>
</g>
<defs>
<clipPath id="clip0_2035_789">
<rect width="50" height="50" fill="white"/>
</clipPath>
</defs>
</svg>
