<svg width="50" height="50" viewBox="0 0 50 50" fill="none" xmlns="http://www.w3.org/2000/svg">
<g clip-path="url(#clip0_2035_787)">
<path d="M19.9201 5.85993C19.9201 7.32992 19.1201 8.07992 18.1201 8.07992C17.1501 8.07992 16.3501 7.32992 16.3501 5.85993C16.3501 4.38993 17.1201 4.08993 18.1201 4.08993C19.1201 4.08993 19.9201 4.38993 19.9201 5.85993Z" fill="#16212D"/>
<path fill-rule="evenodd" clip-rule="evenodd" d="M19.6499 0.0699463C15.7099 0.0699463 12.5099 3.26995 12.5099 7.20995V11.1499C12.5099 11.2899 12.6199 11.3999 12.7599 11.3999H23.2199C24.1099 11.3999 24.8499 12.5799 24.9699 13.5299C24.9899 13.6699 24.8599 13.7999 24.7199 13.7999H7.16991C3.22991 13.7999 0.0299072 16.9999 0.0299072 20.9399V30.3799C0.0299072 34.3199 3.22991 37.5199 7.16991 37.5199H9.86991C10.0099 37.5199 10.1199 37.4099 10.1199 37.2699V30.7999C10.1199 26.8699 13.3099 23.6799 17.2399 23.6799H30.3699C34.2999 23.6799 37.4899 20.4899 37.4899 16.5599V7.20995C37.4899 3.26995 34.2899 0.0699463 30.3499 0.0699463H19.6499ZM30.3399 1.56995C33.4499 1.56995 35.9799 4.09995 35.9799 7.20995V16.5699C35.9799 19.6699 33.4599 22.1899 30.3599 22.1899H17.2299C12.4799 22.1899 8.60991 26.0499 8.60991 30.8099V36.0299H7.15991C4.04991 36.0299 1.51991 33.4999 1.51991 30.3899V20.9499C1.51991 17.8399 4.04991 15.3099 7.15991 15.3099H24.7199C25.2299 15.3099 25.7099 15.0899 26.0399 14.7099C26.3699 14.3299 26.5199 13.8399 26.4599 13.3499C26.2399 11.6999 24.9399 9.91995 23.2199 9.91995H14.0099V7.22995C14.0099 4.11995 16.5399 1.58995 19.6499 1.58995H30.3399V1.56995Z" fill="#16212D"/>
<path d="M30.6099 44.2099C30.6099 42.7399 31.4099 41.9899 32.4099 41.9899L32.3999 41.9999C33.3699 41.9999 34.1699 42.7499 34.1699 44.2199C34.1699 44.4499 34.1299 44.6899 34.0399 44.8999C33.9499 45.1099 33.8199 45.3099 33.6599 45.4699C33.4999 45.6299 33.3099 45.7599 33.0899 45.8499C32.8699 45.9399 32.6399 45.9799 32.4099 45.9799C31.4099 45.9799 30.6099 45.6799 30.6099 44.2099Z" fill="#16212D"/>
<path fill-rule="evenodd" clip-rule="evenodd" d="M40.13 12.5499H42.83L42.82 12.5399C45.62 12.5399 48.25 14.1899 49.42 16.9499C49.81 17.8799 49.96 18.8799 49.96 19.8799V29.1299C49.96 30.0699 49.78 30.9899 49.42 31.8599C49.06 32.7299 48.53 33.5199 47.87 34.1799C47.21 34.8499 46.42 35.3699 45.55 35.7299C44.68 36.0899 43.76 36.2699 42.82 36.2699H25.26C25.12 36.2699 24.99 36.3999 25.01 36.5399C25.13 37.4899 25.87 38.6699 26.76 38.6699H37.22C37.36 38.6699 37.47 38.7799 37.47 38.9199V42.6699C37.47 43.6699 37.32 44.6799 36.93 45.5999C35.76 48.3699 33.13 50.0099 30.33 50.0099H19.84C18.85 50.0099 17.84 49.8599 16.92 49.4699C14.15 48.2999 12.51 45.6699 12.51 42.8699V33.5099C12.51 29.5799 15.7 26.3899 19.63 26.3899H32.76C36.69 26.3899 39.88 23.1999 39.88 19.2699V12.7999C39.88 12.6599 39.99 12.5499 40.13 12.5499ZM48.05 17.5399C47.15 15.4199 45.1 14.0499 42.83 14.0499L42.84 14.0299H41.39V19.2499C41.39 24.0099 37.52 27.8699 32.77 27.8699H19.64C16.54 27.8699 14.02 30.3899 14.02 33.4899V42.8499C14.02 45.1199 15.39 47.1699 17.51 48.0699C18.17 48.3499 18.96 48.4899 19.85 48.4899H30.34C32.62 48.4899 34.66 47.1199 35.56 44.9999C35.84 44.3399 35.98 43.5499 35.98 42.6599V40.1599H26.77C25.05 40.1599 23.75 38.3799 23.53 36.7299C23.47 36.2399 23.62 35.7499 23.95 35.3699C24.28 34.9899 24.76 34.7699 25.27 34.7699H42.83C43.58 34.7699 44.3 34.6299 44.99 34.3399C45.68 34.0599 46.3 33.6499 46.82 33.1199C47.35 32.5899 47.76 31.9799 48.04 31.2899C48.33 30.5999 48.47 29.8699 48.47 29.1299V19.8799C48.47 18.9899 48.33 18.1999 48.05 17.5399Z" fill="#16212D"/>
</g>
<defs>
<clipPath id="clip0_2035_787">
<rect width="50" height="50" fill="white"/>
</clipPath>
</defs>
</svg>
