<svg width="50" height="50" viewBox="0 0 50 50" fill="none" xmlns="http://www.w3.org/2000/svg">
<path d="M25.28 22.53H25.12V22.47H25.24L25.25 22.48L25.28 22.53Z" fill="#16212D"/>
<path fill-rule="evenodd" clip-rule="evenodd" d="M25.24 22.47H25.12L25.25 22.48H25.24V22.47Z" fill="#16212D"/>
<path d="M24.4231 18.4955C24.4319 18.6236 24.4792 18.7313 24.5547 18.8136L24.556 18.815C24.6754 18.9464 24.8392 19.0123 25.0067 19.0123C25.1742 19.0123 25.338 18.9464 25.4574 18.815L25.4586 18.8138C25.6197 18.6378 25.6511 18.3357 25.4426 17.9651L24.4231 18.4955Z" fill="#16212D"/>
<path fill-rule="evenodd" clip-rule="evenodd" d="M2.5 4C2.5 1.79 4.29 0 6.5 0H43.5C45.71 0 47.5 1.79 47.5 4V46C47.5 48.21 45.71 50 43.5 50H6.5C4.29 50 2.5 48.21 2.5 46V4ZM4 46V15.75H17.5V26.01C17.5 26.84 18.18 27.51 19 27.51H19.48V28.95C19.56 29.57 19.83 30.99 20.83 30.99H21.7V31.44C21.7 32.09 21.76 32.16 21.88 32.3L22.06 32.5H22.57L22.75 32.3C22.92 32.13 22.96 32.07 22.93 30.99H23.8C24.81 30.99 25.15 29.85 25.15 28.89V27.42H25.33L25.35 27.44L25.4 27.51L26.08 28.52V35H29.98V28.47L30.48 27.51H30.99C31.82 27.51 32.49 26.83 32.49 26.01V15.75H46V46C46 47.38 44.88 48.5 43.5 48.5H6.5C5.12 48.5 4 47.38 4 46ZM24.8266 14.4108C24.8793 14.6857 24.701 14.9517 24.4282 15.0048C23.0475 15.2739 22.0059 16.4985 22.0059 17.9679C22.0059 19.6347 23.3465 20.9861 25 20.9861C26.6535 20.9861 27.9941 19.6347 27.9941 17.9679C27.9941 16.5101 26.9698 15.294 25.6058 15.0103C25.3338 14.9538 25.1588 14.6856 25.2149 14.4114C25.271 14.1372 25.5371 13.9607 25.8091 14.0173C27.6304 14.3961 29 16.0189 29 17.9679C29 20.1947 27.209 22 25 22C22.791 22 21 20.1947 21 17.9679C21 16.0035 22.3925 14.3689 24.2373 14.0093C24.51 13.9562 24.7738 14.1359 24.8266 14.4108ZM25.4168 16.1184C25.3217 15.9867 25.1696 15.909 25.0079 15.9097C24.8463 15.9104 24.6948 15.9894 24.6008 16.122C24.549 16.1951 24.1461 16.7683 23.7861 17.3162C23.3983 17.9065 23.1821 18.8093 23.8152 19.5009C24.1382 19.8558 24.5777 20.0262 25.0067 20.0262C25.4358 20.0262 25.8752 19.8557 26.1983 19.5008C26.8017 18.8413 26.6279 17.9824 26.2761 17.3943C26.2645 17.3673 26.2505 17.3412 26.234 17.3162C26.174 17.2248 26.1128 17.1327 26.0522 17.0424C26.0424 17.0259 26.0317 17.0099 26.0201 16.9945C25.7306 16.5639 25.4635 16.1831 25.4168 16.1184Z" fill="#16212D"/>
</svg>
