<svg width="50" height="50" viewBox="0 0 50 50" fill="none" xmlns="http://www.w3.org/2000/svg">
<g clip-path="url(#clip0_2488_312)">
<path d="M35.9341 0.150391L36.0857 0.166551C36.4289 0.238105 36.6875 0.547795 36.6875 0.91916V31.9354H38.3324C38.748 31.9356 39.0845 32.279 39.0847 32.703V49.3816C39.0847 49.8059 38.7481 50.1502 38.3324 50.1504H27.3386C26.9228 50.1504 26.5852 49.8059 26.5852 49.3816V0.91916L26.601 0.764482C26.6712 0.414308 26.9747 0.150391 27.3386 0.150391H35.9341ZM28.0921 48.6129H37.579V33.4718H35.9341C35.5183 33.4717 35.1806 33.1273 35.1806 32.703V1.68793H28.0921V48.6129Z" fill="#16212D"/>
<path d="M38.332 44.8659L38.4836 44.882C38.8268 44.9536 39.0854 45.2633 39.0854 45.6346L39.0847 49.3816C39.0847 49.8059 38.7481 50.1502 38.3324 50.1504L34.6599 50.1503C34.244 50.1503 33.9065 49.8059 33.9065 49.3815V45.6346L33.9223 45.48C33.9925 45.1298 34.296 44.8659 34.6599 44.8659H38.332ZM35.4133 48.6128L37.579 48.6129L37.5786 46.4034H35.4133V48.6128Z" fill="#16212D"/>
<path d="M27.3498 38.613L27.5025 38.6292C27.8454 38.7011 28.1032 39.0107 28.1032 39.3818V41.545L28.0874 41.6997C28.0172 42.0497 27.7137 42.3137 27.3498 42.3137H11.8389C11.4231 42.3137 11.0855 41.9693 11.0854 41.545V39.3818L11.1013 39.2271C11.1714 38.877 11.475 38.613 11.8389 38.613H27.3498ZM12.5923 40.7762H26.5975V40.1506H12.5923V40.7762Z" fill="#16212D"/>
<path d="M24.0602 31.9347L24.2118 31.9508C24.555 32.0224 24.8137 32.3321 24.8137 32.7034V39.3823C24.8134 39.8064 24.4759 40.1499 24.0602 40.1499H15.1288C14.7131 40.1499 14.3756 39.8064 14.3754 39.3823V32.7034L14.3912 32.5488C14.4614 32.1986 14.7649 31.9347 15.1288 31.9347H24.0602ZM15.8822 38.6135H23.3068V33.4722H15.8822V38.6135Z" fill="#16212D"/>
</g>
<defs>
<clipPath id="clip0_2488_312">
<rect width="50" height="50" fill="white"/>
</clipPath>
</defs>
</svg>
