<svg width="50" height="50" viewBox="0 0 50 50" fill="none" xmlns="http://www.w3.org/2000/svg">
<g clip-path="url(#clip0_2035_660)">
<path d="M25.04 50.01C17.38 50.01 11.15 43.9 11.15 36.39C11.15 31.75 13.48 27.53 17.42 24.99C17.03 22.22 16.74 18.97 16.57 15.33C16.57 15.12 16.63 14.93 16.78 14.78C16.93 14.63 17.12 14.55 17.32 14.55H32.59C32.8 14.55 33 14.64 33.14 14.79C33.28 14.94 33.35 15.15 33.33 15.36C33.04 18.65 32.58 21.74 31.96 24.58C36.27 27.01 38.92 31.48 38.92 36.39C38.92 43.9 32.69 50.01 25.03 50.01H25.04ZM18.12 16.05C18.3 19.54 18.59 22.63 18.99 25.26C19.03 25.56 18.89 25.86 18.63 26.01C14.89 28.24 12.66 32.12 12.66 36.39C12.66 43.07 18.22 48.51 25.05 48.51C31.88 48.51 37.44 43.08 37.44 36.39C37.44 31.85 34.89 27.73 30.79 25.64C30.48 25.48 30.32 25.14 30.4 24.8C31.02 22.12 31.49 19.17 31.79 16.05H18.12Z" fill="#16212D"/>
<path d="M32.6 16.05H17.33C16.93 16.05 16.6 15.73 16.58 15.33C16.47 12.86 16.41 10.23 16.41 7.51C16.41 3.37 20.29 0 25.04 0C29.79 0 33.68 3.37 33.68 7.51C33.68 10.18 33.57 12.82 33.35 15.37C33.32 15.76 32.99 16.06 32.6 16.06V16.05ZM31.91 14.55C32.09 12.26 32.18 9.89 32.18 7.51C32.18 4.2 28.98 1.5 25.04 1.5C21.1 1.5 17.91 4.2 17.91 7.51C17.91 9.95 17.95 12.32 18.04 14.55H31.91Z" fill="#16212D"/>
</g>
<defs>
<clipPath id="clip0_2035_660">
<rect width="50" height="50" fill="white"/>
</clipPath>
</defs>
</svg>
