<svg width="50" height="50" viewBox="0 0 50 50" fill="none" xmlns="http://www.w3.org/2000/svg">
<g clip-path="url(#clip0_2035_668)">
<path d="M23.2 1.99999C26 1.99999 28.82 2.63999 31.35 3.83999C33.43 4.82999 35.33 6.20999 36.92 7.87999L33.99 10.26C32.76 9.01999 31.31 7.98999 29.74 7.23999C27.72 6.26999 25.46 5.75999 23.21 5.75999C20.96 5.75999 18.71 6.26999 16.68 7.23999C15.39 7.84999 14.2 8.64999 13.13 9.59999C12.82 9.86999 12.64 10.26 12.63 10.68C12.62 11.1 12.78 11.49 13.07 11.79L14.43 13.15H7.1V5.81999L8.29 7.00999C8.58 7.29999 8.97 7.44999 9.35 7.44999C9.73 7.44999 10.08 7.31999 10.37 7.04999C11.77 5.74999 13.36 4.67999 15.08 3.85999C17.61 2.64999 20.42 2.01999 23.22 2.01999M40.4 15.96L46.79 19.65L45.27 20.05C44.5 20.26 44.02 21.03 44.19 21.81C44.58 23.63 44.7 25.49 44.55 27.34C44.32 30.13 43.47 32.88 42.07 35.3C40.67 37.72 38.71 39.84 36.41 41.44C34.52 42.74 32.38 43.7 30.14 44.25L29.53 40.52C31.22 40.07 32.84 39.33 34.27 38.34C36.12 37.06 37.68 35.36 38.81 33.42C39.93 31.48 40.62 29.27 40.8 27.03C40.91 25.68 40.84 24.3 40.58 22.95C40.5 22.54 40.26 22.18 39.91 21.96C39.67 21.81 39.39 21.73 39.11 21.73C38.98 21.73 38.85 21.75 38.73 21.78L36.74 22.31L40.41 15.95M2.28 20.08L5.8 21.44C5.34 23.12 5.17 24.89 5.3 26.63C5.47 28.87 6.16 31.08 7.28 33.02C8.4 34.96 9.97 36.66 11.82 37.93C13 38.74 14.3 39.38 15.66 39.83C15.81 39.88 15.97 39.91 16.13 39.91C16.38 39.91 16.62 39.85 16.84 39.73C17.2 39.53 17.47 39.2 17.58 38.8L18.03 37.14L21.59 43.3L15.42 46.86L15.83 45.33C16.04 44.55 15.59 43.74 14.82 43.51C13 42.95 11.27 42.11 9.69 41.03C7.38 39.44 5.42 37.32 4.02 34.9C2.62 32.47 1.77 29.71 1.55 26.92C1.37 24.63 1.62 22.29 2.28 20.08ZM23.2 0.49999C20.16 0.49999 17.16 1.17999 14.41 2.48999C12.55 3.37999 10.84 4.53999 9.33 5.92999L6.28 2.87999C6.22 2.81999 6.15 2.77999 6.07 2.75999C6.04 2.75999 6.02 2.75999 5.99 2.75999C5.94 2.75999 5.88 2.76999 5.83 2.78999C5.75 2.81999 5.69 2.87999 5.65 2.94999C5.61 3.01999 5.58 3.09999 5.59 3.17999V14.2C5.59 14.31 5.63 14.42 5.71 14.5C5.79 14.58 5.89 14.63 6 14.64H17.02C17.1 14.64 17.18 14.6 17.25 14.55C17.31 14.5 17.37 14.44 17.4 14.36C17.43 14.29 17.44 14.2 17.42 14.12C17.41 14.04 17.37 13.96 17.31 13.9L14.12 10.71C15.08 9.85999 16.16 9.13999 17.32 8.58999C19.16 7.70999 21.17 7.25999 23.2 7.25999C25.23 7.25999 27.24 7.70999 29.08 8.58999C30.92 9.46999 32.54 10.74 33.82 12.32L39.07 8.05999C37.16 5.69999 34.74 3.78999 31.99 2.47999C29.25 1.16999 26.24 0.48999 23.2 0.48999V0.49999ZM40 14.05C39.89 14.05 39.79 14.09 39.71 14.16L34.23 23.63C34.23 23.63 34.14 23.72 34.11 23.77C34.08 23.82 34.06 23.88 34.05 23.94C34.05 24 34.05 24.06 34.07 24.12C34.09 24.18 34.11 24.23 34.15 24.28C34.19 24.33 34.24 24.37 34.29 24.4C34.34 24.43 34.4 24.45 34.46 24.46C34.48 24.46 34.5 24.46 34.51 24.46C34.55 24.46 34.6 24.46 34.64 24.44C34.7 24.42 34.76 24.4 34.8 24.36L39.09 23.22C39.32 24.43 39.39 25.66 39.29 26.9C39.12 28.93 38.51 30.9 37.49 32.66C36.47 34.42 35.07 35.94 33.4 37.1C31.72 38.26 29.81 39.02 27.8 39.35L28.89 46.02C31.89 45.53 34.74 44.38 37.24 42.66C39.74 40.93 41.83 38.67 43.35 36.04C44.87 33.41 45.79 30.47 46.03 27.45C46.19 25.45 46.06 23.44 45.64 21.49L49.76 20.4C49.83 20.36 49.89 20.31 49.93 20.24C49.97 20.17 49.99 20.1 49.99 20.02C49.99 19.94 49.97 19.86 49.93 19.79C49.89 19.72 49.83 19.67 49.76 19.63L40.28 14.16C40.2 14.09 40.1 14.05 39.99 14.05H40ZM1.37 18.12C0.27 20.96 -0.17 24.01 0.0599995 27.04C0.3 30.07 1.21 33.01 2.73 35.65C4.25 38.28 6.34 40.54 8.85 42.27C10.56 43.44 12.42 44.34 14.39 44.95L13.3 48.99C13.29 49.07 13.3 49.15 13.32 49.23C13.35 49.3 13.4 49.37 13.46 49.42C13.52 49.47 13.6 49.5 13.68 49.51C13.7 49.51 13.71 49.51 13.73 49.51C13.8 49.51 13.86 49.5 13.92 49.47L23.4 44C23.47 43.92 23.51 43.83 23.51 43.72C23.51 43.61 23.47 43.52 23.4 43.44L17.92 33.96C17.92 33.96 17.82 33.89 17.76 33.87C17.72 33.86 17.68 33.85 17.64 33.85C17.62 33.85 17.6 33.85 17.57 33.85C17.51 33.86 17.45 33.89 17.4 33.92C17.35 33.96 17.31 34 17.28 34.06L16.11 38.4C14.89 38 13.72 37.42 12.65 36.69C10.98 35.54 9.58 34.03 8.56 32.27C7.54 30.51 6.94 28.54 6.78 26.51C6.62 24.48 6.92 22.45 7.65 20.55L1.34 18.12H1.37Z" fill="#16212D"/>
</g>
<defs>
<clipPath id="clip0_2035_668">
<rect width="50" height="50" fill="white"/>
</clipPath>
</defs>
</svg>
