<?xml version="1.0" encoding="UTF-8" standalone="no"?>
<!DOCTYPE svg PUBLIC "-//W3C//DTD SVG 1.1//EN" "http://www.w3.org/Graphics/SVG/1.1/DTD/svg11.dtd">
<svg width="100%" height="100%" viewBox="0 0 426 142" version="1.1" xmlns="http://www.w3.org/2000/svg" xmlns:xlink="http://www.w3.org/1999/xlink" xml:space="preserve" xmlns:serif="http://www.serif.com/" style="fill-rule:evenodd;clip-rule:evenodd;stroke-linejoin:round;stroke-miterlimit:2;">
    <g id="WHITE-BG" serif:id="WHITE BG">
        <rect x="0" y="0" width="425.197" height="141.732" style="fill:white;"/>
    </g>
    <g id="PRINT">
        <g transform="matrix(1,0,0,1,158.478,82.7263)">
            <path d="M0,20.372C-0.113,20.372 -0.229,20.352 -0.341,20.311C-0.86,20.123 -1.128,19.55 -0.94,19.03L5.687,0.785C5.876,0.267 6.45,0 6.969,0.187C7.488,0.376 7.756,0.949 7.567,1.469L0.94,19.714C0.792,20.12 0.409,20.372 0,20.372" style="fill-rule:nonzero;"/>
        </g>
        <g transform="matrix(1,0,0,1,215.932,118.347)">
            <path d="M0,-94.961L-77.953,-94.961C-82.649,-94.961 -86.457,-91.154 -86.457,-86.457L-86.457,-8.504C-86.457,-3.808 -82.649,0 -77.953,0L0,0C4.697,0 8.504,-3.808 8.504,-8.504L8.504,-86.457C8.504,-91.154 4.697,-94.961 0,-94.961M0,-92.961C3.586,-92.961 6.504,-90.043 6.504,-86.457L6.504,-8.504C6.504,-4.918 3.586,-2 0,-2L-77.953,-2C-81.539,-2 -84.457,-4.918 -84.457,-8.504L-84.457,-86.457C-84.457,-90.043 -81.539,-92.961 -77.953,-92.961L0,-92.961Z" style="fill-rule:nonzero;"/>
        </g>
        <g transform="matrix(1,0,0,1,151.938,36.7014)">
            <path d="M0,-0.708L1.602,-0.708C2.07,-0.708 2.441,-0.834 2.715,-1.086C2.989,-1.338 3.126,-1.662 3.126,-2.058C3.126,-2.458 2.994,-2.774 2.73,-3.006C2.466,-3.238 2.132,-3.354 1.728,-3.354L0,-3.354L0,-0.708ZM-1.746,3.984L-1.746,-4.692L1.914,-4.692C2.606,-4.692 3.172,-4.582 3.612,-4.362C4.052,-4.142 4.376,-3.837 4.584,-3.447C4.792,-3.057 4.896,-2.608 4.896,-2.1C4.896,-1.644 4.825,-1.259 4.683,-0.945C4.541,-0.631 4.355,-0.37 4.125,-0.162C3.895,0.046 3.644,0.216 3.372,0.348L4.986,3.984L3.168,3.984L1.758,0.642L0,0.642L0,3.984L-1.746,3.984Z" style="fill-rule:nonzero;"/>
        </g>
        <g transform="matrix(1,0,0,1,158.544,32.0093)">
            <path d="M0,8.676L0,0L5.958,0L5.952,1.476L1.758,1.476L1.758,3.582L5.4,3.582L5.4,5.028L1.746,5.028L1.746,7.182L6.018,7.188L6.018,8.676L0,8.676Z" style="fill-rule:nonzero;"/>
        </g>
        <g transform="matrix(1,0,0,1,167.94,36.4611)">
            <path d="M0,-0.228L1.626,-0.228C2.066,-0.228 2.426,-0.369 2.706,-0.651C2.986,-0.933 3.126,-1.282 3.126,-1.698C3.126,-2.13 2.978,-2.473 2.682,-2.727C2.386,-2.981 2.026,-3.108 1.602,-3.108L0,-3.108L0,-0.228ZM-1.746,4.224L-1.746,-4.452L1.446,-4.452C2.078,-4.452 2.644,-4.343 3.144,-4.125C3.644,-3.907 4.039,-3.586 4.329,-3.162C4.619,-2.738 4.764,-2.22 4.764,-1.608C4.764,-1.032 4.636,-0.54 4.38,-0.132C4.124,0.276 3.765,0.588 3.303,0.804C2.841,1.02 2.298,1.128 1.674,1.128L0.018,1.128L0.018,4.224L-1.746,4.224Z" style="fill-rule:nonzero;"/>
        </g>
        <g transform="matrix(1,0,0,1,174.024,32.0093)">
            <path d="M0,8.676L0,0L1.764,0L1.764,7.194L5.532,7.194L5.532,8.676L0,8.676Z" style="fill-rule:nonzero;"/>
        </g>
        <g transform="matrix(1,0,0,1,183.366,35.5492)">
            <path d="M0,1.596L2.304,1.596L1.158,-1.854L0,1.596ZM-2.874,5.136L0.228,-3.54L2.082,-3.54L5.184,5.136L3.438,5.136L2.73,3.126L-0.396,3.126L-1.116,5.136L-2.874,5.136Z" style="fill-rule:nonzero;"/>
        </g>
        <g transform="matrix(1,0,0,1,192.966,31.8894)">
            <path d="M0,8.916C-0.808,8.916 -1.506,8.728 -2.094,8.352C-2.682,7.976 -3.135,7.448 -3.453,6.768C-3.771,6.088 -3.93,5.294 -3.93,4.386C-3.93,3.474 -3.772,2.691 -3.456,2.037C-3.14,1.383 -2.688,0.88 -2.1,0.528C-1.512,0.176 -0.812,0 0,0C0.652,0 1.233,0.131 1.743,0.393C2.253,0.655 2.665,1.012 2.979,1.464C3.293,1.916 3.478,2.426 3.534,2.994L1.698,2.994C1.642,2.694 1.54,2.427 1.392,2.193C1.244,1.959 1.05,1.775 0.81,1.641C0.57,1.507 0.282,1.44 -0.054,1.44C-0.458,1.44 -0.806,1.538 -1.098,1.734C-1.39,1.93 -1.614,2.246 -1.77,2.682C-1.926,3.118 -2.004,3.694 -2.004,4.41C-2.004,5.49 -1.831,6.271 -1.485,6.753C-1.139,7.235 -0.662,7.476 -0.054,7.476C0.282,7.476 0.57,7.399 0.81,7.245C1.05,7.091 1.244,6.887 1.392,6.633C1.54,6.379 1.642,6.1 1.698,5.796L3.534,5.796C3.482,6.208 3.382,6.601 3.234,6.975C3.086,7.349 2.876,7.682 2.604,7.974C2.332,8.266 1.982,8.496 1.554,8.664C1.126,8.832 0.608,8.916 0,8.916" style="fill-rule:nonzero;"/>
        </g>
        <g transform="matrix(1,0,0,1,198.048,32.0093)">
            <path d="M0,8.676L0,0L5.958,0L5.952,1.476L1.758,1.476L1.758,3.582L5.4,3.582L5.4,5.028L1.746,5.028L1.746,7.182L6.018,7.188L6.018,8.676L0,8.676Z" style="fill-rule:nonzero;"/>
        </g>
        <g transform="matrix(1,0,0,1,141.729,47.2555)">
            <path d="M0,6.984C0.536,6.984 0.992,6.862 1.368,6.618C1.744,6.374 2.031,5.996 2.229,5.484C2.427,4.971 2.526,4.318 2.526,3.522C2.526,2.713 2.426,2.049 2.226,1.53C2.026,1.009 1.738,0.625 1.362,0.375C0.986,0.125 0.532,0 0,0C-0.528,0 -0.982,0.126 -1.362,0.378C-1.742,0.63 -2.034,1.016 -2.238,1.536C-2.442,2.055 -2.544,2.717 -2.544,3.522C-2.544,4.318 -2.442,4.971 -2.238,5.484C-2.034,5.996 -1.742,6.374 -1.362,6.618C-0.982,6.862 -0.528,6.984 0,6.984M0,7.95C-0.772,7.95 -1.44,7.776 -2.004,7.427C-2.568,7.08 -3.003,6.575 -3.309,5.913C-3.615,5.251 -3.768,4.45 -3.768,3.509C-3.768,2.562 -3.614,1.755 -3.306,1.088C-2.998,0.422 -2.561,-0.086 -1.995,-0.438C-1.429,-0.79 -0.764,-0.966 0,-0.966C0.768,-0.966 1.432,-0.791 1.992,-0.442C2.552,-0.091 2.984,0.417 3.288,1.083C3.592,1.749 3.744,2.558 3.744,3.509C3.744,4.45 3.593,5.251 3.291,5.913C2.989,6.575 2.558,7.08 1.998,7.427C1.438,7.776 0.772,7.95 0,7.95" style="fill-rule:nonzero;"/>
        </g>
        <g transform="matrix(1,0,0,1,146.955,48.7912)">
            <path d="M0,6.294L0,0.09L1.074,0.09L1.074,0.99C1.174,0.818 1.313,0.656 1.491,0.504C1.669,0.352 1.885,0.231 2.139,0.138C2.393,0.046 2.686,0 3.018,0C3.41,0 3.771,0.078 4.101,0.234C4.431,0.39 4.695,0.633 4.893,0.963C5.091,1.293 5.19,1.718 5.19,2.238L5.19,6.294L4.08,6.294L4.08,2.346C4.08,1.862 3.953,1.503 3.699,1.269C3.445,1.035 3.116,0.918 2.712,0.918C2.432,0.918 2.17,0.963 1.926,1.053C1.682,1.143 1.484,1.279 1.332,1.461C1.18,1.643 1.104,1.872 1.104,2.148L1.104,6.294L0,6.294Z" style="fill-rule:nonzero;"/>
        </g>
        <g transform="matrix(1,0,0,1,154.701,52.4754)">
            <path d="M0,-0.984L3.372,-0.984C3.372,-1.34 3.312,-1.661 3.192,-1.947C3.072,-2.233 2.889,-2.46 2.643,-2.626C2.397,-2.792 2.088,-2.875 1.716,-2.875C1.328,-2.875 1.006,-2.781 0.75,-2.595C0.494,-2.409 0.304,-2.171 0.18,-1.881C0.056,-1.591 -0.004,-1.293 0,-0.984M1.8,2.73C1.224,2.73 0.716,2.604 0.276,2.352C-0.164,2.1 -0.508,1.738 -0.756,1.266C-1.004,0.793 -1.128,0.228 -1.128,-0.432C-1.128,-1.085 -1.016,-1.656 -0.792,-2.148C-0.568,-2.64 -0.243,-3.024 0.183,-3.3C0.609,-3.576 1.122,-3.714 1.722,-3.714C2.306,-3.714 2.8,-3.588 3.204,-3.337C3.608,-3.085 3.915,-2.729 4.125,-2.271C4.335,-1.813 4.44,-1.27 4.44,-0.642L4.44,-0.234L-0.006,-0.234C-0.006,0.158 0.059,0.513 0.189,0.83C0.319,1.149 0.516,1.402 0.78,1.59C1.044,1.778 1.378,1.871 1.782,1.871C2.178,1.871 2.519,1.78 2.805,1.596C3.091,1.412 3.274,1.146 3.354,0.798L4.398,0.798C4.326,1.218 4.159,1.572 3.897,1.86C3.635,2.148 3.321,2.365 2.955,2.511C2.589,2.657 2.204,2.73 1.8,2.73" style="fill-rule:nonzero;"/>
        </g>
        <g transform="matrix(1,0,0,1,164.056,48.8806)">
            <path d="M0,8.185C-0.364,8.185 -0.682,8.132 -0.954,8.029L-0.954,7.308L-0.318,7.321C-0.09,7.329 0.1,7.313 0.252,7.273C0.404,7.233 0.526,7.178 0.618,7.111C0.71,7.042 0.781,6.966 0.831,6.882C0.881,6.798 0.922,6.718 0.954,6.643L1.17,6.054L-1.254,0L-0.132,0L1.698,4.789L3.516,0L4.602,0L1.992,6.672C1.828,7.065 1.647,7.371 1.449,7.59C1.251,7.81 1.031,7.964 0.789,8.052C0.547,8.14 0.284,8.185 0,8.185" style="fill-rule:nonzero;"/>
        </g>
        <g transform="matrix(1,0,0,1,170.56,52.4754)">
            <path d="M0,-0.984L3.372,-0.984C3.372,-1.34 3.312,-1.661 3.192,-1.947C3.072,-2.233 2.889,-2.46 2.643,-2.626C2.397,-2.792 2.088,-2.875 1.716,-2.875C1.328,-2.875 1.006,-2.781 0.75,-2.595C0.494,-2.409 0.304,-2.171 0.18,-1.881C0.056,-1.591 -0.004,-1.293 0,-0.984M1.8,2.73C1.224,2.73 0.716,2.604 0.276,2.352C-0.164,2.1 -0.508,1.738 -0.756,1.266C-1.004,0.793 -1.128,0.228 -1.128,-0.432C-1.128,-1.085 -1.016,-1.656 -0.792,-2.148C-0.568,-2.64 -0.243,-3.024 0.183,-3.3C0.609,-3.576 1.122,-3.714 1.722,-3.714C2.306,-3.714 2.8,-3.588 3.204,-3.337C3.608,-3.085 3.915,-2.729 4.125,-2.271C4.335,-1.813 4.44,-1.27 4.44,-0.642L4.44,-0.234L-0.006,-0.234C-0.006,0.158 0.059,0.513 0.189,0.83C0.319,1.149 0.516,1.402 0.78,1.59C1.044,1.778 1.378,1.871 1.782,1.871C2.178,1.871 2.519,1.78 2.805,1.596C3.091,1.412 3.274,1.146 3.354,0.798L4.398,0.798C4.326,1.218 4.159,1.572 3.897,1.86C3.635,2.148 3.321,2.365 2.955,2.511C2.589,2.657 2.204,2.73 1.8,2.73" style="fill-rule:nonzero;"/>
        </g>
        <g transform="matrix(1,0,0,1,178.527,49.5594)">
            <path d="M0,4.848C0.212,4.848 0.421,4.81 0.627,4.734C0.833,4.658 1.021,4.555 1.191,4.425C1.361,4.295 1.498,4.149 1.602,3.987C1.706,3.825 1.758,3.658 1.758,3.486L1.758,2.424L0.84,2.442C0.364,2.45 -0.032,2.497 -0.348,2.585C-0.664,2.674 -0.902,2.812 -1.062,2.999C-1.222,3.188 -1.302,3.434 -1.302,3.738C-1.302,4.085 -1.18,4.358 -0.936,4.554C-0.692,4.749 -0.38,4.848 0,4.848M-0.33,5.646C-0.734,5.646 -1.089,5.575 -1.395,5.433C-1.701,5.29 -1.941,5.085 -2.115,4.818C-2.289,4.55 -2.376,4.226 -2.376,3.846C-2.376,3.158 -2.136,2.646 -1.656,2.31C-1.176,1.974 -0.406,1.793 0.654,1.77L1.758,1.74L1.758,1.253C1.758,0.873 1.644,0.573 1.416,0.351C1.188,0.128 0.836,0.018 0.36,0.018C0.004,0.022 -0.31,0.106 -0.582,0.27C-0.854,0.434 -1.028,0.702 -1.104,1.074L-2.082,1.074C-2.058,0.669 -1.945,0.328 -1.743,0.051C-1.541,-0.227 -1.256,-0.438 -0.888,-0.583C-0.52,-0.726 -0.086,-0.798 0.414,-0.798C0.954,-0.798 1.403,-0.722 1.761,-0.57C2.119,-0.419 2.387,-0.194 2.565,0.102C2.743,0.398 2.832,0.762 2.832,1.194L2.832,5.526L1.884,5.526L1.8,4.362C1.564,4.846 1.261,5.181 0.891,5.367C0.521,5.553 0.114,5.646 -0.33,5.646" style="fill-rule:nonzero;"/>
        </g>
        <g transform="matrix(1,0,0,1,183.093,48.7612)">
            <path d="M0,6.324L0,0.12L1.056,0.12L1.056,1.314C1.16,1.018 1.306,0.773 1.494,0.579C1.682,0.385 1.897,0.24 2.139,0.144C2.381,0.048 2.632,0 2.892,0C2.984,0 3.074,0.006 3.162,0.018C3.25,0.03 3.318,0.05 3.366,0.078L3.366,1.152C3.306,1.124 3.229,1.105 3.135,1.095C3.041,1.085 2.962,1.08 2.898,1.08C2.65,1.064 2.418,1.079 2.202,1.125C1.986,1.171 1.796,1.25 1.632,1.362C1.468,1.474 1.339,1.621 1.245,1.803C1.151,1.985 1.104,2.206 1.104,2.466L1.104,6.324L0,6.324Z" style="fill-rule:nonzero;"/>
        </g>
        <g transform="matrix(1,0,0,1,192.771,49.5594)">
            <path d="M0,4.848C0.212,4.848 0.421,4.81 0.627,4.734C0.833,4.658 1.021,4.555 1.191,4.425C1.361,4.295 1.498,4.149 1.602,3.987C1.706,3.825 1.758,3.658 1.758,3.486L1.758,2.424L0.84,2.442C0.364,2.45 -0.032,2.497 -0.348,2.585C-0.664,2.674 -0.902,2.812 -1.062,2.999C-1.222,3.188 -1.302,3.434 -1.302,3.738C-1.302,4.085 -1.18,4.358 -0.936,4.554C-0.692,4.749 -0.38,4.848 0,4.848M-0.33,5.646C-0.734,5.646 -1.089,5.575 -1.395,5.433C-1.701,5.29 -1.941,5.085 -2.115,4.818C-2.289,4.55 -2.376,4.226 -2.376,3.846C-2.376,3.158 -2.136,2.646 -1.656,2.31C-1.176,1.974 -0.406,1.793 0.654,1.77L1.758,1.74L1.758,1.253C1.758,0.873 1.644,0.573 1.416,0.351C1.188,0.128 0.836,0.018 0.36,0.018C0.004,0.022 -0.31,0.106 -0.582,0.27C-0.854,0.434 -1.028,0.702 -1.104,1.074L-2.082,1.074C-2.058,0.669 -1.945,0.328 -1.743,0.051C-1.541,-0.227 -1.256,-0.438 -0.888,-0.583C-0.52,-0.726 -0.086,-0.798 0.414,-0.798C0.954,-0.798 1.403,-0.722 1.761,-0.57C2.119,-0.419 2.387,-0.194 2.565,0.102C2.743,0.398 2.832,0.762 2.832,1.194L2.832,5.526L1.884,5.526L1.8,4.362C1.564,4.846 1.261,5.181 0.891,5.367C0.521,5.553 0.114,5.646 -0.33,5.646" style="fill-rule:nonzero;"/>
        </g>
        <g transform="matrix(1,0,0,1,197.967,46.4092)">
            <path d="M0,8.676L0,3.282L-1.314,3.282L-1.314,2.472L0,2.472L0,1.512C0,1.02 0.125,0.645 0.375,0.387C0.625,0.129 1,0 1.5,0L2.67,0L2.676,0.786L1.752,0.786C1.496,0.786 1.322,0.854 1.23,0.99C1.138,1.126 1.092,1.332 1.092,1.608L1.092,2.472L2.616,2.472L2.616,3.282L1.11,3.282L1.11,8.676L0,8.676Z" style="fill-rule:nonzero;"/>
        </g>
        <g transform="matrix(1,0,0,1,203.793,47.0754)">
            <path d="M0,8.04C-0.428,8.04 -0.76,7.981 -0.996,7.866C-1.232,7.75 -1.397,7.578 -1.491,7.35C-1.585,7.122 -1.632,6.842 -1.632,6.51L-1.632,2.616L-2.64,2.616L-2.64,1.806L-1.602,1.806L-1.332,0L-0.516,0L-0.516,1.8L0.882,1.8L0.882,2.616L-0.516,2.616L-0.516,6.474C-0.516,6.693 -0.493,6.854 -0.447,6.957C-0.401,7.059 -0.324,7.124 -0.216,7.151C-0.108,7.18 0.044,7.193 0.24,7.193L0.918,7.193L0.918,7.937C0.842,7.966 0.727,7.99 0.573,8.01C0.419,8.029 0.228,8.04 0,8.04" style="fill-rule:nonzero;"/>
        </g>
        <g transform="matrix(1,0,0,1,206.848,52.4754)">
            <path d="M0,-0.984L3.372,-0.984C3.372,-1.34 3.312,-1.661 3.192,-1.947C3.072,-2.233 2.889,-2.46 2.643,-2.626C2.397,-2.792 2.088,-2.875 1.716,-2.875C1.328,-2.875 1.006,-2.781 0.75,-2.595C0.494,-2.409 0.304,-2.171 0.18,-1.881C0.056,-1.591 -0.004,-1.293 0,-0.984M1.8,2.73C1.224,2.73 0.716,2.604 0.276,2.352C-0.164,2.1 -0.508,1.738 -0.756,1.266C-1.004,0.793 -1.128,0.228 -1.128,-0.432C-1.128,-1.085 -1.016,-1.656 -0.792,-2.148C-0.568,-2.64 -0.243,-3.024 0.183,-3.3C0.609,-3.576 1.122,-3.714 1.722,-3.714C2.306,-3.714 2.8,-3.588 3.204,-3.337C3.608,-3.085 3.915,-2.729 4.125,-2.271C4.335,-1.813 4.44,-1.27 4.44,-0.642L4.44,-0.234L-0.006,-0.234C-0.006,0.158 0.059,0.513 0.189,0.83C0.319,1.149 0.516,1.402 0.78,1.59C1.044,1.778 1.378,1.871 1.782,1.871C2.178,1.871 2.519,1.78 2.805,1.596C3.091,1.412 3.274,1.146 3.354,0.798L4.398,0.798C4.326,1.218 4.159,1.572 3.897,1.86C3.635,2.148 3.321,2.365 2.955,2.511C2.589,2.657 2.204,2.73 1.8,2.73" style="fill-rule:nonzero;"/>
        </g>
        <g transform="matrix(1,0,0,1,212.823,48.7612)">
            <path d="M0,6.324L0,0.12L1.056,0.12L1.056,1.314C1.16,1.018 1.306,0.773 1.494,0.579C1.683,0.385 1.897,0.24 2.14,0.144C2.381,0.048 2.632,0 2.892,0C2.983,0 3.074,0.006 3.162,0.018C3.25,0.03 3.317,0.05 3.366,0.078L3.366,1.152C3.306,1.124 3.229,1.105 3.136,1.095C3.041,1.085 2.962,1.08 2.897,1.08C2.649,1.064 2.418,1.079 2.202,1.125C1.985,1.171 1.796,1.25 1.632,1.362C1.468,1.474 1.339,1.621 1.245,1.803C1.151,1.985 1.104,2.206 1.104,2.466L1.104,6.324L0,6.324Z" style="fill-rule:nonzero;"/>
        </g>
        <g transform="matrix(1,0,0,1,166.599,61.4221)">
            <path d="M0,7.331C0.624,7.331 1.071,7.141 1.341,6.759C1.611,6.377 1.746,5.752 1.746,4.884C1.742,4.399 1.682,3.987 1.566,3.647C1.45,3.308 1.267,3.049 1.017,2.87C0.767,2.692 0.434,2.603 0.018,2.603C-0.49,2.603 -0.904,2.785 -1.224,3.149C-1.544,3.514 -1.704,4.092 -1.704,4.884C-1.704,5.659 -1.56,6.262 -1.272,6.689C-0.984,7.117 -0.56,7.331 0,7.331M-0.198,8.184C-1.006,8.184 -1.645,7.907 -2.115,7.355C-2.585,6.804 -2.82,5.997 -2.82,4.937C-2.82,4.294 -2.726,3.731 -2.538,3.252C-2.35,2.771 -2.068,2.399 -1.692,2.136C-1.316,1.871 -0.848,1.739 -0.288,1.739C0.012,1.739 0.276,1.777 0.504,1.853C0.732,1.93 0.93,2.025 1.098,2.142C1.266,2.258 1.403,2.378 1.509,2.502C1.615,2.626 1.694,2.739 1.746,2.844L1.746,-0.853L2.868,-0.853L2.868,8.063L2.016,8.063L1.896,6.791C1.856,6.911 1.792,7.051 1.704,7.208C1.616,7.366 1.493,7.52 1.335,7.671C1.177,7.82 0.972,7.943 0.72,8.039C0.468,8.136 0.162,8.184 -0.198,8.184" style="fill-rule:nonzero;"/>
        </g>
        <g transform="matrix(1,0,0,1,173.367,63.9598)">
            <path d="M0,4.848C0.212,4.848 0.421,4.81 0.627,4.734C0.833,4.658 1.021,4.555 1.191,4.425C1.361,4.295 1.498,4.149 1.602,3.987C1.706,3.825 1.758,3.658 1.758,3.486L1.758,2.424L0.84,2.442C0.364,2.45 -0.032,2.497 -0.348,2.585C-0.664,2.674 -0.902,2.812 -1.062,2.999C-1.222,3.188 -1.302,3.434 -1.302,3.738C-1.302,4.085 -1.18,4.358 -0.936,4.554C-0.692,4.749 -0.38,4.848 0,4.848M-0.33,5.646C-0.734,5.646 -1.089,5.575 -1.395,5.433C-1.701,5.29 -1.941,5.085 -2.115,4.818C-2.289,4.55 -2.376,4.226 -2.376,3.846C-2.376,3.158 -2.136,2.646 -1.656,2.31C-1.176,1.974 -0.406,1.793 0.654,1.77L1.758,1.74L1.758,1.253C1.758,0.873 1.644,0.573 1.416,0.351C1.188,0.128 0.836,0.018 0.36,0.018C0.004,0.022 -0.31,0.106 -0.582,0.27C-0.854,0.434 -1.028,0.702 -1.104,1.074L-2.082,1.074C-2.058,0.669 -1.945,0.328 -1.743,0.051C-1.541,-0.227 -1.256,-0.438 -0.888,-0.583C-0.52,-0.726 -0.086,-0.798 0.414,-0.798C0.954,-0.798 1.403,-0.722 1.761,-0.57C2.119,-0.419 2.387,-0.194 2.565,0.102C2.743,0.398 2.832,0.762 2.832,1.194L2.832,5.526L1.884,5.526L1.8,4.362C1.564,4.846 1.261,5.181 0.891,5.367C0.521,5.553 0.114,5.646 -0.33,5.646" style="fill-rule:nonzero;"/>
        </g>
        <g transform="matrix(1,0,0,1,179.949,61.4758)">
            <path d="M0,8.04C-0.428,8.04 -0.76,7.981 -0.996,7.866C-1.232,7.75 -1.397,7.578 -1.491,7.35C-1.585,7.122 -1.632,6.842 -1.632,6.51L-1.632,2.616L-2.64,2.616L-2.64,1.806L-1.602,1.806L-1.332,0L-0.516,0L-0.516,1.8L0.882,1.8L0.882,2.616L-0.516,2.616L-0.516,6.474C-0.516,6.693 -0.493,6.854 -0.447,6.957C-0.401,7.059 -0.324,7.124 -0.216,7.151C-0.108,7.18 0.044,7.193 0.24,7.193L0.918,7.193L0.918,7.937C0.842,7.966 0.727,7.99 0.573,8.01C0.419,8.029 0.228,8.04 0,8.04" style="fill-rule:nonzero;"/>
        </g>
        <g transform="matrix(1,0,0,1,183.003,66.8758)">
            <path d="M0,-0.984L3.372,-0.984C3.372,-1.34 3.312,-1.661 3.192,-1.947C3.072,-2.233 2.889,-2.46 2.643,-2.626C2.397,-2.792 2.088,-2.875 1.716,-2.875C1.328,-2.875 1.006,-2.781 0.75,-2.595C0.494,-2.409 0.304,-2.171 0.18,-1.881C0.056,-1.591 -0.004,-1.293 0,-0.984M1.8,2.73C1.224,2.73 0.716,2.604 0.276,2.352C-0.164,2.1 -0.508,1.738 -0.756,1.266C-1.004,0.793 -1.128,0.228 -1.128,-0.432C-1.128,-1.085 -1.016,-1.656 -0.792,-2.148C-0.568,-2.64 -0.243,-3.024 0.183,-3.3C0.609,-3.576 1.122,-3.714 1.722,-3.714C2.306,-3.714 2.8,-3.588 3.204,-3.337C3.608,-3.085 3.915,-2.729 4.125,-2.271C4.335,-1.813 4.44,-1.27 4.44,-0.642L4.44,-0.234L-0.006,-0.234C-0.006,0.158 0.059,0.513 0.189,0.83C0.319,1.149 0.516,1.402 0.78,1.59C1.044,1.778 1.378,1.871 1.782,1.871C2.178,1.871 2.519,1.78 2.805,1.596C3.091,1.412 3.274,1.146 3.354,0.798L4.398,0.798C4.326,1.218 4.159,1.572 3.897,1.86C3.635,2.148 3.321,2.365 2.955,2.511C2.589,2.657 2.204,2.73 1.8,2.73" style="fill-rule:nonzero;"/>
        </g>
        <g transform="matrix(1,0,0,1,0,-8.755)">
            <path d="M188.721,76.807L190.047,76.807L190.047,78.204L188.721,78.204L188.721,76.807ZM188.721,72.283L190.047,72.283L190.047,73.693L188.721,73.693L188.721,72.283Z" style="fill-rule:nonzero;"/>
        </g>
        <g transform="matrix(1,0,0,1,188.796,82.7263)">
            <path d="M0,20.372C-0.113,20.372 -0.229,20.352 -0.341,20.311C-0.86,20.123 -1.128,19.55 -0.94,19.03L5.687,0.785C5.876,0.267 6.45,0 6.969,0.187C7.488,0.376 7.756,0.949 7.567,1.469L0.94,19.714C0.792,20.12 0.409,20.372 0,20.372" style="fill-rule:nonzero;"/>
        </g>
        <g transform="matrix(1,0,0,1,112.467,118.347)">
            <path d="M0,-94.961L-77.953,-94.961C-82.649,-94.961 -86.457,-91.154 -86.457,-86.457L-86.457,-8.504C-86.457,-3.808 -82.649,0 -77.953,0L0,0C4.697,0 8.504,-3.808 8.504,-8.504L8.504,-86.457C8.504,-91.154 4.697,-94.961 0,-94.961M0,-92.961C3.586,-92.961 6.504,-90.043 6.504,-86.457L6.504,-8.504C6.504,-4.918 3.586,-2 0,-2L-77.953,-2C-81.539,-2 -84.457,-4.918 -84.457,-8.504L-84.457,-86.457C-84.457,-90.043 -81.539,-92.961 -77.953,-92.961L0,-92.961Z" style="fill-rule:nonzero;"/>
        </g>
        <g transform="matrix(1,0,0,1,55.786,81.299)">
            <path d="M0,-5.443L6.254,-5.443C6.645,-5.443 6.963,-5.76 6.963,-6.152L6.963,-33.401C6.963,-33.792 7.28,-34.11 7.671,-34.11L27.738,-34.11C28.13,-34.11 28.447,-33.792 28.447,-33.401L28.447,-6.152C28.447,-5.76 28.764,-5.443 29.156,-5.443L35.41,-5.443C35.947,-5.443 36.289,-4.868 36.032,-4.396L18.327,28.173C18.059,28.667 17.35,28.667 17.082,28.173L-0.623,-4.396C-0.879,-4.868 -0.537,-5.443 0,-5.443" style="fill-rule:nonzero;"/>
        </g>
        <g transform="matrix(1,0,0,1,49.1011,35.5492)">
            <path d="M0,1.596L2.304,1.596L1.158,-1.854L0,1.596ZM-2.874,5.136L0.228,-3.54L2.082,-3.54L5.184,5.136L3.438,5.136L2.73,3.126L-0.396,3.126L-1.116,5.136L-2.874,5.136Z" style="fill-rule:nonzero;"/>
        </g>
        <g transform="matrix(1,0,0,1,0,-69.038)">
            <rect x="55.587" y="101.047" width="1.746" height="8.676"/>
        </g>
        <g transform="matrix(1,0,0,1,61.0225,36.7014)">
            <path d="M0,-0.708L1.602,-0.708C2.07,-0.708 2.441,-0.834 2.715,-1.086C2.989,-1.338 3.126,-1.662 3.126,-2.058C3.126,-2.458 2.994,-2.774 2.73,-3.006C2.466,-3.238 2.132,-3.354 1.728,-3.354L0,-3.354L0,-0.708ZM-1.746,3.984L-1.746,-4.692L1.914,-4.692C2.606,-4.692 3.172,-4.582 3.612,-4.362C4.052,-4.142 4.376,-3.837 4.584,-3.447C4.792,-3.057 4.896,-2.608 4.896,-2.1C4.896,-1.644 4.825,-1.259 4.683,-0.945C4.541,-0.631 4.355,-0.37 4.125,-0.162C3.895,0.046 3.644,0.216 3.372,0.348L4.986,3.984L3.168,3.984L1.758,0.642L0,0.642L0,3.984L-1.746,3.984Z" style="fill-rule:nonzero;"/>
        </g>
        <g transform="matrix(1,0,0,1,67.6289,32.0093)">
            <path d="M0,8.676L0,0L5.904,0L5.898,1.464L1.764,1.464L1.764,3.642L5.346,3.642L5.346,5.076L1.764,5.076L1.764,8.676L0,8.676Z" style="fill-rule:nonzero;"/>
        </g>
        <g transform="matrix(1,0,0,1,74.9907,32.0093)">
            <path d="M0,8.676L0,0L1.764,0L1.764,7.194L5.532,7.194L5.532,8.676L0,8.676Z" style="fill-rule:nonzero;"/>
        </g>
        <g transform="matrix(1,0,0,1,85.2871,33.3294)">
            <path d="M0,6.036C0.424,6.036 0.791,5.935 1.101,5.733C1.411,5.531 1.65,5.211 1.818,4.773C1.986,4.335 2.07,3.764 2.07,3.06C2.07,2.336 1.985,1.75 1.815,1.302C1.645,0.854 1.405,0.525 1.095,0.315C0.785,0.105 0.42,0 0,0C-0.42,0 -0.786,0.105 -1.098,0.315C-1.41,0.525 -1.652,0.855 -1.824,1.305C-1.996,1.755 -2.082,2.34 -2.082,3.06C-2.082,3.768 -1.996,4.34 -1.824,4.776C-1.652,5.212 -1.41,5.531 -1.098,5.733C-0.786,5.935 -0.42,6.036 0,6.036M0,7.476C-0.82,7.476 -1.529,7.297 -2.127,6.939C-2.725,6.581 -3.187,6.071 -3.513,5.409C-3.839,4.747 -4.002,3.956 -4.002,3.036C-4.002,2.112 -3.837,1.316 -3.507,0.648C-3.177,-0.02 -2.712,-0.535 -2.112,-0.897C-1.512,-1.259 -0.808,-1.44 0,-1.44C0.804,-1.44 1.504,-1.26 2.1,-0.9C2.696,-0.54 3.157,-0.026 3.483,0.642C3.809,1.31 3.972,2.108 3.972,3.036C3.972,3.952 3.811,4.742 3.489,5.406C3.167,6.07 2.708,6.581 2.112,6.939C1.516,7.297 0.812,7.476 0,7.476" style="fill-rule:nonzero;"/>
        </g>
        <g transform="matrix(1,0,0,1,92.2471,32.0093)">
            <path d="M0,8.676L-2.556,0L-0.84,0L0.774,5.73L2.388,0L3.654,0L5.286,5.73L6.9,0L8.61,0L6.048,8.676L4.65,8.676L3.018,3.006L1.374,8.676L0,8.676Z" style="fill-rule:nonzero;"/>
        </g>
        <g transform="matrix(1,0,0,1,241.97,32.0886)">
            <path d="M0,9.822C-0.813,10.656 -1.977,11.008 -3.823,11.008C-5.669,11.008 -6.767,10.656 -7.558,9.822C-8.415,8.899 -9.03,7.01 -9.03,4.812C-9.03,2.593 -8.437,0.857 -7.558,-0.043C-6.767,-0.9 -5.581,-1.186 -3.779,-1.186C-1.912,-1.186 -0.813,-0.878 0,-0.043C0.835,0.88 1.406,2.593 1.406,4.812C1.406,7.01 0.835,8.899 0,9.822M-5.427,8.328C-5.141,8.657 -4.768,8.811 -3.823,8.811C-2.812,8.811 -2.439,8.657 -2.175,8.328C-1.736,7.822 -1.516,6.394 -1.516,4.79C-1.516,3.164 -1.736,1.956 -2.175,1.429C-2.439,1.099 -2.812,0.967 -3.779,0.967C-4.768,0.967 -5.141,1.099 -5.427,1.429C-5.866,1.956 -6.108,3.164 -6.108,4.79C-6.108,6.394 -5.866,7.822 -5.427,8.328" style="fill-rule:nonzero;"/>
        </g>
        <g transform="matrix(1,0,0,1,254.696,40.8999)">
            <path d="M0,-4.065C0,0.088 -1.384,1.977 -5.449,1.977C-5.932,1.977 -6.657,1.933 -6.921,1.933C-7.053,1.933 -7.097,1.977 -7.097,2.109L-7.097,5.712C-7.097,5.844 -7.185,5.932 -7.316,5.932L-9.755,5.932C-9.887,5.932 -9.975,5.844 -9.975,5.712L-9.975,-9.294C-9.975,-9.382 -9.931,-9.47 -9.733,-9.536C-8.898,-9.821 -7.053,-9.997 -5.669,-9.997C-1.121,-9.997 0,-8.349 0,-4.065M-7.097,-0.352C-7.097,-0.242 -7.053,-0.154 -6.921,-0.132C-6.526,-0.044 -6.042,-0.044 -5.646,-0.044C-3.669,-0.044 -2.988,-0.769 -2.988,-4.043C-2.988,-7.185 -3.559,-7.866 -5.691,-7.866C-6.24,-7.866 -6.591,-7.822 -6.921,-7.756C-7.075,-7.734 -7.097,-7.602 -7.097,-7.493L-7.097,-0.352Z" style="fill-rule:nonzero;"/>
        </g>
        <g transform="matrix(1,0,0,1,261.552,30.9029)">
            <path d="M0,12.194C-4.284,12.194 -5.646,9.843 -5.646,6.13C-5.646,2.197 -3.977,0 -0.396,0C3.12,0 4.174,1.911 4.174,5.097C4.174,6.591 4.109,6.965 3.581,6.965L-2.614,6.965C-2.724,6.965 -2.747,7.008 -2.747,7.097C-2.747,9.448 -1.626,10.041 0.418,10.041C1.538,10.041 2.834,9.755 3.516,9.535C3.626,9.535 3.713,9.557 3.757,9.645L3.911,11.359C3.911,11.447 3.867,11.513 3.757,11.557C2.9,11.952 1.538,12.194 0,12.194M-2.658,5.185L1.406,5.185C1.582,5.185 1.648,5.141 1.648,4.548C1.648,2.878 1.23,1.999 -0.44,1.999C-2.395,1.999 -2.791,3.318 -2.791,5.031C-2.791,5.119 -2.747,5.185 -2.658,5.185" style="fill-rule:nonzero;"/>
        </g>
        <g transform="matrix(1,0,0,1,274.12,30.9032)">
            <path d="M0,11.974C-0.132,11.974 -0.22,11.886 -0.22,11.754L-0.22,4.328C-0.22,2.658 -0.593,2.218 -2.351,2.218C-3.01,2.218 -3.538,2.263 -3.911,2.351C-4.065,2.394 -4.131,2.438 -4.131,2.57L-4.131,11.754C-4.131,11.886 -4.219,11.974 -4.351,11.974L-6.789,11.974C-6.921,11.974 -7.009,11.886 -7.009,11.754L-7.009,0.681C-7.009,0.549 -6.921,0.483 -6.789,0.461C-5.603,0.263 -3.625,0 -2.242,0C1.625,0 2.659,0.988 2.659,4.196L2.659,11.754C2.659,11.886 2.57,11.974 2.439,11.974L0,11.974Z" style="fill-rule:nonzero;"/>
        </g>
        <g transform="matrix(1,0,0,1,282.27,28.0249)">
            <path d="M0,15.072C-1.758,15.072 -2.659,14.259 -2.659,12.655L-2.659,5.449C-2.659,5.361 -2.702,5.317 -2.79,5.317L-4.306,5.317C-4.438,5.317 -4.526,5.229 -4.526,5.097L-4.526,3.317C-4.526,3.185 -4.438,3.098 -4.306,3.098L-2.79,3.098C-2.702,3.098 -2.659,3.054 -2.659,2.966L-2.659,0.219C-2.659,0.087 -2.57,0 -2.439,0L0,0C0.132,0 0.22,0.087 0.22,0.219L0.22,2.966C0.22,3.054 0.264,3.098 0.351,3.098L2.197,3.098C2.329,3.098 2.417,3.185 2.417,3.317L2.417,5.097C2.417,5.229 2.329,5.317 2.197,5.317L0.351,5.317C0.264,5.317 0.22,5.361 0.22,5.449L0.22,11.974C0.22,12.699 0.461,12.897 1.164,12.897L1.846,12.897C1.955,12.897 2.065,12.941 2.065,13.116L2,14.589C2,14.72 1.89,14.852 1.78,14.874C1.296,14.984 0.616,15.072 0,15.072" style="fill-rule:nonzero;"/>
        </g>
        <g transform="matrix(1,0,0,1,290.349,40.6357)">
            <path d="M0,-7.47C-0.351,-7.47 -0.923,-7.426 -1.274,-7.294C-1.406,-7.228 -1.428,-7.162 -1.428,-7.052L-1.428,2.022C-1.428,2.176 -1.516,2.263 -1.669,2.241L-4.086,2.241C-4.218,2.241 -4.306,2.153 -4.306,2.022L-4.306,-9.052C-4.306,-9.184 -4.218,-9.25 -4.086,-9.272C-2.988,-9.513 -1.362,-9.733 0.044,-9.733C0.769,-9.733 1.23,-9.711 1.824,-9.645C1.934,-9.623 1.956,-9.579 1.956,-9.469L1.845,-7.448C1.845,-7.382 1.802,-7.316 1.692,-7.338C1.165,-7.426 0.615,-7.47 0,-7.47" style="fill-rule:nonzero;"/>
        </g>
        <g transform="matrix(1,0,0,1,301.713,32.0886)">
            <path d="M0,9.822C-0.813,10.656 -1.977,11.008 -3.823,11.008C-5.668,11.008 -6.766,10.656 -7.558,9.822C-8.415,8.899 -9.029,7.01 -9.029,4.812C-9.029,2.593 -8.437,0.857 -7.558,-0.043C-6.766,-0.9 -5.58,-1.186 -3.778,-1.186C-1.911,-1.186 -0.813,-0.878 0,-0.043C0.835,0.88 1.407,2.593 1.407,4.812C1.407,7.01 0.835,8.899 0,9.822M-5.427,8.328C-5.141,8.657 -4.768,8.811 -3.823,8.811C-2.812,8.811 -2.439,8.657 -2.175,8.328C-1.735,7.822 -1.516,6.394 -1.516,4.79C-1.516,3.164 -1.735,1.956 -2.175,1.429C-2.439,1.099 -2.812,0.967 -3.778,0.967C-4.768,0.967 -5.141,1.099 -5.427,1.429C-5.866,1.956 -6.107,3.164 -6.107,4.79C-6.107,6.394 -5.866,7.822 -5.427,8.328" style="fill-rule:nonzero;"/>
        </g>
        <g transform="matrix(1,0,0,1,311.445,30.9031)">
            <path d="M0,11.974C-0.132,11.974 -0.22,11.886 -0.22,11.754L-0.22,4.328C-0.22,2.658 -0.593,2.218 -2.351,2.218C-3.01,2.218 -3.537,2.262 -3.911,2.351C-4.064,2.394 -4.131,2.438 -4.131,2.57L-4.131,11.754C-4.131,11.886 -4.219,11.974 -4.35,11.974L-6.789,11.974C-6.921,11.974 -7.009,11.886 -7.009,11.754L-7.009,0.681C-7.009,0.549 -6.921,0.483 -6.789,0.461C-5.603,0.263 -3.625,0 -2.24,0C1.626,0 2.659,0.988 2.659,4.196L2.659,11.754C2.659,11.886 2.571,11.974 2.439,11.974L0,11.974Z" style="fill-rule:nonzero;"/>
        </g>
        <g transform="matrix(1,0,0,1,315.574,31.3212)">
            <path d="M0,11.358L0.11,9.446C0.11,9.381 0.199,9.337 0.285,9.359C1.012,9.512 2.065,9.6 2.791,9.6C4.351,9.6 4.593,9.446 4.593,8.348C4.593,7.689 4.219,7.359 2.484,6.173C0.704,4.987 0.089,4.371 0.089,2.899C0.089,0.417 1.407,-0.418 4.263,-0.418C5.318,-0.418 6.526,-0.309 7.207,-0.177C7.273,-0.155 7.317,-0.133 7.317,-0.023L7.185,1.933C7.185,1.976 7.119,2.042 7.031,2.02C6.373,1.91 5.428,1.8 4.79,1.8C3.405,1.8 2.944,1.889 2.944,2.833C2.944,3.602 3.318,3.844 5.054,4.921C6.987,6.151 7.515,6.964 7.515,8.326C7.515,11.138 5.976,11.776 3.252,11.776C2.044,11.776 0.836,11.666 0.132,11.534C0.067,11.512 0,11.468 0,11.358" style="fill-rule:nonzero;"/>
        </g>
        <g transform="matrix(1,0,0,1,351.308,31.8826)">
            <path d="M0,10.068L3.962,4.929L1.581,0L3.161,0L4.93,3.815L7.806,0L9.191,0L5.473,4.797L8.035,10.068L6.455,10.068L4.519,5.946L1.407,10.068L0,10.068ZM-7.905,10.068L-6.442,0L-0.419,0L-0.593,1.134L-5.356,1.134L-5.83,4.421L-1.547,4.421L-1.708,5.549L-5.99,5.549L-6.477,8.905L-1.575,8.919L-1.749,10.068L-7.905,10.068ZM-15.656,10.068L-14.194,0L-12.913,0L-14.201,8.912L-9.717,8.912L-9.891,10.068L-15.656,10.068ZM-23.646,10.068L-22.191,0L-16.237,0L-16.404,1.128L-21.076,1.128L-21.543,4.456L-17.358,4.456L-17.525,5.57L-21.71,5.57L-22.358,10.068L-23.646,10.068Z" style="fill-rule:nonzero;"/>
        </g>
        <g transform="matrix(1,0,0,1,234.277,55.1053)">
            <path d="M0,10.122L0,0L1.295,0L1.295,4.312L6.755,4.312L6.755,0L8.05,0L8.05,10.122L6.755,10.122L6.755,5.453L1.295,5.453L1.295,10.122L0,10.122Z" style="fill-rule:nonzero;"/>
        </g>
        <g transform="matrix(1,0,0,1,245.001,55.1053)">
            <path d="M0,10.122L0,0L6.384,0L6.377,1.141L1.302,1.141L1.302,4.445L5.873,4.445L5.873,5.579L1.295,5.579L1.295,8.953L6.517,8.967L6.517,10.122L0,10.122Z" style="fill-rule:nonzero;"/>
        </g>
        <g transform="matrix(1,0,0,1,255.102,59.9423)">
            <path d="M0,0.448L2.247,0.448C2.942,0.448 3.507,0.254 3.941,-0.133C4.375,-0.52 4.592,-1.048 4.592,-1.715C4.592,-2.387 4.368,-2.896 3.92,-3.241C3.472,-3.586 2.894,-3.759 2.185,-3.759L0,-3.759L0,0.448ZM-1.323,5.285L-1.323,-4.837L2.1,-4.837C2.823,-4.837 3.468,-4.716 4.032,-4.473C4.597,-4.23 5.041,-3.871 5.365,-3.395C5.689,-2.919 5.853,-2.333 5.853,-1.638C5.853,-0.966 5.701,-0.392 5.4,0.084C5.1,0.56 4.681,0.922 4.145,1.169C3.607,1.416 2.984,1.54 2.275,1.54L0.007,1.54L0.007,5.285L-1.323,5.285Z" style="fill-rule:nonzero;"/>
        </g>
        <g transform="matrix(1,0,0,1,263.761,59.0673)">
            <path d="M0,2.198L3.451,2.198L1.729,-2.695L0,2.198ZM-2.66,6.16L1.001,-3.962L2.464,-3.962L6.125,6.16L4.802,6.16L3.808,3.388L-0.343,3.388L-1.344,6.16L-2.66,6.16Z" style="fill-rule:nonzero;"/>
        </g>
        <g transform="matrix(1,0,0,1,275.198,55.1053)">
            <path d="M0,10.122L0,0L6.308,0L6.3,1.134L1.331,1.134L1.331,4.48L5.796,4.48L5.796,5.6L1.331,5.6L1.331,10.122L0,10.122Z" style="fill-rule:nonzero;"/>
        </g>
        <g transform="matrix(1,0,0,1,0,-21.393)">
            <path d="M283.284,79.382L284.537,79.382L284.537,86.62L283.284,86.62L283.284,79.382ZM283.249,76.505L284.571,76.505L284.571,77.849L283.249,77.849L283.249,76.505Z" style="fill-rule:nonzero;"/>
        </g>
        <g transform="matrix(1,0,0,1,288.632,54.8251)">
            <path d="M0,10.493C-0.393,10.493 -0.709,10.439 -0.949,10.332C-1.189,10.225 -1.374,10.08 -1.502,9.898C-1.63,9.716 -1.717,9.507 -1.761,9.272C-1.806,9.036 -1.827,8.792 -1.827,8.54L-1.827,0L-0.554,0L-0.554,8.414C-0.554,8.778 -0.482,9.051 -0.34,9.233C-0.197,9.415 0.002,9.515 0.259,9.534L0.65,9.541L0.65,10.381C0.543,10.414 0.432,10.441 0.314,10.462C0.198,10.483 0.093,10.493 0,10.493" style="fill-rule:nonzero;"/>
        </g>
        <g transform="matrix(1,0,0,1,293.16,55.8824)">
            <path d="M0,9.38C-0.499,9.38 -0.887,9.312 -1.162,9.177C-1.437,9.042 -1.63,8.841 -1.739,8.575C-1.849,8.309 -1.903,7.982 -1.903,7.595L-1.903,3.052L-3.08,3.052L-3.08,2.107L-1.868,2.107L-1.554,0L-0.602,0L-0.602,2.1L1.029,2.1L1.029,3.052L-0.602,3.052L-0.602,7.553C-0.602,7.81 -0.575,7.997 -0.521,8.116C-0.468,8.235 -0.378,8.311 -0.252,8.344C-0.126,8.377 0.052,8.393 0.28,8.393L1.071,8.393L1.071,9.261C0.982,9.294 0.849,9.321 0.669,9.345C0.489,9.368 0.267,9.38 0,9.38" style="fill-rule:nonzero;"/>
        </g>
        <g transform="matrix(1,0,0,1,296.724,62.1824)">
            <path d="M0,-1.148L3.934,-1.148C3.934,-1.564 3.863,-1.938 3.724,-2.272C3.584,-2.605 3.37,-2.869 3.083,-3.063C2.796,-3.256 2.436,-3.353 2.002,-3.353C1.549,-3.353 1.173,-3.245 0.875,-3.027C0.576,-2.811 0.354,-2.533 0.21,-2.194C0.065,-1.856 -0.005,-1.507 0,-1.148M2.1,3.185C1.428,3.185 0.835,3.038 0.321,2.744C-0.191,2.45 -0.593,2.028 -0.882,1.477C-1.172,0.926 -1.316,0.266 -1.316,-0.504C-1.316,-1.265 -1.186,-1.932 -0.924,-2.506C-0.663,-3.08 -0.284,-3.528 0.213,-3.85C0.71,-4.172 1.309,-4.333 2.009,-4.333C2.69,-4.333 3.267,-4.186 3.737,-3.892C4.209,-3.598 4.567,-3.184 4.812,-2.649C5.058,-2.115 5.18,-1.481 5.18,-0.749L5.18,-0.273L-0.007,-0.273C-0.007,0.185 0.068,0.599 0.221,0.969C0.372,1.34 0.602,1.636 0.91,1.855C1.218,2.074 1.607,2.184 2.079,2.184C2.541,2.184 2.938,2.077 3.272,1.862C3.605,1.647 3.819,1.337 3.913,0.931L5.131,0.931C5.047,1.421 4.852,1.834 4.546,2.17C4.24,2.506 3.874,2.759 3.447,2.929C3.021,3.1 2.571,3.185 2.1,3.185" style="fill-rule:nonzero;"/>
        </g>
        <g transform="matrix(1,0,0,1,303.695,57.8493)">
            <path d="M0,7.378L0,0.14L1.231,0.14L1.231,1.533C1.353,1.188 1.523,0.902 1.743,0.675C1.962,0.449 2.213,0.28 2.495,0.168C2.777,0.056 3.07,0 3.374,0C3.481,0 3.586,0.007 3.688,0.021C3.791,0.035 3.871,0.058 3.927,0.091L3.927,1.344C3.856,1.312 3.767,1.289 3.657,1.277C3.548,1.266 3.455,1.26 3.381,1.26C3.091,1.241 2.82,1.259 2.568,1.313C2.316,1.366 2.095,1.459 1.903,1.589C1.712,1.72 1.562,1.891 1.452,2.104C1.343,2.316 1.288,2.574 1.288,2.877L1.288,7.378L0,7.378Z" style="fill-rule:nonzero;"/>
        </g>
        <g transform="matrix(1,0,0,1,233.912,87.7514)">
            <path d="M0,8.676L0,0L5.958,0L5.952,1.476L1.758,1.476L1.758,3.582L5.4,3.582L5.4,5.028L1.746,5.028L1.746,7.182L6.019,7.188L6.019,8.676L0,8.676Z" style="fill-rule:nonzero;"/>
        </g>
        <g transform="matrix(1,0,0,1,241.964,87.7514)">
            <path d="M0,8.676L0,3.69L-1.146,3.69L-1.146,2.472L0,2.472L0,1.578C0,1.078 0.148,0.69 0.444,0.414C0.74,0.138 1.156,0 1.692,0L3.114,0L3.126,1.164L2.305,1.164C2.084,1.164 1.933,1.219 1.849,1.329C1.765,1.439 1.723,1.62 1.723,1.872L1.723,2.472L3.066,2.472L3.066,3.69L1.759,3.69L1.759,8.676L0,8.676Z" style="fill-rule:nonzero;"/>
        </g>
        <g transform="matrix(1,0,0,1,0,42.447)">
            <path d="M250.658,47.776L252.332,47.776L252.332,53.98L250.658,53.98L250.658,47.776ZM250.64,45.311L252.344,45.311L252.344,46.889L250.64,46.889L250.64,45.311ZM246.578,53.98L246.578,48.994L245.432,48.994L245.432,47.776L246.578,47.776L246.578,46.883C246.578,46.383 246.726,45.994 247.022,45.719C247.318,45.442 247.734,45.305 248.271,45.305L249.692,45.305L249.704,46.469L248.882,46.469C248.662,46.469 248.51,46.523 248.426,46.634C248.342,46.743 248.3,46.925 248.3,47.177L248.3,47.776L249.645,47.776L249.645,48.994L248.336,48.994L248.336,53.98L246.578,53.98Z" style="fill-rule:nonzero;"/>
        </g>
        <g transform="matrix(1,0,0,1,256.545,90.1036)">
            <path d="M0,6.444C-0.576,6.444 -1.091,6.316 -1.542,6.06C-1.994,5.804 -2.35,5.437 -2.607,4.959C-2.865,4.481 -2.994,3.91 -2.994,3.246C-2.994,2.606 -2.87,2.042 -2.622,1.554C-2.374,1.066 -2.025,0.685 -1.575,0.411C-1.125,0.137 -0.601,0 0,0C0.52,0 0.969,0.106 1.347,0.318C1.725,0.53 2.022,0.816 2.24,1.175C2.459,1.536 2.584,1.938 2.615,2.382L1.157,2.382C1.13,2.217 1.071,2.055 0.983,1.893C0.896,1.731 0.771,1.597 0.611,1.491C0.451,1.385 0.252,1.332 0.012,1.332C-0.396,1.332 -0.728,1.489 -0.981,1.802C-1.235,2.117 -1.362,2.594 -1.362,3.234C-1.362,3.838 -1.238,4.317 -0.99,4.671C-0.742,5.025 -0.396,5.202 0.048,5.202C0.283,5.202 0.48,5.144 0.639,5.028C0.797,4.912 0.92,4.773 1.008,4.611C1.096,4.449 1.151,4.298 1.176,4.158L2.598,4.158C2.569,4.586 2.445,4.973 2.226,5.319C2.006,5.665 1.707,5.939 1.328,6.141C0.95,6.342 0.508,6.444 0,6.444" style="fill-rule:nonzero;"/>
        </g>
        <g transform="matrix(1,0,0,1,0,42.453)">
            <path d="M260.391,47.77L262.065,47.77L262.065,53.974L260.391,53.974L260.391,47.77ZM260.372,45.305L262.076,45.305L262.076,46.883L260.372,46.883L260.372,45.305Z" style="fill-rule:nonzero;"/>
        </g>
        <g transform="matrix(1,0,0,1,265.059,93.9673)">
            <path d="M0,-1.284L2.532,-1.284C2.532,-1.532 2.484,-1.76 2.391,-1.968C2.297,-2.176 2.157,-2.34 1.971,-2.46C1.785,-2.58 1.552,-2.639 1.271,-2.639C1.004,-2.639 0.774,-2.575 0.585,-2.445C0.395,-2.315 0.249,-2.145 0.146,-1.938C0.045,-1.73 -0.004,-1.512 0,-1.284M1.368,2.58C0.752,2.58 0.211,2.451 -0.255,2.194C-0.722,1.935 -1.084,1.57 -1.344,1.098C-1.604,0.626 -1.734,0.07 -1.734,-0.57C-1.734,-1.19 -1.615,-1.749 -1.377,-2.247C-1.14,-2.745 -0.796,-3.138 -0.349,-3.429C0.1,-3.719 0.642,-3.864 1.277,-3.864C1.91,-3.864 2.439,-3.731 2.868,-3.465C3.296,-3.199 3.62,-2.829 3.84,-2.355C4.06,-1.881 4.17,-1.334 4.17,-0.714L4.17,-0.24L0,-0.24C0,0.076 0.052,0.351 0.156,0.585C0.26,0.82 0.411,0.999 0.608,1.125C0.807,1.251 1.046,1.314 1.326,1.314C1.626,1.314 1.888,1.25 2.112,1.122C2.336,0.994 2.494,0.784 2.586,0.492L4.164,0.492C4.092,0.932 3.916,1.308 3.636,1.62C3.355,1.932 3.016,2.17 2.616,2.334C2.216,2.498 1.8,2.58 1.368,2.58" style="fill-rule:nonzero;"/>
        </g>
        <g transform="matrix(1,0,0,1,270.494,90.1694)">
            <path d="M0,6.258L0,0.054L1.723,0.054L1.723,0.93C1.818,0.779 1.943,0.631 2.098,0.489C2.251,0.347 2.446,0.23 2.683,0.138C2.918,0.046 3.198,0 3.522,0C3.902,0 4.257,0.074 4.587,0.222C4.917,0.37 5.185,0.603 5.389,0.921C5.592,1.239 5.694,1.654 5.694,2.166L5.694,6.258L3.942,6.258L3.942,2.382C3.942,2.046 3.842,1.794 3.643,1.626C3.442,1.458 3.198,1.374 2.91,1.374C2.718,1.374 2.533,1.408 2.355,1.476C2.177,1.544 2.032,1.646 1.92,1.782C1.809,1.918 1.752,2.086 1.752,2.286L1.752,6.258L0,6.258Z" style="fill-rule:nonzero;"/>
        </g>
        <g transform="matrix(1,0,0,1,280.31,90.1036)">
            <path d="M0,6.444C-0.576,6.444 -1.09,6.316 -1.542,6.06C-1.994,5.804 -2.35,5.437 -2.607,4.959C-2.865,4.481 -2.994,3.91 -2.994,3.246C-2.994,2.606 -2.87,2.042 -2.622,1.554C-2.374,1.066 -2.025,0.685 -1.575,0.411C-1.125,0.137 -0.601,0 0,0C0.52,0 0.969,0.106 1.347,0.318C1.725,0.53 2.022,0.816 2.241,1.175C2.459,1.536 2.584,1.938 2.616,2.382L1.158,2.382C1.13,2.217 1.071,2.055 0.983,1.893C0.896,1.731 0.771,1.597 0.611,1.491C0.452,1.385 0.252,1.332 0.012,1.332C-0.396,1.332 -0.728,1.489 -0.981,1.802C-1.235,2.117 -1.362,2.594 -1.362,3.234C-1.362,3.838 -1.238,4.317 -0.99,4.671C-0.742,5.025 -0.396,5.202 0.048,5.202C0.284,5.202 0.48,5.144 0.639,5.028C0.797,4.912 0.92,4.773 1.008,4.611C1.096,4.449 1.151,4.298 1.176,4.158L2.598,4.158C2.569,4.586 2.445,4.973 2.226,5.319C2.006,5.665 1.707,5.939 1.329,6.141C0.951,6.342 0.508,6.444 0,6.444" style="fill-rule:nonzero;"/>
        </g>
        <g transform="matrix(1,0,0,1,284.984,90.2229)">
            <path d="M0,8.185C-0.424,8.185 -0.812,8.115 -1.164,7.974L-1.164,6.859L-0.546,6.882C-0.277,6.899 -0.062,6.885 0.103,6.843C0.267,6.801 0.391,6.747 0.475,6.678C0.559,6.611 0.619,6.539 0.657,6.465C0.695,6.391 0.723,6.332 0.738,6.289L0.853,5.947L-1.56,0L0.175,0L1.662,4.044L3.162,0L4.878,0L2.364,6.241C2.148,6.769 1.919,7.172 1.678,7.453C1.436,7.733 1.175,7.924 0.897,8.029C0.619,8.132 0.32,8.185 0,8.185" style="fill-rule:nonzero;"/>
        </g>
        <g transform="matrix(1,0,0,1,0,45.033)">
            <path d="M290.612,49.486L292.532,49.486L292.532,51.358L290.612,51.358L290.612,49.486ZM290.612,45.341L292.532,45.341L292.532,47.219L290.612,47.219L290.612,45.341Z" style="fill-rule:nonzero;"/>
        </g>
        <g transform="matrix(1,0,0,1,299.816,91.7532)">
            <path d="M0,0.684C0.319,0.684 0.624,0.61 0.911,0.462C1.199,0.314 1.435,0.118 1.616,-0.128C1.799,-0.375 1.89,-0.644 1.89,-0.936C1.894,-1.383 1.817,-1.779 1.661,-2.121C1.506,-2.462 1.283,-2.731 0.995,-2.924C0.708,-3.119 0.371,-3.215 -0.013,-3.215C-0.364,-3.215 -0.676,-3.131 -0.945,-2.963C-1.216,-2.795 -1.428,-2.562 -1.581,-2.261C-1.735,-1.962 -1.812,-1.614 -1.812,-1.217C-1.812,-0.637 -1.658,-0.175 -1.351,0.168C-1.042,0.512 -0.593,0.684 0,0.684M-0.162,4.806C-0.643,4.806 -1.09,4.715 -1.504,4.534C-1.917,4.351 -2.264,4.092 -2.541,3.756C-2.819,3.42 -2.99,3.018 -3.055,2.55L-1.975,2.55C-1.874,2.947 -1.666,3.267 -1.351,3.513C-1.034,3.759 -0.65,3.882 -0.198,3.882C0.313,3.882 0.753,3.748 1.118,3.48C1.484,3.212 1.758,2.798 1.937,2.239C2.117,1.678 2.186,0.96 2.142,0.084C2.042,0.388 1.884,0.656 1.668,0.885C1.451,1.116 1.191,1.296 0.888,1.428C0.584,1.56 0.247,1.626 -0.12,1.626C-0.692,1.626 -1.196,1.514 -1.633,1.29C-2.068,1.066 -2.407,0.746 -2.649,0.33C-2.892,-0.086 -3.013,-0.584 -3.013,-1.164C-3.013,-1.744 -2.893,-2.255 -2.652,-2.7C-2.412,-3.144 -2.068,-3.492 -1.62,-3.744C-1.173,-3.996 -0.641,-4.122 -0.024,-4.122C0.647,-4.122 1.229,-3.949 1.722,-3.603C2.214,-3.256 2.594,-2.76 2.861,-2.115C3.13,-1.468 3.264,-0.694 3.264,0.21C3.264,1.182 3.131,2.01 2.864,2.694C2.599,3.378 2.211,3.901 1.7,4.263C1.19,4.625 0.569,4.806 -0.162,4.806" style="fill-rule:nonzero;"/>
        </g>
        <g transform="matrix(1,0,0,1,307.232,91.7532)">
            <path d="M0,0.684C0.319,0.684 0.624,0.61 0.911,0.462C1.199,0.314 1.435,0.118 1.616,-0.128C1.799,-0.375 1.89,-0.644 1.89,-0.936C1.894,-1.383 1.817,-1.779 1.661,-2.121C1.506,-2.462 1.283,-2.731 0.995,-2.924C0.708,-3.119 0.371,-3.215 -0.013,-3.215C-0.364,-3.215 -0.676,-3.131 -0.945,-2.963C-1.216,-2.795 -1.428,-2.562 -1.581,-2.261C-1.735,-1.962 -1.812,-1.614 -1.812,-1.217C-1.812,-0.637 -1.658,-0.175 -1.351,0.168C-1.042,0.512 -0.593,0.684 0,0.684M-0.162,4.806C-0.643,4.806 -1.09,4.715 -1.504,4.534C-1.917,4.351 -2.264,4.092 -2.541,3.756C-2.819,3.42 -2.99,3.018 -3.055,2.55L-1.975,2.55C-1.874,2.947 -1.666,3.267 -1.351,3.513C-1.034,3.759 -0.65,3.882 -0.198,3.882C0.313,3.882 0.753,3.748 1.118,3.48C1.484,3.212 1.758,2.798 1.937,2.239C2.117,1.678 2.186,0.96 2.142,0.084C2.042,0.388 1.884,0.656 1.668,0.885C1.451,1.116 1.191,1.296 0.888,1.428C0.584,1.56 0.247,1.626 -0.12,1.626C-0.692,1.626 -1.196,1.514 -1.633,1.29C-2.068,1.066 -2.407,0.746 -2.649,0.33C-2.892,-0.086 -3.013,-0.584 -3.013,-1.164C-3.013,-1.744 -2.893,-2.255 -2.652,-2.7C-2.412,-3.144 -2.068,-3.492 -1.62,-3.744C-1.173,-3.996 -0.641,-4.122 -0.024,-4.122C0.647,-4.122 1.229,-3.949 1.722,-3.603C2.214,-3.256 2.594,-2.76 2.861,-2.115C3.13,-1.468 3.264,-0.694 3.264,0.21C3.264,1.182 3.131,2.01 2.864,2.694C2.599,3.378 2.211,3.901 1.7,4.263C1.19,4.625 0.569,4.806 -0.162,4.806" style="fill-rule:nonzero;"/>
        </g>
        <g transform="matrix(1,0,0,1,0,49.706)">
            <rect x="311.738" y="45.305" width="1.32" height="1.416"/>
        </g>
        <g transform="matrix(1,0,0,1,317.427,91.7532)">
            <path d="M0,0.684C0.319,0.684 0.624,0.61 0.911,0.462C1.199,0.314 1.435,0.118 1.616,-0.128C1.799,-0.375 1.89,-0.644 1.89,-0.936C1.894,-1.383 1.817,-1.779 1.661,-2.121C1.506,-2.462 1.283,-2.731 0.995,-2.924C0.708,-3.119 0.371,-3.215 -0.013,-3.215C-0.364,-3.215 -0.676,-3.131 -0.945,-2.963C-1.216,-2.795 -1.428,-2.562 -1.581,-2.261C-1.735,-1.962 -1.812,-1.614 -1.812,-1.217C-1.812,-0.637 -1.658,-0.175 -1.351,0.168C-1.042,0.512 -0.593,0.684 0,0.684M-0.162,4.806C-0.643,4.806 -1.09,4.715 -1.504,4.534C-1.917,4.351 -2.264,4.092 -2.541,3.756C-2.819,3.42 -2.99,3.018 -3.055,2.55L-1.975,2.55C-1.874,2.947 -1.666,3.267 -1.351,3.513C-1.034,3.759 -0.65,3.882 -0.198,3.882C0.313,3.882 0.753,3.748 1.118,3.48C1.484,3.212 1.758,2.798 1.937,2.239C2.117,1.678 2.186,0.96 2.142,0.084C2.042,0.388 1.884,0.656 1.668,0.885C1.451,1.116 1.191,1.296 0.888,1.428C0.584,1.56 0.247,1.626 -0.12,1.626C-0.692,1.626 -1.196,1.514 -1.633,1.29C-2.068,1.066 -2.407,0.746 -2.649,0.33C-2.892,-0.086 -3.013,-0.584 -3.013,-1.164C-3.013,-1.744 -2.893,-2.255 -2.652,-2.7C-2.412,-3.144 -2.068,-3.492 -1.62,-3.744C-1.173,-3.996 -0.641,-4.122 -0.024,-4.122C0.647,-4.122 1.229,-3.949 1.722,-3.603C2.214,-3.256 2.594,-2.76 2.861,-2.115C3.13,-1.468 3.264,-0.694 3.264,0.21C3.264,1.182 3.131,2.01 2.864,2.694C2.599,3.378 2.211,3.901 1.7,4.263C1.19,4.625 0.569,4.806 -0.162,4.806" style="fill-rule:nonzero;"/>
        </g>
        <g transform="matrix(1,0,0,1,324.843,91.7532)">
            <path d="M0,0.684C0.319,0.684 0.624,0.61 0.911,0.462C1.199,0.314 1.435,0.118 1.616,-0.128C1.799,-0.375 1.89,-0.644 1.89,-0.936C1.894,-1.383 1.817,-1.779 1.661,-2.121C1.506,-2.462 1.283,-2.731 0.995,-2.924C0.708,-3.119 0.371,-3.215 -0.013,-3.215C-0.364,-3.215 -0.676,-3.131 -0.945,-2.963C-1.216,-2.795 -1.428,-2.562 -1.581,-2.261C-1.735,-1.962 -1.812,-1.614 -1.812,-1.217C-1.812,-0.637 -1.658,-0.175 -1.351,0.168C-1.042,0.512 -0.593,0.684 0,0.684M-0.162,4.806C-0.643,4.806 -1.09,4.715 -1.504,4.534C-1.917,4.351 -2.264,4.092 -2.541,3.756C-2.819,3.42 -2.99,3.018 -3.055,2.55L-1.975,2.55C-1.874,2.947 -1.666,3.267 -1.351,3.513C-1.034,3.759 -0.65,3.882 -0.198,3.882C0.313,3.882 0.753,3.748 1.118,3.48C1.484,3.212 1.758,2.798 1.937,2.239C2.117,1.678 2.186,0.96 2.142,0.084C2.042,0.388 1.884,0.656 1.668,0.885C1.451,1.116 1.191,1.296 0.888,1.428C0.584,1.56 0.247,1.626 -0.12,1.626C-0.692,1.626 -1.196,1.514 -1.633,1.29C-2.068,1.066 -2.407,0.746 -2.649,0.33C-2.892,-0.086 -3.013,-0.584 -3.013,-1.164C-3.013,-1.744 -2.893,-2.255 -2.652,-2.7C-2.412,-3.144 -2.068,-3.492 -1.62,-3.744C-1.173,-3.996 -0.641,-4.122 -0.024,-4.122C0.647,-4.122 1.229,-3.949 1.722,-3.603C2.214,-3.256 2.594,-2.76 2.861,-2.115C3.13,-1.468 3.264,-0.694 3.264,0.21C3.264,1.182 3.131,2.01 2.864,2.694C2.599,3.378 2.211,3.901 1.7,4.263C1.19,4.625 0.569,4.806 -0.162,4.806" style="fill-rule:nonzero;"/>
        </g>
        <g transform="matrix(1,0,0,1,332.643,87.7513)">
            <path d="M0,8.808C-0.536,8.808 -1.032,8.714 -1.488,8.526C-1.944,8.338 -2.335,8.077 -2.661,7.741C-2.987,7.404 -3.227,7.018 -3.378,6.582L-2.418,6.18C-2.274,6.508 -2.093,6.8 -1.875,7.056C-1.657,7.312 -1.398,7.512 -1.098,7.657C-0.798,7.8 -0.458,7.872 -0.078,7.872C0.538,7.872 1.033,7.693 1.407,7.335C1.781,6.977 1.968,6.491 1.968,5.874C1.968,5.491 1.88,5.156 1.704,4.87C1.528,4.583 1.291,4.36 0.993,4.201C0.695,4.04 0.366,3.96 0.006,3.96C-0.23,3.96 -0.45,3.981 -0.654,4.023C-0.858,4.065 -1.061,4.146 -1.26,4.266C-1.46,4.386 -1.67,4.568 -1.89,4.812C-1.914,4.825 -1.932,4.829 -1.944,4.828C-1.956,4.826 -1.977,4.818 -2.004,4.806L-2.94,4.512L-2.55,0L2.628,0L2.598,0.96L-1.603,0.96L-1.824,3.762C-1.536,3.495 -1.221,3.303 -0.879,3.189C-0.537,3.076 -0.166,3.018 0.234,3.018C0.758,3.018 1.241,3.125 1.683,3.339C2.125,3.553 2.479,3.87 2.748,4.287C3.016,4.705 3.149,5.222 3.149,5.838C3.149,6.438 3.02,6.96 2.76,7.404C2.5,7.848 2.134,8.193 1.662,8.439C1.189,8.685 0.636,8.808 0,8.808" style="fill-rule:nonzero;"/>
        </g>
        <g transform="matrix(1,0,0,1,344.492,88.2435)">
            <path d="M0,7.68C0.388,7.68 0.686,7.522 0.894,7.206C1.102,6.89 1.206,6.434 1.206,5.838C1.206,5.226 1.101,4.761 0.891,4.443C0.681,4.125 0.384,3.966 0,3.966C-0.38,3.966 -0.675,4.126 -0.885,4.446C-1.095,4.766 -1.2,5.23 -1.2,5.838C-1.2,6.43 -1.097,6.885 -0.888,7.202C-0.681,7.521 -0.384,7.68 0,7.68M0.012,8.304C-0.384,8.304 -0.738,8.202 -1.05,8.001C-1.362,7.799 -1.606,7.512 -1.782,7.14C-1.958,6.768 -2.046,6.33 -2.046,5.826C-2.046,5.326 -1.957,4.89 -1.779,4.518C-1.602,4.146 -1.356,3.857 -1.044,3.651C-0.732,3.445 -0.38,3.342 0.012,3.342C0.403,3.342 0.754,3.445 1.062,3.651C1.37,3.857 1.611,4.146 1.788,4.518C1.964,4.89 2.052,5.326 2.052,5.826C2.052,6.33 1.965,6.768 1.791,7.14C1.617,7.512 1.376,7.799 1.067,8.001C0.76,8.202 0.408,8.304 0.012,8.304M-6.078,8.232L-0.216,-0.589L0.51,-0.589L-5.322,8.232L-6.078,8.232ZM-5.43,3.708C-5.046,3.708 -4.749,3.55 -4.539,3.234C-4.329,2.918 -4.225,2.46 -4.225,1.86C-4.225,1.252 -4.33,0.789 -4.542,0.471C-4.754,0.153 -5.05,-0.007 -5.43,-0.007C-5.814,-0.007 -6.111,0.154 -6.321,0.474C-6.531,0.794 -6.636,1.256 -6.636,1.86C-6.636,2.456 -6.531,2.912 -6.321,3.231C-6.111,3.549 -5.814,3.708 -5.43,3.708M-5.418,4.326C-5.814,4.326 -6.167,4.223 -6.478,4.017C-6.787,3.811 -7.032,3.523 -7.212,3.153C-7.393,2.783 -7.482,2.352 -7.482,1.86C-7.482,1.364 -7.393,0.93 -7.212,0.558C-7.032,0.186 -6.787,-0.104 -6.478,-0.312C-6.167,-0.52 -5.814,-0.624 -5.418,-0.624C-5.03,-0.624 -4.683,-0.52 -4.374,-0.312C-4.066,-0.104 -3.824,0.186 -3.648,0.558C-3.473,0.93 -3.384,1.364 -3.384,1.86C-3.384,2.352 -3.471,2.783 -3.646,3.153C-3.819,3.523 -4.061,3.811 -4.368,4.017C-4.676,4.223 -5.026,4.326 -5.418,4.326" style="fill-rule:nonzero;"/>
        </g>
        <g transform="matrix(1,0,0,1,353.126,90.9017)">
            <path d="M0,4.848C0.212,4.848 0.421,4.81 0.627,4.734C0.833,4.658 1.021,4.555 1.19,4.425C1.36,4.295 1.498,4.149 1.602,3.987C1.706,3.825 1.758,3.658 1.758,3.486L1.758,2.424L0.84,2.442C0.363,2.45 -0.032,2.497 -0.349,2.585C-0.664,2.674 -0.902,2.812 -1.062,2.999C-1.223,3.188 -1.303,3.434 -1.303,3.738C-1.303,4.085 -1.181,4.358 -0.937,4.554C-0.692,4.749 -0.38,4.848 0,4.848M-0.33,5.646C-0.734,5.646 -1.089,5.575 -1.396,5.433C-1.701,5.29 -1.941,5.085 -2.115,4.818C-2.289,4.55 -2.376,4.226 -2.376,3.846C-2.376,3.158 -2.137,2.646 -1.656,2.31C-1.177,1.974 -0.406,1.793 0.653,1.77L1.758,1.74L1.758,1.253C1.758,0.873 1.644,0.573 1.416,0.351C1.187,0.128 0.836,0.018 0.359,0.018C0.004,0.022 -0.311,0.106 -0.582,0.27C-0.854,0.434 -1.028,0.702 -1.104,1.074L-2.082,1.074C-2.059,0.669 -1.945,0.328 -1.743,0.051C-1.541,-0.227 -1.256,-0.438 -0.889,-0.583C-0.521,-0.726 -0.086,-0.798 0.414,-0.798C0.954,-0.798 1.402,-0.722 1.761,-0.57C2.119,-0.419 2.387,-0.194 2.564,0.102C2.742,0.398 2.832,0.762 2.832,1.194L2.832,5.526L1.884,5.526L1.8,4.362C1.563,4.846 1.261,5.181 0.891,5.367C0.521,5.553 0.113,5.646 -0.33,5.646" style="fill-rule:nonzero;"/>
        </g>
        <g transform="matrix(1,0,0,1,359.708,88.4177)">
            <path d="M0,8.04C-0.429,8.04 -0.761,7.981 -0.996,7.866C-1.232,7.75 -1.397,7.578 -1.491,7.35C-1.585,7.122 -1.633,6.842 -1.633,6.51L-1.633,2.616L-2.641,2.616L-2.641,1.806L-1.603,1.806L-1.332,0L-0.517,0L-0.517,1.8L0.882,1.8L0.882,2.616L-0.517,2.616L-0.517,6.474C-0.517,6.693 -0.493,6.854 -0.447,6.957C-0.401,7.059 -0.324,7.124 -0.217,7.151C-0.108,7.18 0.044,7.193 0.239,7.193L0.918,7.193L0.918,7.937C0.842,7.966 0.727,7.99 0.572,8.01C0.419,8.029 0.228,8.04 0,8.04" style="fill-rule:nonzero;"/>
        </g>
        <g transform="matrix(1,0,0,1,367.777,88.5913)">
            <path d="M0,7.008C0.62,7.008 1.089,6.736 1.407,6.189C1.726,5.643 1.884,4.754 1.884,3.522C1.884,2.266 1.724,1.362 1.401,0.807C1.079,0.253 0.61,-0.024 -0.006,-0.024C-0.618,-0.024 -1.089,0.255 -1.419,0.813C-1.749,1.371 -1.914,2.275 -1.914,3.522C-1.914,4.75 -1.75,5.638 -1.422,6.186C-1.094,6.735 -0.62,7.008 0,7.008M-0.012,7.968C-0.96,7.968 -1.712,7.595 -2.268,6.849C-2.824,6.103 -3.102,4.998 -3.102,3.534C-3.102,2.546 -2.974,1.718 -2.718,1.05C-2.462,0.382 -2.102,-0.12 -1.638,-0.456C-1.174,-0.792 -0.628,-0.96 0,-0.96C0.94,-0.96 1.689,-0.583 2.247,0.171C2.806,0.925 3.084,2.04 3.084,3.516C3.084,4.985 2.807,6.093 2.25,6.843C1.694,7.593 0.94,7.968 -0.012,7.968" style="fill-rule:nonzero;"/>
        </g>
        <g transform="matrix(1,0,0,1,0,49.706)">
            <rect x="372.104" y="45.305" width="1.32" height="1.416"/>
        </g>
        <g transform="matrix(1,0,0,1,377.785,87.6353)">
            <path d="M0,8.924C-0.596,8.92 -1.121,8.81 -1.574,8.594C-2.028,8.378 -2.386,8.075 -2.646,7.685C-2.905,7.295 -3.046,6.832 -3.065,6.296L-1.956,6.296C-1.872,6.836 -1.651,7.25 -1.296,7.538C-0.939,7.826 -0.494,7.97 0.042,7.97C0.467,7.97 0.836,7.903 1.152,7.769C1.469,7.635 1.712,7.45 1.885,7.214C2.057,6.978 2.143,6.702 2.143,6.386C2.143,6.038 2.047,5.744 1.854,5.504C1.662,5.264 1.4,5.081 1.068,4.955C0.736,4.829 0.366,4.764 -0.042,4.76L-0.821,4.742L-0.821,3.8L-0.077,3.782C0.303,3.775 0.643,3.701 0.942,3.564C1.242,3.425 1.479,3.243 1.653,3.017C1.827,2.791 1.914,2.542 1.914,2.27C1.914,2.03 1.841,1.807 1.692,1.601C1.544,1.396 1.331,1.231 1.054,1.107C0.775,0.983 0.438,0.92 0.042,0.92C-0.27,0.92 -0.567,0.982 -0.852,1.103C-1.136,1.225 -1.37,1.412 -1.554,1.664C-1.737,1.916 -1.836,2.242 -1.848,2.642L-2.951,2.642C-2.951,2.082 -2.815,1.606 -2.544,1.211C-2.271,0.818 -1.908,0.516 -1.455,0.308C-1.001,0.1 -0.5,-0.004 0.049,-0.004C0.648,-0.004 1.179,0.083 1.639,0.257C2.099,0.431 2.458,0.684 2.719,1.016C2.979,1.348 3.108,1.754 3.108,2.235C3.108,2.662 2.973,3.049 2.7,3.395C2.429,3.741 2.013,4.012 1.452,4.208C1.832,4.313 2.164,4.464 2.448,4.664C2.732,4.864 2.952,5.11 3.108,5.4C3.265,5.69 3.343,6.023 3.343,6.399C3.343,6.794 3.26,7.15 3.094,7.463C2.928,7.778 2.694,8.043 2.395,8.261C2.095,8.48 1.74,8.645 1.332,8.759C0.925,8.873 0.48,8.928 0,8.924" style="fill-rule:nonzero;"/>
        </g>
        <g transform="matrix(1,0,0,1,382.519,90.0669)">
            <path d="M0,8.341L0,0L1.14,0L1.14,4.338C1.14,4.534 1.194,4.713 1.305,4.875C1.415,5.037 1.563,5.167 1.752,5.266C1.939,5.363 2.147,5.412 2.376,5.412C2.708,5.412 3.021,5.318 3.314,5.127C3.608,4.938 3.886,4.683 4.146,4.362L4.146,0L5.298,0L5.279,6.361L4.182,6.361L4.182,5.376C3.829,5.681 3.521,5.903 3.258,6.042C2.993,6.183 2.714,6.261 2.418,6.277C2.178,6.292 1.95,6.275 1.736,6.223C1.522,6.171 1.323,6.072 1.14,5.929L1.14,8.341L0,8.341Z" style="fill-rule:nonzero;"/>
        </g>
        <g transform="matrix(1,0,0,1,389.725,90.1034)">
            <path d="M0,6.324L0,0.12L1.068,0.12L1.068,1.02C1.24,0.748 1.476,0.51 1.776,0.306C2.076,0.102 2.466,0 2.946,0C3.17,0 3.399,0.038 3.633,0.114C3.867,0.19 4.082,0.304 4.278,0.456C4.474,0.608 4.626,0.794 4.734,1.014C4.926,0.71 5.186,0.465 5.514,0.279C5.842,0.093 6.212,0 6.624,0C6.84,0 7.066,0.033 7.302,0.099C7.538,0.165 7.757,0.281 7.959,0.447C8.161,0.613 8.326,0.843 8.454,1.137C8.582,1.431 8.646,1.808 8.646,2.268L8.646,6.324L7.53,6.324L7.53,2.376C7.53,2 7.47,1.709 7.35,1.503C7.23,1.297 7.073,1.152 6.879,1.068C6.685,0.984 6.478,0.942 6.258,0.942C6.066,0.942 5.862,0.98 5.646,1.056C5.43,1.132 5.246,1.26 5.094,1.44C4.942,1.62 4.866,1.866 4.866,2.178L4.866,6.324L3.762,6.324L3.762,2.052C3.762,1.808 3.697,1.604 3.567,1.44C3.437,1.276 3.275,1.152 3.081,1.068C2.887,0.984 2.694,0.942 2.502,0.942C2.29,0.942 2.077,0.984 1.863,1.068C1.649,1.152 1.469,1.285 1.323,1.467C1.177,1.649 1.104,1.887 1.104,2.178L1.104,6.324L0,6.324Z" style="fill-rule:nonzero;"/>
        </g>
        <g transform="matrix(1,0,0,1,237.278,102.031)">
            <path d="M0,8.916C-0.78,8.916 -1.445,8.738 -1.995,8.382C-2.545,8.026 -2.965,7.514 -3.255,6.846C-3.545,6.178 -3.69,5.372 -3.69,4.428C-3.69,3.488 -3.546,2.687 -3.258,2.028C-2.97,1.368 -2.551,0.865 -2.001,0.519C-1.451,0.173 -0.784,0 0,0C0.612,0 1.154,0.127 1.626,0.381C2.098,0.635 2.478,0.974 2.766,1.397C3.054,1.822 3.224,2.288 3.275,2.796L2.094,2.796C2.03,2.456 1.908,2.147 1.728,1.872C1.548,1.596 1.312,1.376 1.02,1.212C0.728,1.048 0.378,0.966 -0.03,0.966C-0.554,0.966 -0.997,1.089 -1.359,1.335C-1.722,1.581 -1.995,1.96 -2.181,2.472C-2.367,2.984 -2.46,3.64 -2.46,4.439C-2.46,5.648 -2.253,6.535 -1.839,7.101C-1.425,7.667 -0.822,7.95 -0.03,7.95C0.378,7.95 0.728,7.864 1.02,7.692C1.312,7.52 1.548,7.29 1.728,7.002C1.908,6.714 2.03,6.402 2.094,6.065L3.275,6.065C3.231,6.434 3.133,6.789 2.979,7.131C2.825,7.473 2.614,7.778 2.346,8.046C2.078,8.313 1.749,8.526 1.358,8.682C0.969,8.838 0.516,8.916 0,8.916" style="fill-rule:nonzero;"/>
        </g>
        <g transform="matrix(1,0,0,1,243.685,101.911)">
            <path d="M0,8.994C-0.336,8.994 -0.606,8.948 -0.812,8.856C-1.019,8.764 -1.177,8.64 -1.287,8.484C-1.396,8.328 -1.471,8.149 -1.509,7.947C-1.547,7.745 -1.565,7.536 -1.565,7.32L-1.565,0L-0.474,0L-0.474,7.212C-0.474,7.524 -0.413,7.758 -0.291,7.914C-0.169,8.07 0.002,8.156 0.223,8.172L0.559,8.178L0.559,8.898C0.466,8.926 0.37,8.949 0.271,8.967C0.17,8.985 0.08,8.994 0,8.994" style="fill-rule:nonzero;"/>
        </g>
        <g transform="matrix(1,0,0,1,247.766,105.301)">
            <path d="M0,4.848C0.213,4.848 0.422,4.81 0.628,4.734C0.833,4.658 1.021,4.555 1.191,4.425C1.361,4.295 1.498,4.149 1.603,3.987C1.706,3.825 1.759,3.658 1.759,3.486L1.759,2.424L0.841,2.442C0.364,2.45 -0.031,2.497 -0.348,2.585C-0.664,2.674 -0.901,2.812 -1.062,2.999C-1.222,3.188 -1.302,3.434 -1.302,3.738C-1.302,4.085 -1.18,4.358 -0.936,4.554C-0.691,4.749 -0.38,4.848 0,4.848M-0.329,5.646C-0.733,5.646 -1.089,5.575 -1.395,5.433C-1.7,5.29 -1.94,5.085 -2.114,4.818C-2.288,4.55 -2.376,4.226 -2.376,3.846C-2.376,3.158 -2.136,2.646 -1.655,2.31C-1.176,1.974 -0.405,1.793 0.654,1.77L1.759,1.74L1.759,1.253C1.759,0.873 1.645,0.573 1.416,0.351C1.188,0.128 0.836,0.018 0.36,0.018C0.004,0.022 -0.31,0.106 -0.582,0.27C-0.854,0.434 -1.027,0.702 -1.104,1.074L-2.082,1.074C-2.058,0.669 -1.944,0.328 -1.742,0.051C-1.541,-0.227 -1.256,-0.438 -0.888,-0.583C-0.52,-0.726 -0.086,-0.798 0.414,-0.798C0.954,-0.798 1.403,-0.722 1.762,-0.57C2.119,-0.419 2.388,-0.194 2.565,0.102C2.743,0.398 2.832,0.762 2.832,1.194L2.832,5.526L1.885,5.526L1.801,4.362C1.564,4.846 1.262,5.181 0.892,5.367C0.521,5.553 0.114,5.646 -0.329,5.646" style="fill-rule:nonzero;"/>
        </g>
        <g transform="matrix(1,0,0,1,254.504,104.503)">
            <path d="M0,6.444C-0.432,6.444 -0.833,6.377 -1.203,6.243C-1.572,6.109 -1.88,5.899 -2.124,5.613C-2.368,5.327 -2.52,4.962 -2.58,4.518L-1.571,4.518C-1.52,4.762 -1.42,4.965 -1.271,5.127C-1.124,5.289 -0.94,5.411 -0.723,5.493C-0.505,5.575 -0.266,5.616 -0.006,5.616C0.414,5.616 0.752,5.538 1.009,5.382C1.265,5.226 1.393,4.986 1.393,4.662C1.393,4.434 1.325,4.251 1.191,4.113C1.058,3.975 0.849,3.874 0.564,3.81L-0.72,3.492C-1.22,3.372 -1.619,3.184 -1.917,2.927C-2.215,2.672 -2.365,2.314 -2.37,1.854C-2.37,1.49 -2.281,1.17 -2.105,0.894C-1.93,0.618 -1.667,0.4 -1.316,0.24C-0.967,0.08 -0.529,0 -0.006,0C0.67,0 1.214,0.151 1.626,0.453C2.038,0.755 2.254,1.198 2.274,1.782L1.29,1.782C1.25,1.486 1.118,1.251 0.895,1.077C0.67,0.903 0.366,0.816 -0.018,0.816C-0.41,0.816 -0.73,0.895 -0.98,1.052C-1.23,1.211 -1.355,1.456 -1.355,1.788C-1.355,2.007 -1.267,2.181 -1.089,2.307C-0.911,2.433 -0.651,2.538 -0.312,2.622L0.937,2.934C1.221,3.009 1.456,3.11 1.645,3.234C1.832,3.358 1.98,3.496 2.088,3.648C2.196,3.799 2.273,3.959 2.319,4.125C2.365,4.291 2.389,4.45 2.389,4.602C2.389,4.982 2.294,5.309 2.106,5.583C1.918,5.857 1.646,6.069 1.29,6.218C0.935,6.369 0.504,6.444 0,6.444" style="fill-rule:nonzero;"/>
        </g>
        <g transform="matrix(1,0,0,1,260.558,104.503)">
            <path d="M0,6.444C-0.432,6.444 -0.833,6.377 -1.203,6.243C-1.572,6.109 -1.88,5.899 -2.124,5.613C-2.368,5.327 -2.52,4.962 -2.58,4.518L-1.571,4.518C-1.52,4.762 -1.42,4.965 -1.271,5.127C-1.124,5.289 -0.94,5.411 -0.723,5.493C-0.505,5.575 -0.266,5.616 -0.006,5.616C0.414,5.616 0.752,5.538 1.009,5.382C1.265,5.226 1.393,4.986 1.393,4.662C1.393,4.434 1.325,4.251 1.191,4.113C1.058,3.975 0.849,3.874 0.564,3.81L-0.72,3.492C-1.22,3.372 -1.619,3.184 -1.917,2.927C-2.215,2.672 -2.365,2.314 -2.37,1.854C-2.37,1.49 -2.281,1.17 -2.105,0.894C-1.93,0.618 -1.667,0.4 -1.316,0.24C-0.967,0.08 -0.529,0 -0.006,0C0.67,0 1.214,0.151 1.626,0.453C2.038,0.755 2.254,1.198 2.274,1.782L1.29,1.782C1.25,1.486 1.118,1.251 0.895,1.077C0.67,0.903 0.366,0.816 -0.018,0.816C-0.41,0.816 -0.73,0.895 -0.98,1.052C-1.23,1.211 -1.355,1.456 -1.355,1.788C-1.355,2.007 -1.267,2.181 -1.089,2.307C-0.911,2.433 -0.651,2.538 -0.312,2.622L0.937,2.934C1.221,3.009 1.456,3.11 1.645,3.234C1.832,3.358 1.98,3.496 2.088,3.648C2.196,3.799 2.273,3.959 2.319,4.125C2.365,4.291 2.389,4.45 2.389,4.602C2.389,4.982 2.294,5.309 2.106,5.583C1.918,5.857 1.646,6.069 1.29,6.218C0.935,6.369 0.504,6.444 0,6.444" style="fill-rule:nonzero;"/>
        </g>
        <g transform="matrix(1,0,0,1,267.5,102.151)">
            <path d="M0,8.676L0,0L1.11,0L1.11,3.696L5.79,3.696L5.79,0L6.9,0L6.9,8.676L5.79,8.676L5.79,4.674L1.11,4.674L1.11,8.676L0,8.676Z" style="fill-rule:nonzero;"/>
        </g>
        <g transform="matrix(1,0,0,1,277.779,102.151)">
            <path d="M0,8.676L0,1.77L-1.675,1.77L-1.675,1.044C-1.154,1.044 -0.75,1.006 -0.463,0.93C-0.176,0.854 0.029,0.738 0.152,0.582C0.273,0.426 0.342,0.232 0.354,0L1.145,0L1.145,8.676L0,8.676Z" style="fill-rule:nonzero;"/>
        </g>
        <g transform="matrix(1,0,0,1,282.051,105.344)">
            <path d="M0,2.291L3,2.291L3,-1.734L0,2.291ZM3.023,5.483L3.023,3.27L-1.062,3.27L-1.062,2.256L2.981,-3.192L4.11,-3.192L4.11,2.291L5.55,2.291L5.55,3.27L4.11,3.27L4.11,5.483L3.023,5.483Z" style="fill-rule:nonzero;"/>
        </g>
        <g transform="matrix(1,0,0,1,294.663,107.179)">
            <path d="M0,2.904C0.512,2.904 0.93,2.709 1.254,2.319C1.577,1.929 1.739,1.322 1.739,0.498C1.739,-0.21 1.592,-0.772 1.296,-1.188C1,-1.604 0.567,-1.812 0,-1.812C-0.576,-1.812 -1.013,-1.599 -1.309,-1.173C-1.604,-0.746 -1.752,-0.19 -1.752,0.498C-1.752,0.942 -1.687,1.346 -1.555,1.71C-1.423,2.074 -1.227,2.364 -0.967,2.58C-0.706,2.797 -0.385,2.904 0,2.904M-2.856,5.58L-2.856,-2.556L-1.752,-2.556L-1.74,-1.476C-1.668,-1.604 -1.575,-1.738 -1.461,-1.878C-1.348,-2.018 -1.207,-2.148 -1.041,-2.268C-0.875,-2.388 -0.682,-2.486 -0.459,-2.562C-0.237,-2.638 0.016,-2.676 0.3,-2.676C0.796,-2.676 1.232,-2.563 1.61,-2.337C1.988,-2.111 2.283,-1.766 2.495,-1.302C2.708,-0.838 2.813,-0.249 2.813,0.463C2.813,1.175 2.711,1.775 2.505,2.265C2.299,2.756 2.002,3.129 1.613,3.384C1.226,3.64 0.758,3.768 0.21,3.768C-0.066,3.768 -0.312,3.729 -0.525,3.651C-0.739,3.573 -0.926,3.471 -1.083,3.345C-1.241,3.219 -1.373,3.084 -1.479,2.94C-1.585,2.797 -1.673,2.658 -1.74,2.526L-1.74,5.58L-2.856,5.58Z" style="fill-rule:nonzero;"/>
        </g>
        <g transform="matrix(1,0,0,1,299.774,108.217)">
            <path d="M0,-0.984L3.372,-0.984C3.372,-1.34 3.312,-1.661 3.191,-1.947C3.071,-2.233 2.889,-2.46 2.643,-2.626C2.396,-2.792 2.088,-2.875 1.716,-2.875C1.328,-2.875 1.006,-2.781 0.75,-2.595C0.494,-2.409 0.304,-2.171 0.18,-1.881C0.056,-1.591 -0.004,-1.293 0,-0.984M1.8,2.73C1.224,2.73 0.716,2.604 0.275,2.352C-0.164,2.1 -0.508,1.738 -0.756,1.266C-1.004,0.793 -1.128,0.228 -1.128,-0.432C-1.128,-1.085 -1.017,-1.656 -0.792,-2.148C-0.568,-2.64 -0.243,-3.024 0.183,-3.3C0.608,-3.576 1.122,-3.714 1.722,-3.714C2.306,-3.714 2.8,-3.588 3.204,-3.337C3.607,-3.085 3.915,-2.729 4.125,-2.271C4.335,-1.813 4.439,-1.27 4.439,-0.642L4.439,-0.234L-0.006,-0.234C-0.006,0.158 0.059,0.513 0.188,0.83C0.318,1.149 0.516,1.402 0.779,1.59C1.044,1.778 1.378,1.871 1.782,1.871C2.178,1.871 2.519,1.78 2.805,1.596C3.091,1.412 3.273,1.146 3.354,0.798L4.397,0.798C4.326,1.218 4.159,1.572 3.896,1.86C3.635,2.148 3.32,2.365 2.955,2.511C2.589,2.657 2.204,2.73 1.8,2.73" style="fill-rule:nonzero;"/>
        </g>
        <g transform="matrix(1,0,0,1,305.75,104.503)">
            <path d="M0,6.324L0,0.12L1.056,0.12L1.056,1.314C1.16,1.018 1.306,0.773 1.494,0.579C1.682,0.385 1.896,0.24 2.139,0.144C2.381,0.048 2.632,0 2.892,0C2.984,0 3.074,0.006 3.162,0.018C3.25,0.03 3.318,0.05 3.366,0.078L3.366,1.152C3.306,1.124 3.229,1.105 3.135,1.095C3.041,1.085 2.962,1.08 2.898,1.08C2.65,1.064 2.418,1.079 2.202,1.125C1.986,1.171 1.796,1.25 1.632,1.362C1.468,1.474 1.339,1.621 1.245,1.803C1.151,1.985 1.104,2.206 1.104,2.466L1.104,6.324L0,6.324Z" style="fill-rule:nonzero;"/>
        </g>
        <g transform="matrix(1,0,0,1,313.586,102.151)">
            <path d="M0,8.676L0,0L5.472,0L5.466,0.978L1.115,0.978L1.115,3.81L5.033,3.81L5.033,4.782L1.109,4.782L1.109,7.674L5.586,7.686L5.586,8.676L0,8.676Z" style="fill-rule:nonzero;"/>
        </g>
        <g transform="matrix(1,0,0,1,321.11,102.151)">
            <path d="M0,8.676L0,0L1.062,0L5.646,6.744L5.646,0L6.756,0L6.756,8.676L5.766,8.676L1.109,1.836L1.109,8.676L0,8.676Z" style="fill-rule:nonzero;"/>
        </g>
        <g transform="matrix(1,0,0,1,334.16,102.151)">
            <path d="M0,8.676L0,1.77L-1.675,1.77L-1.675,1.044C-1.154,1.044 -0.75,1.006 -0.463,0.93C-0.175,0.854 0.03,0.738 0.152,0.582C0.274,0.426 0.342,0.232 0.354,0L1.146,0L1.146,8.676L0,8.676Z" style="fill-rule:nonzero;"/>
        </g>
        <g transform="matrix(1,0,0,1,340.693,107.143)">
            <path d="M0,-1.297C0.528,-1.297 0.957,-1.427 1.287,-1.687C1.617,-1.946 1.782,-2.309 1.782,-2.773C1.782,-3.24 1.616,-3.61 1.284,-3.88C0.952,-4.15 0.524,-4.284 0,-4.284C-0.523,-4.284 -0.952,-4.149 -1.284,-3.876C-1.616,-3.605 -1.782,-3.236 -1.782,-2.773C-1.782,-2.309 -1.616,-1.946 -1.284,-1.687C-0.952,-1.427 -0.523,-1.297 0,-1.297M0,2.916C0.645,2.916 1.158,2.77 1.542,2.48C1.926,2.19 2.118,1.806 2.118,1.325C2.118,1.01 2.031,0.727 1.857,0.479C1.684,0.231 1.438,0.037 1.122,-0.106C0.806,-0.247 0.433,-0.318 0,-0.318C-0.428,-0.318 -0.799,-0.247 -1.113,-0.106C-1.427,0.037 -1.671,0.231 -1.845,0.479C-2.019,0.727 -2.105,1.01 -2.105,1.325C-2.105,1.806 -1.915,2.19 -1.533,2.48C-1.151,2.77 -0.64,2.916 0,2.916M0,3.815C-0.664,3.815 -1.244,3.713 -1.74,3.507C-2.236,3.301 -2.621,3.012 -2.895,2.64C-3.169,2.267 -3.306,1.832 -3.306,1.332C-3.306,0.995 -3.221,0.674 -3.051,0.365C-2.881,0.057 -2.662,-0.204 -2.394,-0.42C-2.126,-0.637 -1.846,-0.773 -1.554,-0.828C-1.95,-0.996 -2.276,-1.24 -2.535,-1.561C-2.793,-1.881 -2.922,-2.276 -2.922,-2.748C-2.922,-3.252 -2.794,-3.681 -2.538,-4.032C-2.282,-4.385 -1.933,-4.652 -1.491,-4.836C-1.049,-5.021 -0.552,-5.112 0,-5.112C0.556,-5.112 1.054,-5.021 1.494,-4.836C1.935,-4.652 2.282,-4.385 2.538,-4.032C2.794,-3.681 2.922,-3.252 2.922,-2.748C2.922,-2.276 2.795,-1.881 2.541,-1.561C2.287,-1.24 1.96,-0.996 1.561,-0.828C1.853,-0.773 2.131,-0.637 2.397,-0.42C2.663,-0.204 2.882,0.057 3.054,0.365C3.227,0.674 3.313,0.995 3.313,1.332C3.313,1.832 3.175,2.267 2.901,2.64C2.627,3.012 2.242,3.301 1.746,3.507C1.25,3.713 0.668,3.815 0,3.815" style="fill-rule:nonzero;"/>
        </g>
        <g transform="matrix(1,0,0,1,345.325,102.031)">
            <path d="M0,8.796L0,7.764C0,7.32 0.083,6.936 0.249,6.612C0.415,6.288 0.635,6.005 0.909,5.763C1.183,5.521 1.482,5.304 1.809,5.112C2.135,4.92 2.461,4.735 2.787,4.557C3.113,4.379 3.412,4.193 3.684,3.999C3.956,3.805 4.175,3.585 4.341,3.339C4.507,3.093 4.59,2.802 4.59,2.466C4.59,2.026 4.435,1.668 4.125,1.392C3.814,1.116 3.396,0.978 2.868,0.978C2.3,0.978 1.844,1.138 1.5,1.458C1.156,1.778 0.962,2.204 0.918,2.736L-0.187,2.736C-0.174,2.236 -0.05,1.779 0.186,1.365C0.422,0.951 0.768,0.62 1.224,0.372C1.68,0.124 2.242,0 2.91,0C3.49,0 3.994,0.103 4.422,0.309C4.85,0.515 5.181,0.803 5.415,1.173C5.648,1.543 5.766,1.974 5.766,2.466C5.766,2.914 5.684,3.298 5.52,3.618C5.355,3.938 5.139,4.215 4.869,4.449C4.599,4.683 4.304,4.892 3.983,5.076C3.664,5.26 3.342,5.437 3.018,5.607C2.694,5.777 2.397,5.955 2.13,6.141C1.862,6.327 1.646,6.54 1.481,6.78C1.317,7.02 1.236,7.306 1.236,7.638L1.236,7.812L5.813,7.812L5.813,8.796L0,8.796Z" style="fill-rule:nonzero;"/>
        </g>
        <g transform="matrix(1,0,0,1,352.477,102.031)">
            <path d="M0,8.796L0,7.764C0,7.32 0.083,6.936 0.249,6.612C0.415,6.288 0.635,6.005 0.909,5.763C1.183,5.521 1.482,5.304 1.809,5.112C2.135,4.92 2.461,4.735 2.787,4.557C3.113,4.379 3.412,4.193 3.684,3.999C3.956,3.805 4.175,3.585 4.341,3.339C4.507,3.093 4.59,2.802 4.59,2.466C4.59,2.026 4.435,1.668 4.125,1.392C3.814,1.116 3.396,0.978 2.868,0.978C2.3,0.978 1.844,1.138 1.5,1.458C1.156,1.778 0.962,2.204 0.918,2.736L-0.187,2.736C-0.174,2.236 -0.05,1.779 0.186,1.365C0.422,0.951 0.768,0.62 1.224,0.372C1.68,0.124 2.242,0 2.91,0C3.49,0 3.994,0.103 4.422,0.309C4.85,0.515 5.181,0.803 5.415,1.173C5.648,1.543 5.766,1.974 5.766,2.466C5.766,2.914 5.684,3.298 5.52,3.618C5.355,3.938 5.139,4.215 4.869,4.449C4.599,4.683 4.304,4.892 3.983,5.076C3.664,5.26 3.342,5.437 3.018,5.607C2.694,5.777 2.397,5.955 2.13,6.141C1.862,6.327 1.646,6.54 1.481,6.78C1.317,7.02 1.236,7.306 1.236,7.638L1.236,7.812L5.813,7.812L5.813,8.796L0,8.796Z" style="fill-rule:nonzero;"/>
        </g>
    </g>
</svg>
