<?xml version="1.0" encoding="UTF-8" standalone="no"?>
<!DOCTYPE svg PUBLIC "-//W3C//DTD SVG 1.1//EN" "http://www.w3.org/Graphics/SVG/1.1/DTD/svg11.dtd">
<svg width="100%" height="100%" viewBox="0 0 1267 1638" version="1.1" xmlns="http://www.w3.org/2000/svg" xmlns:xlink="http://www.w3.org/1999/xlink" xml:space="preserve" xmlns:serif="http://www.serif.com/" style="fill-rule:evenodd;clip-rule:evenodd;stroke-linecap:round;stroke-linejoin:round;stroke-miterlimit:10;">
    <g transform="matrix(1,0,0,1,86.7804,-70.4573)">
        <g transform="matrix(-1,0,0,1,1100.12,546.667)">
            <rect x="111.559" y="203.111" width="877" height="715.111" style="fill:rgb(87,87,92);"/>
        </g>
        <g transform="matrix(-1,0,0,1,1090.9,413.777)">
            <rect x="116.226" y="550.667" width="858.444" height="152.889" style="fill:rgb(180,182,184);stroke:rgb(22,33,45);stroke-width:2px;"/>
        </g>
        <g transform="matrix(-1,0,0,1,133.225,1246.67)">
            <path d="M-822.667,0L0,0" style="fill:none;fill-rule:nonzero;stroke:rgb(22,33,45);stroke-width:2px;"/>
        </g>
        <g transform="matrix(1,0,0,1,899.892,1374)">
            <path d="M0,65.667L-255,65.667C-257.945,65.667 -260.333,63.279 -260.333,60.334L-260.333,5.334C-260.333,2.388 -257.945,0 -255,0L0,0C2.945,0 5.333,2.388 5.333,5.334L5.333,60.334C5.333,63.279 2.945,65.667 0,65.667Z" style="fill:none;fill-rule:nonzero;stroke:rgb(22,33,45);stroke-width:2px;"/>
        </g>
        <g transform="matrix(1,0,0,1,417.559,785.333)">
            <path d="M0,364.667L-150,364.667C-158.959,364.667 -166.222,357.404 -166.222,348.445L-166.222,0L16.222,0L16.222,348.445C16.222,357.404 8.959,364.667 0,364.667" style="fill:rgb(87,87,92);"/>
        </g>
        <g transform="matrix(1,0,0,1,417.559,762.306)">
            <path d="M0,387.694L-150,387.694C-158.959,387.694 -166.222,380.431 -166.222,371.472L-166.222,0L16.222,0L16.222,371.472C16.222,380.431 8.959,387.694 0,387.694Z" style="fill:none;fill-rule:nonzero;stroke:rgb(22,33,45);stroke-width:2px;"/>
        </g>
        <g transform="matrix(1,0,0,1,403.781,1045.33)">
            <path d="M0,-232L-54.444,-232C-57.635,-232 -60.222,-229.413 -60.222,-226.222L-60.222,-5.778C-60.222,-2.587 -57.635,0 -54.444,0L0,0C3.191,0 5.778,-2.587 5.778,-5.778L5.778,-226.222C5.778,-229.413 3.191,-232 0,-232M0,-230C2.083,-230 3.778,-228.305 3.778,-226.222L3.778,-5.778C3.778,-3.695 2.083,-2 0,-2L-54.444,-2C-56.528,-2 -58.222,-3.695 -58.222,-5.778L-58.222,-226.222C-58.222,-228.305 -56.528,-230 -54.444,-230L0,-230Z" style="fill:rgb(22,33,45);fill-rule:nonzero;"/>
        </g>
        <g transform="matrix(1,0,0,1,335.337,1015.28)">
            <path d="M0,-232L-54.444,-232C-57.635,-232 -60.222,-229.413 -60.222,-226.222L-60.222,-5.778C-60.222,-2.587 -57.635,0 -54.444,0L0,0C3.191,0 5.778,-2.587 5.778,-5.778L5.778,-226.222C5.778,-229.413 3.191,-232 0,-232M0,-230C2.083,-230 3.778,-228.305 3.778,-226.222L3.778,-5.778C3.778,-3.695 2.083,-2 0,-2L-54.444,-2C-56.528,-2 -58.222,-3.695 -58.222,-5.778L-58.222,-226.222C-58.222,-228.305 -56.528,-230 -54.444,-230L0,-230Z" style="fill:rgb(22,33,45);fill-rule:nonzero;"/>
        </g>
        <g opacity="0.8">
            <g>
                <clipPath id="_clip1">
                    <rect x="462.012" y="749.333" width="169.535" height="653.334" clip-rule="nonzero"/>
                </clipPath>
                <g clip-path="url(#_clip1)">
                    <g transform="matrix(0,1,1,0,812.448,1015)">
                        <path d="M-265.668,-265.668L265.668,-265.668" style="fill:none;fill-rule:nonzero;stroke:rgb(0,108,250);stroke-width:85px;stroke-linecap:butt;stroke-linejoin:miter;"/>
                    </g>
                    <g transform="matrix(1,0,0,1,462.012,1402.67)">
                        <path d="M0,-146.799L84.768,0L169.535,-146.799L0,-146.799Z" style="fill:rgb(0,108,250);fill-rule:nonzero;"/>
                    </g>
                </g>
            </g>
        </g>
        <g opacity="0.8">
            <g>
                <clipPath id="_clip2">
                    <rect x="667.345" y="749.333" width="169.535" height="482.667" clip-rule="nonzero"/>
                </clipPath>
                <g clip-path="url(#_clip2)">
                    <g transform="matrix(0,1,1,0,932.448,929.669)">
                        <path d="M-180.336,-180.336L180.336,-180.336" style="fill:none;fill-rule:nonzero;stroke:rgb(0,108,250);stroke-width:85px;stroke-linecap:butt;stroke-linejoin:miter;"/>
                    </g>
                    <g transform="matrix(1,0,0,1,667.344,1232)">
                        <path d="M0,-146.799L84.768,0L169.535,-146.799L0,-146.799Z" style="fill:rgb(0,108,250);fill-rule:nonzero;"/>
                    </g>
                </g>
            </g>
        </g>
        <g opacity="0.8">
            <g>
                <clipPath id="_clip3">
                    <rect x="255.572" y="749.333" width="169.535" height="482.667" clip-rule="nonzero"/>
                </clipPath>
                <g clip-path="url(#_clip3)">
                    <g transform="matrix(0,1,1,0,520.675,929.669)">
                        <path d="M-180.336,-180.336L180.336,-180.336" style="fill:none;fill-rule:nonzero;stroke:rgb(0,108,250);stroke-width:85px;stroke-linecap:butt;stroke-linejoin:miter;"/>
                    </g>
                    <g transform="matrix(1,0,0,1,255.572,1232)">
                        <path d="M0,-146.799L84.768,0L169.535,-146.799L0,-146.799Z" style="fill:rgb(0,108,250);fill-rule:nonzero;"/>
                    </g>
                </g>
            </g>
        </g>
        <g transform="matrix(1,0,0,1,950.78,1328.67)">
            <path d="M0,-536.168L0,-355.111L-165.887,-355.111C-179.019,-355.111 -189.665,-344.466 -189.665,-331.334L-189.665,-211.334C-189.665,-198.202 -179.019,-187.556 -165.887,-187.556L0,-187.556L0,88.167C0,92.125 -3.208,95.333 -7.166,95.333L-800.834,95.333C-804.792,95.333 -808,92.125 -808,88.167L-808,-536.168C-808,-539.759 -805.358,-542.733 -801.912,-543.253L-6.382,-543.291C-2.793,-542.901 0,-539.861 0,-536.168ZM-869.887,-642.667L-869.887,205.111C-869.887,223.766 -854.764,238.889 -836.109,238.889L27.446,238.889C46.101,238.889 61.224,223.766 61.224,205.111L61.224,-642.667L-869.887,-642.667Z" style="fill:rgb(87,87,92);"/>
        </g>
        <g transform="matrix(-1,0,0,1,1091.12,-420.333)">
            <rect x="79.117" y="982.222" width="932.886" height="123.889" style="fill:rgb(220,220,220);"/>
        </g>
        <g transform="matrix(1,0,0,1,917.92,686)">
            <path d="M0,-49.889L-77.056,-49.889C-85.324,-49.889 -92.028,-43.186 -92.028,-34.917L-92.028,0L14.972,0L14.972,-34.917C14.972,-43.186 8.269,-49.889 0,-49.889" style="fill:rgb(87,87,92);"/>
        </g>
        <g transform="matrix(0,-1,-1,0,852.761,647.552)">
            <path d="M-13.836,-13.836C-21.477,-13.836 -27.671,-7.642 -27.671,-0.001C-27.671,7.64 -21.477,13.836 -13.836,13.836C-6.195,13.836 -0.001,7.64 -0.001,-0.001C-0.001,-7.642 -6.195,-13.836 -13.836,-13.836" style="fill:rgb(220,220,220);"/>
        </g>
        <g transform="matrix(0,-1,-1,0,906.372,647.552)">
            <path d="M-13.836,-13.836C-21.477,-13.836 -27.671,-7.642 -27.671,-0.001C-27.671,7.641 -21.477,13.836 -13.836,13.836C-6.195,13.836 -0.001,7.641 -0.001,-0.001C-0.001,-7.642 -6.195,-13.836 -13.836,-13.836" style="fill:rgb(220,220,220);"/>
        </g>
        <g transform="matrix(1,0,0,1,780.78,741.111)">
            <path d="M0,11.111L-468,11.111C-471.068,11.111 -473.556,8.624 -473.556,5.555C-473.556,2.487 -471.068,0 -468,0L0,0C3.068,0 5.556,2.487 5.556,5.555C5.556,8.624 3.068,11.111 0,11.111" style="fill:white;"/>
        </g>
        <g opacity="0.25">
            <g transform="matrix(1,0,0,1,785.615,1132.56)">
                <path d="M0,-5.222C-6.136,-5.222 -11.111,-10.197 -11.111,-16.333L-11.111,-134.111C-11.111,-140.247 -6.136,-145.222 0,-145.222L181.165,-145.222L181.165,-353.444C181.165,-358.353 177.185,-362.333 172.276,-362.333L-649.946,-362.333C-654.855,-362.333 -658.835,-358.353 -658.835,-353.444L-658.835,348.223C-658.835,353.132 -654.855,357.111 -649.946,357.111L172.276,357.111C177.185,357.111 181.165,353.132 181.165,348.223L181.165,-5.222L0,-5.222Z" style="fill:white;"/>
            </g>
        </g>
        <g transform="matrix(1,0,0,1,191.406,774.833)">
            <path d="M0,-25.055L-40.139,-25.055C-41.941,-25.055 -43.403,-23.594 -43.403,-21.791L-43.403,-3.263C-43.403,-1.461 -41.941,0 -40.139,0L-33.292,0L-33.292,-11.291C-33.292,-13.094 -31.83,-14.555 -30.028,-14.555L-10.111,-14.555C-8.309,-14.555 -6.847,-13.094 -6.847,-11.291L-6.847,0L0,0C1.803,0 3.264,-1.461 3.264,-3.263L3.264,-21.791C3.264,-23.594 1.803,-25.055 0,-25.055" style="fill:rgb(87,87,92);"/>
        </g>
        <g transform="matrix(1,0,0,1,191.406,776.493)">
            <path d="M0,0.424L-9.097,0.424L-9.097,-12.705C-9.097,-13.466 -9.714,-14.083 -10.476,-14.083L-29.663,-14.083C-30.424,-14.083 -31.042,-13.466 -31.042,-12.705L-31.042,0.424L-40.139,0.424C-41.941,0.424 -43.403,1.885 -43.403,3.688L-43.403,11.243C-43.403,13.046 -41.941,14.507 -40.139,14.507L0,14.507C1.803,14.507 3.264,13.046 3.264,11.243L3.264,3.688C3.264,1.885 1.803,0.424 0,0.424" style="fill:rgb(87,87,92);"/>
        </g>
        <g transform="matrix(1,0,0,1,191.406,993.257)">
            <path d="M0,-25.055L-40.139,-25.055C-41.941,-25.055 -43.403,-23.594 -43.403,-21.791L-43.403,-3.263C-43.403,-1.461 -41.941,0 -40.139,0L-33.292,0L-33.292,-11.291C-33.292,-13.094 -31.83,-14.555 -30.028,-14.555L-10.111,-14.555C-8.309,-14.555 -6.847,-13.094 -6.847,-11.291L-6.847,0L0,0C1.803,0 3.264,-1.461 3.264,-3.263L3.264,-21.791C3.264,-23.594 1.803,-25.055 0,-25.055" style="fill:rgb(87,87,92);"/>
        </g>
        <g transform="matrix(1,0,0,1,191.406,994.917)">
            <path d="M0,0.424L-9.097,0.424L-9.097,-12.705C-9.097,-13.466 -9.714,-14.083 -10.476,-14.083L-29.663,-14.083C-30.424,-14.083 -31.042,-13.466 -31.042,-12.705L-31.042,0.424L-40.139,0.424C-41.941,0.424 -43.403,1.885 -43.403,3.688L-43.403,11.243C-43.403,13.046 -41.941,14.507 -40.139,14.507L0,14.507C1.803,14.507 3.264,13.046 3.264,11.243L3.264,3.688C3.264,1.885 1.803,0.424 0,0.424" style="fill:rgb(87,87,92);"/>
        </g>
        <g transform="matrix(1,0,0,1,749.184,993.257)">
            <path d="M0,-25.055L-40.139,-25.055C-41.941,-25.055 -43.403,-23.594 -43.403,-21.791L-43.403,-3.263C-43.403,-1.461 -41.941,0 -40.139,0L-33.292,0L-33.292,-11.291C-33.292,-13.094 -31.83,-14.555 -30.028,-14.555L-10.111,-14.555C-8.309,-14.555 -6.847,-13.094 -6.847,-11.291L-6.847,0L0,0C1.803,0 3.264,-1.461 3.264,-3.263L3.264,-21.791C3.264,-23.594 1.803,-25.055 0,-25.055" style="fill:rgb(87,87,92);"/>
        </g>
        <g transform="matrix(1,0,0,1,749.184,994.917)">
            <path d="M0,0.424L-9.097,0.424L-9.097,-12.705C-9.097,-13.466 -9.714,-14.083 -10.476,-14.083L-29.663,-14.083C-30.424,-14.083 -31.042,-13.466 -31.042,-12.705L-31.042,0.424L-40.139,0.424C-41.941,0.424 -43.403,1.885 -43.403,3.688L-43.403,11.243C-43.403,13.046 -41.941,14.507 -40.139,14.507L0,14.507C1.803,14.507 3.264,13.046 3.264,11.243L3.264,3.688C3.264,1.885 1.803,0.424 0,0.424" style="fill:rgb(87,87,92);"/>
        </g>
        <g transform="matrix(1,0,0,1,942.14,774.833)">
            <path d="M0,-25.055L-40.139,-25.055C-41.941,-25.055 -43.403,-23.594 -43.403,-21.791L-43.403,-3.263C-43.403,-1.461 -41.941,0 -40.139,0L-33.292,0L-33.292,-11.291C-33.292,-13.094 -31.83,-14.555 -30.028,-14.555L-10.111,-14.555C-8.309,-14.555 -6.847,-13.094 -6.847,-11.291L-6.847,0L0,0C1.803,0 3.264,-1.461 3.264,-3.263L3.264,-21.791C3.264,-23.594 1.803,-25.055 0,-25.055" style="fill:rgb(87,87,92);"/>
        </g>
        <g transform="matrix(1,0,0,1,942.14,776.493)">
            <path d="M0,0.424L-9.097,0.424L-9.097,-12.705C-9.097,-13.466 -9.714,-14.083 -10.476,-14.083L-29.663,-14.083C-30.424,-14.083 -31.042,-13.466 -31.042,-12.705L-31.042,0.424L-40.139,0.424C-41.941,0.424 -43.403,1.885 -43.403,3.688L-43.403,11.243C-43.403,13.046 -41.941,14.507 -40.139,14.507L0,14.507C1.803,14.507 3.264,13.046 3.264,11.243L3.264,3.688C3.264,1.885 1.803,0.424 0,0.424" style="fill:rgb(87,87,92);"/>
        </g>
        <g transform="matrix(1,0,0,1,786.226,1464.89)">
            <path d="M0,24.778L-478.222,24.778L-478.222,4C-478.222,1.791 -476.431,0 -474.222,0L-4,0C-1.791,0 0,1.791 0,4L0,24.778Z" style="fill:rgb(87,87,92);"/>
        </g>
        <g transform="matrix(-1,0,0,1,1872.12,1481.83)">
            <rect x="922.391" y="88" width="27.333" height="10.167" style="fill:rgb(87,87,92);"/>
        </g>
        <g transform="matrix(-1,0,0,1,315.003,1481.83)">
            <rect x="143.835" y="88" width="27.333" height="10.167" style="fill:rgb(87,87,92);"/>
        </g>
        <g transform="matrix(1,0,0,1,1014.44,1569.83)">
            <path d="M0,-1007.94L-935.323,-1007.94L-935.323,-36.85C-935.323,-16.498 -918.825,0 -898.473,0L-36.85,0C-16.498,0 0,-16.498 0,-36.85L0,-1007.94ZM-3,-1004.94L-3,-36.85C-3,-18.185 -18.185,-3 -36.85,-3L-898.473,-3C-917.138,-3 -932.323,-18.185 -932.323,-36.85L-932.323,-1004.94L-3,-1004.94Z" style="fill:rgb(22,33,45);fill-rule:nonzero;"/>
        </g>
        <g transform="matrix(1,0,0,1,79.1179,686)">
            <path d="M0,0L935.323,0" style="fill:none;fill-rule:nonzero;stroke:rgb(22,33,45);stroke-width:3px;stroke-linecap:butt;"/>
        </g>
        <g transform="matrix(1,0,0,1,917.92,686)">
            <path d="M0,-49.889L-77.056,-49.889C-85.324,-49.889 -92.028,-43.186 -92.028,-34.917L-92.028,0L14.972,0L14.972,-34.917C14.972,-43.186 8.269,-49.889 0,-49.889Z" style="fill:none;fill-rule:nonzero;stroke:rgb(22,33,45);stroke-width:3px;"/>
        </g>
        <g transform="matrix(0,-1,-1,0,852.761,650.026)">
            <circle cx="-11.361" cy="0" r="11.361" style="fill:none;stroke:rgb(22,33,45);stroke-width:1px;"/>
        </g>
        <g transform="matrix(0,-1,-1,0,852.761,647.552)">
            <ellipse cx="-13.836" cy="0" rx="13.835" ry="13.836" style="fill:none;stroke:rgb(22,33,45);stroke-width:1px;"/>
        </g>
        <g transform="matrix(0,-1,-1,0,852.761,653.753)">
            <ellipse cx="-7.635" cy="0" rx="7.634" ry="7.635" style="fill:none;stroke:rgb(22,33,45);stroke-width:1px;"/>
        </g>
        <g transform="matrix(0,-1,-1,0,906.372,650.026)">
            <circle cx="-11.361" cy="0" r="11.361" style="fill:none;stroke:rgb(22,33,45);stroke-width:1px;"/>
        </g>
        <g transform="matrix(0,-1,-1,0,906.372,647.552)">
            <ellipse cx="-13.836" cy="0" rx="13.835" ry="13.836" style="fill:none;stroke:rgb(22,33,45);stroke-width:1px;"/>
        </g>
        <g transform="matrix(0,-1,-1,0,906.372,653.753)">
            <ellipse cx="-7.635" cy="0" rx="7.634" ry="7.635" style="fill:none;stroke:rgb(22,33,45);stroke-width:1px;"/>
        </g>
        <g transform="matrix(1,0,0,1,972.448,1127.33)">
            <path d="M0,-140L-186.833,-140C-192.97,-140 -197.944,-135.025 -197.944,-128.889L-197.944,-11.111C-197.944,-4.975 -192.97,0 -186.833,0L0,0C6.136,0 11.111,-4.975 11.111,-11.111L11.111,-128.889C11.111,-135.025 6.136,-140 0,-140M0,-137C4.472,-137 8.111,-133.361 8.111,-128.889L8.111,-11.111C8.111,-6.639 4.472,-3 0,-3L-186.833,-3C-191.306,-3 -194.944,-6.639 -194.944,-11.111L-194.944,-128.889C-194.944,-133.361 -191.306,-137 -186.833,-137L0,-137Z" style="fill:rgb(22,33,45);fill-rule:nonzero;"/>
        </g>
        <g transform="matrix(1,0,0,1,972.047,1120.33)">
            <path d="M0,-126.167L-186.031,-126.167C-188.655,-126.167 -190.781,-124.04 -190.781,-121.417L-190.781,-4.75C-190.781,-2.127 -188.655,0 -186.031,0L0,0C2.623,0 4.75,-2.127 4.75,-4.75L4.75,-121.417C4.75,-124.04 2.623,-126.167 0,-126.167M0,-124.167C1.516,-124.167 2.75,-122.933 2.75,-121.417L2.75,-4.75C2.75,-3.234 1.516,-2 0,-2L-186.031,-2C-187.548,-2 -188.781,-3.234 -188.781,-4.75L-188.781,-121.417C-188.781,-122.933 -187.548,-124.167 -186.031,-124.167L0,-124.167Z" style="fill:rgb(22,33,45);fill-rule:nonzero;"/>
        </g>
        <g transform="matrix(1,0,0,1,0,446.333)">
            <path d="M962.698,564L795.365,564L795.365,657.667L962.698,657.667L962.698,564ZM961.698,656.667L796.365,656.667L796.365,565L961.698,565L961.698,656.667Z" style="fill:rgb(22,33,45);fill-rule:nonzero;"/>
        </g>
        <g transform="matrix(1,0,0,1,945.404,987.333)">
            <path d="M0,-217.111L12.487,-217.111C17.396,-217.111 21.376,-213.131 21.376,-208.222L21.376,0" style="fill:none;fill-rule:nonzero;stroke:rgb(22,33,45);stroke-width:2px;"/>
        </g>
        <g transform="matrix(1,0,0,1,194.67,770.222)">
            <path d="M0,0L704.067,0" style="fill:none;fill-rule:nonzero;stroke:rgb(22,33,45);stroke-width:2px;"/>
        </g>
        <g transform="matrix(1,0,0,1,966.78,1165.33)">
            <path d="M0,-38L0,348.222C0,353.131 -3.98,357.111 -8.889,357.111L-831.111,357.111C-836.02,357.111 -840,353.131 -840,348.222L-840,-386.222C-840,-391.131 -836.02,-395.111 -831.111,-395.111L-818.776,-395.111" style="fill:none;fill-rule:nonzero;stroke:rgb(22,33,45);stroke-width:2px;"/>
        </g>
        <g transform="matrix(1,0,0,1,966.78,1489.67)">
            <path d="M0,-8.889C0,-3.98 -3.98,0 -8.889,0L-831.111,0C-836.02,0 -840,-3.98 -840,-8.889" style="fill:none;fill-rule:nonzero;stroke:rgb(22,33,45);stroke-width:2px;"/>
        </g>
        <g transform="matrix(1,0,0,1,786.226,1464.89)">
            <path d="M0,46.222L-478.222,46.222L-478.222,4C-478.222,1.791 -476.431,0 -474.222,0L-4,0C-1.791,0 0,1.791 0,4L0,46.222Z" style="fill:none;fill-rule:nonzero;stroke:rgb(22,33,45);stroke-width:2px;"/>
        </g>
        <g transform="matrix(1,0,0,1,148.867,1423.96)">
            <path d="M0,-638.548C-3.446,-638.028 -6.088,-635.054 -6.088,-631.463L-6.088,-7.128C-6.088,-3.17 -2.879,0.038 1.078,0.038L794.747,0.038C798.704,0.038 801.912,-3.17 801.912,-7.128L801.912,-282.851L636.025,-282.851C622.893,-282.851 612.247,-293.496 612.247,-306.629L612.247,-426.629C612.247,-439.761 622.893,-450.406 636.025,-450.406L801.912,-450.406L801.912,-631.463C801.912,-635.155 799.119,-638.196 795.53,-638.586" style="fill:none;fill-rule:nonzero;stroke:rgb(22,33,45);stroke-width:2px;"/>
        </g>
        <g transform="matrix(-1,0,0,1,194.67,785.333)">
            <path d="M-704.972,0L0,0" style="fill:none;fill-rule:nonzero;stroke:rgb(22,33,45);stroke-width:2px;"/>
        </g>
        <g transform="matrix(1,0,0,1,191.406,774.833)">
            <path d="M0,-25.055L-40.139,-25.055C-41.941,-25.055 -43.403,-23.594 -43.403,-21.791L-43.403,-3.263C-43.403,-1.461 -41.941,0 -40.139,0L-33.292,0L-33.292,-11.291C-33.292,-13.094 -31.83,-14.555 -30.028,-14.555L-10.111,-14.555C-8.309,-14.555 -6.847,-13.094 -6.847,-11.291L-6.847,0L0,0C1.803,0 3.264,-1.461 3.264,-3.263L3.264,-21.791C3.264,-23.594 1.803,-25.055 0,-25.055Z" style="fill:none;fill-rule:nonzero;stroke:rgb(22,33,45);stroke-width:2px;"/>
        </g>
        <g transform="matrix(1,0,0,1,180.93,791)">
            <path d="M0,-28.591L-19.187,-28.591C-19.949,-28.591 -20.566,-27.974 -20.566,-27.212L-20.566,-14.084L-29.663,-14.084C-31.466,-14.084 -32.927,-12.622 -32.927,-10.82L-32.927,-3.264C-32.927,-1.462 -31.466,0 -29.663,0L10.476,0C12.278,0 13.74,-1.462 13.74,-3.264L13.74,-10.82C13.74,-12.622 12.278,-14.084 10.476,-14.084L1.379,-14.084L1.379,-27.212C1.379,-27.974 0.761,-28.591 0,-28.591M-0.621,-26.591L-0.621,-14.084C-0.621,-12.979 0.274,-12.084 1.379,-12.084L10.476,-12.084C11.173,-12.084 11.74,-11.517 11.74,-10.82L11.74,-3.264C11.74,-2.567 11.173,-2 10.476,-2L-29.663,-2C-30.36,-2 -30.927,-2.567 -30.927,-3.264L-30.927,-10.82C-30.927,-11.517 -30.36,-12.084 -29.663,-12.084L-20.566,-12.084C-19.461,-12.084 -18.566,-12.979 -18.566,-14.084L-18.566,-26.591L-0.621,-26.591Z" style="fill:rgb(22,33,45);fill-rule:nonzero;"/>
        </g>
        <g transform="matrix(1,0,0,1,191.406,993.257)">
            <path d="M0,-25.055L-40.139,-25.055C-41.941,-25.055 -43.403,-23.594 -43.403,-21.791L-43.403,-3.263C-43.403,-1.461 -41.941,0 -40.139,0L-33.292,0L-33.292,-11.291C-33.292,-13.094 -31.83,-14.555 -30.028,-14.555L-10.111,-14.555C-8.309,-14.555 -6.847,-13.094 -6.847,-11.291L-6.847,0L0,0C1.803,0 3.264,-1.461 3.264,-3.263L3.264,-21.791C3.264,-23.594 1.803,-25.055 0,-25.055Z" style="fill:none;fill-rule:nonzero;stroke:rgb(22,33,45);stroke-width:2px;"/>
        </g>
        <g transform="matrix(1,0,0,1,191.406,994.917)">
            <path d="M0,0.424L-9.097,0.424L-9.097,-12.705C-9.097,-13.466 -9.714,-14.083 -10.476,-14.083L-29.663,-14.083C-30.424,-14.083 -31.042,-13.466 -31.042,-12.705L-31.042,0.424L-40.139,0.424C-41.941,0.424 -43.403,1.885 -43.403,3.688L-43.403,11.243C-43.403,13.046 -41.941,14.507 -40.139,14.507L0,14.507C1.803,14.507 3.264,13.046 3.264,11.243L3.264,3.688C3.264,1.885 1.803,0.424 0,0.424Z" style="fill:none;fill-rule:nonzero;stroke:rgb(22,33,45);stroke-width:2px;"/>
        </g>
        <g transform="matrix(1,0,0,1,749.184,993.257)">
            <path d="M0,-25.055L-40.139,-25.055C-41.941,-25.055 -43.403,-23.594 -43.403,-21.791L-43.403,-3.263C-43.403,-1.461 -41.941,0 -40.139,0L-33.292,0L-33.292,-11.291C-33.292,-13.094 -31.83,-14.555 -30.028,-14.555L-10.111,-14.555C-8.309,-14.555 -6.847,-13.094 -6.847,-11.291L-6.847,0L0,0C1.803,0 3.264,-1.461 3.264,-3.263L3.264,-21.791C3.264,-23.594 1.803,-25.055 0,-25.055Z" style="fill:none;fill-rule:nonzero;stroke:rgb(22,33,45);stroke-width:2px;"/>
        </g>
        <g transform="matrix(1,0,0,1,749.184,994.917)">
            <path d="M0,0.424L-9.097,0.424L-9.097,-12.705C-9.097,-13.466 -9.714,-14.083 -10.476,-14.083L-29.663,-14.083C-30.424,-14.083 -31.042,-13.466 -31.042,-12.705L-31.042,0.424L-40.139,0.424C-41.941,0.424 -43.403,1.885 -43.403,3.688L-43.403,11.243C-43.403,13.046 -41.941,14.507 -40.139,14.507L0,14.507C1.803,14.507 3.264,13.046 3.264,11.243L3.264,3.688C3.264,1.885 1.803,0.424 0,0.424Z" style="fill:none;fill-rule:nonzero;stroke:rgb(22,33,45);stroke-width:2px;"/>
        </g>
        <g transform="matrix(1,0,0,1,942.14,774.833)">
            <path d="M0,-25.055L-40.139,-25.055C-41.941,-25.055 -43.403,-23.594 -43.403,-21.791L-43.403,-3.263C-43.403,-1.461 -41.941,0 -40.139,0L-33.292,0L-33.292,-11.291C-33.292,-13.094 -31.83,-14.555 -30.028,-14.555L-10.111,-14.555C-8.309,-14.555 -6.847,-13.094 -6.847,-11.291L-6.847,0L0,0C1.803,0 3.264,-1.461 3.264,-3.263L3.264,-21.791C3.264,-23.594 1.803,-25.055 0,-25.055Z" style="fill:none;fill-rule:nonzero;stroke:rgb(22,33,45);stroke-width:2px;"/>
        </g>
        <g transform="matrix(1,0,0,1,931.664,791)">
            <path d="M0,-28.591L-19.187,-28.591C-19.949,-28.591 -20.566,-27.974 -20.566,-27.212L-20.566,-14.084L-29.663,-14.084C-31.466,-14.084 -32.927,-12.622 -32.927,-10.82L-32.927,-3.264C-32.927,-1.462 -31.466,0 -29.663,0L10.476,0C12.278,0 13.74,-1.462 13.74,-3.264L13.74,-10.82C13.74,-12.622 12.278,-14.084 10.476,-14.084L1.379,-14.084L1.379,-27.212C1.379,-27.974 0.761,-28.591 0,-28.591M-0.621,-26.591L-0.621,-14.084C-0.621,-12.979 0.274,-12.084 1.379,-12.084L10.476,-12.084C11.173,-12.084 11.74,-11.517 11.74,-10.82L11.74,-3.264C11.74,-2.567 11.173,-2 10.476,-2L-29.663,-2C-30.36,-2 -30.927,-2.567 -30.927,-3.264L-30.927,-10.82C-30.927,-11.517 -30.36,-12.084 -29.663,-12.084L-20.566,-12.084C-19.461,-12.084 -18.566,-12.979 -18.566,-14.084L-18.566,-26.591L-0.621,-26.591Z" style="fill:rgb(22,33,45);fill-rule:nonzero;"/>
        </g>
        <g transform="matrix(1,0,0,1,780.78,741.111)">
            <path d="M0,11.111L-468,11.111C-471.068,11.111 -473.556,8.624 -473.556,5.555C-473.556,2.487 -471.068,0 -468,0L0,0C3.068,0 5.556,2.487 5.556,5.555C5.556,8.624 3.068,11.111 0,11.111Z" style="fill:none;fill-rule:nonzero;stroke:rgb(22,33,45);stroke-width:2px;"/>
        </g>
        <g transform="matrix(1,0,0,1,949.724,1583)">
            <path d="M0,-16.167L-27.333,-16.167C-28.99,-16.167 -30.333,-14.824 -30.333,-13.167L-30.333,-3C-30.333,-1.344 -28.99,0 -27.333,0L0,0C1.657,0 3,-1.344 3,-3L3,-13.167C3,-14.824 1.657,-16.167 0,-16.167M0,-3L-27.333,-3L-27.333,-13.167L0,-13.167L0,-3Z" style="fill:rgb(22,33,45);fill-rule:nonzero;"/>
        </g>
        <g transform="matrix(1,0,0,1,171.168,1583)">
            <path d="M0,-16.167L-27.333,-16.167C-28.99,-16.167 -30.333,-14.824 -30.333,-13.167L-30.333,-3C-30.333,-1.344 -28.99,0 -27.333,0L0,0C1.657,0 3,-1.344 3,-3L3,-13.167C3,-14.824 1.657,-16.167 0,-16.167M0,-3L-27.333,-3L-27.333,-13.167L0,-13.167L0,-3Z" style="fill:rgb(22,33,45);fill-rule:nonzero;"/>
        </g>
        <g transform="matrix(-1,0,0,1,126.779,989.333)">
            <path d="M-21.224,0L0,0" style="fill:none;fill-rule:nonzero;stroke:rgb(22,33,45);stroke-width:2px;"/>
        </g>
        <g transform="matrix(-1,0,0,1,194.67,989.333)">
            <path d="M-511.111,0L0,0" style="fill:none;fill-rule:nonzero;stroke:rgb(22,33,45);stroke-width:2px;"/>
        </g>
        <g transform="matrix(-1,0,0,1,752.448,989.333)">
            <path d="M-32.444,0L0,0" style="fill:none;fill-rule:nonzero;stroke:rgb(22,33,45);stroke-width:2px;"/>
        </g>
        <g transform="matrix(0,-1,-1,0,310.029,483.73)">
            <path d="M-28.697,-28.697C-44.546,-28.697 -57.394,-15.849 -57.394,0.001C-57.394,15.849 -44.546,28.697 -28.697,28.697C-12.848,28.697 0.001,15.849 0.001,0.001C0.001,-15.849 -12.848,-28.697 -28.697,-28.697" style="fill:rgb(255,214,0);fill-rule:nonzero;"/>
        </g>
        <g transform="matrix(0,-1,-1,0,446.959,415.357)">
            <path d="M-25.684,-25.684C-39.869,-25.684 -51.368,-14.185 -51.368,0C-51.368,14.185 -39.869,25.684 -25.684,25.684C-11.499,25.684 0,14.185 0,0C0,-14.185 -11.499,-25.684 -25.684,-25.684" style="fill:rgb(255,214,0);fill-rule:nonzero;"/>
        </g>
        <g transform="matrix(0,-1,-1,0,252.635,292.419)">
            <path d="M-28.697,-28.697C-44.546,-28.697 -57.394,-15.849 -57.394,0.001C-57.394,15.849 -44.546,28.697 -28.697,28.697C-12.848,28.697 0.001,15.849 0.001,0.001C0.001,-15.849 -12.848,-28.697 -28.697,-28.697" style="fill:rgb(255,214,0);fill-rule:nonzero;"/>
        </g>
        <g transform="matrix(0,-1,-1,0,618.149,237.151)">
            <path d="M-39.222,-39.222C-60.884,-39.222 -78.444,-21.662 -78.444,0C-78.444,21.662 -60.884,39.222 -39.222,39.222C-17.56,39.222 0,21.662 0,0C0,-21.662 -17.56,-39.222 -39.222,-39.222" style="fill:rgb(255,214,0);fill-rule:nonzero;"/>
        </g>
        <g transform="matrix(0,-1,-1,0,589.238,76.5855)">
            <path d="M-28.697,-28.697C-44.546,-28.697 -57.394,-15.849 -57.394,0.001C-57.394,15.849 -44.546,28.697 -28.697,28.697C-12.848,28.697 0.001,15.849 0.001,0.001C0.001,-15.849 -12.848,-28.697 -28.697,-28.697" style="fill:rgb(255,214,0);fill-rule:nonzero;"/>
        </g>
        <g transform="matrix(0,-1,-1,0,390.804,326.43)">
            <path d="M-15.942,-15.942C-24.748,-15.942 -31.886,-8.804 -31.886,0.001C-31.886,8.805 -24.748,15.942 -15.942,15.942C-7.137,15.942 0.001,8.805 0.001,0.001C0.001,-8.804 -7.137,-15.942 -15.942,-15.942" style="fill:rgb(255,214,0);fill-rule:nonzero;"/>
        </g>
        <g transform="matrix(0,-1,-1,0,271.912,392.617)">
            <path d="M-15.942,-15.942C-24.748,-15.942 -31.886,-8.804 -31.886,0.001C-31.886,8.805 -24.748,15.942 -15.942,15.942C-7.137,15.942 0.001,8.805 0.001,0.001C0.001,-8.804 -7.137,-15.942 -15.942,-15.942" style="fill:rgb(255,214,0);fill-rule:nonzero;"/>
        </g>
        <g transform="matrix(0,-1,-1,0,339.788,419.96)">
            <path d="M-15.942,-15.942C-24.748,-15.942 -31.886,-8.804 -31.886,0.001C-31.886,8.805 -24.748,15.942 -15.942,15.942C-7.137,15.942 0.001,8.805 0.001,0.001C0.001,-8.804 -7.137,-15.942 -15.942,-15.942" style="fill:rgb(255,214,0);fill-rule:nonzero;"/>
        </g>
        <g transform="matrix(0,-1,-1,0,437.569,500.736)">
            <path d="M-15.942,-15.942C-24.748,-15.942 -31.886,-8.804 -31.886,0.001C-31.886,8.805 -24.748,15.942 -15.942,15.942C-7.137,15.942 0.001,8.805 0.001,0.001C0.001,-8.804 -7.137,-15.942 -15.942,-15.942" style="fill:rgb(255,214,0);fill-rule:nonzero;"/>
        </g>
        <g transform="matrix(0,-1,-1,0,526.848,447.594)">
            <path d="M-15.942,-15.942C-24.748,-15.942 -31.886,-8.804 -31.886,0.001C-31.886,8.805 -24.748,15.942 -15.942,15.942C-7.137,15.942 0.001,8.805 0.001,0.001C0.001,-8.804 -7.137,-15.942 -15.942,-15.942" style="fill:rgb(255,214,0);fill-rule:nonzero;"/>
        </g>
        <g transform="matrix(0,-1,-1,0,558.733,368.944)">
            <path d="M-15.942,-15.942C-24.748,-15.942 -31.886,-8.804 -31.886,0.001C-31.886,8.805 -24.748,15.942 -15.942,15.942C-7.137,15.942 0.001,8.805 0.001,0.001C0.001,-8.804 -7.137,-15.942 -15.942,-15.942" style="fill:rgb(255,214,0);fill-rule:nonzero;"/>
        </g>
        <g transform="matrix(0,-1,-1,0,451.918,185.664)">
            <path d="M-15.942,-15.942C-24.748,-15.942 -31.886,-8.804 -31.886,0.001C-31.886,8.805 -24.748,15.942 -15.942,15.942C-7.137,15.942 0.001,8.805 0.001,0.001C0.001,-8.804 -7.137,-15.942 -15.942,-15.942" style="fill:rgb(255,214,0);fill-rule:nonzero;"/>
        </g>
        <g transform="matrix(-0.752771,0.658283,0.658283,0.752771,898.457,297.622)">
            <path d="M18.89,-50.298C3.04,-50.298 -9.807,-37.45 -9.806,-21.602C-9.807,-5.753 3.042,7.095 18.89,7.095C34.739,7.095 47.587,-5.753 47.587,-21.602C47.587,-37.451 34.739,-50.299 18.89,-50.298" style="fill:rgb(255,214,0);fill-rule:nonzero;"/>
        </g>
        <g transform="matrix(-0.752771,0.658283,0.658283,0.752771,754.296,245.786)">
            <path d="M18.89,-50.298C3.04,-50.298 -9.807,-37.45 -9.806,-21.602C-9.807,-5.753 3.042,7.095 18.89,7.095C34.739,7.095 47.587,-5.753 47.587,-21.602C47.587,-37.451 34.739,-50.299 18.89,-50.298" style="fill:rgb(255,214,0);fill-rule:nonzero;"/>
        </g>
        <g transform="matrix(-0.752771,0.658283,0.658283,0.752771,792.222,466.762)">
            <path d="M18.89,-50.298C3.04,-50.298 -9.807,-37.45 -9.806,-21.602C-9.807,-5.753 3.041,7.095 18.89,7.095C34.739,7.095 47.587,-5.753 47.586,-21.602C47.587,-37.451 34.739,-50.299 18.89,-50.298" style="fill:rgb(255,214,0);fill-rule:nonzero;"/>
        </g>
        <g transform="matrix(-0.752775,0.658278,0.658278,0.752775,704.631,347.058)">
            <path d="M10.495,-27.943C1.69,-27.943 -5.449,-20.806 -5.448,-12C-5.448,-3.196 1.69,3.941 10.495,3.941C19.299,3.941 26.438,-3.196 26.438,-12.001C26.438,-20.806 19.299,-27.943 10.495,-27.943" style="fill:rgb(255,214,0);fill-rule:nonzero;"/>
        </g>
        <g transform="matrix(-0.752775,0.658278,0.658278,0.752775,657.036,431.43)">
            <path d="M10.495,-27.943C1.69,-27.943 -5.448,-20.805 -5.448,-12C-5.448,-3.196 1.69,3.941 10.495,3.941C19.299,3.941 26.438,-3.196 26.438,-12.001C26.438,-20.806 19.299,-27.943 10.495,-27.943" style="fill:rgb(255,214,0);fill-rule:nonzero;"/>
        </g>
        <g transform="matrix(-0.752775,0.658278,0.658278,0.752775,894.82,123.781)">
            <path d="M10.495,-27.943C1.69,-27.943 -5.448,-20.805 -5.448,-12C-5.448,-3.196 1.69,3.941 10.495,3.941C19.299,3.941 26.438,-3.196 26.438,-12.001C26.438,-20.806 19.299,-27.943 10.495,-27.943" style="fill:rgb(255,214,0);fill-rule:nonzero;"/>
        </g>
        <g transform="matrix(-0.752775,0.658278,0.658278,0.752775,808.621,323.893)">
            <path d="M10.495,-27.943C1.69,-27.943 -5.448,-20.805 -5.448,-12C-5.448,-3.196 1.69,3.941 10.495,3.941C19.299,3.941 26.438,-3.196 26.438,-12.001C26.438,-20.806 19.299,-27.943 10.495,-27.943" style="fill:rgb(255,214,0);fill-rule:nonzero;"/>
        </g>
        <g transform="matrix(-0.752775,0.658278,0.658278,0.752775,867.454,354.535)">
            <path d="M10.495,-27.943C1.69,-27.943 -5.448,-20.805 -5.448,-12C-5.448,-3.196 1.69,3.941 10.495,3.941C19.299,3.941 26.438,-3.196 26.438,-12.001C26.438,-20.806 19.299,-27.943 10.495,-27.943" style="fill:rgb(255,214,0);fill-rule:nonzero;"/>
        </g>
        <g transform="matrix(-0.752775,0.658278,0.658278,0.752775,805.06,197.113)">
            <path d="M10.495,-27.943C1.69,-27.943 -5.448,-20.805 -5.448,-12C-5.448,-3.196 1.69,3.941 10.495,3.941C19.299,3.941 26.438,-3.196 26.438,-12.001C26.438,-20.806 19.299,-27.943 10.495,-27.943" style="fill:rgb(255,214,0);fill-rule:nonzero;"/>
        </g>
        <g transform="matrix(-0.752775,0.658278,0.658278,0.752775,771.966,133.377)">
            <path d="M10.495,-27.943C1.69,-27.943 -5.448,-20.805 -5.448,-12C-5.448,-3.196 1.69,3.941 10.495,3.941C19.299,3.941 26.438,-3.196 26.438,-12.001C26.438,-20.806 19.299,-27.943 10.495,-27.943" style="fill:rgb(255,214,0);fill-rule:nonzero;"/>
        </g>
        <g transform="matrix(-0.752775,0.658278,0.658278,0.752775,706.286,164.888)">
            <path d="M10.495,-27.943C1.69,-27.943 -5.449,-20.806 -5.448,-12C-5.448,-3.196 1.69,3.941 10.495,3.941C19.299,3.941 26.438,-3.196 26.438,-12.001C26.438,-20.806 19.299,-27.943 10.495,-27.943" style="fill:rgb(255,214,0);fill-rule:nonzero;"/>
        </g>
        <g transform="matrix(-0.752775,0.658278,0.658278,0.752775,626.091,192.659)">
            <path d="M10.495,-27.943C1.69,-27.943 -5.449,-20.806 -5.448,-12C-5.448,-3.196 1.69,3.941 10.495,3.941C19.299,3.941 26.438,-3.196 26.438,-12.001C26.438,-20.806 19.299,-27.943 10.495,-27.943" style="fill:rgb(255,214,0);fill-rule:nonzero;"/>
        </g>
        <g transform="matrix(0,-1,-1,0,446.81,289.448)">
            <path d="M-23.492,-23.493C-36.467,-23.493 -46.985,-12.975 -46.985,-0.001C-46.985,12.974 -36.467,23.492 -23.492,23.492C-10.518,23.492 -0,12.974 -0,-0.001C-0,-12.975 -10.518,-23.493 -23.492,-23.493" style="fill:rgb(255,214,0);fill-rule:nonzero;"/>
        </g>
        <g transform="matrix(0,-1,-1,0,782.855,354.818)">
            <path d="M-22.88,-22.88C-35.516,-22.88 -45.76,-12.636 -45.76,0C-45.76,12.636 -35.516,22.88 -22.88,22.88C-10.244,22.88 0,12.636 0,0C0,-12.636 -10.244,-22.88 -22.88,-22.88" style="fill:rgb(255,214,0);fill-rule:nonzero;"/>
        </g>
        <g transform="matrix(0,-1,-1,0,832.495,383.009)">
            <path d="M-16.139,-16.139C-25.052,-16.139 -32.276,-8.914 -32.276,-0C-32.276,8.913 -25.052,16.139 -16.139,16.139C-7.226,16.139 -0,8.913 -0,-0C-0,-8.914 -7.226,-16.139 -16.139,-16.139" style="fill:rgb(255,214,0);fill-rule:nonzero;"/>
        </g>
        <g transform="matrix(0,-1,-1,0,610.032,490.87)">
            <path d="M-22.88,-22.88C-35.516,-22.88 -45.76,-12.636 -45.76,0C-45.76,12.636 -35.516,22.88 -22.88,22.88C-10.244,22.88 0,12.636 0,0C0,-12.636 -10.244,-22.88 -22.88,-22.88" style="fill:rgb(255,214,0);fill-rule:nonzero;"/>
        </g>
        <g transform="matrix(0,-1,-1,0,524.233,503.127)">
            <path d="M-6.129,-6.129C-9.514,-6.129 -12.256,-3.384 -12.256,-0.001C-12.256,3.385 -9.514,6.129 -6.129,6.129C-2.744,6.129 -0.001,3.385 -0.001,-0.001C-0.001,-3.384 -2.744,-6.129 -6.129,-6.129" style="fill:rgb(255,214,0);fill-rule:nonzero;"/>
        </g>
        <g transform="matrix(0,-1,-1,0,509.526,407.522)">
            <path d="M-6.129,-6.128C-9.514,-6.128 -12.257,-3.384 -12.257,-0C-12.257,3.385 -9.514,6.129 -6.129,6.129C-2.744,6.129 0,3.385 0,-0C0,-3.384 -2.744,-6.128 -6.129,-6.128" style="fill:rgb(255,214,0);fill-rule:nonzero;"/>
        </g>
        <g transform="matrix(0,-1,-1,0,358.764,367.075)">
            <path d="M-6.128,-6.129C-9.513,-6.129 -12.257,-3.385 -12.257,-0.001C-12.257,3.384 -9.513,6.128 -6.128,6.128C-2.743,6.128 0,3.384 0,-0.001C0,-3.385 -2.743,-6.129 -6.128,-6.129" style="fill:rgb(255,214,0);fill-rule:nonzero;"/>
        </g>
        <g transform="matrix(0,-1,-1,0,319.543,294.759)">
            <path d="M-6.129,-6.128C-9.514,-6.128 -12.257,-3.384 -12.257,-0C-12.257,3.385 -9.514,6.129 -6.129,6.129C-2.744,6.129 0,3.385 0,-0C0,-3.384 -2.744,-6.128 -6.129,-6.128" style="fill:rgb(255,214,0);fill-rule:nonzero;"/>
        </g>
        <g transform="matrix(0,-1,-1,0,243.549,467.582)">
            <path d="M-6.128,-6.129C-9.513,-6.129 -12.257,-3.385 -12.257,-0.001C-12.257,3.384 -9.513,6.128 -6.128,6.128C-2.743,6.128 0,3.384 0,-0.001C0,-3.385 -2.743,-6.129 -6.128,-6.129" style="fill:rgb(255,214,0);fill-rule:nonzero;"/>
        </g>
        <g transform="matrix(0,-1,-1,0,188.393,227.346)">
            <path d="M-6.129,-6.129C-9.514,-6.129 -12.256,-3.384 -12.256,-0.001C-12.256,3.385 -9.514,6.129 -6.129,6.129C-2.744,6.129 -0.001,3.385 -0.001,-0.001C-0.001,-3.384 -2.744,-6.129 -6.129,-6.129" style="fill:rgb(255,214,0);fill-rule:nonzero;"/>
        </g>
        <g transform="matrix(0,-1,-1,0,504.623,76.5849)">
            <path d="M-6.129,-6.128C-9.514,-6.128 -12.257,-3.384 -12.257,-0C-12.257,3.385 -9.514,6.129 -6.129,6.129C-2.744,6.129 0,3.385 0,-0C0,-3.384 -2.744,-6.128 -6.129,-6.128" style="fill:rgb(255,214,0);fill-rule:nonzero;"/>
        </g>
        <g transform="matrix(0,-1,-1,0,753.439,517.835)">
            <path d="M-6.129,-6.128C-9.514,-6.128 -12.257,-3.384 -12.257,-0C-12.257,3.385 -9.514,6.129 -6.129,6.129C-2.744,6.129 0,3.385 0,-0C0,-3.384 -2.744,-6.128 -6.129,-6.128" style="fill:rgb(255,214,0);fill-rule:nonzero;"/>
        </g>
        <g transform="matrix(0,-1,-1,0,378.104,485.169)">
            <path d="M-6.128,-6.129C-9.513,-6.129 -12.257,-3.385 -12.257,-0.001C-12.257,3.384 -9.513,6.128 -6.128,6.128C-2.743,6.128 0,3.384 0,-0.001C0,-3.385 -2.743,-6.129 -6.128,-6.129" style="fill:rgb(255,214,0);fill-rule:nonzero;"/>
        </g>
        <g transform="matrix(0,-1,-1,0,824.106,443.835)">
            <path d="M-6.129,-6.128C-9.514,-6.128 -12.257,-3.384 -12.257,-0C-12.257,3.385 -9.514,6.129 -6.129,6.129C-2.744,6.129 0,3.385 0,-0C0,-3.384 -2.744,-6.128 -6.129,-6.128" style="fill:rgb(255,214,0);fill-rule:nonzero;"/>
        </g>
        <g transform="matrix(0,-1,-1,0,683.971,461.839)">
            <path d="M-15.321,-15.321C-23.783,-15.321 -30.642,-8.461 -30.642,0C-30.642,8.462 -23.783,15.321 -15.321,15.321C-6.859,15.321 0,8.462 0,0C0,-8.461 -6.859,-15.321 -15.321,-15.321" style="fill:rgb(255,214,0);fill-rule:nonzero;"/>
        </g>
        <g transform="matrix(0,-1,-1,0,850.881,476.162)">
            <path d="M-15.321,-15.321C-23.783,-15.321 -30.642,-8.461 -30.642,0C-30.642,8.462 -23.783,15.321 -15.321,15.321C-6.859,15.321 0,8.462 0,0C0,-8.461 -6.859,-15.321 -15.321,-15.321" style="fill:rgb(255,214,0);fill-rule:nonzero;"/>
        </g>
        <g transform="matrix(0,-1,-1,0,692.153,409.975)">
            <path d="M-6.128,-6.129C-9.513,-6.129 -12.257,-3.385 -12.257,-0.001C-12.257,3.384 -9.513,6.128 -6.128,6.128C-2.743,6.128 0,3.384 0,-0.001C0,-3.385 -2.743,-6.129 -6.128,-6.129" style="fill:rgb(255,214,0);fill-rule:nonzero;"/>
        </g>
        <g transform="matrix(0,-1,-1,0,421.275,117.033)">
            <path d="M-6.129,-6.129C-9.514,-6.129 -12.256,-3.384 -12.256,-0.001C-12.256,3.385 -9.514,6.129 -6.129,6.129C-2.744,6.129 -0.001,3.385 -0.001,-0.001C-0.001,-3.384 -2.744,-6.129 -6.129,-6.129" style="fill:rgb(255,214,0);fill-rule:nonzero;"/>
        </g>
        <g transform="matrix(0,-1,-1,0,195.559,137.871)">
            <path d="M-6.129,-6.129C-9.514,-6.129 -12.256,-3.384 -12.256,-0.001C-12.256,3.385 -9.514,6.129 -6.129,6.129C-2.744,6.129 -0.001,3.385 -0.001,-0.001C-0.001,-3.384 -2.744,-6.129 -6.129,-6.129" style="fill:rgb(255,214,0);fill-rule:nonzero;"/>
        </g>
        <g transform="matrix(0,-1,-1,0,624.74,357.27)">
            <path d="M-6.128,-6.129C-9.513,-6.129 -12.257,-3.385 -12.257,-0.001C-12.257,3.384 -9.513,6.128 -6.128,6.128C-2.743,6.128 0,3.384 0,-0.001C0,-3.385 -2.743,-6.129 -6.128,-6.129" style="fill:rgb(255,214,0);fill-rule:nonzero;"/>
        </g>
        <g transform="matrix(0,-1,-1,0,850.269,206.509)">
            <path d="M-6.129,-6.128C-9.514,-6.128 -12.257,-3.384 -12.257,-0C-12.257,3.385 -9.514,6.129 -6.129,6.129C-2.744,6.129 0,3.385 0,-0C0,-3.384 -2.744,-6.128 -6.129,-6.128" style="fill:rgb(255,214,0);fill-rule:nonzero;"/>
        </g>
        <g transform="matrix(0,-1,-1,0,215.358,367.075)">
            <path d="M-6.128,-6.129C-9.513,-6.129 -12.257,-3.385 -12.257,-0.001C-12.257,3.384 -9.513,6.128 -6.128,6.128C-2.743,6.128 0,3.384 0,-0.001C0,-3.385 -2.743,-6.129 -6.128,-6.129" style="fill:rgb(255,214,0);fill-rule:nonzero;"/>
        </g>
        <g transform="matrix(0,-1,-1,0,812.272,128.064)">
            <path d="M-6.129,-6.129C-9.514,-6.129 -12.256,-3.384 -12.256,-0.001C-12.256,3.385 -9.514,6.129 -6.129,6.129C-2.744,6.129 -0.001,3.385 -0.001,-0.001C-0.001,-3.384 -2.744,-6.129 -6.129,-6.129" style="fill:rgb(255,214,0);fill-rule:nonzero;"/>
        </g>
        <g transform="matrix(0,-1,-1,0,804.917,101.1)">
            <path d="M-6.128,-6.129C-9.513,-6.129 -12.257,-3.385 -12.257,-0.001C-12.257,3.384 -9.513,6.128 -6.128,6.128C-2.743,6.128 0,3.384 0,-0.001C0,-3.385 -2.743,-6.129 -6.128,-6.129" style="fill:rgb(255,214,0);fill-rule:nonzero;"/>
        </g>
        <g transform="matrix(0,-1,-1,0,748.535,70.4573)">
            <path d="M-6.128,-6.129C-9.513,-6.129 -12.257,-3.385 -12.257,-0.001C-12.257,3.384 -9.513,6.128 -6.128,6.128C-2.743,6.128 0,3.384 0,-0.001C0,-3.385 -2.743,-6.129 -6.128,-6.129" style="fill:rgb(255,214,0);fill-rule:nonzero;"/>
        </g>
        <g transform="matrix(0,-1,-1,0,710.538,104.777)">
            <path d="M-6.128,-6.129C-9.513,-6.129 -12.257,-3.385 -12.257,-0.001C-12.257,3.384 -9.513,6.128 -6.128,6.128C-2.743,6.128 0,3.384 0,-0.001C0,-3.385 -2.743,-6.129 -6.128,-6.129" style="fill:rgb(255,214,0);fill-rule:nonzero;"/>
        </g>
        <g transform="matrix(0,-1,-1,0,318.316,71.683)">
            <path d="M-6.128,-6.129C-9.513,-6.129 -12.257,-3.385 -12.257,-0.001C-12.257,3.384 -9.513,6.128 -6.128,6.128C-2.743,6.128 0,3.384 0,-0.001C0,-3.385 -2.743,-6.129 -6.128,-6.129" style="fill:rgb(255,214,0);fill-rule:nonzero;"/>
        </g>
        <g transform="matrix(0,-1,-1,0,549.36,299.662)">
            <path d="M-9.192,-9.192C-14.269,-9.192 -18.386,-5.076 -18.386,0.001C-18.386,5.078 -14.269,9.192 -9.192,9.192C-4.115,9.192 0.001,5.078 0.001,0.001C0.001,-5.076 -4.115,-9.192 -9.192,-9.192" style="fill:rgb(255,214,0);fill-rule:nonzero;"/>
        </g>
        <g transform="matrix(0,-1,-1,0,479.496,356.044)">
            <path d="M-9.192,-9.192C-14.269,-9.192 -18.386,-5.076 -18.386,0.001C-18.386,5.078 -14.269,9.192 -9.192,9.192C-4.115,9.192 0.001,5.078 0.001,0.001C0.001,-5.076 -4.115,-9.192 -9.192,-9.192" style="fill:rgb(255,214,0);fill-rule:nonzero;"/>
        </g>
        <g transform="matrix(0,-1,-1,0,807.982,246.957)">
            <path d="M-9.192,-9.192C-14.269,-9.192 -18.386,-5.076 -18.386,0.001C-18.386,5.078 -14.269,9.192 -9.192,9.192C-4.115,9.192 0.001,5.078 0.001,0.001C0.001,-5.076 -4.115,-9.192 -9.192,-9.192" style="fill:rgb(255,214,0);fill-rule:nonzero;"/>
        </g>
        <g transform="matrix(0,-1,-1,0,743.315,276.957)">
            <path d="M-9.192,-9.192C-14.269,-9.192 -18.386,-5.076 -18.386,0.001C-18.386,5.078 -14.269,9.192 -9.192,9.192C-4.115,9.192 0.001,5.078 0.001,0.001C0.001,-5.076 -4.115,-9.192 -9.192,-9.192" style="fill:rgb(255,214,0);fill-rule:nonzero;"/>
        </g>
        <g transform="matrix(0,-1,-1,0,834.947,147.676)">
            <path d="M-9.192,-9.192C-14.269,-9.192 -18.386,-5.076 -18.386,0.001C-18.386,5.078 -14.269,9.192 -9.192,9.192C-4.115,9.192 0.001,5.078 0.001,0.001C0.001,-5.076 -4.115,-9.192 -9.192,-9.192" style="fill:rgb(255,214,0);fill-rule:nonzero;"/>
        </g>
        <g transform="matrix(0,-1,-1,0,808.947,525.009)">
            <path d="M-9.192,-9.192C-14.269,-9.192 -18.386,-5.076 -18.386,0.001C-18.386,5.078 -14.269,9.192 -9.192,9.192C-4.115,9.192 0.001,5.078 0.001,0.001C0.001,-5.076 -4.115,-9.192 -9.192,-9.192" style="fill:rgb(255,214,0);fill-rule:nonzero;"/>
        </g>
        <g transform="matrix(0,-1,-1,0,697.614,511.676)">
            <path d="M-9.192,-9.192C-14.269,-9.192 -18.386,-5.076 -18.386,0.001C-18.386,5.078 -14.269,9.192 -9.192,9.192C-4.115,9.192 0.001,5.078 0.001,0.001C0.001,-5.076 -4.115,-9.192 -9.192,-9.192" style="fill:rgb(255,214,0);fill-rule:nonzero;"/>
        </g>
        <g transform="matrix(0,-1,-1,0,361.829,93.7448)">
            <path d="M-18.999,-18.999C-29.492,-18.999 -37.997,-10.493 -37.997,-0.001C-37.997,10.493 -29.492,18.999 -18.999,18.999C-8.506,18.999 -0.001,10.493 -0.001,-0.001C-0.001,-10.493 -8.506,-18.999 -18.999,-18.999" style="fill:rgb(255,214,0);fill-rule:nonzero;"/>
        </g>
        <g transform="matrix(0,-1,-1,0,366.731,240.828)">
            <path d="M-18.999,-18.999C-29.491,-18.999 -37.997,-10.493 -37.997,-0.001C-37.997,10.493 -29.491,18.999 -18.999,18.999C-8.506,18.999 -0.001,10.493 -0.001,-0.001C-0.001,-10.493 -8.506,-18.999 -18.999,-18.999" style="fill:rgb(255,214,0);fill-rule:nonzero;"/>
        </g>
        <g transform="matrix(0,-1,-1,0,255.193,94.9705)">
            <path d="M-18.999,-18.999C-29.492,-18.999 -37.997,-10.493 -37.997,-0.001C-37.997,10.493 -29.492,18.999 -18.999,18.999C-8.506,18.999 -0.001,10.493 -0.001,-0.001C-0.001,-10.493 -8.506,-18.999 -18.999,-18.999" style="fill:rgb(255,214,0);fill-rule:nonzero;"/>
        </g>
        <g transform="matrix(0,-1,-1,0,345.282,175.866)">
            <path d="M-12.257,-12.257C-19.026,-12.257 -24.514,-6.769 -24.514,-0C-24.514,6.769 -19.026,12.257 -12.257,12.257C-5.488,12.257 -0,6.769 -0,-0C-0,-6.769 -5.488,-12.257 -12.257,-12.257" style="fill:rgb(255,214,0);fill-rule:nonzero;"/>
        </g>
        <g transform="matrix(0,-1,-1,0,265.612,188.123)">
            <path d="M-12.257,-12.257C-19.026,-12.257 -24.514,-6.769 -24.514,-0C-24.514,6.769 -19.026,12.257 -12.257,12.257C-5.488,12.257 -0,6.769 -0,-0C-0,-6.769 -5.488,-12.257 -12.257,-12.257" style="fill:rgb(255,214,0);fill-rule:nonzero;"/>
        </g>
        <g transform="matrix(0,-1,-1,0,484.398,123.161)">
            <path d="M-12.87,-12.87C-19.978,-12.87 -25.74,-7.108 -25.74,0C-25.74,7.108 -19.978,12.87 -12.87,12.87C-5.762,12.87 0,7.108 0,0C0,-7.108 -5.762,-12.87 -12.87,-12.87" style="fill:rgb(255,214,0);fill-rule:nonzero;"/>
        </g>
        <g transform="matrix(0,-1,-1,0,237.065,501.828)">
            <path d="M-12.87,-12.87C-19.978,-12.87 -25.74,-7.108 -25.74,0C-25.74,7.108 -19.978,12.87 -12.87,12.87C-5.762,12.87 0,7.108 0,0C0,-7.108 -5.762,-12.87 -12.87,-12.87" style="fill:rgb(255,214,0);fill-rule:nonzero;"/>
        </g>
        <g transform="matrix(0,-1,-1,0,516.879,217.54)">
            <path d="M-23.288,-23.288C-36.15,-23.288 -46.576,-12.861 -46.576,-0C-46.576,12.862 -36.15,23.288 -23.288,23.288C-10.426,23.288 -0,12.862 -0,-0C-0,-12.861 -10.426,-23.288 -23.288,-23.288" style="fill:rgb(255,214,0);fill-rule:nonzero;"/>
        </g>
        <g transform="matrix(0,-1,-1,0,852.762,651.886)">
            <ellipse cx="-9.502" cy="0" rx="9.502" ry="9.502" style="fill:none;stroke:rgb(0,255,0);stroke-width:2px;"/>
        </g>
    </g>
</svg>
