<?xml version="1.0" encoding="UTF-8" standalone="no"?>
<!DOCTYPE svg PUBLIC "-//W3C//DTD SVG 1.1//EN" "http://www.w3.org/Graphics/SVG/1.1/DTD/svg11.dtd">
<svg width="100%" height="100%" viewBox="0 0 206 209" version="1.1" xmlns="http://www.w3.org/2000/svg" xmlns:xlink="http://www.w3.org/1999/xlink" xml:space="preserve" xmlns:serif="http://www.serif.com/" style="fill-rule:evenodd;clip-rule:evenodd;stroke-linecap:round;stroke-linejoin:round;stroke-miterlimit:10;">
    <g transform="matrix(1,0,0,1,-47.8336,-49.16)">
        <g transform="matrix(1,0,0,1,241.123,192.028)">
            <path d="M0,-54.864L-42.39,-38.165L-42.39,-61.66L0,-80.487L0,-54.864ZM0,14.469L-42.39,8.182L-42.39,-7.274L0,-26.107L0,14.469ZM-113.318,-87.967L-113.318,-103.719L-23.016,-90.336L-49.754,-78.456L-113.318,-87.967ZM-146.484,-92.929L-127.756,-101.492L-127.756,-90.127L-146.484,-92.929ZM9.713,-100.093L9.76,-100.094L-123.112,-120.138C-124.088,-120.285 -125.085,-120.147 -125.984,-119.74L-182.202,-94.274L-182.202,39.746C-182.202,43.266 -181.545,46.732 -176.807,47.426L-55.247,65.228C-53.673,65.421 -52.412,65.292 -51.426,64.897L-51.426,64.913L-51.302,64.859C-51.288,64.853 -51.274,64.847 -51.261,64.841L8.628,38.698C10.318,37.964 11.766,36.672 11.766,33.375L11.766,-96.791C11.766,-98.746 11.13,-99.929 9.713,-100.093" style="fill:rgb(87,87,92);fill-rule:nonzero;"/>
        </g>
        <g transform="matrix(1,0,0,1,247.803,136.338)">
            <path d="M0,75.242C0,76.125 -0.519,76.926 -1.325,77.287L-47.753,98.084C-48.371,98.361 -49.069,97.909 -49.069,97.231L-49.069,48.416L-3.223,28.048C-2.386,27.674 -2.02,26.848 -2.02,25.931L-2.02,2.919C-2.02,1.967 -2.788,1.061 -3.726,0.904L-5.941,0.535L-49.069,17.525L-49.069,-7.155C-49.069,-8.042 -48.547,-8.845 -47.736,-9.204L-1.313,-29.774C-0.695,-30.048 0,-29.596 0,-28.92L0,75.242ZM0.119,-43.774L-55.485,-18.623L-55.485,115.976C-55.485,118.222 -56.281,119.793 -57.94,120.531L1.949,94.389C3.639,93.654 5.087,92.362 5.087,89.065L5.087,-41.101C5.087,-44.086 3.616,-45.289 0.119,-43.774" style="fill:rgb(220,220,220);fill-rule:nonzero;"/>
        </g>
        <g transform="matrix(1,0,0,1,192.317,237.834)">
            <path d="M0,-120.119L0,14.48C0,18.089 -2.05,19.96 -6.441,19.422L-128.001,1.621C-132.739,0.927 -133.396,-2.54 -133.396,-6.06L-133.396,-140.079L0,-120.119Z" style="fill:none;fill-rule:nonzero;stroke:rgb(22,33,45);stroke-width:1px;"/>
        </g>
        <g transform="matrix(1,0,0,1,189.697,91.0495)">
            <path d="M0,165.892L60.054,139.677C61.744,138.943 63.192,137.651 63.192,134.354L63.192,4.188C63.192,1.203 61.722,0 58.224,1.514L2.62,26.665" style="fill:none;fill-rule:nonzero;stroke:rgb(22,33,45);stroke-width:1px;"/>
        </g>
        <g transform="matrix(1,0,0,1,58.9214,71.7436)">
            <path d="M0,26.011L56.218,0.545C57.117,0.138 58.114,0 59.09,0.147L191.962,20.19" style="fill:none;fill-rule:nonzero;stroke:rgb(22,33,45);stroke-width:1px;"/>
        </g>
        <g transform="matrix(-0.988989,-0.147986,-0.147986,0.988989,123.839,69.1584)">
            <path d="M-73.36,33.932L47.037,33.932L3.567,5.614L-117.893,5.598L-73.36,33.932Z" style="fill:none;fill-rule:nonzero;stroke:rgb(22,33,45);stroke-width:1px;"/>
        </g>
        <g transform="matrix(1,0,0,1,198.733,211.806)">
            <path d="M0,-82.623L0,21.764C0,22.441 0.698,22.893 1.316,22.616L47.745,1.819C48.551,1.458 49.069,0.658 49.069,-0.226L49.069,-104.387C49.069,-105.063 48.374,-105.516 47.756,-105.242L1.333,-84.672C0.523,-84.313 0,-83.509 0,-82.623Z" style="fill:none;fill-rule:nonzero;stroke:rgb(22,33,45);stroke-width:1px;"/>
        </g>
        <g transform="matrix(1,0,0,1,198.733,136.874)">
            <path d="M0,47.881L45.847,27.512C46.683,27.139 47.05,26.312 47.05,25.396L47.05,2.383C47.05,1.432 46.282,0.525 45.343,0.369L43.129,0L0,16.99" style="fill:none;fill-rule:nonzero;stroke:rgb(22,33,45);stroke-width:0.5px;"/>
        </g>
        <g transform="matrix(0,-1,-1,0,253.935,124.353)">
            <path d="M-12.812,12.812L12.812,12.812" style="fill:none;fill-rule:nonzero;stroke:rgb(22,33,45);stroke-width:0.5px;"/>
        </g>
        <g transform="matrix(1,0,0,1,198.733,189.971)">
            <path d="M0,-59.603L47.05,-80.499L47.05,20.896L43.96,20.09L42.39,18.189L42.39,-24.05" style="fill:none;fill-rule:nonzero;stroke:rgb(22,33,45);stroke-width:0.5px;"/>
        </g>
        <g transform="matrix(-0.912338,0.409437,0.409437,0.912338,205.118,240.689)">
            <path d="M-49.31,-10.558L2.26,-10.558" style="fill:none;fill-rule:nonzero;stroke:rgb(22,33,45);stroke-width:0.5px;"/>
        </g>
        <g transform="matrix(-0.988945,-0.148283,-0.148283,0.988945,199.439,197.033)">
            <path d="M-42.627,3.178L0.237,3.178" style="fill:none;fill-rule:nonzero;stroke:rgb(22,33,45);stroke-width:0.5px;"/>
        </g>
        <g transform="matrix(1,0,0,1,198.733,206.468)">
            <path d="M0,15.475L26.692,4.95C27.088,4.801 27.029,4.223 26.611,4.158L0,0" style="fill:none;fill-rule:nonzero;stroke:rgb(22,33,45);stroke-width:0.5px;"/>
        </g>
        <g transform="matrix(1,0,0,1,182.87,215.005)">
            <path d="M0,-23.202L0,-25.345L-10.572,-26.893L-10.572,-24.974C-10.572,-24.663 -10.848,-24.425 -11.156,-24.47L-15.428,-25.096C-15.678,-25.132 -15.863,-25.347 -15.863,-25.6L-15.863,-27.668L-98.735,-39.804L-98.735,-38.149C-98.735,-37.782 -99.06,-37.501 -99.423,-37.555L-103.513,-38.154C-103.808,-38.197 -104.026,-38.45 -104.026,-38.748L-104.026,-40.579L-114.323,-42.087L-114.323,-40.314C-114.323,-40.028 -114.577,-39.808 -114.86,-39.849L-116.968,-40.158L-116.968,1.434L-85.721,6.01L-85.721,3.653C-85.721,2.988 -85.131,2.479 -84.473,2.575L-29.979,10.555C-29.444,10.634 -29.048,11.092 -29.048,11.633L-29.048,14.309L2.2,18.885L2.2,-22.402L0.473,-22.654C0.201,-22.694 0,-22.927 0,-23.202Z" style="fill:none;fill-rule:nonzero;stroke:rgb(22,33,45);stroke-width:0.5px;"/>
        </g>
        <g transform="matrix(1,0,0,1,71.7234,211.244)">
            <path d="M0,6.047L0,1.315C0,1.041 -0.201,0.808 -0.472,0.769L-5.822,0" style="fill:none;fill-rule:nonzero;stroke:rgb(22,33,45);stroke-width:0.5px;"/>
        </g>
        <g transform="matrix(-0.98982,-0.142327,-0.142327,0.98982,179.34,231.92)">
            <path d="M-5.264,-3.645L-0.318,-3.645C0.017,-3.644 0.275,-3.347 0.227,-3.016L-0.368,1.12L-5.6,-1.313" style="fill:none;fill-rule:nonzero;stroke:rgb(22,33,45);stroke-width:0.5px;"/>
        </g>
        <g transform="matrix(1,0,0,1,178.737,212.852)">
            <path d="M0,-9.58L0,5.687C0,6.556 -0.771,7.222 -1.63,7.096L-10.635,5.779C-11.569,5.642 -12.261,4.841 -12.261,3.898L-12.261,-15.267C-12.261,-16.136 -11.49,-16.802 -10.631,-16.676L2.657,-14.732C3.109,-14.666 3.443,-14.279 3.443,-13.823L3.443,-10.491C3.443,-10.111 3.106,-9.82 2.731,-9.875L0.643,-10.136C0.304,-10.186 0,-9.923 0,-9.58Z" style="fill:none;fill-rule:nonzero;stroke:rgb(22,33,45);stroke-width:0.5px;"/>
        </g>
        <g transform="matrix(1,0,0,1,117.417,207.842)">
            <path d="M0,-19.081L-22.816,-22.419C-23.727,-22.552 -24.545,-21.845 -24.545,-20.924L-24.545,-1.706C-24.545,-0.851 -23.917,-0.124 -23.071,0L-0.255,3.337C0.657,3.471 1.475,2.764 1.475,1.842L1.475,-17.375C1.475,-18.231 0.847,-18.957 0,-19.081Z" style="fill:none;fill-rule:nonzero;stroke:rgb(22,33,45);stroke-width:0.5px;"/>
        </g>
        <g transform="matrix(1,0,0,1,92.8719,185.775)">
            <path d="M0,20.066L2.736,9.308C3.069,7.997 3.238,6.651 3.238,5.299L3.238,0" style="fill:none;fill-rule:nonzero;stroke:rgb(22,33,45);stroke-width:0.5px;"/>
        </g>
        <g transform="matrix(1,0,0,1,166.476,196.435)">
            <path d="M0,20.066L2.736,9.308C3.069,7.997 3.238,6.651 3.238,5.299L3.238,0" style="fill:none;fill-rule:nonzero;stroke:rgb(22,33,45);stroke-width:0.5px;"/>
        </g>
        <g transform="matrix(0.936976,-0.349394,-0.349394,-0.936976,66.4643,217.387)">
            <path d="M-0.196,1.086L6.018,1.085" style="fill:none;fill-rule:nonzero;stroke:rgb(22,33,45);stroke-width:0.5px;"/>
        </g>
        <g transform="matrix(0,-1,-1,0,181.504,200.504)">
            <path d="M-2.768,2.768L2.768,2.768" style="fill:none;fill-rule:nonzero;stroke:rgb(22,33,45);stroke-width:0.5px;"/>
        </g>
        <g transform="matrix(1,0,0,1,94.6396,75.1)">
            <path d="M0,23.999L21.846,14.011L30.98,5.902L30.98,0" style="fill:none;fill-rule:nonzero;stroke:rgb(22,33,45);stroke-width:0.5px;"/>
        </g>
        <g transform="matrix(0,1,1,0,119.154,96.3239)">
            <path d="M-5.787,-5.787L5.787,-5.787" style="fill:none;fill-rule:nonzero;stroke:rgb(22,33,45);stroke-width:0.5px;"/>
        </g>
        <g transform="matrix(1,0,0,1,127.805,88.3087)">
            <path d="M0,15.753L0,0L90.302,13.384" style="fill:none;fill-rule:nonzero;stroke:rgb(22,33,45);stroke-width:0.5px;"/>
        </g>
        <g transform="matrix(0.912846,-0.408304,-0.408304,-0.912846,92.6737,105.069)">
            <path d="M-1.818,8.517L39.901,8.517" style="fill:none;fill-rule:nonzero;stroke:rgb(22,33,45);stroke-width:0.5px;"/>
        </g>
        <g transform="matrix(0.914301,-0.405035,-0.405035,-0.914301,193.798,200.915)">
            <path d="M-0.061,0.29L1.368,0.29" style="fill:none;fill-rule:nonzero;stroke:rgb(87,87,92);stroke-width:0.5px;"/>
        </g>
        <g transform="matrix(1,0,0,1,244.181,97.6769)">
            <path d="M0,-28.342L0,-28.352C-0.143,-29.165 -1.433,-29.907 -4.322,-30.339L-120.553,-47.71C-124.718,-48.332 -131.78,-48.121 -136.153,-46.011L-185.225,-23.906L-185.225,-0.073L-51.947,19.99L0,-3.51L0,-28.046C0.017,-28.146 0.016,-28.244 0,-28.342" style="fill:rgb(220,220,220);fill-rule:nonzero;"/>
        </g>
        <g transform="matrix(1,0,0,1,58.9566,69.3066)">
            <path d="M0,4.464L49.071,-17.641C53.444,-19.751 60.507,-19.962 64.672,-19.339L180.903,-1.969C186.566,-1.122 186.111,0.916 182.837,2.35L133.278,24.426L0,4.464Z" style="fill:rgb(87,87,92);fill-rule:nonzero;"/>
        </g>
        <g transform="matrix(-0.987437,-0.15801,-0.15801,0.987437,169.399,95.977)">
            <path d="M-6.733,11.829L-0.867,11.829L0.94,0.535L-4.934,0.584L-6.733,11.829Z" style="fill:rgb(87,87,92);fill-rule:nonzero;"/>
        </g>
        <g transform="matrix(-0.41064,-0.911798,-0.911798,0.41064,76.0583,87.6401)">
            <path d="M-1.239,-1.918C-2.108,-1.917 -2.814,-1.309 -2.814,-0.559C-2.814,0.193 -2.108,0.8 -1.239,0.8C-0.369,0.8 0.337,0.192 0.336,-0.558C0.336,-1.309 -0.369,-1.918 -1.239,-1.918" style="fill:rgb(87,87,92);fill-rule:nonzero;"/>
        </g>
        <g transform="matrix(1,0,0,1,192.234,73.7706)">
            <path d="M0,43.896L0,19.962L-133.278,0" style="fill:none;fill-rule:nonzero;stroke:rgb(22,33,45);stroke-width:1px;"/>
        </g>
        <g transform="matrix(1,0,0,1,244.181,97.6852)">
            <path d="M0,-28.36L0,-3.519L-51.947,19.981L-185.225,-0.081L-185.225,-23.915L-136.154,-46.02C-131.781,-48.13 -124.718,-48.341 -120.553,-47.718L-4.322,-30.347C1.341,-29.501 0.886,-27.463 -2.388,-26.028L-51.947,-3.953" style="fill:none;fill-rule:nonzero;stroke:rgb(22,33,45);stroke-width:1px;"/>
        </g>
        <g transform="matrix(-0.987437,-0.15801,-0.15801,0.987437,169.399,95.977)">
            <path d="M-6.733,11.829L-0.867,11.829L0.94,0.535L-4.934,0.584L-6.733,11.829Z" style="fill:none;fill-rule:nonzero;stroke:rgb(22,33,45);stroke-width:0.5px;"/>
        </g>
        <g transform="matrix(-0.988034,-0.154239,-0.154239,0.988034,169.624,103.412)">
            <path d="M-4.213,3.444L-0.219,3.444L0.267,0.327L-3.727,0.327L-4.213,3.444Z" style="fill:none;fill-rule:nonzero;stroke:rgb(22,33,45);stroke-width:0.5px;"/>
        </g>
        <g transform="matrix(-0.988034,-0.154239,-0.154239,0.988034,169.624,97.331)">
            <path d="M-4.213,3.444L-0.219,3.444L0.267,0.327L-3.727,0.327L-4.213,3.444Z" style="fill:none;fill-rule:nonzero;stroke:rgb(22,33,45);stroke-width:0.5px;"/>
        </g>
        <g transform="matrix(1,0,0,1,169.309,100.664)">
            <path d="M0,0.104L1.287,-0.476C2.328,-0.299 2.922,0.215 3.047,0.58" style="fill:none;fill-rule:nonzero;stroke:rgb(22,33,45);stroke-width:0.5px;"/>
        </g>
        <g transform="matrix(0,-1,-1,0,171.776,99.0077)">
            <path d="M-1.18,1.18L1.18,1.18" style="fill:none;fill-rule:nonzero;stroke:rgb(22,33,45);stroke-width:0.5px;"/>
        </g>
        <g transform="matrix(0,-1,-1,0,173.914,99.6849)">
            <path d="M-1.559,1.559L1.559,1.559" style="fill:none;fill-rule:nonzero;stroke:rgb(22,33,45);stroke-width:0.5px;"/>
        </g>
        <g transform="matrix(1,0,0,1,169.309,104.192)">
            <path d="M0,2.657L2.978,1.316L2.978,0" style="fill:none;fill-rule:nonzero;stroke:rgb(22,33,45);stroke-width:0.5px;"/>
        </g>
        <g transform="matrix(0.988966,0.148141,0.148141,-0.988966,172.303,105.437)">
            <path d="M-0.005,-0.073L0.973,-0.073" style="fill:none;fill-rule:nonzero;stroke:rgb(22,33,45);stroke-width:0.5px;"/>
        </g>
        <g transform="matrix(-0.41064,-0.911798,-0.911798,0.41064,76.0583,87.6401)">
            <ellipse cx="-1.239" cy="-0.559" rx="1.575" ry="1.359" style="fill:none;stroke:rgb(22,33,45);stroke-width:0.5px;"/>
        </g>
        <g transform="matrix(0.989015,0.147812,0.147812,-0.989015,78.9522,58.2336)">
            <path d="M0.475,-10.853L119.24,-10.853L146.045,6.388L27.28,6.388L0.475,-10.853Z" style="fill:none;fill-rule:nonzero;stroke:rgb(22,33,45);stroke-width:0.5px;"/>
        </g>
        <g transform="matrix(1,0,0,1,101.128,108.394)">
            <path d="M0,78.115C-0.085,83.77 -3.078,93.822 -7.575,96.701C-9.097,97.677 -10.669,97.783 -12.377,97.025C-17.568,94.725 -16.215,89.24 -12.657,77.052C-10.968,71.261 -8.864,64.056 -7.354,55.673C-2.87,30.788 -15.087,-1.811 -20.913,-11.173L-22.45,-13.914C-22.318,-14.302 -22.34,-14.741 -22.557,-15.127L-24.237,-18.125L-23.79,-18.326C-23.035,-18.666 -22.698,-19.554 -23.039,-20.31C-23.379,-21.065 -24.267,-21.4 -25.022,-21.061L-26.963,-20.187C-27.347,-20.014 -27.64,-19.689 -27.771,-19.289C-27.903,-18.889 -27.86,-18.453 -27.655,-18.086L-25.174,-13.66C-24.957,-13.274 -24.594,-13.027 -24.194,-12.937L-22.634,-10.156C-16.904,-0.947 -4.936,30.973 -9.322,55.317C-10.813,63.597 -12.9,70.747 -14.577,76.491C-17.962,88.087 -20.197,95.748 -13.188,98.853C-12.19,99.296 -11.191,99.515 -10.211,99.515C-8.927,99.515 -7.674,99.137 -6.497,98.386C-0.723,94.689 1.924,83.193 2,78.144" style="fill:rgb(255,214,0);fill-rule:nonzero;stroke:rgb(22,33,45);stroke-width:0.5px;stroke-linecap:butt;stroke-linejoin:miter;"/>
        </g>
        <g transform="matrix(0.989778,0.142616,0.142616,-0.989778,95.2713,183.915)">
            <path d="M-0.115,-1.604L22.379,-1.604" style="fill:none;fill-rule:nonzero;stroke:rgb(22,33,45);stroke-width:0.5px;stroke-linecap:butt;stroke-linejoin:miter;"/>
        </g>
        <g transform="matrix(0,-1,-1,0,77.0764,74.3721)">
            <circle cx="-14.168" cy="0" r="14.168" style="fill:none;stroke:rgb(0,108,250);stroke-width:3px;stroke-linejoin:miter;"/>
        </g>
    </g>
</svg>
