<?xml version="1.0" encoding="UTF-8"?>
<svg id="Caution_0434B" data-name="Caution 0434B" xmlns="http://www.w3.org/2000/svg" viewBox="0 0 31.88976 28.34646">
  <defs>
    <style>
      .cls-1 {
        fill: #ffdf01;
      }
    </style>
  </defs>
  <g>
    <path class="cls-1" d="M13.49001,1.41732L.39734,24.09449c-1.09106,1.88976.27276,4.25197,2.45488,4.25197h26.18534c2.18211,0,3.54593-2.3622,2.45488-4.25197L18.39976,1.41732c-1.09106-1.88976-3.81869-1.88976-4.90975,0Z"/>
    <path d="M14.71744,2.12598L1.62478,24.80315c-.54553.94488.13638,2.12598,1.22744,2.12598h26.18534c1.09106,0,1.77297-1.1811,1.22744-2.12598L17.17232,2.12598c-.54553-.94488-1.90935-.94488-2.45488,0Z"/>
    <polygon class="cls-1" points="15.94488 2.83465 2.85221 25.51181 29.03755 25.51181 15.94488 2.83465"/>
  </g>
  <g>
    <circle cx="15.94488" cy="22.67717" r="1.41732"/>
    <path d="M15.24573,19.18112c.02557.3681.32458.66138.69916.66138.37463,0,.67358-.29327.69916-.66138l.70868-10.5827c.00214-.0318.00952-.06213.00952-.09448,0-.78278-.63458-1.4173-1.41736-1.4173s-1.4173.63452-1.4173,1.4173c0,.03235.00739.06268.00952.09448l.70862,10.5827Z"/>
  </g>
</svg>