<?xml version="1.0" encoding="UTF-8"?>
<svg id="Electrical_Shock_6042_YELLOW" data-name="Electrical Shock 6042 YELLOW" xmlns="http://www.w3.org/2000/svg" viewBox="0 0 31.88976 28.34646">
  <defs>
    <style>
      .cls-1 {
        fill: #ffdf01;
      }
    </style>
  </defs>
  <g>
    <path class="cls-1" d="M13.49001,1.41732L.39734,24.09449c-1.09106,1.88976.27276,4.25197,2.45488,4.25197h26.18534c2.18211,0,3.54593-2.3622,2.45488-4.25197L18.39976,1.41732c-1.09106-1.88976-3.81869-1.88976-4.90975,0Z"/>
    <path d="M14.71744,2.12598L1.62478,24.80315c-.54553.94488.13638,2.12598,1.22744,2.12598h26.18534c1.09106,0,1.77297-1.1811,1.22744-2.12598L17.17232,2.12598c-.54553-.94488-1.90935-.94488-2.45488,0Z"/>
    <polygon class="cls-1" points="15.94488 2.83465 2.85221 25.51181 29.03755 25.51181 15.94488 2.83465"/>
  </g>
  <polygon points="14.29554 8.50685 17.09994 8.50685 14.39061 16.1833 19.76174 13.39013 17.14747 21.293 18.26448 21.293 15.86411 24.0974 14.96099 20.41366 15.91164 20.98404 16.88605 16.70615 12.18036 19.53431 14.29554 8.50685"/>
</svg>