<?xml version="1.0" encoding="UTF-8"?>
<svg id="Explosive_Material_W002" data-name="Explosive Material W002" xmlns="http://www.w3.org/2000/svg" viewBox="0 0 31.88976 28.34646">
  <defs>
    <style>
      .cls-1 {
        fill: #ffdf01;
      }
    </style>
  </defs>
  <g>
    <path class="cls-1" d="M13.49001,1.41732L.39734,24.09449c-1.09106,1.88976.27276,4.25197,2.45488,4.25197h26.18534c2.18211,0,3.54593-2.3622,2.45488-4.25197L18.39976,1.41732c-1.09106-1.88976-3.81869-1.88976-4.90975,0Z"/>
    <path d="M14.71744,2.12598L1.62478,24.80315c-.54553.94488.13638,2.12598,1.22744,2.12598h26.18534c1.09106,0,1.77297-1.1811,1.22744-2.12598L17.17232,2.12598c-.54553-.94488-1.90935-.94488-2.45488,0Z"/>
    <polygon class="cls-1" points="15.94488 2.83465 2.85221 25.51181 29.03755 25.51181 15.94488 2.83465"/>
  </g>
  <g>
    <path d="M13.59608,8.29162c-.06782-.08235-.15686-.2902,0-.48627s.76863-.91765.91765-1.19216.60392-.32941.64314.21961-.0549,1.03529-.32157,1.34902-.27339.58039-.49748.59608-.63193-.35294-.74174-.48627Z"/>
    <path d="M17.40784,11.25632c-.28166.02528-.63627-.32157-.61618-.66667s.10637-.58824.4201-.58824.41569.10196.54118.0549.43922-.41569.65882-.37647.25882.35294.14118.63529-.53333.88627-1.1451.94118Z"/>
    <path d="M16.65229,23.09946c-.03398-.1699.36078-.33268.84706-.32059s.7634.28922.82092.40948-.13072.33464-.28758.33987-.3817-.18824-.46013-.16209-.09935.12549-.33464.12549-.50196.02614-.58562-.39216Z"/>
    <path d="M17.56732,25.72952s-1.46928-.88889-1.54771-.95686-.13899-.29917-.07473-.33259.29433-.10252.60806,0,3.03791,1.3156,3.03791,1.3156l-2.02353-.02614Z"/>
    <path d="M12.46405,23.86809s.3085-.38693.4549-.40261.43399.01569.48627.13595.05752.35556.0732.4549.09412.33987.10458.3817-1.11895-.56993-1.11895-.56993Z"/>
    <path d="M10.60734,24.20273c.02299-.10543.32991-.21438.51292-.17255s.53856.35421.59608.44116.18301.30133,0,.32747-.46536-.13072-.6902-.19346-.51342.03137-.4188-.40261Z"/>
    <path d="M11.99346,23.55959s-.3451-.5281-.35033-.59085-.03137-.31373-.25098-.37647-.48627-.06797-.59608.01569-.19346.4915-.26667.58562.00229.26667.17892.29281.57925.18824.7152.21961.56993-.14641.56993-.14641Z"/>
    <path d="M19.15686,18.35698c-.07843-.09935-.07843-.24052.0366-.32418s.75817-.52288.94118-.57516.69542-.13595.80523-.05229.05229.57516,0,.66405-.64314.33464-.81569.49673-.42876.24575-.58562.16732-.3817-.37647-.3817-.37647Z"/>
    <path d="M16.36993,17.06024c-.08798-.05066-.16209-.25621,0-.37124s.39739-.25621.48627-.20392.02255.48105-.06454.55425-.24918.12026-.42173.02092Z"/>
    <path d="M13.10719,16.64717c-.07553-.02115-.19346-.21438-.12549-.30327s.46536-.47059.52288-.47059.14641.4549.0732.58562-.20915.26144-.47059.18824Z"/>
    <path d="M11.78431,15.0158c-.13595-.02092-.26008-.14118-.24507-.28758s.20324-.42876.29736-.51242.14641-.19869.23007-.18301.18301.23007.19346.42876.02092.52288-.1098.55425-.36601,0-.36601,0Z"/>
    <path d="M11.54379,15.97266c-.12742.02963-.26356-.01046-.27296-.11503s.07426-.2719.14224-.33464.09935-.15163.24052-.14641.17255.25621.14641.35556-.03137.18824-.25621.24052Z"/>
    <path d="M10.35163,16.79358c-.0732.11503-.22484.32941-.4549.35033s-.54923-.08366-.66154-.26667-.2744-.31895-.10708-.43399.37124-.27712.37124-.5281.04706-.43922.18301-.49673.35556.01569.47059.10458.24804.19869.33317.19869-.13448,1.0719-.13448,1.0719Z"/>
    <path d="M10.32549,20.42756c-.11635-.06464-.09975-.3085.05993-.42092s.28517-.15948.35315-.32157.08366-.30098.18301-.50343.08366-.27042.19346-.25474.16705.19346.25869.20915.36353-.00523.42105.01569.16209.05752.13072.13595-.69542.59281-.74248.60229-.15686.0585-.24575,0-.17255-.11601-.20392-.07418.08366.22484.07843.29281-.06275.21438-.17255.29281-.12549.13072-.31373.02614Z"/>
    <path d="M9.04967,19.44033c-.24259-.3709-.37124-.51865-.3451-.71211s-.07843-.3817.12549-.4915.63268-.31373.81046-.20915.03137.4183-.22484.47059c-.13072.0366-.07843.15163,0,.16732s.24544.05752.30311.13595.09427.36601-.04691.44444-.35033.15686-.42353.21961-.13474.07263-.19869-.02514Z"/>
    <path d="M7.92026,18.3622c-.0366.06797-.05229.17255-.19346.19869s-.43399.29281-.43399.36078.08889.2719.29281.36601.39216.09935.42353-.02614-.07595-.36788.1098-.44444-.19869-.4549-.19869-.4549Z"/>
    <path d="M13.02259,20.04503c.14852.00771.28107.23385.27643.32325s-.1288.15563-.27732.14792-.26516-.08643-.26052-.17583.11289-.30305.26141-.29535Z"/>
    <path d="M13.48127,22.13494c.12303.08356.1192.34566.0689.41972s-.1908.06635-.31383-.0172-.18199-.21133-.13169-.28538.2536-.20069.37662-.11713Z"/>
    <path d="M8.43791,19.75305c0,.14872-.21898.29281-.3085.29281s-.16209-.12056-.16209-.26928.07257-.26928.16209-.26928.3085.09703.3085.24575Z"/>
    <path d="M15.34079,22.764c.03844-.13918-.12186-.29947-.26104-.33791s-.36754-.02078-.40598.1184.14343.27016.28261.30861.34597.05008.38441-.0891Z"/>
    <path d="M7.89583,20.04064c0-.14439-.1972-.25621-.34158-.25621s-.3598.07783-.3598.22222.21019.22222.35458.22222.34681-.04385.34681-.18824Z"/>
    <path d="M9.86013,21.65387c-.11682-.10404.33464-.31127.42876-.40016s.02614-.24052.23007-.26144.65147.33199.75188.37514.13178.11113.07426.18956-.07843.25098-.4549.28758-.33505.21961-.50478.22484-.26385-.18268-.52529-.41552Z"/>
    <path d="M8.97647,20.80926c0-.3451.33987-.33464.47582-.33464s.37124.21961.54902.28235.13137.2924.02647.32398-.4134.13051-.58595,0-.43399.02635-.46536-.27169Z"/>
    <g>
      <polygon points="13.05556 17.61319 20.05556 8.97332 20.52778 9.68165 13.05556 17.61319"/>
      <polygon points="8.59722 19.88998 7.61111 16.01498 7.19444 17.09832 8.59722 19.88998"/>
      <polygon points="8.66667 18.77887 8.48611 14.75109 8.05556 15.6695 8.66667 18.77887"/>
      <polygon points="10.02778 19.18165 10.70833 10.87609 12.51389 7.90387 10.02778 19.18165"/>
      <polygon points="10.48611 19.44033 17.29167 4.29276 17.88889 5.09832 15.68056 9.43165 18.18056 5.51498 18.61111 6.47332 10.48611 19.44033"/>
      <polygon points="10.70833 20.57054 21.42708 10.76845 21.61458 11.28929 18.52083 14.03929 21.82292 11.50804 21.98958 12.12262 10.70833 20.57054"/>
      <polygon points="16.53125 25.76845 11.22917 23.06012 10.97917 23.31012 15.85417 26.20595 16.53125 25.76845"/>
      <polygon points="11.94792 22.64345 26.39583 25.71637 24.45833 25.71637 20.30208 24.75804 23.69792 26.09137 21.55208 25.84137 11.94792 22.64345"/>
      <polygon points="11.84375 21.78929 28.04167 22.52887 28.04167 22.90387 25.13542 22.96637 28.44792 23.4247 28.28125 23.76845 11.84375 21.78929"/>
      <polygon points="15.14583 21.39345 27.22917 21.08095 27.32292 21.65387 15.14583 21.39345"/>
      <polygon points="12.69792 20.93512 25.58333 17.94554 26.22917 19.38304 12.69792 20.93512"/>
      <polygon points="10.38542 21.52887 22.70833 13.64345 22.9375 14.17323 20.79167 15.57054 23.22917 14.4247 23.57292 14.9872 10.56109 21.58293 10.38542 21.52887"/>
      <path d="M9.99346,23.13868c-.13593-.19873-.69542.13856-.67187-.45756.00643-.16268.53331-.20388.48102-.48884-.02876-.24837-.59607-.09673-.66925-.20134-.07324-.10455-.24054-.30322-.55426-.28235-.31372.02094-.62225-.07318-.31897-.37122s.24746-.65416.15857-.78487c-.06337-.09318-.31756-.27849-.62195-.15056-.74707.32965-1.26996,1.0744-1.26996,1.94342,0,1.17413.95184,2.12598,2.12598,2.12598.61005,0,1.15619-.26038,1.54388-.67188.10614-.12549-.06983-.46596-.20319-.66079Z"/>
    </g>
  </g>
</svg>