<?xml version="1.0" encoding="UTF-8"?>
<svg id="Warning_Hot_Surface_5041" data-name="Warning, Hot Surface 5041" xmlns="http://www.w3.org/2000/svg" viewBox="0 0 31.88976 28.34646">
  <defs>
    <style>
      .cls-1 {
        fill: #ffdf01;
      }
    </style>
  </defs>
  <g>
    <path class="cls-1" d="M13.49001,1.41732L.39734,24.09449c-1.09106,1.88976.27276,4.25197,2.45488,4.25197h26.18534c2.18211,0,3.54593-2.3622,2.45488-4.25197L18.39976,1.41732c-1.09106-1.88976-3.81869-1.88976-4.90975,0Z"/>
    <path d="M14.71744,2.12598L1.62478,24.80315c-.54553.94488.13638,2.12598,1.22744,2.12598h26.18534c1.09106,0,1.77297-1.1811,1.22744-2.12598L17.17232,2.12598c-.54553-.94488-1.90935-.94488-2.45488,0Z"/>
    <polygon class="cls-1" points="15.94488 2.83465 2.85221 25.51181 29.03755 25.51181 15.94488 2.83465"/>
  </g>
  <g>
    <rect x="10.27559" y="22.67717" width="11.33858" height="1.41732"/>
    <path d="M19.25488,21.49774l-.95117-.47559c.94434-1.88818.50684-2.76318,0-3.77637-.55371-1.10791-1.18164-2.36377,0-4.72754l.95117.47559c-.94434,1.88818-.50684,2.76318,0,3.77637.55371,1.10791,1.18164,2.36377,0,4.72754Z"/>
    <path d="M13.58594,21.49774l-.95117-.47559c.94434-1.88818.50684-2.76318,0-3.77637-.55371-1.10791-1.18164-2.36377,0-4.72754l.95117.47559c-.94434,1.88818-.50684,2.76318,0,3.77637.55371,1.10791,1.18164,2.36377,0,4.72754Z"/>
    <path d="M16.42041,21.49774l-.95117-.47559c.94434-1.88818.50684-2.76318,0-3.77637-.55371-1.10791-1.18164-2.36377,0-4.72754l.95117.47559c-.94434,1.88818-.50684,2.76318,0,3.77637.55371,1.10791,1.18164,2.36377,0,4.72754Z"/>
  </g>
</svg>