<?xml version="1.0" encoding="UTF-8"?>
<svg id="Pinch_Point" data-name="Pinch Point" xmlns="http://www.w3.org/2000/svg" viewBox="0 0 31.88976 28.34646">
  <defs>
    <style>
      .cls-1 {
        fill: #ffdf01;
      }
    </style>
  </defs>
  <g>
    <path class="cls-1" d="M13.49001,1.41732L.39734,24.09449c-1.09106,1.88976.27276,4.25197,2.45488,4.25197h26.18534c2.18211,0,3.54593-2.3622,2.45488-4.25197L18.39976,1.41732c-1.09106-1.88976-3.81869-1.88976-4.90975,0Z"/>
    <path d="M14.71744,2.12598L1.62478,24.80315c-.54553.94488.13638,2.12598,1.22744,2.12598h26.18534c1.09106,0,1.77297-1.1811,1.22744-2.12598L17.17232,2.12598c-.54553-.94488-1.90935-.94488-2.45488,0Z"/>
    <polygon class="cls-1" points="15.94488 2.83465 2.85221 25.51181 29.03755 25.51181 15.94488 2.83465"/>
  </g>
  <g>
    <path d="M17.61658,16.08017c.019-.12029.02912-.24354.02912-.36918,0-.07673-.00396-.15251-.01115-.22735l-.59475-.15352c-.03781-.17377-.10089-.33802-.18529-.48882l.3435-.50894c-.11747-.16169-.25467-.30812-.40871-.435l-.52949.31222c-.1457-.09361-.30582-.16652-.47641-.21477l-.11708-.60326c-.12029-.019-.24354-.02912-.36917-.02912-.07673,0-.15252.00396-.22736.01115l-.15352.59475c-.17377.03781-.33801.10089-.48881.18529l-.50894-.34349c-.1617.11747-.30812.25467-.435.40871l.31222.52948c-.09361.14569-.16652.30582-.21477.47641l-.60326.11708c-.019.12029-.02912.24354-.02912.36917,0,.07673.00396.15252.01115.22736l.59475.15352c.03781.17377.10089.33802.18529.48882l-.34349.50893c.11748.16169.25467.30812.40871.435l.52948-.31222c.14569.09361.30582.16652.47642.21477l.11708.60326c.12029.019.24354.02912.36917.02912.07673,0,.15252-.00396.22736-.01115l.15352-.59475c.17377-.03781.33802-.10089.48882-.18529l.50894.3435c.16169-.11748.30812-.25466.435-.40871l-.31222-.52949c.09361-.14569.16652-.30581.21477-.4764l.60325-.11708ZM15.29715,16.78666c-.59408,0-1.07567-.4816-1.07567-1.07568s.48159-1.07567,1.07567-1.07567,1.07567.4816,1.07567,1.07567-.4816,1.07568-1.07567,1.07568Z"/>
    <path d="M22.30197,20.90764c.01741-.13728.0274-.27686.0274-.41887,0-.11432-.00585-.22727-.0172-.33859l-.52887-.10278c-.0195-.1226-.04718-.24244-.08213-.35917l.41613-.36385c-.08569-.22702-.19576-.44194-.32692-.64191l-.5056.16674c-.08826-.12115-.18576-.23509-.29198-.34036l.21852-.49416c-.18146-.16006-.3803-.30078-.59391-.41822l-.35164.39301c-.14268-.07065-.29228-.12925-.4475-.1749l-.04696-.54c-.22172-.0509-.45184-.07949-.68813-.0832l-.18413.51294c-.15753.00732-.31151.02803-.46115.06044l-.29035-.4542c-.22736.06304-.44481.14962-.6496.2573l.10377.52715c-.14013.08383-.27197.17987-.39475.2862l-.47156-.2606c-.16734.16222-.31787.3416-.44796.53599l.33908.42121c-.07575.12878-.14131.26416-.19587.40509l-.54073-.00386c-.07226.2249-.12095.46025-.14336.70332l.49832.22511c-.00078.02708-.00206.05404-.00206.08131,0,.11353.00758.22524.02077.33522l-.47977.24521c.04268.2403.11067.47182.20237.69112l.54468-.03727c.06017.12162.12892.23816.20551.34894l-.32524.4209c.15197.19833.32547.37926.51781.53843l.46197-.28848c.09864.07188.20181.13789.30965.19654l-.08901.52784c.22593.10784.46619.19027.71695.24465l.28318-.46673c.10707.01614.2163.02549.327.02908l.17798.5111c.26234-.00674.51715-.04351.76081-.10806l.02903-.54192c.10293-.03405.20322-.07379.30045-.11912l.38905.3767c.22745-.12286.43853-.27193.62987-.4427l-.23368-.48099c.08497-.08417.16416-.17405.2378-.26852l.5148.16217c.14595-.21097.26764-.43979.36174-.6825l-.42569-.32652c.03511-.10761.06392-.21799.08585-.33091l.53525-.11533ZM19.03063,22.57289c-1.15102,0-2.08411-.93309-2.08411-2.08412s.93309-2.08411,2.08411-2.08411,2.08411.93309,2.08411,2.08411-.93309,2.08412-2.08411,2.08412Z"/>
    <path d="M20.14664,16.38553l.45044-.38321,1.4656.12101c-.18152.71263-.24875.75297-1.48577.77986l-.10084.1748-1.08946-.20556.34308-.58042c.16148.04646.28249.08007.41695.09352Z"/>
    <path d="M7.25527,20.72014c1.20692-.51555,2.94831-1.28663,3.7926-1.78982.05261-.03136.11764-.03067.17008.00097.72022.43437,1.9895,1.35302,2.80334,2.09721.13222.1209.24097.26444.32014.42517.24853.50461.75371,1.56718,1.16637,2.48174.55801-.20169.66557-.94122.41682-1.553-.22519-.55384-.522-1.38317-.71587-2.08896-.04112-.1497-.00831-.30912.08711-.43157.12901-.16556.29701-.3362.45767-.48578l.01904-.05926.04518.00032c.24835-.22562.46318-.39036.46318-.39036l.01046-.008-.12963-.16103-.07436-.09237.06595-.09855c.13494-.20164.29299-.39076.46975-.5621l.08578-.08316.10457.05779.37499.20723c.0754-.06048.15346-.11713.2335-.16944l-.08232-.41816-.02323-.118.10645-.05597c.2162-.11369.44552-.20452.68158-.26997l.01122-.00311.94512-1.59878-.00326-.28366c.84037-1.00844.96811-1.70763.2622-2.14462l-1.52246,2.37212c.00616.07234.0098.14426.0098.21397,0,.13101-.01046.26369-.0311.39435l-.01764.11168-.11099.02154-.50864.09872c-.03979.11707-.0907.22999-.15215.33748l.26323.44642.05739.09732-.07184.08721c-.13479.16364-.29113.31055-.4647.43666l-.09143.06643-.09367-.06322-.429-.28954c-.11106.05479-.22697.09873-.34636.1313l-.12942.50138-.02825.10947-.11254.01082c-.0821.00789-.16379.01189-.24279.01189-.13103,0-.2637-.01046-.39434-.03109l-.11169-.01764-.02154-.111-.09872-.50865c-.11707-.03979-.23002-.09071-.3375-.15215l-.44641.26323-.09733.05739-.08721-.07184c-.16365-.13479-.31055-.29114-.43666-.4647l-.06643-.09143.06322-.09367.15557-.23049-.7708-.40393c-.33804-.17714-.73245-.21331-1.09706-.10059l-2.09664.64815-2.19834,3.80766Z"/>
    <path d="M20.79205,13.85769c-.10757.51095-.24875.65885-.88743.86054l-.1479.63868h-.39256l-1.09253,1.84814.01188.01859.23115.36159c.08901-.01576.1787-.02746.26828-.035l.14839-.41338.03899-.10863.1154.00181c.00661.0001.01321.00066.01982.00083l.54851-.92787.06051.01812c.14849.04462.36064.05622.42062.0587.11815-.26419.28511-.72771.33417-.86998,1.03534-.51094,1.00844-1.21685.3227-1.45216Z"/>
  </g>
</svg>