<svg width="2376" height="557" viewBox="0 0 2376 557" fill="none" xmlns="http://www.w3.org/2000/svg">
<path d="M691.028 348.316C696.36 354.471 703.326 357.344 720.968 357.344C739.837 357.344 746.814 354.471 751.74 348.316C759.936 338.882 764.038 312.223 764.038 282.274C764.038 251.916 759.936 229.359 751.74 219.51C746.814 213.355 739.837 210.898 721.79 210.898C703.326 210.898 696.36 213.355 691.028 219.51C682.821 229.359 678.312 251.916 678.312 282.274C678.312 312.223 682.821 338.882 691.028 348.316ZM792.344 376.215C777.169 391.795 755.426 398.364 720.968 398.364C686.509 398.364 666.002 391.795 651.236 376.215C635.24 358.98 623.753 323.708 623.753 282.679C623.753 241.252 634.825 208.844 651.236 192.027C666.002 176.031 688.153 170.699 721.79 170.699C756.656 170.699 777.169 176.438 792.344 192.027C807.933 209.26 818.597 241.252 818.597 282.679C818.597 323.708 807.933 358.98 792.344 376.215Z" fill="black"/>
<path d="M897.444 350.775C897.444 352.827 898.266 354.471 900.724 354.878C908.108 356.522 917.136 356.522 924.52 356.522C961.437 356.522 974.152 342.984 974.152 281.865C974.152 223.205 963.488 210.49 923.697 210.49C913.44 210.49 906.878 211.312 900.724 212.542C897.85 212.948 897.444 215.406 897.444 217.458V350.775ZM1029.94 281.451C1029.94 358.98 1004.09 394.262 928.206 394.262C919.188 394.262 905.649 393.44 900.724 393.44C898.266 393.44 897.444 394.262 897.444 396.72V463.994C897.444 466.452 895.8 468.096 893.341 468.096H847.812C845.344 468.096 843.709 466.452 843.709 463.994V183.822C843.709 182.184 844.53 180.54 848.218 179.311C863.808 173.979 898.266 170.699 924.104 170.699C1009.02 170.699 1029.94 201.462 1029.94 281.451Z" fill="black"/>
<path d="M1108.32 267.507H1184.2C1187.48 267.507 1188.71 266.683 1188.71 255.614C1188.71 224.435 1180.92 208.023 1149.75 208.023C1113.24 208.023 1105.85 232.64 1105.85 264.632C1105.85 266.278 1106.67 267.507 1108.32 267.507ZM1157.95 398.364C1077.96 398.364 1052.53 354.471 1052.53 285.147C1052.53 211.719 1083.7 170.699 1150.57 170.699C1216.2 170.699 1235.89 206.387 1235.89 265.86C1235.89 293.759 1234.66 300.735 1224.82 300.735H1109.14C1107.09 300.735 1106.67 301.55 1106.67 303.194C1106.67 347.087 1127.6 358.159 1165.75 358.159C1186.66 358.159 1210.86 352.827 1223.59 348.724C1225.64 348.724 1227.28 349.139 1228.1 350.775L1230.97 382.776C1230.97 384.411 1230.15 385.65 1228.1 386.463C1212.1 393.846 1186.66 398.364 1157.95 398.364Z" fill="black"/>
<path d="M1392.6 394.262C1390.13 394.262 1388.49 392.618 1388.49 390.159V251.51C1388.49 220.332 1381.52 212.126 1348.7 212.126C1336.4 212.126 1326.54 212.948 1319.58 214.592C1316.7 215.406 1315.48 216.23 1315.48 218.695V390.159C1315.48 392.618 1313.84 394.262 1311.37 394.262H1265.84C1263.38 394.262 1261.74 392.618 1261.74 390.159V183.414C1261.74 180.955 1263.38 179.719 1265.84 179.311C1288 175.623 1324.92 170.699 1350.74 170.699C1422.94 170.699 1442.24 189.154 1442.24 249.043V390.159C1442.24 392.618 1440.58 394.262 1438.13 394.262H1392.6Z" fill="black"/>
<path d="M1544.76 398.364C1511.94 398.364 1495.12 383.182 1495.12 353.242V218.695C1495.12 217.051 1494.3 216.23 1492.66 216.23H1464.36C1461.9 216.23 1460.25 214.592 1460.25 212.126V178.904C1460.25 176.438 1461.9 174.802 1464.36 174.802H1492.66C1494.3 174.802 1495.12 173.979 1495.12 172.335V121.066C1495.12 118.599 1496.77 116.963 1499.22 116.963H1544.76C1547.22 116.963 1548.86 118.599 1548.86 121.066V172.335C1548.86 173.979 1549.68 174.802 1551.32 174.802H1585.78C1588.24 174.802 1589.89 176.438 1589.89 178.904V212.126C1589.89 214.592 1588.24 216.23 1585.78 216.23H1551.32C1549.68 216.23 1548.86 217.051 1548.86 218.695V340.527C1548.86 354.056 1553.37 357.751 1566.49 357.751H1579.22C1581.26 357.751 1583.32 358.574 1583.32 361.854L1582.09 389.338C1582.09 391.795 1580.04 394.262 1577.98 394.67C1568.96 396.72 1556.25 398.364 1544.76 398.364Z" fill="black"/>
<path d="M1695.58 212.948C1689.02 212.948 1678.36 213.771 1671.8 216.229C1669.33 217.457 1668.92 218.695 1668.92 220.747V390.159C1668.92 393.032 1667.28 394.669 1664.41 394.261H1619.29C1616.82 394.261 1615.18 392.617 1615.18 390.159V183.413C1615.18 180.955 1616.82 179.719 1619.29 179.311C1639.8 174.801 1670.16 170.699 1696.41 170.699C1709.94 170.699 1718.56 171.105 1729.64 172.335C1731.69 172.749 1732.09 173.572 1732.09 175.623L1730.04 213.355C1730.04 214.592 1729.22 215.821 1727.17 215.405C1717.33 213.771 1707.06 212.948 1695.58 212.948Z" fill="black"/>
<path d="M1806.44 348.316C1811.77 354.471 1818.74 357.344 1836.38 357.344C1855.25 357.344 1862.22 354.471 1867.16 348.316C1875.36 338.882 1879.45 312.223 1879.45 282.274C1879.45 251.916 1875.36 229.359 1867.16 219.51C1862.22 213.355 1855.25 210.898 1837.21 210.898C1818.74 210.898 1811.77 213.355 1806.44 219.51C1798.24 229.359 1793.73 251.916 1793.73 282.274C1793.73 312.223 1798.24 338.882 1806.44 348.316ZM1907.76 376.215C1892.58 391.795 1870.84 398.364 1836.38 398.364C1801.93 398.364 1781.42 391.795 1766.65 376.215C1750.65 358.98 1739.17 323.708 1739.17 282.679C1739.17 241.252 1750.24 208.844 1766.65 192.027C1781.42 176.031 1803.57 170.699 1837.21 170.699C1872.08 170.699 1892.58 176.438 1907.76 192.027C1923.34 209.26 1934.01 241.252 1934.01 282.679C1934.01 323.708 1923.34 358.98 1907.76 376.215Z" fill="black"/>
<path d="M2089.46 394.26C2087 394.26 2085.35 392.616 2085.35 390.158V251.508C2085.35 220.33 2078.4 212.123 2045.58 212.123C2033.27 212.123 2023.42 212.946 2016.45 214.59C2013.58 215.403 2012.34 216.228 2012.34 218.693V390.158C2012.34 392.616 2010.71 394.26 2008.25 394.26H1962.71C1960.24 394.26 1958.61 392.616 1958.61 390.158V183.412C1958.61 180.953 1960.24 179.717 1962.71 179.309C1984.86 175.62 2021.78 170.697 2047.63 170.697C2119.82 170.697 2139.1 189.151 2139.1 249.041V390.158C2139.1 392.616 2137.47 394.26 2135.01 394.26H2089.46Z" fill="black"/>
<path d="M2166.54 390.566L2168.61 354.877C2168.61 353.649 2170.25 352.827 2171.88 353.241C2185.43 356.107 2205.1 357.75 2218.65 357.75C2247.78 357.75 2252.3 354.877 2252.3 334.373C2252.3 322.064 2245.3 315.908 2212.91 293.759C2179.69 271.61 2168.2 260.122 2168.2 232.64C2168.2 186.287 2192.8 170.699 2246.13 170.699C2265.82 170.699 2288.39 172.749 2301.1 175.208C2302.33 175.623 2303.15 176.031 2303.15 178.081L2300.69 214.592C2300.69 215.405 2299.47 216.644 2297.81 216.23C2285.52 214.177 2267.89 212.125 2255.98 212.125C2230.12 212.125 2221.52 213.771 2221.52 231.411C2221.52 245.762 2228.5 250.281 2260.89 270.38C2296.99 293.352 2306.84 308.526 2306.84 333.957C2306.84 386.463 2278.12 398.364 2227.26 398.364C2204.71 398.364 2182.14 396.314 2169.01 393.846C2167.79 393.44 2166.54 392.618 2166.54 390.566Z" fill="black"/>
<path d="M329.18 0.000244141L318.437 68.3509C417.022 86.2389 492.038 172.655 492.038 276.318C492.038 392.9 397.194 487.746 280.613 487.746C164.033 487.746 69.1887 392.9 69.1887 276.318C69.1887 172.655 144.205 86.2389 242.79 68.3509L232.048 0.000244141C100.394 23.0803 0 138.158 0 276.318C0 431.052 125.884 556.934 280.613 556.934C435.344 556.934 561.226 431.052 561.226 276.318C561.226 138.158 460.833 23.0803 329.18 0.000244141Z" fill="black"/>
<path d="M362.345 235.859C324.082 177.687 280.633 116.967 280.618 116.952L280.613 116.968L280.609 116.952C280.594 116.967 237.145 177.687 198.882 235.859C165.878 286.035 156.269 348.008 196.976 392.144C219.473 416.535 249.852 428.432 280.176 428.494C280.216 428.495 280.253 428.512 280.293 428.512V428.53C280.354 428.53 280.414 428.52 280.476 428.52C280.506 428.52 280.537 428.523 280.566 428.524V428.53C280.582 428.53 280.598 428.528 280.613 428.527C280.629 428.528 280.645 428.53 280.66 428.53V428.524C280.69 428.523 280.721 428.52 280.752 428.52C280.813 428.52 280.873 428.53 280.934 428.53V428.512C280.974 428.512 281.01 428.495 281.05 428.494C311.376 428.432 341.754 416.535 364.25 392.144C404.958 348.008 395.349 286.035 362.345 235.859Z" fill="black"/>
<path d="M329.313 255.003C319.58 254.147 309.781 259.907 302.358 266.708C273.89 292.786 240.976 323.351 199.35 321.119C199.302 338.899 204.948 356.32 217.676 371.062C232.529 388.264 252.797 397.403 273.746 398.91C275.41 399.127 277.282 399.295 279.553 399.37C324.918 400.856 362.9 365.286 364.388 319.922C365.038 300.051 355.949 262.314 333.368 255.76C332.022 255.37 330.668 255.122 329.313 255.003Z" fill="url(#paint0_linear_672_35)"/>
<path d="M329.277 252.748C319.43 251.884 309.518 257.703 302.009 264.573C273.209 290.921 239.911 321.808 197.797 319.552C197.749 337.516 203.458 355.122 216.339 370.013C231.367 387.396 251.869 396.628 273.065 398.154C274.747 398.372 276.643 398.543 278.939 398.618C324.834 400.122 363.258 364.178 364.764 318.341C365.421 298.266 356.225 260.136 333.384 253.511C332.022 253.116 330.655 252.866 329.283 252.748H329.277Z" fill="url(#paint1_linear_672_35)"/>
<path d="M2346.14 148.9V128.605H2356.42C2357.25 128.605 2358.15 128.843 2359.12 129.32C2360.09 129.778 2360.92 130.493 2361.59 131.465C2362.29 132.418 2362.64 133.628 2362.64 135.095C2362.64 136.58 2362.28 137.845 2361.57 138.89C2360.85 139.917 2359.98 140.696 2358.95 141.227C2357.95 141.759 2356.99 142.025 2356.09 142.025H2348.67V138.725H2354.72C2355.32 138.725 2355.97 138.422 2356.67 137.817C2357.39 137.212 2357.74 136.305 2357.74 135.095C2357.74 133.848 2357.39 133.005 2356.67 132.565C2355.97 132.125 2355.36 131.905 2354.83 131.905H2350.59V148.9H2346.14ZM2358.4 139.33L2363.46 148.9H2358.57L2353.62 139.33H2358.4ZM2353.84 161C2350.8 161 2347.94 160.432 2345.29 159.295C2342.63 158.158 2340.29 156.582 2338.27 154.565C2336.26 152.548 2334.68 150.211 2333.54 147.553C2332.41 144.894 2331.84 142.043 2331.84 139C2331.84 135.957 2332.41 133.106 2333.54 130.447C2334.68 127.789 2336.26 125.452 2338.27 123.435C2340.29 121.418 2342.63 119.842 2345.29 118.705C2347.94 117.568 2350.8 117 2353.84 117C2356.88 117 2359.73 117.568 2362.39 118.705C2365.05 119.842 2367.39 121.418 2369.4 123.435C2371.42 125.452 2373 127.789 2374.13 130.447C2375.27 133.106 2375.84 135.957 2375.84 139C2375.84 142.043 2375.27 144.894 2374.13 147.553C2373 150.211 2371.42 152.548 2369.4 154.565C2367.39 156.582 2365.05 158.158 2362.39 159.295C2359.73 160.432 2356.88 161 2353.84 161ZM2353.84 155.72C2356.92 155.72 2359.72 154.968 2362.25 153.465C2364.78 151.961 2366.8 149.945 2368.3 147.415C2369.81 144.885 2370.56 142.08 2370.56 139C2370.56 135.92 2369.81 133.115 2368.3 130.585C2366.8 128.055 2364.78 126.038 2362.25 124.535C2359.72 123.032 2356.92 122.28 2353.84 122.28C2350.76 122.28 2347.95 123.032 2345.42 124.535C2342.89 126.038 2340.88 128.055 2339.37 130.585C2337.87 133.115 2337.12 135.92 2337.12 139C2337.12 142.08 2337.87 144.885 2339.37 147.415C2340.88 149.945 2342.89 151.961 2345.42 153.465C2347.95 154.968 2350.76 155.72 2353.84 155.72Z" fill="black"/>
<defs>
<linearGradient id="paint0_linear_672_35" x1="199.265" y1="323.722" x2="407.518" y2="330.549" gradientUnits="userSpaceOnUse">
<stop stop-color="#006CFA"/>
<stop offset="1" stop-color="#00BDFF"/>
</linearGradient>
<linearGradient id="paint1_linear_672_35" x1="197.701" y1="322.181" x2="408.388" y2="329.105" gradientUnits="userSpaceOnUse">
<stop stop-color="#006FFF"/>
<stop offset="0.16" stop-color="#037FFA"/>
<stop offset="0.48" stop-color="#0BABEF"/>
<stop offset="0.92" stop-color="#19F1DD"/>
<stop offset="1" stop-color="#1CFFDA"/>
</linearGradient>
</defs>
</svg>
