<?xml version="1.0" encoding="UTF-8" standalone="no"?>
<!DOCTYPE svg PUBLIC "-//W3C//DTD SVG 1.1//EN" "http://www.w3.org/Graphics/SVG/1.1/DTD/svg11.dtd">
<svg width="100%" height="100%" viewBox="0 0 244 146" version="1.1" xmlns="http://www.w3.org/2000/svg" xmlns:xlink="http://www.w3.org/1999/xlink" xml:space="preserve" xmlns:serif="http://www.serif.com/" style="fill-rule:evenodd;clip-rule:evenodd;stroke-linecap:round;stroke-linejoin:round;stroke-miterlimit:10;">
    <g transform="matrix(1,0,0,1,-20.115,-69.4379)">
        <g transform="matrix(1,0,0,1,260.844,206.372)">
            <path d="M0,-129.778C-2.506,-133.309 -5.491,-134.811 -9.758,-135.942C-15.636,-137.499 -36.21,-135.687 -53.093,-125.763C-82.356,-108.562 -90.01,-94.572 -104.545,-84.62C-119.08,-74.668 -127.35,-77.008 -139.861,-69.913L-139.811,-69.827C-141.969,-68.327 -143.28,-65.811 -143.683,-62.778L-146.573,-61.134C-150.014,-59.182 -150.933,-54.053 -149.105,-48.826L-149.037,-48.7L-239.387,2.408L-240.229,4.811L-238.887,6.864L-236.832,7.721L-146.301,-43.651L-146.241,-43.54C-142.663,-38.884 -137.51,-36.787 -133.918,-38.824L-131.015,-40.476L-131.015,-40.475C-127.96,-39.167 -124.874,-39.073 -122.362,-40.499C-109.838,-47.572 -107.586,-55.866 -91.571,-63.203C-75.556,-70.54 -59.622,-69.899 -29.811,-86.131C-12.611,-95.495 -0.576,-112.233 1.226,-118.041C2.244,-121.322 2.506,-126.247 0,-129.778" style="fill:white;fill-rule:nonzero;"/>
        </g>
        <g transform="matrix(1,0,0,1,21.4859,214.032)">
            <path d="M0,-5.367L2.517,-4.608L3.719,-2.074L2.631,0" style="fill:none;fill-rule:nonzero;stroke:rgb(22,33,45);stroke-width:0.5px;"/>
        </g>
        <g transform="matrix(0.871128,-0.491056,-0.491056,-0.871128,43.8029,229.846)">
            <path d="M-7.22,27.512L104.832,27.512" style="fill:none;fill-rule:nonzero;stroke:rgb(22,33,45);stroke-width:0.5px;"/>
        </g>
        <g transform="matrix(0.871128,-0.491056,-0.491056,-0.871128,45.061,232.184)">
            <path d="M-7.22,27.512L104.832,27.512" style="fill:none;fill-rule:nonzero;stroke:rgb(22,33,45);stroke-width:0.5px;"/>
        </g>
        <g transform="matrix(1,0,0,1,181.556,129.899)">
            <path d="M0,-30.631C6.187,-34.141 15.539,-29.343 20.886,-19.915C26.234,-10.488 25.554,0 19.366,3.51" style="fill:none;fill-rule:nonzero;stroke:rgb(22,33,45);stroke-width:0.5px;"/>
        </g>
        <g transform="matrix(1,0,0,1,243.235,94.2636)">
            <path d="M0,-24.258C4.557,-24.604 10.067,-20.98 13.491,-14.944C16.565,-9.524 17.258,-3.499 15.429,0.346" style="fill:none;fill-rule:nonzero;stroke:rgb(22,33,45);stroke-width:0.5px;"/>
        </g>
        <g transform="matrix(0.313293,0.949657,0.949657,-0.313293,116.676,148.113)">
            <path d="M7.411,-7.644C1.875,-7.743 -2.708,-5.263 -3.484,-1.384C-4.412,3.259 0.466,8.149 7.411,9.538C14.357,10.926 20.74,8.287 21.668,3.644C22.477,-0.405 18.871,-4.641 13.329,-6.581" style="fill:none;fill-rule:nonzero;stroke:rgb(22,33,45);stroke-width:1px;"/>
        </g>
        <g transform="matrix(1,0,0,1,129.829,135.696)">
            <path d="M0,30.2C3.055,31.508 6.141,31.602 8.653,30.177C13.211,27.591 14.448,20.821 12.067,13.897L3.213,1.959C-0.673,-0.677 -4.927,-1.402 -8.205,0.457C-10.724,1.886 -12.228,4.593 -12.669,7.897" style="fill:none;fill-rule:nonzero;stroke:rgb(22,33,45);stroke-width:1px;"/>
        </g>
        <g transform="matrix(0.869154,-0.494541,-0.494541,-0.869154,134.137,165.624)">
            <path d="M-7.22,1.895L1.952,1.895C6.688,1.888 10.534,7.625 10.543,14.708C10.552,21.791 6.722,27.537 1.987,27.544L-7.186,27.544" style="fill:none;fill-rule:nonzero;stroke:rgb(22,33,45);stroke-width:1px;"/>
        </g>
        <g transform="matrix(1,0,0,1,141.895,134.03)">
            <path d="M0,15.564C1.582,14.135 8.055,8.076 5.205,4.038C2.355,0 -6.946,2.679 -8.853,3.625" style="fill:none;fill-rule:nonzero;stroke:rgb(22,33,45);stroke-width:1px;"/>
        </g>
        <g transform="matrix(1,0,0,1,120.982,98.2869)">
            <path d="M0,38.172C12.512,31.077 20.781,33.416 35.316,23.464C49.851,13.512 57.506,-0.478 86.768,-17.678C103.651,-27.602 124.225,-29.414 130.104,-27.857C134.371,-26.727 137.356,-25.225 139.861,-21.693C142.367,-18.162 142.106,-13.237 141.088,-9.957C139.285,-4.149 127.25,12.59 110.051,21.954C80.24,38.185 64.305,37.545 48.29,44.882C32.276,52.219 30.024,60.513 17.5,67.586" style="fill:none;fill-rule:nonzero;stroke:rgb(22,33,45);stroke-width:1px;"/>
        </g>
        <g transform="matrix(1,0,0,1,121.615,213.13)">
            <path d="M0,-58.729L1.214,-56.172L1.117,-55.056L-97.603,0.962L-99.658,0.106L-101,-1.948L-100.158,-4.351L-2.326,-59.691L0,-58.729Z" style="fill:none;fill-rule:nonzero;stroke:rgb(22,33,45);stroke-width:1px;"/>
        </g>
    </g>
</svg>
