<?xml version="1.0" encoding="UTF-8" standalone="no"?>
<!DOCTYPE svg PUBLIC "-//W3C//DTD SVG 1.1//EN" "http://www.w3.org/Graphics/SVG/1.1/DTD/svg11.dtd">
<svg width="100%" height="100%" viewBox="0 0 203 70" version="1.1" xmlns="http://www.w3.org/2000/svg" xmlns:xlink="http://www.w3.org/1999/xlink" xml:space="preserve" xmlns:serif="http://www.serif.com/" style="fill-rule:evenodd;clip-rule:evenodd;stroke-linecap:round;stroke-linejoin:round;stroke-miterlimit:10;">
    <g transform="matrix(1,0,0,1,-37.2381,-109.694)">
        <g transform="matrix(1,0,0,1,43.7158,124.721)">
            <path d="M0,3.847L-2.841,3.112C-3.643,2.905 -4.124,2.086 -3.917,1.284C-3.709,0.482 -2.89,0 -2.089,0.208L0.572,0.896L0,3.847Z" style="fill:rgb(220,220,220);fill-rule:nonzero;"/>
        </g>
        <g transform="matrix(1,0,0,1,89.5689,138.355)">
            <path d="M0,-22.665L-20.447,-27.983C-21.457,-28.244 -22.495,-28.212 -23.516,-27.928L-38.8,-23.976C-42.216,-23.028 -45.438,-19.263 -46.743,-14.218C-48.438,-7.664 -46.256,-1.431 -41.869,-0.297L-21.49,5.044C-19.421,5.579 -17.24,4.924 -15.326,3.416L4.551,-18.381C3.6,-20.562 2.029,-22.14 0,-22.665" style="fill:white;fill-rule:nonzero;"/>
        </g>
        <g transform="matrix(1,0,0,1,235.034,140.632)">
            <path d="M0,15.786L-145.023,-21.72C-148.09,-22.513 -151.468,-19.94 -153.035,-15.832L-153.034,-15.831L-160.533,-17.771C-163.936,-18.651 -167.723,-15.386 -168.992,-10.478C-170.261,-5.571 -168.532,-0.879 -165.13,0.001L-20.106,37.507C-17.041,38.299 -13.669,35.722 -12.102,31.616L-12.095,31.619L-4.596,33.558C-1.194,34.438 2.594,31.173 3.863,26.265C5.132,21.358 3.403,16.666 0,15.786" style="fill:rgb(231,195,233);fill-rule:nonzero;"/>
        </g>
        <g transform="matrix(1,0,0,1,214.928,122.861)">
            <path d="M0,55.277L-145.023,17.771C-148.426,16.891 -150.155,12.2 -148.886,7.292C-147.617,2.385 -143.83,-0.88 -140.427,0L4.596,37.505C7.999,38.385 9.728,43.077 8.459,47.984C7.19,52.892 3.402,56.157 0,55.277Z" style="fill:none;fill-rule:nonzero;stroke:rgb(22,33,45);stroke-width:1px;"/>
        </g>
        <g transform="matrix(1,0,0,1,73.8244,117.622)">
            <path d="M0,24.025C-1.402,24.774 -2.903,25.029 -4.346,24.656C-8.379,23.613 -10.428,18.053 -8.924,12.236C-7.42,6.42 -2.931,2.55 1.102,3.593C1.787,3.77 2.414,4.077 2.977,4.494L9.034,2.928C11.087,0.344 13.858,-1.004 16.441,-0.336C17.856,0.03 19.027,0.952 19.886,2.246" style="fill:none;fill-rule:nonzero;stroke:rgb(22,33,45);stroke-width:0.5px;"/>
        </g>
        <g transform="matrix(1,0,0,1,94.1198,138.944)">
            <path d="M0,-18.969C-0.951,-21.151 -2.522,-22.729 -4.551,-23.253C-7.279,-23.959 -10.198,-22.588 -12.448,-19.925L-18.06,-18.474C-18.619,-18.856 -19.227,-19.153 -19.891,-19.324C-24.358,-20.48 -29.357,-16.093 -31.055,-9.527C-32.753,-2.96 -30.508,3.3 -26.041,4.455C-23.972,4.99 -21.791,4.336 -19.877,2.827" style="fill:none;fill-rule:nonzero;stroke:rgb(22,33,45);stroke-width:1px;"/>
        </g>
        <g transform="matrix(1,0,0,1,222.939,120.938)">
            <path d="M0,51.312L7.499,53.251C10.901,54.131 14.688,50.866 15.958,45.959C17.227,41.051 15.497,36.359 12.095,35.479L-132.929,-2.026C-135.995,-2.819 -139.373,-0.246 -140.94,3.862" style="fill:none;fill-rule:nonzero;stroke:rgb(22,33,45);stroke-width:1px;"/>
        </g>
        <g transform="matrix(1,0,0,1,89.5689,137.82)">
            <path d="M0,-22.13L-20.447,-27.447C-21.457,-27.709 -22.495,-27.677 -23.516,-27.394L-38.8,-23.441C-42.216,-22.493 -45.438,-18.728 -46.743,-13.683C-48.438,-7.129 -46.256,-0.896 -41.869,0.238L-21.49,5.579" style="fill:none;fill-rule:nonzero;stroke:rgb(22,33,45);stroke-width:1px;"/>
        </g>
        <g transform="matrix(1,0,0,1,81.6722,114.441)">
            <path d="M0,4.577L-17.696,0L-22.579,1.263" style="fill:none;fill-rule:nonzero;stroke:rgb(22,33,45);stroke-width:0.5px;"/>
        </g>
        <g transform="matrix(-0.0580226,-0.998315,-0.998315,0.0580226,62.9995,115.348)">
            <path d="M0.847,-1.027C1.994,-2.17 3.47,-4.065 3.907,-6.121L0.847,9.365C1.024,8.432 0.712,6.539 0.465,5.769L-4.916,-10.963" style="fill:none;fill-rule:nonzero;stroke:rgb(22,33,45);stroke-width:0.5px;"/>
        </g>
        <g transform="matrix(-0.968173,-0.250281,-0.250281,0.968173,40.3968,124.485)">
            <path d="M-2.727,3.122L-1.301,3.122C-0.472,3.122 0.198,2.45 0.199,1.622C0.198,0.793 -0.474,0.122 -1.302,0.122L-2.296,0.122" style="fill:none;fill-rule:nonzero;stroke:rgb(22,33,45);stroke-width:0.5px;stroke-linecap:butt;stroke-linejoin:miter;"/>
        </g>
    </g>
</svg>
