<svg width="1064" height="1056" viewBox="0 0 1064 1056" fill="none" xmlns="http://www.w3.org/2000/svg">
<path d="M623.6 0L603.25 129.48C790.01 163.37 932.12 327.08 932.12 523.46C932.12 744.32 752.44 923.99 531.59 923.99C310.74 923.99 131.06 744.31 131.06 523.46C131.06 327.08 273.17 163.37 459.93 129.48L439.59 0C190.19 43.72 0 261.73 0 523.46C0 816.59 238.47 1055.06 531.6 1055.06C824.73 1055.06 1063.2 816.59 1063.2 523.46C1063.2 261.73 873.01 43.72 623.61 0L623.6 0Z" fill="black"/>
<path d="M686.43 446.81C613.94 336.61 531.63 221.58 531.61 221.55V221.58L531.59 221.55C531.59 221.55 449.25 336.61 376.77 446.81C314.25 541.86 296.04 659.27 373.16 742.88C415.78 789.09 473.33 811.62 530.78 811.74C530.86 811.74 530.92 811.78 531 811.78V811.81C531.12 811.81 531.23 811.79 531.35 811.79C531.41 811.79 531.46 811.79 531.52 811.79C531.52 811.79 531.58 811.79 531.61 811.79C531.64 811.79 531.67 811.79 531.7 811.79C531.76 811.78 531.82 811.77 531.87 811.77C531.99 811.77 532.1 811.79 532.22 811.79V811.76C532.3 811.76 532.36 811.73 532.44 811.72C589.89 811.6 647.44 789.06 690.06 742.86C767.18 659.25 748.97 541.85 686.45 446.79L686.43 446.81Z" fill="black"/>
<path d="M623.86 483.08C605.42 481.46 586.86 492.37 572.8 505.25C518.87 554.65 456.52 612.56 377.66 608.33C377.57 642.01 388.26 675.02 412.38 702.94C440.52 735.53 478.91 752.84 518.6 755.7C521.75 756.11 525.3 756.43 529.6 756.57C615.54 759.39 687.49 692 690.31 606.06C691.54 568.42 674.32 496.93 631.55 484.51C629 483.77 626.44 483.3 623.87 483.08H623.86Z" fill="url(#paint0_linear_330_1009)"/>
<path d="M932.673 1032.12V993.751H952.119C953.679 993.751 955.377 994.202 957.215 995.103C959.052 995.97 960.611 997.322 961.894 999.159C963.211 1000.96 963.87 1003.25 963.87 1006.02C963.87 1008.83 963.194 1011.22 961.842 1013.2C960.49 1015.14 958.844 1016.61 956.903 1017.62C954.996 1018.62 953.194 1019.12 951.495 1019.12H937.457V1012.89H948.895C950.039 1012.89 951.27 1012.31 952.587 1011.17C953.939 1010.03 954.615 1008.31 954.615 1006.02C954.615 1003.66 953.939 1002.07 952.587 1001.24C951.27 1000.41 950.109 999.991 949.103 999.991H941.096V1032.12H932.673ZM955.863 1014.03L965.429 1032.12H956.175L946.816 1014.03H955.863ZM947.232 1055C941.478 1055 936.088 1053.93 931.062 1051.78C926.036 1049.63 921.616 1046.65 917.803 1042.83C913.99 1039.02 911.009 1034.6 908.86 1029.58C906.711 1024.55 905.637 1019.16 905.637 1013.41C905.637 1007.65 906.711 1002.26 908.86 997.235C911.009 992.209 913.99 987.789 917.803 983.977C921.616 980.164 926.036 977.183 931.062 975.034C936.088 972.885 941.478 971.81 947.232 971.81C952.986 971.81 958.376 972.885 963.402 975.034C968.428 977.183 972.847 980.164 976.66 983.977C980.473 987.789 983.454 992.209 985.603 997.235C987.752 1002.26 988.827 1007.65 988.827 1013.41C988.827 1019.16 987.752 1024.55 985.603 1029.58C983.454 1034.6 980.473 1039.02 976.66 1042.83C972.847 1046.65 968.428 1049.63 963.402 1051.78C958.376 1053.93 952.986 1055 947.232 1055ZM947.232 1045.02C953.055 1045.02 958.358 1043.6 963.142 1040.75C967.925 1037.91 971.738 1034.1 974.58 1029.31C977.423 1024.53 978.844 1019.23 978.844 1013.41C978.844 1007.58 977.423 1002.28 974.58 997.495C971.738 992.712 967.925 988.899 963.142 986.056C958.358 983.214 953.055 981.793 947.232 981.793C941.408 981.793 936.105 983.214 931.322 986.056C926.538 988.899 922.725 992.712 919.883 997.495C917.041 1002.28 915.62 1007.58 915.62 1013.41C915.62 1019.23 917.041 1024.53 919.883 1029.31C922.725 1034.1 926.538 1037.91 931.322 1040.75C936.105 1043.6 941.408 1045.02 947.232 1045.02Z" fill="black"/>
<defs>
<linearGradient id="paint0_linear_330_1009" x1="377.464" y1="613.288" x2="771.982" y2="626.238" gradientUnits="userSpaceOnUse">
<stop stop-color="#006FFF"/>
<stop offset="0.16" stop-color="#037FFA"/>
<stop offset="0.48" stop-color="#0BABEF"/>
<stop offset="0.92" stop-color="#19F1DD"/>
<stop offset="1" stop-color="#1CFFDA"/>
</linearGradient>
</defs>
</svg>
