<svg width="1064" height="1056" viewBox="0 0 1064 1056" fill="none" xmlns="http://www.w3.org/2000/svg">
<path d="M623.8 0.0600586L603.45 129.54C790.21 163.43 932.32 327.14 932.32 523.52C932.32 744.38 752.64 924.05 531.79 924.05C310.94 924.05 131.26 744.37 131.26 523.52C131.26 327.14 273.37 163.43 460.13 129.54L439.79 0.0600586C190.39 43.7801 0.199707 261.79 0.199707 523.52C0.199707 816.65 238.67 1055.12 531.8 1055.12C824.93 1055.12 1063.4 816.65 1063.4 523.52C1063.4 261.79 873.21 43.7801 623.81 0.0600586L623.8 0.0600586Z" fill="white"/>
<path fill-rule="evenodd" clip-rule="evenodd" d="M531.865 221.688C534.282 225.07 615.221 338.313 686.63 446.87L686.65 446.85C749.17 541.91 767.38 659.31 690.26 742.92C647.64 789.12 590.09 811.66 532.64 811.78C532.56 811.79 532.5 811.82 532.42 811.82V811.85C532.3 811.85 532.19 811.83 532.07 811.83C532.02 811.83 531.96 811.84 531.9 811.85H531.81H531.72H531.55C531.49 811.85 531.432 811.855 531.375 811.86C531.317 811.865 531.26 811.87 531.2 811.87V811.84C531.12 811.84 531.06 811.8 530.98 811.8C473.53 811.68 415.98 789.15 373.36 742.94C296.24 659.33 314.45 541.92 376.97 446.87C449.45 336.67 531.79 221.61 531.79 221.61L531.81 221.64V221.61L531.865 221.688ZM572.999 505.31C587.059 492.43 605.619 481.52 624.059 483.14H624.069C626.639 483.36 629.199 483.83 631.749 484.57C674.519 496.99 691.739 568.48 690.509 606.12C687.689 692.06 615.739 759.45 529.799 756.63C525.499 756.49 521.949 756.17 518.799 755.76C479.109 752.9 440.719 735.59 412.579 703C388.459 675.08 377.769 642.07 377.859 608.39C455.915 612.577 517.796 555.885 571.347 506.824C571.899 506.319 572.449 505.814 572.999 505.31Z" fill="white"/>
</svg>
