<?xml version="1.0" encoding="UTF-8" standalone="no"?>
<!DOCTYPE svg PUBLIC "-//W3C//DTD SVG 1.1//EN" "http://www.w3.org/Graphics/SVG/1.1/DTD/svg11.dtd">
<svg width="100%" height="100%" viewBox="0 0 2312 1976" version="1.1" xmlns="http://www.w3.org/2000/svg" xmlns:xlink="http://www.w3.org/1999/xlink" xml:space="preserve" xmlns:serif="http://www.serif.com/" style="fill-rule:evenodd;clip-rule:evenodd;stroke-linecap:round;stroke-linejoin:round;">
    <g transform="matrix(1,0,0,1,-119.49,-662.084)">
        <g transform="matrix(1,0,0,1,-615.83,387.538)">
            <path d="M2142.04,1324.4L2144.14,1323.41C2142.4,1324.14 2140.69,1324.92 2138.98,1325.71L2138.98,1776.18C2138.98,1802.03 2122.97,1825.18 2098.79,1834.31L2057.75,1849.8L2057.67,1909.33L2151.1,1874.06C2175.29,1864.93 2191.29,1841.78 2191.29,1815.93L2191.29,1340.56C2191.29,1328.24 2187.79,1317.01 2181.85,1307.57L2142.02,1324.4L2142.04,1324.4Z" style="fill:rgb(180,182,184);fill-rule:nonzero;stroke:rgb(22,33,45);stroke-width:4px;"/>
        </g>
        <g transform="matrix(1,0,0,1,-615.83,387.538)">
            <path d="M831.36,779.51L3034.54,1709.12C3040.48,1711.63 3044.34,1717.45 3044.34,1723.9L3044.34,1830.33C3044.34,1851.02 3031.88,1869.68 3012.77,1877.61L2984.98,1889.15C2977.53,1892.24 2972.67,1899.5 2972.65,1907.56L2972.15,2074.15C2972.13,2080.55 2978.61,2084.92 2984.54,2082.51L3040.21,2059.88C3042.18,2059.08 3044.34,2060.53 3044.34,2062.66L3044.34,2195.89C3044.34,2211.04 3035.35,2224.73 3021.45,2230.76L2988.41,2245.08C2978.36,2249.43 2966.97,2249.48 2956.89,2245.21L761.71,1314.67C746.92,1308.4 737.32,1293.9 737.32,1277.84L737.32,879.11C737.32,841.09 759.99,806.73 794.95,791.77L823.54,779.54C826.04,778.47 828.86,778.46 831.36,779.52L831.36,779.51Z" style="fill:rgb(220,220,220);fill-rule:nonzero;stroke:rgb(22,33,45);stroke-width:4px;"/>
        </g>
        <g transform="matrix(1,0,0,1,-615.83,387.538)">
            <path d="M3023.92,2229.59L2987.24,2245.19C2963.69,2255.21 2937.56,2237.89 2937.61,2212.3L2938.38,1810.24C2938.46,1769.29 2963.57,1732.56 3001.69,1717.62L3016.88,1711.67C3025.84,1708.16 3036.2,1710.82 3041.97,1718.53C3043.39,1720.43 3044.34,1722.3 3044.34,1723.91L3044.34,1830.34C3044.34,1851.03 3031.88,1869.69 3012.77,1877.62L2984.98,1889.16C2977.53,1892.25 2972.67,1899.51 2972.65,1907.57L2972.15,2074.16C2972.13,2080.56 2978.61,2084.93 2984.54,2082.52L3040.21,2059.89C3042.18,2059.09 3044.34,2060.54 3044.34,2062.67L3044.34,2195.9C3044.34,2210.13 3036.4,2223.08 3023.91,2229.59L3023.92,2229.59Z" style="fill:rgb(180,182,184);fill-rule:nonzero;stroke:rgb(22,33,45);stroke-width:4px;"/>
        </g>
        <g transform="matrix(1,0,0,1,-615.83,387.538)">
            <path d="M2985.43,2082.35L3041.14,2059.7L2972.36,2034.62L2972.24,2073.45C2972.22,2080.26 2979.11,2084.92 2985.42,2082.35L2985.43,2082.35Z" style="fill:rgb(220,220,220);fill-rule:nonzero;stroke:rgb(22,33,45);stroke-width:4px;"/>
        </g>
        <g transform="matrix(1,0,0,1,-615.83,387.538)">
            <path d="M2956.86,1824.22L2991.78,1807.99C2995.17,1806.42 2998.72,1809.83 2997.28,1813.28L2969.43,1879.94C2965.64,1889.02 2952.12,1886.31 2952.12,1876.47L2952.12,1831.64C2952.12,1828.46 2953.97,1825.56 2956.86,1824.22Z" style="fill:rgb(87,87,92);fill-rule:nonzero;stroke:rgb(22,33,45);stroke-width:2px;"/>
        </g>
        <g transform="matrix(1,0,0,1,-615.83,387.538)">
            <path d="M2958.61,1808.19L3005.31,1787.99C3009.79,1786.05 3013.31,1782.41 3015.09,1777.87L3033.22,1731.68C3035.3,1726.39 3029.98,1721.22 3024.75,1723.43L3000.45,1733.73C2975.84,1744.15 2958.3,1766.47 2953.98,1792.84L2952.27,1803.25C2951.68,1806.82 2955.28,1809.63 2958.61,1808.19Z" style="fill:rgb(87,87,92);fill-rule:nonzero;stroke:rgb(22,33,45);stroke-width:2px;"/>
        </g>
        <g transform="matrix(1,0,0,1,-615.83,387.538)">
            <path d="M3023.51,1784.49L3029.14,1782.06C3031.78,1780.92 3034.74,1782.78 3034.85,1785.65L3034.4,1812.09L3031.84,1815.74L3031.84,1833.3L3034.07,1835.71C3034.26,1845.39 3028.48,1854.19 3019.52,1857.85L2996.4,1867.3C2992.51,1868.89 2988.62,1865.01 2990.21,1861.11L3020.04,1788.02C3020.69,1786.43 3021.93,1785.16 3023.51,1784.48L3023.51,1784.49Z" style="fill:rgb(87,87,92);fill-rule:nonzero;stroke:rgb(22,33,45);stroke-width:2px;"/>
        </g>
        <g transform="matrix(1,0,0,1,-615.83,387.538)">
            <path d="M2956.11,2175.94L2994.45,2159.91C3000.02,2157.58 3002.15,2150.8 2998.92,2145.71L2974.74,2107.61C2967.25,2095.81 2949,2101.12 2949,2115.09L2949,2171.21C2949,2174.88 2952.73,2177.36 2956.12,2175.95L2956.11,2175.94Z" style="fill:rgb(87,87,92);fill-rule:nonzero;stroke:rgb(22,33,45);stroke-width:2px;"/>
        </g>
        <g transform="matrix(1,0,0,1,-615.83,387.538)">
            <path d="M2988.47,2108.29L3016.57,2151.78C3021.94,2160.1 3034.85,2156.29 3034.85,2146.39L3034.85,2134.17L3031.11,2131.79L3031.11,2113.77L3034.51,2110.37L3034.51,2091.33L3032.84,2086.31C3031.17,2081.31 3025.61,2078.8 3020.76,2080.85L2993.36,2092.43C2987.16,2095.05 2984.82,2102.64 2988.47,2108.3L2988.47,2108.29Z" style="fill:rgb(87,87,92);fill-rule:nonzero;stroke:rgb(22,33,45);stroke-width:2px;"/>
        </g>
        <g transform="matrix(1,0,0,1,-615.83,387.538)">
            <path d="M2958.29,2191.3L3006.82,2170.26C3008.82,2169.39 3011.16,2170.08 3012.37,2171.9L3028.62,2196.27C3033.71,2203.9 3031.02,2214.25 3022.86,2218.44L3016.21,2221.86C3014.66,2222.66 3012.79,2222.49 3011.41,2221.44L3010.34,2220.63C3009.08,2219.67 3007.42,2219.44 3005.95,2220.02L2975.7,2231.95C2974.21,2232.54 2972.59,2232.72 2971,2232.47C2962.9,2229.07 2956.75,2222.24 2954.22,2213.83L2951.71,2205.46C2950,2199.76 2952.82,2193.68 2958.29,2191.31L2958.29,2191.3Z" style="fill:rgb(87,87,92);fill-rule:nonzero;stroke:rgb(22,33,45);stroke-width:2px;"/>
        </g>
        <g transform="matrix(1,0,0,1,-615.83,387.538)">
            <path d="M2957.51,1950.39C2953.27,1952.66 2948.21,1949.49 2948.21,1944.56L2948.21,1916.83C2948.21,1910.68 2951.73,1905.12 2957.19,1902.65C2961.15,1900.86 2965.6,1903.85 2965.6,1908.32L2965.6,1936.65C2965.6,1942.43 2962.48,1947.72 2957.52,1950.39L2957.51,1950.39Z" style="fill:rgb(87,87,92);fill-rule:nonzero;stroke:rgb(22,33,45);stroke-width:2px;"/>
        </g>
        <g transform="matrix(1,0,0,1,-615.83,387.538)">
            <path d="M2957.51,2015.28C2953.27,2017.55 2948.21,2014.38 2948.21,2009.45L2948.21,1981.72C2948.21,1975.57 2951.73,1970.01 2957.19,1967.54C2961.15,1965.75 2965.6,1968.74 2965.6,1973.21L2965.6,2001.54C2965.6,2007.32 2962.48,2012.61 2957.52,2015.28L2957.51,2015.28Z" style="fill:rgb(87,87,92);fill-rule:nonzero;stroke:rgb(22,33,45);stroke-width:2px;"/>
        </g>
        <g transform="matrix(1,0,0,1,-615.83,387.538)">
            <path d="M2957.51,2080.7C2953.27,2082.97 2948.21,2079.8 2948.21,2074.87L2948.21,2047.14C2948.21,2040.99 2951.73,2035.43 2957.19,2032.96C2961.15,2031.17 2965.6,2034.16 2965.6,2038.63L2965.6,2066.96C2965.6,2072.74 2962.48,2078.03 2957.52,2080.7L2957.51,2080.7Z" style="fill:rgb(87,87,92);fill-rule:nonzero;stroke:rgb(22,33,45);stroke-width:2px;"/>
        </g>
        <g transform="matrix(1,0,0,1,-615.83,387.538)">
            <path d="M2058.15,1652L2058.33,1507.57C2058.33,1507.52 2058.7,1477.46 2058.7,1452.23C2058.7,1439.52 2060.4,1427.2 2063.58,1415.5L2032.09,1429.69C2023.69,1433.47 2018.24,1442.25 2018.25,1451.96L2018.79,1909.99C2018.79,1916.38 2024.9,1920.71 2030.44,1918.26L2057.82,1906.13L2058.01,1752.65" style="fill:white;fill-rule:nonzero;"/>
        </g>
        <g transform="matrix(1,0,0,1,-615.83,387.538)">
            <path d="M2058.15,1652L2058.33,1507.57C2058.33,1507.52 2058.7,1477.46 2058.7,1452.23C2058.7,1439.52 2060.4,1427.2 2063.58,1415.5L2032.09,1429.69C2023.69,1433.47 2018.24,1442.25 2018.25,1451.96L2018.79,1909.99C2018.79,1916.38 2024.9,1920.71 2030.44,1918.26L2057.82,1906.13L2058.01,1752.65" style="fill:none;fill-rule:nonzero;stroke:rgb(22,33,45);stroke-width:4px;"/>
        </g>
        <g transform="matrix(1,0,0,1,-615.83,387.538)">
            <path d="M2039.18,1996.07C2040.37,1995.67 2041.52,1995.19 2042.64,1994.63L2039.18,1996.07Z" style="fill:white;fill-rule:nonzero;"/>
        </g>
        <g transform="matrix(1,0,0,1,-615.83,387.538)">
            <path d="M2039.18,1996.07C2040.37,1995.67 2041.52,1995.19 2042.64,1994.63" style="fill:none;fill-rule:nonzero;stroke:rgb(22,33,45);stroke-width:4px;"/>
        </g>
        <g transform="matrix(1,0,0,1,-615.83,387.538)">
            <path d="M2042.64,1994.63L2042.68,1994.62" style="fill:none;fill-rule:nonzero;stroke:rgb(22,33,45);stroke-width:4px;"/>
        </g>
        <g transform="matrix(1,0,0,1,-615.83,387.538)">
            <path d="M1905.18,2043.09L1504.52,1876.5C1477.41,1865.23 1459.74,1838.75 1459.74,1809.38L1459.74,434.4C1459.74,407.85 1479.75,394.58 1504.21,404.93L1899.93,572.31C1926.86,583.7 1944.34,610.11 1944.3,639.35L1942.55,2018.2C1942.53,2037.44 1922.95,2050.48 1905.18,2043.1L1905.18,2043.09Z" style="fill:white;fill-rule:nonzero;stroke:rgb(22,33,45);stroke-width:4px;"/>
        </g>
        <g transform="matrix(1,0,0,1,-615.83,387.538)">
            <path d="M2196,447.44L1800.28,280.06C1789.54,275.52 1779.66,275.53 1771.95,279.22L1477.67,403.3C1485.09,400.42 1494.28,400.73 1504.19,404.93L1899.91,572.31C1926.84,583.7 1944.32,610.11 1944.28,639.35L1942.53,2018.2C1942.52,2029.85 1935.33,2039.22 1925.72,2043.16L2039.16,1996.07L2042.62,1994.63C2051.29,1990.29 2057.56,1981.39 2057.58,1970.5L2058.17,1507.61C2058.17,1507.56 2058.54,1477.5 2058.54,1452.27C2058.54,1394.29 2093.84,1344.56 2144.13,1323.4L2142.03,1324.39L2220.93,1291.05C2230.98,1287.33 2238.6,1277.74 2238.62,1265.73L2239.59,503.74C2235.92,478.91 2219.59,457.41 2196,447.43L2196,447.44Z" style="fill:rgb(220,220,220);fill-rule:nonzero;stroke:rgb(22,33,45);stroke-width:4px;"/>
        </g>
        <g transform="matrix(1,0,0,1,-615.83,387.538)">
            <path d="M1934.4,661.36C1934.33,625.02 1932.47,601.38 1887.4,580.06L1503.87,415.11C1499.94,413.72 1483.5,409.59 1475.85,419.29C1470.39,426.22 1469.4,432.25 1469.3,446.87L1469.3,449.63C1469.32,454.12 1469.36,459.24 1469.36,465.2L1469.36,1804.58C1469.36,1832.46 1485.62,1857.66 1510.76,1869.09L1901.02,2031.92C1918.23,2039.12 1931.99,2030.9 1932.36,2012.5L1934.41,664.11L1934.41,661.36L1934.4,661.36Z" style="fill:rgb(87,87,92);fill-rule:nonzero;stroke:rgb(22,33,45);stroke-width:2px;"/>
        </g>
        <g transform="matrix(1,0,0,1,-615.83,387.538)">
            <path d="M2058.15,1652L2058.02,1752.65" style="fill:none;fill-rule:nonzero;stroke:rgb(22,33,45);stroke-width:4px;"/>
        </g>
        <g transform="matrix(1,0,0,1,-615.83,387.538)">
            <path d="M2057.82,1906.13L2030.44,1918.26C2024.9,1920.71 2018.8,1916.38 2018.79,1909.99L2018.25,1451.96C2018.24,1442.25 2023.69,1433.47 2032.09,1429.69L2063.58,1415.5C2060.4,1427.21 2058.7,1439.52 2058.7,1452.23C2058.7,1477.45 2058.34,1507.51 2058.33,1507.57L2057.83,1906.13L2057.82,1906.13Z" style="fill:rgb(87,87,92);fill-rule:nonzero;stroke:rgb(22,33,45);stroke-width:4px;"/>
        </g>
        <g transform="matrix(1,0,0,1,-615.83,387.538)">
            <path d="M2028.5,1860.27C2029.3,1861.02 2030.24,1861.51 2031.27,1861.67C2035.41,1862.31 2039.59,1857.45 2040.61,1850.82C2041.63,1844.19 2039.1,1838.3 2034.97,1837.66C2033.93,1837.5 2032.9,1837.69 2031.91,1838.16C2030.09,1841.11 2028.72,1844.8 2028.09,1848.9C2027.46,1853 2027.65,1856.93 2028.5,1860.29L2028.5,1860.27Z" style="fill:rgb(22,33,45);fill-rule:nonzero;stroke:rgb(22,33,45);stroke-width:2px;"/>
        </g>
        <g transform="matrix(1,0,0,1,-615.83,387.538)">
            <path d="M2028.5,1860.27C2029.3,1861.02 2030.24,1861.51 2031.27,1861.67C2035.41,1862.31 2039.59,1857.45 2040.61,1850.82C2041.63,1844.19 2039.1,1838.3 2034.97,1837.66C2033.93,1837.5 2032.9,1837.69 2031.91,1838.16C2034.93,1833.27 2039.2,1830.41 2043.44,1831.06C2050.24,1832.11 2054.39,1841.79 2052.71,1852.69C2051.03,1863.59 2044.16,1871.57 2037.36,1870.52C2033.12,1869.87 2029.91,1865.85 2028.5,1860.28L2028.5,1860.27Z" style="fill:rgb(22,33,45);fill-rule:nonzero;stroke:rgb(22,33,45);stroke-width:2px;"/>
        </g>
        <g transform="matrix(1,0,0,1,-615.83,387.538)">
            <path d="M2029.12,1502.07C2029.98,1502.75 2030.96,1503.15 2032,1503.23C2036.18,1503.52 2039.94,1498.32 2040.39,1491.63C2040.84,1484.94 2037.83,1479.28 2033.66,1478.99C2032.61,1478.92 2031.6,1479.19 2030.65,1479.74C2033.25,1474.61 2037.26,1471.4 2041.54,1471.69C2048.4,1472.16 2053.36,1481.46 2052.6,1492.46C2051.85,1503.46 2045.67,1512 2038.81,1511.53C2034.53,1511.24 2030.99,1507.51 2029.12,1502.07Z" style="fill:rgb(22,33,45);fill-rule:nonzero;stroke:rgb(22,33,45);stroke-width:2px;"/>
        </g>
        <g transform="matrix(1,0,0,1,-615.83,387.538)">
            <path d="M2029.12,1502.07C2029.98,1502.75 2030.96,1503.15 2032,1503.23C2036.18,1503.52 2039.94,1498.32 2040.39,1491.63C2040.84,1484.94 2037.83,1479.28 2033.66,1478.99C2032.61,1478.92 2031.6,1479.19 2030.65,1479.74C2029.08,1482.83 2028.03,1486.62 2027.75,1490.76C2027.47,1494.9 2027.99,1498.8 2029.12,1502.07Z" style="fill:rgb(22,33,45);fill-rule:nonzero;stroke:rgb(22,33,45);stroke-width:2px;"/>
        </g>
        <g transform="matrix(1,0,0,1,-615.83,387.538)">
            <path d="M2057.89,1752.65L2058.02,1652L2040.22,1659.58C2036.88,1661.14 2036.94,1662.88 2036.94,1665.66L2037.06,1758.55C2037.06,1759.85 2038.39,1760.72 2039.59,1760.23L2057.9,1752.65L2057.89,1752.65Z" style="fill:rgb(22,33,45);fill-rule:nonzero;stroke:rgb(22,33,45);stroke-width:2px;"/>
        </g>
        <g transform="matrix(1,0,0,1,-615.83,387.538)">
            <path d="M2055.9,1746.36L2040.46,1752.81C2039.45,1753.23 2038.98,1754.39 2039.4,1755.39C2039.82,1756.4 2040.97,1756.87 2041.98,1756.45L2057.42,1750.01C2058.43,1749.59 2058.91,1748.43 2058.49,1747.42C2058.07,1746.41 2056.91,1745.94 2055.9,1746.36Z" style="fill:rgb(255,214,0);fill-rule:nonzero;"/>
        </g>
        <g transform="matrix(1,0,0,1,-615.83,387.538)">
            <path d="M2055.9,1739.38L2040.46,1745.83C2039.45,1746.25 2038.98,1747.4 2039.4,1748.41C2039.82,1749.42 2040.98,1749.89 2041.98,1749.47L2057.42,1743.03C2058.43,1742.6 2058.91,1741.45 2058.49,1740.44C2058.07,1739.43 2056.91,1738.96 2055.9,1739.38Z" style="fill:rgb(255,214,0);fill-rule:nonzero;"/>
        </g>
        <g transform="matrix(1,0,0,1,-615.83,387.538)">
            <path d="M2055.91,1732.41L2040.47,1738.85C2039.46,1739.27 2038.98,1740.43 2039.4,1741.44C2039.82,1742.45 2040.98,1742.92 2041.99,1742.5L2057.43,1736.05C2058.44,1735.63 2058.91,1734.47 2058.49,1733.47C2058.07,1732.46 2056.92,1731.99 2055.91,1732.41Z" style="fill:rgb(255,214,0);fill-rule:nonzero;"/>
        </g>
        <g transform="matrix(1,0,0,1,-615.83,387.538)">
            <path d="M2055.9,1725.43L2040.46,1731.87C2039.45,1732.29 2038.97,1733.45 2039.39,1734.46C2039.81,1735.46 2040.97,1735.94 2041.98,1735.52L2057.42,1729.07C2058.43,1728.65 2058.91,1727.49 2058.49,1726.49C2058.06,1725.48 2056.91,1725.01 2055.9,1725.43Z" style="fill:rgb(255,214,0);fill-rule:nonzero;"/>
        </g>
        <g transform="matrix(1,0,0,1,-615.83,387.538)">
            <path d="M2055.9,1718.45L2040.46,1724.89C2039.45,1725.31 2038.97,1726.47 2039.39,1727.48C2039.81,1728.48 2040.97,1728.96 2041.98,1728.54L2057.42,1722.09C2058.43,1721.67 2058.91,1720.51 2058.49,1719.51C2058.07,1718.5 2056.91,1718.02 2055.9,1718.45Z" style="fill:rgb(255,214,0);fill-rule:nonzero;"/>
        </g>
        <g transform="matrix(1,0,0,1,-615.83,387.538)">
            <path d="M2055.9,1711.47L2040.46,1717.92C2039.45,1718.34 2038.98,1719.5 2039.4,1720.5C2039.82,1721.51 2040.98,1721.99 2041.99,1721.56L2057.42,1715.12C2058.43,1714.7 2058.91,1713.54 2058.49,1712.53C2058.07,1711.53 2056.91,1711.05 2055.9,1711.47Z" style="fill:rgb(255,214,0);fill-rule:nonzero;"/>
        </g>
        <g transform="matrix(1,0,0,1,-615.83,387.538)">
            <path d="M2055.9,1704.5L2040.46,1710.95C2039.46,1711.37 2038.98,1712.53 2039.4,1713.53C2039.82,1714.54 2040.98,1715.01 2041.99,1714.59L2057.43,1708.15C2058.43,1707.73 2058.91,1706.57 2058.49,1705.56C2058.07,1704.56 2056.91,1704.08 2055.9,1704.5Z" style="fill:rgb(255,214,0);fill-rule:nonzero;"/>
        </g>
        <g transform="matrix(1,0,0,1,-615.83,387.538)">
            <path d="M2055.9,1697.52L2040.47,1703.97C2039.46,1704.39 2038.98,1705.55 2039.4,1706.55C2039.82,1707.56 2040.98,1708.03 2041.99,1707.61L2057.43,1701.17C2058.44,1700.75 2058.91,1699.59 2058.49,1698.58C2058.07,1697.57 2056.91,1697.1 2055.9,1697.52Z" style="fill:rgb(255,214,0);fill-rule:nonzero;"/>
        </g>
        <g transform="matrix(1,0,0,1,-615.83,387.538)">
            <path d="M2055.91,1690.54L2040.47,1696.99C2039.46,1697.41 2038.98,1698.56 2039.4,1699.57C2039.82,1700.58 2040.98,1701.05 2041.99,1700.63L2057.43,1694.19C2058.44,1693.76 2058.91,1692.61 2058.49,1691.6C2058.07,1690.59 2056.91,1690.12 2055.91,1690.54Z" style="fill:rgb(255,214,0);fill-rule:nonzero;"/>
        </g>
        <g transform="matrix(1,0,0,1,-615.83,387.538)">
            <path d="M2055.9,1683.57L2040.46,1690.01C2039.45,1690.43 2038.97,1691.59 2039.4,1692.6C2039.82,1693.61 2040.97,1694.08 2041.98,1693.66L2057.42,1687.21C2058.43,1686.79 2058.91,1685.63 2058.49,1684.63C2058.07,1683.62 2056.91,1683.15 2055.9,1683.57Z" style="fill:rgb(255,214,0);fill-rule:nonzero;"/>
        </g>
        <g transform="matrix(1,0,0,1,-615.83,387.538)">
            <path d="M2055.9,1676.59L2040.46,1683.03C2039.45,1683.45 2038.98,1684.61 2039.4,1685.62C2039.82,1686.62 2040.98,1687.1 2041.98,1686.68L2057.42,1680.23C2058.43,1679.81 2058.91,1678.65 2058.49,1677.65C2058.07,1676.64 2056.91,1676.17 2055.9,1676.59Z" style="fill:rgb(255,214,0);fill-rule:nonzero;"/>
        </g>
        <g transform="matrix(1,0,0,1,-615.83,387.538)">
            <path d="M2055.9,1669.61L2040.46,1676.05C2039.45,1676.47 2038.98,1677.63 2039.4,1678.64C2039.82,1679.64 2040.98,1680.12 2041.98,1679.7L2057.42,1673.25C2058.43,1672.83 2058.91,1671.67 2058.49,1670.67C2058.07,1669.66 2056.91,1669.18 2055.9,1669.61Z" style="fill:rgb(255,214,0);fill-rule:nonzero;"/>
        </g>
        <g transform="matrix(1,0,0,1,-615.83,387.538)">
            <path d="M2055.91,1655.66L2040.47,1662.11C2039.46,1662.53 2038.98,1663.69 2039.4,1664.69C2039.82,1665.7 2040.98,1666.17 2041.99,1665.75L2057.43,1659.31C2058.44,1658.89 2058.92,1657.73 2058.5,1656.72C2058.08,1655.72 2056.92,1655.24 2055.91,1655.66Z" style="fill:rgb(255,214,0);fill-rule:nonzero;"/>
        </g>
        <g transform="matrix(1,0,0,1,-615.83,387.538)">
            <path d="M2037.41,1462.66C2036.09,1461.24 2035.28,1458.69 2035.45,1455.82C2035.62,1452.95 2036.7,1450.51 2038.18,1449.25C2039.5,1450.67 2040.31,1453.22 2040.14,1456.09C2039.97,1458.96 2038.89,1461.4 2037.41,1462.66Z" style="fill:rgb(22,33,45);fill-rule:nonzero;stroke:rgb(22,33,45);stroke-width:2px;"/>
        </g>
        <g transform="matrix(1,0,0,1,-615.83,387.538)">
            <path d="M2037.41,1462.66C2038.06,1463.36 2038.84,1463.79 2039.69,1463.84C2042.28,1463.99 2044.58,1460.64 2044.82,1456.36C2045.06,1452.08 2043.16,1448.49 2040.57,1448.34C2039.71,1448.29 2038.89,1448.63 2038.17,1449.25C2039.49,1450.67 2040.3,1453.22 2040.13,1456.09C2039.96,1458.96 2038.88,1461.4 2037.4,1462.66L2037.41,1462.66Z" style="fill:rgb(87,87,92);fill-rule:nonzero;stroke:rgb(22,33,45);stroke-width:2px;"/>
        </g>
        <g transform="matrix(1,0,0,1,-615.83,387.538)">
            <path d="M2037.13,1891.33C2035.98,1889.76 2035.49,1887.13 2035.99,1884.31C2036.49,1881.49 2037.86,1879.18 2039.47,1878.1C2040.62,1879.67 2041.11,1882.3 2040.61,1885.12C2040.11,1887.94 2038.74,1890.25 2037.13,1891.33Z" style="fill:rgb(22,33,45);fill-rule:nonzero;stroke:rgb(22,33,45);stroke-width:2px;"/>
        </g>
        <g transform="matrix(1,0,0,1,-615.83,387.538)">
            <path d="M2037.13,1891.33C2037.7,1892.1 2038.42,1892.62 2039.26,1892.77C2041.81,1893.22 2044.49,1890.16 2045.24,1885.94C2045.99,1881.72 2044.52,1877.93 2041.97,1877.48C2041.13,1877.33 2040.27,1877.57 2039.47,1878.1C2040.62,1879.67 2041.11,1882.3 2040.61,1885.12C2040.11,1887.94 2038.74,1890.25 2037.13,1891.33Z" style="fill:rgb(87,87,92);fill-rule:nonzero;stroke:rgb(22,33,45);stroke-width:2px;"/>
        </g>
        <g transform="matrix(1,0,0,1,-615.83,387.538)">
            <path d="M1688.54,1121.52L1670.74,1114.08L1670.74,1924.12L1733.72,1950.45L1733.72,1140.41L1688.54,1121.52Z" style="fill:white;fill-rule:nonzero;stroke:rgb(22,33,45);stroke-width:4px;"/>
        </g>
        <g transform="matrix(1,0,0,1,-615.83,387.538)">
            <path d="M1865.8,1550.39L1865.44,1550.53" style="fill:none;fill-rule:nonzero;stroke:rgb(22,33,45);stroke-width:4px;"/>
        </g>
        <g transform="matrix(1,0,0,1,-615.83,387.538)">
            <path d="M1681.99,1472C1681.99,1472 1682.07,1471.97 1682.11,1471.95L1681.99,1472Z" style="fill:white;fill-rule:nonzero;"/>
        </g>
        <g transform="matrix(1,0,0,1,-615.83,387.538)">
            <path d="M1681.99,1472C1681.99,1472 1682.07,1471.97 1682.11,1471.95" style="fill:none;fill-rule:nonzero;stroke:rgb(22,33,45);stroke-width:4px;"/>
        </g>
        <g transform="matrix(1,0,0,1,-615.83,387.538)">
            <path d="M1682.12,1471.95L1682.52,1471.79" style="fill:none;fill-rule:nonzero;stroke:rgb(22,33,45);stroke-width:4px;"/>
        </g>
        <g transform="matrix(1,0,0,1,-615.83,387.538)">
            <path d="M1682.12,1471.95L1681.99,1472" style="fill:none;fill-rule:nonzero;stroke:rgb(22,33,45);stroke-width:4px;"/>
        </g>
        <g transform="matrix(1,0,0,1,-615.83,387.538)">
            <path d="M1889.44,2015.56L1889.44,1655.58L1889.64,1655.66L1889.64,1204.04L1876.83,1198.69L1858.15,1190.88L1858.15,1550.86L1857.96,1550.77L1857.96,2002.39L1889.44,2015.56Z" style="fill:rgb(22,33,45);fill-rule:nonzero;stroke:rgb(22,33,45);stroke-width:4px;"/>
        </g>
        <g transform="matrix(1,0,0,1,-615.83,387.538)">
            <path d="M1533.16,1057.79L1517.42,1051.2L1517.42,1860.01L1548.9,1873.18L1548.9,1064.37L1533.16,1057.79Z" style="fill:rgb(22,33,45);fill-rule:nonzero;stroke:rgb(22,33,45);stroke-width:4px;"/>
        </g>
        <g transform="matrix(1,0,0,1,-615.83,387.538)">
            <path d="M1689.25,1121.82L1688.54,1121.52L1670.74,1114.08L1670.74,1924.12L1733.72,1950.45L1733.72,1935.17" style="fill:rgb(22,33,45);fill-rule:nonzero;"/>
        </g>
        <g transform="matrix(1,0,0,1,-615.83,387.538)">
            <path d="M1689.25,1121.82L1688.54,1121.52L1670.74,1114.08L1670.74,1924.12L1733.72,1950.45L1733.72,1935.17" style="fill:none;fill-rule:nonzero;stroke:rgb(22,33,45);stroke-width:4px;"/>
        </g>
        <g transform="matrix(1,0,0,1,-615.83,387.538)">
            <path d="M1889.44,1999.01L1889.44,1655.58L1889.64,1655.66L1889.64,1204.04L1877.99,1199.17L1877.99,1539.65L1877.79,1539.56L1877.79,1994.1L1889.44,1999.01Z" style="fill:rgb(22,33,45);fill-rule:nonzero;stroke:rgb(22,33,45);stroke-width:2px;"/>
        </g>
        <g transform="matrix(1,0,0,1,-615.83,387.538)">
            <path d="M1733.72,1935.17L1689.25,1916.58L1689.25,1121.82L1733.72,1140.41L1733.72,1935.17Z" style="fill:rgb(22,33,45);fill-rule:nonzero;stroke:rgb(22,33,45);stroke-width:2px;"/>
        </g>
        <g transform="matrix(1,0,0,1,-615.83,387.538)">
            <path d="M1550.18,1860.01L1548.9,1859.48" style="fill:none;fill-rule:nonzero;stroke:rgb(22,33,45);stroke-width:2px;"/>
        </g>
        <g transform="matrix(1,0,0,1,-615.83,387.538)">
            <path d="M1534.43,1058.32L1534.43,1057.79" style="fill:none;fill-rule:nonzero;stroke:rgb(22,33,45);stroke-width:2px;"/>
        </g>
        <g transform="matrix(1,0,0,1,-615.83,387.538)">
            <path d="M1548.9,1859.48L1534.43,1853.43L1534.43,1058.32L1548.9,1064.37L1548.9,1859.48Z" style="fill:rgb(22,33,45);fill-rule:nonzero;stroke:rgb(22,33,45);stroke-width:2px;"/>
        </g>
        <g transform="matrix(1,0,0,1,-615.83,387.538)">
            <path d="M1889.44,1567.24L1889.44,1207.26L1889.64,1207.34L1889.64,755.72L1876.83,750.37L1858.15,742.56L1858.15,1102.54L1857.96,1102.46L1857.96,1554.07L1889.44,1567.24Z" style="fill:rgb(22,33,45);fill-rule:nonzero;stroke:rgb(22,33,45);stroke-width:4px;"/>
        </g>
        <g transform="matrix(1,0,0,1,-615.83,387.538)">
            <path d="M1548.9,616.05L1517.42,602.89L1517.42,1411.69L1548.9,1424.86L1548.9,616.05Z" style="fill:rgb(22,33,45);fill-rule:nonzero;stroke:rgb(22,33,45);stroke-width:4px;"/>
        </g>
        <g transform="matrix(1,0,0,1,-615.83,387.538)">
            <path d="M1689.25,673.5L1688.54,673.21L1670.74,665.76L1670.74,1475.8L1733.72,1502.13L1733.72,1486.85" style="fill:rgb(22,33,45);fill-rule:nonzero;"/>
        </g>
        <g transform="matrix(1,0,0,1,-615.83,387.538)">
            <path d="M1689.25,673.5L1688.54,673.21L1670.74,665.76L1670.74,1475.8L1733.72,1502.13L1733.72,1486.85" style="fill:none;fill-rule:nonzero;stroke:rgb(22,33,45);stroke-width:4px;"/>
        </g>
        <g transform="matrix(1,0,0,1,-615.83,387.538)">
            <path d="M1889.44,1550.69L1889.44,1207.26L1889.64,1207.34L1889.64,755.72L1877.99,750.85L1877.99,1091.33L1877.79,1091.25L1877.79,1545.79L1889.44,1550.69Z" style="fill:rgb(22,33,45);fill-rule:nonzero;stroke:rgb(22,33,45);stroke-width:2px;"/>
        </g>
        <g transform="matrix(1,0,0,1,-615.83,387.538)">
            <path d="M1733.72,1486.85L1689.25,1468.26L1689.25,673.5L1733.72,692.1L1733.72,1486.85Z" style="fill:rgb(22,33,45);fill-rule:nonzero;stroke:rgb(22,33,45);stroke-width:2px;"/>
        </g>
        <g transform="matrix(1,0,0,1,-615.83,387.538)">
            <path d="M1550.18,1411.69L1548.9,1411.16" style="fill:none;fill-rule:nonzero;stroke:rgb(22,33,45);stroke-width:2px;"/>
        </g>
        <g transform="matrix(1,0,0,1,-615.83,387.538)">
            <path d="M1534.43,610L1534.43,609.47" style="fill:none;fill-rule:nonzero;stroke:rgb(22,33,45);stroke-width:2px;"/>
        </g>
        <g transform="matrix(1,0,0,1,-615.83,387.538)">
            <path d="M1548.9,1411.16L1534.43,1405.11L1534.43,610L1548.9,616.05L1548.9,1411.16Z" style="fill:rgb(22,33,45);fill-rule:nonzero;stroke:rgb(22,33,45);stroke-width:2px;"/>
        </g>
        <g transform="matrix(1,0,0,1,-615.83,387.538)">
            <path d="M1681.52,1121.27L1681.52,685.45C1681.52,682.84 1679.96,680.49 1677.55,679.47L1519.39,612.93C1515.32,611.31 1512.16,613.52 1502.05,618.69C1491.59,624.04 1487.92,624.07 1487.92,629.33L1487.92,852.96C1487.92,855.61 1489.5,858 1491.94,859.03L1510.39,866.83L1510.39,906.74L1503.45,903.82C1499.11,901.99 1494.31,905.18 1494.31,909.89L1494.31,1133.52C1494.31,1133.84 1494.34,1134.16 1494.38,1134.47L1494.38,1345.34C1494.38,1347.99 1495.96,1350.38 1498.4,1351.41L1510.38,1356.47L1510.38,1399.13L1506.69,1397.57C1505.75,1397.17 1504.19,1397.09 1502.47,1397.71C1498.2,1399.25 1491.87,1402.52 1488.46,1404.36C1487.02,1405.14 1486.9,1407.6 1486.9,1408.59L1486.9,1415.74C1486.9,1418.39 1488.51,1420.78 1490.96,1421.77L1649.07,1485.94C1653.26,1487.64 1663.14,1481.12 1667.03,1479.31C1668.44,1478.65 1677.54,1474.95 1680.22,1472.66C1681.24,1471.79 1681.5,1470.24 1681.5,1468.75L1681.5,1244.83C1681.5,1244.51 1681.47,1244.2 1681.43,1243.89L1681.43,1122.24C1681.47,1121.94 1681.5,1121.62 1681.5,1121.31L1681.52,1121.27Z" style="fill:rgb(22,33,45);fill-rule:nonzero;stroke:rgb(22,33,45);stroke-width:4px;"/>
        </g>
        <g transform="matrix(1,0,0,1,-615.83,387.538)">
            <path d="M1649.9,925.77L1491.94,859.02C1489.5,857.99 1487.92,855.6 1487.92,852.95L1487.92,629.32C1487.92,624.61 1492.72,621.42 1497.06,623.25L1655.02,689.71C1657.46,690.74 1659.05,693.13 1659.05,695.78L1659.05,919.7C1659.05,924.41 1654.24,927.6 1649.9,925.77Z" style="fill:rgb(87,87,92);fill-rule:nonzero;stroke:rgb(22,33,45);stroke-width:4px;"/>
        </g>
        <g transform="matrix(1,0,0,1,-615.83,387.538)">
            <path d="M1654.08,1469.54L1495.97,1402.57C1491.68,1400.75 1486.92,1403.9 1486.92,1408.57L1486.92,1415.72C1486.92,1418.37 1488.53,1420.76 1490.98,1421.75L1649.09,1485.92C1653.37,1487.66 1658.05,1484.51 1658.05,1479.89L1658.05,1475.54C1658.05,1472.93 1656.49,1470.56 1654.08,1469.54Z" style="fill:rgb(87,87,92);fill-rule:nonzero;stroke:rgb(22,33,45);stroke-width:4px;"/>
        </g>
        <g transform="matrix(1,0,0,1,-615.83,387.538)">
            <path d="M1649.04,1421.7L1490.88,1354.71C1488.48,1353.69 1486.93,1351.34 1486.93,1348.74L1486.93,913.37C1486.93,908.73 1491.65,905.6 1495.93,907.39L1654.09,973.93C1656.49,974.94 1658.06,977.3 1658.06,979.91L1658.06,1415.73C1658.06,1420.37 1653.32,1423.51 1649.05,1421.7L1649.04,1421.7Z" style="fill:rgb(87,87,92);fill-rule:nonzero;stroke:rgb(22,33,45);stroke-width:4px;"/>
        </g>
        <g transform="matrix(1,0,0,1,-615.83,387.538)">
            <path d="M1489.86,907.92L1497.67,904.14" style="fill:none;fill-rule:nonzero;stroke:rgb(22,33,45);stroke-width:4px;"/>
        </g>
        <g transform="matrix(1,0,0,1,-615.83,387.538)">
            <path d="M1491.35,623.55C1491.54,623.45 1491.73,623.35 1491.93,623.27L1491.35,623.55Z" style="fill:white;fill-rule:nonzero;"/>
        </g>
        <g transform="matrix(1,0,0,1,-615.83,387.538)">
            <path d="M1491.35,623.55C1491.54,623.45 1491.73,623.35 1491.93,623.27" style="fill:none;fill-rule:nonzero;stroke:rgb(22,33,45);stroke-width:4px;"/>
        </g>
        <g transform="matrix(1,0,0,1,-615.83,387.538)">
            <path d="M1491.35,623.55L1491.93,623.27" style="fill:none;fill-rule:nonzero;stroke:rgb(22,33,45);stroke-width:4px;"/>
        </g>
        <g transform="matrix(1,0,0,1,-615.83,387.538)">
            <path d="M1491.31,623.57L1491.35,623.55" style="fill:none;fill-rule:nonzero;stroke:rgb(22,33,45);stroke-width:4px;"/>
        </g>
        <g transform="matrix(1,0,0,1,-615.83,387.538)">
            <path d="M1654.69,925.86L1656.14,925.17" style="fill:none;fill-rule:nonzero;stroke:rgb(22,33,45);stroke-width:4px;"/>
        </g>
        <g transform="matrix(1,0,0,1,-615.83,387.538)">
            <path d="M1502.73,1397.02L1489.8,1403.1" style="fill:none;fill-rule:nonzero;stroke:rgb(22,33,45);stroke-width:4px;"/>
        </g>
        <g transform="matrix(1,0,0,1,-615.83,387.538)">
            <path d="M1497.67,904.14L1490.14,907.77" style="fill:none;fill-rule:nonzero;stroke:rgb(22,33,45);stroke-width:4px;"/>
        </g>
        <g transform="matrix(1,0,0,1,-615.83,387.538)">
            <path d="M1656.14,925.17C1654.39,926.34 1652.09,926.69 1649.91,925.77L1497.68,861.44L1497.68,904.14C1499.32,903.24 1501.35,903.04 1503.29,903.85L1661.45,970.39C1663.85,971.4 1665.42,973.76 1665.42,976.37L1665.42,920.69L1656.14,925.17Z" style="fill:rgb(87,87,92);fill-rule:nonzero;stroke:rgb(22,33,45);stroke-width:4px;"/>
        </g>
        <g transform="matrix(1,0,0,1,-615.83,387.538)">
            <path d="M1654.95,1421.25L1653.62,1421.87C1652.2,1422.35 1650.59,1422.35 1649.04,1421.69L1502.73,1359.72L1502.73,1397.02C1503.99,1396.73 1505.37,1396.82 1506.7,1397.38L1664.81,1464.35C1667.22,1465.37 1668.78,1467.73 1668.78,1470.35L1668.78,1414.75L1654.95,1421.25Z" style="fill:rgb(87,87,92);fill-rule:nonzero;stroke:rgb(22,33,45);stroke-width:4px;"/>
        </g>
        <g transform="matrix(1,0,0,1,-615.83,387.538)">
            <path d="M1490.16,1402.94L1502.73,1397.02" style="fill:none;fill-rule:nonzero;stroke:rgb(22,33,45);stroke-width:4px;"/>
        </g>
        <g transform="matrix(1,0,0,1,-615.83,387.538)">
            <path d="M1538.06,952.97C1536.66,949.39 1534.19,946.72 1531.58,945.54C1531.46,945.57 1531.34,945.6 1531.23,945.65C1528.18,946.85 1527.13,951.42 1528.87,955.87C1530.62,960.32 1534.5,962.95 1537.55,961.75C1538.08,961.54 1538.54,961.23 1538.95,960.83C1539.39,958.49 1539.14,955.71 1538.06,952.96L1538.06,952.97Z" style="fill:rgb(22,33,45);fill-rule:nonzero;stroke:rgb(22,33,45);stroke-width:2px;"/>
        </g>
        <g transform="matrix(1,0,0,1,-615.83,387.538)">
            <path d="M1531.58,945.54C1534.2,946.71 1536.66,949.39 1538.06,952.97C1539.14,955.72 1539.39,958.5 1538.95,960.84" style="fill:rgb(22,33,45);fill-rule:nonzero;"/>
        </g>
        <g transform="matrix(1,0,0,1,-615.83,387.538)">
            <path d="M1531.58,945.54C1534.2,946.71 1536.66,949.39 1538.06,952.97C1539.14,955.72 1539.39,958.5 1538.95,960.84" style="fill:none;fill-rule:nonzero;stroke:rgb(22,33,45);stroke-width:2px;"/>
        </g>
        <g transform="matrix(1,0,0,1,-615.83,387.538)">
            <path d="M1538.95,960.84C1538.55,961.23 1538.08,961.55 1537.55,961.76C1534.5,962.96 1530.61,960.32 1528.87,955.88C1527.12,951.43 1528.18,946.86 1531.23,945.66C1531.35,945.61 1531.46,945.59 1531.58,945.55C1529.94,944.81 1528.23,944.66 1526.69,945.27C1522.7,946.84 1521.31,952.83 1523.6,958.65C1525.89,964.47 1530.98,967.93 1534.97,966.36C1537.08,965.53 1538.45,963.47 1538.95,960.85L1538.95,960.84Z" style="fill:rgb(22,33,45);fill-rule:nonzero;stroke:rgb(22,33,45);stroke-width:2px;"/>
        </g>
        <g transform="matrix(1,0,0,1,-615.83,387.538)">
            <path d="M1537.93,1272.8C1536.53,1269.22 1534.06,1266.55 1531.45,1265.37C1531.33,1265.4 1531.21,1265.43 1531.1,1265.48C1528.05,1266.68 1527,1271.25 1528.74,1275.7C1530.49,1280.15 1534.37,1282.78 1537.42,1281.58C1537.95,1281.37 1538.41,1281.06 1538.82,1280.66C1539.26,1278.32 1539.01,1275.54 1537.93,1272.79L1537.93,1272.8Z" style="fill:rgb(22,33,45);fill-rule:nonzero;stroke:rgb(22,33,45);stroke-width:2px;"/>
        </g>
        <g transform="matrix(1,0,0,1,-615.83,387.538)">
            <path d="M1531.45,1265.38C1534.07,1266.55 1536.53,1269.23 1537.93,1272.81C1539.01,1275.56 1539.26,1278.34 1538.82,1280.68" style="fill:rgb(22,33,45);fill-rule:nonzero;"/>
        </g>
        <g transform="matrix(1,0,0,1,-615.83,387.538)">
            <path d="M1531.45,1265.38C1534.07,1266.55 1536.53,1269.23 1537.93,1272.81C1539.01,1275.56 1539.26,1278.34 1538.82,1280.68" style="fill:none;fill-rule:nonzero;stroke:rgb(22,33,45);stroke-width:2px;"/>
        </g>
        <g transform="matrix(1,0,0,1,-615.83,387.538)">
            <path d="M1538.82,1280.67C1538.42,1281.06 1537.95,1281.38 1537.42,1281.59C1534.37,1282.79 1530.48,1280.15 1528.74,1275.71C1526.99,1271.26 1528.05,1266.69 1531.1,1265.49C1531.22,1265.44 1531.33,1265.42 1531.45,1265.38C1529.81,1264.64 1528.1,1264.49 1526.56,1265.1C1522.57,1266.67 1521.18,1272.66 1523.47,1278.48C1525.76,1284.3 1530.85,1287.76 1534.84,1286.19C1536.95,1285.36 1538.32,1283.3 1538.82,1280.68L1538.82,1280.67Z" style="fill:rgb(22,33,45);fill-rule:nonzero;stroke:rgb(22,33,45);stroke-width:2px;"/>
        </g>
        <g transform="matrix(1,0,0,1,-615.83,387.538)">
            <path d="M1601.81,1380.3C1599.85,1380.94 1598.39,1382.59 1597.56,1384.82C1598.39,1382.59 1599.84,1380.94 1601.81,1380.3C1606.3,1378.83 1611.75,1383.19 1613.98,1390.03C1616.02,1396.27 1614.67,1402.41 1611.01,1404.55L1627.91,1397.35C1632.4,1395.88 1634.23,1389.15 1631.99,1382.31C1629.79,1375.59 1624.5,1371.28 1620.06,1372.52L1601.81,1380.29L1601.81,1380.3Z" style="fill:rgb(220,220,220);fill-rule:nonzero;"/>
        </g>
        <g transform="matrix(1,0,0,1,-615.83,387.538)">
            <path d="M1601.81,1380.3C1599.85,1380.94 1598.39,1382.59 1597.56,1384.82C1598.39,1382.59 1599.84,1380.94 1601.81,1380.3ZM1601.81,1380.3C1606.3,1378.83 1611.75,1383.19 1613.98,1390.03C1616.02,1396.27 1614.67,1402.41 1611.01,1404.55L1627.91,1397.35C1632.4,1395.88 1634.23,1389.15 1631.99,1382.31C1629.79,1375.59 1624.5,1371.28 1620.06,1372.52L1601.81,1380.29L1601.81,1380.3Z" style="fill:none;fill-rule:nonzero;stroke:rgb(22,33,45);stroke-width:2px;"/>
        </g>
        <g transform="matrix(1,0,0,1,-615.83,387.538)">
            <path d="M1614.01,1390.06C1611.78,1383.22 1606.32,1378.87 1601.84,1380.33C1599.88,1380.97 1598.42,1382.62 1597.59,1384.85C1597.47,1385.17 1597.37,1385.5 1597.27,1385.84C1597.09,1386.52 1596.95,1387.24 1596.88,1388C1596.84,1388.38 1596.82,1388.76 1596.81,1389.15C1596.76,1391.11 1597.06,1393.24 1597.76,1395.37C1597.9,1395.8 1598.05,1396.22 1598.22,1396.62C1599.2,1399.05 1600.59,1401.11 1602.17,1402.62C1602.17,1402.62 1602.18,1402.63 1602.19,1402.64C1604.51,1404.83 1607.23,1405.84 1609.69,1405.16L1611.04,1404.59C1614.7,1402.45 1616.05,1396.31 1614.01,1390.07L1614.01,1390.06ZM1606.55,1402.3C1603.56,1403.28 1599.92,1400.37 1598.43,1395.82C1596.94,1391.26 1598.16,1386.77 1601.15,1385.8C1604.14,1384.83 1607.78,1387.73 1609.27,1392.28C1610.76,1396.83 1609.54,1401.33 1606.55,1402.31L1606.55,1402.3Z" style="fill:rgb(220,220,220);fill-rule:nonzero;stroke:rgb(22,33,45);stroke-width:2px;"/>
        </g>
        <g transform="matrix(1,0,0,1,-615.83,387.538)">
            <path d="M1606.61,1402.15C1609.6,1401.17 1610.82,1396.68 1609.33,1392.13C1607.84,1387.57 1604.21,1384.67 1601.22,1385.65C1598.22,1386.63 1597.01,1391.11 1598.5,1395.67C1599.98,1400.23 1603.62,1403.13 1606.61,1402.15Z" style="fill:rgb(220,220,220);fill-rule:nonzero;stroke:rgb(22,33,45);stroke-width:2px;"/>
        </g>
        <g transform="matrix(1,0,0,1,-615.83,387.538)">
            <path d="M1619.84,989.33C1620.12,989.19 1620.4,989.06 1620.7,988.96L1619.84,989.33Z" style="fill:rgb(220,220,220);fill-rule:nonzero;"/>
        </g>
        <g transform="matrix(1,0,0,1,-615.83,387.538)">
            <path d="M1619.84,989.33C1620.12,989.19 1620.4,989.06 1620.7,988.96" style="fill:none;fill-rule:nonzero;stroke:rgb(22,33,45);stroke-width:2px;"/>
        </g>
        <g transform="matrix(1,0,0,1,-615.83,387.538)">
            <path d="M1619.84,989.33L1620.7,988.96" style="fill:none;fill-rule:nonzero;stroke:rgb(22,33,45);stroke-width:2px;"/>
        </g>
        <g transform="matrix(1,0,0,1,-615.83,387.538)">
            <path d="M1632.88,998.69C1630.65,991.85 1625.19,987.5 1620.71,988.96L1619.85,989.33L1593.68,1000.48C1589.19,1001.95 1587.36,1008.68 1589.6,1015.52C1591.83,1022.36 1597.29,1026.71 1601.77,1025.25C1602.07,1025.15 1602.35,1025.03 1602.63,1024.88L1628.8,1013.73C1633.29,1012.26 1635.12,1005.53 1632.88,998.69Z" style="fill:rgb(220,220,220);fill-rule:nonzero;stroke:rgb(22,33,45);stroke-width:2px;"/>
        </g>
        <g transform="matrix(1,0,0,1,-615.83,387.538)">
            <path d="M1601.8,1025.09C1606.29,1023.63 1608.11,1016.89 1605.88,1010.05C1603.64,1003.21 1598.19,998.856 1593.7,1000.32C1589.21,1001.79 1587.39,1008.52 1589.62,1015.36C1591.86,1022.2 1597.31,1026.56 1601.8,1025.09Z" style="fill:rgb(220,220,220);fill-rule:nonzero;stroke:rgb(22,33,45);stroke-width:2px;"/>
        </g>
        <g transform="matrix(1,0,0,1,-615.83,387.538)">
            <path d="M1598.41,1022.29C1601.4,1021.32 1602.62,1016.83 1601.13,1012.27C1599.64,1007.72 1596.01,1004.81 1593.02,1005.79C1590.03,1006.77 1588.81,1011.26 1590.3,1015.81C1591.79,1020.37 1595.42,1023.27 1598.41,1022.29Z" style="fill:rgb(220,220,220);fill-rule:nonzero;stroke:rgb(22,33,45);stroke-width:2px;"/>
        </g>
        <g transform="matrix(1,0,0,1,-615.83,387.538)">
            <path d="M1507.76,865.7L1512.6,867.74L1512.6,629.79L1507.76,627.75L1507.76,865.7Z" style="fill:white;fill-rule:nonzero;"/>
        </g>
        <g transform="matrix(1,0,0,1,-615.83,387.538)">
            <path d="M1507.76,912.37L1507.76,941.92L1492.79,935.59C1491.7,935.13 1490.45,935.64 1489.99,936.73C1489.53,937.82 1490.04,939.07 1491.13,939.53L1507.77,946.57L1507.77,995.66L1512.61,997.7L1512.61,914.4L1507.77,912.37L1507.76,912.37Z" style="fill:white;fill-rule:nonzero;"/>
        </g>
        <g transform="matrix(1,0,0,1,-615.83,387.538)">
            <path d="M1507.76,1177.27L1507.76,1262.63L1493.14,1256.44C1492.05,1255.98 1490.8,1256.49 1490.34,1257.58C1489.88,1258.67 1490.39,1259.92 1491.48,1260.38L1507.77,1267.27L1507.77,1361.85L1512.61,1363.9L1512.61,1179.3L1507.77,1177.27L1507.76,1177.27Z" style="fill:white;fill-rule:nonzero;"/>
        </g>
        <g transform="matrix(1,0,0,1,-615.83,387.538)">
            <path d="M1566.24,1151.37L1552.63,1147.99L1539.03,1150.81L1539.03,1152.77L1552.74,1157.07L1566.24,1153.33L1566.24,1151.37Z" style="fill:rgb(22,33,45);fill-rule:nonzero;stroke:rgb(22,33,45);stroke-width:4px;"/>
        </g>
        <g transform="matrix(1,0,0,1,-615.83,387.538)">
            <path d="M1552.74,1153.53L1539.03,1149.23L1552.63,1146.42L1566.24,1149.79L1552.74,1153.53Z" style="fill:rgb(255,214,0);fill-rule:nonzero;stroke:rgb(255,214,0);stroke-width:4px;"/>
        </g>
        <g transform="matrix(1,0,0,1,-615.83,387.538)">
            <path d="M1566.24,1144.25L1552.63,1140.88L1539.03,1143.69L1539.03,1145.65L1552.74,1149.96L1566.24,1146.21L1566.24,1144.25Z" style="fill:rgb(22,33,45);fill-rule:nonzero;stroke:rgb(22,33,45);stroke-width:4px;"/>
        </g>
        <g transform="matrix(1,0,0,1,-615.83,387.538)">
            <path d="M1552.74,1146.42L1539.03,1142.11L1552.63,1139.3L1566.24,1142.67L1552.74,1146.42Z" style="fill:rgb(255,214,0);fill-rule:nonzero;stroke:rgb(255,214,0);stroke-width:4px;"/>
        </g>
        <g transform="matrix(1,0,0,1,-615.83,387.538)">
            <path d="M1566.24,1137.13L1552.63,1133.76L1539.03,1136.57L1539.03,1138.53L1552.74,1142.84L1566.24,1139.09L1566.24,1137.13Z" style="fill:rgb(22,33,45);fill-rule:nonzero;stroke:rgb(22,33,45);stroke-width:4px;"/>
        </g>
        <g transform="matrix(1,0,0,1,-615.83,387.538)">
            <path d="M1552.74,1139.3L1539.03,1134.99L1552.63,1132.18L1566.24,1135.55L1552.74,1139.3Z" style="fill:rgb(255,214,0);fill-rule:nonzero;stroke:rgb(255,214,0);stroke-width:4px;"/>
        </g>
        <g transform="matrix(1,0,0,1,-615.83,387.538)">
            <path d="M1566.24,1130.01L1552.63,1126.64L1539.03,1129.45L1539.03,1131.41L1552.74,1135.72L1566.24,1131.98L1566.24,1130.01Z" style="fill:rgb(22,33,45);fill-rule:nonzero;stroke:rgb(22,33,45);stroke-width:4px;"/>
        </g>
        <g transform="matrix(1,0,0,1,-615.83,387.538)">
            <path d="M1552.74,1132.18L1539.03,1127.87L1552.63,1125.06L1566.24,1128.44L1552.74,1132.18Z" style="fill:rgb(255,214,0);fill-rule:nonzero;stroke:rgb(255,214,0);stroke-width:4px;"/>
        </g>
        <g transform="matrix(1,0,0,1,-615.83,387.538)">
            <path d="M1566.24,1122.9L1552.63,1119.52L1539.03,1122.34L1539.03,1124.3L1552.74,1128.6L1566.24,1124.86L1566.24,1122.9Z" style="fill:rgb(22,33,45);fill-rule:nonzero;stroke:rgb(22,33,45);stroke-width:4px;"/>
        </g>
        <g transform="matrix(1,0,0,1,-615.83,387.538)">
            <path d="M1552.74,1125.06L1539.03,1120.76L1552.63,1117.94L1566.24,1121.32L1552.74,1125.06Z" style="fill:rgb(255,214,0);fill-rule:nonzero;stroke:rgb(255,214,0);stroke-width:4px;"/>
        </g>
        <g transform="matrix(1,0,0,1,-615.83,387.538)">
            <path d="M1566.24,1115.78L1552.63,1112.4L1539.03,1115.22L1539.03,1117.18L1552.74,1121.48L1566.24,1117.74L1566.24,1115.78Z" style="fill:rgb(22,33,45);fill-rule:nonzero;stroke:rgb(22,33,45);stroke-width:4px;"/>
        </g>
        <g transform="matrix(1,0,0,1,-615.83,387.538)">
            <path d="M1552.74,1117.94L1539.03,1113.64L1552.63,1110.82L1566.24,1114.2L1552.74,1117.94Z" style="fill:rgb(255,214,0);fill-rule:nonzero;stroke:rgb(255,214,0);stroke-width:4px;"/>
        </g>
        <g transform="matrix(1,0,0,1,-615.83,387.538)">
            <path d="M1566.24,1108.66L1552.63,1105.29L1539.03,1108.1L1539.03,1110.06L1552.74,1114.36L1566.24,1110.62L1566.24,1108.66Z" style="fill:rgb(22,33,45);fill-rule:nonzero;stroke:rgb(22,33,45);stroke-width:4px;"/>
        </g>
        <g transform="matrix(1,0,0,1,-615.83,387.538)">
            <path d="M1552.74,1110.82L1539.03,1106.52L1552.63,1103.71L1566.24,1107.08L1552.74,1110.82Z" style="fill:rgb(255,214,0);fill-rule:nonzero;stroke:rgb(255,214,0);stroke-width:4px;"/>
        </g>
        <g transform="matrix(1,0,0,1,-615.83,387.538)">
            <path d="M1566.24,1101.54L1552.63,1098.17L1539.03,1100.98L1539.03,1102.94L1552.74,1107.25L1566.24,1103.5L1566.24,1101.54Z" style="fill:rgb(22,33,45);fill-rule:nonzero;stroke:rgb(22,33,45);stroke-width:4px;"/>
        </g>
        <g transform="matrix(1,0,0,1,-615.83,387.538)">
            <path d="M1552.74,1103.71L1539.03,1099.4L1552.63,1096.59L1566.24,1099.96L1552.74,1103.71Z" style="fill:rgb(255,214,0);fill-rule:nonzero;stroke:rgb(255,214,0);stroke-width:4px;"/>
        </g>
        <g transform="matrix(1,0,0,1,-615.83,387.538)">
            <path d="M1566.24,1094.42L1552.63,1091.05L1539.03,1093.86L1539.03,1095.82L1552.74,1100.13L1566.24,1096.39L1566.24,1094.42Z" style="fill:rgb(22,33,45);fill-rule:nonzero;stroke:rgb(22,33,45);stroke-width:4px;"/>
        </g>
        <g transform="matrix(1,0,0,1,-615.83,387.538)">
            <path d="M1552.74,1096.59L1539.03,1092.28L1552.63,1089.47L1566.24,1092.85L1552.74,1096.59Z" style="fill:rgb(255,214,0);fill-rule:nonzero;stroke:rgb(255,214,0);stroke-width:4px;"/>
        </g>
        <g transform="matrix(1,0,0,1,-615.83,387.538)">
            <path d="M1566.24,1087.56L1552.63,1084.19L1539.03,1087L1539.03,1088.96L1552.74,1093.27L1566.24,1089.53L1566.24,1087.56Z" style="fill:rgb(22,33,45);fill-rule:nonzero;stroke:rgb(22,33,45);stroke-width:4px;"/>
        </g>
        <g transform="matrix(1,0,0,1,-615.83,387.538)">
            <path d="M1552.74,1089.47L1539.03,1085.17L1552.63,1082.35L1566.24,1085.73L1552.74,1089.47Z" style="fill:rgb(255,214,0);fill-rule:nonzero;stroke:rgb(255,214,0);stroke-width:4px;"/>
        </g>
        <g transform="matrix(1,0,0,1,-615.83,387.538)">
            <path d="M1552.63,1069.32L1539.03,1072.14L1539.03,1081.86L1552.74,1086.16L1566.24,1082.42L1566.24,1072.7L1552.63,1069.32Z" style="fill:rgb(22,33,45);fill-rule:nonzero;stroke:rgb(22,33,45);stroke-width:4px;"/>
        </g>
        <g transform="matrix(1,0,0,1,-615.83,387.538)">
            <path d="M1552.74,1074.49L1539.03,1070.18L1552.63,1067.37L1566.24,1070.74L1552.74,1074.49Z" style="fill:rgb(255,214,0);fill-rule:nonzero;stroke:rgb(255,214,0);stroke-width:4px;"/>
        </g>
        <g transform="matrix(1,0,0,1,-615.83,387.538)">
            <path d="M1566.24,1062.63L1552.63,1059.25L1539.03,1062.06L1539.03,1066.98L1552.74,1071.28L1566.24,1067.54L1566.24,1062.63Z" style="fill:rgb(22,33,45);fill-rule:nonzero;stroke:rgb(22,33,45);stroke-width:4px;"/>
        </g>
        <g transform="matrix(1,0,0,1,-615.83,387.538)">
            <path d="M1844.92,1560.86C1845.3,1560.73 1845.67,1560.56 1846.02,1560.36L1844.92,1560.86Z" style="fill:white;fill-rule:nonzero;"/>
        </g>
        <g transform="matrix(1,0,0,1,-615.83,387.538)">
            <path d="M1844.92,1560.86C1845.3,1560.73 1845.67,1560.56 1846.02,1560.36" style="fill:none;fill-rule:nonzero;stroke:rgb(22,33,45);stroke-width:4px;"/>
        </g>
        <g transform="matrix(1,0,0,1,-615.83,387.538)">
            <path d="M1846.01,1560.36L1844.92,1560.86" style="fill:none;fill-rule:nonzero;stroke:rgb(22,33,45);stroke-width:4px;"/>
        </g>
        <g transform="matrix(1,0,0,1,-615.83,387.538)">
            <path d="M1694.89,691.07L1696.26,690.41" style="fill:none;fill-rule:nonzero;stroke:rgb(22,33,45);stroke-width:4px;"/>
        </g>
        <g transform="matrix(1,0,0,1,-615.83,387.538)">
            <path d="M1696.26,690.41L1696.35,690.36" style="fill:none;fill-rule:nonzero;stroke:rgb(22,33,45);stroke-width:4px;"/>
        </g>
        <g transform="matrix(1,0,0,1,-615.83,387.538)">
            <path d="M1859.51,834.29L1859.8,834.16" style="fill:none;fill-rule:nonzero;stroke:rgb(22,33,45);stroke-width:4px;"/>
        </g>
        <g transform="matrix(1,0,0,1,-615.83,387.538)">
            <path d="M1859.51,834.29L1859.14,834.45" style="fill:none;fill-rule:nonzero;stroke:rgb(22,33,45);stroke-width:4px;"/>
        </g>
        <g transform="matrix(1,0,0,1,-615.83,387.538)">
            <path d="M1859.14,834.45C1859.26,834.4 1859.39,834.35 1859.51,834.28L1859.14,834.45Z" style="fill:white;fill-rule:nonzero;"/>
        </g>
        <g transform="matrix(1,0,0,1,-615.83,387.538)">
            <path d="M1859.14,834.45C1859.26,834.4 1859.39,834.35 1859.51,834.28" style="fill:none;fill-rule:nonzero;stroke:rgb(22,33,45);stroke-width:4px;"/>
        </g>
        <g transform="matrix(1,0,0,1,-615.83,387.538)">
            <path d="M1694.89,691.07C1695.32,690.8 1695.78,690.58 1696.26,690.41L1694.89,691.07Z" style="fill:white;fill-rule:nonzero;"/>
        </g>
        <g transform="matrix(1,0,0,1,-615.83,387.538)">
            <path d="M1694.89,691.07C1695.32,690.8 1695.78,690.58 1696.26,690.41" style="fill:none;fill-rule:nonzero;stroke:rgb(22,33,45);stroke-width:4px;"/>
        </g>
        <g transform="matrix(1,0,0,1,-615.83,387.538)">
            <path d="M1859.01,842.21L1705.78,777.74L1700.92,775.69C1700.43,775.48 1699.94,775.36 1699.45,775.27C1699.38,775.26 1699.32,775.24 1699.25,775.23C1699.1,775.21 1698.96,775.21 1698.82,775.2C1698.68,775.19 1698.53,775.18 1698.39,775.18C1698.29,775.18 1698.19,775.18 1698.09,775.19C1697.9,775.19 1697.71,775.21 1697.53,775.23C1697.47,775.23 1697.4,775.25 1697.34,775.26C1697.12,775.3 1696.9,775.34 1696.68,775.4C1696.65,775.4 1696.62,775.42 1696.58,775.43C1696.33,775.5 1696.09,775.59 1695.86,775.69L1695.84,775.69C1695.33,775.91 1694.84,776.19 1694.4,776.53L1691.86,777.68L1674.83,785.36L1674.85,785.39C1672.5,786.33 1670.73,788.6 1670.73,791.44L1670.73,920.28C1670.73,922.9 1672.3,925.27 1674.71,926.29L1680.7,928.82L1680.7,971.02L1675.04,973.57C1672.59,974.46 1670.73,976.78 1670.73,979.7L1670.73,1414.31C1670.73,1416.92 1672.3,1419.29 1674.7,1420.3L1680.7,1422.84L1680.7,1466.51L1674.47,1469.32L1674.49,1469.32C1672.32,1470.35 1670.73,1472.54 1670.73,1475.24L1670.73,1491.66C1670.73,1494.29 1672.31,1496.66 1674.73,1497.68L1832.79,1564.1C1834.44,1564.79 1836.15,1564.75 1837.63,1564.18L1837.69,1564.15C1837.92,1564.06 1838.14,1563.96 1838.36,1563.84L1844.89,1560.86L1845.99,1560.36C1847.17,1559.69 1852.16,1557.97 1856.92,1555.37C1860.95,1553.17 1862.98,1552.32 1862.98,1548.32L1862.98,848.2C1862.98,845.58 1861.41,843.22 1859,842.2L1859.01,842.21Z" style="fill:rgb(22,33,45);fill-rule:nonzero;stroke:rgb(22,33,45);stroke-width:4px;"/>
        </g>
        <g transform="matrix(1,0,0,1,-615.83,387.538)">
            <path d="M1859.07,757.12L1700.88,690.57C1699.31,689.91 1697.69,689.92 1696.26,690.41L1694.89,691.07L1674.9,700.71C1672.53,701.64 1670.74,703.92 1670.74,706.77L1670.74,771.38C1670.74,773.95 1672.28,776.28 1674.65,777.28L1832.97,844.18C1835.22,845.13 1837.59,844.69 1839.32,843.38L1859.14,834.44L1859.51,834.27C1861.53,833.23 1862.99,831.13 1862.99,828.57L1862.99,763C1862.99,760.42 1861.44,758.1 1859.07,757.1L1859.07,757.12Z" style="fill:rgb(22,33,45);fill-rule:nonzero;stroke:rgb(22,33,45);stroke-width:4px;"/>
        </g>
        <g transform="matrix(1,0,0,1,-615.83,387.538)">
            <path d="M1845.82,1483.53L1845.31,1483.76L1838.45,1486.87C1836.81,1487.75 1834.78,1487.94 1832.85,1487.13L1680.73,1422.85L1680.73,1466.52L1681.08,1466.36L1683.14,1465.43C1684.46,1465.09 1685.9,1465.15 1687.3,1465.74L1845.36,1532.54C1847.76,1533.56 1849.33,1535.9 1849.35,1538.51L1849.35,1477.77C1849.35,1480.36 1847.88,1482.48 1845.84,1483.54L1845.82,1483.53Z" style="fill:rgb(87,87,92);fill-rule:nonzero;stroke:rgb(22,33,45);stroke-width:4px;"/>
        </g>
        <g transform="matrix(1,0,0,1,-615.83,387.538)">
            <path d="M1838.89,992.57C1837.17,993.68 1834.94,994 1832.82,993.1L1680.72,928.82L1680.72,971.02L1681.65,970.6L1682.53,970.2C1683.98,969.68 1685.64,969.66 1687.24,970.33L1845.36,1036.85C1847.77,1037.87 1849.34,1040.23 1849.34,1042.85L1849.34,987.72L1838.89,992.56L1838.89,992.57Z" style="fill:rgb(87,87,92);fill-rule:nonzero;stroke:rgb(22,33,45);stroke-width:4px;"/>
        </g>
        <g transform="matrix(1,0,0,1,-615.83,387.538)">
            <path d="M1832.82,993.1L1674.73,926.29C1672.32,925.27 1670.75,922.9 1670.75,920.28L1670.75,791.44C1670.75,786.77 1675.51,783.62 1679.81,785.43L1837.9,852.24C1840.31,853.26 1841.88,855.63 1841.88,858.25L1841.88,987.09C1841.88,991.76 1837.12,994.91 1832.82,993.1Z" style="fill:rgb(87,87,92);fill-rule:nonzero;stroke:rgb(22,33,45);stroke-width:4px;"/>
        </g>
        <g transform="matrix(1,0,0,1,-615.83,387.538)">
            <path d="M1832.83,1487.13L1674.71,1420.31C1672.3,1419.29 1670.74,1416.93 1670.74,1414.32L1670.74,979.71C1670.74,975.06 1675.48,971.91 1679.77,973.71L1837.89,1040.23C1840.3,1041.25 1841.87,1043.61 1841.87,1046.23L1841.87,1481.14C1841.87,1485.8 1837.12,1488.95 1832.83,1487.13Z" style="fill:rgb(87,87,92);fill-rule:nonzero;stroke:rgb(22,33,45);stroke-width:4px;"/>
        </g>
        <g transform="matrix(1,0,0,1,-615.83,387.538)">
            <path d="M1832.97,844.19L1674.65,777.29C1672.28,776.29 1670.74,773.96 1670.74,771.39L1670.74,706.78C1670.74,702.13 1675.48,698.99 1679.76,700.79L1837.95,767.34C1840.33,768.34 1841.87,770.67 1841.87,773.24L1841.87,838.29C1841.87,842.87 1837.19,845.98 1832.97,844.19Z" style="fill:rgb(87,87,92);fill-rule:nonzero;stroke:rgb(22,33,45);stroke-width:4px;"/>
        </g>
        <g transform="matrix(1,0,0,1,-615.83,387.538)">
            <path d="M1777.49,1055.65C1777.77,1055.51 1778.05,1055.38 1778.35,1055.28L1777.49,1055.65Z" style="fill:rgb(220,220,220);fill-rule:nonzero;"/>
        </g>
        <g transform="matrix(1,0,0,1,-615.83,387.538)">
            <path d="M1777.49,1055.65C1777.77,1055.51 1778.05,1055.38 1778.35,1055.28" style="fill:none;fill-rule:nonzero;stroke:rgb(22,33,45);stroke-width:2px;"/>
        </g>
        <g transform="matrix(1,0,0,1,-615.83,387.538)">
            <path d="M1777.49,1055.65L1778.35,1055.28" style="fill:none;fill-rule:nonzero;stroke:rgb(22,33,45);stroke-width:2px;"/>
        </g>
        <g transform="matrix(1,0,0,1,-615.83,387.538)">
            <path d="M1790.53,1065.01C1788.3,1058.17 1782.84,1053.82 1778.36,1055.28L1777.5,1055.65L1751.33,1066.8C1746.84,1068.27 1745.01,1075 1747.25,1081.84C1749.48,1088.68 1754.94,1093.03 1759.42,1091.57C1759.72,1091.47 1760,1091.35 1760.28,1091.2L1786.45,1080.05C1790.94,1078.58 1792.77,1071.85 1790.53,1065.01Z" style="fill:rgb(220,220,220);fill-rule:nonzero;stroke:rgb(22,33,45);stroke-width:2px;"/>
        </g>
        <g transform="matrix(1,0,0,1,-615.83,387.538)">
            <path d="M1759.45,1091.4C1763.94,1089.94 1765.77,1083.2 1763.53,1076.36C1761.29,1069.52 1755.84,1065.17 1751.35,1066.63C1746.87,1068.1 1745.04,1074.83 1747.28,1081.67C1749.51,1088.52 1754.96,1092.87 1759.45,1091.4Z" style="fill:rgb(220,220,220);fill-rule:nonzero;stroke:rgb(22,33,45);stroke-width:2px;"/>
        </g>
        <g transform="matrix(1,0,0,1,-615.83,387.538)">
            <path d="M1756.06,1088.59C1759.06,1087.62 1760.27,1083.13 1758.78,1078.57C1757.3,1074.02 1753.66,1071.11 1750.67,1072.09C1747.68,1073.07 1746.46,1077.56 1747.95,1082.11C1749.44,1086.67 1753.07,1089.57 1756.06,1088.59Z" style="fill:rgb(220,220,220);fill-rule:nonzero;stroke:rgb(22,33,45);stroke-width:2px;"/>
        </g>
        <g transform="matrix(1,0,0,1,-615.83,387.538)">
            <path d="M1759.95,1447.48C1757.99,1448.12 1756.53,1449.77 1755.7,1452C1756.53,1449.77 1757.98,1448.12 1759.95,1447.48C1764.44,1446.01 1769.89,1450.37 1772.12,1457.21C1774.16,1463.45 1772.81,1469.59 1769.15,1471.73L1786.05,1464.53C1790.54,1463.06 1792.37,1456.33 1790.13,1449.49C1787.93,1442.77 1782.64,1438.46 1778.2,1439.7L1759.95,1447.47L1759.95,1447.48Z" style="fill:rgb(220,220,220);fill-rule:nonzero;"/>
        </g>
        <g transform="matrix(1,0,0,1,-615.83,387.538)">
            <path d="M1759.95,1447.48C1757.99,1448.12 1756.53,1449.77 1755.7,1452C1756.53,1449.77 1757.98,1448.12 1759.95,1447.48ZM1759.95,1447.48C1764.44,1446.01 1769.89,1450.37 1772.12,1457.21C1774.16,1463.45 1772.81,1469.59 1769.15,1471.73L1786.05,1464.53C1790.54,1463.06 1792.37,1456.33 1790.13,1449.49C1787.93,1442.77 1782.64,1438.46 1778.2,1439.7L1759.95,1447.47L1759.95,1447.48Z" style="fill:none;fill-rule:nonzero;stroke:rgb(22,33,45);stroke-width:2px;"/>
        </g>
        <g transform="matrix(1,0,0,1,-615.83,387.538)">
            <path d="M1772.15,1457.24C1769.92,1450.4 1764.46,1446.05 1759.98,1447.51C1758.02,1448.15 1756.56,1449.8 1755.73,1452.03C1755.61,1452.35 1755.51,1452.68 1755.41,1453.02C1755.23,1453.7 1755.09,1454.42 1755.02,1455.18C1754.98,1455.56 1754.96,1455.94 1754.95,1456.33C1754.9,1458.29 1755.2,1460.42 1755.9,1462.55C1756.04,1462.98 1756.19,1463.4 1756.36,1463.8C1757.34,1466.23 1758.73,1468.29 1760.31,1469.8C1760.31,1469.8 1760.32,1469.81 1760.33,1469.82C1762.65,1472.01 1765.37,1473.02 1767.83,1472.34L1769.18,1471.77C1772.84,1469.63 1774.19,1463.49 1772.15,1457.25L1772.15,1457.24ZM1764.69,1469.48C1761.7,1470.46 1758.06,1467.55 1756.57,1463C1755.08,1458.44 1756.3,1453.95 1759.29,1452.98C1762.28,1452.01 1765.92,1454.91 1767.41,1459.46C1768.9,1464.01 1767.68,1468.51 1764.69,1469.49L1764.69,1469.48ZM1764.69,1469.48C1761.7,1470.46 1758.06,1467.55 1756.57,1463C1755.08,1458.44 1756.3,1453.95 1759.29,1452.98C1762.28,1452.01 1765.92,1454.91 1767.41,1459.46C1768.9,1464.01 1767.68,1468.51 1764.69,1469.49L1764.69,1469.48Z" style="fill:rgb(220,220,220);fill-rule:nonzero;stroke:rgb(22,33,45);stroke-width:2px;"/>
        </g>
        <g transform="matrix(1,0,0,1,-615.83,387.538)">
            <path d="M1695.82,1339.54C1694.42,1335.96 1691.95,1333.29 1689.34,1332.11C1689.22,1332.14 1689.1,1332.17 1688.99,1332.22C1685.94,1333.42 1684.89,1337.99 1686.63,1342.44C1688.38,1346.89 1692.26,1349.52 1695.31,1348.32C1695.84,1348.11 1696.3,1347.8 1696.71,1347.4C1697.15,1345.06 1696.9,1342.28 1695.82,1339.53L1695.82,1339.54Z" style="fill:rgb(22,33,45);fill-rule:nonzero;stroke:rgb(22,33,45);stroke-width:2px;"/>
        </g>
        <g transform="matrix(1,0,0,1,-615.83,387.538)">
            <path d="M1689.34,1332.11C1691.96,1333.28 1694.42,1335.96 1695.82,1339.54C1696.9,1342.29 1697.15,1345.07 1696.71,1347.41" style="fill:rgb(22,33,45);fill-rule:nonzero;"/>
        </g>
        <g transform="matrix(1,0,0,1,-615.83,387.538)">
            <path d="M1689.34,1332.11C1691.96,1333.28 1694.42,1335.96 1695.82,1339.54C1696.9,1342.29 1697.15,1345.07 1696.71,1347.41" style="fill:none;fill-rule:nonzero;stroke:rgb(22,33,45);stroke-width:2px;"/>
        </g>
        <g transform="matrix(1,0,0,1,-615.83,387.538)">
            <path d="M1696.71,1347.41C1696.31,1347.8 1695.84,1348.12 1695.31,1348.33C1692.26,1349.53 1688.37,1346.89 1686.63,1342.45C1684.88,1338 1685.94,1333.43 1688.99,1332.23C1689.11,1332.18 1689.22,1332.16 1689.34,1332.12C1687.7,1331.38 1685.99,1331.23 1684.45,1331.84C1680.46,1333.41 1679.07,1339.4 1681.36,1345.22C1683.65,1351.04 1688.74,1354.5 1692.73,1352.93C1694.84,1352.1 1696.21,1350.04 1696.71,1347.42L1696.71,1347.41Z" style="fill:rgb(22,33,45);fill-rule:nonzero;stroke:rgb(22,33,45);stroke-width:2px;"/>
        </g>
        <g transform="matrix(1,0,0,1,-615.83,387.538)">
            <path d="M1695.29,1018.24C1693.89,1014.66 1691.42,1011.99 1688.81,1010.81C1688.69,1010.84 1688.57,1010.87 1688.46,1010.92C1685.41,1012.12 1684.36,1016.69 1686.1,1021.14C1687.85,1025.59 1691.73,1028.22 1694.78,1027.02C1695.31,1026.81 1695.77,1026.5 1696.18,1026.1C1696.62,1023.76 1696.37,1020.98 1695.29,1018.23L1695.29,1018.24Z" style="fill:rgb(22,33,45);fill-rule:nonzero;stroke:rgb(22,33,45);stroke-width:2px;"/>
        </g>
        <g transform="matrix(1,0,0,1,-615.83,387.538)">
            <path d="M1688.8,1010.81C1691.42,1011.98 1693.88,1014.66 1695.28,1018.24C1696.36,1020.99 1696.61,1023.77 1696.17,1026.11" style="fill:rgb(22,33,45);fill-rule:nonzero;"/>
        </g>
        <g transform="matrix(1,0,0,1,-615.83,387.538)">
            <path d="M1688.8,1010.81C1691.42,1011.98 1693.88,1014.66 1695.28,1018.24C1696.36,1020.99 1696.61,1023.77 1696.17,1026.11" style="fill:none;fill-rule:nonzero;stroke:rgb(22,33,45);stroke-width:2px;"/>
        </g>
        <g transform="matrix(1,0,0,1,-615.83,387.538)">
            <path d="M1696.17,1026.11C1695.77,1026.5 1695.3,1026.82 1694.77,1027.03C1691.72,1028.23 1687.83,1025.59 1686.09,1021.15C1684.34,1016.7 1685.4,1012.13 1688.45,1010.93C1688.57,1010.88 1688.68,1010.86 1688.8,1010.82C1687.16,1010.08 1685.45,1009.93 1683.91,1010.54C1679.92,1012.11 1678.53,1018.1 1680.82,1023.92C1683.11,1029.74 1688.2,1033.2 1692.19,1031.63C1694.3,1030.8 1695.67,1028.74 1696.17,1026.12L1696.17,1026.11Z" style="fill:rgb(22,33,45);fill-rule:nonzero;stroke:rgb(22,33,45);stroke-width:2px;"/>
        </g>
        <g transform="matrix(1,0,0,1,-615.83,387.538)">
            <path d="M1816.12,837.07L1820.41,839.14L1820.41,760.22L1816.12,758.15L1816.12,837.07Z" style="fill:white;fill-rule:nonzero;"/>
        </g>
        <g transform="matrix(1,0,0,1,-615.83,387.538)">
            <path d="M1816.12,986.04L1820.41,987.86L1820.41,844.86L1816.12,843.05L1816.12,986.04Z" style="fill:white;fill-rule:nonzero;"/>
        </g>
        <g transform="matrix(1,0,0,1,-615.83,387.538)">
            <path d="M1835.99,1081.14L1820.41,1073.94L1820.41,1032.88L1816.12,1031.07L1816.12,1125.87L1820.41,1127.68L1820.41,1079.26L1833.96,1085.52C1835.17,1086.08 1836.61,1085.55 1837.16,1084.34C1837.72,1083.13 1837.19,1081.69 1835.98,1081.14L1835.99,1081.14Z" style="fill:white;fill-rule:nonzero;"/>
        </g>
        <g transform="matrix(1,0,0,1,-615.83,387.538)">
            <path d="M1835.81,1401.65L1820.41,1394.53L1820.41,1309.13L1816.12,1307.32L1816.12,1480.06L1820.41,1481.87L1820.41,1399.84L1833.78,1406.02C1834.99,1406.58 1836.43,1406.05 1836.98,1404.84C1837.54,1403.63 1837.01,1402.19 1835.8,1401.64L1835.81,1401.65Z" style="fill:white;fill-rule:nonzero;"/>
        </g>
        <g transform="matrix(1,0,0,1,-615.83,387.538)">
            <path d="M1764.76,1469.31C1767.75,1468.34 1768.97,1463.85 1767.48,1459.29C1765.99,1454.74 1762.35,1451.83 1759.36,1452.81C1756.37,1453.79 1755.15,1458.28 1756.64,1462.83C1758.13,1467.39 1761.76,1470.29 1764.76,1469.31Z" style="fill:rgb(220,220,220);fill-rule:nonzero;stroke:rgb(22,33,45);stroke-width:2px;"/>
        </g>
        <g transform="matrix(1,0,0,1,-615.83,387.538)">
            <path d="M1723.39,1219.77L1709.78,1216.39L1696.17,1219.21L1696.17,1221.17L1709.89,1225.47L1723.39,1221.73L1723.39,1219.77Z" style="fill:rgb(22,33,45);fill-rule:nonzero;stroke:rgb(22,33,45);stroke-width:4px;"/>
        </g>
        <g transform="matrix(1,0,0,1,-615.83,387.538)">
            <path d="M1709.89,1221.93L1696.17,1217.63L1709.78,1214.81L1723.39,1218.19L1709.89,1221.93Z" style="fill:rgb(255,214,0);fill-rule:nonzero;stroke:rgb(255,214,0);stroke-width:4px;"/>
        </g>
        <g transform="matrix(1,0,0,1,-615.83,387.538)">
            <path d="M1723.39,1212.65L1709.78,1209.28L1696.17,1212.09L1696.17,1214.05L1709.89,1218.35L1723.39,1214.61L1723.39,1212.65Z" style="fill:rgb(22,33,45);fill-rule:nonzero;stroke:rgb(22,33,45);stroke-width:4px;"/>
        </g>
        <g transform="matrix(1,0,0,1,-615.83,387.538)">
            <path d="M1709.89,1214.81L1696.17,1210.51L1709.78,1207.7L1723.39,1211.07L1709.89,1214.81Z" style="fill:rgb(255,214,0);fill-rule:nonzero;stroke:rgb(255,214,0);stroke-width:4px;"/>
        </g>
        <g transform="matrix(1,0,0,1,-615.83,387.538)">
            <path d="M1723.39,1205.53L1709.78,1202.16L1696.17,1204.97L1696.17,1206.93L1709.89,1211.24L1723.39,1207.49L1723.39,1205.53Z" style="fill:rgb(22,33,45);fill-rule:nonzero;stroke:rgb(22,33,45);stroke-width:4px;"/>
        </g>
        <g transform="matrix(1,0,0,1,-615.83,387.538)">
            <path d="M1709.89,1207.7L1696.17,1203.39L1709.78,1200.58L1723.39,1203.95L1709.89,1207.7Z" style="fill:rgb(255,214,0);fill-rule:nonzero;stroke:rgb(255,214,0);stroke-width:4px;"/>
        </g>
        <g transform="matrix(1,0,0,1,-615.83,387.538)">
            <path d="M1723.39,1198.41L1709.78,1195.04L1696.17,1197.85L1696.17,1199.81L1709.89,1204.12L1723.39,1200.37L1723.39,1198.41Z" style="fill:rgb(22,33,45);fill-rule:nonzero;stroke:rgb(22,33,45);stroke-width:4px;"/>
        </g>
        <g transform="matrix(1,0,0,1,-615.83,387.538)">
            <path d="M1709.89,1200.58L1696.17,1196.27L1709.78,1193.46L1723.39,1196.84L1709.89,1200.58Z" style="fill:rgb(255,214,0);fill-rule:nonzero;stroke:rgb(255,214,0);stroke-width:4px;"/>
        </g>
        <g transform="matrix(1,0,0,1,-615.83,387.538)">
            <path d="M1723.39,1191.3L1709.78,1187.92L1696.17,1190.73L1696.17,1192.7L1709.89,1197L1723.39,1193.26L1723.39,1191.3Z" style="fill:rgb(22,33,45);fill-rule:nonzero;stroke:rgb(22,33,45);stroke-width:4px;"/>
        </g>
        <g transform="matrix(1,0,0,1,-615.83,387.538)">
            <path d="M1709.89,1193.46L1696.17,1189.16L1709.78,1186.34L1723.39,1189.72L1709.89,1193.46Z" style="fill:rgb(255,214,0);fill-rule:nonzero;stroke:rgb(255,214,0);stroke-width:4px;"/>
        </g>
        <g transform="matrix(1,0,0,1,-615.83,387.538)">
            <path d="M1723.39,1184.18L1709.78,1180.8L1696.17,1183.62L1696.17,1185.58L1709.89,1189.88L1723.39,1186.14L1723.39,1184.18Z" style="fill:rgb(22,33,45);fill-rule:nonzero;stroke:rgb(22,33,45);stroke-width:4px;"/>
        </g>
        <g transform="matrix(1,0,0,1,-615.83,387.538)">
            <path d="M1709.89,1186.34L1696.17,1182.04L1709.78,1179.22L1723.39,1182.6L1709.89,1186.34Z" style="fill:rgb(255,214,0);fill-rule:nonzero;stroke:rgb(255,214,0);stroke-width:4px;"/>
        </g>
        <g transform="matrix(1,0,0,1,-615.83,387.538)">
            <path d="M1723.39,1177.06L1709.78,1173.68L1696.17,1176.5L1696.17,1178.46L1709.89,1182.76L1723.39,1179.02L1723.39,1177.06Z" style="fill:rgb(22,33,45);fill-rule:nonzero;stroke:rgb(22,33,45);stroke-width:4px;"/>
        </g>
        <g transform="matrix(1,0,0,1,-615.83,387.538)">
            <path d="M1709.89,1179.22L1696.17,1174.92L1709.78,1172.11L1723.39,1175.48L1709.89,1179.22Z" style="fill:rgb(255,214,0);fill-rule:nonzero;stroke:rgb(255,214,0);stroke-width:4px;"/>
        </g>
        <g transform="matrix(1,0,0,1,-615.83,387.538)">
            <path d="M1723.39,1169.94L1709.78,1166.57L1696.17,1169.38L1696.17,1171.34L1709.89,1175.65L1723.39,1171.9L1723.39,1169.94Z" style="fill:rgb(22,33,45);fill-rule:nonzero;stroke:rgb(22,33,45);stroke-width:4px;"/>
        </g>
        <g transform="matrix(1,0,0,1,-615.83,387.538)">
            <path d="M1709.89,1172.11L1696.17,1167.8L1709.78,1164.99L1723.39,1168.36L1709.89,1172.11Z" style="fill:rgb(255,214,0);fill-rule:nonzero;stroke:rgb(255,214,0);stroke-width:4px;"/>
        </g>
        <g transform="matrix(1,0,0,1,-615.83,387.538)">
            <path d="M1723.39,1162.82L1709.78,1159.45L1696.17,1162.26L1696.17,1164.22L1709.89,1168.53L1723.39,1164.78L1723.39,1162.82Z" style="fill:rgb(22,33,45);fill-rule:nonzero;stroke:rgb(22,33,45);stroke-width:4px;"/>
        </g>
        <g transform="matrix(1,0,0,1,-615.83,387.538)">
            <path d="M1709.89,1164.99L1696.17,1160.68L1709.78,1157.87L1723.39,1161.24L1709.89,1164.99Z" style="fill:rgb(255,214,0);fill-rule:nonzero;stroke:rgb(255,214,0);stroke-width:4px;"/>
        </g>
        <g transform="matrix(1,0,0,1,-615.83,387.538)">
            <path d="M1723.39,1155.96L1709.78,1152.59L1696.17,1155.4L1696.17,1157.36L1709.89,1161.67L1723.39,1157.92L1723.39,1155.96Z" style="fill:rgb(22,33,45);fill-rule:nonzero;stroke:rgb(22,33,45);stroke-width:4px;"/>
        </g>
        <g transform="matrix(1,0,0,1,-615.83,387.538)">
            <path d="M1709.89,1157.87L1696.17,1153.57L1709.78,1150.75L1723.39,1154.13L1709.89,1157.87Z" style="fill:rgb(255,214,0);fill-rule:nonzero;stroke:rgb(255,214,0);stroke-width:4px;"/>
        </g>
        <g transform="matrix(1,0,0,1,-615.83,387.538)">
            <path d="M1709.78,1137.72L1696.17,1140.53L1696.17,1150.26L1709.89,1154.56L1723.39,1150.82L1723.39,1141.1L1709.78,1137.72Z" style="fill:rgb(22,33,45);fill-rule:nonzero;stroke:rgb(22,33,45);stroke-width:4px;"/>
        </g>
        <g transform="matrix(1,0,0,1,-615.83,387.538)">
            <path d="M1709.89,1142.89L1696.17,1138.58L1709.78,1135.77L1723.39,1139.14L1709.89,1142.89Z" style="fill:rgb(255,214,0);fill-rule:nonzero;stroke:rgb(255,214,0);stroke-width:4px;"/>
        </g>
        <g transform="matrix(1,0,0,1,-615.83,387.538)">
            <path d="M1723.39,1131.03L1709.78,1127.65L1696.17,1130.46L1696.17,1135.38L1709.89,1139.68L1723.39,1135.94L1723.39,1131.03Z" style="fill:rgb(22,33,45);fill-rule:nonzero;stroke:rgb(22,33,45);stroke-width:4px;"/>
        </g>
        <g transform="matrix(1,0,0,1,-615.83,387.538)">
            <path d="M1837.88,1536.02L1679.82,1469.22C1675.51,1467.4 1670.74,1470.56 1670.74,1475.24L1670.74,1491.66C1670.74,1494.29 1672.32,1496.66 1674.74,1497.68L1832.8,1564.1C1837.11,1565.91 1841.86,1562.75 1841.86,1558.08L1841.86,1542.05C1841.86,1539.42 1840.29,1537.05 1837.87,1536.03L1837.88,1536.02Z" style="fill:rgb(87,87,92);fill-rule:nonzero;stroke:rgb(22,33,45);stroke-width:4px;"/>
        </g>
        <g transform="matrix(1,0,0,1,-2431.33,389.976)">
            <g transform="matrix(1,0,0,1,2431.33,-389.976)">
                <path d="M481.047,1366.25L462.297,1403.75L443.547,1366.25L481.047,1366.25Z" style="fill:rgb(0,108,250);"/>
                <path d="M462.297,969.854L462.297,1373.75" style="fill:none;stroke:rgb(0,108,250);stroke-width:12.5px;stroke-miterlimit:1.5;"/>
            </g>
        </g>
        <g transform="matrix(1,0,0,1,-2240.77,1451.18)">
            <g transform="matrix(1,0,0,1,2240.77,-1451.18)">
                <path d="M919.489,1630.7L956.665,1611.32L949.866,1652.69L919.489,1630.7Z" style="fill:rgb(0,108,250);"/>
                <path d="M652.854,2031.05C652.854,2031.05 874.307,1725.1 939.075,1635.62" style="fill:none;stroke:rgb(0,108,250);stroke-width:12.5px;stroke-miterlimit:1.5;"/>
            </g>
        </g>
        <g transform="matrix(1,0,0,1,-1111.17,1957.68)">
            <g transform="matrix(1,0,0,1,1111.17,-1957.68)">
                <path d="M1451.2,2028.41L1447.75,1986.63L1483.25,2008.94L1451.2,2028.41Z" style="fill:rgb(0,108,250);"/>
                <path d="M1782.46,2537.55C1782.46,2537.55 1529.32,2120.89 1463.33,2012.27" style="fill:none;stroke:rgb(0,108,250);stroke-width:12.5px;stroke-miterlimit:1.5;"/>
            </g>
        </g>
        <g transform="matrix(1,0,0,1,-2240.77,1451.18)">
            <g transform="matrix(1,0,0,1,2240.77,-1451.18)">
                <path d="M1098.92,1705L1140.48,1699.41L1120.01,1736.01L1098.92,1705Z" style="fill:rgb(0,108,250);"/>
                <path d="M652.854,2031.05C652.854,2031.05 1016.37,1783.82 1115.67,1716.28" style="fill:none;stroke:rgb(0,108,250);stroke-width:12.5px;stroke-miterlimit:1.5;"/>
            </g>
        </g>
        <g transform="matrix(1,0,0,1,-2094.79,443.65)">
            <g transform="matrix(1,0,0,1,2437.68,487.178)">
                <path d="M28.638,-29.059L48.615,-29.059L48.615,-2.197C45.807,-1.257 42.905,-0.534 39.908,-0.027C36.911,0.479 33.539,0.732 29.791,0.732C24.347,0.732 19.742,-0.348 15.976,-2.509C12.21,-4.669 9.351,-7.803 7.397,-11.911C5.444,-16.019 4.468,-20.984 4.468,-26.807C4.468,-32.385 5.554,-37.231 7.727,-41.345C9.9,-45.459 13.062,-48.648 17.212,-50.912C21.362,-53.177 26.392,-54.309 32.3,-54.309C35.205,-54.309 38.016,-54.019 40.732,-53.439C43.448,-52.859 45.941,-52.075 48.212,-51.086L45.135,-43.835C43.329,-44.678 41.306,-45.392 39.066,-45.978C36.826,-46.564 34.497,-46.857 32.08,-46.857C28.247,-46.857 24.945,-46.027 22.174,-44.366C19.403,-42.706 17.273,-40.372 15.784,-37.363C14.294,-34.354 13.55,-30.798 13.55,-26.697C13.55,-22.717 14.148,-19.226 15.344,-16.223C16.541,-13.22 18.414,-10.88 20.966,-9.201C23.517,-7.523 26.819,-6.683 30.872,-6.683C32.886,-6.683 34.604,-6.793 36.026,-7.013C37.448,-7.233 38.757,-7.483 39.954,-7.764L39.954,-21.552L28.638,-21.552L28.638,-29.059Z" style="fill:rgb(0,108,250);fill-rule:nonzero;"/>
                <path d="M76.556,-41.29C81.696,-41.29 85.577,-40.155 88.202,-37.885C90.826,-35.614 92.139,-32.08 92.139,-27.283L92.139,0L86.023,0L84.357,-5.75L84.064,-5.75C82.916,-4.285 81.732,-3.073 80.511,-2.115C79.291,-1.157 77.884,-0.443 76.291,0.027C74.698,0.497 72.754,0.732 70.459,0.732C68.03,0.732 65.863,0.287 63.959,-0.604C62.054,-1.495 60.556,-2.853 59.464,-4.678C58.371,-6.503 57.825,-8.82 57.825,-11.627C57.825,-15.802 59.381,-18.942 62.494,-21.048C65.607,-23.154 70.313,-24.31 76.611,-24.518L83.624,-24.774L83.624,-26.898C83.624,-29.706 82.971,-31.708 81.665,-32.904C80.359,-34.1 78.528,-34.698 76.172,-34.698C74.133,-34.698 72.162,-34.406 70.258,-33.82C68.353,-33.234 66.498,-32.52 64.691,-31.677L61.908,-37.756C63.898,-38.794 66.153,-39.642 68.674,-40.302C71.194,-40.961 73.822,-41.29 76.556,-41.29ZM83.588,-19.373L78.369,-19.171C74.06,-19.025 71.042,-18.292 69.315,-16.974C67.587,-15.656 66.724,-13.849 66.724,-11.554C66.724,-9.552 67.322,-8.096 68.518,-7.187C69.714,-6.277 71.289,-5.823 73.242,-5.823C76.221,-5.823 78.69,-6.671 80.649,-8.368C82.608,-10.065 83.588,-12.555 83.588,-15.839L83.588,-19.373Z" style="fill:rgb(0,108,250);fill-rule:nonzero;"/>
                <path d="M123.468,-41.29C128.033,-41.29 131.592,-40.112 134.143,-37.756C136.694,-35.4 137.97,-31.622 137.97,-26.422L137.97,0L129.382,0L129.382,-24.829C129.382,-27.966 128.735,-30.322 127.441,-31.897C126.147,-33.472 124.146,-34.259 121.436,-34.259C117.505,-34.259 114.777,-33.051 113.251,-30.634C111.725,-28.217 110.962,-24.719 110.962,-20.142L110.962,0L102.338,0L102.338,-40.54L109.058,-40.54L110.266,-35.028L110.742,-35.028C111.609,-36.444 112.698,-37.613 114.011,-38.535C115.323,-39.456 116.788,-40.146 118.405,-40.604C120.023,-41.061 121.71,-41.29 123.468,-41.29Z" style="fill:rgb(0,108,250);fill-rule:nonzero;"/>
                <path d="M163.44,-6.207C164.551,-6.207 165.659,-6.311 166.763,-6.519C167.868,-6.726 168.872,-6.982 169.775,-7.288L169.775,-0.769C168.823,-0.342 167.59,0.015 166.077,0.302C164.563,0.589 162.982,0.732 161.334,0.732C159.052,0.732 156.992,0.348 155.154,-0.421C153.317,-1.19 151.862,-2.512 150.787,-4.385C149.713,-6.259 149.176,-8.862 149.176,-12.195L149.176,-33.966L143.646,-33.966L143.646,-37.811L149.597,-40.869L152.417,-49.548L157.819,-49.548L157.819,-40.54L169.427,-40.54L169.427,-33.966L157.819,-33.966L157.819,-12.286C157.819,-10.248 158.331,-8.725 159.357,-7.718C160.382,-6.711 161.743,-6.207 163.44,-6.207Z" style="fill:rgb(0,108,250);fill-rule:nonzero;"/>
                <path d="M195.612,-41.29C196.295,-41.29 197.043,-41.254 197.855,-41.18C198.666,-41.107 199.359,-41.01 199.933,-40.887L199.127,-32.831C198.615,-32.977 197.989,-33.09 197.25,-33.17C196.512,-33.249 195.844,-33.289 195.245,-33.289C193.719,-33.289 192.261,-33.035 190.869,-32.529C189.478,-32.022 188.245,-31.262 187.17,-30.249C186.096,-29.236 185.251,-27.972 184.634,-26.459C184.018,-24.945 183.71,-23.187 183.71,-21.185L183.71,0L175.067,0L175.067,-40.54L181.824,-40.54L182.977,-33.398L183.38,-33.398C184.198,-34.839 185.202,-36.157 186.392,-37.354C187.582,-38.55 188.953,-39.505 190.503,-40.219C192.053,-40.933 193.756,-41.29 195.612,-41.29Z" style="fill:rgb(0,108,250);fill-rule:nonzero;"/>
                <path d="M199.622,-40.54L208.997,-40.54L217.291,-17.377C217.67,-16.327 218.011,-15.298 218.317,-14.291C218.622,-13.284 218.89,-12.292 219.122,-11.316C219.354,-10.339 219.537,-9.363 219.672,-8.386L219.91,-8.386C220.154,-9.656 220.499,-11.075 220.944,-12.643C221.39,-14.212 221.893,-15.796 222.455,-17.395L230.438,-40.54L239.703,-40.54L222.308,5.566C221.32,8.215 220.096,10.471 218.637,12.332C217.178,14.194 215.463,15.61 213.492,16.58C211.52,17.551 209.259,18.036 206.708,18.036C205.499,18.036 204.443,17.969 203.54,17.834C202.637,17.7 201.862,17.554 201.215,17.395L201.215,10.529C201.74,10.651 202.39,10.76 203.165,10.858C203.94,10.956 204.749,11.005 205.591,11.005C207.129,11.005 208.456,10.696 209.573,10.08C210.69,9.464 211.639,8.603 212.421,7.498C213.202,6.393 213.849,5.133 214.362,3.717L215.79,-0.11L199.622,-40.54Z" style="fill:rgb(0,108,250);fill-rule:nonzero;"/>
            </g>
        </g>
        <g transform="matrix(1,0,0,1,-2095.86,1642.31)">
            <g transform="matrix(1,0,0,1,2289.18,487.178)">
                <path d="M22.577,-53.54C29.486,-53.54 34.531,-52.124 37.711,-49.292C40.891,-46.46 42.48,-42.487 42.48,-37.372C42.48,-35.065 42.117,-32.867 41.391,-30.78C40.665,-28.693 39.487,-26.846 37.857,-25.241C36.227,-23.636 34.073,-22.369 31.393,-21.442C28.714,-20.514 25.421,-20.05 21.515,-20.05L15.82,-20.05L15.82,0L7.031,0L7.031,-53.54L22.577,-53.54ZM21.991,-46.234L15.82,-46.234L15.82,-27.374L20.599,-27.374C23.37,-27.374 25.717,-27.698 27.64,-28.345C29.562,-28.992 31.024,-30.026 32.025,-31.448C33.026,-32.87 33.527,-34.735 33.527,-37.042C33.527,-40.143 32.593,-42.45 30.725,-43.964C28.857,-45.477 25.946,-46.234 21.991,-46.234Z" style="fill:rgb(0,108,250);fill-rule:nonzero;"/>
                <path d="M59.875,-40.54L59.875,0L51.251,0L51.251,-40.54L59.875,-40.54ZM55.609,-56.067C56.94,-56.067 58.084,-55.713 59.042,-55.005C60.001,-54.297 60.48,-53.076 60.48,-51.343C60.48,-49.634 60.001,-48.416 59.042,-47.69C58.084,-46.964 56.94,-46.6 55.609,-46.6C54.242,-46.6 53.088,-46.964 52.148,-47.69C51.208,-48.416 50.739,-49.634 50.739,-51.343C50.739,-53.076 51.208,-54.297 52.148,-55.005C53.088,-55.713 54.242,-56.067 55.609,-56.067Z" style="fill:rgb(0,108,250);fill-rule:nonzero;"/>
                <path d="M91.003,-41.29C95.813,-41.29 99.673,-39.532 102.585,-36.017C105.496,-32.501 106.952,-27.283 106.952,-20.361C106.952,-15.759 106.274,-11.893 104.919,-8.762C103.564,-5.63 101.675,-3.265 99.252,-1.666C96.829,-0.067 94.006,0.732 90.784,0.732C88.733,0.732 86.951,0.467 85.437,-0.064C83.923,-0.595 82.629,-1.297 81.555,-2.17C80.481,-3.043 79.572,-3.986 78.827,-4.999L78.314,-4.999C78.448,-4.034 78.568,-2.96 78.671,-1.776C78.775,-0.592 78.827,0.494 78.827,1.483L78.827,17.981L70.184,17.981L70.184,-40.54L77.234,-40.54L78.424,-34.918L78.827,-34.918C79.584,-36.078 80.505,-37.143 81.592,-38.113C82.678,-39.084 83.997,-39.856 85.547,-40.43C87.097,-41.003 88.916,-41.29 91.003,-41.29ZM88.678,-34.259C86.31,-34.259 84.415,-33.789 82.993,-32.849C81.57,-31.909 80.533,-30.502 79.88,-28.629C79.227,-26.755 78.876,-24.396 78.827,-21.552L78.827,-20.361C78.827,-17.346 79.138,-14.795 79.761,-12.708C80.383,-10.62 81.421,-9.033 82.874,-7.947C84.326,-6.86 86.298,-6.317 88.788,-6.317C90.887,-6.317 92.627,-6.891 94.006,-8.038C95.386,-9.186 96.417,-10.822 97.101,-12.946C97.784,-15.07 98.126,-17.578 98.126,-20.471C98.126,-24.841 97.354,-28.232 95.81,-30.643C94.266,-33.054 91.888,-34.259 88.678,-34.259Z" style="fill:rgb(0,108,250);fill-rule:nonzero;"/>
                <path d="M132.239,-41.29C135.84,-41.29 138.934,-40.549 141.522,-39.066C144.11,-37.582 146.1,-35.471 147.491,-32.73C148.883,-29.99 149.579,-26.715 149.579,-22.906L149.579,-18.311L122.516,-18.311C122.614,-14.38 123.672,-11.349 125.693,-9.219C127.713,-7.089 130.542,-6.024 134.18,-6.024C136.755,-6.024 139.075,-6.274 141.138,-6.775C143.201,-7.275 145.331,-8.02 147.528,-9.009L147.528,-2.014C145.502,-1.062 143.439,-0.366 141.339,0.073C139.24,0.513 136.725,0.732 133.795,0.732C129.816,0.732 126.318,-0.04 123.303,-1.584C120.288,-3.128 117.935,-5.438 116.245,-8.514C114.554,-11.591 113.708,-15.411 113.708,-19.977C113.708,-24.53 114.478,-28.394 116.016,-31.567C117.554,-34.741 119.711,-37.155 122.488,-38.809C125.266,-40.463 128.516,-41.29 132.239,-41.29ZM132.239,-34.827C129.529,-34.827 127.335,-33.948 125.656,-32.19C123.978,-30.432 122.992,-27.856 122.699,-24.463L141.156,-24.463C141.132,-26.489 140.796,-28.281 140.149,-29.837C139.502,-31.393 138.528,-32.614 137.228,-33.499C135.928,-34.384 134.265,-34.827 132.239,-34.827Z" style="fill:rgb(0,108,250);fill-rule:nonzero;"/>
                <path d="M173.291,-6.207C174.402,-6.207 175.51,-6.311 176.614,-6.519C177.719,-6.726 178.723,-6.982 179.626,-7.288L179.626,-0.769C178.674,-0.342 177.441,0.015 175.928,0.302C174.414,0.589 172.833,0.732 171.185,0.732C168.903,0.732 166.843,0.348 165.005,-0.421C163.168,-1.19 161.713,-2.512 160.638,-4.385C159.564,-6.259 159.027,-8.862 159.027,-12.195L159.027,-33.966L153.497,-33.966L153.497,-37.811L159.448,-40.869L162.268,-49.548L167.67,-49.548L167.67,-40.54L179.279,-40.54L179.279,-33.966L167.67,-33.966L167.67,-12.286C167.67,-10.248 168.182,-8.725 169.208,-7.718C170.233,-6.711 171.594,-6.207 173.291,-6.207Z" style="fill:rgb(0,108,250);fill-rule:nonzero;"/>
                <path d="M200.024,-6.207C201.135,-6.207 202.243,-6.311 203.348,-6.519C204.453,-6.726 205.457,-6.982 206.36,-7.288L206.36,-0.769C205.408,-0.342 204.175,0.015 202.661,0.302C201.147,0.589 199.567,0.732 197.919,0.732C195.636,0.732 193.576,0.348 191.739,-0.421C189.902,-1.19 188.446,-2.512 187.372,-4.385C186.298,-6.259 185.76,-8.862 185.76,-12.195L185.76,-33.966L180.231,-33.966L180.231,-37.811L186.182,-40.869L189.001,-49.548L194.403,-49.548L194.403,-40.54L206.012,-40.54L206.012,-33.966L194.403,-33.966L194.403,-12.286C194.403,-10.248 194.916,-8.725 195.941,-7.718C196.967,-6.711 198.328,-6.207 200.024,-6.207Z" style="fill:rgb(0,108,250);fill-rule:nonzero;"/>
                <path d="M227.82,-41.29C231.421,-41.29 234.515,-40.549 237.103,-39.066C239.691,-37.582 241.681,-35.471 243.073,-32.73C244.464,-29.99 245.16,-26.715 245.16,-22.906L245.16,-18.311L218.097,-18.311C218.195,-14.38 219.254,-11.349 221.274,-9.219C223.294,-7.089 226.123,-6.024 229.761,-6.024C232.336,-6.024 234.656,-6.274 236.719,-6.775C238.782,-7.275 240.912,-8.02 243.109,-9.009L243.109,-2.014C241.083,-1.062 239.02,-0.366 236.92,0.073C234.821,0.513 232.306,0.732 229.376,0.732C225.397,0.732 221.899,-0.04 218.884,-1.584C215.869,-3.128 213.516,-5.438 211.826,-8.514C210.135,-11.591 209.29,-15.411 209.29,-19.977C209.29,-24.53 210.059,-28.394 211.597,-31.567C213.135,-34.741 215.292,-37.155 218.069,-38.809C220.847,-40.463 224.097,-41.29 227.82,-41.29ZM227.82,-34.827C225.11,-34.827 222.916,-33.948 221.237,-32.19C219.559,-30.432 218.573,-27.856 218.28,-24.463L236.737,-24.463C236.713,-26.489 236.377,-28.281 235.73,-29.837C235.083,-31.393 234.109,-32.614 232.809,-33.499C231.509,-34.384 229.846,-34.827 227.82,-34.827Z" style="fill:rgb(0,108,250);fill-rule:nonzero;"/>
                <path d="M297.253,0L281.818,-44.696L281.506,-44.696C281.58,-43.695 281.662,-42.331 281.754,-40.604C281.845,-38.876 281.927,-37.021 282.001,-35.037C282.074,-33.054 282.111,-31.165 282.111,-29.37L282.111,0L274.146,0L274.146,-53.54L286.487,-53.54L301.3,-10.803L301.538,-10.803L316.864,-53.54L329.169,-53.54L329.169,0L320.801,0L320.801,-29.81C320.801,-31.445 320.828,-33.212 320.883,-35.11C320.938,-37.009 321.008,-38.812 321.094,-40.521C321.179,-42.23 321.252,-43.597 321.313,-44.623L321.002,-44.623L304.999,0L297.253,0Z" style="fill:rgb(0,108,250);fill-rule:nonzero;"/>
                <path d="M376.611,-20.343C376.611,-16.986 376.169,-14.001 375.284,-11.389C374.399,-8.777 373.117,-6.57 371.439,-4.77C369.76,-2.969 367.737,-1.602 365.369,-0.668C363,0.266 360.327,0.732 357.349,0.732C354.565,0.732 352.014,0.266 349.695,-0.668C347.375,-1.602 345.367,-2.969 343.671,-4.77C341.974,-6.57 340.662,-8.777 339.734,-11.389C338.806,-14.001 338.342,-16.986 338.342,-20.343C338.342,-24.811 339.117,-28.604 340.668,-31.723C342.218,-34.842 344.431,-37.216 347.305,-38.846C350.18,-40.475 353.607,-41.29 357.587,-41.29C361.334,-41.29 364.636,-40.472 367.493,-38.837C370.349,-37.201 372.583,-34.824 374.194,-31.705C375.806,-28.586 376.611,-24.799 376.611,-20.343ZM347.186,-20.343C347.186,-17.389 347.546,-14.862 348.267,-12.762C348.987,-10.663 350.104,-9.058 351.617,-7.947C353.131,-6.836 355.09,-6.281 357.495,-6.281C359.875,-6.281 361.823,-6.836 363.336,-7.947C364.85,-9.058 365.964,-10.663 366.678,-12.762C367.392,-14.862 367.749,-17.389 367.749,-20.343C367.749,-23.297 367.392,-25.806 366.678,-27.869C365.964,-29.932 364.85,-31.506 363.336,-32.593C361.823,-33.679 359.857,-34.222 357.44,-34.222C353.876,-34.222 351.276,-33.026 349.64,-30.634C348.004,-28.241 347.186,-24.811 347.186,-20.343Z" style="fill:rgb(0,108,250);fill-rule:nonzero;"/>
                <path d="M421.179,-40.54L421.179,0L414.404,0L413.214,-5.438L412.756,-5.438C411.902,-4.047 410.815,-2.893 409.497,-1.978C408.179,-1.062 406.711,-0.381 405.093,0.064C403.476,0.51 401.776,0.732 399.994,0.732C396.942,0.732 394.336,0.217 392.175,-0.815C390.015,-1.846 388.361,-3.448 387.213,-5.621C386.066,-7.794 385.492,-10.602 385.492,-14.044L385.492,-40.54L394.153,-40.54L394.153,-15.656C394.153,-12.518 394.794,-10.165 396.075,-8.597C397.357,-7.028 399.347,-6.244 402.045,-6.244C404.669,-6.244 406.747,-6.784 408.279,-7.864C409.811,-8.945 410.904,-10.535 411.557,-12.634C412.21,-14.734 412.537,-17.303 412.537,-20.343L412.537,-40.54L421.179,-40.54Z" style="fill:rgb(0,108,250);fill-rule:nonzero;"/>
                <path d="M452.948,-41.29C457.513,-41.29 461.072,-40.112 463.623,-37.756C466.174,-35.4 467.45,-31.622 467.45,-26.422L467.45,0L458.862,0L458.862,-24.829C458.862,-27.966 458.215,-30.322 456.921,-31.897C455.627,-33.472 453.625,-34.259 450.916,-34.259C446.985,-34.259 444.257,-33.051 442.731,-30.634C441.205,-28.217 440.442,-24.719 440.442,-20.142L440.442,0L431.818,0L431.818,-40.54L438.538,-40.54L439.746,-35.028L440.222,-35.028C441.089,-36.444 442.178,-37.613 443.491,-38.535C444.803,-39.456 446.268,-40.146 447.885,-40.604C449.503,-41.061 451.19,-41.29 452.948,-41.29Z" style="fill:rgb(0,108,250);fill-rule:nonzero;"/>
                <path d="M492.92,-6.207C494.031,-6.207 495.139,-6.311 496.243,-6.519C497.348,-6.726 498.352,-6.982 499.255,-7.288L499.255,-0.769C498.303,-0.342 497.07,0.015 495.557,0.302C494.043,0.589 492.462,0.732 490.814,0.732C488.531,0.732 486.472,0.348 484.634,-0.421C482.797,-1.19 481.342,-2.512 480.267,-4.385C479.193,-6.259 478.656,-8.862 478.656,-12.195L478.656,-33.966L473.126,-33.966L473.126,-37.811L479.077,-40.869L481.897,-49.548L487.299,-49.548L487.299,-40.54L498.907,-40.54L498.907,-33.966L487.299,-33.966L487.299,-12.286C487.299,-10.248 487.811,-8.725 488.837,-7.718C489.862,-6.711 491.223,-6.207 492.92,-6.207Z" style="fill:rgb(0,108,250);fill-rule:nonzero;"/>
                <path d="M531.812,-11.572C531.812,-8.899 531.165,-6.647 529.871,-4.816C528.577,-2.985 526.688,-1.602 524.203,-0.668C521.719,0.266 518.689,0.732 515.112,0.732C512.28,0.732 509.842,0.531 507.797,0.128C505.753,-0.275 503.827,-0.891 502.02,-1.721L502.02,-9.137C503.949,-8.234 506.119,-7.455 508.53,-6.802C510.941,-6.149 513.22,-5.823 515.369,-5.823C518.188,-5.823 520.224,-6.265 521.475,-7.15C522.726,-8.035 523.352,-9.222 523.352,-10.712C523.352,-11.603 523.102,-12.396 522.601,-13.092C522.101,-13.788 521.173,-14.508 519.818,-15.253C518.463,-15.997 516.473,-16.888 513.849,-17.926C511.285,-18.951 509.125,-19.98 507.367,-21.011C505.609,-22.043 504.279,-23.282 503.375,-24.728C502.472,-26.175 502.02,-28.033 502.02,-30.304C502.02,-33.893 503.442,-36.621 506.287,-38.489C509.131,-40.356 512.903,-41.29 517.603,-41.29C520.081,-41.29 522.424,-41.043 524.634,-40.549C526.843,-40.054 529.016,-39.325 531.152,-38.361L528.442,-31.897C526.599,-32.69 524.759,-33.35 522.922,-33.875C521.085,-34.399 519.214,-34.662 517.31,-34.662C515.088,-34.662 513.394,-34.32 512.228,-33.636C511.063,-32.953 510.48,-31.982 510.48,-30.725C510.48,-29.773 510.76,-28.967 511.322,-28.308C511.884,-27.649 512.857,-26.987 514.243,-26.321C515.628,-25.656 517.548,-24.841 520.001,-23.877C522.418,-22.937 524.512,-21.96 526.282,-20.947C528.052,-19.934 529.416,-18.695 530.374,-17.23C531.332,-15.765 531.812,-13.879 531.812,-11.572Z" style="fill:rgb(0,108,250);fill-rule:nonzero;"/>
            </g>
        </g>
        <g transform="matrix(1,0,0,1,-776.112,2147.39)">
            <g transform="matrix(1,0,0,1,2260.09,487.178)">
                <path d="M37.354,0L7.031,0L7.031,-53.54L37.354,-53.54L37.354,-46.143L15.82,-46.143L15.82,-31.604L35.999,-31.604L35.999,-24.243L15.82,-24.243L15.82,-7.434L37.354,-7.434L37.354,0Z" style="fill:rgb(0,108,250);fill-rule:nonzero;"/>
                <path d="M56.781,-20.728L43.25,-40.54L53.064,-40.54L62.329,-26.294L71.613,-40.54L81.39,-40.54L67.786,-20.728L82.086,0L72.253,0L62.329,-15.198L52.35,0L42.572,0L56.781,-20.728Z" style="fill:rgb(0,108,250);fill-rule:nonzero;"/>
                <path d="M102.173,-6.207C103.284,-6.207 104.391,-6.311 105.496,-6.519C106.601,-6.726 107.605,-6.982 108.508,-7.288L108.508,-0.769C107.556,-0.342 106.323,0.015 104.81,0.302C103.296,0.589 101.715,0.732 100.067,0.732C97.784,0.732 95.724,0.348 93.887,-0.421C92.05,-1.19 90.594,-2.512 89.52,-4.385C88.446,-6.259 87.909,-8.862 87.909,-12.195L87.909,-33.966L82.379,-33.966L82.379,-37.811L88.33,-40.869L91.15,-49.548L96.552,-49.548L96.552,-40.54L108.16,-40.54L108.16,-33.966L96.552,-33.966L96.552,-12.286C96.552,-10.248 97.064,-8.725 98.09,-7.718C99.115,-6.711 100.476,-6.207 102.173,-6.207Z" style="fill:rgb(0,108,250);fill-rule:nonzero;"/>
                <path d="M129.968,-41.29C133.569,-41.29 136.664,-40.549 139.252,-39.066C141.84,-37.582 143.829,-35.471 145.221,-32.73C146.613,-29.99 147.308,-26.715 147.308,-22.906L147.308,-18.311L120.245,-18.311C120.343,-14.38 121.402,-11.349 123.422,-9.219C125.443,-7.089 128.271,-6.024 131.909,-6.024C134.485,-6.024 136.804,-6.274 138.867,-6.775C140.93,-7.275 143.06,-8.02 145.258,-9.009L145.258,-2.014C143.231,-1.062 141.168,-0.366 139.069,0.073C136.969,0.513 134.454,0.732 131.525,0.732C127.545,0.732 124.048,-0.04 121.033,-1.584C118.018,-3.128 115.665,-5.438 113.974,-8.514C112.283,-11.591 111.438,-15.411 111.438,-19.977C111.438,-24.53 112.207,-28.394 113.745,-31.567C115.283,-34.741 117.441,-37.155 120.218,-38.809C122.995,-40.463 126.245,-41.29 129.968,-41.29ZM129.968,-34.827C127.258,-34.827 125.064,-33.948 123.386,-32.19C121.707,-30.432 120.721,-27.856 120.428,-24.463L138.885,-24.463C138.861,-26.489 138.525,-28.281 137.878,-29.837C137.231,-31.393 136.258,-32.614 134.958,-33.499C133.658,-34.384 131.995,-34.827 129.968,-34.827Z" style="fill:rgb(0,108,250);fill-rule:nonzero;"/>
                <path d="M177.045,-41.29C181.61,-41.29 185.168,-40.112 187.72,-37.756C190.271,-35.4 191.547,-31.622 191.547,-26.422L191.547,0L182.959,0L182.959,-24.829C182.959,-27.966 182.312,-30.322 181.018,-31.897C179.724,-33.472 177.722,-34.259 175.012,-34.259C171.082,-34.259 168.353,-33.051 166.827,-30.634C165.302,-28.217 164.539,-24.719 164.539,-20.142L164.539,0L155.914,0L155.914,-40.54L162.634,-40.54L163.843,-35.028L164.319,-35.028C165.186,-36.444 166.275,-37.613 167.587,-38.535C168.9,-39.456 170.364,-40.146 171.982,-40.604C173.599,-41.061 175.287,-41.29 177.045,-41.29Z" style="fill:rgb(0,108,250);fill-rule:nonzero;"/>
                <path d="M229.175,-11.572C229.175,-8.899 228.528,-6.647 227.234,-4.816C225.94,-2.985 224.051,-1.602 221.567,-0.668C219.083,0.266 216.052,0.732 212.476,0.732C209.644,0.732 207.205,0.531 205.161,0.128C203.116,-0.275 201.19,-0.891 199.384,-1.721L199.384,-9.137C201.312,-8.234 203.482,-7.455 205.893,-6.802C208.304,-6.149 210.583,-5.823 212.732,-5.823C215.552,-5.823 217.587,-6.265 218.839,-7.15C220.09,-8.035 220.715,-9.222 220.715,-10.712C220.715,-11.603 220.465,-12.396 219.965,-13.092C219.464,-13.788 218.536,-14.508 217.181,-15.253C215.826,-15.997 213.837,-16.888 211.212,-17.926C208.649,-18.951 206.488,-19.98 204.73,-21.011C202.972,-22.043 201.642,-23.282 200.739,-24.728C199.835,-26.175 199.384,-28.033 199.384,-30.304C199.384,-33.893 200.806,-36.621 203.65,-38.489C206.494,-40.356 210.266,-41.29 214.966,-41.29C217.444,-41.29 219.788,-41.043 221.997,-40.549C224.207,-40.054 226.379,-39.325 228.516,-38.361L225.806,-31.897C223.962,-32.69 222.122,-33.35 220.285,-33.875C218.448,-34.399 216.577,-34.662 214.673,-34.662C212.451,-34.662 210.757,-34.32 209.592,-33.636C208.426,-32.953 207.843,-31.982 207.843,-30.725C207.843,-29.773 208.124,-28.967 208.685,-28.308C209.247,-27.649 210.22,-26.987 211.606,-26.321C212.991,-25.656 214.911,-24.841 217.365,-23.877C219.781,-22.937 221.875,-21.96 223.645,-20.947C225.415,-19.934 226.779,-18.695 227.737,-17.23C228.696,-15.765 229.175,-13.879 229.175,-11.572Z" style="fill:rgb(0,108,250);fill-rule:nonzero;"/>
                <path d="M246.277,-40.54L246.277,0L237.653,0L237.653,-40.54L246.277,-40.54ZM242.01,-56.067C243.341,-56.067 244.485,-55.713 245.444,-55.005C246.402,-54.297 246.881,-53.076 246.881,-51.343C246.881,-49.634 246.402,-48.416 245.444,-47.69C244.485,-46.964 243.341,-46.6 242.01,-46.6C240.643,-46.6 239.49,-46.964 238.55,-47.69C237.61,-48.416 237.14,-49.634 237.14,-51.343C237.14,-53.076 237.61,-54.297 238.55,-55.005C239.49,-55.713 240.643,-56.067 242.01,-56.067Z" style="fill:rgb(0,108,250);fill-rule:nonzero;"/>
                <path d="M292.493,-20.343C292.493,-16.986 292.05,-14.001 291.165,-11.389C290.28,-8.777 288.998,-6.57 287.32,-4.77C285.641,-2.969 283.618,-1.602 281.25,-0.668C278.882,0.266 276.208,0.732 273.23,0.732C270.447,0.732 267.896,0.266 265.576,-0.668C263.257,-1.602 261.249,-2.969 259.552,-4.77C257.855,-6.57 256.543,-8.777 255.615,-11.389C254.688,-14.001 254.224,-16.986 254.224,-20.343C254.224,-24.811 254.999,-28.604 256.549,-31.723C258.099,-34.842 260.312,-37.216 263.187,-38.846C266.061,-40.475 269.489,-41.29 273.468,-41.29C277.216,-41.29 280.518,-40.472 283.374,-38.837C286.23,-37.201 288.464,-34.824 290.076,-31.705C291.687,-28.586 292.493,-24.799 292.493,-20.343ZM263.068,-20.343C263.068,-17.389 263.428,-14.862 264.148,-12.762C264.868,-10.663 265.985,-9.058 267.499,-7.947C269.012,-6.836 270.972,-6.281 273.376,-6.281C275.757,-6.281 277.704,-6.836 279.218,-7.947C280.731,-9.058 281.845,-10.663 282.559,-12.762C283.273,-14.862 283.63,-17.389 283.63,-20.343C283.63,-23.297 283.273,-25.806 282.559,-27.869C281.845,-29.932 280.731,-31.506 279.218,-32.593C277.704,-33.679 275.739,-34.222 273.322,-34.222C269.757,-34.222 267.157,-33.026 265.521,-30.634C263.885,-28.241 263.068,-24.811 263.068,-20.343Z" style="fill:rgb(0,108,250);fill-rule:nonzero;"/>
                <path d="M322.833,-41.29C327.399,-41.29 330.957,-40.112 333.508,-37.756C336.06,-35.4 337.335,-31.622 337.335,-26.422L337.335,0L328.748,0L328.748,-24.829C328.748,-27.966 328.101,-30.322 326.807,-31.897C325.513,-33.472 323.511,-34.259 320.801,-34.259C316.87,-34.259 314.142,-33.051 312.616,-30.634C311.09,-28.217 310.327,-24.719 310.327,-20.142L310.327,0L301.703,0L301.703,-40.54L308.423,-40.54L309.631,-35.028L310.107,-35.028C310.974,-36.444 312.064,-37.613 313.376,-38.535C314.688,-39.456 316.153,-40.146 317.77,-40.604C319.388,-41.061 321.075,-41.29 322.833,-41.29Z" style="fill:rgb(0,108,250);fill-rule:nonzero;"/>
                <path d="M391.187,0L375.751,-44.696L375.439,-44.696C375.513,-43.695 375.595,-42.331 375.687,-40.604C375.778,-38.876 375.861,-37.021 375.934,-35.037C376.007,-33.054 376.044,-31.165 376.044,-29.37L376.044,0L368.079,0L368.079,-53.54L380.42,-53.54L395.233,-10.803L395.471,-10.803L410.797,-53.54L423.102,-53.54L423.102,0L414.734,0L414.734,-29.81C414.734,-31.445 414.761,-33.212 414.816,-35.11C414.871,-37.009 414.941,-38.812 415.027,-40.521C415.112,-42.23 415.186,-43.597 415.247,-44.623L414.935,-44.623L398.932,0L391.187,0Z" style="fill:rgb(0,108,250);fill-rule:nonzero;"/>
                <path d="M470.544,-20.343C470.544,-16.986 470.102,-14.001 469.217,-11.389C468.332,-8.777 467.05,-6.57 465.372,-4.77C463.693,-2.969 461.67,-1.602 459.302,-0.668C456.934,0.266 454.26,0.732 451.282,0.732C448.499,0.732 445.947,0.266 443.628,-0.668C441.309,-1.602 439.301,-2.969 437.604,-4.77C435.907,-6.57 434.595,-8.777 433.667,-11.389C432.739,-14.001 432.275,-16.986 432.275,-20.343C432.275,-24.811 433.051,-28.604 434.601,-31.723C436.151,-34.842 438.364,-37.216 441.238,-38.846C444.113,-40.475 447.54,-41.29 451.52,-41.29C455.267,-41.29 458.569,-40.472 461.426,-38.837C464.282,-37.201 466.516,-34.824 468.127,-31.705C469.739,-28.586 470.544,-24.799 470.544,-20.343ZM441.119,-20.343C441.119,-17.389 441.479,-14.862 442.2,-12.762C442.92,-10.663 444.037,-9.058 445.551,-7.947C447.064,-6.836 449.023,-6.281 451.428,-6.281C453.809,-6.281 455.756,-6.836 457.269,-7.947C458.783,-9.058 459.897,-10.663 460.611,-12.762C461.325,-14.862 461.682,-17.389 461.682,-20.343C461.682,-23.297 461.325,-25.806 460.611,-27.869C459.897,-29.932 458.783,-31.506 457.269,-32.593C455.756,-33.679 453.79,-34.222 451.373,-34.222C447.809,-34.222 445.209,-33.026 443.573,-30.634C441.937,-28.241 441.119,-24.811 441.119,-20.343Z" style="fill:rgb(0,108,250);fill-rule:nonzero;"/>
                <path d="M515.112,-40.54L515.112,0L508.337,0L507.147,-5.438L506.689,-5.438C505.835,-4.047 504.749,-2.893 503.43,-1.978C502.112,-1.062 500.644,-0.381 499.026,0.064C497.409,0.51 495.709,0.732 493.927,0.732C490.875,0.732 488.269,0.217 486.108,-0.815C483.948,-1.846 482.294,-3.448 481.146,-5.621C479.999,-7.794 479.425,-10.602 479.425,-14.044L479.425,-40.54L488.086,-40.54L488.086,-15.656C488.086,-12.518 488.727,-10.165 490.009,-8.597C491.29,-7.028 493.28,-6.244 495.978,-6.244C498.602,-6.244 500.681,-6.784 502.213,-7.864C503.745,-8.945 504.837,-10.535 505.49,-12.634C506.143,-14.734 506.47,-17.303 506.47,-20.343L506.47,-40.54L515.112,-40.54Z" style="fill:rgb(0,108,250);fill-rule:nonzero;"/>
                <path d="M546.881,-41.29C551.447,-41.29 555.005,-40.112 557.556,-37.756C560.107,-35.4 561.383,-31.622 561.383,-26.422L561.383,0L552.795,0L552.795,-24.829C552.795,-27.966 552.148,-30.322 550.854,-31.897C549.561,-33.472 547.559,-34.259 544.849,-34.259C540.918,-34.259 538.19,-33.051 536.664,-30.634C535.138,-28.217 534.375,-24.719 534.375,-20.142L534.375,0L525.751,0L525.751,-40.54L532.471,-40.54L533.679,-35.028L534.155,-35.028C535.022,-36.444 536.111,-37.613 537.424,-38.535C538.736,-39.456 540.201,-40.146 541.818,-40.604C543.436,-41.061 545.123,-41.29 546.881,-41.29Z" style="fill:rgb(0,108,250);fill-rule:nonzero;"/>
                <path d="M586.853,-6.207C587.964,-6.207 589.072,-6.311 590.176,-6.519C591.281,-6.726 592.285,-6.982 593.188,-7.288L593.188,-0.769C592.236,-0.342 591.003,0.015 589.49,0.302C587.976,0.589 586.395,0.732 584.747,0.732C582.465,0.732 580.405,0.348 578.568,-0.421C576.73,-1.19 575.275,-2.512 574.2,-4.385C573.126,-6.259 572.589,-8.862 572.589,-12.195L572.589,-33.966L567.059,-33.966L567.059,-37.811L573.01,-40.869L575.83,-49.548L581.232,-49.548L581.232,-40.54L592.841,-40.54L592.841,-33.966L581.232,-33.966L581.232,-12.286C581.232,-10.248 581.744,-8.725 582.77,-7.718C583.795,-6.711 585.156,-6.207 586.853,-6.207Z" style="fill:rgb(0,108,250);fill-rule:nonzero;"/>
            </g>
        </g>
    </g>
</svg>
