<?xml version="1.0" encoding="UTF-8" standalone="no"?>
<!DOCTYPE svg PUBLIC "-//W3C//DTD SVG 1.1//EN" "http://www.w3.org/Graphics/SVG/1.1/DTD/svg11.dtd">
<svg width="100%" height="100%" viewBox="0 0 489 318" version="1.1" xmlns="http://www.w3.org/2000/svg" xmlns:xlink="http://www.w3.org/1999/xlink" xml:space="preserve" xmlns:serif="http://www.serif.com/" style="fill-rule:evenodd;clip-rule:evenodd;">
    <g transform="matrix(1,0,0,1,-756.171,-2229.87)">
        <g transform="matrix(4.16667,0,0,4.16667,778.174,2542.72)">
            <path d="M0,-74.052C-2.343,-74.052 -4.25,-72.145 -4.25,-69.802L-4.25,-4.25C-4.25,-1.906 -2.343,0 0,0L106.626,0C108.969,0 110.876,-1.906 110.876,-4.25L110.876,-69.802C110.876,-72.145 108.969,-74.052 106.626,-74.052L0,-74.052Z" style="fill:none;fill-rule:nonzero;stroke:rgb(22,33,45);stroke-width:0.5px;"/>
        </g>
        <g transform="matrix(4.16667,0,0,4.16667,1063.41,2271.86)">
            <path d="M0,14.316C3.953,14.316 7.158,11.111 7.158,7.158C7.158,3.205 3.953,0 0,0C-3.953,0 -7.158,3.205 -7.158,7.158C-7.158,11.111 -3.953,14.316 0,14.316Z" style="fill:none;fill-rule:nonzero;stroke:rgb(22,33,45);stroke-width:0.5px;"/>
        </g>
        <g transform="matrix(4.16667,0,0,4.16667,1063.41,2358.62)">
            <path d="M0,14.316C3.953,14.316 7.158,11.111 7.158,7.158C7.158,3.205 3.953,0 0,0C-3.953,0 -7.158,3.205 -7.158,7.158C-7.158,11.111 -3.953,14.316 0,14.316Z" style="fill:none;fill-rule:nonzero;stroke:rgb(22,33,45);stroke-width:0.5px;"/>
        </g>
        <g transform="matrix(4.16667,0,0,4.16667,1063.41,2445.38)">
            <path d="M0,14.316C3.953,14.316 7.158,11.111 7.158,7.158C7.158,3.205 3.953,0 0,0C-3.953,0 -7.158,3.205 -7.158,7.158C-7.158,11.111 -3.953,14.316 0,14.316Z" style="fill:none;fill-rule:nonzero;stroke:rgb(22,33,45);stroke-width:0.5px;"/>
        </g>
        <g transform="matrix(4.16667,0,0,4.16667,1158.06,2271.86)">
            <path d="M0,14.316C3.953,14.316 7.158,11.111 7.158,7.158C7.158,3.205 3.953,0 0,0C-3.953,0 -7.158,3.205 -7.158,7.158C-7.158,11.111 -3.953,14.316 0,14.316Z" style="fill:none;fill-rule:nonzero;stroke:rgb(22,33,45);stroke-width:0.5px;"/>
        </g>
        <g transform="matrix(4.16667,0,0,4.16667,1158.06,2358.62)">
            <path d="M0,14.316C3.953,14.316 7.158,11.111 7.158,7.158C7.158,3.205 3.953,0 0,0C-3.953,0 -7.158,3.205 -7.158,7.158C-7.158,11.111 -3.953,14.316 0,14.316Z" style="fill:none;fill-rule:nonzero;stroke:rgb(22,33,45);stroke-width:0.5px;"/>
        </g>
        <g transform="matrix(4.16667,0,0,4.16667,1158.06,2445.38)">
            <path d="M0,14.316C3.953,14.316 7.158,11.111 7.158,7.158C7.158,3.205 3.953,0 0,0C-3.953,0 -7.158,3.205 -7.158,7.158C-7.158,11.111 -3.953,14.316 0,14.316Z" style="fill:none;fill-rule:nonzero;stroke:rgb(22,33,45);stroke-width:0.5px;"/>
        </g>
        <g transform="matrix(4.16667,0,0,4.16667,829.572,2271.86)">
            <path d="M0,8.082C2.232,8.082 4.041,6.273 4.041,4.041C4.041,1.81 2.232,0 0,0C-2.232,0 -4.041,1.81 -4.041,4.041C-4.041,6.273 -2.232,8.082 0,8.082Z" style="fill:none;fill-rule:nonzero;stroke:rgb(22,33,45);stroke-width:0.5px;"/>
        </g>
        <g transform="matrix(4.16667,0,0,4.16667,829.572,2321.73)">
            <path d="M0,8.082C2.232,8.082 4.041,6.273 4.041,4.041C4.041,1.809 2.232,0 0,0C-2.232,0 -4.041,1.809 -4.041,4.041C-4.041,6.273 -2.232,8.082 0,8.082Z" style="fill:none;fill-rule:nonzero;stroke:rgb(22,33,45);stroke-width:0.5px;"/>
        </g>
        <g transform="matrix(4.16667,0,0,4.16667,829.572,2371.61)">
            <path d="M0,8.082C2.232,8.082 4.041,6.273 4.041,4.041C4.041,1.809 2.232,0 0,0C-2.232,0 -4.041,1.809 -4.041,4.041C-4.041,6.273 -2.232,8.082 0,8.082Z" style="fill:none;fill-rule:nonzero;stroke:rgb(22,33,45);stroke-width:0.5px;"/>
        </g>
        <g transform="matrix(4.16667,0,0,4.16667,829.572,2421.49)">
            <path d="M0,8.082C2.232,8.082 4.041,6.272 4.041,4.041C4.041,1.809 2.232,0 0,0C-2.232,0 -4.041,1.809 -4.041,4.041C-4.041,6.272 -2.232,8.082 0,8.082Z" style="fill:none;fill-rule:nonzero;stroke:rgb(22,33,45);stroke-width:0.5px;"/>
        </g>
        <g transform="matrix(4.16667,0,0,4.16667,829.572,2471.36)">
            <path d="M0,8.082C2.232,8.082 4.041,6.273 4.041,4.041C4.041,1.81 2.232,0 0,0C-2.232,0 -4.041,1.81 -4.041,4.041C-4.041,6.273 -2.232,8.082 0,8.082Z" style="fill:none;fill-rule:nonzero;stroke:rgb(22,33,45);stroke-width:0.5px;"/>
        </g>
        <g transform="matrix(4.16667,0,0,4.16667,878.305,2271.86)">
            <path d="M0,8.082C2.232,8.082 4.041,6.273 4.041,4.041C4.041,1.81 2.232,0 0,0C-2.232,0 -4.041,1.81 -4.041,4.041C-4.041,6.273 -2.232,8.082 0,8.082Z" style="fill:none;fill-rule:nonzero;stroke:rgb(22,33,45);stroke-width:0.5px;"/>
        </g>
        <g transform="matrix(4.16667,0,0,4.16667,878.305,2321.73)">
            <path d="M0,8.082C2.232,8.082 4.041,6.273 4.041,4.041C4.041,1.809 2.232,0 0,0C-2.232,0 -4.041,1.809 -4.041,4.041C-4.041,6.273 -2.232,8.082 0,8.082Z" style="fill:none;fill-rule:nonzero;stroke:rgb(22,33,45);stroke-width:0.5px;"/>
        </g>
        <g transform="matrix(4.16667,0,0,4.16667,878.305,2371.61)">
            <path d="M0,8.082C2.232,8.082 4.041,6.273 4.041,4.041C4.041,1.809 2.232,0 0,0C-2.232,0 -4.041,1.809 -4.041,4.041C-4.041,6.273 -2.232,8.082 0,8.082Z" style="fill:none;fill-rule:nonzero;stroke:rgb(22,33,45);stroke-width:0.5px;"/>
        </g>
        <g transform="matrix(4.16667,0,0,4.16667,878.305,2421.49)">
            <path d="M0,8.082C2.232,8.082 4.041,6.272 4.041,4.041C4.041,1.809 2.232,0 0,0C-2.232,0 -4.041,1.809 -4.041,4.041C-4.041,6.272 -2.232,8.082 0,8.082Z" style="fill:none;fill-rule:nonzero;stroke:rgb(22,33,45);stroke-width:0.5px;"/>
        </g>
        <g transform="matrix(4.16667,0,0,4.16667,878.305,2471.36)">
            <path d="M0,8.082C2.232,8.082 4.041,6.273 4.041,4.041C4.041,1.81 2.232,0 0,0C-2.232,0 -4.041,1.81 -4.041,4.041C-4.041,6.273 -2.232,8.082 0,8.082Z" style="fill:none;fill-rule:nonzero;stroke:rgb(22,33,45);stroke-width:0.5px;"/>
        </g>
        <g transform="matrix(4.16667,0,0,4.16667,927.038,2271.86)">
            <path d="M0,8.082C2.232,8.082 4.041,6.273 4.041,4.041C4.041,1.81 2.232,0 0,0C-2.232,0 -4.041,1.81 -4.041,4.041C-4.041,6.273 -2.232,8.082 0,8.082Z" style="fill:none;fill-rule:nonzero;stroke:rgb(22,33,45);stroke-width:0.5px;"/>
        </g>
        <g transform="matrix(4.16667,0,0,4.16667,927.038,2321.73)">
            <path d="M0,8.082C2.232,8.082 4.041,6.273 4.041,4.041C4.041,1.809 2.232,0 0,0C-2.232,0 -4.041,1.809 -4.041,4.041C-4.041,6.273 -2.232,8.082 0,8.082Z" style="fill:none;fill-rule:nonzero;stroke:rgb(22,33,45);stroke-width:0.5px;"/>
        </g>
        <g transform="matrix(4.16667,0,0,4.16667,927.038,2371.61)">
            <path d="M0,8.082C2.232,8.082 4.041,6.273 4.041,4.041C4.041,1.809 2.232,0 0,0C-2.232,0 -4.041,1.809 -4.041,4.041C-4.041,6.273 -2.232,8.082 0,8.082Z" style="fill:none;fill-rule:nonzero;stroke:rgb(22,33,45);stroke-width:0.5px;"/>
        </g>
        <g transform="matrix(4.16667,0,0,4.16667,927.038,2421.49)">
            <path d="M0,8.082C2.232,8.082 4.041,6.272 4.041,4.041C4.041,1.809 2.232,0 0,0C-2.232,0 -4.041,1.809 -4.041,4.041C-4.041,6.272 -2.232,8.082 0,8.082Z" style="fill:none;fill-rule:nonzero;stroke:rgb(22,33,45);stroke-width:0.5px;"/>
        </g>
        <g transform="matrix(4.16667,0,0,4.16667,927.038,2471.36)">
            <path d="M0,8.082C2.232,8.082 4.041,6.273 4.041,4.041C4.041,1.81 2.232,0 0,0C-2.232,0 -4.041,1.81 -4.041,4.041C-4.041,6.273 -2.232,8.082 0,8.082Z" style="fill:none;fill-rule:nonzero;stroke:rgb(22,33,45);stroke-width:0.5px;"/>
        </g>
        <g transform="matrix(4.16667,0,0,4.16667,975.772,2271.86)">
            <path d="M0,8.082C2.232,8.082 4.041,6.273 4.041,4.041C4.041,1.81 2.232,0 0,0C-2.232,0 -4.041,1.81 -4.041,4.041C-4.041,6.273 -2.232,8.082 0,8.082Z" style="fill:none;fill-rule:nonzero;stroke:rgb(22,33,45);stroke-width:0.5px;"/>
        </g>
        <g transform="matrix(4.16667,0,0,4.16667,975.772,2321.73)">
            <path d="M0,8.082C2.232,8.082 4.041,6.273 4.041,4.041C4.041,1.809 2.232,0 0,0C-2.232,0 -4.041,1.809 -4.041,4.041C-4.041,6.273 -2.232,8.082 0,8.082Z" style="fill:none;fill-rule:nonzero;stroke:rgb(22,33,45);stroke-width:0.5px;"/>
        </g>
        <g transform="matrix(4.16667,0,0,4.16667,975.772,2371.61)">
            <path d="M0,8.082C2.232,8.082 4.041,6.273 4.041,4.041C4.041,1.809 2.232,0 0,0C-2.232,0 -4.041,1.809 -4.041,4.041C-4.041,6.273 -2.232,8.082 0,8.082Z" style="fill:none;fill-rule:nonzero;stroke:rgb(22,33,45);stroke-width:0.5px;"/>
        </g>
        <g transform="matrix(4.16667,0,0,4.16667,975.772,2421.49)">
            <path d="M0,8.082C2.232,8.082 4.041,6.272 4.041,4.041C4.041,1.809 2.232,0 0,0C-2.232,0 -4.041,1.809 -4.041,4.041C-4.041,6.272 -2.232,8.082 0,8.082Z" style="fill:none;fill-rule:nonzero;stroke:rgb(22,33,45);stroke-width:0.5px;"/>
        </g>
        <g transform="matrix(4.16667,0,0,4.16667,975.772,2471.36)">
            <path d="M0,8.082C2.232,8.082 4.041,6.273 4.041,4.041C4.041,1.81 2.232,0 0,0C-2.232,0 -4.041,1.81 -4.041,4.041C-4.041,6.273 -2.232,8.082 0,8.082Z" style="fill:none;fill-rule:nonzero;stroke:rgb(22,33,45);stroke-width:0.5px;"/>
        </g>
    </g>
</svg>
