<?xml version="1.0" encoding="UTF-8" standalone="no"?>
<!DOCTYPE svg PUBLIC "-//W3C//DTD SVG 1.1//EN" "http://www.w3.org/Graphics/SVG/1.1/DTD/svg11.dtd">
<svg width="100%" height="100%" viewBox="0 0 489 318" version="1.1" xmlns="http://www.w3.org/2000/svg" xmlns:xlink="http://www.w3.org/1999/xlink" xml:space="preserve" xmlns:serif="http://www.serif.com/" style="fill-rule:evenodd;clip-rule:evenodd;">
    <g transform="matrix(1,0,0,1,-756.171,-1001.64)">
        <g transform="matrix(4.16667,0,0,4.16667,778.174,1314.49)">
            <path d="M0,-74.052C-2.343,-74.052 -4.25,-72.145 -4.25,-69.802L-4.25,-4.25C-4.25,-1.906 -2.343,0 0,0L106.626,0C108.969,0 110.876,-1.906 110.876,-4.25L110.876,-69.802C110.876,-72.145 108.969,-74.052 106.626,-74.052L0,-74.052Z" style="fill:none;fill-rule:nonzero;stroke:rgb(22,33,45);stroke-width:0.5px;"/>
        </g>
        <g transform="matrix(4.16667,0,0,4.16667,826.784,1043.62)">
            <path d="M0,14.316C3.953,14.316 7.158,11.111 7.158,7.158C7.158,3.205 3.953,0 0,0C-3.953,0 -7.158,3.205 -7.158,7.158C-7.158,11.111 -3.953,14.316 0,14.316Z" style="fill:none;fill-rule:nonzero;stroke:rgb(22,33,45);stroke-width:0.5px;"/>
        </g>
        <g transform="matrix(4.16667,0,0,4.16667,826.784,1130.39)">
            <path d="M0,14.316C3.953,14.316 7.158,11.111 7.158,7.158C7.158,3.205 3.953,0 0,0C-3.953,0 -7.158,3.205 -7.158,7.158C-7.158,11.111 -3.953,14.316 0,14.316Z" style="fill:none;fill-rule:nonzero;stroke:rgb(22,33,45);stroke-width:0.5px;"/>
        </g>
        <g transform="matrix(4.16667,0,0,4.16667,826.784,1217.15)">
            <path d="M0,14.316C3.953,14.316 7.158,11.111 7.158,7.158C7.158,3.205 3.953,0 0,0C-3.953,0 -7.158,3.205 -7.158,7.158C-7.158,11.111 -3.953,14.316 0,14.316Z" style="fill:none;fill-rule:nonzero;stroke:rgb(22,33,45);stroke-width:0.5px;"/>
        </g>
        <g transform="matrix(4.16667,0,0,4.16667,916.177,1043.62)">
            <path d="M0,14.316C3.953,14.316 7.158,11.111 7.158,7.158C7.158,3.205 3.953,0 0,0C-3.953,0 -7.158,3.205 -7.158,7.158C-7.158,11.111 -3.953,14.316 0,14.316Z" style="fill:none;fill-rule:nonzero;stroke:rgb(22,33,45);stroke-width:0.5px;"/>
        </g>
        <g transform="matrix(4.16667,0,0,4.16667,916.177,1130.39)">
            <path d="M0,14.316C3.953,14.316 7.158,11.111 7.158,7.158C7.158,3.205 3.953,0 0,0C-3.953,0 -7.158,3.205 -7.158,7.158C-7.158,11.111 -3.953,14.316 0,14.316Z" style="fill:none;fill-rule:nonzero;stroke:rgb(22,33,45);stroke-width:0.5px;"/>
        </g>
        <g transform="matrix(4.16667,0,0,4.16667,916.177,1217.15)">
            <path d="M0,14.316C3.953,14.316 7.158,11.111 7.158,7.158C7.158,3.205 3.953,0 0,0C-3.953,0 -7.158,3.205 -7.158,7.158C-7.158,11.111 -3.953,14.316 0,14.316Z" style="fill:none;fill-rule:nonzero;stroke:rgb(22,33,45);stroke-width:0.5px;"/>
        </g>
        <g transform="matrix(4.16667,0,0,4.16667,1005.57,1043.62)">
            <path d="M0,14.316C3.953,14.316 7.158,11.111 7.158,7.158C7.158,3.205 3.953,0 0,0C-3.953,0 -7.158,3.205 -7.158,7.158C-7.158,11.111 -3.953,14.316 0,14.316Z" style="fill:none;fill-rule:nonzero;stroke:rgb(22,33,45);stroke-width:0.5px;"/>
        </g>
        <g transform="matrix(4.16667,0,0,4.16667,1005.57,1130.39)">
            <path d="M0,14.316C3.953,14.316 7.158,11.111 7.158,7.158C7.158,3.205 3.953,0 0,0C-3.953,0 -7.158,3.205 -7.158,7.158C-7.158,11.111 -3.953,14.316 0,14.316Z" style="fill:none;fill-rule:nonzero;stroke:rgb(22,33,45);stroke-width:0.5px;"/>
        </g>
        <g transform="matrix(4.16667,0,0,4.16667,1005.57,1217.15)">
            <path d="M0,14.316C3.953,14.316 7.158,11.111 7.158,7.158C7.158,3.205 3.953,0 0,0C-3.953,0 -7.158,3.205 -7.158,7.158C-7.158,11.111 -3.953,14.316 0,14.316Z" style="fill:none;fill-rule:nonzero;stroke:rgb(22,33,45);stroke-width:0.5px;"/>
        </g>
        <g transform="matrix(4.16667,0,0,4.16667,1094.96,1043.62)">
            <path d="M0,14.316C3.953,14.316 7.158,11.111 7.158,7.158C7.158,3.205 3.953,0 0,0C-3.953,0 -7.158,3.205 -7.158,7.158C-7.158,11.111 -3.953,14.316 0,14.316Z" style="fill:none;fill-rule:nonzero;stroke:rgb(22,33,45);stroke-width:0.5px;"/>
        </g>
        <g transform="matrix(4.16667,0,0,4.16667,1094.96,1130.39)">
            <path d="M0,14.316C3.953,14.316 7.158,11.111 7.158,7.158C7.158,3.205 3.953,0 0,0C-3.953,0 -7.158,3.205 -7.158,7.158C-7.158,11.111 -3.953,14.316 0,14.316Z" style="fill:none;fill-rule:nonzero;stroke:rgb(22,33,45);stroke-width:0.5px;"/>
        </g>
        <g transform="matrix(4.16667,0,0,4.16667,1094.96,1217.15)">
            <path d="M0,14.316C3.953,14.316 7.158,11.111 7.158,7.158C7.158,3.205 3.953,0 0,0C-3.953,0 -7.158,3.205 -7.158,7.158C-7.158,11.111 -3.953,14.316 0,14.316Z" style="fill:none;fill-rule:nonzero;stroke:rgb(22,33,45);stroke-width:0.5px;"/>
        </g>
    </g>
</svg>
