<?xml version="1.0" encoding="UTF-8" standalone="no"?>
<!DOCTYPE svg PUBLIC "-//W3C//DTD SVG 1.1//EN" "http://www.w3.org/Graphics/SVG/1.1/DTD/svg11.dtd">
<svg width="100%" height="100%" viewBox="0 0 434 284" version="1.1" xmlns="http://www.w3.org/2000/svg" xmlns:xlink="http://www.w3.org/1999/xlink" xml:space="preserve" xmlns:serif="http://www.serif.com/" style="fill-rule:evenodd;clip-rule:evenodd;stroke-linejoin:round;stroke-miterlimit:10;">
    <g transform="matrix(1,0,0,1,-24.5639,-65.866)">
        <g>
            <g>
                <g transform="matrix(1,0,0,1,29.5884,292.378)">
                    <path d="M0,-171.104L0,-6.632L116.385,23.59L207.231,0L207.231,-164.472L90.846,-194.694L0,-171.104Z" style="fill:white;fill-rule:nonzero;"/>
                </g>
                <g transform="matrix(1,0,0,1,29.5884,314.13)">
                    <path d="M0,-15.661L23.368,-9.58L36.524,-12.011L36.524,-6.132L69.927,2.767L83.606,-0.886L83.606,5.763L116.399,14.181L125.955,11.695L125.955,-1.646L158.034,-10.238L184.053,-3.499L193.611,-5.986L193.611,-21.644L0,-29.842L0,-15.661Z" style="fill:white;fill-rule:nonzero;"/>
                </g>
                <g transform="matrix(-0.9678,0.251721,0.251721,0.9678,148,329.276)">
                    <path d="M-11.264,-13.336L-1.388,-13.336L1.706,-1.441L-8.17,-1.441L-11.264,-13.336Z" style="fill:none;fill-rule:nonzero;stroke:rgb(22,33,45);stroke-width:1px;"/>
                </g>
                <g transform="matrix(1,0,0,1,99.5161,316.896)">
                    <path d="M0,-12.992L0,0L13.878,-3.652" style="fill:none;fill-rule:nonzero;stroke:rgb(22,33,45);stroke-width:1px;"/>
                </g>
                <g transform="matrix(1,0,0,1,52.9567,304.55)">
                    <path d="M0,-12.663L0,0L13.013,-2.431" style="fill:none;fill-rule:nonzero;stroke:rgb(22,33,45);stroke-width:1px;"/>
                </g>
                <g transform="matrix(1,0,0,1,113.194,328.311)">
                    <path d="M0,-20.753L0,-8.419L32.792,0" style="fill:none;fill-rule:nonzero;stroke:rgb(22,33,45);stroke-width:1px;"/>
                </g>
                <g transform="matrix(-0.9678,0.251721,0.251721,0.9678,215.655,311.595)">
                    <path d="M-11.264,-13.336L-1.388,-13.336L1.706,-1.441L-8.17,-1.441L-11.264,-13.336Z" style="fill:none;fill-rule:nonzero;stroke:rgb(22,33,45);stroke-width:1px;"/>
                </g>
                <g transform="matrix(0.968591,0.248659,0.248659,-0.968591,191.079,301.699)">
                    <path d="M-0.384,-3.041L24.075,-3.041" style="fill:none;fill-rule:nonzero;stroke:rgb(22,33,45);stroke-width:1px;"/>
                </g>
                <g transform="matrix(1,0,0,1,66.1117,316.896)">
                    <path d="M0,-21.666L0,-8.898L33.404,0" style="fill:none;fill-rule:nonzero;stroke:rgb(22,33,45);stroke-width:1px;"/>
                </g>
                <g transform="matrix(1,0,0,1,29.5888,304.55)">
                    <path d="M0,-18.989L0,-6.08L23.368,0" style="fill:none;fill-rule:nonzero;stroke:rgb(22,33,45);stroke-width:1px;"/>
                </g>
                <g transform="matrix(1,0,0,1,29.5888,292.379)">
                    <path d="M0,-171.104L90.846,-194.694L207.231,-164.472L207.231,-0.001L116.385,23.59L0,-6.632L0,-171.104Z" style="fill:none;fill-rule:nonzero;stroke:rgb(22,33,45);stroke-width:1px;"/>
                </g>
                <g transform="matrix(1,0,0,1,29.5888,315.969)">
                    <path d="M0,-194.694L116.385,-164.472L116.385,0" style="fill:none;fill-rule:nonzero;stroke:rgb(22,33,45);stroke-width:1px;stroke-linejoin:miter;"/>
                </g>
                <g transform="matrix(0.9679,-0.251335,-0.251335,-0.9679,150.396,162.534)">
                    <path d="M-1.506,11.795L92.352,11.795" style="fill:none;fill-rule:nonzero;stroke:rgb(22,33,45);stroke-width:1px;stroke-linejoin:miter;"/>
                </g>
                <g transform="matrix(0.967899,-0.251341,-0.251341,-0.967899,149.481,155.073)">
                    <path d="M-1.181,9.248L72.408,9.248" style="fill:none;fill-rule:nonzero;stroke:rgb(22,33,45);stroke-width:1px;stroke-linejoin:miter;"/>
                </g>
                <g transform="matrix(0.967899,-0.251339,-0.251339,-0.967899,150.434,177.223)">
                    <path d="M-1.506,11.79L92.312,11.79" style="fill:none;fill-rule:nonzero;stroke:rgb(22,33,45);stroke-width:1px;stroke-linejoin:miter;"/>
                </g>
                <g transform="matrix(0.967899,-0.251339,-0.251339,-0.967899,150.434,313.147)">
                    <path d="M-1.506,11.79L92.312,11.79" style="fill:none;fill-rule:nonzero;stroke:rgb(22,33,45);stroke-width:1px;stroke-linejoin:miter;"/>
                </g>
                <g transform="matrix(0.967899,-0.251341,-0.251341,-0.967899,52.9048,129.994)">
                    <path d="M-1.181,9.248L72.408,9.248" style="fill:none;fill-rule:nonzero;stroke:rgb(22,33,45);stroke-width:1px;stroke-linejoin:miter;"/>
                </g>
                <g transform="matrix(0.9679,0.251337,0.251337,-0.9679,45.0524,104.59)">
                    <path d="M-1.93,-15.111L118.315,-15.111" style="fill:none;fill-rule:nonzero;stroke:rgb(22,33,45);stroke-width:1px;stroke-linejoin:miter;"/>
                </g>
                <g transform="matrix(0.9679,0.251337,0.251337,-0.9679,116.279,86.0939)">
                    <path d="M-1.93,-15.111L118.315,-15.111" style="fill:none;fill-rule:nonzero;stroke:rgb(22,33,45);stroke-width:1px;stroke-linejoin:miter;"/>
                </g>
                <g transform="matrix(0,1,1,0,223.586,231.472)">
                    <path d="M-67.815,-67.815L67.815,-67.815" style="fill:none;fill-rule:nonzero;stroke:rgb(22,33,45);stroke-width:1px;stroke-linejoin:miter;"/>
                </g>
                <g transform="matrix(0,-1,-1,0,294.839,212.997)">
                    <path d="M-67.841,67.841L67.841,67.841" style="fill:none;fill-rule:nonzero;stroke:rgb(22,33,45);stroke-width:1px;stroke-linejoin:miter;"/>
                </g>
                <g>
                    <g>
                        <g transform="matrix(-0.9679,-0.251334,-0.251334,0.9679,35.2531,121.939)">
                            <path d="M-118.273,15.105L1.929,15.106" style="fill:none;fill-rule:nonzero;stroke:rgb(22,33,45);stroke-width:1px;stroke-linejoin:miter;"/>
                        </g>
                        <g transform="matrix(-0.9679,-0.251334,-0.251334,0.9679,35.2531,257.767)">
                            <path d="M-118.273,15.105L1.929,15.106" style="fill:none;fill-rule:nonzero;stroke:rgb(22,33,45);stroke-width:1px;stroke-linejoin:miter;"/>
                        </g>
                    </g>
                </g>
                <g transform="matrix(0,1,1,0,204.09,231.666)">
                    <path d="M-67.915,-67.915L67.915,-67.915" style="fill:none;fill-rule:nonzero;stroke:rgb(22,33,45);stroke-width:1px;stroke-linejoin:miter;"/>
                </g>
                <g transform="matrix(0,1,1,0,107.554,206.598)">
                    <path d="M-67.914,-67.914L67.914,-67.914" style="fill:none;fill-rule:nonzero;stroke:rgb(22,33,45);stroke-width:1px;stroke-linejoin:miter;"/>
                </g>
                <g transform="matrix(1,0,0,1,53.2884,111.427)">
                    <path d="M0,10.913L67.376,-6.583L160.101,17.496" style="fill:none;fill-rule:nonzero;stroke:rgb(22,33,45);stroke-width:0.5px;stroke-linejoin:miter;"/>
                </g>
                <g transform="matrix(0,-1,-1,0,121.664,103.845)">
                    <path d="M-1,1L1,1" style="fill:none;fill-rule:nonzero;stroke:rgb(22,33,45);stroke-width:0.5px;stroke-linejoin:miter;"/>
                </g>
                <g transform="matrix(1,0,0,1,224.78,298.253)">
                    <path d="M0,-152.521L0,-17.92L-69.009,0" style="fill:none;fill-rule:nonzero;stroke:rgb(22,33,45);stroke-width:0.5px;stroke-linejoin:miter;"/>
                </g>
                <g transform="matrix(0.975046,0.222001,0.222001,-0.975046,224.864,280.093)">
                    <path d="M-0.028,-0.253L2.246,-0.253" style="fill:none;fill-rule:nonzero;stroke:rgb(22,33,45);stroke-width:0.5px;stroke-linejoin:miter;"/>
                </g>
                <g transform="matrix(1,0,0,1,41.8576,298.467)">
                    <path d="M0,-159.174L0,-24.459L94.318,0" style="fill:none;fill-rule:nonzero;stroke:rgb(22,33,45);stroke-width:0.5px;stroke-linejoin:miter;"/>
                </g>
                <g transform="matrix(-0.975046,0.222001,0.222001,0.975046,39.7233,274.752)">
                    <path d="M-2.246,-0.253L0.028,-0.253" style="fill:none;fill-rule:nonzero;stroke:rgb(22,33,45);stroke-width:0.5px;stroke-linejoin:miter;"/>
                </g>
                <g>
                    <g>
                        <g transform="matrix(1,0,0,1,236.82,147.196)">
                            <path d="M0,-16.739L-90.846,6.851L-207.231,-23.59" style="fill:none;fill-rule:nonzero;stroke:rgb(22,33,45);stroke-width:0.5px;stroke-linejoin:miter;"/>
                        </g>
                        <g transform="matrix(1,0,0,1,236.82,307.178)">
                            <path d="M0,-16.739L-90.846,6.851L-207.231,-23.59" style="fill:none;fill-rule:nonzero;stroke:rgb(22,33,45);stroke-width:0.5px;stroke-linejoin:miter;"/>
                        </g>
                        <g transform="matrix(1,0,0,1,103.39,122.893)">
                            <path d="M0,1.354C-0.477,1.365 -0.913,1.312 -1.439,1.181C-1.966,1.051 -2.175,0.944 -2.155,0.819C-2.128,0.682 -1.747,0.483 -1.101,0.301C-0.448,0.118 0.232,0.016 0.748,0.004C1.226,-0.011 1.648,0.05 2.162,0.177C2.694,0.309 2.917,0.412 2.903,0.539C2.87,0.674 2.528,0.856 1.875,1.04C1.229,1.221 0.51,1.337 0,1.354M-1.108,0.847C-1.123,0.894 -1.062,0.933 -0.793,1C-0.505,1.071 -0.353,1.085 -0.18,1.077C0.093,1.066 0.576,0.964 1.048,0.831C1.527,0.697 1.82,0.581 1.85,0.507C1.872,0.461 1.804,0.423 1.528,0.355C1.246,0.285 1.101,0.269 0.923,0.277C0.642,0.289 0.218,0.372 -0.261,0.506C-0.733,0.639 -1.084,0.774 -1.108,0.847" style="fill:rgb(22,33,45);fill-rule:nonzero;"/>
                        </g>
                        <g transform="matrix(1,0,0,1,108.512,123.98)">
                            <path d="M0,0.748C-1.222,1.091 -2.173,1.149 -3.332,0.862C-3.47,0.827 -3.663,0.773 -3.739,0.754C-3.776,0.745 -3.802,0.745 -3.84,0.756L-4.901,1.054C-4.94,1.065 -4.991,1.066 -5.028,1.056L-5.723,0.884C-5.761,0.874 -5.76,0.861 -5.722,0.85L-1.305,-0.39C-1.28,-0.397 -1.241,-0.401 -1.166,-0.393C-0.843,-0.357 -0.265,-0.241 0.129,-0.143C1.426,0.179 1.261,0.394 0,0.748M-3.116,0.553C-3.149,0.562 -3.162,0.572 -3.131,0.583C-3.044,0.618 -2.906,0.653 -2.793,0.681C-2.23,0.821 -1.822,0.809 -0.859,0.538C0.066,0.279 0.104,0.182 -0.504,0.031C-0.661,-0.008 -0.774,-0.029 -0.887,-0.047C-0.938,-0.056 -0.983,-0.046 -1.015,-0.037L-3.116,0.553Z" style="fill:rgb(22,33,45);fill-rule:nonzero;"/>
                        </g>
                        <g transform="matrix(1,0,0,1,108.625,124.658)">
                            <path d="M0,1.072C-1.222,0.769 -0.918,0.478 0.174,0.171C1.332,-0.154 2.454,-0.217 3.476,0.037C4.478,0.285 4.216,0.518 3.279,0.781C2.839,0.904 2.71,0.931 2.56,0.893L0.793,0.455C0.762,0.447 0.743,0.449 0.717,0.456C0.025,0.651 0.17,0.779 0.753,0.924C1.072,1.003 1.526,1.071 1.785,1.101C1.816,1.109 1.835,1.117 1.821,1.127L1.361,1.28C1.335,1.287 1.303,1.289 1.259,1.285C0.898,1.257 0.439,1.181 0,1.072M1.305,0.305L2.463,0.592C2.514,0.605 2.545,0.606 2.72,0.557C3.211,0.419 3.351,0.317 2.875,0.199C2.317,0.06 1.816,0.141 1.312,0.283C1.286,0.29 1.279,0.299 1.305,0.305" style="fill:rgb(22,33,45);fill-rule:nonzero;"/>
                        </g>
                        <g transform="matrix(1,0,0,1,112.273,125.344)">
                            <path d="M0,1.258C-0.038,1.249 -0.037,1.235 0.002,1.224L2.187,0.611C2.679,0.473 2.702,0.41 2.2,0.286C2.012,0.239 1.849,0.205 1.717,0.186C1.66,0.179 1.628,0.178 1.589,0.189L-1.113,0.948C-1.152,0.958 -1.203,0.959 -1.241,0.95L-1.936,0.778C-1.974,0.768 -1.973,0.755 -1.934,0.744L1.325,-0.171C1.364,-0.182 1.408,-0.181 1.452,-0.174C1.849,-0.106 2.49,0.012 2.885,0.11C3.987,0.384 3.991,0.538 3.047,0.803L0.823,1.428C0.784,1.439 0.733,1.44 0.695,1.431L0,1.258Z" style="fill:rgb(22,33,45);fill-rule:nonzero;"/>
                        </g>
                        <g transform="matrix(1,0,0,1,114.532,125.885)">
                            <path d="M0,1.311C-0.501,1.187 -0.519,1.056 -0.047,0.923L2.074,0.328C2.1,0.32 2.1,0.314 2.075,0.308L1.643,0.2C1.605,0.191 1.606,0.177 1.645,0.167L2.168,0.02C2.207,0.009 2.258,0.008 2.296,0.017L2.728,0.124C2.753,0.13 2.779,0.13 2.804,0.123L3.613,-0.104C3.651,-0.115 3.702,-0.116 3.74,-0.107L4.435,0.066C4.473,0.075 4.472,0.089 4.433,0.099L3.625,0.326C3.599,0.334 3.599,0.34 3.624,0.347L4.15,0.477C4.188,0.486 4.187,0.5 4.148,0.511L3.625,0.658C3.586,0.669 3.535,0.67 3.497,0.66L2.971,0.53C2.946,0.524 2.921,0.524 2.895,0.531L0.974,1.071C0.761,1.13 0.772,1.164 0.972,1.214L1.167,1.262C1.198,1.27 1.216,1.281 1.164,1.296L0.712,1.413C0.674,1.423 0.603,1.427 0.566,1.421C0.396,1.395 0.176,1.355 0,1.311" style="fill:rgb(22,33,45);fill-rule:nonzero;"/>
                        </g>
                        <g transform="matrix(1,0,0,1,119.758,127.198)">
                            <path d="M0,-0.251C-0.1,-0.276 -0.276,-0.313 -0.415,-0.327C-0.472,-0.331 -0.498,-0.327 -0.53,-0.318L-3.201,0.432C-3.246,0.445 -3.297,0.446 -3.334,0.433L-4.023,0.262C-4.061,0.253 -4.06,0.239 -4.021,0.228L-0.762,-0.686C-0.724,-0.697 -0.679,-0.697 -0.635,-0.689C-0.251,-0.631 0.278,-0.534 0.679,-0.435C0.885,-0.384 1.01,-0.349 1.16,-0.302C1.185,-0.292 1.178,-0.287 1.146,-0.278L0.52,-0.119C0.5,-0.113 0.468,-0.111 0.444,-0.12C0.319,-0.165 0.175,-0.207 0,-0.251" style="fill:rgb(22,33,45);fill-rule:nonzero;"/>
                        </g>
                        <g transform="matrix(1,0,0,1,120.425,127.12)">
                            <path d="M0,1.354C-0.477,1.365 -0.913,1.312 -1.439,1.182C-1.965,1.051 -2.175,0.944 -2.155,0.819C-2.128,0.682 -1.747,0.483 -1.1,0.301C-0.447,0.118 0.232,0.016 0.748,0.004C1.226,-0.011 1.648,0.05 2.162,0.177C2.694,0.309 2.917,0.412 2.903,0.539C2.87,0.674 2.528,0.856 1.875,1.04C1.229,1.221 0.51,1.337 0,1.354M-1.108,0.847C-1.123,0.894 -1.062,0.933 -0.793,1C-0.504,1.072 -0.353,1.085 -0.18,1.077C0.094,1.066 0.576,0.964 1.048,0.831C1.527,0.697 1.82,0.581 1.85,0.507C1.872,0.461 1.804,0.423 1.528,0.355C1.246,0.285 1.101,0.269 0.922,0.277C0.642,0.289 0.218,0.372 -0.261,0.506C-0.733,0.639 -1.084,0.774 -1.108,0.847" style="fill:rgb(22,33,45);fill-rule:nonzero;"/>
                        </g>
                        <g transform="matrix(1,0,0,1,122.916,127.985)">
                            <path d="M0,1.258C-0.038,1.249 -0.037,1.235 0.002,1.224L2.187,0.611C2.679,0.473 2.702,0.41 2.201,0.286C2.013,0.239 1.849,0.205 1.717,0.186C1.66,0.179 1.628,0.178 1.589,0.189L-1.113,0.948C-1.152,0.958 -1.203,0.959 -1.24,0.95L-1.936,0.778C-1.974,0.768 -1.973,0.755 -1.934,0.744L1.325,-0.171C1.363,-0.182 1.408,-0.181 1.452,-0.174C1.849,-0.106 2.49,0.012 2.885,0.11C3.988,0.384 3.991,0.538 3.047,0.803L0.823,1.428C0.784,1.439 0.733,1.44 0.696,1.431L0,1.258Z" style="fill:rgb(22,33,45);fill-rule:nonzero;"/>
                        </g>
                        <g transform="matrix(1,0,0,1,124.152,129.135)">
                            <path d="M0,0.384L0.594,0.234C0.613,0.228 0.652,0.231 0.67,0.239C0.832,0.303 1.106,0.385 1.313,0.436C1.758,0.547 1.872,0.551 2.196,0.46C2.39,0.406 2.38,0.352 2.234,0.131C2.076,-0.093 2.081,-0.187 2.515,-0.309C3.245,-0.514 3.867,-0.489 4.681,-0.287C4.982,-0.213 5.294,-0.118 5.449,-0.059C5.462,-0.053 5.468,-0.048 5.435,-0.039L4.823,0.114C4.81,0.117 4.771,0.118 4.753,0.11C4.597,0.054 4.36,-0.022 4.178,-0.067C3.784,-0.165 3.626,-0.19 3.348,-0.112C3.122,-0.048 3.157,-0.002 3.335,0.21C3.525,0.448 3.436,0.553 3.035,0.665C2.207,0.898 1.581,0.841 0.804,0.649C0.46,0.563 0.148,0.469 -0.014,0.408C-0.026,0.401 -0.032,0.393 0,0.384" style="fill:rgb(22,33,45);fill-rule:nonzero;"/>
                        </g>
                        <g transform="matrix(1,0,0,1,134.586,130.177)">
                            <path d="M0,1.834L2.644,1.691L3.416,1.114L3.936,1.244L3.339,1.665L5.199,1.557L5.651,1.669L3.189,1.801L2.365,2.421L1.843,2.291L2.484,1.831L0.461,1.948L0,1.834ZM-2.285,1.267L1.097,0.539L2.872,0.98L2.433,1.072L1.079,0.736L0.055,0.958L1.26,1.257L0.831,1.349L-0.376,1.049L-1.425,1.275L-0.037,1.621L-0.48,1.715L-2.285,1.267ZM-4.507,0.716L-1.125,-0.012L-0.702,0.093L-3.641,0.727L-2.385,1.038L-2.825,1.133L-4.507,0.716ZM-6.82,0.141L-3.44,-0.587L-1.685,-0.151L-2.118,-0.059L-3.448,-0.389L-4.489,-0.163L-3.31,0.129L-3.736,0.221L-4.916,-0.072L-6.395,0.247L-6.82,0.141Z" style="fill:rgb(22,33,45);fill-rule:nonzero;"/>
                        </g>
                        <g transform="matrix(1,0,0,1,145.514,125.477)">
                            <path d="M0,-3.986C3.094,-2.843 2.543,-1.162 -1.589,-0.002C-6.235,1.302 -13.648,1.455 -18.147,0.338C-22.646,-0.778 -22.528,-2.741 -17.882,-4.045C-13.75,-5.205 -7.429,-5.454 -2.916,-4.71L-0.635,-5.581C-6.628,-6.579 -15.049,-6.251 -20.548,-4.707C-26.715,-2.976 -26.873,-0.371 -20.901,1.111C-14.929,2.593 -5.089,2.391 1.077,0.66C6.577,-0.884 7.297,-3.123 3.153,-4.641L0,-3.986Z" style="fill:rgb(22,33,45);fill-rule:nonzero;"/>
                        </g>
                        <g transform="matrix(1,0,0,1,130.93,122.57)">
                            <path d="M0,2.27C-1.756,1.834 -1.869,1.112 -0.065,0.606C2.419,1.27 6.349,0.805 7.492,1.088C7.903,1.19 8.218,1.407 7.158,1.89C6.963,1.979 6.725,2.064 6.446,2.142C4.642,2.649 1.756,2.706 0,2.27M3.7,-0.381C1.801,-0.259 -0.098,0.02 -1.264,0.347C-3.584,0.998 -3.559,2 -1.207,2.583C1.144,3.167 4.931,3.112 7.251,2.46C8.417,2.133 9.354,1.615 9.7,1.107C9.7,1.107 10.622,-0.026 11.189,-0.897C7.923,-0.688 3.7,-0.381 3.7,-0.381" style="fill:rgb(22,33,45);fill-rule:nonzero;"/>
                        </g>
                        <g transform="matrix(1,0,0,1,159.95,169.729)">
                            <path d="M0,-0.349L0.872,-0.573C1.127,-0.638 1.329,-0.774 1.478,-0.981C1.628,-1.188 1.702,-1.424 1.702,-1.689C1.702,-1.957 1.63,-2.15 1.487,-2.269C1.343,-2.387 1.161,-2.418 0.941,-2.362L0,-2.12L0,-0.349ZM-0.95,3.036L-0.95,-2.772L1.042,-3.283C1.419,-3.38 1.727,-3.385 1.967,-3.3C2.206,-3.214 2.383,-3.055 2.496,-2.823C2.609,-2.591 2.666,-2.305 2.666,-1.965C2.666,-1.659 2.627,-1.392 2.55,-1.162C2.472,-0.932 2.371,-0.731 2.246,-0.56C2.121,-0.388 1.984,-0.239 1.836,-0.113L2.715,2.095L1.725,2.349L0.957,0.309L0,0.555L0,2.792L-0.95,3.036Z" style="fill:rgb(22,33,45);fill-rule:nonzero;"/>
                        </g>
                        <g transform="matrix(0,-1,-1,0,167.048,169.047)">
                            <path d="M-2.551,3.501L3.257,3.501L3.501,2.551L-2.307,2.551L-2.551,3.501Z" style="fill:rgb(22,33,45);fill-rule:nonzero;"/>
                        </g>
                        <g transform="matrix(1,0,0,1,167.467,164.719)">
                            <path d="M0,5.954C-0.433,6.065 -0.81,6.04 -1.129,5.88C-1.448,5.719 -1.694,5.439 -1.867,5.039C-2.04,4.639 -2.127,4.136 -2.127,3.531C-2.127,2.915 -2.036,2.36 -1.854,1.865C-1.672,1.369 -1.418,0.958 -1.091,0.631C-0.764,0.303 -0.383,0.084 0.052,-0.028C0.333,-0.1 0.589,-0.111 0.82,-0.06C1.051,-0.01 1.252,0.089 1.423,0.235C1.594,0.381 1.727,0.562 1.824,0.777C1.921,0.991 1.974,1.226 1.983,1.481L0.977,1.739C0.949,1.561 0.892,1.407 0.808,1.276C0.725,1.145 0.618,1.05 0.487,0.991C0.356,0.932 0.204,0.925 0.029,0.97C-0.18,1.024 -0.369,1.139 -0.539,1.314C-0.709,1.491 -0.843,1.736 -0.941,2.05C-1.039,2.364 -1.088,2.759 -1.088,3.233C-1.088,3.616 -1.056,3.926 -0.991,4.164C-0.927,4.402 -0.841,4.581 -0.732,4.702C-0.623,4.822 -0.499,4.896 -0.359,4.921C-0.22,4.947 -0.077,4.942 0.069,4.904C0.208,4.868 0.333,4.808 0.443,4.722C0.553,4.636 0.647,4.538 0.725,4.427C0.804,4.315 0.866,4.2 0.911,4.079C0.957,3.959 0.987,3.845 1,3.737L1.035,3.375L0.059,3.625L0.059,2.814L2.035,2.319L2.035,5.352L1.385,5.518L1.385,4.759C1.305,4.911 1.205,5.067 1.086,5.228C0.967,5.388 0.82,5.533 0.645,5.662C0.47,5.791 0.255,5.889 0,5.954" style="fill:rgb(22,33,45);fill-rule:nonzero;"/>
                        </g>
                        <g transform="matrix(1,0,0,1,170.515,162.984)">
                            <path d="M0,6.827L0,1.019L0.95,0.776L0.95,3.105L3.018,2.575L3.018,0.245L3.972,0L3.972,5.808L3.018,6.053L3.018,3.558L0.95,4.089L0.95,6.583L0,6.827Z" style="fill:rgb(22,33,45);fill-rule:nonzero;"/>
                        </g>
                        <g transform="matrix(1,0,0,1,176.568,161.848)">
                            <path d="M0,6.411L0,1.647L-1.428,2.013L-1.428,0.969L2.352,0L2.352,1.044L0.957,1.402L0.957,6.166L0,6.411Z" style="fill:rgb(22,33,45);fill-rule:nonzero;"/>
                        </g>
                        <g transform="matrix(1,0,0,1,44.3967,144.656)">
                            <path d="M0,5.425L0,-0.257L3.2,0.604L3.196,1.562L0.956,0.959L0.956,2.385L2.897,2.908L2.897,3.847L0.956,3.324L0.956,5.682L0,5.425Z" style="fill:rgb(22,33,45);fill-rule:nonzero;"/>
                        </g>
                        <g transform="matrix(1,0,0,1,49.3325,149.272)">
                            <path d="M0,-0.936L0.868,-0.702C1.122,-0.634 1.323,-0.662 1.472,-0.787C1.62,-0.912 1.694,-1.105 1.694,-1.364C1.694,-1.626 1.623,-1.852 1.48,-2.043C1.337,-2.233 1.156,-2.358 0.937,-2.417L0,-2.669L0,-0.936ZM-0.946,1.882L-0.946,-3.8L1.037,-3.266C1.412,-3.165 1.719,-3.01 1.958,-2.802C2.196,-2.594 2.372,-2.347 2.484,-2.061C2.597,-1.776 2.653,-1.466 2.653,-1.134C2.653,-0.835 2.615,-0.593 2.538,-0.408C2.461,-0.223 2.36,-0.079 2.236,0.023C2.111,0.126 1.975,0.201 1.827,0.247L2.702,2.864L1.717,2.599L0.953,0.205L0,-0.052L0,2.137L-0.946,1.882Z" style="fill:rgb(22,33,45);fill-rule:nonzero;"/>
                        </g>
                        <g transform="matrix(1,0,0,1,54.7665,148.055)">
                            <path d="M0,3.952C0.23,4.014 0.429,4.001 0.597,3.914C0.765,3.827 0.894,3.652 0.985,3.39C1.076,3.128 1.122,2.766 1.122,2.305C1.122,1.831 1.076,1.434 0.984,1.116C0.892,0.798 0.761,0.547 0.593,0.365C0.425,0.182 0.228,0.06 0,-0.001C-0.228,-0.063 -0.426,-0.047 -0.595,0.045C-0.764,0.137 -0.895,0.318 -0.989,0.587C-1.082,0.857 -1.128,1.227 -1.128,1.699C-1.128,2.163 -1.082,2.55 -0.989,2.86C-0.895,3.171 -0.764,3.416 -0.595,3.593C-0.426,3.771 -0.228,3.891 0,3.952M0,4.895C-0.445,4.775 -0.829,4.555 -1.153,4.233C-1.477,3.911 -1.727,3.51 -1.904,3.029C-2.081,2.548 -2.169,2.006 -2.169,1.403C-2.169,0.798 -2.079,0.301 -1.901,-0.089C-1.722,-0.478 -1.47,-0.747 -1.145,-0.897C-0.82,-1.046 -0.438,-1.062 0,-0.944C0.436,-0.827 0.815,-0.607 1.138,-0.284C1.461,0.038 1.711,0.442 1.888,0.927C2.064,1.412 2.152,1.959 2.152,2.567C2.152,3.166 2.065,3.66 1.891,4.048C1.716,4.436 1.468,4.704 1.145,4.851C0.821,4.999 0.44,5.014 0,4.895" style="fill:rgb(22,33,45);fill-rule:nonzero;"/>
                        </g>
                        <g transform="matrix(1,0,0,1,57.7581,149.081)">
                            <path d="M0,4.596L0,-1.086L0.94,-0.833L3.086,3.505L3.086,-0.256L4.035,0L4.035,5.682L3.18,5.452L0.946,0.941L0.946,4.851L0,4.596Z" style="fill:rgb(22,33,45);fill-rule:nonzero;"/>
                        </g>
                        <g transform="matrix(1,0,0,1,63.8614,149.511)">
                            <path d="M0,5.809L0,1.148L-1.421,0.766L-1.421,-0.256L2.341,0.757L2.341,1.778L0.953,1.405L0.953,6.065L0,5.809Z" style="fill:rgb(22,33,45);fill-rule:nonzero;"/>
                        </g>
                        <g transform="matrix(1,0,0,1,148.368,159.695)">
                            <path d="M0,-11.633L6.019,-13.102L11.582,-11.828L11.582,-0.045L5.68,1.469L5.68,-10.198L0,-11.633Z" style="fill:rgb(255,214,0);fill-rule:nonzero;stroke:rgb(22,33,45);stroke-width:1px;"/>
                        </g>
                        <g transform="matrix(1,0,0,1,155.771,157.042)">
                            <path d="M0,-3.493L2.8,-4.079L5.065,-2.078C5.409,-1.774 5.269,-1.21 4.823,-1.102L-1.662,0.462C-2.176,0.586 -2.565,0.002 -2.252,-0.424L0,-3.493Z" style="fill:rgb(255,214,0);fill-rule:nonzero;stroke:rgb(22,33,45);stroke-width:1px;"/>
                        </g>
                        <g transform="matrix(0.251614,-0.967828,-0.967828,-0.251614,157.594,152.014)">
                            <path d="M-0.927,-0.717C-1.85,-0.717 -2.598,-0.288 -2.598,0.241C-2.598,0.77 -1.851,1.198 -0.927,1.199C-0.004,1.199 0.744,0.77 0.744,0.241C0.744,-0.288 -0.004,-0.717 -0.927,-0.717" style="fill:rgb(255,214,0);fill-rule:nonzero;"/>
                        </g>
                        <g transform="matrix(0.251614,-0.967828,-0.967828,-0.251614,157.594,152.014)">
                            <ellipse cx="-0.927" cy="0.241" rx="1.671" ry="0.958" style="fill:none;stroke:rgb(22,33,45);stroke-width:1px;"/>
                        </g>
                        <g transform="matrix(0.972666,-0.232207,-0.232207,-0.972666,154.292,150.163)">
                            <path d="M-0.083,0.704L5.985,0.704" style="fill:none;fill-rule:nonzero;stroke:rgb(22,33,45);stroke-width:0.5px;"/>
                        </g>
                        <g transform="matrix(1,0,0,1,147.704,160.901)">
                            <path d="M0,-11.633L-6.019,-13.102L-11.582,-11.828L-11.582,-0.045L-5.68,1.469L-5.68,-10.198L0,-11.633Z" style="fill:rgb(255,214,0);fill-rule:nonzero;stroke:rgb(22,33,45);stroke-width:1px;"/>
                        </g>
                        <g transform="matrix(1,0,0,1,140.3,158.248)">
                            <path d="M0,-3.493L-2.8,-4.079L-5.065,-2.078C-5.409,-1.774 -5.269,-1.21 -4.823,-1.102L1.662,0.462C2.176,0.586 2.565,0.002 2.252,-0.424L0,-3.493Z" style="fill:rgb(255,214,0);fill-rule:nonzero;stroke:rgb(22,33,45);stroke-width:1px;"/>
                        </g>
                        <g transform="matrix(0.251614,0.967828,0.967828,-0.251614,138.478,153.22)">
                            <path d="M0.927,-0.717C1.85,-0.717 2.598,-0.288 2.598,0.241C2.598,0.77 1.851,1.198 0.927,1.199C0.004,1.199 -0.744,0.77 -0.744,0.241C-0.744,-0.288 0.004,-0.717 0.927,-0.717" style="fill:rgb(255,214,0);fill-rule:nonzero;"/>
                        </g>
                        <g transform="matrix(0.251614,0.967828,0.967828,-0.251614,138.478,153.22)">
                            <ellipse cx="0.927" cy="0.241" rx="1.671" ry="0.958" style="fill:none;stroke:rgb(22,33,45);stroke-width:1px;"/>
                        </g>
                        <g transform="matrix(-0.972666,-0.232207,-0.232207,0.972666,136.366,148.628)">
                            <path d="M-5.985,0.704L0.083,0.704" style="fill:none;fill-rule:nonzero;stroke:rgb(22,33,45);stroke-width:0.5px;"/>
                        </g>
                        <g transform="matrix(1,0,0,1,46.2817,134.292)">
                            <path d="M0,-11.633L-6.019,-13.102L-11.582,-11.828L-11.582,-0.045L-5.68,1.469L-5.68,-10.198L0,-11.633Z" style="fill:rgb(255,214,0);fill-rule:nonzero;stroke:rgb(22,33,45);stroke-width:1px;"/>
                        </g>
                        <g transform="matrix(1,0,0,1,38.8784,131.638)">
                            <path d="M0,-3.493L-2.8,-4.079L-5.065,-2.078C-5.409,-1.774 -5.269,-1.21 -4.823,-1.102L1.662,0.462C2.176,0.586 2.565,0.002 2.252,-0.424L0,-3.493Z" style="fill:rgb(255,214,0);fill-rule:nonzero;stroke:rgb(22,33,45);stroke-width:1px;"/>
                        </g>
                        <g transform="matrix(0.251614,0.967828,0.967828,-0.251614,37.0559,126.61)">
                            <path d="M0.927,-0.717C1.85,-0.717 2.598,-0.288 2.598,0.241C2.598,0.77 1.851,1.198 0.927,1.199C0.004,1.199 -0.744,0.77 -0.744,0.241C-0.744,-0.288 0.004,-0.717 0.927,-0.717" style="fill:rgb(255,214,0);fill-rule:nonzero;"/>
                        </g>
                        <g transform="matrix(0.251614,0.967828,0.967828,-0.251614,37.0559,126.61)">
                            <ellipse cx="0.927" cy="0.241" rx="1.671" ry="0.958" style="fill:none;stroke:rgb(22,33,45);stroke-width:1px;"/>
                        </g>
                        <g transform="matrix(-0.972666,-0.232207,-0.232207,0.972666,34.9437,122.019)">
                            <path d="M-5.985,0.704L0.083,0.704" style="fill:none;fill-rule:nonzero;stroke:rgb(22,33,45);stroke-width:0.5px;"/>
                        </g>
                        <g transform="matrix(1,0,0,1,218.138,141.301)">
                            <path d="M0,-11.633L6.019,-13.102L11.582,-11.828L11.582,-0.045L5.68,1.469L5.68,-10.198L0,-11.633Z" style="fill:rgb(255,214,0);fill-rule:nonzero;stroke:rgb(22,33,45);stroke-width:1px;"/>
                        </g>
                        <g transform="matrix(1,0,0,1,225.541,138.647)">
                            <path d="M0,-3.493L2.8,-4.079L5.065,-2.078C5.409,-1.774 5.269,-1.21 4.823,-1.102L-1.662,0.462C-2.176,0.586 -2.565,0.002 -2.252,-0.424L0,-3.493Z" style="fill:rgb(255,214,0);fill-rule:nonzero;stroke:rgb(22,33,45);stroke-width:1px;"/>
                        </g>
                        <g transform="matrix(0.251614,-0.967828,-0.967828,-0.251614,227.363,133.619)">
                            <path d="M-0.927,-0.717C-1.85,-0.717 -2.598,-0.288 -2.598,0.241C-2.598,0.77 -1.851,1.198 -0.927,1.199C-0.004,1.199 0.744,0.77 0.744,0.241C0.744,-0.288 -0.004,-0.717 -0.927,-0.717" style="fill:rgb(255,214,0);fill-rule:nonzero;"/>
                        </g>
                        <g transform="matrix(0.251614,-0.967828,-0.967828,-0.251614,227.363,133.619)">
                            <ellipse cx="-0.927" cy="0.241" rx="1.671" ry="0.958" style="fill:none;stroke:rgb(22,33,45);stroke-width:1px;"/>
                        </g>
                        <g transform="matrix(0.972666,-0.232207,-0.232207,-0.972666,224.062,131.769)">
                            <path d="M-0.083,0.704L5.985,0.704" style="fill:none;fill-rule:nonzero;stroke:rgb(22,33,45);stroke-width:0.5px;"/>
                        </g>
                        <g transform="matrix(0.971878,0.235483,0.235483,-0.971878,45.8204,117.481)">
                            <path d="M-0.436,0.23L4.94,0.23L-1.972,-3.661L-7.343,-3.47L-0.436,0.23Z" style="fill:rgb(255,214,0);fill-rule:nonzero;stroke:rgb(22,33,45);stroke-width:1px;"/>
                        </g>
                        <g transform="matrix(0.971878,0.235483,0.235483,-0.971878,113.342,100.199)">
                            <path d="M-0.436,0.23L4.94,0.23L-1.972,-3.661L-7.343,-3.47L-0.436,0.23Z" style="fill:rgb(255,214,0);fill-rule:nonzero;stroke:rgb(22,33,45);stroke-width:1px;"/>
                        </g>
                        <g transform="matrix(-0.971878,0.235483,0.235483,0.971878,126.347,101.619)">
                            <path d="M1.923,-3.65L7.299,-3.65L0.387,0.241L-4.984,0.05L1.923,-3.65Z" style="fill:rgb(255,214,0);fill-rule:nonzero;stroke:rgb(22,33,45);stroke-width:1px;"/>
                        </g>
                        <g transform="matrix(-0.971878,0.235483,0.235483,0.971878,222.627,126.642)">
                            <path d="M1.923,-3.65L7.299,-3.65L0.387,0.241L-4.984,0.05L1.923,-3.65Z" style="fill:rgb(255,214,0);fill-rule:nonzero;stroke:rgb(22,33,45);stroke-width:1px;"/>
                        </g>
                        <g transform="matrix(1,0,0,1,139.247,179.46)">
                            <path d="M0,-6.997L-0.031,-0.801L6.694,0.916L16.695,-1.821L16.798,-7.913L6.909,-5.203L0,-6.997Z" style="fill:white;fill-rule:nonzero;stroke:rgb(22,33,45);stroke-width:1px;"/>
                        </g>
                        <g transform="matrix(1,0,0,1,150.366,176.383)">
                            <path d="M0,-1.556L0.08,1.303L2.553,3.042C2.928,3.306 3.445,3.038 3.446,2.58L3.461,-4.091C3.462,-4.62 2.804,-4.862 2.462,-4.459L0,-1.556Z" style="fill:white;fill-rule:nonzero;stroke:rgb(22,33,45);stroke-width:1px;"/>
                        </g>
                        <g transform="matrix(0,1,1,0,149.19,177.291)">
                            <path d="M-3.034,-3.034L3.034,-3.034" style="fill:none;fill-rule:nonzero;stroke:rgb(22,33,45);stroke-width:0.5px;"/>
                        </g>
                        <g transform="matrix(0.251614,-0.967828,-0.967828,-0.251614,150.244,175.573)">
                            <path d="M-0.927,-0.717C-1.85,-0.717 -2.598,-0.288 -2.598,0.241C-2.598,0.77 -1.851,1.198 -0.927,1.199C-0.004,1.199 0.744,0.77 0.744,0.241C0.744,-0.288 -0.004,-0.717 -0.927,-0.717" style="fill:white;fill-rule:nonzero;"/>
                        </g>
                        <g transform="matrix(0.251614,-0.967828,-0.967828,-0.251614,150.244,175.573)">
                            <ellipse cx="-0.927" cy="0.241" rx="1.671" ry="0.958" style="fill:none;stroke:rgb(22,33,45);stroke-width:1px;"/>
                        </g>
                        <g transform="matrix(1,0,0,1,139.247,296.823)">
                            <path d="M0,-6.997L-0.031,-0.801L6.694,0.916L16.695,-1.821L16.798,-7.913L6.909,-5.203L0,-6.997Z" style="fill:white;fill-rule:nonzero;stroke:rgb(22,33,45);stroke-width:1px;"/>
                        </g>
                        <g transform="matrix(1,0,0,1,150.366,293.747)">
                            <path d="M0,-1.556L0.08,1.303L2.553,3.042C2.928,3.306 3.445,3.038 3.446,2.58L3.461,-4.091C3.462,-4.62 2.804,-4.862 2.462,-4.459L0,-1.556Z" style="fill:white;fill-rule:nonzero;stroke:rgb(22,33,45);stroke-width:1px;"/>
                        </g>
                        <g transform="matrix(0,1,1,0,149.19,294.654)">
                            <path d="M-3.034,-3.034L3.034,-3.034" style="fill:none;fill-rule:nonzero;stroke:rgb(22,33,45);stroke-width:0.5px;"/>
                        </g>
                        <g transform="matrix(0.251614,-0.967828,-0.967828,-0.251614,150.244,292.936)">
                            <path d="M-0.927,-0.717C-1.85,-0.717 -2.598,-0.288 -2.598,0.241C-2.598,0.77 -1.851,1.198 -0.927,1.199C-0.004,1.199 0.744,0.77 0.744,0.241C0.744,-0.288 -0.004,-0.717 -0.927,-0.717" style="fill:white;fill-rule:nonzero;"/>
                        </g>
                        <g transform="matrix(0.251614,-0.967828,-0.967828,-0.251614,150.244,292.936)">
                            <ellipse cx="-0.927" cy="0.241" rx="1.671" ry="0.958" style="fill:none;stroke:rgb(22,33,45);stroke-width:1px;"/>
                        </g>
                        <g transform="matrix(-0.958945,0.283593,0.283593,0.958945,226.833,155.5)">
                            <path d="M-9.049,4.371L1.12,4.371L-0.705,-1.443L-10.802,-1.31L-9.049,4.371Z" style="fill:white;fill-rule:nonzero;stroke:rgb(22,33,45);stroke-width:1px;"/>
                        </g>
                        <g transform="matrix(1,0,0,1,232.677,155.172)">
                            <path d="M0,1.556L-0.08,-1.303L-2.553,-3.042C-2.928,-3.306 -3.445,-3.038 -3.446,-2.58L-3.461,4.091C-3.462,4.62 -2.804,4.862 -2.462,4.459L0,1.556Z" style="fill:white;fill-rule:nonzero;stroke:rgb(22,33,45);stroke-width:1px;"/>
                        </g>
                        <g transform="matrix(-0.251614,0.967828,0.967828,0.251614,233.733,154.31)">
                            <path d="M0.927,-1.199C0.004,-1.199 -0.744,-0.77 -0.744,-0.241C-0.744,0.288 0.003,0.716 0.927,0.717C1.85,0.717 2.598,0.288 2.598,-0.241C2.598,-0.77 1.85,-1.199 0.927,-1.199" style="fill:white;fill-rule:nonzero;"/>
                        </g>
                        <g transform="matrix(-0.251614,0.967828,0.967828,0.251614,233.733,154.31)">
                            <ellipse cx="0.927" cy="-0.241" rx="1.671" ry="0.958" style="fill:none;stroke:rgb(22,33,45);stroke-width:1px;"/>
                        </g>
                        <g transform="matrix(-0.958945,0.283593,0.283593,0.958945,226.833,272.912)">
                            <path d="M-9.049,4.371L1.12,4.371L-0.705,-1.443L-10.802,-1.31L-9.049,4.371Z" style="fill:white;fill-rule:nonzero;stroke:rgb(22,33,45);stroke-width:1px;"/>
                        </g>
                        <g transform="matrix(1,0,0,1,232.677,272.584)">
                            <path d="M0,1.556L-0.08,-1.303L-2.553,-3.042C-2.928,-3.306 -3.445,-3.038 -3.446,-2.58L-3.461,4.091C-3.462,4.62 -2.804,4.862 -2.462,4.459L0,1.556Z" style="fill:white;fill-rule:nonzero;stroke:rgb(22,33,45);stroke-width:1px;"/>
                        </g>
                        <g transform="matrix(-0.251614,0.967828,0.967828,0.251614,233.733,271.722)">
                            <path d="M0.927,-1.199C0.004,-1.199 -0.744,-0.77 -0.744,-0.241C-0.744,0.288 0.003,0.716 0.927,0.717C1.85,0.717 2.598,0.288 2.598,-0.241C2.598,-0.77 1.85,-1.199 0.927,-1.199" style="fill:white;fill-rule:nonzero;"/>
                        </g>
                        <g transform="matrix(-0.251614,0.967828,0.967828,0.251614,233.733,271.722)">
                            <ellipse cx="0.927" cy="-0.241" rx="1.671" ry="0.958" style="fill:none;stroke:rgb(22,33,45);stroke-width:1px;"/>
                        </g>
                        <g transform="matrix(-0.956448,-0.291904,-0.291904,0.956448,30.7838,144.262)">
                            <path d="M-5.263,6.769L-0.816,6.769L1.01,0.785L-3.437,0.785L-5.263,6.769Z" style="fill:white;fill-rule:nonzero;stroke:rgb(22,33,45);stroke-width:1px;"/>
                        </g>
                        <g transform="matrix(-0.956448,-0.291904,-0.291904,0.956448,30.7838,260.555)">
                            <path d="M-5.263,6.769L-0.816,6.769L1.01,0.785L-3.437,0.785L-5.263,6.769Z" style="fill:white;fill-rule:nonzero;stroke:rgb(22,33,45);stroke-width:1px;"/>
                        </g>
                        <g transform="matrix(0,-1,-1,0,160.582,310.439)">
                            <path d="M-12.592,6.69L8.32,6.69L6.805,12.592L-14.222,12.592L-12.592,6.69Z" style="fill:white;fill-rule:nonzero;stroke:rgb(22,33,45);stroke-width:1px;"/>
                        </g>
                        <g transform="matrix(1,0,0,1,152.602,306.268)">
                            <path d="M0,3.493L-2.8,4.079L-5.065,2.078C-5.409,1.774 -5.269,1.21 -4.823,1.102L1.662,-0.462C2.176,-0.586 2.565,-0.002 2.252,0.424L0,3.493Z" style="fill:white;fill-rule:nonzero;stroke:rgb(22,33,45);stroke-width:1px;"/>
                        </g>
                        <g transform="matrix(-0.251614,0.967828,0.967828,0.251614,151.712,309.622)">
                            <path d="M0.927,-1.199C0.004,-1.199 -0.744,-0.77 -0.744,-0.241C-0.744,0.288 0.003,0.716 0.927,0.717C1.85,0.717 2.598,0.288 2.598,-0.241C2.598,-0.77 1.85,-1.199 0.927,-1.199" style="fill:white;fill-rule:nonzero;"/>
                        </g>
                        <g transform="matrix(-0.251614,0.967828,0.967828,0.251614,151.712,309.622)">
                            <ellipse cx="0.927" cy="-0.241" rx="1.671" ry="0.958" style="fill:none;stroke:rgb(22,33,45);stroke-width:1px;"/>
                        </g>
                        <g transform="matrix(0.967803,-0.251708,-0.251708,-0.967803,148.278,316.217)">
                            <path d="M-0.098,0.768L6,0.768" style="fill:none;fill-rule:nonzero;stroke:rgb(22,33,45);stroke-width:0.5px;stroke-linejoin:miter;"/>
                        </g>
                        <g transform="matrix(0,-1,-1,0,148.588,315.435)">
                            <path d="M-6.69,12.592L14.222,12.592L12.707,6.69L-8.32,6.69L-6.69,12.592Z" style="fill:white;fill-rule:nonzero;stroke:rgb(22,33,45);stroke-width:1px;"/>
                        </g>
                        <g transform="matrix(1,0,0,1,137.286,305.361)">
                            <path d="M0,3.493L2.8,4.079L5.065,2.078C5.409,1.774 5.269,1.21 4.823,1.102L-1.662,-0.462C-2.176,-0.586 -2.565,-0.002 -2.252,0.424L0,3.493Z" style="fill:white;fill-rule:nonzero;stroke:rgb(22,33,45);stroke-width:1px;"/>
                        </g>
                        <g transform="matrix(-0.251614,-0.967828,-0.967828,0.251614,138.176,308.716)">
                            <path d="M-0.927,-1.199C-0.004,-1.199 0.744,-0.77 0.744,-0.241C0.744,0.288 -0.003,0.716 -0.927,0.717C-1.85,0.717 -2.598,0.288 -2.598,-0.241C-2.598,-0.77 -1.85,-1.199 -0.927,-1.199" style="fill:white;fill-rule:nonzero;"/>
                        </g>
                        <g transform="matrix(-0.251614,-0.967828,-0.967828,0.251614,138.176,308.716)">
                            <ellipse cx="-0.927" cy="-0.241" rx="1.671" ry="0.958" style="fill:none;stroke:rgb(22,33,45);stroke-width:1px;"/>
                        </g>
                        <g transform="matrix(-0.967803,-0.251708,-0.251708,0.967803,136.284,312.339)">
                            <path d="M-6,0.768L0.098,0.768" style="fill:none;fill-rule:nonzero;stroke:rgb(22,33,45);stroke-width:0.5px;stroke-linejoin:miter;"/>
                        </g>
                        <g transform="matrix(0,-1,-1,0,46.1861,289.368)">
                            <path d="M-6.69,12.592L14.222,12.592L12.707,6.69L-8.32,6.69L-6.69,12.592Z" style="fill:white;fill-rule:nonzero;stroke:rgb(22,33,45);stroke-width:1px;"/>
                        </g>
                        <g transform="matrix(1,0,0,1,34.8848,279.294)">
                            <path d="M0,3.493L2.8,4.079L5.065,2.078C5.409,1.774 5.269,1.209 4.823,1.102L-1.662,-0.462C-2.176,-0.586 -2.565,-0.002 -2.252,0.424L0,3.493Z" style="fill:white;fill-rule:nonzero;stroke:rgb(22,33,45);stroke-width:1px;"/>
                        </g>
                        <g transform="matrix(-0.251614,-0.967828,-0.967828,0.251614,35.7742,282.649)">
                            <path d="M-0.927,-1.199C-0.004,-1.199 0.744,-0.77 0.744,-0.241C0.744,0.288 -0.003,0.716 -0.927,0.717C-1.85,0.717 -2.598,0.288 -2.598,-0.241C-2.598,-0.77 -1.85,-1.199 -0.927,-1.199" style="fill:white;fill-rule:nonzero;"/>
                        </g>
                        <g transform="matrix(-0.251614,-0.967828,-0.967828,0.251614,35.7742,282.649)">
                            <ellipse cx="-0.927" cy="-0.241" rx="1.671" ry="0.958" style="fill:none;stroke:rgb(22,33,45);stroke-width:1px;"/>
                        </g>
                        <g transform="matrix(-0.967803,-0.251708,-0.251708,0.967803,33.8823,286.272)">
                            <path d="M-6,0.768L0.098,0.768" style="fill:none;fill-rule:nonzero;stroke:rgb(22,33,45);stroke-width:0.5px;stroke-linejoin:miter;"/>
                        </g>
                        <g transform="matrix(0,-1,-1,0,228.566,292.902)">
                            <path d="M-12.592,6.69L8.32,6.69L6.805,12.592L-14.222,12.592L-12.592,6.69Z" style="fill:white;fill-rule:nonzero;stroke:rgb(22,33,45);stroke-width:1px;"/>
                        </g>
                        <g transform="matrix(1,0,0,1,220.585,288.731)">
                            <path d="M0,3.493L-2.8,4.079L-5.065,2.078C-5.409,1.774 -5.269,1.209 -4.823,1.102L1.662,-0.462C2.176,-0.586 2.565,-0.002 2.252,0.424L0,3.493Z" style="fill:white;fill-rule:nonzero;stroke:rgb(22,33,45);stroke-width:1px;"/>
                        </g>
                        <g transform="matrix(-0.251614,0.967828,0.967828,0.251614,219.696,292.086)">
                            <path d="M0.927,-1.199C0.004,-1.199 -0.744,-0.77 -0.744,-0.241C-0.744,0.288 0.003,0.716 0.927,0.717C1.85,0.717 2.598,0.288 2.598,-0.241C2.598,-0.77 1.85,-1.199 0.927,-1.199" style="fill:white;fill-rule:nonzero;"/>
                        </g>
                        <g transform="matrix(-0.251614,0.967828,0.967828,0.251614,219.696,292.086)">
                            <ellipse cx="0.927" cy="-0.241" rx="1.671" ry="0.958" style="fill:none;stroke:rgb(22,33,45);stroke-width:1px;"/>
                        </g>
                        <g transform="matrix(0.967803,-0.251708,-0.251708,-0.967803,216.262,298.68)">
                            <path d="M-0.098,0.768L6,0.768" style="fill:none;fill-rule:nonzero;stroke:rgb(22,33,45);stroke-width:0.5px;stroke-linejoin:miter;"/>
                        </g>
                    </g>
                </g>
                <g transform="matrix(-0.956961,-0.290218,-0.290218,0.956961,175.721,135.566)">
                    <path d="M-161.986,24.022L3.563,24.023" style="fill:none;fill-rule:nonzero;stroke:rgb(0,108,250);stroke-width:3px;stroke-linecap:round;stroke-linejoin:miter;"/>
                </g>
                <g>
                    <g>
                        <clipPath id="_clip1">
                            <path d="M252.897,205.566C252.897,244.704 284.624,276.432 323.762,276.432C362.902,276.432 394.629,244.704 394.629,205.566C394.629,166.427 362.902,134.7 323.762,134.7C284.624,134.7 252.897,166.427 252.897,205.566Z"/>
                        </clipPath>
                        <g clip-path="url(#_clip1)">
                            <g transform="matrix(1,0,0,1,0,-10)">
                                <rect x="175.03" y="75.866" width="283.465" height="283.465" style="fill:white;"/>
                            </g>
                            <g transform="matrix(1,0,0,1,353.57,184.108)">
                                <path d="M0,-8.545L-36.588,-18.009C-38.664,-18.546 -40.841,-18.545 -42.916,-18.006L-83.675,-7.422C-86.431,-6.789 -87.357,-6.13 -87.412,-5.563L-87.414,-5.563L-87.414,-5.531C-87.415,-5.513 -87.416,-5.494 -87.415,-5.476C-87.418,-5.003 -87.447,-3.723 -87.447,-3.723C-87.318,-3.113 -86.227,-2.631 -85.486,-2.439L-52.741,6.031C-51.685,6.26 -52.062,6.752 -53.648,8.917C-52.863,9.738 -52.671,10.001 -52.671,10.001L-38.439,5.797C-34.279,1.206 -36.972,0.548 -36.972,0.548L-38.938,-0.082L-20.211,-4.432C-20.211,-4.432 -16.927,-3.611 -15.769,-3.282C-14.612,-2.954 -16.982,-0.162 -16.982,-0.162L-15.769,0.908L-1.538,-3.296C2.477,-8.127 0,-8.545 0,-8.545" style="fill:white;fill-rule:nonzero;"/>
                            </g>
                            <g transform="matrix(1,0,0,1,338.768,180.25)">
                                <path d="M0,-0.829C0,-0.829 3.038,-0.081 -0.968,4.766L13.264,0.563C17.279,-4.268 14.801,-4.687 14.801,-4.687L-21.787,-14.151C-23.862,-14.688 -26.04,-14.687 -28.115,-14.148L-68.874,-3.564C-74.981,-2.161 -72.117,-0.629 -70.644,-0.248L-36.402,8.609C-36.402,8.609 -33.636,8.677 -37.869,13.859L-23.637,9.656C-19.477,5.064 -22.17,4.406 -22.17,4.406L-27.023,2.853L-5.473,-2.213L0,-0.829Z" style="fill:none;fill-rule:nonzero;stroke:rgb(22,33,45);stroke-width:1px;"/>
                            </g>
                            <g transform="matrix(1,0,0,1,300.899,178.546)">
                                <path d="M0,15.563C0,15.563 -0.193,15.3 -0.977,14.479C0.609,12.314 0.985,11.823 -0.07,11.594L-32.816,3.123C-33.556,2.932 -34.648,2.45 -34.776,1.84C-34.776,1.84 -34.743,0.388 -34.743,0" style="fill:none;fill-rule:nonzero;stroke:rgb(22,33,45);stroke-width:1px;"/>
                            </g>
                            <g transform="matrix(-0.749657,-0.661826,-0.661826,0.749657,320.312,173.061)">
                                <path d="M-21.022,-2.612L-19.405,-2.612C-19.405,-2.612 -19.334,-6.273 -18.249,-5.753C-17.163,-5.233 -14.158,-3.675 -14.158,-3.675L-2.999,11.98" style="fill:none;fill-rule:nonzero;stroke:rgb(22,33,45);stroke-width:1px;"/>
                            </g>
                            <g transform="matrix(1,0,0,1,345.236,222.321)">
                                <path d="M0,15.906L0,-25.587L-0.781,-27.464C-0.781,-27.464 -1.546,-27.873 -1.999,-28.797C-2.503,-31.025 -4.126,-39.602 -4.406,-41.081C-4.968,-44.039 -9.013,-43.269 -9.013,-43.269L-26.401,-38.905L-27.905,-38.103L-28.287,-37.494L-27.734,-36.387L-28.533,-34.014L-28.797,-32.233L-29.996,-23.943L-29.996,21.781C-29.996,21.781 -29.659,23.747 -28.772,24.121C-27.885,24.494 -26.401,25.16 -26.401,25.16C-26.401,25.16 -24.765,25.207 -23.823,24.607C-23.352,25.098 -22.829,25.825 -20.629,25.23C-18.429,24.634 -2.746,20.371 -2.746,20.371C-2.746,20.371 0,19.701 0,15.906Z" style="fill:white;fill-rule:nonzero;"/>
                            </g>
                            <g transform="matrix(0,-1,-1,0,334.178,178.857)">
                                <path d="M-0.82,0.82L0.82,0.82" style="fill:none;fill-rule:nonzero;stroke:rgb(22,33,45);stroke-width:1px;"/>
                            </g>
                            <g transform="matrix(0,-1,-1,0,285.594,172.472)">
                                <path d="M-4.313,-3.391C-4.988,-3.391 -5.535,-1.666 -5.535,0.461C-5.535,2.588 -4.988,4.313 -4.313,4.313C-3.638,4.313 -2.169,2.588 -2.169,0.461C-2.169,-1.666 -3.638,-3.391 -4.313,-3.391Z" style="fill:none;fill-rule:nonzero;stroke:rgb(22,33,45);stroke-width:1px;"/>
                            </g>
                            <g transform="matrix(0,-1,-1,0,313.94,164.849)">
                                <path d="M-4.313,-3.391C-4.988,-3.391 -5.535,-1.666 -5.535,0.461C-5.535,2.588 -4.988,4.313 -4.313,4.313C-3.638,4.313 -2.169,2.588 -2.169,0.461C-2.169,-1.666 -3.638,-3.391 -4.313,-3.391Z" style="fill:none;fill-rule:nonzero;stroke:rgb(22,33,45);stroke-width:1px;"/>
                            </g>
                            <g transform="matrix(0,-1,-1,0,316.824,172.472)">
                                <path d="M-4.313,-3.391C-4.988,-3.391 -5.535,-1.666 -5.535,0.461C-5.535,2.588 -4.988,4.313 -4.313,4.313C-3.638,4.313 -2.169,2.588 -2.169,0.461C-2.169,-1.666 -3.638,-3.391 -4.313,-3.391Z" style="fill:none;fill-rule:nonzero;stroke:rgb(22,33,45);stroke-width:1px;"/>
                            </g>
                            <g transform="matrix(1,0,0,1,324.123,242.803)">
                                <path d="M0,-43.174L18.39,-48.153C19.762,-48.525 21.113,-47.491 21.113,-46.069L21.113,-4.044C21.113,-2.152 19.845,-0.494 18.018,-0L-0.372,4.979C-1.744,5.351 -3.094,4.317 -3.094,2.896L-3.094,-39.13C-3.094,-41.022 -1.826,-42.68 0,-43.174Z" style="fill:none;fill-rule:nonzero;stroke:rgb(22,33,45);stroke-width:1px;"/>
                            </g>
                            <g transform="matrix(1,0,0,1,322.226,193.434)">
                                <path d="M0,54.196C-1.457,53.761 -2.463,52.842 -2.463,51.421L-2.463,9.395C-2.463,7.503 -1.195,5.846 0.632,5.351L19.022,0.372C20.394,0 21.203,0.576 22.422,1.825" style="fill:none;fill-rule:nonzero;stroke:rgb(22,33,45);stroke-width:1px;"/>
                            </g>
                            <g transform="matrix(1,0,0,1,321.073,183.239)">
                                <path d="M0,63.879C-2.049,64.772 -3.096,64.19 -3.096,62.986L-3.096,16.24C-3.096,16.24 -1.199,4.66 -0.858,3.005C-0.516,1.351 -2.111,-0.893 -4.475,1.417C-3.26,1.801 -3.562,3.563 -4.418,4.727L-5.833,14.926L-5.833,61.08C-5.833,62.096 -5.207,63.007 -4.258,63.371L-2.743,63.951" style="fill:none;fill-rule:nonzero;stroke:rgb(22,33,45);stroke-width:1px;"/>
                            </g>
                            <g transform="matrix(1,0,0,1,343.237,178.242)">
                                <path d="M0,15.808C0,15.808 -2.036,4.613 -2.453,2.794C-3.092,0 -6.869,0.82 -6.869,0.82L-24.908,5.031" style="fill:none;fill-rule:nonzero;stroke:rgb(22,33,45);stroke-width:1px;"/>
                            </g>
                            <g transform="matrix(1,0,0,1,343.769,226.635)">
                                <path d="M0,-21.134L-6.461,-22.812C-10.843,-23.95 -15.721,-19.765 -17.357,-13.466C-18.993,-7.166 -16.767,-1.137 -12.385,0.001L-5.924,1.679C-1.542,2.816 3.336,-1.368 4.972,-7.668C6.608,-13.967 4.382,-19.996 0,-21.134" style="fill:white;fill-rule:nonzero;"/>
                            </g>
                            <g transform="matrix(-0.96789,-0.251373,-0.251373,0.96789,334.036,202.199)">
                                <path d="M-10.251,24.319L-3.576,24.319C0.951,24.319 4.621,19.043 4.621,12.535C4.621,6.026 0.952,0.75 -3.576,0.75L-10.251,0.75" style="fill:none;fill-rule:nonzero;stroke:rgb(22,33,45);stroke-width:1px;"/>
                            </g>
                            <g transform="matrix(0.251324,-0.967903,-0.967903,-0.251324,344.795,209.746)">
                                <ellipse cx="-7.933" cy="2.06" rx="11.785" ry="8.197" style="fill:none;stroke:rgb(22,33,45);stroke-width:1px;"/>
                            </g>
                            <g transform="matrix(1,0,0,1,373.086,237.196)">
                                <path d="M0,-24.833C-1.835,-24.97 -5.485,-25.085 -5.485,-25.085L-24.235,-25.809L-23.866,-23.641C-23.866,-23.641 -23.795,-23.62 -23.669,-23.581L-23.808,-20.9L-20.512,-19.506C-22.987,-16.239 -32.481,-14.793 -40.494,-15.525L-47.664,-18.847L-53.989,-16.933C-54.866,-16.668 -55.499,-15.902 -55.593,-14.99L-56.313,-8.046L-56.313,-5.2C-56.313,-1.789 -49.304,0.976 -40.658,0.976C-37.706,0.976 -34.945,0.654 -32.588,0.093L5.886,-11.098C5.886,-11.098 11.794,-12.925 11.794,-16L11.794,-19.31C11.794,-19.31 11.611,-23.438 0,-24.833" style="fill:white;fill-rule:nonzero;"/>
                            </g>
                            <g transform="matrix(1,0,0,1,348.851,235.325)">
                                <path d="M0,-23.939L20.374,-23.152C29.02,-23.152 36.029,-20.387 36.029,-16.976C36.029,-14.776 33.113,-12.845 28.722,-11.751L-8.353,-0.883C-10.71,-0.322 -13.471,0 -16.423,0C-25.069,0 -32.078,-2.765 -32.078,-6.176" style="fill:none;fill-rule:nonzero;stroke:rgb(22,33,45);stroke-width:1px;"/>
                            </g>
                            <g transform="matrix(1,0,0,1,378.971,225.629)">
                                <path d="M0,0.468L-38.474,11.659L-38.474,11.66C-40.83,12.22 -43.592,12.542 -46.544,12.542C-55.19,12.542 -62.199,9.777 -62.199,6.367L-62.199,3.52L-61.479,-3.424C-61.384,-4.336 -60.752,-5.102 -59.875,-5.367L-53.55,-7.28L-46.38,-3.958C-36.308,-3.039 -23.882,-5.557 -26.017,-10.811C-27.945,-11.54 -29.751,-12.074 -29.751,-12.074" style="fill:none;fill-rule:nonzero;stroke:rgb(22,33,45);stroke-width:1px;"/>
                            </g>
                            <g transform="matrix(1,0,0,1,378.952,218.704)">
                                <path d="M0,7.33C3.612,6.199 5.928,4.451 5.928,2.491L5.928,0" style="fill:none;fill-rule:nonzero;stroke:rgb(22,33,45);stroke-width:1px;"/>
                            </g>
                            <g transform="matrix(-0.955419,-0.295252,-0.295252,0.955419,349.517,215.801)">
                                <path d="M-3.593,0.542L0.082,0.543" style="fill:none;fill-rule:nonzero;stroke:rgb(22,33,45);stroke-width:1px;"/>
                            </g>
                            <g transform="matrix(0,-1,-1,0,330.822,223.53)">
                                <ellipse cx="-6.35" cy="0" rx="2.254" ry="6.35" style="fill:none;stroke:rgb(22,33,45);stroke-width:1px;"/>
                            </g>
                            <g transform="matrix(1,0,0,1,325.327,229.88)">
                                <path d="M0,1.124C1.099,0.452 3.148,0 5.495,0C7.842,0 9.891,0.452 10.99,1.124" style="fill:none;fill-rule:nonzero;stroke:rgb(22,33,45);stroke-width:1px;"/>
                            </g>
                            <g transform="matrix(0,-1,-1,0,374.664,211.973)">
                                <ellipse cx="-6.35" cy="0" rx="2.254" ry="6.35" style="fill:none;stroke:rgb(22,33,45);stroke-width:1px;"/>
                            </g>
                            <g transform="matrix(1,0,0,1,369.168,218.323)">
                                <path d="M0,1.124C1.099,0.452 3.148,0 5.495,0C7.842,0 9.891,0.452 10.99,1.124" style="fill:none;fill-rule:nonzero;stroke:rgb(22,33,45);stroke-width:1px;"/>
                            </g>
                            <g transform="matrix(0.822588,0.568638,0.568638,-0.822588,329.211,215.193)">
                                <path d="M6.463,-3.407C4.957,-1.938 3.667,0.04 2.815,2.367C0.579,8.479 2.212,14.695 6.463,16.25C10.715,17.806 15.974,14.113 18.21,8.001C18.366,7.577 18.502,7.152 18.62,6.729" style="fill:none;fill-rule:nonzero;stroke:rgb(22,33,45);stroke-width:1px;"/>
                            </g>
                            <g transform="matrix(0.867888,0.496759,0.496759,-0.867888,336.79,218.582)">
                                <path d="M3.624,-1.633C2.317,-0.618 1.218,1.044 0.667,3.072C-0.383,6.93 0.941,10.65 3.624,11.381C6.308,12.112 9.334,9.576 10.385,5.717C10.532,5.177 10.632,4.639 10.689,4.111" style="fill:none;fill-rule:nonzero;stroke:rgb(22,33,45);stroke-width:1px;"/>
                            </g>
                        </g>
                    </g>
                </g>
                <g>
                    <g>
                        <g transform="matrix(0,-1,-1,0,323.763,134.699)">
                            <ellipse cx="-70.867" cy="0" rx="70.866" ry="70.867" style="fill:none;stroke:rgb(0,108,250);stroke-width:3px;stroke-linejoin:miter;"/>
                        </g>
                        <g transform="matrix(1,0,0,1,375.502,185.573)">
                            <path d="M0,16.511C-0.627,4.806 -4.753,-3.918 -11.66,-5.854C-22.139,-8.792 -35.275,4.942 -42.009,25.303" style="fill:none;fill-rule:nonzero;stroke:rgb(0,108,250);stroke-width:10px;stroke-linecap:round;stroke-linejoin:miter;"/>
                        </g>
                    </g>
                </g>
                <g transform="matrix(1,0,0,1,324.749,224.836)">
                    <path d="M0,-19.197L5.404,0L19.329,-14.277L0,-19.197Z" style="fill:rgb(0,108,250);fill-rule:nonzero;"/>
                </g>
            </g>
        </g>
    </g>
</svg>
