<?xml version="1.0" encoding="UTF-8" standalone="no"?>
<!DOCTYPE svg PUBLIC "-//W3C//DTD SVG 1.1//EN" "http://www.w3.org/Graphics/SVG/1.1/DTD/svg11.dtd">
<svg width="100%" height="100%" viewBox="0 0 381 300" version="1.1" xmlns="http://www.w3.org/2000/svg" xmlns:xlink="http://www.w3.org/1999/xlink" xml:space="preserve" xmlns:serif="http://www.serif.com/" style="fill-rule:evenodd;clip-rule:evenodd;stroke-miterlimit:10;">
    <g transform="matrix(1,0,0,1,-43.2332,-36.465)">
        <g id="Layer-1" serif:id="Layer 1">
            <g transform="matrix(1,0,0,1,55.6337,244.952)">
                <path d="M0,39.515L0,19.012L83.347,-2.208L91.024,0L91.024,20.503L7.676,41.723L0,39.515Z" style="fill:white;fill-rule:nonzero;"/>
            </g>
            <g transform="matrix(1,0,0,1,146.657,283.949)">
                <path d="M0,-38.997L0,-18.494L-83.347,2.726L-91.024,0.518L-91.024,-19.985L-8.052,-41.723L0,-38.997Z" style="fill:none;fill-rule:nonzero;stroke:rgb(22,33,45);stroke-width:1px;"/>
            </g>
            <g>
                <g>
                    <g transform="matrix(1,0,0,1,146.657,266.172)">
                        <path d="M0,-21.22L-83.347,0L-91.024,-2.208" style="fill:none;fill-rule:nonzero;stroke:rgb(22,33,45);stroke-width:0.5px;stroke-linejoin:round;"/>
                    </g>
                    <g transform="matrix(0,-1,-1,0,73.5617,276.424)">
                        <path d="M-10.252,10.252L10.252,10.252" style="fill:none;fill-rule:nonzero;stroke:rgb(22,33,45);stroke-width:0.5px;stroke-linejoin:round;"/>
                    </g>
                    <g transform="matrix(1,0,0,1,62.8271,271.115)">
                        <path d="M0,-5.285L0,-15.904L-7.009,-17.847C-10.935,-18.701 -11.706,-14.668 -11.706,-11.82L-11.706,12.012L-7.03,13.416L-7.03,-6.161C-7.03,-6.708 -6.664,-7.187 -6.137,-7.33L-0.042,-5.285L0,-5.285Z" style="fill:white;fill-rule:nonzero;stroke:rgb(22,33,45);stroke-width:1px;"/>
                    </g>
                    <g transform="matrix(1,0,0,1,135.983,232.563)">
                        <path d="M0,13.144L0,2.525L-7.009,0.582C-10.935,-0.272 -11.706,3.761 -11.706,6.609L-11.706,13.416L-7.03,12.137L-7.03,12.268C-7.03,11.721 -6.752,11.45 -6.225,11.307L-0.042,13.144L0,13.144Z" style="fill:white;fill-rule:nonzero;stroke:rgb(22,33,45);stroke-width:1px;"/>
                    </g>
                    <g transform="matrix(0.967415,-0.253197,-0.253197,-0.967415,56.0131,285.337)">
                        <path d="M-0.129,1.004L7.805,1.004" style="fill:none;fill-rule:nonzero;stroke:rgb(22,33,45);stroke-width:0.5px;"/>
                    </g>
                    <g>
                        <g>
                            <g transform="matrix(1,0,0,1,136.61,277.065)">
                                <path d="M0,-113.917L-34.059,-122.778L0,-131.639L0,-113.917ZM-0.272,-33.743C-0.272,-33.743 -0.25,-32.522 -1.46,-32.207C-2.67,-31.892 -61.698,-16.536 -61.698,-16.536L-61.698,-60.273L-0.272,-76.656L-0.272,-33.743ZM-61.698,-109.475L-17.857,-98.092L-61.698,-86.709L-61.698,-109.475ZM115.801,-122.615L10.978,-149.834C10.291,-150.013 9.571,-150.013 8.884,-149.834L-68.693,-129.69C-71.635,-128.926 -73.425,-125.122 -73.425,-122.376C-73.424,-119.697 -73.424,1.034 -73.425,4.085C-73.425,6.614 -72.001,9.706 -69.302,10.398C-67.548,10.848 27.74,35.606 28.723,35.861C29.628,36.096 29.993,36.047 30.489,35.921C31.791,35.589 112.446,14.639 113.99,14.238C115.535,13.837 116.719,11.92 116.719,9.543L116.719,-121.427C116.719,-121.986 116.342,-122.474 115.801,-122.615" style="fill:rgb(87,87,92);fill-rule:nonzero;"/>
                            </g>
                            <g transform="matrix(1,0,0,1,218.488,263.864)">
                                <path d="M0,7.767C0.176,7.721 0.176,7.471 0,7.425L-80.103,-13.273C-80.511,-13.378 -80.939,-13.378 -81.346,-13.273L-132.521,-0.001C-132.697,0.045 -132.697,0.295 -132.521,0.341L-52.564,21.039C-52.157,21.145 -51.729,21.145 -51.321,21.039L0,7.767Z" style="fill:rgb(220,220,220);fill-rule:nonzero;"/>
                            </g>
                            <g transform="matrix(1,0,0,1,148.248,217.876)">
                                <path d="M0,-46.812L-73.485,-27.312L-74.406,-25.233L-77.458,-24.475L-77.458,0L-1.013,-20.286C-0.416,-20.444 0,-20.985 0,-21.603L0,-46.812Z" style="fill:rgb(220,220,220);fill-rule:nonzero;"/>
                            </g>
                            <g transform="matrix(1,0,0,1,74.9118,200.409)">
                                <path d="M0,60.12L60.238,44.449C60.938,44.267 61.426,43.635 61.426,42.913L61.426,0" style="fill:none;fill-rule:nonzero;stroke:rgb(22,33,45);stroke-width:0.5px;"/>
                            </g>
                            <g transform="matrix(1,0,0,1,162.729,244.389)">
                                <path d="M0,5.134L-8.433,2.944L-15.95,2.937L-26.805,0" style="fill:none;fill-rule:nonzero;stroke:rgb(22,33,45);stroke-width:0.5px;"/>
                            </g>
                            <g transform="matrix(1,0,0,1,154.308,219.732)">
                                <path d="M0,27.848L0,0L-7.396,0" style="fill:none;fill-rule:nonzero;stroke:rgb(22,33,45);stroke-width:0.5px;"/>
                            </g>
                            <g transform="matrix(1,0,0,1,136.338,247.174)">
                                <path d="M0,-30.231L10.574,-27.485L10.574,0" style="fill:none;fill-rule:nonzero;stroke:rgb(22,33,45);stroke-width:0.5px;"/>
                            </g>
                            <g transform="matrix(-0.967499,-0.252876,-0.252876,0.967499,154.723,218.704)">
                                <path d="M-8.562,1.101L0.141,1.101" style="fill:none;fill-rule:nonzero;stroke:rgb(22,33,45);stroke-width:0.5px;"/>
                            </g>
                            <g transform="matrix(1,0,0,1,162.729,198.584)">
                                <path d="M0,21.124L-11.894,18.035L-19.548,20.077L-19.548,0" style="fill:none;fill-rule:nonzero;stroke:rgb(22,33,45);stroke-width:0.5px;"/>
                            </g>
                            <g transform="matrix(0,-1,-1,0,165.529,201.925)">
                                <path d="M-14.694,14.694L14.694,14.694" style="fill:none;fill-rule:nonzero;stroke:rgb(22,33,45);stroke-width:0.5px;"/>
                            </g>
                            <g transform="matrix(1,0,0,1,70.79,186.445)">
                                <path d="M0,78.378L3.052,77.664L4.122,75.483L4.122,30.347L76.796,10.964C77.187,10.86 77.458,10.506 77.458,10.102L77.458,0" style="fill:none;fill-rule:nonzero;stroke:rgb(22,33,45);stroke-width:0.5px;"/>
                            </g>
                            <g transform="matrix(1,0,0,1,74.8528,190.372)">
                                <path d="M0,-22.796L0,0L44.286,-11.41" style="fill:none;fill-rule:nonzero;stroke:rgb(22,33,45);stroke-width:0.5px;"/>
                            </g>
                            <g transform="matrix(1,0,0,1,70.7237,190.371)">
                                <path d="M0,3.03L3.074,2.273L4.129,0" style="fill:none;fill-rule:nonzero;stroke:rgb(22,33,45);stroke-width:0.5px;"/>
                            </g>
                            <g transform="matrix(1,0,0,1,102.199,130.937)">
                                <path d="M0,23.442L36.283,14.002C36.758,13.879 37.172,13.587 37.45,13.182L40.852,8.212C41.084,7.873 41.208,7.472 41.208,7.062L41.208,0" style="fill:none;fill-rule:nonzero;stroke:rgb(22,33,45);stroke-width:0.5px;"/>
                            </g>
                            <g transform="matrix(0,-1,-1,0,156.929,151.52)">
                                <path d="M-13.522,13.522L13.522,13.522" style="fill:none;fill-rule:nonzero;stroke:rgb(22,33,45);stroke-width:0.5px;"/>
                            </g>
                            <g transform="matrix(0.967862,0.251483,0.251483,-0.967862,147.652,124.595)">
                                <path d="M-1.446,-11.316L88.544,-11.316" style="fill:none;fill-rule:nonzero;stroke:rgb(22,33,45);stroke-width:0.5px;"/>
                            </g>
                            <g transform="matrix(1,0,0,1,217.015,135.807)">
                                <path d="M0,25.502L-70.546,7.172C-70.936,7.07 -71.209,6.718 -71.209,6.315L-71.209,0" style="fill:none;fill-rule:nonzero;stroke:rgb(22,33,45);stroke-width:0.5px;"/>
                            </g>
                            <g transform="matrix(0,1,1,0,145.471,154.287)">
                                <path d="M-8.861,-8.861L8.861,-8.861" style="fill:none;fill-rule:nonzero;stroke:rgb(22,33,45);stroke-width:0.5px;"/>
                            </g>
                            <g transform="matrix(0,-1,-1,0,162.265,155.534)">
                                <path d="M-11.431,11.431L11.431,11.431" style="fill:none;fill-rule:nonzero;stroke:rgb(22,33,45);stroke-width:0.5px;"/>
                            </g>
                            <g transform="matrix(-0.968708,0.248204,0.248204,0.968708,93.3852,157.76)">
                                <path d="M-53.361,-6.728L0.848,-6.728" style="fill:none;fill-rule:nonzero;stroke:rgb(22,33,45);stroke-width:0.5px;"/>
                            </g>
                            <g transform="matrix(0,1,1,0,244.397,235.264)">
                                <path d="M-7.562,-7.562L7.562,-7.562" style="fill:none;fill-rule:nonzero;stroke:rgb(22,33,45);stroke-width:0.5px;"/>
                            </g>
                            <g transform="matrix(0.967905,0.251317,0.251317,-0.967905,215.921,231.122)">
                                <path d="M-4.185,-4.558L16.638,-4.558C17.163,-4.558 17.623,-4.914 17.755,-5.423L24.855,-32.767L35.692,-32.768" style="fill:none;fill-rule:nonzero;stroke:rgb(22,33,45);stroke-width:0.5px;"/>
                            </g>
                            <g transform="matrix(0.9679,0.251336,0.251336,-0.9679,181.135,247.167)">
                                <path d="M-0.882,-6.907L54.08,-6.907" style="fill:none;fill-rule:nonzero;stroke:rgb(22,33,45);stroke-width:0.5px;"/>
                            </g>
                            <g transform="matrix(0.967905,0.251316,0.251316,-0.967905,216.229,230.695)">
                                <path d="M-0.359,-2.812L22.019,-2.812" style="fill:none;fill-rule:nonzero;stroke:rgb(22,33,45);stroke-width:0.5px;"/>
                            </g>
                            <g transform="matrix(0,1,1,0,249.635,187.005)">
                                <path d="M-12.801,-12.801L12.801,-12.801" style="fill:none;fill-rule:nonzero;stroke:rgb(22,33,45);stroke-width:0.5px;"/>
                            </g>
                            <g transform="matrix(0.967904,0.25132,0.25132,-0.967904,232.287,240.361)">
                                <path d="M-0.185,-1.449L11.346,-1.449" style="fill:none;fill-rule:nonzero;stroke:rgb(22,33,45);stroke-width:0.5px;"/>
                            </g>
                            <g transform="matrix(-0.967117,0.254332,0.254332,0.967117,70.9954,218.382)">
                                <path d="M-4.192,-0.542L0.07,-0.542" style="fill:none;fill-rule:nonzero;stroke:rgb(22,33,45);stroke-width:0.5px;"/>
                            </g>
                            <g transform="matrix(0.967694,-0.252127,-0.252127,-0.967694,74.4761,202.733)">
                                <path d="M-1.278,9.976L77.86,9.977" style="fill:none;fill-rule:nonzero;stroke:rgb(22,33,45);stroke-width:0.5px;"/>
                            </g>
                            <g transform="matrix(0.967694,-0.252127,-0.252127,-0.967694,74.4761,203.954)">
                                <path d="M-1.278,9.976L77.86,9.977" style="fill:none;fill-rule:nonzero;stroke:rgb(22,33,45);stroke-width:0.5px;"/>
                            </g>
                            <g transform="matrix(0.966102,-0.258159,-0.258159,-0.966102,74.7117,226.599)">
                                <path d="M-1.36,10.358L78.885,10.358" style="fill:none;fill-rule:nonzero;stroke:rgb(22,33,45);stroke-width:0.5px;"/>
                            </g>
                            <g transform="matrix(0.966217,-0.257729,-0.257729,-0.966217,74.698,225.324)">
                                <path d="M-1.355,10.34L78.88,10.339" style="fill:none;fill-rule:nonzero;stroke:rgb(22,33,45);stroke-width:0.5px;"/>
                            </g>
                            <g transform="matrix(0.967694,-0.252127,-0.252127,-0.967694,74.4761,215.536)">
                                <path d="M-1.278,9.976L77.86,9.977" style="fill:none;fill-rule:nonzero;stroke:rgb(22,33,45);stroke-width:0.5px;"/>
                            </g>
                            <g transform="matrix(0.967694,-0.252127,-0.252127,-0.967694,74.4761,213.93)">
                                <path d="M-1.278,9.976L77.86,9.977" style="fill:none;fill-rule:nonzero;stroke:rgb(22,33,45);stroke-width:0.5px;"/>
                            </g>
                            <g transform="matrix(0.967693,-0.252131,-0.252131,-0.967693,74.5224,217.543)">
                                <path d="M-1.294,10.1L78.819,10.1" style="fill:none;fill-rule:nonzero;stroke:rgb(22,33,45);stroke-width:0.5px;"/>
                            </g>
                            <g transform="matrix(0,-1,-1,0,167.459,309.582)">
                                <ellipse cx="-3.126" cy="0" rx="0.93" ry="3.126" style="fill:none;stroke:rgb(22,33,45);stroke-width:1px;"/>
                            </g>
                            <g transform="matrix(0,-1,-1,0,73.9165,285.375)">
                                <ellipse cx="-3.126" cy="0" rx="0.93" ry="3.126" style="fill:none;stroke:rgb(22,33,45);stroke-width:1px;"/>
                            </g>
                            <g transform="matrix(0,-1,-1,0,237.735,291.233)">
                                <ellipse cx="-3.126" cy="0" rx="0.93" ry="3.126" style="fill:none;stroke:rgb(22,33,45);stroke-width:1px;"/>
                            </g>
                            <g transform="matrix(1,0,0,1,218.488,263.864)">
                                <path d="M0,7.767C0.176,7.721 0.176,7.471 0,7.425L-80.103,-13.273C-80.511,-13.378 -80.939,-13.378 -81.346,-13.273L-132.521,-0.001C-132.697,0.045 -132.697,0.295 -132.521,0.341L-52.564,21.039C-52.157,21.145 -51.729,21.145 -51.321,21.039L0,7.767Z" style="fill:none;fill-rule:nonzero;stroke:rgb(22,33,45);stroke-width:0.5px;"/>
                            </g>
                            <g transform="matrix(0.967978,-0.251036,-0.251036,-0.967978,118.144,278.244)">
                                <path d="M-0.868,6.805L53.351,6.806" style="fill:none;fill-rule:nonzero;stroke:rgb(22,33,45);stroke-width:0.5px;"/>
                            </g>
                            <g transform="matrix(0.967977,-0.251038,-0.251038,-0.967977,138.777,283.588)">
                                <path d="M-0.868,6.808L53.37,6.808" style="fill:none;fill-rule:nonzero;stroke:rgb(22,33,45);stroke-width:0.5px;"/>
                            </g>
                            <g transform="matrix(-0.967979,-0.251032,-0.251032,0.967979,128.639,243.963)">
                                <path d="M-82.562,10.532L1.343,10.532" style="fill:none;fill-rule:nonzero;stroke:rgb(22,33,45);stroke-width:0.5px;"/>
                            </g>
                            <g transform="matrix(-0.967976,-0.251042,-0.251042,0.967976,115.36,247.408)">
                                <path d="M-82.543,10.53L1.343,10.53" style="fill:none;fill-rule:nonzero;stroke:rgb(22,33,45);stroke-width:0.5px;"/>
                            </g>
                            <g transform="matrix(-0.967976,-0.251041,-0.251041,0.967976,102.234,250.814)">
                                <path d="M-82.524,10.527L1.343,10.527" style="fill:none;fill-rule:nonzero;stroke:rgb(22,33,45);stroke-width:0.5px;"/>
                            </g>
                            <g transform="matrix(1,0,0,1,217.806,259.894)">
                                <path d="M0,11.913L-0.199,5.458C-0.208,5.142 -0.426,4.87 -0.732,4.79L-29.055,-2.556C-29.485,-2.667 -29.936,-2.667 -30.365,-2.555L-39.397,-0.204C-39.713,-0.121 -39.94,0.156 -39.958,0.482L-40.293,6.533C-40.306,6.773 -40.149,6.989 -39.917,7.051L-11.097,14.485C-10.743,14.579 -10.371,14.58 -10.017,14.489L0,11.913Z" style="fill:rgb(87,87,92);fill-rule:nonzero;stroke:rgb(22,33,45);stroke-width:0.5px;"/>
                            </g>
                            <g transform="matrix(1,0,0,1,216.726,260.074)">
                                <path d="M0,4.521L-9.469,7.001C-9.919,7.119 -10.391,7.12 -10.842,7.004L-37.538,0.129L-27.452,-2.599L-27.457,2.725" style="fill:none;fill-rule:nonzero;stroke:rgb(22,33,45);stroke-width:0.5px;stroke-linecap:round;stroke-linejoin:round;"/>
                            </g>
                            <g transform="matrix(0.0440884,-0.999028,-0.999028,-0.0440884,209.112,271.067)">
                                <path d="M-2.58,2.697L2.818,2.697" style="fill:none;fill-rule:nonzero;stroke:rgb(22,33,45);stroke-width:0.5px;stroke-linecap:round;stroke-linejoin:round;"/>
                            </g>
                            <g transform="matrix(1,0,0,1,189.771,259.749)">
                                <path d="M0,10.083L0.35,3.151L9.883,0" style="fill:none;fill-rule:nonzero;stroke:rgb(220,220,220);stroke-width:0.5px;stroke-linecap:round;stroke-linejoin:round;"/>
                            </g>
                            <g transform="matrix(1,0,0,1,114.097,267.517)">
                                <path d="M0,3.977L-3.486,3.057C-3.627,3.02 -3.725,2.893 -3.725,2.747L-3.725,0.483C-3.725,0.209 -3.465,0.009 -3.2,0.079L-0.249,0.86C0.013,0.929 0.288,0.935 0.553,0.878L3.973,0.016C4.109,-0.019 4.239,-0.047 4.239,0.305C4.239,0.576 4.249,2.017 4.254,2.666C4.255,2.854 4.126,3.015 3.943,3.058L0.516,3.984C0.346,4.024 0.169,4.022 0,3.977Z" style="fill:rgb(220,220,220);fill-rule:nonzero;stroke:rgb(22,33,45);stroke-width:0.5px;stroke-linejoin:round;"/>
                            </g>
                            <g transform="matrix(0,-1,-1,0,115.679,269.966)">
                                <path d="M-1.432,1.432L1.432,1.432" style="fill:none;fill-rule:nonzero;stroke:rgb(22,33,45);stroke-width:0.5px;"/>
                            </g>
                            <g transform="matrix(1,0,0,1,109.582,261.634)">
                                <path d="M0,-0.409L5.459,-1.714L5.459,1.127L4.779,1.305" style="fill:rgb(220,220,220);fill-rule:nonzero;stroke:rgb(22,33,45);stroke-width:0.5px;stroke-linejoin:round;"/>
                            </g>
                            <g transform="matrix(1,0,0,1,114.361,263.556)">
                                <path d="M0,-1.105L0,1.25L-3.548,0.352C-3.798,0.288 -4.059,0.288 -4.309,0.349L-8.721,1.399L-8.721,-0.954C-8.721,-1.212 -8.545,-1.437 -8.295,-1.499L-4.321,-2.44C-4.063,-2.504 -3.794,-2.503 -3.536,-2.439L-0.438,-1.666C-0.181,-1.602 0,-1.37 0,-1.105Z" style="fill:rgb(220,220,220);fill-rule:nonzero;stroke:rgb(22,33,45);stroke-width:0.5px;stroke-linejoin:round;"/>
                            </g>
                            <g transform="matrix(1,0,0,1,122.993,258.282)">
                                <path d="M0,-0.409L5.459,-1.714L5.459,1.127L4.779,1.305" style="fill:rgb(220,220,220);fill-rule:nonzero;stroke:rgb(22,33,45);stroke-width:0.5px;stroke-linejoin:round;"/>
                            </g>
                            <g transform="matrix(1,0,0,1,127.772,260.204)">
                                <path d="M0,-1.105L0,1.25L-3.548,0.352C-3.798,0.288 -4.059,0.288 -4.309,0.349L-8.721,1.399L-8.721,-0.954C-8.721,-1.212 -8.545,-1.437 -8.295,-1.499L-4.321,-2.44C-4.063,-2.504 -3.794,-2.503 -3.536,-2.439L-0.438,-1.666C-0.181,-1.602 0,-1.37 0,-1.105Z" style="fill:rgb(220,220,220);fill-rule:nonzero;stroke:rgb(22,33,45);stroke-width:0.5px;stroke-linejoin:round;"/>
                            </g>
                            <g transform="matrix(1,0,0,1,135.906,254.824)">
                                <path d="M0,-0.409L5.459,-1.714L5.459,1.127L4.779,1.305" style="fill:rgb(220,220,220);fill-rule:nonzero;stroke:rgb(22,33,45);stroke-width:0.5px;stroke-linejoin:round;"/>
                            </g>
                            <g transform="matrix(1,0,0,1,140.685,256.746)">
                                <path d="M0,-1.105L0,1.25L-3.548,0.352C-3.798,0.288 -4.059,0.288 -4.309,0.349L-8.721,1.399L-8.721,-0.954C-8.721,-1.212 -8.545,-1.437 -8.295,-1.499L-4.321,-2.44C-4.063,-2.504 -3.794,-2.503 -3.536,-2.439L-0.438,-1.666C-0.181,-1.602 0,-1.37 0,-1.105Z" style="fill:rgb(220,220,220);fill-rule:nonzero;stroke:rgb(22,33,45);stroke-width:0.5px;stroke-linejoin:round;"/>
                            </g>
                            <g transform="matrix(1,0,0,1,152.94,253.828)">
                                <path d="M0,-1.105L0,1.25L-3.548,0.352C-3.798,0.288 -4.059,0.288 -4.309,0.349L-7.769,1.399L-7.769,-1.134C-7.769,-1.392 -7.593,-1.617 -7.342,-1.679L-4.321,-2.44C-4.063,-2.504 -3.794,-2.503 -3.536,-2.439L-0.438,-1.666C-0.181,-1.602 0,-1.37 0,-1.105Z" style="fill:rgb(220,220,220);fill-rule:nonzero;stroke:rgb(22,33,45);stroke-width:0.5px;stroke-linejoin:round;"/>
                            </g>
                            <g transform="matrix(-0.96893,-0.247336,-0.247336,0.96893,162.27,257.907)">
                                <path d="M-3.684,-3.546L0.578,-3.546L-0.706,1.484L-4.446,-0.559L-3.684,-3.546Z" style="fill:white;fill-rule:nonzero;stroke:rgb(22,33,45);stroke-width:0.5px;stroke-linejoin:round;"/>
                            </g>
                            <g transform="matrix(-0.972171,0.234272,0.234272,0.972171,162.761,256.848)">
                                <path d="M-4.188,-0.497L0.059,-0.498" style="fill:none;fill-rule:nonzero;stroke:rgb(22,33,45);stroke-width:0.5px;stroke-linejoin:round;"/>
                            </g>
                            <g transform="matrix(1,0,0,1,172.421,258.551)">
                                <path d="M0,-0.967L0,1.388L-3.548,0.49C-3.798,0.426 -4.059,0.426 -4.309,0.487L-7.769,1.399L-7.769,-0.996C-7.769,-1.254 -7.593,-1.479 -7.342,-1.541L-4.321,-2.302C-4.063,-2.366 -3.794,-2.365 -3.536,-2.301L-0.438,-1.528C-0.181,-1.464 0,-1.232 0,-0.967Z" style="fill:white;fill-rule:nonzero;stroke:rgb(22,33,45);stroke-width:0.5px;stroke-linejoin:round;"/>
                            </g>
                            <g transform="matrix(0.96893,-0.247336,-0.247336,-0.96893,97.4957,264.741)">
                                <path d="M0.445,0.463L4.707,0.463L3.423,-4.567L-0.317,-2.524L0.445,0.463Z" style="fill:rgb(220,220,220);fill-rule:nonzero;stroke:rgb(22,33,45);stroke-width:0.5px;stroke-linejoin:round;"/>
                            </g>
                            <g transform="matrix(0.972171,0.234272,0.234272,-0.972171,97.9868,263.713)">
                                <path d="M-0.059,-0.498L4.188,-0.497" style="fill:none;fill-rule:nonzero;stroke:rgb(22,33,45);stroke-width:0.5px;stroke-linejoin:round;"/>
                            </g>
                            <g transform="matrix(1,0,0,1,127.412,265.89)">
                                <path d="M0,-0.356L-4.001,-1.366L-4.001,1.01" style="fill:rgb(220,220,220);fill-rule:nonzero;stroke:rgb(22,33,45);stroke-width:0.5px;stroke-linejoin:round;"/>
                            </g>
                            <g transform="matrix(-0.968966,0.247195,0.247195,0.968966,122.303,267.706)">
                                <path d="M-9.595,1.472L0.498,1.472L-0.185,-1.205L-10.278,-1.205L-9.595,1.472Z" style="fill:rgb(220,220,220);fill-rule:nonzero;stroke:rgb(22,33,45);stroke-width:0.5px;stroke-linejoin:round;"/>
                            </g>
                            <g transform="matrix(1,0,0,1,134.131,272.552)">
                                <path d="M0,3.977L-3.486,3.057C-3.627,3.02 -3.725,2.893 -3.725,2.747L-3.725,0.483C-3.725,0.209 -3.465,0.009 -3.2,0.079L-0.249,0.86C0.013,0.929 0.288,0.935 0.553,0.878L3.973,0.016C4.109,-0.019 4.239,-0.047 4.239,0.305C4.239,0.576 4.249,2.017 4.254,2.666C4.255,2.854 4.126,3.015 3.943,3.058L0.516,3.984C0.346,4.024 0.169,4.022 0,3.977Z" style="fill:rgb(220,220,220);fill-rule:nonzero;stroke:rgb(22,33,45);stroke-width:0.5px;stroke-linejoin:round;"/>
                            </g>
                            <g transform="matrix(0,-1,-1,0,135.713,275.001)">
                                <path d="M-1.432,1.432L1.432,1.432" style="fill:none;fill-rule:nonzero;stroke:rgb(22,33,45);stroke-width:0.5px;"/>
                            </g>
                            <g transform="matrix(1,0,0,1,129.616,266.669)">
                                <path d="M0,-0.409L5.459,-1.714L5.459,1.127L4.779,1.305" style="fill:rgb(220,220,220);fill-rule:nonzero;stroke:rgb(22,33,45);stroke-width:0.5px;stroke-linejoin:round;"/>
                            </g>
                            <g transform="matrix(1,0,0,1,134.396,268.592)">
                                <path d="M0,-1.105L0,1.25L-3.548,0.352C-3.798,0.288 -4.059,0.288 -4.309,0.349L-8.721,1.399L-8.721,-0.954C-8.721,-1.212 -8.545,-1.437 -8.295,-1.499L-4.321,-2.44C-4.063,-2.504 -3.794,-2.503 -3.536,-2.439L-0.438,-1.666C-0.181,-1.602 0,-1.37 0,-1.105Z" style="fill:rgb(220,220,220);fill-rule:nonzero;stroke:rgb(22,33,45);stroke-width:0.5px;stroke-linejoin:round;"/>
                            </g>
                            <g transform="matrix(1,0,0,1,140.619,262.526)">
                                <path d="M0,-0.356L-4.001,-1.366L-4.001,1.01" style="fill:rgb(220,220,220);fill-rule:nonzero;stroke:rgb(22,33,45);stroke-width:0.5px;stroke-linejoin:round;"/>
                            </g>
                            <g transform="matrix(-0.968966,0.247195,0.247195,0.968966,135.51,264.341)">
                                <path d="M-9.595,1.472L0.498,1.472L-0.185,-1.205L-10.278,-1.205L-9.595,1.472Z" style="fill:rgb(220,220,220);fill-rule:nonzero;stroke:rgb(22,33,45);stroke-width:0.5px;stroke-linejoin:round;"/>
                            </g>
                            <g transform="matrix(1,0,0,1,142.823,263.305)">
                                <path d="M0,-0.409L5.459,-1.714L5.459,1.127L4.779,1.305" style="fill:rgb(220,220,220);fill-rule:nonzero;stroke:rgb(22,33,45);stroke-width:0.5px;stroke-linejoin:round;"/>
                            </g>
                            <g transform="matrix(1,0,0,1,147.603,265.227)">
                                <path d="M0,-1.105L0,1.25L-3.548,0.352C-3.798,0.288 -4.059,0.288 -4.309,0.349L-8.721,1.399L-8.721,-0.954C-8.721,-1.212 -8.545,-1.437 -8.295,-1.499L-4.321,-2.44C-4.063,-2.504 -3.794,-2.503 -3.536,-2.439L-0.438,-1.666C-0.181,-1.602 0,-1.37 0,-1.105Z" style="fill:rgb(220,220,220);fill-rule:nonzero;stroke:rgb(22,33,45);stroke-width:0.5px;stroke-linejoin:round;"/>
                            </g>
                            <g transform="matrix(1,0,0,1,160.828,267.639)">
                                <path d="M0,-0.356L-4.001,-1.366L-4.001,1.01" style="fill:rgb(220,220,220);fill-rule:nonzero;stroke:rgb(22,33,45);stroke-width:0.5px;stroke-linejoin:round;"/>
                            </g>
                            <g transform="matrix(-0.968966,0.247195,0.247195,0.968966,155.719,269.454)">
                                <path d="M-9.595,1.472L0.498,1.472L-0.185,-1.205L-10.278,-1.205L-9.595,1.472Z" style="fill:rgb(220,220,220);fill-rule:nonzero;stroke:rgb(22,33,45);stroke-width:0.5px;stroke-linejoin:round;"/>
                            </g>
                            <g transform="matrix(1,0,0,1,163.033,268.417)">
                                <path d="M0,-0.409L5.459,-1.714L5.459,1.127L4.779,1.305" style="fill:rgb(220,220,220);fill-rule:nonzero;stroke:rgb(22,33,45);stroke-width:0.5px;stroke-linejoin:round;"/>
                            </g>
                            <g transform="matrix(1,0,0,1,167.812,270.34)">
                                <path d="M0,-1.105L0,1.25L-3.548,0.352C-3.798,0.288 -4.059,0.288 -4.309,0.349L-8.721,1.399L-8.721,-0.954C-8.721,-1.212 -8.545,-1.437 -8.295,-1.499L-4.321,-2.44C-4.063,-2.504 -3.794,-2.503 -3.536,-2.439L-0.438,-1.666C-0.181,-1.602 0,-1.37 0,-1.105Z" style="fill:rgb(220,220,220);fill-rule:nonzero;stroke:rgb(22,33,45);stroke-width:0.5px;stroke-linejoin:round;"/>
                            </g>
                            <g transform="matrix(1,0,0,1,153.807,259.08)">
                                <path d="M0,-0.356L-4.001,-1.366L-4.001,1.01" style="fill:rgb(220,220,220);fill-rule:nonzero;stroke:rgb(22,33,45);stroke-width:0.5px;stroke-linejoin:round;"/>
                            </g>
                            <g transform="matrix(-0.968966,0.247195,0.247195,0.968966,148.698,260.895)">
                                <path d="M-9.595,1.472L0.498,1.472L-0.185,-1.205L-10.278,-1.205L-9.595,1.472Z" style="fill:rgb(220,220,220);fill-rule:nonzero;stroke:rgb(22,33,45);stroke-width:0.5px;stroke-linejoin:round;"/>
                            </g>
                            <g transform="matrix(1,0,0,1,156.011,259.859)">
                                <path d="M0,-0.409L5.459,-1.714L5.459,1.127L4.779,1.305" style="fill:rgb(220,220,220);fill-rule:nonzero;stroke:rgb(22,33,45);stroke-width:0.5px;stroke-linejoin:round;"/>
                            </g>
                            <g transform="matrix(1,0,0,1,160.791,261.781)">
                                <path d="M0,-1.105L0,1.25L-3.548,0.352C-3.798,0.288 -4.059,0.288 -4.309,0.349L-8.721,1.399L-8.721,-0.954C-8.721,-1.212 -8.545,-1.437 -8.295,-1.499L-4.321,-2.44C-4.063,-2.504 -3.794,-2.503 -3.536,-2.439L-0.438,-1.666C-0.181,-1.602 0,-1.37 0,-1.105Z" style="fill:rgb(220,220,220);fill-rule:nonzero;stroke:rgb(22,33,45);stroke-width:0.5px;stroke-linejoin:round;"/>
                            </g>
                            <g transform="matrix(1,0,0,1,174.016,264.192)">
                                <path d="M0,-0.356L-4.001,-1.366L-4.001,1.01" style="fill:white;fill-rule:nonzero;stroke:rgb(22,33,45);stroke-width:0.5px;stroke-linejoin:round;"/>
                            </g>
                            <g transform="matrix(-0.968966,0.247195,0.247195,0.968966,168.907,266.008)">
                                <path d="M-9.595,1.472L0.498,1.472L-0.185,-1.205L-10.278,-1.205L-9.595,1.472Z" style="fill:white;fill-rule:nonzero;stroke:rgb(22,33,45);stroke-width:0.5px;stroke-linejoin:round;"/>
                            </g>
                            <g transform="matrix(1,0,0,1,181,266.894)">
                                <path d="M0,-1.105L0,1.25L-3.548,0.352C-3.798,0.288 -4.059,0.288 -4.309,0.349L-8.721,1.399L-8.721,-0.954C-8.721,-1.212 -8.545,-1.437 -8.295,-1.499L-4.321,-2.44C-4.063,-2.504 -3.794,-2.503 -3.536,-2.439L-0.438,-1.666C-0.181,-1.602 0,-1.37 0,-1.105Z" style="fill:rgb(220,220,220);fill-rule:nonzero;stroke:rgb(22,33,45);stroke-width:0.5px;stroke-linejoin:round;"/>
                            </g>
                            <g transform="matrix(0.96893,-0.247336,-0.247336,-0.96893,117.53,269.777)">
                                <path d="M0.445,0.463L4.707,0.463L3.423,-4.567L-0.317,-2.524L0.445,0.463Z" style="fill:rgb(220,220,220);fill-rule:nonzero;stroke:rgb(22,33,45);stroke-width:0.5px;stroke-linejoin:round;"/>
                            </g>
                            <g transform="matrix(0.972171,0.234272,0.234272,-0.972171,118.022,268.748)">
                                <path d="M-0.059,-0.498L4.188,-0.497" style="fill:none;fill-rule:nonzero;stroke:rgb(22,33,45);stroke-width:0.5px;stroke-linejoin:round;"/>
                            </g>
                            <g transform="matrix(1,0,0,1,147.447,270.925)">
                                <path d="M0,-0.356L-4.001,-1.366L-4.001,1.01" style="fill:rgb(220,220,220);fill-rule:nonzero;stroke:rgb(22,33,45);stroke-width:0.5px;stroke-linejoin:round;"/>
                            </g>
                            <g transform="matrix(-0.968966,0.247195,0.247195,0.968966,142.337,272.741)">
                                <path d="M-9.595,1.472L0.498,1.472L-0.185,-1.205L-10.278,-1.205L-9.595,1.472Z" style="fill:rgb(220,220,220);fill-rule:nonzero;stroke:rgb(22,33,45);stroke-width:0.5px;stroke-linejoin:round;"/>
                            </g>
                            <g transform="matrix(1,0,0,1,154.389,277.92)">
                                <path d="M0,3.977L-3.486,3.057C-3.627,3.02 -3.725,2.893 -3.725,2.747L-3.725,0.483C-3.725,0.209 -3.465,0.009 -3.2,0.079L-0.249,0.86C0.013,0.929 0.288,0.935 0.553,0.878L3.973,0.016C4.109,-0.019 4.239,-0.047 4.239,0.305C4.239,0.576 4.249,2.017 4.254,2.666C4.255,2.854 4.126,3.015 3.943,3.058L0.516,3.984C0.346,4.024 0.169,4.022 0,3.977Z" style="fill:rgb(220,220,220);fill-rule:nonzero;stroke:rgb(22,33,45);stroke-width:0.5px;stroke-linejoin:round;"/>
                            </g>
                            <g transform="matrix(0,-1,-1,0,155.971,280.369)">
                                <path d="M-1.432,1.432L1.432,1.432" style="fill:none;fill-rule:nonzero;stroke:rgb(22,33,45);stroke-width:0.5px;"/>
                            </g>
                            <g transform="matrix(1,0,0,1,149.874,272.038)">
                                <path d="M0,-0.409L5.459,-1.714L5.459,1.127L4.779,1.305" style="fill:rgb(220,220,220);fill-rule:nonzero;stroke:rgb(22,33,45);stroke-width:0.5px;stroke-linejoin:round;"/>
                            </g>
                            <g transform="matrix(1,0,0,1,154.653,273.96)">
                                <path d="M0,-1.105L0,1.25L-3.548,0.352C-3.798,0.288 -4.059,0.288 -4.309,0.349L-8.721,1.399L-8.721,-0.954C-8.721,-1.212 -8.545,-1.437 -8.295,-1.499L-4.321,-2.44C-4.063,-2.504 -3.794,-2.503 -3.536,-2.439L-0.438,-1.666C-0.181,-1.602 0,-1.37 0,-1.105Z" style="fill:rgb(220,220,220);fill-rule:nonzero;stroke:rgb(22,33,45);stroke-width:0.5px;stroke-linejoin:round;"/>
                            </g>
                            <g transform="matrix(0.96893,-0.247336,-0.247336,-0.96893,137.788,275.145)">
                                <path d="M0.445,0.463L4.707,0.463L3.423,-4.567L-0.317,-2.524L0.445,0.463Z" style="fill:rgb(220,220,220);fill-rule:nonzero;stroke:rgb(22,33,45);stroke-width:0.5px;stroke-linejoin:round;"/>
                            </g>
                            <g transform="matrix(0.972171,0.234272,0.234272,-0.972171,138.279,274.117)">
                                <path d="M-0.059,-0.498L4.188,-0.497" style="fill:none;fill-rule:nonzero;stroke:rgb(22,33,45);stroke-width:0.5px;stroke-linejoin:round;"/>
                            </g>
                            <g transform="matrix(1,0,0,1,167.704,276.294)">
                                <path d="M0,-0.356L-4.001,-1.366L-4.001,1.01" style="fill:white;fill-rule:nonzero;stroke:rgb(22,33,45);stroke-width:0.5px;stroke-linejoin:round;"/>
                            </g>
                            <g transform="matrix(-0.960353,0.278786,0.278786,0.960353,162.58,278.035)">
                                <path d="M-7.891,1.53L0.552,1.53L-0.218,-1.122L-8.661,-1.122L-7.891,1.53Z" style="fill:white;fill-rule:nonzero;stroke:rgb(22,33,45);stroke-width:0.5px;stroke-linejoin:round;"/>
                            </g>
                            <g transform="matrix(1,0,0,1,178.664,273.086)">
                                <path d="M0,-0.356L-4.001,-1.366L-4.001,1.01" style="fill:rgb(220,220,220);fill-rule:nonzero;stroke:rgb(22,33,45);stroke-width:0.5px;stroke-linejoin:round;"/>
                            </g>
                            <g transform="matrix(-0.960353,0.278786,0.278786,0.960353,173.54,274.827)">
                                <path d="M-7.891,1.53L0.552,1.53L-0.218,-1.122L-8.661,-1.122L-7.891,1.53Z" style="fill:rgb(220,220,220);fill-rule:nonzero;stroke:rgb(22,33,45);stroke-width:0.5px;stroke-linejoin:round;"/>
                            </g>
                            <g transform="matrix(1,0,0,1,190.71,269.718)">
                                <path d="M0,-0.794L-3.103,-1.585L-3.103,0.791" style="fill:white;fill-rule:nonzero;stroke:rgb(22,33,45);stroke-width:0.5px;stroke-linejoin:round;"/>
                            </g>
                            <g transform="matrix(-0.964985,0.262306,0.262306,0.964985,186.248,270.697)">
                                <path d="M-4.046,2.125L0.441,2.125L-0.284,-0.54L-4.771,-0.54L-4.046,2.125Z" style="fill:rgb(220,220,220);fill-rule:nonzero;stroke:rgb(22,33,45);stroke-width:0.5px;stroke-linejoin:round;"/>
                            </g>
                            <g transform="matrix(1,0,0,1,97.5702,193.443)">
                                <path d="M0,13.06L-0.175,-5.354C-0.175,-5.768 -0.551,-6.08 -0.958,-6.002C-1.547,-5.89 -2.695,-5.524 -3.002,-5.456C-3.537,-5.337 -5.144,-4.721 -5.144,-1.513L-5.144,3.093C-5.144,4.103 -5.322,6.42 -7.401,6.954C-9.48,7.489 -21.48,10.519 -22.55,10.816C-23.619,11.113 -23.441,12.123 -23.441,12.479L-23.441,18.263C-23.441,18.77 -22.962,19.14 -22.472,19.013L0,13.06Z" style="fill:rgb(220,220,220);fill-rule:nonzero;stroke:rgb(22,33,45);stroke-width:0.5px;"/>
                            </g>
                            <g transform="matrix(1,0,0,1,184.323,187.249)">
                                <path d="M0,47.08L-88.901,23.979C-90.564,23.561 -90.951,22.224 -90.951,20.917L-90.951,3.987C-90.951,1.343 -89.673,0.69 -88.901,0.511C-88.313,0.376 -87.284,0.14 -86.828,0.035C-86.676,0 -86.52,0.003 -86.369,0.042L10.944,25.331" style="fill:rgb(220,220,220);fill-rule:nonzero;stroke:rgb(22,33,45);stroke-width:0.5px;"/>
                            </g>
                            <g transform="matrix(1,0,0,1,120.137,218.986)">
                                <path d="M0,-65.485L-16.722,-69.775C-16.985,-69.842 -17.424,-69.917 -17.748,-69.815L-30.223,-66.576C-30.272,-66.565 -30.322,-66.555 -30.366,-66.539L-30.431,-66.522L-30.428,-66.508C-31.099,-66.218 -31.213,-65.367 -31.213,-64.704L-31.213,-3.375C-31.213,-1.883 -30.889,-0.416 -29.624,-0.084L-12.724,4.357C-12.479,4.425 -12.237,4.432 -12.008,4.391L-12.008,4.394C-12.008,4.394 -11.994,4.391 -11.99,4.39C-11.971,4.386 -11.954,4.38 -11.936,4.376C-11.381,4.232 -7.489,3.219 -6.538,2.929C-5.513,2.617 -5.275,1.578 -5.275,0.969L-5.275,-22.214C-5.275,-25.407 -3.166,-26.477 -2.364,-26.685C-1.721,-26.851 0.611,-27.428 1.511,-27.651C1.724,-27.703 1.868,-27.893 1.868,-28.112L1.868,-62.243C1.868,-63.424 1.628,-65.067 0,-65.485" style="fill:rgb(220,220,220);fill-rule:nonzero;"/>
                            </g>
                            <g transform="matrix(1,0,0,1,107.573,218.9)">
                                <path d="M0,-62.157L-16.722,-66.447C-18.444,-66.888 -18.649,-65.554 -18.649,-64.618L-18.649,-3.289C-18.649,-1.797 -18.324,-0.33 -17.06,0.002L-0.159,4.443C0.866,4.731 1.868,3.996 1.868,2.726L1.868,-58.915C1.868,-60.096 1.628,-61.739 0,-62.157Z" style="fill:rgb(87,87,92);fill-rule:nonzero;stroke:rgb(22,33,45);stroke-width:0.5px;"/>
                            </g>
                            <g transform="matrix(1,0,0,1,120.137,218.986)">
                                <path d="M0,-65.485L-16.722,-69.775C-16.985,-69.842 -17.424,-69.917 -17.748,-69.815L-30.223,-66.576C-30.272,-66.565 -30.322,-66.555 -30.366,-66.539L-30.431,-66.522L-30.428,-66.508C-31.099,-66.218 -31.213,-65.367 -31.213,-64.704L-31.213,-3.375C-31.213,-1.883 -30.889,-0.416 -29.624,-0.084L-12.724,4.357C-12.479,4.425 -12.237,4.432 -12.008,4.391L-12.008,4.394C-12.008,4.394 -11.994,4.391 -11.99,4.39C-11.971,4.386 -11.954,4.38 -11.936,4.376C-11.381,4.232 -7.489,3.219 -6.538,2.929C-5.513,2.617 -5.275,1.578 -5.275,0.969L-5.275,-22.214C-5.275,-25.407 -3.166,-26.477 -2.364,-26.685C-1.721,-26.851 0.611,-27.428 1.511,-27.651C1.724,-27.703 1.868,-27.893 1.868,-28.112L1.868,-62.243C1.868,-63.424 1.628,-65.067 0,-65.485Z" style="fill:none;fill-rule:nonzero;stroke:rgb(22,33,45);stroke-width:0.5px;"/>
                            </g>
                            <g transform="matrix(1,0,0,1,98.4591,197.803)">
                                <path d="M0,-34.549L-5.975,-36.068C-6.186,-36.122 -6.407,-36.121 -6.618,-36.066L-7.723,-35.777C-7.761,-35.772 -7.795,-35.761 -7.831,-35.749L-7.931,-35.723L-7.927,-35.704C-8.145,-35.592 -8.307,-35.38 -8.307,-35.11L-8.307,-1.296C-8.307,-0.652 -7.872,-0.089 -7.249,0.074L-1.648,1.535C-1.502,1.573 -1.364,1.547 -1.236,1.497L-1.233,1.516L-0.027,1.193C0.44,1.068 0.764,0.645 0.764,0.162L0.766,-33.564C0.766,-34.029 0.45,-34.434 0,-34.549Z" style="fill:rgb(87,87,92);fill-rule:nonzero;stroke:rgb(22,33,45);stroke-width:0.5px;"/>
                            </g>
                            <g transform="matrix(1,0,0,1,96.8109,162.032)">
                                <path d="M0,37.306L-5.601,35.845C-6.224,35.682 -6.659,35.119 -6.659,34.475L-6.659,0.661C-6.659,0.214 -6.236,-0.113 -5.804,0L-0.203,1.461C0.421,1.624 0.856,2.187 0.856,2.831L0.856,36.645C0.856,37.092 0.433,37.419 0,37.306Z" style="fill:none;fill-rule:nonzero;stroke:rgb(22,33,45);stroke-width:0.5px;"/>
                            </g>
                            <g transform="matrix(1,0,0,1,97.2265,161.682)">
                                <path d="M0,37.637L1.206,37.314C1.672,37.189 1.997,36.766 1.997,36.284L1.998,2.557C1.998,2.092 1.683,1.687 1.232,1.572L-4.743,0.053C-4.954,0 -5.175,0 -5.385,0.055L-6.698,0.398" style="fill:none;fill-rule:nonzero;stroke:rgb(22,33,45);stroke-width:0.5px;"/>
                            </g>
                            <g transform="matrix(1,0,0,1,105.972,199.841)">
                                <path d="M0,-34.549L-5.975,-36.068C-6.186,-36.122 -6.407,-36.121 -6.618,-36.066L-7.723,-35.777C-7.761,-35.772 -7.795,-35.761 -7.831,-35.749L-7.931,-35.723L-7.927,-35.704C-8.145,-35.592 -8.307,-35.38 -8.307,-35.11L-8.307,-1.296C-8.307,-0.652 -7.872,-0.089 -7.249,0.074L-1.648,1.535C-1.502,1.573 -1.364,1.547 -1.236,1.497L-1.233,1.516L-0.027,1.193C0.44,1.068 0.764,0.645 0.764,0.162L0.766,-33.564C0.766,-34.029 0.45,-34.434 0,-34.549Z" style="fill:rgb(87,87,92);fill-rule:nonzero;stroke:rgb(22,33,45);stroke-width:0.5px;"/>
                            </g>
                            <g transform="matrix(1,0,0,1,104.323,164.07)">
                                <path d="M0,37.306L-5.601,35.845C-6.224,35.682 -6.659,35.119 -6.659,34.475L-6.659,0.661C-6.659,0.214 -6.236,-0.113 -5.804,0L-0.203,1.461C0.421,1.624 0.856,2.187 0.856,2.831L0.856,36.645C0.856,37.092 0.433,37.419 0,37.306Z" style="fill:none;fill-rule:nonzero;stroke:rgb(22,33,45);stroke-width:0.5px;"/>
                            </g>
                            <g transform="matrix(1,0,0,1,104.739,163.719)">
                                <path d="M0,37.637L1.206,37.314C1.672,37.189 1.997,36.766 1.997,36.284L1.998,2.557C1.998,2.092 1.683,1.687 1.233,1.572L-4.743,0.053C-4.954,0 -5.175,0 -5.385,0.055L-6.698,0.398" style="fill:none;fill-rule:nonzero;stroke:rgb(22,33,45);stroke-width:0.5px;"/>
                            </g>
                            <g transform="matrix(1,0,0,1,241.486,168.071)">
                                <path d="M0,104.071L-61.63,120.074C-62.511,120.267 -62.941,120.107 -62.941,118.657L-62.941,74.767L1.418,58.055L1.418,102.237C1.418,103.223 1.061,103.76 0,104.071M-163.374,-19.925C-163.641,-19.994 -163.641,-20.372 -163.375,-20.441L-99.68,-37.006C-98.903,-37.208 -98.087,-37.208 -97.31,-37.006L-3.586,-12.688C-3.32,-12.619 -3.32,-12.242 -3.587,-12.173L-67.284,4.328C-68.059,4.529 -68.872,4.529 -69.647,4.328L-163.374,-19.925ZM-78.757,119.488C-78.757,120.939 -79.187,121.099 -80.068,120.906L-169.344,97.953C-170.404,97.642 -170.762,97.106 -170.762,96.12L-170.762,0.644C-170.762,-0.595 -170.78,-1.565 -169.581,-1.253L-80.092,21.754C-79.257,21.971 -78.757,22.705 -78.757,23.994L-78.757,119.488ZM1.418,6.762L1.418,31.292L-0.526,30.787L-62.941,46.995L-62.941,23.162C-62.941,21.873 -62.441,21.139 -61.606,20.922L0.237,4.864C1.437,4.553 1.418,5.523 1.418,6.762M10.925,-13.621L-93.898,-40.84C-94.585,-41.019 -95.305,-41.019 -95.992,-40.84L-173.569,-20.696C-176.511,-19.932 -178.301,-16.128 -178.301,-13.382C-178.3,-10.703 -178.3,110.028 -178.301,113.08C-178.301,115.608 -176.877,118.7 -174.178,119.392C-172.424,119.842 -77.135,144.6 -76.153,144.855C-75.248,145.09 -74.883,145.041 -74.387,144.915C-73.085,144.584 7.57,123.633 9.114,123.232C10.659,122.831 11.843,120.914 11.843,118.537L11.843,-12.433C11.843,-12.992 11.466,-13.48 10.925,-13.621" style="fill:rgb(87,87,92);fill-rule:nonzero;"/>
                            </g>
                            <g transform="matrix(1,0,0,1,244.932,194.828)">
                                <path d="M0,77.742C0,78.775 -0.375,79.338 -1.487,79.663L-66.555,96.593C-67.478,96.796 -67.928,96.627 -67.928,95.108L-67.928,-5.478C-67.928,-6.828 -67.405,-7.598 -66.529,-7.825L-1.238,-24.812C0.019,-25.138 0,-24.122 0,-22.823L0,77.742ZM8.398,91.781L8.398,-39.189L7.942,-40.138L-69.95,-19.783C-73.701,-18.803 -74.916,-15.06 -74.916,-12.744L-74.916,112.454C-74.916,117.177 -77.119,117.88 -77.119,117.88C-77.119,117.88 2.495,97.395 5.669,96.476C8.843,95.556 8.398,91.781 8.398,91.781" style="fill:rgb(220,220,220);fill-rule:nonzero;"/>
                            </g>
                            <g transform="matrix(1,0,0,1,242.904,216.015)">
                                <path d="M0,9.656L-64.359,26.812L-64.359,-0.949L-1.894,-17.156L0,-16.652L0,9.656Z" style="fill:rgb(220,220,220);fill-rule:nonzero;"/>
                            </g>
                            <g transform="matrix(1,0,0,1,203.602,304.475)">
                                <path d="M0,-13.842C-0.055,-13.842 -0.111,-13.835 -0.167,-13.821L-22.552,-8.061C-23.222,-7.888 -23.69,-7.284 -23.69,-6.593L-23.69,-0.668C-23.69,-0.29 -23.382,0 -23.025,0C-22.97,0 -22.914,-0.007 -22.857,-0.022L-0.472,-5.782C0.198,-5.954 0.666,-6.558 0.666,-7.25L0.666,-13.175C0.666,-13.552 0.357,-13.842 0,-13.842" style="fill:rgb(87,87,92);fill-rule:nonzero;"/>
                            </g>
                            <g transform="matrix(1,0,0,1,229.91,297.683)">
                                <path d="M0,-13.842C-0.055,-13.842 -0.111,-13.835 -0.167,-13.821L-22.552,-8.061C-23.222,-7.888 -23.69,-7.284 -23.69,-6.593L-23.69,-0.668C-23.69,-0.29 -23.382,0 -23.025,0C-22.97,0 -22.914,-0.007 -22.857,-0.022L-0.472,-5.782C0.198,-5.954 0.666,-6.558 0.666,-7.25L0.666,-13.175C0.666,-13.552 0.357,-13.842 0,-13.842" style="fill:rgb(87,87,92);fill-rule:nonzero;"/>
                            </g>
                            <g transform="matrix(1,0,0,1,249.12,259.534)">
                                <path d="M0,13.515L-1.652,13.983C-2.269,14.158 -2.882,13.695 -2.882,13.054L-2.882,1.178C-2.882,0.631 -2.518,0.15 -1.991,0L-0.339,-0.468C0.277,-0.643 0.89,-0.179 0.89,0.462L0.89,12.337C0.89,12.885 0.527,13.366 0,13.515" style="fill:rgb(87,87,92);fill-rule:nonzero;"/>
                            </g>
                            <g transform="matrix(1,0,0,1,252.411,285.764)">
                                <path d="M0,-131.313C0.541,-131.173 0.919,-130.684 0.919,-130.125L0.919,0.845C0.919,3.221 -0.266,5.139 -1.811,5.54C-3.355,5.941 -84.01,26.891 -85.312,27.223C-85.807,27.349 -86.173,27.398 -87.078,27.163C-88.06,26.907 -183.349,2.15 -185.103,1.7C-187.801,1.007 -189.226,-2.084 -189.225,-4.613C-189.224,-7.665 -189.225,-128.395 -189.225,-131.074C-189.226,-133.821 -187.436,-137.624 -184.494,-138.388L-106.917,-158.533C-106.23,-158.711 -105.51,-158.711 -104.823,-158.533L0,-131.313Z" style="fill:none;fill-rule:nonzero;stroke:rgb(22,33,45);stroke-width:1px;"/>
                            </g>
                            <g transform="matrix(-0.9679,0.251337,0.251337,0.9679,188.375,321.282)">
                                <path d="M-104.74,-144.92L-23.506,-144.92C-20.335,-144.92 -17.773,-141.662 -17.067,-138.941L14.551,-17.18C14.914,-15.783 16.152,-13.377 18.509,-13.377" style="fill:none;fill-rule:nonzero;stroke:rgb(22,33,45);stroke-width:1px;"/>
                            </g>
                            <g transform="matrix(1,0,0,1,164.333,278.574)">
                                <path d="M0,-88.426C0,-89.763 -0.518,-90.524 -1.385,-90.749L-94.723,-114.98C-95.967,-115.303 -95.948,-114.298 -95.948,-113.012L-95.948,0.6C-95.948,1.622 -95.577,2.179 -94.477,2.502L-1.359,26.676C-0.446,26.877 0,26.71 0,25.206L0,-88.426Z" style="fill:none;fill-rule:nonzero;stroke:rgb(22,33,45);stroke-width:1px;"/>
                            </g>
                            <g transform="matrix(0.967901,-0.251333,-0.251333,-0.967901,180.229,251.52)">
                                <path d="M-1.127,8.827L69.11,8.827" style="fill:none;fill-rule:nonzero;stroke:rgb(22,33,45);stroke-width:1px;"/>
                            </g>
                            <g transform="matrix(0.967901,-0.251333,-0.251333,-0.967901,181.678,224.932)">
                                <path d="M-1.067,8.356L65.426,8.356" style="fill:none;fill-rule:nonzero;stroke:rgb(22,33,45);stroke-width:0.5px;"/>
                            </g>
                            <g transform="matrix(1,0,0,1,178.545,198.859)">
                                <path d="M0,16.207L62.415,0L64.359,0.504" style="fill:none;fill-rule:nonzero;stroke:rgb(22,33,45);stroke-width:0.5px;"/>
                            </g>
                            <g transform="matrix(1,0,0,1,241.486,188.82)">
                                <path d="M0,83.322L-61.63,99.325C-62.511,99.518 -62.941,99.358 -62.941,97.908L-62.941,2.413C-62.941,1.124 -62.441,0.39 -61.606,0.173L0.237,-15.885C1.436,-16.196 1.418,-15.226 1.418,-13.987L1.418,81.488C1.418,82.474 1.061,83.011 0,83.322Z" style="fill:none;fill-rule:nonzero;stroke:rgb(22,33,45);stroke-width:0.5px;"/>
                            </g>
                            <g transform="matrix(1,0,0,1,162.729,263.612)">
                                <path d="M0,-71.547C0,-72.836 -0.5,-73.57 -1.335,-73.787L-90.823,-96.794C-92.023,-97.105 -92.005,-96.136 -92.005,-94.896L-92.005,0.579C-92.005,1.565 -91.647,2.102 -90.586,2.413L-1.31,25.365C-0.43,25.558 0,25.398 0,23.948L0,-71.547Z" style="fill:none;fill-rule:nonzero;stroke:rgb(22,33,45);stroke-width:0.5px;"/>
                            </g>
                            <g transform="matrix(0.96788,0.251412,0.251412,-0.96788,73.058,263.779)">
                                <path d="M-1.592,-12.461L97.54,-12.461" style="fill:none;fill-rule:nonzero;stroke:rgb(22,33,45);stroke-width:1px;"/>
                            </g>
                            <g transform="matrix(1,0,0,1,142.908,283.63)">
                                <path d="M0,7.521L-53.559,-6.387C-53.981,-6.496 -54.392,-6.178 -54.392,-5.742L-54.392,-0.645C-54.392,-0.342 -54.187,-0.077 -53.894,-0L-0.335,13.907C0.087,14.017 0.499,13.698 0.499,13.263L0.499,8.166C0.499,7.862 0.294,7.597 0,7.521Z" style="fill:none;fill-rule:nonzero;stroke:rgb(22,33,45);stroke-width:1px;"/>
                            </g>
                            <g transform="matrix(1,0,0,1,243.445,186.821)">
                                <path d="M0,87.67L-65.069,104.6C-65.991,104.802 -66.442,104.634 -66.442,103.114L-66.442,2.529C-66.442,1.178 -65.918,0.409 -65.043,0.182L0.248,-16.805C1.505,-17.132 1.486,-16.116 1.486,-14.817L1.486,85.749C1.486,86.782 1.111,87.344 0,87.67Z" style="fill:none;fill-rule:nonzero;stroke:rgb(22,33,45);stroke-width:1px;"/>
                            </g>
                            <g transform="matrix(1,0,0,1,78.1114,155.833)">
                                <path d="M0,-8.203L63.694,-24.767C64.472,-24.97 65.288,-24.97 66.065,-24.768L159.788,-0.45C160.054,-0.381 160.054,-0.003 159.788,0.066L96.091,16.566C95.316,16.767 94.503,16.767 93.728,16.567L0,-7.687C-0.266,-7.756 -0.266,-8.134 0,-8.203Z" style="fill:none;fill-rule:nonzero;stroke:rgb(22,33,45);stroke-width:1px;"/>
                            </g>
                            <g transform="matrix(1,0,0,1,249.12,259.534)">
                                <path d="M0,13.515L-1.652,13.983C-2.269,14.158 -2.882,13.695 -2.882,13.054L-2.882,1.178C-2.882,0.631 -2.518,0.15 -1.991,0L-0.339,-0.468C0.277,-0.643 0.89,-0.179 0.89,0.462L0.89,12.337C0.89,12.885 0.527,13.366 0,13.515Z" style="fill:none;fill-rule:nonzero;stroke:rgb(22,33,45);stroke-width:0.5px;"/>
                            </g>
                            <g transform="matrix(0.964646,-0.26355,-0.26355,-0.964646,247.166,269.958)">
                                <path d="M-0.028,0.206L1.536,0.206" style="fill:none;fill-rule:nonzero;stroke:rgb(22,33,45);stroke-width:1px;stroke-linecap:round;"/>
                            </g>
                            <g transform="matrix(0.964646,-0.26355,-0.26355,-0.964646,247.166,267.575)">
                                <path d="M-0.028,0.206L1.536,0.206" style="fill:none;fill-rule:nonzero;stroke:rgb(22,33,45);stroke-width:1px;stroke-linecap:round;"/>
                            </g>
                            <g transform="matrix(0.964646,-0.26355,-0.26355,-0.964646,247.166,265.561)">
                                <path d="M-0.028,0.206L1.536,0.206" style="fill:none;fill-rule:nonzero;stroke:rgb(22,33,45);stroke-width:1px;stroke-linecap:round;"/>
                            </g>
                            <g transform="matrix(0.964646,-0.26355,-0.26355,-0.964646,247.166,263.359)">
                                <path d="M-0.028,0.206L1.536,0.206" style="fill:none;fill-rule:nonzero;stroke:rgb(22,33,45);stroke-width:1px;stroke-linecap:round;"/>
                            </g>
                            <g transform="matrix(1,0,0,1,203.602,304.475)">
                                <path d="M0,-13.842C-0.055,-13.842 -0.111,-13.835 -0.167,-13.821L-22.552,-8.061C-23.222,-7.888 -23.69,-7.284 -23.69,-6.593L-23.69,-0.668C-23.69,-0.29 -23.382,0 -23.025,0C-22.97,0 -22.914,-0.007 -22.857,-0.022L-0.472,-5.782C0.198,-5.954 0.666,-6.558 0.666,-7.25L0.666,-13.175C0.666,-13.552 0.357,-13.842 0,-13.842Z" style="fill:none;fill-rule:nonzero;stroke:rgb(22,33,45);stroke-width:0.5px;"/>
                            </g>
                            <g transform="matrix(1,0,0,1,193.85,301.91)">
                                <path d="M0,-8.819C-0.67,-8.647 -1.138,-8.043 -1.138,-7.351L-1.138,-1.426C-1.138,-1.049 -0.829,-0.759 -0.472,-0.759C-0.417,-0.759 -0.361,-0.766 -0.305,-0.78M-3.268,0C-2.598,-0.173 -2.129,-0.777 -2.129,-1.469L-2.129,-7.393C-2.129,-7.771 -2.438,-8.061 -2.795,-8.061C-2.85,-8.061 -2.906,-8.054 -2.963,-8.039" style="fill:none;fill-rule:nonzero;stroke:rgb(22,33,45);stroke-width:0.5px;"/>
                            </g>
                            <g transform="matrix(1,0,0,1,229.91,297.683)">
                                <path d="M0,-13.842C-0.055,-13.842 -0.111,-13.835 -0.167,-13.821L-22.552,-8.061C-23.222,-7.888 -23.69,-7.284 -23.69,-6.593L-23.69,-0.668C-23.69,-0.29 -23.382,0 -23.025,0C-22.97,0 -22.914,-0.007 -22.857,-0.022L-0.472,-5.782C0.198,-5.954 0.666,-6.558 0.666,-7.25L0.666,-13.175C0.666,-13.552 0.357,-13.842 0,-13.842Z" style="fill:none;fill-rule:nonzero;stroke:rgb(22,33,45);stroke-width:0.5px;"/>
                            </g>
                            <g transform="matrix(1,0,0,1,220.158,295.118)">
                                <path d="M0,-8.819C-0.67,-8.647 -1.138,-8.043 -1.138,-7.351L-1.138,-1.426C-1.138,-1.049 -0.829,-0.759 -0.472,-0.759C-0.417,-0.759 -0.361,-0.766 -0.305,-0.78M-3.268,0C-2.598,-0.173 -2.129,-0.777 -2.129,-1.469L-2.129,-7.393C-2.129,-7.771 -2.438,-8.061 -2.795,-8.061C-2.85,-8.061 -2.906,-8.054 -2.963,-8.039" style="fill:none;fill-rule:nonzero;stroke:rgb(22,33,45);stroke-width:0.5px;"/>
                            </g>
                            <g transform="matrix(0.161797,-0.986824,-0.986824,-0.161797,176.189,298.827)">
                                <ellipse cx="-1.814" cy="0.297" rx="2.929" ry="1.839" style="fill:none;stroke:rgb(22,33,45);stroke-width:0.5px;"/>
                            </g>
                            <g transform="matrix(0.161797,-0.986824,-0.986824,-0.161797,237.665,282.948)">
                                <ellipse cx="-1.814" cy="0.297" rx="2.929" ry="1.839" style="fill:none;stroke:rgb(22,33,45);stroke-width:0.5px;"/>
                            </g>
                            <g transform="matrix(1,0,0,1,167.941,238.642)">
                                <path d="M0,-18.152L-23.302,-24.256C-23.302,-24.256 -26.277,-25.173 -26.277,-20.861C-26.714,-20.424 -26.733,-1.622 -26.733,-1.622C-26.733,-1.622 -26.861,-0.276 -24.73,0.304C-22.6,0.883 0,7.021 0,7.021L0,-18.152Z" style="fill:rgb(87,87,92);fill-rule:nonzero;"/>
                            </g>
                            <g transform="matrix(1,0,0,1,164.104,216.394)">
                                <path d="M0,27.538L2.114,26.394C2.482,26.094 2.723,25.637 2.723,25.11L2.723,7.549C2.723,6.536 2.045,5.649 1.068,5.383L-18.559,0.101C-18.929,0 -19.297,0.033 -19.619,0.165L-22.003,1.052C-22.003,1.052 -20.712,0.799 -19.42,1.245C-18.128,1.69 -0.975,6.324 -0.975,6.324C-0.975,6.324 0.852,6.454 0.852,9.24L0.852,26.106L0,27.538Z" style="fill:rgb(220,220,220);fill-rule:nonzero;"/>
                            </g>
                            <g transform="matrix(1,0,0,1,162.865,217.317)">
                                <path d="M0,26.766L-20.001,21.534C-20.979,21.269 -21.657,20.381 -21.657,19.369L-21.657,1.598C-21.657,0.506 -20.619,-0.287 -19.566,0L0.435,5.441C1.413,5.707 2.091,6.594 2.091,7.607L2.091,25.168C2.091,26.26 1.053,27.053 0,26.766Z" style="fill:none;fill-rule:nonzero;stroke:rgb(22,33,45);stroke-width:1px;stroke-linejoin:round;"/>
                            </g>
                            <g transform="matrix(1,0,0,1,142.101,242.881)">
                                <path d="M0,-25.435L2.385,-26.322C2.707,-26.454 3.075,-26.486 3.445,-26.386L23.071,-21.103C24.049,-20.838 24.727,-19.95 24.727,-18.938L24.727,-1.376C24.727,-0.85 24.485,-0.393 24.117,-0.093L22.003,1.051" style="fill:none;fill-rule:nonzero;stroke:rgb(22,33,45);stroke-width:1px;stroke-linejoin:round;"/>
                            </g>
                            <g transform="matrix(1,0,0,1,141.664,215.513)">
                                <path d="M0,2.268C0,-1.376 1.773,-1.439 2.975,-1.127C4.001,-0.861 22.669,3.997 22.669,3.997L22.669,-1.729" style="fill:none;fill-rule:nonzero;stroke:rgb(22,33,45);stroke-width:1px;stroke-linejoin:round;"/>
                            </g>
                            <g transform="matrix(-0.967425,-0.253157,-0.253157,0.967425,146.311,218.517)">
                                <path d="M-21.262,17.046L-1.551,17.046L2.193,2.736L-17.518,2.736L-21.262,17.046Z" style="fill:none;fill-rule:nonzero;stroke:rgb(22,33,45);stroke-width:0.5px;stroke-linejoin:round;"/>
                            </g>
                            <g transform="matrix(0,-1,-1,0,165.438,244.825)">
                                <path d="M-1.106,1.106L1.106,1.106" style="fill:none;fill-rule:nonzero;stroke:rgb(22,33,45);stroke-width:1px;stroke-linejoin:round;"/>
                            </g>
                        </g>
                    </g>
                    <g transform="matrix(1,0,0,1,252.096,315.044)">
                        <path d="M0,-49.957L-6.258,-51.533C-6.639,-51.629 -7.009,-51.341 -7.009,-50.948L-7.009,-41.186L-7.276,-41.203L-70.667,-24.658C-70.713,-27.463 -72.627,-29.897 -75.355,-30.584L-81.25,-32.119C-81.68,-32.231 -82.099,-31.906 -82.099,-31.463L-82.099,-1.985C-82.099,-1.502 -81.776,-1.078 -81.31,-0.951L-75.334,0.679L-71.609,1.557C-71.124,1.672 -70.658,1.303 -70.658,0.804L-70.658,-0.331C-67.751,-1.098 -61.343,-2.92 -61.343,-2.92L-60.892,-4.21L-47.615,-7.482L-47.474,-6.527L-27.77,-11.522L-27.432,-12.789L-14.265,-16.165L-14.014,-15.043L0.021,-18.947L0.021,-18.694L3.721,-17.821C4.22,-17.704 4.697,-18.082 4.697,-18.594L4.697,-43.93C4.697,-46.778 2.762,-49.261 0,-49.957" style="fill:white;fill-rule:nonzero;"/>
                    </g>
                    <g transform="matrix(1,0,0,1,246.138,283.764)">
                        <path d="M0,1.048C0.442,-0.655 -0.048,-2.34 -1.123,-3.275C-2.235,-3.022 -3.355,-1.666 -3.835,0.18C-4.274,1.871 -4.052,3.477 -3.36,4.322L-3.341,4.323C-1.845,4.135 -0.469,2.855 0,1.048" style="fill:rgb(255,214,0);fill-rule:nonzero;"/>
                    </g>
                    <g transform="matrix(1,0,0,1,186.869,298.714)">
                        <path d="M0,1.083C0.445,-0.629 -0.052,-2.323 -1.138,-3.256L-1.168,-3.273C-2.269,-2.998 -3.369,-1.653 -3.844,0.174C-4.291,1.896 -4.05,3.524 -3.328,4.356C-1.837,4.161 -0.468,2.885 0,1.083" style="fill:rgb(255,214,0);fill-rule:nonzero;"/>
                    </g>
                    <g transform="matrix(0.96867,-0.248351,-0.248351,-0.96867,225.295,303.851)">
                        <path d="M-0.215,1.702L13.492,1.702" style="fill:none;fill-rule:nonzero;stroke:rgb(22,33,45);stroke-width:1px;"/>
                    </g>
                    <g transform="matrix(0.968673,-0.248341,-0.248341,-0.968673,191.841,312.446)">
                        <path d="M-0.217,1.72L13.635,1.72" style="fill:none;fill-rule:nonzero;stroke:rgb(22,33,45);stroke-width:1px;"/>
                    </g>
                    <g transform="matrix(1,0,0,1,181.438,283.798)">
                        <path d="M0,30.735L9.092,28.42C9.489,28.319 9.766,27.962 9.766,27.553L9.766,13.262C9.766,12.509 10.273,11.85 11.001,11.657L22.005,8.738C22.529,8.599 23.043,8.994 23.043,9.537L23.043,24.461C23.043,24.668 23.238,24.819 23.438,24.768L42.552,19.901C42.949,19.8 43.226,19.443 43.226,19.034L43.226,4.663C43.226,3.91 43.734,3.251 44.462,3.058L55.465,0.139C55.99,0 56.504,0.395 56.504,0.938L56.504,15.942C56.504,16.149 56.698,16.3 56.898,16.249L70.78,12.299" style="fill:none;fill-rule:nonzero;stroke:rgb(22,33,45);stroke-width:1px;"/>
                    </g>
                    <g transform="matrix(1,0,0,1,169.997,315.724)">
                        <path d="M0,-22.349L0,-2.664C0,-2.181 0.323,-1.758 0.789,-1.63L6.765,0" style="fill:none;fill-rule:nonzero;stroke:rgb(22,33,45);stroke-width:1px;"/>
                    </g>
                    <g transform="matrix(0.967415,-0.253195,-0.253195,-0.967415,170.66,314.181)">
                        <path d="M-0.108,0.84L6.527,0.84" style="fill:none;fill-rule:nonzero;stroke:rgb(22,33,45);stroke-width:0.5px;"/>
                    </g>
                    <g transform="matrix(1,0,0,1,169.997,306.218)">
                        <path d="M0,-12.906L0,-22.637C0,-23.08 0.419,-23.404 0.849,-23.293L6.743,-21.758C9.505,-21.063 11.441,-18.579 11.441,-15.731L11.441,9.63C11.441,10.129 10.975,10.498 10.489,10.383L6.765,9.505L6.765,-10.072C6.765,-10.619 6.399,-11.098 5.871,-11.242L0,-12.906Z" style="fill:none;fill-rule:nonzero;stroke:rgb(22,33,45);stroke-width:1px;"/>
                    </g>
                    <g transform="matrix(1,0,0,1,245.087,286.815)">
                        <path d="M0,-12.874L0,-22.718C0,-23.111 0.37,-23.4 0.751,-23.304L7.009,-21.728C9.771,-21.032 11.706,-18.548 11.706,-15.7L11.706,9.636C11.706,10.148 11.229,10.526 10.73,10.408L7.03,9.536L7.03,-10.042C7.03,-10.588 6.664,-11.067 6.137,-11.211L0.042,-12.874L0,-12.874Z" style="fill:none;fill-rule:nonzero;stroke:rgb(22,33,45);stroke-width:1px;"/>
                    </g>
                    <g transform="matrix(-0.969085,0.246727,0.246727,0.969085,184.74,302.445)">
                        <path d="M-71.588,-8.97L1.124,-8.97" style="fill:none;fill-rule:nonzero;stroke:rgb(22,33,45);stroke-width:0.5px;stroke-linejoin:round;"/>
                    </g>
                    <g transform="matrix(0.251497,-0.967858,-0.967858,-0.251497,186.612,297.354)">
                        <ellipse cx="-2.386" cy="0.62" rx="4.226" ry="2.466" style="fill:none;stroke:rgb(22,33,45);stroke-width:0.5px;"/>
                    </g>
                    <g transform="matrix(0.251497,-0.967858,-0.967858,-0.251497,245.89,282.41)">
                        <ellipse cx="-2.386" cy="0.62" rx="4.226" ry="2.466" style="fill:none;stroke:rgb(22,33,45);stroke-width:0.5px;"/>
                    </g>
                    <g transform="matrix(1,0,0,1,245,288.087)">
                        <path d="M0,-7.615C1.087,-6.682 1.583,-4.988 1.138,-3.276C0.669,-1.469 -0.707,-0.189 -2.203,0" style="fill:none;fill-rule:nonzero;stroke:rgb(22,33,45);stroke-width:0.5px;"/>
                    </g>
                    <g transform="matrix(0.251516,-0.967853,-0.967853,-0.251516,245.117,283.798)">
                        <ellipse cx="-0.849" cy="0.221" rx="1.503" ry="0.877" style="fill:none;stroke:rgb(22,33,45);stroke-width:0.5px;"/>
                    </g>
                    <g transform="matrix(1,0,0,1,185.731,303.073)">
                        <path d="M0,-7.615C1.087,-6.682 1.583,-4.988 1.138,-3.276C0.669,-1.469 -0.707,-0.189 -2.203,0" style="fill:none;fill-rule:nonzero;stroke:rgb(22,33,45);stroke-width:0.5px;"/>
                    </g>
                    <g transform="matrix(0.251516,-0.967853,-0.967853,-0.251516,185.848,298.784)">
                        <ellipse cx="-0.849" cy="0.221" rx="1.503" ry="0.877" style="fill:none;stroke:rgb(22,33,45);stroke-width:0.5px;"/>
                    </g>
                    <g transform="matrix(-0.967574,0.252587,0.252587,0.967574,184.723,298.126)">
                        <path d="M-64.791,-8.318L1.068,-8.318" style="fill:none;fill-rule:nonzero;stroke:rgb(22,33,45);stroke-width:1px;"/>
                    </g>
                    <g transform="matrix(1,0,0,1,191.204,299.397)">
                        <path d="M0,4.664C0,3.911 0.507,3.252 1.235,3.058L12.239,0.14C12.763,0 13.277,0.396 13.277,0.938" style="fill:none;fill-rule:nonzero;stroke:rgb(22,33,45);stroke-width:1px;"/>
                    </g>
                    <g transform="matrix(1,0,0,1,224.664,291.309)">
                        <path d="M0,4.664C0,3.911 0.507,3.252 1.235,3.058L12.239,0.14C12.763,0 13.277,0.396 13.277,0.938" style="fill:none;fill-rule:nonzero;stroke:rgb(22,33,45);stroke-width:1px;"/>
                    </g>
                    <g transform="matrix(1,0,0,1,251.902,280.492)">
                        <path d="M0,7.436L-9.785,9.818C-10.374,9.961 -10.942,9.515 -10.942,8.909L-10.942,0.873C-10.942,0.442 -10.647,0.067 -10.228,-0.035L0,-2.525" style="fill:none;fill-rule:nonzero;stroke:rgb(22,33,45);stroke-width:1px;"/>
                    </g>
                    <g transform="matrix(1,0,0,1,204.622,305.275)">
                        <path d="M0,2.119L-7.503,0L-13.418,1.604" style="fill:none;fill-rule:nonzero;stroke:rgb(22,33,45);stroke-width:0.5px;"/>
                    </g>
                    <g transform="matrix(0,-1,-1,0,199.18,303.214)">
                        <path d="M-2.061,2.061L2.061,2.061" style="fill:none;fill-rule:nonzero;stroke:rgb(22,33,45);stroke-width:0.5px;"/>
                    </g>
                    <g transform="matrix(1,0,0,1,238.082,296.638)">
                        <path d="M0,2.119L-7.503,0L-13.418,1.604" style="fill:none;fill-rule:nonzero;stroke:rgb(22,33,45);stroke-width:0.5px;"/>
                    </g>
                    <g transform="matrix(0,-1,-1,0,232.335,294.882)">
                        <path d="M-1.756,1.756L1.756,1.756" style="fill:none;fill-rule:nonzero;stroke:rgb(22,33,45);stroke-width:0.5px;"/>
                    </g>
                    <g transform="matrix(1,0,0,1,181.438,293.669)">
                        <path d="M0,11.833L6.831,10.125C7.284,10.012 7.602,9.605 7.602,9.138L7.602,1.148C7.602,0.486 6.979,0 6.337,0.161L0,1.746L0,11.833Z" style="fill:none;fill-rule:nonzero;stroke:rgb(22,33,45);stroke-width:1px;"/>
                    </g>
                    <g transform="matrix(1,0,0,1,246.548,286.831)">
                        <path d="M0,-16.423L5.801,-1.427L-1.463,-3.718C-1.858,-3.831 -2.418,-3.456 -2.707,-2.487C-3.032,-1.4 -2.493,-0.897 -2.365,-0.857L5.184,1.524C5.471,1.615 5.764,1.659 6.053,1.659C6.826,1.659 7.573,1.343 8.125,0.755C8.884,-0.054 9.106,-1.197 8.707,-2.231L2.799,-17.505C2.514,-18.082 1.554,-17.871 1.109,-17.714C0.663,-17.557 -0.215,-16.978 0,-16.423" style="fill:rgb(255,214,0);fill-rule:nonzero;"/>
                    </g>
                    <g transform="matrix(1,0,0,1,246.548,286.831)">
                        <path d="M0,-16.423L5.713,-1.655C5.748,-1.563 5.662,-1.471 5.568,-1.5L-1.463,-3.718C-1.858,-3.831 -2.418,-3.456 -2.707,-2.487C-3.032,-1.4 -2.493,-0.897 -2.365,-0.857L5.184,1.524C5.471,1.615 5.764,1.659 6.053,1.659C6.79,1.659 7.504,1.371 8.047,0.835C8.802,0.089 9.025,-1.409 8.642,-2.399L2.799,-17.505C2.514,-18.082 1.554,-17.871 1.109,-17.714C0.663,-17.557 -0.215,-16.978 0,-16.423Z" style="fill:none;fill-rule:nonzero;stroke:rgb(22,33,45);stroke-width:1px;"/>
                    </g>
                    <g transform="matrix(1,0,0,1,243.795,271.952)">
                        <path d="M0,12.612L7.684,14.986C9.407,15.55 10.981,14.719 10.12,12.328C9.259,9.936 4.222,-2.938 4.222,-2.938" style="fill:none;fill-rule:nonzero;stroke:rgb(22,33,45);stroke-width:0.5px;"/>
                    </g>
                    <g transform="matrix(-0.46056,0.887628,0.887628,0.46056,307.797,260.923)">
                        <path d="M-73.591,-44.724L27.18,-44.724" style="fill:none;fill-rule:nonzero;stroke:rgb(0,111,255);stroke-width:3px;"/>
                    </g>
                    <g>
                        <g>
                            <g transform="matrix(0.398563,-0.917141,-0.917141,-0.398563,256.667,271.924)">
                                <ellipse cx="-15.655" cy="6.803" rx="22.388" ry="17.069" style="fill:none;stroke:rgb(0,108,250);stroke-width:3px;"/>
                            </g>
                            <g transform="matrix(0.398563,-0.917141,-0.917141,-0.398563,197.394,287.206)">
                                <ellipse cx="-15.655" cy="6.803" rx="22.388" ry="17.069" style="fill:none;stroke:rgb(0,108,250);stroke-width:3px;"/>
                            </g>
                            <g transform="matrix(0.398563,-0.917141,-0.917141,-0.398563,88.8064,258.073)">
                                <ellipse cx="-15.655" cy="6.803" rx="22.388" ry="17.069" style="fill:none;stroke:rgb(0,108,250);stroke-width:3px;stroke-linecap:round;stroke-dasharray:10.37,10.37;"/>
                            </g>
                            <g transform="matrix(0.398563,-0.917141,-0.917141,-0.398563,146.483,237.763)">
                                <ellipse cx="-15.655" cy="6.803" rx="22.388" ry="17.069" style="fill:none;stroke:rgb(0,108,250);stroke-width:3px;stroke-linecap:round;stroke-dasharray:10.37,10.37;"/>
                            </g>
                        </g>
                    </g>
                    <g>
                        <g>
                            <clipPath id="_clip1">
                                <path d="M231.125,175.004C231.125,214.142 262.854,245.87 301.992,245.87C341.132,245.87 372.859,214.142 372.859,175.004C372.859,135.865 341.132,104.138 301.992,104.138C262.854,104.138 231.125,135.865 231.125,175.004Z"/>
                            </clipPath>
                            <g clip-path="url(#_clip1)">
                                <g transform="matrix(1,0,0,1,0,-68.802)">
                                    <rect x="140.407" y="105.267" width="283.465" height="283.465" style="fill:white;"/>
                                </g>
                                <g transform="matrix(1,0,0,1,346.42,151.743)">
                                    <path d="M0,42.153L8.495,38.707L8.495,34.846L3.149,32.975L3.149,-17.253C3.149,-18.857 2.054,-21.509 0,-22.243C-2.054,-22.977 -23.465,-30.441 -23.465,-30.441L-26.495,-29.253L-26.495,-10.196L-111.439,18.881L-111.439,72.594L-12.145,37.908L0,42.153Z" style="fill:white;fill-rule:nonzero;"/>
                                </g>
                                <g transform="matrix(1,0,0,1,319.925,174.84)">
                                    <path d="M0,-33.292L0,-52.349L23.271,-44.215C25.502,-43.435 26.495,-41.505 26.495,-39.141L26.495,19.057L14.35,14.811" style="fill:none;fill-rule:nonzero;stroke:rgb(22,33,45);stroke-width:1px;stroke-linecap:round;stroke-linejoin:round;"/>
                                </g>
                                <g transform="matrix(1,0,0,1,140.407,151.933)">
                                    <path d="M0,51.066L179.519,-10.385L194.548,-5.145L161.257,6.251L158.251,5.073L127.954,15.588L130.971,16.618L0,61.451" style="fill:none;fill-rule:nonzero;stroke:rgb(22,33,45);stroke-width:1px;stroke-linecap:round;stroke-linejoin:round;"/>
                                </g>
                                <g transform="matrix(1,0,0,1,334.955,257.375)">
                                    <path d="M0,-110.588L0,-105.776L-16.931,-100.014L-16.931,-81.895L0,-87.657L0,-67.962L-194.548,0" style="fill:none;fill-rule:nonzero;stroke:rgb(22,33,45);stroke-width:1px;stroke-linecap:round;stroke-linejoin:round;"/>
                                </g>
                                <g transform="matrix(1,0,0,1,301.664,207.678)">
                                    <path d="M0,-49.495L0,-10.574L-30.273,0L-30.287,-39.128" style="fill:none;fill-rule:nonzero;stroke:rgb(22,33,45);stroke-width:1px;stroke-linecap:round;stroke-linejoin:round;"/>
                                </g>
                                <g transform="matrix(1,0,0,1,298.658,205.005)">
                                    <path d="M0,-48L0,-9.386L-27.281,0" style="fill:none;fill-rule:nonzero;stroke:rgb(22,33,45);stroke-width:1px;stroke-linecap:round;stroke-linejoin:round;"/>
                                </g>
                                <g transform="matrix(-0.896564,-0.442914,-0.442914,0.896564,299.142,195.031)">
                                    <path d="M-3.179,0.743L0.173,0.742" style="fill:none;fill-rule:nonzero;stroke:rgb(22,33,45);stroke-width:1px;stroke-linecap:round;stroke-linejoin:round;"/>
                                </g>
                                <g transform="matrix(-0.9456,0.325333,0.325333,0.9456,273.646,175.564)">
                                    <path d="M-28.066,-4.693L0.785,-4.693" style="fill:none;fill-rule:nonzero;stroke:rgb(22,33,45);stroke-width:1px;stroke-linecap:round;stroke-linejoin:round;"/>
                                </g>
                                <g transform="matrix(1,0,0,1,334.955,152.634)">
                                    <path d="M0,17.084L-3.041,15.836L-3.041,0" style="fill:none;fill-rule:nonzero;stroke:rgb(22,33,45);stroke-width:1px;stroke-linecap:round;stroke-linejoin:round;"/>
                                </g>
                                <g transform="matrix(-0.946154,0.323718,0.323718,0.946154,319.168,175.343)">
                                    <path d="M-14.284,-2.376L0.395,-2.376" style="fill:none;fill-rule:nonzero;stroke:rgb(22,33,45);stroke-width:1px;stroke-linecap:round;stroke-linejoin:round;"/>
                                </g>
                                <g transform="matrix(1,0,0,1,346.42,121.302)">
                                    <path d="M0,72.594L8.495,69.148L8.495,65.287L3.149,67.247L3.149,13.188C3.149,11.406 1.901,8.911 0,8.198C-1.901,7.485 -23.465,0 -23.465,0L-26.495,1.188" style="fill:none;fill-rule:nonzero;stroke:rgb(22,33,45);stroke-width:1px;stroke-linecap:round;stroke-linejoin:round;"/>
                                </g>
                                <g transform="matrix(-0.943883,-0.33028,-0.33028,0.943883,350.028,183.888)">
                                    <path d="M-5.506,0.936L0.159,0.936" style="fill:none;fill-rule:nonzero;stroke:rgb(22,33,45);stroke-width:1px;stroke-linecap:round;stroke-linejoin:round;"/>
                                </g>
                                <g transform="matrix(0.944457,-0.328636,-0.328636,-0.944457,273.702,195.307)">
                                    <path d="M-0.802,4.745L28.075,4.745" style="fill:none;fill-rule:nonzero;stroke:rgb(22,33,45);stroke-width:0.5px;stroke-linecap:round;stroke-linejoin:round;"/>
                                </g>
                                <g transform="matrix(1,0,0,1,318.024,188.818)">
                                    <path d="M0,-24.06L0,-29.317L2.332,-29.317L6.564,-27.892C6.564,-27.892 9.67,-26.926 10.404,-24.928C10.549,-24.367 11.723,-21.562 7.31,-18.455C2.896,-15.348 -24.757,4.589 -24.757,4.589L-26.45,5.257L-28.589,3.386L-29.079,0.772L3.936,-22.723L0,-24.06Z" style="fill:rgb(255,214,0);fill-rule:nonzero;"/>
                                </g>
                                <g transform="matrix(0.946672,-0.322199,-0.322199,-0.946672,319.551,177.976)">
                                    <path d="M-0.472,2.854L17.243,2.854" style="fill:none;fill-rule:nonzero;stroke:rgb(22,33,45);stroke-width:1px;stroke-linecap:round;stroke-linejoin:round;"/>
                                </g>
                                <g transform="matrix(1,0,0,1,334.955,168.92)">
                                    <path d="M0,-17.321L-16.931,-11.559L-16.931,0" style="fill:none;fill-rule:nonzero;stroke:rgb(22,33,45);stroke-width:1px;stroke-linecap:round;stroke-linejoin:round;"/>
                                </g>
                                <g transform="matrix(1,0,0,1,318.024,188.818)">
                                    <path d="M0,-24.06L3.936,-22.723L-29.079,0.98L-28.589,3.386L-26.45,5.257L-24.757,4.589C-24.757,4.589 2.777,-15.372 7.233,-18.402C11.688,-21.431 10.708,-23.793 10.307,-25.278C9.906,-26.763 6.564,-27.892 6.564,-27.892L2.332,-29.317L0,-29.317" style="fill:none;fill-rule:nonzero;stroke:rgb(22,33,45);stroke-width:1px;stroke-linecap:round;stroke-linejoin:round;"/>
                                </g>
                                <g transform="matrix(1,0,0,1,322.005,159.5)">
                                    <path d="M0,6.906C5.396,3.376 3.297,2.584 0.267,1.515L-3.98,0" style="fill:none;fill-rule:nonzero;stroke:rgb(22,33,45);stroke-width:0.5px;stroke-linecap:round;stroke-linejoin:round;"/>
                                </g>
                                <g transform="matrix(1,0,0,1,290.178,165.235)">
                                    <path d="M0,23.678L2.51,25.81L34.411,2.731C37.396,0.593 38.086,0.133 37.942,-2.132" style="fill:none;fill-rule:nonzero;stroke:rgb(22,33,45);stroke-width:0.5px;stroke-linecap:round;stroke-linejoin:round;"/>
                                </g>
                                <g transform="matrix(0.238178,0.971222,0.971222,-0.238178,294.055,191.663)">
                                    <path d="M-0.926,-1.18L1.505,-1.18" style="fill:none;fill-rule:nonzero;stroke:rgb(22,33,45);stroke-width:0.5px;stroke-linecap:round;stroke-linejoin:round;"/>
                                </g>
                                <g transform="matrix(1,0,0,1,318.024,165.872)">
                                    <path d="M0,-3.386L2.955,-2.332C2.955,-2.332 6.609,-1.515 4.025,0" style="fill:none;fill-rule:nonzero;stroke:rgb(22,33,45);stroke-width:0.5px;stroke-linecap:round;stroke-linejoin:round;"/>
                                </g>
                                <g transform="matrix(-0.274303,-0.961643,-0.961643,0.274303,323.387,157.208)">
                                    <path d="M-2.302,1.909C-0.409,1.183 1.489,1.909 1.489,1.909" style="fill:none;fill-rule:nonzero;stroke:rgb(22,33,45);stroke-width:0.5px;stroke-linecap:round;stroke-linejoin:round;"/>
                                </g>
                                <g transform="matrix(-0.747569,0.664184,0.664184,0.747569,319.003,168.12)">
                                    <path d="M-2.714,-1.032C-1.841,-0.637 0.392,-1.032 0.392,-1.032" style="fill:none;fill-rule:nonzero;stroke:rgb(22,33,45);stroke-width:0.5px;stroke-linecap:round;stroke-linejoin:round;"/>
                                </g>
                                <g transform="matrix(0.302901,0.953022,0.953022,-0.302901,329.602,156.147)">
                                    <path d="M-2.5,-3.979C-0.173,-2.494 2.481,-2.478 5.261,-3.979" style="fill:none;fill-rule:nonzero;stroke:rgb(22,33,45);stroke-width:0.5px;stroke-linecap:round;stroke-linejoin:round;"/>
                                </g>
                            </g>
                        </g>
                    </g>
                    <g transform="matrix(0,-1,-1,0,301.992,104.137)">
                        <ellipse cx="-70.867" cy="0" rx="70.866" ry="70.867" style="fill:none;stroke:rgb(0,108,250);stroke-width:3px;"/>
                    </g>
                    <g transform="matrix(1,0,0,1,275.135,133.252)">
                        <path d="M0,51.172C0.676,47.415 1.715,43.612 3.137,39.83C12.593,14.687 35.4,0 54.077,7.025C62.108,10.045 68.068,16.588 71.502,25.064" style="fill:none;fill-rule:nonzero;stroke:rgb(0,108,250);stroke-width:10px;stroke-linecap:round;stroke-linejoin:round;stroke-miterlimit:4;"/>
                    </g>
                    <g transform="matrix(1,0,0,1,288.201,201.116)">
                        <path d="M0,-19.701L-13.524,1.24L-24.901,-20.941L0,-19.701Z" style="fill:rgb(0,108,250);fill-rule:nonzero;"/>
                    </g>
                </g>
            </g>
        </g>
    </g>
</svg>
