<?xml version="1.0" encoding="UTF-8"?>
<svg id="Trash_Bin" data-name="Trash Bin" xmlns="http://www.w3.org/2000/svg" viewBox="0 0 28.34646 28.34646">
  <path d="M17.29825,16.04639c-.29501,0-.53414.23913-.53414.53414s.23913.5342.53414.5342c.29508,0,.5342-.2392.5342-.5342s-.23913-.53414-.5342-.53414Z"/>
  <path d="M23.55899.81906l-4.76457,4.83149h-.29998l.07128-.80891c.08948.03966.1872.06358.29133.06358.399,0,.72243-.32343.72243-.72243s-.32343-.7225-.72243-.7225c-.2148,0-.40227.098-.53461.24676-.3943-.49059-1.2229-.80591-2.49548-.93423v-.18999h-2.56342v.14638c-.55295.03005-1.01089.09622-1.4253.1795v-.05261h-.96326v.34694c-.27252.12512-.50804.26571-.66334.44125-.15892.17916-.2347.38973-.27197.61387h-.73769v.55826h.72311l.13146,1.55696L4.78747.82097v.81122l5.3443,5.63167.55772,6.60543-5.67011,5.74977.39689.39253,5.3351-5.41013.21153,2.50543c.01009.1213.10454.2041.21862.23197v.78948h.99829v-.76631h3.78952c.26918.45659.76066.76631,1.329.76631.85484,0,1.54776-.69299,1.54776-1.54782,0-.05738-.02208-.10767-.02821-.16342l3.33968,3.51925.40561-.3838-4.84362-5.10408.60849-6.90834h1.29009v-1.88958h-.04007l3.98095-4.03696v-.79453ZM13.71058,3.02989h1.66933v.30312h-1.66933v-.30312ZM13.26353,3.28578v.49427h2.56342v-.44623c1.28362.1352,2.01075.44602,2.17021.92435h-6.15893v-.79255c.36915-.08096.83092-.14611,1.4253-.17984ZM10.62924,4.01448c.05677-.06392.13882-.13132.24574-.19838v.44207h-.38476c.02767-.08764.07264-.16887.13902-.24369ZM10.4849,4.81643h7.52289l-.07346.83412h-.2058v1.08088l-1.18774,1.20436v-.41222h-3.3452v1.05083h2.71546l-1.91909,1.94608-3.32087-3.49949-.18618-2.20456ZM10.74625,7.9114l2.85339,3.00685-2.39442,2.42808-.45897-5.43493ZM17.29832,17.40258c-.45331,0-.82213-.36874-.82213-.82206,0-.45325.36881-.82206.82213-.82206.45325,0,.82206.36881.82206.82206,0,.45331-.36881.82206-.82206.82206ZM17.10641,15.05205c-.76318.09547-1.35592.7394-1.35592,1.52847,0,.07646.01179.14972.02249.22325h-4.27582l-.23013-2.72527,2.71696-2.75519,3.15773,3.32748-.0353.40125ZM17.20714,13.90848l-2.83083-2.983,3.35222-3.39938v.01404h.03939l-.56078,6.36834ZM19.19069,6.07797v1.03475h-.82506l.02249-.25555.76843-.77919h.03414Z"/>
  <rect x="6.39238" y="23.7824" width="15.5617" height="3.745"/>
</svg>