<?xml version="1.0" encoding="UTF-8" standalone="no"?>
<!DOCTYPE svg PUBLIC "-//W3C//DTD SVG 1.1//EN" "http://www.w3.org/Graphics/SVG/1.1/DTD/svg11.dtd">
<svg width="100%" height="100%" viewBox="0 0 219 181" version="1.1" xmlns="http://www.w3.org/2000/svg" xmlns:xlink="http://www.w3.org/1999/xlink" xml:space="preserve" xmlns:serif="http://www.serif.com/" style="fill-rule:evenodd;clip-rule:evenodd;stroke-linecap:round;stroke-linejoin:round;stroke-miterlimit:10;">
    <g transform="matrix(1,0,0,1,-49.744,-56.4547)">
        <g id="STEP-1" serif:id="STEP 1">
            <g transform="matrix(1,0,0,1,267.83,158.926)">
                <path d="M0,11.529L-122.926,-20.262L-144.146,-14.774L-144.146,3.136L0,31.791L0,11.529Z" style="fill:white;fill-rule:nonzero;"/>
            </g>
            <g transform="matrix(1,0,0,1,50.2441,163.145)">
                <path d="M0,0L22.094,-5.714L22.094,5.714L0,0Z" style="fill:white;fill-rule:nonzero;"/>
            </g>
            <g transform="matrix(0.968162,0.250324,0.250324,-0.968162,149.516,212.13)">
                <path d="M0.82,-1.59L14.582,-1.59L12.573,6.18L-1.258,6.448L0.82,-1.59Z" style="fill:rgb(87,87,92);"/>
            </g>
            <g transform="matrix(1,0,0,1,66.6104,219.764)">
                <path d="M0,-47.102L184.864,-39.565L184.864,-20.131C184.863,-20.096 184.842,-20.054 184.802,-20.043L110.503,-0.828C107.301,0 103.941,0 100.739,-0.828L96.142,-2.017L96.142,-7.708C96.141,-7.957 96.106,-8.216 96.037,-8.48C95.803,-9.388 95.216,-10.056 94.592,-10.22L85.333,-12.615C85.15,-12.663 84.965,-12.673 84.784,-12.626C84.165,-12.467 83.786,-11.757 83.787,-10.9L83.787,-5.211L2.117,-26.33L2.117,-26.332C0.817,-26.664 0,-27.135 0,-27.66L0,-47.102Z" style="fill:rgb(220,220,220);fill-rule:nonzero;"/>
            </g>
            <g transform="matrix(0.250502,-0.968116,-0.968116,-0.250502,189.847,202.164)">
                <ellipse cx="-2.042" cy="0.528" rx="3.103" ry="2.11" style="fill:none;stroke:rgb(22,33,45);stroke-width:0.5px;"/>
            </g>
            <g transform="matrix(0.250502,-0.968116,-0.968116,-0.250502,236.184,190.18)">
                <ellipse cx="-2.042" cy="0.528" rx="3.103" ry="2.11" style="fill:none;stroke:rgb(22,33,45);stroke-width:0.5px;"/>
            </g>
            <g transform="matrix(1,0,0,1,250.974,212.218)">
                <path d="M0,-32.01L0,-12.391C-0.001,-12.357 -0.021,-12.315 -0.062,-12.304L-73.862,6.718C-77.064,7.546 -80.423,7.546 -83.625,6.718L-88.222,5.529L-88.222,-0.162C-88.223,-0.41 -88.258,-0.67 -88.327,-0.934C-88.561,-1.842 -89.149,-2.51 -89.772,-2.674L-99.031,-5.069C-99.214,-5.117 -99.399,-5.127 -99.58,-5.08C-100.199,-4.92 -100.579,-4.211 -100.577,-3.354L-100.577,2.335L-182.247,-18.784L-182.247,-18.786C-183.547,-19.118 -183.875,-19.589 -183.875,-20.114L-183.875,-39.556" style="fill:none;fill-rule:nonzero;stroke:rgb(22,33,45);stroke-width:1px;stroke-linecap:butt;"/>
            </g>
            <g transform="matrix(0.968162,0.250324,0.250324,-0.968162,150.267,212.551)">
                <path d="M-0.219,-1.723L13.543,-1.722" style="fill:none;fill-rule:nonzero;stroke:rgb(22,33,45);stroke-width:0.5px;"/>
            </g>
            <g transform="matrix(0.250253,0.968181,0.968181,-0.250253,159.144,211.774)">
                <ellipse cx="1.444" cy="0.374" rx="2.196" ry="1.493" style="fill:none;stroke:rgb(22,33,45);stroke-width:0.5px;"/>
            </g>
            <g transform="matrix(1,0,0,1,159.471,214.593)">
                <path d="M0,-2.925C-0.059,-2.925 -0.118,-2.918 -0.176,-2.903C-0.717,-2.763 -0.989,-2.005 -0.783,-1.209C-0.599,-0.5 -0.098,0 0.392,0C0.451,0 0.51,-0.007 0.568,-0.022C1.109,-0.162 1.381,-0.92 1.175,-1.716C0.992,-2.425 0.49,-2.925 0,-2.925M0,-2.425C0.199,-2.425 0.55,-2.135 0.691,-1.591C0.765,-1.306 0.761,-1.015 0.681,-0.792C0.654,-0.718 0.578,-0.541 0.443,-0.507C0.427,-0.502 0.41,-0.5 0.392,-0.5C0.193,-0.5 -0.158,-0.79 -0.299,-1.335C-0.45,-1.918 -0.253,-2.366 -0.051,-2.419C-0.035,-2.423 -0.018,-2.425 0,-2.425" style="fill:white;fill-rule:nonzero;"/>
            </g>
            <g transform="matrix(0.250253,0.968181,0.968181,-0.250253,152.92,210.186)">
                <ellipse cx="1.444" cy="0.374" rx="2.196" ry="1.493" style="fill:none;stroke:rgb(22,33,45);stroke-width:0.5px;"/>
            </g>
            <g transform="matrix(1,0,0,1,153.247,213.005)">
                <path d="M0,-2.925C-0.059,-2.925 -0.118,-2.918 -0.176,-2.903C-0.717,-2.763 -0.989,-2.005 -0.783,-1.209C-0.599,-0.5 -0.098,0 0.392,0C0.451,0 0.51,-0.007 0.569,-0.022C1.109,-0.162 1.381,-0.92 1.175,-1.716C0.992,-2.425 0.49,-2.925 0,-2.925M0,-2.425C0.199,-2.425 0.55,-2.135 0.691,-1.591C0.842,-1.007 0.645,-0.559 0.443,-0.507C0.427,-0.502 0.41,-0.5 0.392,-0.5C0.193,-0.5 -0.158,-0.79 -0.299,-1.335C-0.372,-1.619 -0.369,-1.91 -0.289,-2.133C-0.262,-2.207 -0.186,-2.384 -0.051,-2.419C-0.034,-2.423 -0.018,-2.425 0,-2.425" style="fill:white;fill-rule:nonzero;"/>
            </g>
            <g transform="matrix(1,0,0,1,251.412,172.335)">
                <path d="M0,7.785L-108.04,-20.156C-108.223,-20.203 -108.415,-20.203 -108.598,-20.156L-182.685,-1.003L-182.685,-1C-183.984,-0.669 -184.802,-0.197 -184.802,0.328C-184.802,0.853 -183.984,1.324 -182.685,1.656L-182.685,1.658L-84.063,27.16C-80.861,27.988 -77.501,27.988 -74.299,27.16L0,7.945C0.082,7.923 0.082,7.806 0,7.785" style="fill:rgb(87,87,92);fill-rule:nonzero;"/>
            </g>
            <g transform="matrix(1,0,0,1,143.093,200.115)">
                <path d="M0,-47.972C-0.094,-47.972 -0.187,-47.96 -0.279,-47.937L-74.366,-28.784L-74.366,-28.781C-75.665,-28.449 -76.483,-27.978 -76.483,-27.453C-76.483,-26.928 -75.665,-26.456 -74.366,-26.125L-74.366,-26.122L24.256,-0.621C25.857,-0.207 27.497,0 29.138,0C30.778,0 32.419,-0.207 34.02,-0.621L108.319,-19.836C108.401,-19.857 108.401,-19.974 108.319,-19.995L0.279,-47.937C0.187,-47.96 0.094,-47.972 0,-47.972M-73.366,-28.784L-73.361,-28.784L-73.366,-28.784M0,-46.972L0.029,-46.968L104.634,-19.916L33.769,-1.589C32.258,-1.198 30.699,-1 29.138,-1C27.576,-1 26.018,-1.198 24.506,-1.589L-74.046,-27.072C-74.07,-27.08 -74.094,-27.088 -74.119,-27.094C-74.604,-27.218 -74.944,-27.346 -75.171,-27.453C-74.944,-27.56 -74.604,-27.688 -74.119,-27.812C-74.094,-27.818 -74.071,-27.825 -74.047,-27.833L-0.029,-46.968C-0.019,-46.971 -0.01,-46.972 0,-46.972" style="fill:rgb(22,33,45);fill-rule:nonzero;"/>
            </g>
            <g transform="matrix(1,0,0,1,124.777,195.188)">
                <path d="M0,-36.193C-0.198,-36.193 -0.396,-36.168 -0.589,-36.118L-39.154,-26.148C-39.353,-26.097 -39.353,-25.814 -39.154,-25.762L60.17,-0.075C60.364,-0.025 60.561,0 60.759,0C60.957,0 61.155,-0.025 61.348,-0.075L99.913,-10.045C100.112,-10.097 100.112,-10.38 99.913,-10.431L0.589,-36.118C0.396,-36.168 0.198,-36.193 0,-36.193M0,-35.193C0.114,-35.193 0.228,-35.179 0.338,-35.15L96.665,-10.238L61.098,-1.043C60.987,-1.015 60.873,-1 60.759,-1C60.645,-1 60.531,-1.015 60.421,-1.044L-35.905,-25.955L-0.338,-35.15C-0.228,-35.179 -0.114,-35.193 0,-35.193" style="fill:rgb(22,33,45);fill-rule:nonzero;"/>
            </g>
            <g transform="matrix(1,0,0,1,136.862,171.819)">
                <path d="M0,-2.34L-2.282,-2.93C-2.701,-3.038 -3.14,-3.038 -3.559,-2.93L-13.404,-0.384C-13.645,-0.314 -13.73,-0.258 -13.73,-0.188C-13.73,-0.119 -13.637,-0.06 -13.404,0L-11.123,0.59C-10.704,0.698 -10.264,0.698 -9.846,0.59L0,-1.956C0.315,-2.039 0.344,-2.095 0.344,-2.149C0.344,-2.203 0.293,-2.264 0,-2.34Z" style="fill:none;fill-rule:nonzero;stroke:rgb(22,33,45);stroke-width:0.5px;stroke-linecap:butt;stroke-linejoin:miter;"/>
            </g>
            <g transform="matrix(1,0,0,1,186.72,184.687)">
                <path d="M0,-2.34L-2.282,-2.93C-2.701,-3.038 -3.14,-3.038 -3.559,-2.93L-13.404,-0.384C-13.645,-0.314 -13.73,-0.258 -13.73,-0.188C-13.73,-0.119 -13.637,-0.06 -13.404,0L-11.123,0.59C-10.704,0.698 -10.264,0.698 -9.846,0.59L0,-1.956C0.315,-2.039 0.344,-2.095 0.344,-2.149C0.344,-2.203 0.293,-2.264 0,-2.34Z" style="fill:none;fill-rule:nonzero;stroke:rgb(22,33,45);stroke-width:0.5px;stroke-linecap:butt;stroke-linejoin:miter;"/>
            </g>
            <g transform="matrix(1,0,0,1,155.92,188.976)">
                <path d="M0,-0.192L4.156,0.883C4.522,0.978 4.907,0.978 5.274,0.883L7.694,0.257L2.364,-1.17L0,-0.559C-0.249,-0.498 -0.294,-0.457 -0.294,-0.399C-0.294,-0.342 -0.279,-0.264 0,-0.192Z" style="fill:none;fill-rule:nonzero;stroke:rgb(22,33,45);stroke-width:0.5px;stroke-linecap:butt;stroke-linejoin:miter;"/>
            </g>
            <g transform="matrix(1,0,0,1,105.739,176.137)">
                <path d="M0,-0.192L4.156,0.883C4.522,0.978 4.907,0.978 5.274,0.883L7.694,0.257L2.364,-1.17L0,-0.559C-0.249,-0.498 -0.294,-0.457 -0.294,-0.399C-0.294,-0.342 -0.279,-0.264 0,-0.192Z" style="fill:none;fill-rule:nonzero;stroke:rgb(22,33,45);stroke-width:0.5px;stroke-linecap:butt;stroke-linejoin:miter;"/>
            </g>
            <g transform="matrix(1,0,0,1,194.703,178.96)">
                <path d="M0,-1.304L2.703,-2.003C3.174,-2.125 3.667,-2.125 4.138,-2.003L11.112,-0.199C11.248,-0.164 11.248,0.028 11.112,0.064L8.182,0.821L0,-1.304Z" style="fill:none;fill-rule:nonzero;stroke:rgb(22,33,45);stroke-width:0.5px;stroke-linecap:butt;stroke-linejoin:miter;"/>
            </g>
            <g transform="matrix(1,0,0,1,145.17,166.026)">
                <path d="M0,-1.304L2.703,-2.003C3.174,-2.125 3.667,-2.125 4.138,-2.003L11.112,-0.199C11.248,-0.164 11.248,0.028 11.112,0.064L8.182,0.821L0,-1.304Z" style="fill:none;fill-rule:nonzero;stroke:rgb(22,33,45);stroke-width:0.5px;stroke-linecap:butt;stroke-linejoin:miter;"/>
            </g>
            <g transform="matrix(-0.968149,0.250374,0.250374,0.968149,229.151,210.224)">
                <path d="M-20.919,-11.862L3.82,-11.862L5.905,-3.798L-23.762,-4.718L-20.919,-11.862Z" style="fill:white;fill-rule:nonzero;"/>
            </g>
            <g transform="matrix(-0.969737,0.244154,0.244154,0.969737,204.397,215.757)">
                <path d="M-1.39,-11.012L10.967,-11.012L10.214,-2.4L-12.252,-5.175L-1.39,-11.012Z" style="fill:white;fill-rule:nonzero;"/>
            </g>
            <g transform="matrix(1,0,0,1,123.684,151.688)">
                <path d="M0,5.743L0,-7.536L21.221,-13.024L144.146,18.767" style="fill:none;fill-rule:nonzero;stroke:rgb(22,33,45);stroke-width:1px;"/>
            </g>
            <g transform="matrix(0,1,1,0,152.062,145.821)">
                <path d="M-7.157,-7.157L7.157,-7.157" style="fill:none;fill-rule:nonzero;stroke:rgb(22,33,45);stroke-width:1px;"/>
            </g>
            <g transform="matrix(1,0,0,1,72.3385,157.431)">
                <path d="M0,11.428L0,0L-22.094,5.714" style="fill:none;fill-rule:nonzero;stroke:rgb(22,33,45);stroke-width:1px;"/>
            </g>
            <g transform="matrix(1,0,0,1,222.483,193.502)">
                <path d="M0,11.337L0,6.194L23.951,0" style="fill:none;fill-rule:nonzero;stroke:rgb(22,33,45);stroke-width:1px;"/>
            </g>
            <g transform="matrix(0.968158,0.25034,0.25034,-0.968158,222.963,198.493)">
                <path d="M-0.164,-1.285L10.107,-1.285" style="fill:none;fill-rule:nonzero;stroke:rgb(22,33,45);stroke-width:1px;"/>
            </g>
            <g transform="matrix(1,0,0,1,194.703,205.141)">
                <path d="M0,1.758L8.353,-0.402L18.26,2.16" style="fill:none;fill-rule:nonzero;stroke:rgb(22,33,45);stroke-width:1px;"/>
            </g>
            <g transform="matrix(1,0,0,1,51.7153,191.413)">
                <path d="M0,-26.643L0,-7.38L50.46,5.67C50.46,5.67 51.567,5.924 52.55,5.67C53.533,5.416 58.169,4.217 58.169,4.217L58.169,-3.198L70.692,0.041L70.692,10.903L121.502,24.043L158.045,14.592L158.045,3.731L170.569,0.492L170.569,7.907L176.469,9.493C176.469,9.493 176.837,9.728 178.278,9.36C179.719,8.991 214.471,0 214.471,0L214.471,-19.264L162.92,-32.596L157.802,-31.259L144.432,-34.71L144.432,-37.377L92.969,-50.686L55.855,-40.989L55.855,-38.572L42.302,-35.135L37.1,-36.238L0,-26.643Z" style="fill:white;fill-rule:nonzero;"/>
            </g>
            <g transform="matrix(0,1,1,0,182.849,205.824)">
                <path d="M-9.631,-9.631L9.631,-9.631" style="fill:none;fill-rule:nonzero;stroke:rgb(22,33,45);stroke-width:1px;"/>
            </g>
            <g transform="matrix(1,0,0,1,106.99,191.204)">
                <path d="M0,-3.189C1.111,-3.439 1.642,-3.313 2.444,-3.106L15.418,0.25" style="fill:none;fill-rule:nonzero;stroke:rgb(22,33,45);stroke-width:1px;"/>
            </g>
            <g transform="matrix(1,0,0,1,109.884,173.815)">
                <path d="M0,14.4L0,21.815L-5.619,23.268C-6.305,23.445 -7.024,23.445 -7.709,23.268L-58.169,10.218L-58.169,-9.045" style="fill:none;fill-rule:nonzero;stroke:rgb(22,33,45);stroke-width:1px;"/>
            </g>
            <g transform="matrix(1,0,0,1,225.179,194.894)">
                <path d="M0,-3.189C-1.111,-3.439 -1.642,-3.313 -2.444,-3.106L-15.418,0.25" style="fill:none;fill-rule:nonzero;stroke:rgb(22,33,45);stroke-width:1px;"/>
            </g>
            <g transform="matrix(0,1,1,0,178.588,242.938)">
                <path d="M-56.18,31.172L-36.933,31.172L-27.482,-5.371L-40.622,-56.18L-59.87,-56.18" style="fill:none;fill-rule:nonzero;stroke:rgb(22,33,45);stroke-width:1px;"/>
            </g>
            <g transform="matrix(1,0,0,1,266.186,200.95)">
                <path d="M0,-28.801L0,-9.538L-36.193,-0.177C-36.878,0 -37.597,0 -38.283,-0.177L-43.902,-1.631L-43.902,-9.045" style="fill:none;fill-rule:nonzero;stroke:rgb(22,33,45);stroke-width:1px;"/>
            </g>
            <g transform="matrix(1,0,0,1,89.0822,181.812)">
                <path d="M0,-26.706L-37.367,-17.042L12.939,-4.032C13.676,-3.842 14.45,-3.842 15.187,-4.032L17.713,-4.685C18.565,-4.906 19.46,-4.906 20.313,-4.685L37.281,-0.297C37.555,-0.226 37.555,0.162 37.281,0.233L33.325,1.256L84.135,14.38L120.678,4.946L116.722,3.923C116.449,3.852 116.449,3.463 116.722,3.392L133.691,-0.996C134.544,-1.216 135.438,-1.216 136.291,-0.996L138.817,-0.343C139.554,-0.152 140.328,-0.152 141.065,-0.343L177.104,-9.663L125.553,-22.995L120.477,-21.682L101.989,-26.463L107.065,-27.776L55.602,-41.086L18.488,-31.487L23.351,-30.229L4.863,-25.448L0,-26.706Z" style="fill:none;fill-rule:nonzero;stroke:rgb(22,33,45);stroke-width:1px;"/>
            </g>
            <g transform="matrix(0,1,1,0,197.481,155.369)">
                <path d="M-1.334,-1.334L1.334,-1.334" style="fill:none;fill-rule:nonzero;stroke:rgb(22,33,45);stroke-width:1px;"/>
            </g>
            <g transform="matrix(0,1,1,0,108.807,151.562)">
                <path d="M-1.237,-1.237L1.237,-1.237" style="fill:none;fill-rule:nonzero;stroke:rgb(22,33,45);stroke-width:1px;"/>
            </g>
            <g transform="matrix(-0.968148,-0.250377,-0.250377,0.968148,123.39,167.275)">
                <path d="M-20.852,9.468L13.501,9.468L1.205,2.653L-33.148,2.653L-20.852,9.468Z" style="fill:none;fill-rule:nonzero;stroke:rgb(22,33,45);stroke-width:1px;"/>
            </g>
            <g transform="matrix(0.968147,0.250382,0.250382,-0.968147,111.338,149.548)">
                <path d="M0.036,-12.935L77.837,-12.935L101.679,0.281L23.879,0.282L0.036,-12.935Z" style="fill:none;fill-rule:nonzero;stroke:rgb(22,33,45);stroke-width:1px;"/>
            </g>
            <g transform="matrix(1,0,0,1,205.894,157.3)">
                <path d="M0,18.457L-71.367,0L-93.545,5.736" style="fill:none;fill-rule:nonzero;stroke:rgb(22,33,45);stroke-width:0.5px;"/>
            </g>
            <g transform="matrix(0,-1,-1,0,135.549,156.277)">
                <path d="M-1.023,1.023L1.023,1.023" style="fill:none;fill-rule:nonzero;stroke:rgb(22,33,45);stroke-width:0.5px;"/>
            </g>
            <g transform="matrix(0,1,1,0,125.081,173.063)">
                <path d="M-3.522,-3.522L3.522,-3.522" style="fill:none;fill-rule:nonzero;stroke:rgb(22,33,45);stroke-width:0.5px;"/>
            </g>
            <g opacity="0.5">
                <g transform="matrix(1,0,0,1,266.29,196.076)">
                    <path d="M0,-22.556C-1.085,-25.473 -0.752,-27.995 -5.335,-29.192C-9.919,-30.389 -24.085,-31.139 -28.419,-32.556C-32.752,-33.973 -60.585,-42.404 -64.835,-43.897C-69.085,-45.389 -109.502,-53.195 -111.835,-53.695C-114.169,-54.195 -119.335,-56.778 -123.669,-55.528C-128.002,-54.278 -133.64,-53.832 -137.335,-53.139C-142.669,-52.139 -157.794,-48.348 -159.502,-46.973C-162.794,-44.389 -172.669,-42.473 -176.044,-42.473C-179.419,-42.473 -198.085,-37.306 -202.96,-35.348C-207.835,-33.389 -211.252,-33.109 -211.877,-32.895C-212.502,-32.681 -213.544,-32.568 -213.752,-31.27L-213.752,0.152L-93.197,34.222L-2.835,3.131L0,-22.556Z" style="fill:rgb(0,108,255);fill-rule:nonzero;"/>
                </g>
            </g>
            <g opacity="0.4">
                <g transform="matrix(1,0,0,1,145.517,170.065)">
                    <path d="M0,9.585C-1.625,10.127 -3.375,10.002 -4.858,10.669L-4.859,10.671C-5.839,10.28 -6.971,9.844 -8.312,9.377C-12.499,7.918 -16.917,6.918 -20.833,6.335C-24.75,5.752 -30.08,4.588 -32.791,3.627C-34.664,2.963 -35.64,2.6 -37.176,2.205C-36.144,1.451 -33.377,1.912 -32.084,1.918C-30.792,1.925 -26.333,0.752 -25.139,-0.219C-24.614,-0.645 -24.186,-0.899 -23.751,-1.086C-20.499,-0.081 -15.375,2.369 -11.542,2.998C-7.708,3.627 0.167,4.78 2.583,5.536C5,6.293 6.88,6.674 7.211,7.025L7.211,7.026C7.059,7.143 6.9,7.269 6.73,7.412C5.252,8.656 1.625,9.043 0,9.585" style="fill-rule:nonzero;"/>
                </g>
            </g>
            <g transform="matrix(1,0,0,1,266.186,139.262)">
                <path d="M0,34.222C-1.085,31.305 -0.752,28.783 -5.335,27.586C-9.919,26.389 -24.085,25.639 -28.419,24.222C-32.752,22.805 -60.585,14.374 -64.835,12.881C-69.085,11.389 -109.502,3.583 -111.835,3.083C-114.169,2.583 -119.335,0 -123.669,1.25C-128.002,2.5 -133.64,2.946 -137.335,3.639C-142.669,4.639 -157.794,8.43 -159.502,9.805C-162.794,12.389 -172.669,14.305 -176.044,14.305C-179.419,14.305 -198.085,19.472 -202.96,21.43C-207.835,23.389 -211.252,23.669 -211.877,23.883C-212.502,24.097 -213.544,24.21 -213.752,25.508" style="fill:none;fill-rule:nonzero;stroke:rgb(22,33,45);stroke-width:0.5px;"/>
            </g>
            <g transform="matrix(-0.242015,0.970272,0.970272,0.242015,135.183,159.37)">
                <path d="M19.065,-25.519C18.935,-22.073 19.055,-21.187 19.331,-18.323C19.608,-15.46 19.447,-10.007 19.065,-6.065C18.683,-2.123 18.585,2.404 18.986,6.82C19.387,11.235 19.996,13.792 19.935,14.894" style="fill:none;fill-rule:nonzero;stroke:rgb(22,33,45);stroke-width:0.5px;"/>
            </g>
            <g transform="matrix(1,0,0,1,140.659,175.757)">
                <path d="M0,4.977C1.484,4.31 3.234,4.435 4.859,3.893C6.484,3.352 10.11,2.965 11.589,1.721C13.067,0.477 13.845,0.273 14.498,0" style="fill:none;fill-rule:nonzero;stroke:rgb(22,33,45);stroke-width:0.5px;"/>
            </g>
            <g transform="matrix(1,0,0,1,123.684,172.271)">
                <path d="M0,-3.864C-1.417,-3.495 -2.111,-3.395 -3.306,-2.424C-4.5,-1.454 -8.958,-0.28 -10.251,-0.287C-11.543,-0.294 -14.311,-0.755 -15.343,0" style="fill:none;fill-rule:nonzero;stroke:rgb(22,33,45);stroke-width:0.5px;"/>
            </g>
            <g transform="matrix(0.90052,0.434815,0.434815,-0.90052,115.441,170.857)">
                <path d="M-0.246,-1.197C1.558,-0.176 4.03,-0.695 5.29,-1.197" style="fill:none;fill-rule:nonzero;stroke:rgb(22,33,45);stroke-width:0.5px;"/>
            </g>
            <g transform="matrix(1,0,0,1,121.765,177.091)">
                <path d="M0,-8.112C3.252,-7.107 8.377,-4.656 12.21,-4.028C16.044,-3.399 23.919,-2.246 26.335,-1.489C28.752,-0.732 30.632,-0.351 30.963,0" style="fill:none;fill-rule:nonzero;stroke:rgb(22,33,45);stroke-width:0.5px;"/>
            </g>
            <g transform="matrix(1,0,0,1,137.205,177.78)">
                <path d="M0,-2.239C-1.708,-1.322 -1.539,0 -2.146,-0.421C-2.688,-0.796 -2.15,-1.661 -2.855,-2.023" style="fill:none;fill-rule:nonzero;stroke:rgb(22,33,45);stroke-width:0.5px;"/>
            </g>
            <g transform="matrix(1,0,0,1,194.767,192.561)">
                <path d="M0,14.292L0,-3.194L-21.583,2.374L-144.523,-29.416L-144.523,11.917L-21.598,43.708L73.063,19.227L73.063,-22.106L51.667,-16.595L51.667,0.941C51.667,2.973 51.926,6.041 47.56,7.146C43.194,8.25 3.194,18.639 3.194,18.639C3.194,18.639 0,19.723 0,14.292" style="fill:white;fill-rule:nonzero;"/>
            </g>
            <g transform="matrix(0,-1,-1,0,193.836,215.602)">
                <path d="M-20.667,20.667L20.667,20.667" style="fill:none;fill-rule:nonzero;stroke:rgb(22,33,45);stroke-width:1px;"/>
            </g>
            <g transform="matrix(1,0,0,1,198.17,188.287)">
                <path d="M0,22.84L45.319,11.12C47.11,10.657 48.264,8.691 48.264,6.15L48.264,-12.299L69.66,-17.832L69.66,23.501L-25,47.982L-147.926,16.191L-147.926,-25.142L-25,6.649L-3.467,1.08L-3.467,19.528C-3.467,21.608 -2.561,23.502 0,22.84Z" style="fill:none;fill-rule:nonzero;stroke:rgb(22,33,45);stroke-width:1px;"/>
            </g>
            <g transform="matrix(1,0,0,1,113.433,155.907)">
                <path d="M0,3.048L0,-4.189L11.198,-6.792L37.468,-0L37.468,7.237L26.27,9.84L0,3.048Z" style="fill:rgb(255,214,0);fill-rule:nonzero;"/>
            </g>
            <g transform="matrix(1,0,0,1,150.901,158.955)">
                <path d="M0,-3.048L0,4.189L-11.198,6.792L-37.468,-0L-37.468,-7.237L-26.27,-9.84L0,-3.048Z" style="fill:none;fill-rule:nonzero;stroke:rgb(22,33,45);stroke-width:1px;"/>
            </g>
            <g transform="matrix(1,0,0,1,150.901,154.321)">
                <path d="M0,1.586L-11.198,4.189L-37.468,-2.603" style="fill:none;fill-rule:nonzero;stroke:rgb(22,33,45);stroke-width:0.5px;"/>
            </g>
            <g transform="matrix(0,-1,-1,0,143.322,162.129)">
                <path d="M-3.619,3.619L3.619,3.619" style="fill:none;fill-rule:nonzero;stroke:rgb(22,33,45);stroke-width:0.5px;"/>
            </g>
            <g transform="matrix(1,0,0,1,50.2441,88.7457)">
                <path d="M0,34.023L122.926,65.814L217.586,41.333L217.586,-0.001L94.661,-31.791L0,-7.31L0,34.023Z" style="fill:white;fill-rule:nonzero;stroke:rgb(22,33,45);stroke-width:1px;"/>
            </g>
            <g transform="matrix(1,0,0,1,50.2441,88.7457)">
                <path d="M0,34.023L122.926,65.814L217.586,41.333L217.586,-0.001L94.661,-31.791L0,-7.31L0,34.023Z" style="fill:none;fill-rule:nonzero;stroke:rgb(22,33,45);stroke-width:1px;"/>
            </g>
            <g transform="matrix(1,0,0,1,50.2441,113.226)">
                <path d="M0,-31.791L122.94,0L217.586,-24.481" style="fill:none;fill-rule:nonzero;stroke:rgb(22,33,45);stroke-width:1px;"/>
            </g>
            <g transform="matrix(0,1,1,0,193.851,133.893)">
                <path d="M-20.667,-20.667L20.667,-20.667" style="fill:none;fill-rule:nonzero;stroke:rgb(22,33,45);stroke-width:1px;"/>
            </g>
        </g>
    </g>
</svg>
