<?xml version="1.0" encoding="UTF-8" standalone="no"?>
<!DOCTYPE svg PUBLIC "-//W3C//DTD SVG 1.1//EN" "http://www.w3.org/Graphics/SVG/1.1/DTD/svg11.dtd">
<svg width="100%" height="100%" viewBox="0 0 228 170" version="1.1" xmlns="http://www.w3.org/2000/svg" xmlns:xlink="http://www.w3.org/1999/xlink" xml:space="preserve" xmlns:serif="http://www.serif.com/" style="fill-rule:evenodd;clip-rule:evenodd;stroke-linecap:round;stroke-linejoin:round;stroke-miterlimit:10;">
    <g transform="matrix(1,0,0,1,-42.3327,-51.5508)">
        <g id="STEP-2" serif:id="STEP 2">
            <g transform="matrix(1,0,0,1,264.444,143.442)">
                <path d="M0,11.529L-122.926,-20.262L-144.146,-14.774L-144.146,3.136L0,31.791L0,11.529Z" style="fill:white;fill-rule:nonzero;"/>
            </g>
            <g transform="matrix(1,0,0,1,46.8574,147.661)">
                <path d="M0,0L22.094,-5.714L22.094,5.714L0,0Z" style="fill:white;fill-rule:nonzero;"/>
            </g>
            <g transform="matrix(-0.968149,0.250374,0.250374,0.968149,225.765,194.74)">
                <path d="M-20.919,-11.862L3.82,-11.862L5.905,-3.798L-23.762,-4.718L-20.919,-11.862Z" style="fill:white;fill-rule:nonzero;"/>
            </g>
            <g transform="matrix(-0.969737,0.244154,0.244154,0.969737,201.01,200.273)">
                <path d="M-1.39,-11.012L10.967,-11.012L10.214,-2.4L-12.252,-5.175L-1.39,-11.012Z" style="fill:white;fill-rule:nonzero;"/>
            </g>
            <g transform="matrix(1,0,0,1,120.297,136.204)">
                <path d="M0,5.743L0,-7.536L21.221,-13.024L144.146,18.767" style="fill:none;fill-rule:nonzero;stroke:rgb(22,33,45);stroke-width:1px;"/>
            </g>
            <g transform="matrix(0,1,1,0,148.675,130.337)">
                <path d="M-7.157,-7.157L7.157,-7.157" style="fill:none;fill-rule:nonzero;stroke:rgb(22,33,45);stroke-width:1px;"/>
            </g>
            <g transform="matrix(1,0,0,1,68.9517,141.947)">
                <path d="M0,11.428L0,0L-22.094,5.714" style="fill:none;fill-rule:nonzero;stroke:rgb(22,33,45);stroke-width:1px;"/>
            </g>
            <g transform="matrix(1,0,0,1,219.097,178.018)">
                <path d="M0,11.337L0,6.194L23.951,0" style="fill:none;fill-rule:nonzero;stroke:rgb(22,33,45);stroke-width:1px;"/>
            </g>
            <g transform="matrix(0.968158,0.25034,0.25034,-0.968158,219.577,183.009)">
                <path d="M-0.164,-1.285L10.107,-1.285" style="fill:none;fill-rule:nonzero;stroke:rgb(22,33,45);stroke-width:1px;"/>
            </g>
            <g transform="matrix(1,0,0,1,191.316,189.657)">
                <path d="M0,1.758L8.353,-0.402L18.26,2.16" style="fill:none;fill-rule:nonzero;stroke:rgb(22,33,45);stroke-width:1px;"/>
            </g>
            <g opacity="0.5">
                <g transform="matrix(1,0,0,1,50.6306,166.666)">
                    <path d="M0,-15.005C-0.444,-19.227 -2.556,-24.561 -4.222,-26.896C-5.889,-29.231 -9.111,-29.561 -7.222,-31.825C-5.333,-34.09 11.778,-42.005 23.444,-44.894C35.111,-47.783 57.778,-42.894 69.667,-46.338C81.556,-49.783 82.889,-52.894 87.444,-53.783C92,-54.672 98,-52.672 102.556,-51.449C107.113,-50.227 137,-48.338 152.444,-46.449C167.889,-44.561 183.889,-34.672 189.333,-32.894C194.778,-31.116 213.813,-30.588 213.813,-30.588C213.813,-30.588 220.778,-30.449 217.444,-25.447C214.111,-20.446 211.387,-12.323 211.333,-1.368L206.242,23.87L133.046,39.667L6.409,-5.284L0,-15.005Z" style="fill:rgb(0,108,250);fill-rule:nonzero;"/>
                </g>
            </g>
            <g transform="matrix(1,0,0,1,50.6306,125.631)">
                <path d="M0,26.03C-0.444,21.808 -2.556,16.474 -4.222,14.139C-5.889,11.804 -9.111,11.474 -7.222,9.21C-5.333,6.945 11.778,-0.97 23.444,-3.859C35.111,-6.748 57.778,-1.859 69.667,-5.303C81.556,-8.748 82.889,-11.859 87.444,-12.748C92,-13.637 98,-11.637 102.556,-10.414C107.113,-9.192 137,-7.303 152.444,-5.414C167.889,-3.526 183.889,6.363 189.333,8.141C194.778,9.919 213.813,10.447 213.813,10.447C213.813,10.447 220.778,10.586 217.444,15.588C214.111,20.589 211.387,28.712 211.333,39.667" style="fill:none;fill-rule:nonzero;stroke:rgb(22,33,45);stroke-width:1px;"/>
            </g>
            <g transform="matrix(1,0,0,1,246.964,141.219)">
                <path d="M0,-3.904C3.889,-3.114 8.333,-3.554 9.556,-2.667C10.778,-1.78 14.048,0 14.048,0" style="fill:none;fill-rule:nonzero;stroke:rgb(22,33,45);stroke-width:0.5px;"/>
            </g>
            <g transform="matrix(1,0,0,1,167.853,130.334)">
                <path d="M0,-10.117C4.889,-10.006 10.169,-5.339 17.585,-3.228C25,-1.117 30.576,0 36.02,0" style="fill:none;fill-rule:nonzero;stroke:rgb(22,33,45);stroke-width:0.5px;"/>
            </g>
            <g transform="matrix(0.0267976,0.999641,0.999641,-0.0267976,101.413,91.22)">
                <path d="M36.002,-29.313C35.169,-23.066 35.475,-24.075 37.488,-15.348C39.5,-6.62 39.619,3.911 36.002,12.146C33.383,18.107 28.893,24.786 27.989,28.367C27.084,31.948 28.291,35.473 28.221,37.03" style="fill:none;fill-rule:nonzero;stroke:rgb(22,33,45);stroke-width:0.5px;"/>
            </g>
            <g transform="matrix(0.968162,0.250324,0.250324,-0.968162,146.129,196.646)">
                <path d="M0.82,-1.59L14.582,-1.59L12.573,6.18L-1.258,6.448L0.82,-1.59Z" style="fill:rgb(87,87,92);"/>
            </g>
            <g transform="matrix(1,0,0,1,63.2237,204.28)">
                <path d="M0,-47.102L184.864,-39.565L184.864,-20.131C184.863,-20.096 184.842,-20.054 184.802,-20.043L110.503,-0.828C107.301,0 103.941,0 100.739,-0.828L96.142,-2.017L96.142,-7.708C96.141,-7.957 96.106,-8.216 96.037,-8.48C95.803,-9.388 95.216,-10.056 94.593,-10.22L85.333,-12.615C85.15,-12.663 84.965,-12.673 84.784,-12.626C84.165,-12.467 83.786,-11.757 83.787,-10.9L83.787,-5.211L2.117,-26.33L2.117,-26.332C0.817,-26.664 0,-27.135 0,-27.66L0,-47.102Z" style="fill:rgb(220,220,220);fill-rule:nonzero;"/>
            </g>
            <g transform="matrix(0.250502,-0.968116,-0.968116,-0.250502,186.46,186.68)">
                <ellipse cx="-2.042" cy="0.528" rx="3.103" ry="2.11" style="fill:none;stroke:rgb(22,33,45);stroke-width:0.5px;"/>
            </g>
            <g transform="matrix(0.250502,-0.968116,-0.968116,-0.250502,232.797,174.696)">
                <ellipse cx="-2.042" cy="0.528" rx="3.103" ry="2.11" style="fill:none;stroke:rgb(22,33,45);stroke-width:0.5px;"/>
            </g>
            <g transform="matrix(1,0,0,1,247.588,196.734)">
                <path d="M0,-32.01L0,-12.391C-0.001,-12.357 -0.021,-12.315 -0.062,-12.304L-73.862,6.718C-77.064,7.546 -80.423,7.546 -83.625,6.718L-88.222,5.529L-88.222,-0.162C-88.223,-0.41 -88.258,-0.67 -88.327,-0.934C-88.561,-1.842 -89.149,-2.51 -89.772,-2.674L-99.031,-5.069C-99.214,-5.117 -99.399,-5.127 -99.58,-5.08C-100.199,-4.92 -100.579,-4.211 -100.577,-3.354L-100.577,2.335L-182.247,-18.784L-182.247,-18.786C-183.547,-19.118 -183.875,-19.589 -183.875,-20.114L-183.875,-39.556" style="fill:none;fill-rule:nonzero;stroke:rgb(22,33,45);stroke-width:1px;stroke-linecap:butt;"/>
            </g>
            <g transform="matrix(0.968162,0.250324,0.250324,-0.968162,146.88,197.067)">
                <path d="M-0.219,-1.723L13.543,-1.722" style="fill:none;fill-rule:nonzero;stroke:rgb(22,33,45);stroke-width:0.5px;"/>
            </g>
            <g transform="matrix(0.250253,0.968181,0.968181,-0.250253,155.757,196.29)">
                <ellipse cx="1.444" cy="0.374" rx="2.196" ry="1.493" style="fill:none;stroke:rgb(22,33,45);stroke-width:0.5px;"/>
            </g>
            <g transform="matrix(1,0,0,1,156.084,199.109)">
                <path d="M0,-2.925C-0.059,-2.925 -0.118,-2.918 -0.176,-2.903C-0.717,-2.763 -0.989,-2.005 -0.783,-1.209C-0.6,-0.5 -0.098,0 0.392,0C0.451,0 0.51,-0.007 0.569,-0.022C1.109,-0.162 1.381,-0.92 1.175,-1.716C0.992,-2.425 0.49,-2.925 0,-2.925M0,-2.425C0.199,-2.425 0.55,-2.135 0.691,-1.59C0.765,-1.306 0.761,-1.015 0.681,-0.792C0.654,-0.718 0.578,-0.541 0.443,-0.507C0.427,-0.502 0.41,-0.5 0.392,-0.5C0.193,-0.5 -0.158,-0.79 -0.299,-1.335C-0.373,-1.619 -0.369,-1.91 -0.289,-2.133C-0.262,-2.207 -0.186,-2.384 -0.051,-2.419C-0.034,-2.423 -0.018,-2.425 0,-2.425" style="fill:white;fill-rule:nonzero;"/>
            </g>
            <g transform="matrix(0.250253,0.968181,0.968181,-0.250253,149.533,194.702)">
                <ellipse cx="1.444" cy="0.374" rx="2.196" ry="1.493" style="fill:none;stroke:rgb(22,33,45);stroke-width:0.5px;"/>
            </g>
            <g transform="matrix(1,0,0,1,149.861,197.521)">
                <path d="M0,-2.925C-0.059,-2.925 -0.118,-2.918 -0.176,-2.903C-0.717,-2.763 -0.989,-2.005 -0.783,-1.209C-0.599,-0.5 -0.098,0 0.392,0C0.451,0 0.51,-0.007 0.569,-0.022C1.109,-0.162 1.381,-0.92 1.175,-1.716C0.992,-2.425 0.49,-2.925 0,-2.925M0,-2.425C0.199,-2.425 0.55,-2.135 0.691,-1.591C0.842,-1.007 0.645,-0.559 0.443,-0.507C0.427,-0.502 0.41,-0.5 0.392,-0.5C0.193,-0.5 -0.158,-0.79 -0.299,-1.334C-0.45,-1.918 -0.253,-2.366 -0.051,-2.419C-0.034,-2.423 -0.018,-2.425 0,-2.425" style="fill:white;fill-rule:nonzero;"/>
            </g>
            <g transform="matrix(1,0,0,1,248.025,156.851)">
                <path d="M0,7.785L-108.04,-20.156C-108.223,-20.203 -108.415,-20.203 -108.598,-20.156L-182.685,-1.003L-182.685,-1C-183.984,-0.669 -184.802,-0.197 -184.802,0.328C-184.802,0.853 -183.984,1.324 -182.685,1.656L-182.685,1.658L-84.063,27.16C-80.861,27.988 -77.501,27.988 -74.299,27.16L0,7.945C0.082,7.923 0.082,7.806 0,7.785" style="fill:rgb(87,87,92);fill-rule:nonzero;"/>
            </g>
            <g transform="matrix(1,0,0,1,139.706,184.631)">
                <path d="M0,-47.972C-0.094,-47.972 -0.187,-47.96 -0.279,-47.937L-74.366,-28.784L-74.366,-28.781C-75.665,-28.449 -76.483,-27.978 -76.483,-27.453C-76.483,-26.928 -75.665,-26.456 -74.366,-26.125L-74.366,-26.122L24.256,-0.621C25.857,-0.207 27.497,0 29.138,0C30.778,0 32.419,-0.207 34.02,-0.621L108.319,-19.836C108.401,-19.857 108.401,-19.974 108.319,-19.995L0.279,-47.937C0.187,-47.96 0.094,-47.972 0,-47.972M-73.366,-28.784L-73.361,-28.784L-73.366,-28.784M0,-46.972L0.029,-46.968L104.634,-19.916L33.769,-1.589C32.258,-1.198 30.699,-1 29.138,-1C27.576,-1 26.018,-1.198 24.506,-1.589L-74.046,-27.072C-74.07,-27.08 -74.094,-27.088 -74.119,-27.094C-74.604,-27.218 -74.944,-27.346 -75.171,-27.453C-74.944,-27.56 -74.604,-27.688 -74.119,-27.812C-74.094,-27.818 -74.071,-27.825 -74.047,-27.833L-0.028,-46.968C-0.019,-46.971 -0.01,-46.972 0,-46.972" style="fill:rgb(22,33,45);fill-rule:nonzero;"/>
            </g>
            <g transform="matrix(1,0,0,1,121.39,179.704)">
                <path d="M0,-36.193C-0.198,-36.193 -0.396,-36.168 -0.589,-36.118L-39.154,-26.148C-39.353,-26.097 -39.353,-25.814 -39.154,-25.762L60.17,-0.075C60.364,-0.025 60.561,0 60.759,0C60.957,0 61.155,-0.025 61.348,-0.075L99.913,-10.045C100.112,-10.097 100.112,-10.38 99.913,-10.431L0.589,-36.118C0.396,-36.168 0.198,-36.193 0,-36.193M0,-35.193C0.114,-35.193 0.228,-35.179 0.338,-35.15L96.665,-10.238L61.098,-1.044C60.987,-1.015 60.873,-1 60.759,-1C60.645,-1 60.531,-1.015 60.421,-1.044L-35.906,-25.955L-0.338,-35.15C-0.228,-35.179 -0.114,-35.193 0,-35.193" style="fill:rgb(22,33,45);fill-rule:nonzero;"/>
            </g>
            <g transform="matrix(1,0,0,1,133.475,156.335)">
                <path d="M0,-2.34L-2.282,-2.93C-2.701,-3.038 -3.14,-3.038 -3.559,-2.93L-13.404,-0.384C-13.645,-0.314 -13.73,-0.258 -13.73,-0.188C-13.73,-0.119 -13.637,-0.06 -13.404,0L-11.123,0.59C-10.704,0.698 -10.264,0.698 -9.846,0.59L0,-1.956C0.315,-2.039 0.344,-2.095 0.344,-2.149C0.344,-2.203 0.293,-2.264 0,-2.34Z" style="fill:none;fill-rule:nonzero;stroke:rgb(22,33,45);stroke-width:0.5px;stroke-linecap:butt;stroke-linejoin:miter;"/>
            </g>
            <g transform="matrix(1,0,0,1,183.333,169.203)">
                <path d="M0,-2.34L-2.282,-2.93C-2.701,-3.038 -3.14,-3.038 -3.559,-2.93L-13.404,-0.384C-13.645,-0.314 -13.73,-0.258 -13.73,-0.188C-13.73,-0.119 -13.637,-0.06 -13.404,0L-11.123,0.59C-10.704,0.698 -10.264,0.698 -9.846,0.59L0,-1.956C0.315,-2.039 0.344,-2.095 0.344,-2.149C0.344,-2.203 0.293,-2.264 0,-2.34Z" style="fill:none;fill-rule:nonzero;stroke:rgb(22,33,45);stroke-width:0.5px;stroke-linecap:butt;stroke-linejoin:miter;"/>
            </g>
            <g transform="matrix(1,0,0,1,152.533,173.493)">
                <path d="M0,-0.192L4.156,0.883C4.522,0.978 4.907,0.978 5.274,0.883L7.694,0.257L2.364,-1.17L0,-0.559C-0.249,-0.498 -0.294,-0.457 -0.294,-0.399C-0.294,-0.342 -0.28,-0.264 0,-0.192Z" style="fill:none;fill-rule:nonzero;stroke:rgb(22,33,45);stroke-width:0.5px;stroke-linecap:butt;stroke-linejoin:miter;"/>
            </g>
            <g transform="matrix(1,0,0,1,102.352,160.653)">
                <path d="M0,-0.192L4.156,0.883C4.522,0.978 4.907,0.978 5.274,0.883L7.694,0.257L2.364,-1.17L0,-0.559C-0.249,-0.498 -0.294,-0.457 -0.294,-0.399C-0.294,-0.342 -0.279,-0.264 0,-0.192Z" style="fill:none;fill-rule:nonzero;stroke:rgb(22,33,45);stroke-width:0.5px;stroke-linecap:butt;stroke-linejoin:miter;"/>
            </g>
            <g transform="matrix(1,0,0,1,191.316,163.476)">
                <path d="M0,-1.304L2.703,-2.003C3.174,-2.125 3.667,-2.125 4.138,-2.003L11.112,-0.199C11.248,-0.164 11.248,0.028 11.112,0.064L8.182,0.821L0,-1.304Z" style="fill:none;fill-rule:nonzero;stroke:rgb(22,33,45);stroke-width:0.5px;stroke-linecap:butt;stroke-linejoin:miter;"/>
            </g>
            <g transform="matrix(1,0,0,1,141.783,150.542)">
                <path d="M0,-1.304L2.703,-2.003C3.174,-2.125 3.667,-2.125 4.138,-2.003L11.112,-0.199C11.248,-0.164 11.248,0.028 11.112,0.064L8.182,0.821L0,-1.304Z" style="fill:none;fill-rule:nonzero;stroke:rgb(22,33,45);stroke-width:0.5px;stroke-linecap:butt;stroke-linejoin:miter;"/>
            </g>
            <g opacity="0.5">
                <g transform="matrix(1,0,0,1,215.317,162.611)">
                    <path d="M0,37.791L31.462,26.744L31.462,1.702L11.772,-3.39C4.025,-2.424 -6.689,-2.003 -10.576,-1.51C-15.798,-0.847 -27.131,4.161 -31.641,6.421C-36.15,8.682 -43.464,10.272 -56.464,1.939C-69.464,-6.395 -110.354,-5.617 -118.798,-8.554C-121.268,-9.413 -124.131,-10.933 -127.094,-12.679L-151.421,-6.39L-151.421,24.722L-48.276,50.47L0,37.791Z" style="fill:rgb(0,108,250);fill-rule:nonzero;"/>
                </g>
            </g>
            <g transform="matrix(1,0,0,1,48.3286,120.133)">
                <path d="M0,-26.643L0,-7.38L50.46,5.67C50.46,5.67 51.567,5.924 52.55,5.67C53.533,5.416 58.169,4.217 58.169,4.217L58.169,-3.198L70.692,0.041L70.692,10.903L121.502,24.043L158.045,14.592L158.045,3.731L170.569,0.492L170.569,7.907L176.469,9.493C176.469,9.493 176.837,9.728 178.278,9.36C179.719,8.991 214.471,0 214.471,0L214.471,-19.264L162.92,-32.596L157.802,-31.259L144.432,-34.71L144.432,-37.377L92.969,-50.686L55.855,-40.989L55.855,-38.572L42.302,-35.135L37.1,-36.238L0,-26.643Z" style="fill:white;fill-rule:nonzero;"/>
            </g>
            <g transform="matrix(0,1,1,0,179.462,134.544)">
                <path d="M-9.631,-9.631L9.631,-9.631" style="fill:none;fill-rule:nonzero;stroke:rgb(22,33,45);stroke-width:1px;"/>
            </g>
            <g transform="matrix(1,0,0,1,103.603,119.924)">
                <path d="M0,-3.189C1.111,-3.439 1.642,-3.313 2.444,-3.106L15.418,0.25" style="fill:none;fill-rule:nonzero;stroke:rgb(22,33,45);stroke-width:1px;"/>
            </g>
            <g transform="matrix(1,0,0,1,106.498,102.535)">
                <path d="M0,14.4L0,21.815L-5.619,23.268C-6.305,23.445 -7.024,23.445 -7.709,23.268L-58.169,10.218L-58.169,-9.045" style="fill:none;fill-rule:nonzero;stroke:rgb(22,33,45);stroke-width:1px;"/>
            </g>
            <g transform="matrix(1,0,0,1,221.792,123.614)">
                <path d="M0,-3.189C-1.111,-3.439 -1.642,-3.313 -2.444,-3.106L-15.418,0.25" style="fill:none;fill-rule:nonzero;stroke:rgb(22,33,45);stroke-width:1px;"/>
            </g>
            <g transform="matrix(0,1,1,0,175.202,171.658)">
                <path d="M-56.18,31.172L-36.933,31.172L-27.482,-5.371L-40.622,-56.18L-59.87,-56.18" style="fill:none;fill-rule:nonzero;stroke:rgb(22,33,45);stroke-width:1px;"/>
            </g>
            <g transform="matrix(1,0,0,1,262.799,129.67)">
                <path d="M0,-28.801L0,-9.538L-36.193,-0.177C-36.878,0 -37.597,0 -38.283,-0.177L-43.902,-1.631L-43.902,-9.045" style="fill:none;fill-rule:nonzero;stroke:rgb(22,33,45);stroke-width:1px;"/>
            </g>
            <g transform="matrix(1,0,0,1,85.6955,110.532)">
                <path d="M0,-26.706L-37.367,-17.042L12.939,-4.032C13.676,-3.842 14.45,-3.842 15.187,-4.032L17.713,-4.686C18.565,-4.906 19.46,-4.906 20.313,-4.686L37.281,-0.297C37.555,-0.226 37.555,0.162 37.281,0.233L33.325,1.256L84.135,14.38L120.678,4.946L116.722,3.923C116.449,3.852 116.449,3.463 116.722,3.392L133.691,-0.996C134.544,-1.216 135.438,-1.216 136.291,-0.996L138.817,-0.343C139.554,-0.152 140.328,-0.152 141.065,-0.343L177.104,-9.663L125.553,-22.995L120.477,-21.682L101.989,-26.463L107.065,-27.776L55.602,-41.086L18.488,-31.487L23.351,-30.229L4.863,-25.448L0,-26.706Z" style="fill:none;fill-rule:nonzero;stroke:rgb(22,33,45);stroke-width:1px;"/>
            </g>
            <g transform="matrix(0,1,1,0,194.094,84.0894)">
                <path d="M-1.334,-1.334L1.334,-1.334" style="fill:none;fill-rule:nonzero;stroke:rgb(22,33,45);stroke-width:1px;"/>
            </g>
            <g transform="matrix(0,1,1,0,105.42,80.2818)">
                <path d="M-1.237,-1.237L1.237,-1.237" style="fill:none;fill-rule:nonzero;stroke:rgb(22,33,45);stroke-width:1px;"/>
            </g>
            <g transform="matrix(-0.968148,-0.250377,-0.250377,0.968148,120.003,95.9954)">
                <path d="M-20.852,9.468L13.501,9.468L1.205,2.653L-33.148,2.653L-20.852,9.468Z" style="fill:none;fill-rule:nonzero;stroke:rgb(22,33,45);stroke-width:1px;"/>
            </g>
            <g transform="matrix(0.968147,0.250382,0.250382,-0.968147,107.951,78.2677)">
                <path d="M0.036,-12.935L77.837,-12.935L101.679,0.281L23.879,0.282L0.036,-12.935Z" style="fill:none;fill-rule:nonzero;stroke:rgb(22,33,45);stroke-width:1px;"/>
            </g>
            <g transform="matrix(1,0,0,1,188.372,93.3316)">
                <path d="M0,14.801L-57.233,0L-65.535,2.147" style="fill:none;fill-rule:nonzero;stroke:rgb(22,33,45);stroke-width:0.5px;"/>
            </g>
            <g transform="matrix(0,-1,-1,0,135.818,88.6527)">
                <path d="M-4.679,4.679L4.679,4.679" style="fill:none;fill-rule:nonzero;stroke:rgb(22,33,45);stroke-width:0.5px;"/>
            </g>
            <g transform="matrix(0,1,1,0,121.694,101.784)">
                <path d="M-3.522,-3.522L3.522,-3.522" style="fill:none;fill-rule:nonzero;stroke:rgb(22,33,45);stroke-width:0.5px;"/>
            </g>
            <g transform="matrix(1,0,0,1,51.0751,172.883)">
                <path d="M0,-40C-2.222,-38.667 -4.556,-38.278 -2.222,-36.805C0.111,-35.333 11.753,-35.282 17.877,-33.808C24,-32.333 37,-21.763 45.444,-18.826C53.889,-15.889 94.778,-16.667 107.778,-8.333C120.778,0 128.092,-1.59 132.602,-3.851C137.111,-6.111 148.444,-11.119 153.667,-11.782C158.889,-12.444 176.444,-12.975 182.556,-14.877C188.667,-16.778 200.111,-21.556 203.111,-25.222C206.111,-28.889 211.315,-32.993 213.369,-33.903" style="fill:none;fill-rule:nonzero;stroke:rgb(22,33,45);stroke-width:1px;"/>
            </g>
            <g transform="matrix(1,0,0,1,191.381,177.077)">
                <path d="M0,14.292L0,-3.194L-21.583,2.374L-144.523,-29.416L-144.523,11.917L-21.598,43.708L73.063,19.227L73.063,-22.107L51.667,-16.595L51.667,0.941C51.667,2.973 51.926,6.041 47.56,7.146C43.194,8.25 3.194,18.639 3.194,18.639C3.194,18.639 0,19.723 0,14.292" style="fill:white;fill-rule:nonzero;"/>
            </g>
            <g transform="matrix(0,-1,-1,0,190.45,200.119)">
                <path d="M-20.667,20.667L20.667,20.667" style="fill:none;fill-rule:nonzero;stroke:rgb(22,33,45);stroke-width:1px;"/>
            </g>
            <g transform="matrix(1,0,0,1,194.783,172.803)">
                <path d="M0,22.84L45.319,11.12C47.11,10.657 48.264,8.691 48.264,6.15L48.264,-12.299L69.66,-17.832L69.66,23.501L-25,47.982L-147.926,16.191L-147.926,-25.142L-25,6.649L-3.467,1.08L-3.467,19.528C-3.467,21.608 -2.561,23.502 0,22.84Z" style="fill:none;fill-rule:nonzero;stroke:rgb(22,33,45);stroke-width:1px;"/>
            </g>
            <g transform="matrix(1,0,0,1,131.14,88.8012)">
                <path d="M0,-36.75L-26.393,-29.924L-26.393,-19.479L48.93,0L75.323,-6.825L75.323,-17.27L0,-36.75Z" style="fill:rgb(255,214,0);fill-rule:nonzero;"/>
            </g>
            <g transform="matrix(0.968147,0.250382,0.250382,-0.968147,107.951,46.3445)">
                <path d="M0.036,-12.935L77.837,-12.935L101.679,0.281L23.879,0.282L0.036,-12.935Z" style="fill:none;fill-rule:nonzero;stroke:rgb(22,33,45);stroke-width:1px;"/>
            </g>
            <g transform="matrix(0,1,1,0,157.913,124.697)">
                <path d="M-53.166,48.549L-42.721,48.549L-35.895,22.156L-55.375,-53.166L-65.82,-53.166" style="fill:none;fill-rule:nonzero;stroke:rgb(22,33,45);stroke-width:1px;"/>
            </g>
            <g transform="matrix(0,1,1,0,185.292,83.579)">
                <path d="M-5.223,-5.223L5.223,-5.223" style="fill:none;fill-rule:nonzero;stroke:rgb(22,33,45);stroke-width:1px;"/>
            </g>
        </g>
    </g>
</svg>
