<?xml version="1.0" encoding="UTF-8" standalone="no"?>
<!DOCTYPE svg PUBLIC "-//W3C//DTD SVG 1.1//EN" "http://www.w3.org/Graphics/SVG/1.1/DTD/svg11.dtd">
<svg width="100%" height="100%" viewBox="0 0 240 99" version="1.1" xmlns="http://www.w3.org/2000/svg" xmlns:xlink="http://www.w3.org/1999/xlink" xml:space="preserve" xmlns:serif="http://www.serif.com/" style="fill-rule:evenodd;clip-rule:evenodd;stroke-miterlimit:10;">
    <g transform="matrix(1,0,0,1,-49.2129,-122.68)">
        <g id="STEP-3" serif:id="STEP 3">
            <g transform="matrix(1,0,0,1,125.395,137.937)">
                <path d="M0,11.049L-19.985,5.881C-21.103,5.591 -21.668,4.041 -21.248,2.417C-20.828,0.793 -19.582,-0.289 -18.464,0L1.521,5.168C2.639,5.457 3.204,7.008 2.784,8.632C2.364,10.256 1.118,11.338 0,11.049Z" style="fill:rgb(255,214,0);fill-rule:nonzero;stroke:rgb(22,33,45);stroke-width:1px;"/>
            </g>
            <g transform="matrix(1,0,0,1,126.547,149.032)">
                <path d="M0,-5.974C-1.011,-5.974 -2.041,-4.957 -2.415,-3.51C-2.835,-1.886 -2.27,-0.335 -1.152,-0.046C-1.03,-0.015 -0.907,0 -0.783,0C0.228,0 1.258,-1.016 1.633,-2.463C2.052,-4.087 1.487,-5.638 0.369,-5.927C0.247,-5.959 0.124,-5.974 0,-5.974M0,-5.974L0,-5.474C0.083,-5.474 0.165,-5.464 0.244,-5.443C0.62,-5.346 0.927,-5.02 1.108,-4.525C1.312,-3.965 1.326,-3.277 1.148,-2.589C0.84,-1.398 0.01,-0.5 -0.783,-0.5C-0.866,-0.5 -0.948,-0.51 -1.027,-0.531C-1.403,-0.628 -1.71,-0.954 -1.891,-1.449C-2.095,-2.009 -2.109,-2.697 -1.931,-3.385C-1.623,-4.576 -0.793,-5.474 0,-5.474L0,-5.974Z" style="fill:rgb(22,33,45);fill-rule:nonzero;"/>
            </g>
            <g transform="matrix(1,0,0,1,267.299,143.442)">
                <path d="M0,11.529L-122.926,-20.262L-144.146,-14.774L-144.146,3.136L0,31.791L0,11.529Z" style="fill:white;fill-rule:nonzero;"/>
            </g>
            <g transform="matrix(1,0,0,1,49.713,147.661)">
                <path d="M0,0L22.094,-5.714L22.094,5.714L0,0Z" style="fill:white;fill-rule:nonzero;"/>
            </g>
            <g transform="matrix(1,0,0,1,123.153,136.204)">
                <path d="M0,5.743L0,-7.536L21.221,-13.024L144.146,18.767" style="fill:none;fill-rule:nonzero;stroke:rgb(22,33,45);stroke-width:1px;stroke-linecap:round;stroke-linejoin:round;"/>
            </g>
            <g transform="matrix(0,1,1,0,151.531,130.337)">
                <path d="M-7.157,-7.157L7.157,-7.157" style="fill:none;fill-rule:nonzero;stroke:rgb(22,33,45);stroke-width:1px;stroke-linecap:round;stroke-linejoin:round;"/>
            </g>
            <g transform="matrix(1,0,0,1,71.8074,141.947)">
                <path d="M0,11.428L0,0L-22.094,5.714" style="fill:none;fill-rule:nonzero;stroke:rgb(22,33,45);stroke-width:1px;stroke-linecap:round;stroke-linejoin:round;"/>
            </g>
            <g transform="matrix(0.968162,0.250324,0.250324,-0.968162,148.985,196.646)">
                <path d="M0.82,-1.59L14.582,-1.59L12.573,6.18L-1.258,6.448L0.82,-1.59Z" style="fill:rgb(87,87,92);"/>
            </g>
            <g transform="matrix(1,0,0,1,66.0794,204.28)">
                <path d="M0,-47.102L184.864,-39.565L184.864,-20.131C184.863,-20.096 184.842,-20.054 184.802,-20.043L110.503,-0.828C107.301,0 103.941,0 100.739,-0.828L96.142,-2.017L96.142,-7.708C96.141,-7.957 96.106,-8.216 96.037,-8.48C95.803,-9.388 95.216,-10.056 94.592,-10.22L85.333,-12.615C85.15,-12.663 84.965,-12.673 84.784,-12.626C84.165,-12.467 83.786,-11.757 83.787,-10.9L83.787,-5.211L2.117,-26.33L2.117,-26.332C0.817,-26.664 0,-27.135 0,-27.66L0,-47.102Z" style="fill:rgb(220,220,220);fill-rule:nonzero;"/>
            </g>
            <g transform="matrix(0.250502,-0.968116,-0.968116,-0.250502,189.316,186.68)">
                <ellipse cx="-2.042" cy="0.528" rx="3.103" ry="2.11" style="fill:none;stroke:rgb(22,33,45);stroke-width:0.5px;stroke-linecap:round;stroke-linejoin:round;"/>
            </g>
            <g transform="matrix(0.250502,-0.968116,-0.968116,-0.250502,235.653,174.696)">
                <ellipse cx="-2.042" cy="0.528" rx="3.103" ry="2.11" style="fill:none;stroke:rgb(22,33,45);stroke-width:0.5px;stroke-linecap:round;stroke-linejoin:round;"/>
            </g>
            <g transform="matrix(1,0,0,1,250.443,196.734)">
                <path d="M0,-32.01L0,-12.391C-0.001,-12.357 -0.021,-12.315 -0.062,-12.304L-73.862,6.718C-77.064,7.546 -80.423,7.546 -83.625,6.718L-88.222,5.529L-88.222,-0.162C-88.223,-0.41 -88.258,-0.67 -88.327,-0.934C-88.561,-1.842 -89.149,-2.51 -89.772,-2.674L-99.031,-5.069C-99.214,-5.117 -99.399,-5.127 -99.58,-5.08C-100.199,-4.92 -100.579,-4.211 -100.577,-3.354L-100.577,2.335L-182.247,-18.784L-182.247,-18.786C-183.547,-19.118 -183.875,-19.589 -183.875,-20.114L-183.875,-39.556" style="fill:none;fill-rule:nonzero;stroke:rgb(22,33,45);stroke-width:1px;stroke-linejoin:round;"/>
            </g>
            <g transform="matrix(0.968162,0.250324,0.250324,-0.968162,149.736,197.067)">
                <path d="M-0.219,-1.723L13.543,-1.722" style="fill:none;fill-rule:nonzero;stroke:rgb(22,33,45);stroke-width:0.5px;stroke-linecap:round;stroke-linejoin:round;"/>
            </g>
            <g transform="matrix(0.250253,0.968181,0.968181,-0.250253,158.613,196.29)">
                <ellipse cx="1.444" cy="0.374" rx="2.196" ry="1.493" style="fill:none;stroke:rgb(22,33,45);stroke-width:0.5px;stroke-linecap:round;stroke-linejoin:round;"/>
            </g>
            <g transform="matrix(1,0,0,1,158.94,199.109)">
                <path d="M0,-2.925C-0.059,-2.925 -0.118,-2.918 -0.176,-2.903C-0.717,-2.763 -0.989,-2.005 -0.783,-1.209C-0.6,-0.5 -0.098,0 0.392,0C0.451,0 0.51,-0.007 0.569,-0.022C1.109,-0.162 1.381,-0.92 1.175,-1.716C0.992,-2.425 0.49,-2.925 0,-2.925M0,-2.425C0.199,-2.425 0.55,-2.135 0.691,-1.59C0.765,-1.306 0.761,-1.015 0.681,-0.792C0.654,-0.718 0.578,-0.541 0.443,-0.507C0.427,-0.502 0.41,-0.5 0.392,-0.5C0.193,-0.5 -0.158,-0.79 -0.299,-1.335C-0.373,-1.619 -0.369,-1.91 -0.289,-2.133C-0.262,-2.207 -0.186,-2.384 -0.051,-2.419C-0.034,-2.423 -0.018,-2.425 0,-2.425" style="fill:white;fill-rule:nonzero;"/>
            </g>
            <g transform="matrix(0.250253,0.968181,0.968181,-0.250253,152.389,194.702)">
                <ellipse cx="1.444" cy="0.374" rx="2.196" ry="1.493" style="fill:none;stroke:rgb(22,33,45);stroke-width:0.5px;stroke-linecap:round;stroke-linejoin:round;"/>
            </g>
            <g transform="matrix(1,0,0,1,152.716,197.521)">
                <path d="M0,-2.925C-0.059,-2.925 -0.118,-2.918 -0.176,-2.903C-0.717,-2.763 -0.989,-2.005 -0.783,-1.209C-0.599,-0.5 -0.098,0 0.392,0C0.451,0 0.51,-0.007 0.569,-0.022C1.109,-0.162 1.381,-0.92 1.175,-1.716C0.992,-2.425 0.49,-2.925 0,-2.925M0,-2.425C0.199,-2.425 0.55,-2.135 0.691,-1.591C0.842,-1.007 0.645,-0.559 0.443,-0.507C0.427,-0.502 0.41,-0.5 0.392,-0.5C0.193,-0.5 -0.158,-0.79 -0.299,-1.334C-0.45,-1.918 -0.253,-2.366 -0.051,-2.419C-0.034,-2.423 -0.018,-2.425 0,-2.425" style="fill:white;fill-rule:nonzero;"/>
            </g>
            <g transform="matrix(1,0,0,1,250.881,156.851)">
                <path d="M0,7.785L-108.04,-20.156C-108.223,-20.203 -108.415,-20.203 -108.598,-20.156L-182.685,-1.003L-182.685,-1C-183.984,-0.669 -184.802,-0.197 -184.802,0.328C-184.802,0.853 -183.984,1.324 -182.685,1.656L-182.685,1.658L-84.063,27.16C-80.861,27.988 -77.501,27.988 -74.299,27.16L0,7.945C0.082,7.923 0.082,7.806 0,7.785" style="fill:rgb(87,87,92);fill-rule:nonzero;"/>
            </g>
            <g transform="matrix(1,0,0,1,142.562,184.631)">
                <path d="M0,-47.972C-0.094,-47.972 -0.187,-47.96 -0.279,-47.937L-74.366,-28.784L-74.366,-28.781C-75.665,-28.449 -76.483,-27.978 -76.483,-27.453C-76.483,-26.928 -75.665,-26.456 -74.366,-26.125L-74.366,-26.122L24.256,-0.621C25.857,-0.207 27.497,0 29.138,0C30.778,0 32.419,-0.207 34.02,-0.621L108.319,-19.836C108.401,-19.857 108.401,-19.974 108.319,-19.995L0.279,-47.937C0.187,-47.96 0.094,-47.972 0,-47.972M-73.366,-28.784L-73.361,-28.784L-73.366,-28.784M0,-46.972L0.029,-46.968L104.634,-19.916L33.769,-1.589C32.258,-1.198 30.699,-1 29.138,-1C27.576,-1 26.018,-1.198 24.506,-1.589L-74.046,-27.072C-74.07,-27.08 -74.094,-27.088 -74.119,-27.094C-74.604,-27.218 -74.944,-27.346 -75.171,-27.453C-74.944,-27.56 -74.604,-27.688 -74.119,-27.812C-74.094,-27.818 -74.071,-27.825 -74.047,-27.833L-0.028,-46.968C-0.019,-46.971 -0.01,-46.972 0,-46.972" style="fill:rgb(22,33,45);fill-rule:nonzero;"/>
            </g>
            <g transform="matrix(1,0,0,1,124.246,179.704)">
                <path d="M0,-36.193C-0.198,-36.193 -0.396,-36.168 -0.589,-36.118L-39.154,-26.148C-39.353,-26.097 -39.353,-25.814 -39.154,-25.762L60.17,-0.075C60.364,-0.025 60.561,0 60.759,0C60.957,0 61.155,-0.025 61.348,-0.075L99.913,-10.045C100.112,-10.097 100.112,-10.38 99.913,-10.431L0.589,-36.118C0.396,-36.168 0.198,-36.193 0,-36.193M0,-35.193C0.114,-35.193 0.228,-35.179 0.338,-35.15L96.665,-10.238L61.098,-1.044C60.987,-1.015 60.873,-1 60.759,-1C60.645,-1 60.531,-1.015 60.421,-1.044L-35.906,-25.955L-0.338,-35.15C-0.228,-35.179 -0.114,-35.193 0,-35.193" style="fill:rgb(22,33,45);fill-rule:nonzero;"/>
            </g>
            <g transform="matrix(1,0,0,1,136.331,156.335)">
                <path d="M0,-2.34L-2.282,-2.93C-2.701,-3.038 -3.14,-3.038 -3.559,-2.93L-13.404,-0.384C-13.645,-0.314 -13.73,-0.258 -13.73,-0.188C-13.73,-0.119 -13.637,-0.06 -13.404,0L-11.123,0.59C-10.704,0.698 -10.264,0.698 -9.846,0.59L0,-1.956C0.315,-2.039 0.344,-2.095 0.344,-2.149C0.344,-2.203 0.293,-2.264 0,-2.34Z" style="fill:none;fill-rule:nonzero;stroke:rgb(22,33,45);stroke-width:0.5px;"/>
            </g>
            <g transform="matrix(1,0,0,1,186.189,169.203)">
                <path d="M0,-2.34L-2.282,-2.93C-2.701,-3.038 -3.14,-3.038 -3.559,-2.93L-13.404,-0.384C-13.645,-0.314 -13.73,-0.258 -13.73,-0.188C-13.73,-0.119 -13.637,-0.06 -13.404,0L-11.123,0.59C-10.704,0.698 -10.264,0.698 -9.846,0.59L0,-1.956C0.315,-2.039 0.344,-2.095 0.344,-2.149C0.344,-2.203 0.293,-2.264 0,-2.34Z" style="fill:none;fill-rule:nonzero;stroke:rgb(22,33,45);stroke-width:0.5px;"/>
            </g>
            <g transform="matrix(1,0,0,1,155.389,173.493)">
                <path d="M0,-0.192L4.156,0.883C4.522,0.978 4.907,0.978 5.274,0.883L7.694,0.257L2.364,-1.17L0,-0.559C-0.249,-0.498 -0.294,-0.457 -0.294,-0.399C-0.294,-0.342 -0.279,-0.264 0,-0.192Z" style="fill:none;fill-rule:nonzero;stroke:rgb(22,33,45);stroke-width:0.5px;"/>
            </g>
            <g transform="matrix(1,0,0,1,105.208,160.653)">
                <path d="M0,-0.192L4.156,0.883C4.522,0.978 4.907,0.978 5.274,0.883L7.694,0.257L2.364,-1.17L0,-0.559C-0.249,-0.498 -0.294,-0.457 -0.294,-0.399C-0.294,-0.342 -0.28,-0.264 0,-0.192Z" style="fill:none;fill-rule:nonzero;stroke:rgb(22,33,45);stroke-width:0.5px;"/>
            </g>
            <g transform="matrix(1,0,0,1,194.172,163.476)">
                <path d="M0,-1.304L2.703,-2.003C3.174,-2.125 3.667,-2.125 4.138,-2.003L11.112,-0.199C11.248,-0.164 11.248,0.028 11.112,0.064L8.182,0.821L0,-1.304Z" style="fill:none;fill-rule:nonzero;stroke:rgb(22,33,45);stroke-width:0.5px;"/>
            </g>
            <g transform="matrix(1,0,0,1,144.639,150.542)">
                <path d="M0,-1.304L2.703,-2.003C3.174,-2.125 3.667,-2.125 4.138,-2.003L11.112,-0.199C11.248,-0.164 11.248,0.028 11.112,0.064L8.182,0.821L0,-1.304Z" style="fill:none;fill-rule:nonzero;stroke:rgb(22,33,45);stroke-width:0.5px;"/>
            </g>
            <g transform="matrix(-0.968149,0.250374,0.250374,0.968149,228.62,194.74)">
                <path d="M-20.919,-11.862L3.82,-11.862L5.905,-3.798L-23.762,-4.718L-20.919,-11.862Z" style="fill:white;fill-rule:nonzero;"/>
            </g>
            <g transform="matrix(-0.969737,0.244154,0.244154,0.969737,203.865,200.273)">
                <path d="M-1.39,-11.012L10.967,-11.012L10.214,-2.4L-12.252,-5.175L-1.39,-11.012Z" style="fill:white;fill-rule:nonzero;"/>
            </g>
            <g transform="matrix(1,0,0,1,221.952,178.018)">
                <path d="M0,11.337L0,6.194L23.951,0" style="fill:none;fill-rule:nonzero;stroke:rgb(22,33,45);stroke-width:1px;stroke-linecap:round;stroke-linejoin:round;"/>
            </g>
            <g transform="matrix(0.968158,0.25034,0.25034,-0.968158,222.432,183.009)">
                <path d="M-0.164,-1.285L10.107,-1.285" style="fill:none;fill-rule:nonzero;stroke:rgb(22,33,45);stroke-width:1px;stroke-linecap:round;stroke-linejoin:round;"/>
            </g>
            <g transform="matrix(1,0,0,1,194.172,189.657)">
                <path d="M0,1.758L8.353,-0.402L18.26,2.16" style="fill:none;fill-rule:nonzero;stroke:rgb(22,33,45);stroke-width:1px;stroke-linecap:round;stroke-linejoin:round;"/>
            </g>
            <g transform="matrix(1,0,0,1,194.236,177.077)">
                <path d="M0,14.292L0,-3.194L-21.583,2.374L-144.523,-29.416L-144.523,11.917L-21.598,43.708L73.063,19.227L73.063,-22.107L51.667,-16.595L51.667,0.941C51.667,2.973 51.926,6.041 47.56,7.146C43.194,8.25 3.194,18.639 3.194,18.639C3.194,18.639 0,19.723 0,14.292" style="fill:white;fill-rule:nonzero;"/>
            </g>
            <g transform="matrix(0,-1,-1,0,193.305,200.119)">
                <path d="M-20.667,20.667L20.667,20.667" style="fill:none;fill-rule:nonzero;stroke:rgb(22,33,45);stroke-width:1px;stroke-linecap:round;stroke-linejoin:round;"/>
            </g>
            <g transform="matrix(1,0,0,1,197.639,172.803)">
                <path d="M0,22.84L45.319,11.12C47.11,10.657 48.264,8.691 48.264,6.15L48.264,-12.299L69.66,-17.832L69.66,23.501L-25,47.982L-147.926,16.191L-147.926,-25.142L-25,6.649L-3.467,1.08L-3.467,19.528C-3.467,21.608 -2.561,23.502 0,22.84Z" style="fill:none;fill-rule:nonzero;stroke:rgb(22,33,45);stroke-width:1px;stroke-linecap:round;stroke-linejoin:round;"/>
            </g>
            <g transform="matrix(1,0,0,1,209.68,187.583)">
                <path d="M0,11.049L-19.985,5.881C-21.103,5.591 -21.668,4.041 -21.248,2.417C-20.828,0.793 -19.582,-0.289 -18.464,0L1.521,5.168C2.639,5.457 3.204,7.008 2.784,8.632C2.364,10.256 1.118,11.338 0,11.049Z" style="fill:rgb(255,214,0);fill-rule:nonzero;stroke:rgb(22,33,45);stroke-width:1px;"/>
            </g>
            <g transform="matrix(1,0,0,1,210.832,198.678)">
                <path d="M0,-5.974C-1.011,-5.974 -2.041,-4.957 -2.415,-3.51C-2.835,-1.886 -2.27,-0.335 -1.152,-0.046C-1.03,-0.015 -0.907,0 -0.783,0C0.228,0 1.258,-1.016 1.633,-2.463C2.052,-4.087 1.487,-5.638 0.369,-5.927C0.247,-5.959 0.124,-5.974 0,-5.974M0,-5.974L0,-5.474C0.083,-5.474 0.165,-5.464 0.244,-5.443C0.62,-5.346 0.927,-5.02 1.108,-4.525C1.312,-3.965 1.326,-3.277 1.148,-2.589C0.84,-1.398 0.01,-0.5 -0.783,-0.5C-0.866,-0.5 -0.948,-0.51 -1.027,-0.531C-1.403,-0.628 -1.71,-0.954 -1.891,-1.449C-2.095,-2.009 -2.109,-2.697 -1.931,-3.385C-1.623,-4.576 -0.793,-5.474 0,-5.474L0,-5.974Z" style="fill:rgb(22,33,45);fill-rule:nonzero;"/>
            </g>
            <g transform="matrix(1,0,0,1,196.934,194.796)">
                <path d="M0,-5.436C0.104,-5.436 0.207,-5.423 0.306,-5.397M-1.09,0C-2.072,-0.255 -2.558,-1.672 -2.174,-3.16C-1.838,-4.457 -0.903,-5.436 0,-5.436" style="fill:none;fill-rule:nonzero;stroke:rgb(22,33,45);stroke-width:0.5px;"/>
            </g>
            <g transform="matrix(1,0,0,1,193.773,193.978)">
                <path d="M0,-5.436C0.104,-5.436 0.207,-5.423 0.306,-5.397M-1.089,0C-1.548,-0.119 -1.916,-0.501 -2.125,-1.075C-2.347,-1.683 -2.364,-2.423 -2.173,-3.16C-1.838,-4.457 -0.903,-5.436 0,-5.436" style="fill:none;fill-rule:nonzero;stroke:rgb(22,33,45);stroke-width:0.5px;"/>
            </g>
            <g transform="matrix(1,0,0,1,192.665,193.692)">
                <path d="M0,-5.436C0.104,-5.436 0.207,-5.423 0.306,-5.397M-1.09,0C-2.072,-0.255 -2.558,-1.672 -2.174,-3.16C-1.838,-4.457 -0.904,-5.436 0,-5.436" style="fill:none;fill-rule:nonzero;stroke:rgb(22,33,45);stroke-width:0.5px;"/>
            </g>
            <g transform="matrix(1,0,0,1,197.431,186.841)">
                <path d="M0,8.876C0,8.876 -3.194,9.959 -3.194,4.529L-3.194,-3.867L-15.591,-1.342L-12.924,9.218L-0.869,12.743L0,8.876Z" style="fill:white;fill-rule:nonzero;"/>
            </g>
            <g transform="matrix(1,0,0,1,194.172,196.306)">
                <path d="M0,-22.423L0,-3.975C0,-1.895 0.906,0 3.467,-0.663" style="fill:none;fill-rule:nonzero;stroke:rgb(22,33,45);stroke-width:1px;stroke-linecap:round;stroke-linejoin:round;"/>
            </g>
            <g transform="matrix(-0.968151,-0.250368,-0.250368,0.968151,234.843,174.282)">
                <path d="M-2.754,4.437L-0.594,4.437C0.201,4.436 0.845,3.501 0.845,2.346C0.845,1.192 0.2,0.256 -0.594,0.256L-2.768,0.256" style="fill:rgb(255,214,0);fill-rule:nonzero;stroke:rgb(22,33,45);stroke-width:0.5px;"/>
            </g>
            <g transform="matrix(1,0,0,1,257.617,174.694)">
                <path d="M0,11.049L-19.985,5.881C-21.103,5.591 -21.668,4.041 -21.248,2.417C-20.828,0.793 -19.582,-0.289 -18.464,0L1.521,5.168C2.639,5.457 3.204,7.008 2.784,8.632C2.364,10.256 1.118,11.338 0,11.049Z" style="fill:rgb(255,214,0);fill-rule:nonzero;stroke:rgb(22,33,45);stroke-width:1px;"/>
            </g>
            <g transform="matrix(1,0,0,1,258.769,185.789)">
                <path d="M0,-5.974C-1.011,-5.974 -2.041,-4.957 -2.416,-3.51C-2.835,-1.886 -2.27,-0.335 -1.152,-0.046C-1.03,-0.015 -0.907,0 -0.783,0C0.228,0 1.258,-1.016 1.632,-2.463C2.052,-4.087 1.487,-5.638 0.369,-5.927C0.247,-5.959 0.124,-5.974 0,-5.974M0,-5.974L0,-5.474C0.083,-5.474 0.165,-5.464 0.244,-5.443C1.078,-5.227 1.492,-3.92 1.148,-2.589C0.84,-1.398 0.01,-0.5 -0.783,-0.5C-0.866,-0.5 -0.948,-0.51 -1.027,-0.53C-1.862,-0.746 -2.276,-2.054 -1.931,-3.385C-1.623,-4.576 -0.793,-5.474 0,-5.474L0,-5.974Z" style="fill:rgb(22,33,45);fill-rule:nonzero;"/>
            </g>
            <g transform="matrix(1,0,0,1,244.871,181.907)">
                <path d="M0,-5.436C0.104,-5.436 0.207,-5.423 0.306,-5.397M-1.09,0C-2.072,-0.255 -2.558,-1.672 -2.174,-3.16C-1.838,-4.457 -0.903,-5.436 0,-5.436" style="fill:none;fill-rule:nonzero;stroke:rgb(22,33,45);stroke-width:0.5px;"/>
            </g>
            <g transform="matrix(1,0,0,1,241.71,181.09)">
                <path d="M0,-5.436C0.104,-5.436 0.207,-5.423 0.306,-5.397M-1.089,0C-1.548,-0.119 -1.916,-0.501 -2.125,-1.075C-2.347,-1.683 -2.364,-2.423 -2.173,-3.16C-1.838,-4.457 -0.903,-5.436 0,-5.436" style="fill:none;fill-rule:nonzero;stroke:rgb(22,33,45);stroke-width:0.5px;"/>
            </g>
            <g transform="matrix(1,0,0,1,240.602,180.803)">
                <path d="M0,-5.436C0.104,-5.436 0.207,-5.423 0.306,-5.397M-1.09,0C-2.072,-0.255 -2.558,-1.672 -2.174,-3.16C-1.838,-4.457 -0.904,-5.436 0,-5.436" style="fill:none;fill-rule:nonzero;stroke:rgb(22,33,45);stroke-width:0.5px;"/>
            </g>
            <g transform="matrix(1,0,0,1,278.363,171.153)">
                <path d="M0,5.515C-0.301,-3.866 -4.082,-11.206 -10.052,-12.494C-18.057,-14.22 -26.963,-4.416 -29.944,9.406C-30.717,12.987 -31.012,16.485 -30.892,19.735" style="fill:none;fill-rule:nonzero;stroke:rgb(0,108,250);stroke-width:10px;stroke-linecap:round;stroke-linejoin:round;stroke-miterlimit:4;"/>
            </g>
            <g transform="matrix(1,0,0,1,288.237,191.013)">
                <path d="M0,-17.581L-9.415,0L-19.935,-16.942L0,-17.581Z" style="fill:rgb(0,108,250);fill-rule:nonzero;"/>
            </g>
        </g>
    </g>
</svg>
