<?xml version="1.0" encoding="UTF-8" standalone="no"?>
<!DOCTYPE svg PUBLIC "-//W3C//DTD SVG 1.1//EN" "http://www.w3.org/Graphics/SVG/1.1/DTD/svg11.dtd">
<svg width="100%" height="100%" viewBox="0 0 284 284" version="1.1" xmlns="http://www.w3.org/2000/svg" xmlns:xlink="http://www.w3.org/1999/xlink" xml:space="preserve" xmlns:serif="http://www.serif.com/" style="fill-rule:evenodd;clip-rule:evenodd;stroke-linecap:round;stroke-linejoin:round;stroke-miterlimit:10;">
    <g id="_12mm-Wrench" serif:id="12mm Wrench">
        <g transform="matrix(1,0,0,1,225.259,208.308)">
            <path d="M0,-94.096L0,-98.062L-18.867,-105.378L-155.508,-26.819L-155.5,-26.814C-162.15,-27.986 -168.778,-27.558 -173.338,-26.199C-179.912,-24.239 -186.074,-19.941 -188.95,-14.221C-190.798,-10.545 -190.763,-6.746 -190.505,-4.486L-190.51,-4.482C-190.51,-4.482 -190.159,0.142 -190.159,0.782C-190.159,1.422 -189.116,1.777 -188.168,1.208C-187.219,0.64 -176.198,-8.462 -175.084,-9.363C-173.97,-10.263 -172.288,-10.571 -170.889,-10.5C-169.491,-10.429 -161.343,-8.45 -155.337,-3.969L-155.336,-3.969L-166.136,5.108C-166.452,5.373 -166.624,5.773 -166.599,6.185L-166.291,11.282C-151.312,10.239 -140.788,3.033 -139.461,1.896C-138.133,0.758 -134.72,-1.328 -134.72,-4.456L-134.72,-10.998C-134.72,-10.998 -134.761,-12.595 -135.848,-14.822L-135.846,-14.821L0,-94.096Z" style="fill:white;fill-rule:nonzero;"/>
        </g>
        <g transform="matrix(0.867292,-0.497799,-0.497799,-0.867292,115.765,218.91)">
            <path d="M-10.593,39.737L149.055,39.737" style="fill:none;fill-rule:nonzero;stroke:rgb(22,33,45);stroke-width:0.5px;"/>
        </g>
        <g transform="matrix(-0.049388,-0.99878,-0.99878,0.049388,52.6141,196.165)">
            <path d="M-2.571,2.447L2.329,2.447" style="fill:none;fill-rule:nonzero;stroke:rgb(22,33,45);stroke-width:0.5px;"/>
        </g>
        <g transform="matrix(-0.0493198,-0.998783,-0.998783,0.0493198,56.3089,195.216)">
            <path d="M-2.33,2.218L2.111,2.218" style="fill:none;fill-rule:nonzero;stroke:rgb(22,33,45);stroke-width:0.5px;"/>
        </g>
        <g transform="matrix(1,0,0,1,78.4031,215.671)">
            <path d="M0,-31.634C11.944,-26.456 12.135,-18.361 12.135,-18.361L12.135,-11.819C12.135,-8.691 8.722,-6.605 7.395,-5.467C6.068,-4.33 -4.456,2.876 -19.435,3.919L-19.743,-1.178C-19.768,-1.59 -19.597,-1.99 -19.281,-2.255L-5.796,-13.589C-5.363,-13.952 -5.343,-14.616 -5.762,-14.995C-6.98,-16.095 -9.757,-18.231 -14.663,-20.162C-21.648,-22.912 -25.124,-22.438 -25.914,-22.406C-26.704,-22.375 -28.126,-22.027 -29.106,-21.205C-29.898,-20.541 -38.682,-13.496 -42.019,-10.82C-42.615,-10.342 -43.504,-10.694 -43.606,-11.451C-43.901,-13.645 -44.05,-17.695 -42.094,-21.584C-39.218,-27.305 -33.056,-31.602 -26.483,-33.562C-19.909,-35.521 -9.038,-35.553 0,-31.634Z" style="fill:none;fill-rule:nonzero;stroke:rgb(22,33,45);stroke-width:1px;"/>
        </g>
        <g transform="matrix(1,0,0,1,34.7489,203.996)">
            <path d="M0,-0.169C0,-0.169 0.351,4.454 0.351,5.094C0.351,5.734 1.394,6.09 2.342,5.521C3.29,4.952 14.312,-4.149 15.426,-5.05C16.54,-5.951 18.222,-6.259 19.621,-6.188C21.019,-6.116 29.167,-4.138 35.173,0.344" style="fill:none;fill-rule:nonzero;stroke:rgb(22,33,45);stroke-width:1px;"/>
        </g>
        <g transform="matrix(0.866933,-0.498425,-0.498425,-0.866933,96.6855,215.816)">
            <path d="M-6.241,43.183L151.373,43.183L164.083,27.437L162.106,23.999L4.823,22.982" style="fill:none;fill-rule:nonzero;stroke:rgb(22,33,45);stroke-width:1px;"/>
        </g>
        <g transform="matrix(1,0,0,1,58.6597,195.844)">
            <path d="M0,18.649C0.877,19.029 15.509,18.373 27.834,8.703C33.269,4.279 31.526,-0.38 31.526,-0.38" style="fill:none;fill-rule:nonzero;stroke:rgb(22,33,45);stroke-width:1px;"/>
        </g>
    </g>
</svg>
