<?xml version="1.0" encoding="UTF-8" standalone="no"?>
<!DOCTYPE svg PUBLIC "-//W3C//DTD SVG 1.1//EN" "http://www.w3.org/Graphics/SVG/1.1/DTD/svg11.dtd">
<svg width="100%" height="100%" viewBox="0 0 284 284" version="1.1" xmlns="http://www.w3.org/2000/svg" xmlns:xlink="http://www.w3.org/1999/xlink" xml:space="preserve" xmlns:serif="http://www.serif.com/" style="fill-rule:evenodd;clip-rule:evenodd;stroke-linecap:round;stroke-linejoin:round;stroke-miterlimit:10;">
    <g id="L-Keys">
        <g transform="matrix(1,0,0,1,173.42,171.049)">
            <path d="M0,-110.889L0,6.043C0,6.043 -0.074,6.722 0.556,6.722L0.556,7.87C0.556,8.185 1.037,8.407 1.593,8.259C2.148,8.111 3.167,8.111 3.889,8.574C4.611,9.037 5.222,8.37 5.222,8.37C5.222,8.37 5.537,7.333 7.315,7.241L7.315,-110.019C7.315,-117.259 1.019,-119.926 -3.667,-117.278C-3.667,-117.278 -34.574,-99.445 -35.074,-99.148C-35.574,-98.852 -35.259,-98.148 -35.074,-97.963C-34.889,-97.778 -34.798,-96.852 -35.343,-96.556C-35.889,-96.259 -35.407,-95.315 -34.759,-95.389C-34.111,-95.463 -33.333,-94.259 -33.444,-93.537C-33.556,-92.815 -32.167,-92.759 -31.87,-93.352C-31.574,-93.945 -31.241,-93.222 -30.889,-93.241C-30.537,-93.259 0,-110.889 0,-110.889Z" style="fill:white;fill-rule:nonzero;stroke:rgb(22,33,45);stroke-width:1px;"/>
        </g>
        <g transform="matrix(1,0,0,1,178.68,168.841)">
            <path d="M0,10.491L0,0.902C0,0.902 1.286,0.611 2.055,0" style="fill:none;fill-rule:nonzero;stroke:rgb(22,33,45);stroke-width:0.5px;"/>
        </g>
        <g transform="matrix(1,0,0,1,177.365,169.688)">
            <path d="M0,9.644L0,0.222C0,0.222 -1.583,0.264 -2.389,0L-2.389,9.583" style="fill:none;fill-rule:nonzero;stroke:rgb(22,33,45);stroke-width:0.5px;"/>
        </g>
        <g transform="matrix(1,0,0,1,142.49,71.3943)">
            <path d="M0,6.335C0.319,6.099 0.389,5.682 -0.097,5.349C-0.583,5.016 -0.458,4.279 -0.097,4.141C0.264,4.002 0.486,3.182 -0.167,2.863C-0.819,2.543 -1.653,1.571 -1.75,0.863C-1.847,0.154 -2.861,0 -3.167,0.208" style="fill:none;fill-rule:nonzero;stroke:rgb(22,33,45);stroke-width:0.5px;"/>
        </g>
        <g transform="matrix(1,0,0,1,142.42,67.2714)">
            <path d="M0,6.944L8.514,1.847C8.514,1.847 7.722,0.263 6.708,0C6.028,0.361 -1.597,4.847 -1.597,4.847" style="fill:none;fill-rule:nonzero;stroke:rgb(22,33,45);stroke-width:0.5px;"/>
        </g>
        <g transform="matrix(1,0,0,1,142.631,70.2294)">
            <path d="M0,5.083L8.762,0C8.762,0 9.47,0.722 9.206,2.43" style="fill:none;fill-rule:nonzero;stroke:rgb(22,33,45);stroke-width:0.5px;"/>
        </g>
        <g transform="matrix(1,0,0,1,127.624,229.586)">
            <path d="M0,-96.432L-23.444,-83.367L-24.895,-81.367L-23.637,-78.045L-21.073,-76.61L2.128,-89.353L2.128,0.757L4.499,2.257L8.03,1.725L9.022,-0.065L9.022,-90.321C9.022,-95.013 4.289,-98.689 0,-96.432" style="fill:white;fill-rule:nonzero;"/>
        </g>
        <g transform="matrix(0.600172,0,0,0.600172,108.944,223.133)">
            <path d="M0,-96.432L-23.444,-83.367L-24.895,-81.367L-23.637,-78.045L-21.073,-76.61L2.128,-89.353L2.128,51.239L4.499,52.739L8.03,52.207L9.022,50.417L9.022,-90.321C9.022,-95.013 4.289,-98.689 0,-96.432" style="fill:white;fill-rule:nonzero;"/>
        </g>
        <g transform="matrix(1,0,0,1,107.76,217.374)">
            <path d="M0,-66.35L23.798,-79.351C25.636,-80.286 27.829,-79.835 27.829,-76.803L27.829,13.936" style="fill:none;fill-rule:nonzero;stroke:rgb(22,33,45);stroke-width:0.5px;"/>
        </g>
        <g transform="matrix(0.600172,0,0,0.600172,97.0221,215.804)">
            <path d="M0,-66.35L23.798,-79.351C25.636,-80.286 27.829,-79.835 27.829,-76.803L27.829,64.418" style="fill:none;fill-rule:nonzero;stroke:rgb(22,33,45);stroke-width:0.83px;"/>
        </g>
        <g transform="matrix(1,0,0,1,106.696,133.287)">
            <path d="M0,14.673L23.288,1.804C24.604,1.092 27.16,0 28.688,1.981" style="fill:none;fill-rule:nonzero;stroke:rgb(22,33,45);stroke-width:0.5px;"/>
        </g>
        <g transform="matrix(0.600172,0,0,0.600172,96.3833,165.338)">
            <path d="M0,14.673L23.288,1.804C24.604,1.092 27.16,0 28.688,1.981" style="fill:none;fill-rule:nonzero;stroke:rgb(22,33,45);stroke-width:0.83px;"/>
        </g>
        <g transform="matrix(1,0,0,1,132.123,138.332)">
            <path d="M0,93.511L0,2.884C0,1.594 -1.109,0 -3.484,1.346" style="fill:none;fill-rule:nonzero;stroke:rgb(22,33,45);stroke-width:0.5px;"/>
        </g>
        <g transform="matrix(0.600172,0,0,0.600172,111.644,168.365)">
            <path d="M0,143.993L0,2.884C0,1.594 -1.109,0 -3.484,1.346" style="fill:none;fill-rule:nonzero;stroke:rgb(22,33,45);stroke-width:0.83px;"/>
        </g>
        <g transform="matrix(1,0,0,1,127.624,229.586)">
            <path d="M0,-96.432L-23.444,-83.367L-24.895,-81.367L-23.637,-78.045L-21.073,-76.61L2.128,-89.353L2.128,0.757L4.499,2.257L8.03,1.725L9.022,-0.065L9.022,-90.321C9.022,-95.013 4.289,-98.689 0,-96.432Z" style="fill:none;fill-rule:nonzero;stroke:rgb(22,33,45);stroke-width:1px;"/>
        </g>
        <g transform="matrix(0.600172,0,0,0.600172,108.944,223.133)">
            <path d="M0,-96.432L-23.444,-83.367L-24.895,-81.367L-23.637,-78.045L-21.073,-76.61L2.128,-89.353L2.128,51.239L4.499,52.739L8.03,52.207L9.022,50.417L9.022,-90.321C9.022,-95.013 4.289,-98.689 0,-96.432Z" style="fill:none;fill-rule:nonzero;stroke:rgb(22,33,45);stroke-width:1.67px;"/>
        </g>
        <g transform="matrix(1,0,0,1,104.18,152.975)">
            <path d="M0,-6.756L2.515,-5.015L3.58,-1.951L2.37,0" style="fill:none;fill-rule:nonzero;stroke:rgb(22,33,45);stroke-width:1px;"/>
        </g>
        <g transform="matrix(0.600172,0,0,0.600172,94.8736,177.154)">
            <path d="M0,-6.756L2.515,-5.015L3.58,-1.951L2.37,0" style="fill:none;fill-rule:nonzero;stroke:rgb(22,33,45);stroke-width:1.67px;"/>
        </g>
        <g transform="matrix(1,0,0,1,148.927,194.598)">
            <path d="M0,-100.148L-25.222,-85.555L-26.889,-83.259L-25.444,-79.444L-22.5,-77.796L2.444,-92.018L2.444,0.871L5.167,2.593L9.222,1.982L10.361,-0.074L10.361,-93.129C10.361,-98.518 4.926,-102.741 0,-100.148" style="fill:white;fill-rule:nonzero;"/>
        </g>
        <g transform="matrix(1,0,0,1,127.816,180.987)">
            <path d="M0,-66.426L25.63,-80.945C27.741,-82.019 30.259,-81.5 30.259,-78.019L30.259,15.593" style="fill:none;fill-rule:nonzero;stroke:rgb(22,33,45);stroke-width:0.5px;"/>
        </g>
        <g transform="matrix(1,0,0,1,126.594,94.6037)">
            <path d="M0,16.439L25.044,2.072C26.556,1.254 29.49,0 31.245,2.275" style="fill:none;fill-rule:nonzero;stroke:rgb(22,33,45);stroke-width:0.5px;"/>
        </g>
        <g transform="matrix(1,0,0,1,154.094,100.397)">
            <path d="M0,96.794L0,3.313C0,1.831 -1.274,0 -4.001,1.545" style="fill:none;fill-rule:nonzero;stroke:rgb(22,33,45);stroke-width:0.5px;"/>
        </g>
        <g transform="matrix(1,0,0,1,148.927,194.598)">
            <path d="M0,-100.148L-25.222,-85.555L-26.889,-83.259L-25.444,-79.444L-22.5,-77.796L2.444,-92.018L2.444,0.871L5.167,2.593L9.222,1.982L10.361,-0.074L10.361,-93.129C10.361,-98.518 4.926,-102.741 0,-100.148Z" style="fill:none;fill-rule:nonzero;stroke:rgb(22,33,45);stroke-width:1px;"/>
        </g>
        <g transform="matrix(1,0,0,1,123.705,116.802)">
            <path d="M0,-7.759L2.889,-5.759L4.111,-2.24L2.722,0" style="fill:none;fill-rule:nonzero;stroke:rgb(22,33,45);stroke-width:1px;"/>
        </g>
    </g>
    <g id="_12-mm-L-Key" serif:id="12 mm L-Key" transform="matrix(0.589996,0,0,0.589996,102.352,-18.8068)">
        <g transform="matrix(1,0,0,1,153.649,223.913)">
            <path d="M0,-164.861L-45.061,-138.704L-49.131,-133.097L-45.604,-123.782L-38.414,-119.758L5.969,-145.011L5.969,2.125L12.615,6.33L22.518,4.838L25.298,-0.181L25.298,-147.724C25.298,-160.882 12.027,-171.191 0,-164.861" style="fill:white;fill-rule:nonzero;"/>
        </g>
        <g transform="matrix(1,0,0,1,118.626,200.152)">
            <path d="M0,-101.468L46.056,-127.445C51.211,-130.067 57.36,-128.801 57.36,-120.3L57.36,28.599" style="fill:none;fill-rule:nonzero;stroke:rgb(22,33,45);stroke-width:0.85px;"/>
        </g>
        <g transform="matrix(1,0,0,1,115.641,59.4269)">
            <path d="M0,30.666L44.626,5.059C48.317,3.062 55.481,0 59.767,5.555" style="fill:none;fill-rule:nonzero;stroke:rgb(22,33,45);stroke-width:0.85px;"/>
        </g>
        <g transform="matrix(1,0,0,1,166.264,73.5736)">
            <path d="M0,156.67L0,8.087C0,4.469 -3.111,0 -9.77,3.772" style="fill:none;fill-rule:nonzero;stroke:rgb(22,33,45);stroke-width:0.85px;"/>
        </g>
        <g transform="matrix(1,0,0,1,153.649,223.913)">
            <path d="M0,-164.861L-45.061,-138.704L-49.131,-133.097L-45.604,-123.782L-38.414,-119.758L5.969,-145.011L5.969,2.125L12.615,6.33L22.518,4.838L25.298,-0.181L25.298,-147.724C25.298,-160.882 12.027,-171.191 0,-164.861Z" style="fill:none;fill-rule:nonzero;stroke:rgb(22,33,45);stroke-width:1.69px;"/>
        </g>
        <g transform="matrix(1,0,0,1,108.588,104.156)">
            <path d="M0,-18.946L7.054,-14.063L10.038,-5.472L6.647,0" style="fill:none;fill-rule:nonzero;stroke:rgb(22,33,45);stroke-width:1.69px;"/>
        </g>
    </g>
</svg>
