<?xml version="1.0" encoding="UTF-8" standalone="no"?>
<!DOCTYPE svg PUBLIC "-//W3C//DTD SVG 1.1//EN" "http://www.w3.org/Graphics/SVG/1.1/DTD/svg11.dtd">
<svg width="100%" height="100%" viewBox="0 0 426 200" version="1.1" xmlns="http://www.w3.org/2000/svg" xmlns:xlink="http://www.w3.org/1999/xlink" xml:space="preserve" xmlns:serif="http://www.serif.com/" style="fill-rule:evenodd;clip-rule:evenodd;stroke-miterlimit:10;">
    <g id="Layer-1" serif:id="Layer 1" transform="matrix(1,0,0,1,0,-113)">
        <g>
            <g>
                <g>
                    <g>
                        <g transform="matrix(1,0,0,1,176.624,269.296)">
                            <path d="M0,-113.917L-34.059,-122.778L0,-131.639L0,-113.917ZM-0.272,-33.743C-0.272,-33.743 -0.25,-32.522 -1.46,-32.207C-2.67,-31.892 -61.698,-16.536 -61.698,-16.536L-61.698,-60.273L-0.272,-76.656L-0.272,-33.743ZM-61.698,-109.475L-17.857,-98.092L-61.698,-86.709L-61.698,-109.475ZM115.801,-122.615L10.978,-149.834C10.291,-150.013 9.571,-150.013 8.884,-149.834L-68.693,-129.69C-71.635,-128.926 -73.425,-125.122 -73.425,-122.376C-73.424,-119.697 -73.424,1.034 -73.425,4.085C-73.425,6.614 -72.001,9.706 -69.302,10.398C-67.548,10.848 27.74,35.606 28.723,35.861C29.628,36.096 29.993,36.047 30.489,35.921C31.791,35.589 112.446,14.639 113.99,14.238C115.535,13.837 116.719,11.92 116.719,9.543L116.719,-121.427C116.719,-121.986 116.342,-122.474 115.801,-122.615" style="fill:rgb(87,87,92);fill-rule:nonzero;"/>
                        </g>
                        <g transform="matrix(1,0,0,1,258.502,256.095)">
                            <path d="M0,7.767C0.176,7.721 0.176,7.471 0,7.425L-80.103,-13.273C-80.511,-13.378 -80.939,-13.378 -81.346,-13.273L-132.521,-0.001C-132.697,0.045 -132.697,0.295 -132.521,0.341L-52.564,21.039C-52.157,21.145 -51.729,21.145 -51.321,21.039L0,7.767Z" style="fill:rgb(220,220,220);fill-rule:nonzero;"/>
                        </g>
                        <g transform="matrix(1,0,0,1,188.262,210.107)">
                            <path d="M0,-46.812L-73.485,-27.312L-74.406,-25.233L-77.458,-24.475L-77.458,0L-1.013,-20.286C-0.416,-20.444 0,-20.985 0,-21.603L0,-46.812Z" style="fill:rgb(220,220,220);fill-rule:nonzero;"/>
                        </g>
                        <g transform="matrix(1,0,0,1,114.925,192.64)">
                            <path d="M0,60.12L60.238,44.449C60.938,44.267 61.426,43.635 61.426,42.913L61.426,0" style="fill:none;fill-rule:nonzero;stroke:rgb(22,33,45);stroke-width:0.5px;"/>
                        </g>
                        <g transform="matrix(1,0,0,1,202.742,236.62)">
                            <path d="M0,5.134L-8.433,2.944L-15.95,2.937L-26.805,0" style="fill:none;fill-rule:nonzero;stroke:rgb(22,33,45);stroke-width:0.5px;"/>
                        </g>
                        <g transform="matrix(1,0,0,1,194.322,211.963)">
                            <path d="M0,27.848L0,0L-7.396,0" style="fill:none;fill-rule:nonzero;stroke:rgb(22,33,45);stroke-width:0.5px;"/>
                        </g>
                        <g transform="matrix(1,0,0,1,176.351,239.405)">
                            <path d="M0,-30.231L10.574,-27.485L10.574,0" style="fill:none;fill-rule:nonzero;stroke:rgb(22,33,45);stroke-width:0.5px;"/>
                        </g>
                        <g transform="matrix(-0.967499,-0.252876,-0.252876,0.967499,194.736,210.935)">
                            <path d="M-8.562,1.101L0.141,1.101" style="fill:none;fill-rule:nonzero;stroke:rgb(22,33,45);stroke-width:0.5px;"/>
                        </g>
                        <g transform="matrix(1,0,0,1,202.742,190.815)">
                            <path d="M0,21.124L-11.894,18.035L-19.548,20.077L-19.548,0" style="fill:none;fill-rule:nonzero;stroke:rgb(22,33,45);stroke-width:0.5px;"/>
                        </g>
                        <g transform="matrix(0,-1,-1,0,205.542,194.156)">
                            <path d="M-14.694,14.694L14.694,14.694" style="fill:none;fill-rule:nonzero;stroke:rgb(22,33,45);stroke-width:0.5px;"/>
                        </g>
                        <g transform="matrix(1,0,0,1,110.804,178.676)">
                            <path d="M0,78.378L3.052,77.664L4.122,75.483L4.122,30.347L76.796,10.964C77.187,10.86 77.458,10.506 77.458,10.102L77.458,0" style="fill:none;fill-rule:nonzero;stroke:rgb(22,33,45);stroke-width:0.5px;"/>
                        </g>
                        <g transform="matrix(1,0,0,1,114.867,182.602)">
                            <path d="M0,-22.796L0,0L44.286,-11.41" style="fill:none;fill-rule:nonzero;stroke:rgb(22,33,45);stroke-width:0.5px;"/>
                        </g>
                        <g transform="matrix(1,0,0,1,110.737,182.602)">
                            <path d="M0,3.03L3.074,2.273L4.129,0" style="fill:none;fill-rule:nonzero;stroke:rgb(22,33,45);stroke-width:0.5px;"/>
                        </g>
                        <g transform="matrix(1,0,0,1,142.213,123.168)">
                            <path d="M0,23.442L36.283,14.002C36.758,13.879 37.172,13.587 37.45,13.182L40.852,8.212C41.084,7.873 41.208,7.472 41.208,7.062L41.208,0" style="fill:none;fill-rule:nonzero;stroke:rgb(22,33,45);stroke-width:0.5px;"/>
                        </g>
                        <g transform="matrix(0,-1,-1,0,196.942,143.751)">
                            <path d="M-13.522,13.522L13.522,13.522" style="fill:none;fill-rule:nonzero;stroke:rgb(22,33,45);stroke-width:0.5px;"/>
                        </g>
                        <g transform="matrix(0.967862,0.251483,0.251483,-0.967862,187.666,116.826)">
                            <path d="M-1.446,-11.316L88.544,-11.316" style="fill:none;fill-rule:nonzero;stroke:rgb(22,33,45);stroke-width:0.5px;"/>
                        </g>
                        <g transform="matrix(1,0,0,1,257.029,128.037)">
                            <path d="M0,25.502L-70.546,7.172C-70.936,7.07 -71.209,6.718 -71.209,6.315L-71.209,0" style="fill:none;fill-rule:nonzero;stroke:rgb(22,33,45);stroke-width:0.5px;"/>
                        </g>
                        <g transform="matrix(0,1,1,0,185.485,146.518)">
                            <path d="M-8.861,-8.861L8.861,-8.861" style="fill:none;fill-rule:nonzero;stroke:rgb(22,33,45);stroke-width:0.5px;"/>
                        </g>
                        <g transform="matrix(0,-1,-1,0,202.279,147.765)">
                            <path d="M-11.431,11.431L11.431,11.431" style="fill:none;fill-rule:nonzero;stroke:rgb(22,33,45);stroke-width:0.5px;"/>
                        </g>
                        <g transform="matrix(-0.968708,0.248204,0.248204,0.968708,133.399,149.991)">
                            <path d="M-53.361,-6.728L0.848,-6.728" style="fill:none;fill-rule:nonzero;stroke:rgb(22,33,45);stroke-width:0.5px;"/>
                        </g>
                        <g transform="matrix(0,1,1,0,284.411,227.495)">
                            <path d="M-7.562,-7.562L7.562,-7.562" style="fill:none;fill-rule:nonzero;stroke:rgb(22,33,45);stroke-width:0.5px;"/>
                        </g>
                        <g transform="matrix(0.967905,0.251317,0.251317,-0.967905,255.935,223.353)">
                            <path d="M-4.185,-4.558L16.638,-4.558C17.163,-4.558 17.623,-4.914 17.755,-5.423L24.855,-32.767L35.692,-32.768" style="fill:none;fill-rule:nonzero;stroke:rgb(22,33,45);stroke-width:0.5px;"/>
                        </g>
                        <g transform="matrix(0.9679,0.251336,0.251336,-0.9679,221.149,239.398)">
                            <path d="M-0.882,-6.907L54.08,-6.907" style="fill:none;fill-rule:nonzero;stroke:rgb(22,33,45);stroke-width:0.5px;"/>
                        </g>
                        <g transform="matrix(0.967905,0.251316,0.251316,-0.967905,256.243,222.926)">
                            <path d="M-0.359,-2.812L22.019,-2.812" style="fill:none;fill-rule:nonzero;stroke:rgb(22,33,45);stroke-width:0.5px;"/>
                        </g>
                        <g transform="matrix(0,1,1,0,289.649,179.236)">
                            <path d="M-12.801,-12.801L12.801,-12.801" style="fill:none;fill-rule:nonzero;stroke:rgb(22,33,45);stroke-width:0.5px;"/>
                        </g>
                        <g transform="matrix(0.967904,0.25132,0.25132,-0.967904,272.3,232.592)">
                            <path d="M-0.185,-1.449L11.346,-1.449" style="fill:none;fill-rule:nonzero;stroke:rgb(22,33,45);stroke-width:0.5px;"/>
                        </g>
                        <g transform="matrix(-0.967117,0.254332,0.254332,0.967117,111.009,210.613)">
                            <path d="M-4.192,-0.542L0.07,-0.542" style="fill:none;fill-rule:nonzero;stroke:rgb(22,33,45);stroke-width:0.5px;"/>
                        </g>
                        <g transform="matrix(0.967694,-0.252127,-0.252127,-0.967694,114.49,194.964)">
                            <path d="M-1.278,9.976L77.86,9.977" style="fill:none;fill-rule:nonzero;stroke:rgb(22,33,45);stroke-width:0.5px;"/>
                        </g>
                        <g transform="matrix(0.967694,-0.252127,-0.252127,-0.967694,114.49,196.185)">
                            <path d="M-1.278,9.976L77.86,9.977" style="fill:none;fill-rule:nonzero;stroke:rgb(22,33,45);stroke-width:0.5px;"/>
                        </g>
                        <g transform="matrix(0.966102,-0.258159,-0.258159,-0.966102,114.725,218.83)">
                            <path d="M-1.36,10.358L78.885,10.358" style="fill:none;fill-rule:nonzero;stroke:rgb(22,33,45);stroke-width:0.5px;"/>
                        </g>
                        <g transform="matrix(0.966217,-0.257729,-0.257729,-0.966217,114.712,217.555)">
                            <path d="M-1.355,10.34L78.88,10.339" style="fill:none;fill-rule:nonzero;stroke:rgb(22,33,45);stroke-width:0.5px;"/>
                        </g>
                        <g transform="matrix(0.967694,-0.252127,-0.252127,-0.967694,114.49,207.767)">
                            <path d="M-1.278,9.976L77.86,9.977" style="fill:none;fill-rule:nonzero;stroke:rgb(22,33,45);stroke-width:0.5px;"/>
                        </g>
                        <g transform="matrix(0.967694,-0.252127,-0.252127,-0.967694,114.49,206.161)">
                            <path d="M-1.278,9.976L77.86,9.977" style="fill:none;fill-rule:nonzero;stroke:rgb(22,33,45);stroke-width:0.5px;"/>
                        </g>
                        <g transform="matrix(0.967693,-0.252131,-0.252131,-0.967693,114.536,209.774)">
                            <path d="M-1.294,10.1L78.819,10.1" style="fill:none;fill-rule:nonzero;stroke:rgb(22,33,45);stroke-width:0.5px;"/>
                        </g>
                        <g transform="matrix(0,-1,-1,0,207.473,301.813)">
                            <ellipse cx="-3.126" cy="0" rx="0.93" ry="3.126" style="fill:none;stroke:rgb(22,33,45);stroke-width:1px;"/>
                        </g>
                        <g transform="matrix(0,-1,-1,0,113.93,277.606)">
                            <ellipse cx="-3.126" cy="0" rx="0.93" ry="3.126" style="fill:none;stroke:rgb(22,33,45);stroke-width:1px;"/>
                        </g>
                        <g transform="matrix(0,-1,-1,0,277.749,283.464)">
                            <ellipse cx="-3.126" cy="0" rx="0.93" ry="3.126" style="fill:none;stroke:rgb(22,33,45);stroke-width:1px;"/>
                        </g>
                        <g transform="matrix(1,0,0,1,258.502,256.095)">
                            <path d="M0,7.767C0.176,7.721 0.176,7.471 0,7.425L-80.103,-13.273C-80.511,-13.378 -80.939,-13.378 -81.346,-13.273L-132.521,-0.001C-132.697,0.045 -132.697,0.295 -132.521,0.341L-52.564,21.039C-52.157,21.145 -51.729,21.145 -51.321,21.039L0,7.767Z" style="fill:none;fill-rule:nonzero;stroke:rgb(22,33,45);stroke-width:0.5px;"/>
                        </g>
                        <g transform="matrix(0.967978,-0.251036,-0.251036,-0.967978,158.158,270.475)">
                            <path d="M-0.868,6.805L53.351,6.806" style="fill:none;fill-rule:nonzero;stroke:rgb(22,33,45);stroke-width:0.5px;"/>
                        </g>
                        <g transform="matrix(0.967977,-0.251038,-0.251038,-0.967977,178.79,275.819)">
                            <path d="M-0.868,6.808L53.37,6.808" style="fill:none;fill-rule:nonzero;stroke:rgb(22,33,45);stroke-width:0.5px;"/>
                        </g>
                        <g transform="matrix(-0.967979,-0.251032,-0.251032,0.967979,168.653,236.194)">
                            <path d="M-82.562,10.532L1.343,10.532" style="fill:none;fill-rule:nonzero;stroke:rgb(22,33,45);stroke-width:0.5px;"/>
                        </g>
                        <g transform="matrix(-0.967976,-0.251042,-0.251042,0.967976,155.374,239.639)">
                            <path d="M-82.543,10.53L1.343,10.53" style="fill:none;fill-rule:nonzero;stroke:rgb(22,33,45);stroke-width:0.5px;"/>
                        </g>
                        <g transform="matrix(-0.967976,-0.251041,-0.251041,0.967976,142.248,243.045)">
                            <path d="M-82.524,10.527L1.343,10.527" style="fill:none;fill-rule:nonzero;stroke:rgb(22,33,45);stroke-width:0.5px;"/>
                        </g>
                        <g transform="matrix(1,0,0,1,257.82,252.125)">
                            <path d="M0,11.913L-0.199,5.458C-0.208,5.142 -0.426,4.87 -0.732,4.79L-29.055,-2.556C-29.485,-2.667 -29.936,-2.667 -30.365,-2.555L-39.397,-0.204C-39.713,-0.121 -39.94,0.156 -39.958,0.482L-40.293,6.533C-40.306,6.773 -40.149,6.989 -39.917,7.051L-11.097,14.485C-10.743,14.579 -10.371,14.58 -10.017,14.489L0,11.913Z" style="fill:rgb(87,87,92);fill-rule:nonzero;stroke:rgb(22,33,45);stroke-width:0.5px;"/>
                        </g>
                        <g transform="matrix(1,0,0,1,256.74,252.305)">
                            <path d="M0,4.521L-9.469,7.001C-9.919,7.119 -10.391,7.12 -10.842,7.004L-37.538,0.129L-27.452,-2.599L-27.457,2.725" style="fill:none;fill-rule:nonzero;stroke:rgb(22,33,45);stroke-width:0.5px;stroke-linecap:round;stroke-linejoin:round;"/>
                        </g>
                        <g transform="matrix(0.0440884,-0.999028,-0.999028,-0.0440884,249.126,263.298)">
                            <path d="M-2.58,2.697L2.818,2.697" style="fill:none;fill-rule:nonzero;stroke:rgb(22,33,45);stroke-width:0.5px;stroke-linecap:round;stroke-linejoin:round;"/>
                        </g>
                        <g transform="matrix(1,0,0,1,229.785,251.981)">
                            <path d="M0,10.083L0.35,3.151L9.883,0" style="fill:none;fill-rule:nonzero;stroke:rgb(220,220,220);stroke-width:0.5px;stroke-linecap:round;stroke-linejoin:round;"/>
                        </g>
                        <g transform="matrix(1,0,0,1,154.11,259.748)">
                            <path d="M0,3.977L-3.486,3.057C-3.627,3.02 -3.725,2.893 -3.725,2.747L-3.725,0.483C-3.725,0.209 -3.465,0.009 -3.2,0.079L-0.249,0.86C0.013,0.929 0.288,0.935 0.553,0.878L3.973,0.016C4.109,-0.019 4.239,-0.047 4.239,0.305C4.239,0.576 4.249,2.017 4.254,2.666C4.255,2.854 4.126,3.015 3.943,3.058L0.516,3.984C0.346,4.024 0.169,4.022 0,3.977Z" style="fill:rgb(220,220,220);fill-rule:nonzero;stroke:rgb(22,33,45);stroke-width:0.5px;stroke-linejoin:round;"/>
                        </g>
                        <g transform="matrix(0,-1,-1,0,155.692,262.197)">
                            <path d="M-1.432,1.432L1.432,1.432" style="fill:none;fill-rule:nonzero;stroke:rgb(22,33,45);stroke-width:0.5px;"/>
                        </g>
                        <g transform="matrix(1,0,0,1,149.595,253.865)">
                            <path d="M0,-0.409L5.459,-1.714L5.459,1.127L4.779,1.305" style="fill:rgb(220,220,220);fill-rule:nonzero;stroke:rgb(22,33,45);stroke-width:0.5px;stroke-linejoin:round;"/>
                        </g>
                        <g transform="matrix(1,0,0,1,154.375,255.787)">
                            <path d="M0,-1.105L0,1.25L-3.548,0.352C-3.798,0.288 -4.059,0.288 -4.309,0.349L-8.721,1.399L-8.721,-0.954C-8.721,-1.212 -8.545,-1.437 -8.295,-1.499L-4.321,-2.44C-4.063,-2.504 -3.794,-2.503 -3.536,-2.439L-0.438,-1.666C-0.181,-1.602 0,-1.37 0,-1.105Z" style="fill:rgb(220,220,220);fill-rule:nonzero;stroke:rgb(22,33,45);stroke-width:0.5px;stroke-linejoin:round;"/>
                        </g>
                        <g transform="matrix(1,0,0,1,163.006,250.513)">
                            <path d="M0,-0.409L5.459,-1.714L5.459,1.127L4.779,1.305" style="fill:rgb(220,220,220);fill-rule:nonzero;stroke:rgb(22,33,45);stroke-width:0.5px;stroke-linejoin:round;"/>
                        </g>
                        <g transform="matrix(1,0,0,1,167.786,252.435)">
                            <path d="M0,-1.105L0,1.25L-3.548,0.352C-3.798,0.288 -4.059,0.288 -4.309,0.349L-8.721,1.399L-8.721,-0.954C-8.721,-1.212 -8.545,-1.437 -8.295,-1.499L-4.321,-2.44C-4.063,-2.504 -3.794,-2.503 -3.536,-2.439L-0.438,-1.666C-0.181,-1.602 0,-1.37 0,-1.105Z" style="fill:rgb(220,220,220);fill-rule:nonzero;stroke:rgb(22,33,45);stroke-width:0.5px;stroke-linejoin:round;"/>
                        </g>
                        <g transform="matrix(1,0,0,1,175.92,247.055)">
                            <path d="M0,-0.409L5.459,-1.714L5.459,1.127L4.779,1.305" style="fill:rgb(220,220,220);fill-rule:nonzero;stroke:rgb(22,33,45);stroke-width:0.5px;stroke-linejoin:round;"/>
                        </g>
                        <g transform="matrix(1,0,0,1,180.699,248.977)">
                            <path d="M0,-1.105L0,1.25L-3.548,0.352C-3.798,0.288 -4.059,0.288 -4.309,0.349L-8.721,1.399L-8.721,-0.954C-8.721,-1.212 -8.545,-1.437 -8.295,-1.499L-4.321,-2.44C-4.063,-2.504 -3.794,-2.503 -3.536,-2.439L-0.438,-1.666C-0.181,-1.602 0,-1.37 0,-1.105Z" style="fill:rgb(220,220,220);fill-rule:nonzero;stroke:rgb(22,33,45);stroke-width:0.5px;stroke-linejoin:round;"/>
                        </g>
                        <g transform="matrix(1,0,0,1,192.954,246.059)">
                            <path d="M0,-1.105L0,1.25L-3.548,0.352C-3.798,0.288 -4.059,0.288 -4.309,0.349L-7.769,1.399L-7.769,-1.134C-7.769,-1.392 -7.593,-1.617 -7.342,-1.679L-4.321,-2.44C-4.063,-2.504 -3.794,-2.503 -3.536,-2.439L-0.438,-1.666C-0.181,-1.602 0,-1.37 0,-1.105Z" style="fill:rgb(220,220,220);fill-rule:nonzero;stroke:rgb(22,33,45);stroke-width:0.5px;stroke-linejoin:round;"/>
                        </g>
                        <g transform="matrix(-0.96893,-0.247336,-0.247336,0.96893,202.284,250.138)">
                            <path d="M-3.684,-3.546L0.578,-3.546L-0.706,1.484L-4.446,-0.559L-3.684,-3.546Z" style="fill:white;fill-rule:nonzero;stroke:rgb(22,33,45);stroke-width:0.5px;stroke-linejoin:round;"/>
                        </g>
                        <g transform="matrix(-0.972171,0.234272,0.234272,0.972171,202.775,249.079)">
                            <path d="M-4.188,-0.497L0.059,-0.498" style="fill:none;fill-rule:nonzero;stroke:rgb(22,33,45);stroke-width:0.5px;stroke-linejoin:round;"/>
                        </g>
                        <g transform="matrix(1,0,0,1,212.435,250.782)">
                            <path d="M0,-0.967L0,1.388L-3.548,0.49C-3.798,0.426 -4.059,0.426 -4.309,0.487L-7.769,1.399L-7.769,-0.996C-7.769,-1.254 -7.593,-1.479 -7.342,-1.541L-4.321,-2.302C-4.063,-2.366 -3.794,-2.365 -3.536,-2.301L-0.438,-1.528C-0.181,-1.464 0,-1.232 0,-0.967Z" style="fill:white;fill-rule:nonzero;stroke:rgb(22,33,45);stroke-width:0.5px;stroke-linejoin:round;"/>
                        </g>
                        <g transform="matrix(0.96893,-0.247336,-0.247336,-0.96893,137.509,256.972)">
                            <path d="M0.445,0.463L4.707,0.463L3.423,-4.567L-0.317,-2.524L0.445,0.463Z" style="fill:rgb(220,220,220);fill-rule:nonzero;stroke:rgb(22,33,45);stroke-width:0.5px;stroke-linejoin:round;"/>
                        </g>
                        <g transform="matrix(0.972171,0.234272,0.234272,-0.972171,138.001,255.944)">
                            <path d="M-0.059,-0.498L4.188,-0.497" style="fill:none;fill-rule:nonzero;stroke:rgb(22,33,45);stroke-width:0.5px;stroke-linejoin:round;"/>
                        </g>
                        <g transform="matrix(1,0,0,1,167.425,258.121)">
                            <path d="M0,-0.356L-4.001,-1.366L-4.001,1.01" style="fill:rgb(220,220,220);fill-rule:nonzero;stroke:rgb(22,33,45);stroke-width:0.5px;stroke-linejoin:round;"/>
                        </g>
                        <g transform="matrix(-0.968966,0.247195,0.247195,0.968966,162.316,259.937)">
                            <path d="M-9.595,1.472L0.498,1.472L-0.185,-1.205L-10.278,-1.205L-9.595,1.472Z" style="fill:rgb(220,220,220);fill-rule:nonzero;stroke:rgb(22,33,45);stroke-width:0.5px;stroke-linejoin:round;"/>
                        </g>
                        <g transform="matrix(1,0,0,1,174.145,264.783)">
                            <path d="M0,3.977L-3.486,3.057C-3.627,3.02 -3.725,2.893 -3.725,2.747L-3.725,0.483C-3.725,0.209 -3.465,0.009 -3.2,0.079L-0.249,0.86C0.013,0.929 0.288,0.935 0.553,0.878L3.973,0.016C4.109,-0.019 4.239,-0.047 4.239,0.305C4.239,0.576 4.249,2.017 4.254,2.666C4.255,2.854 4.126,3.015 3.943,3.058L0.516,3.984C0.346,4.024 0.169,4.022 0,3.977Z" style="fill:rgb(220,220,220);fill-rule:nonzero;stroke:rgb(22,33,45);stroke-width:0.5px;stroke-linejoin:round;"/>
                        </g>
                        <g transform="matrix(0,-1,-1,0,175.727,267.232)">
                            <path d="M-1.432,1.432L1.432,1.432" style="fill:none;fill-rule:nonzero;stroke:rgb(22,33,45);stroke-width:0.5px;"/>
                        </g>
                        <g transform="matrix(1,0,0,1,169.63,258.9)">
                            <path d="M0,-0.409L5.459,-1.714L5.459,1.127L4.779,1.305" style="fill:rgb(220,220,220);fill-rule:nonzero;stroke:rgb(22,33,45);stroke-width:0.5px;stroke-linejoin:round;"/>
                        </g>
                        <g transform="matrix(1,0,0,1,174.409,260.823)">
                            <path d="M0,-1.105L0,1.25L-3.548,0.352C-3.798,0.288 -4.059,0.288 -4.309,0.349L-8.721,1.399L-8.721,-0.954C-8.721,-1.212 -8.545,-1.437 -8.295,-1.499L-4.321,-2.44C-4.063,-2.504 -3.794,-2.503 -3.536,-2.439L-0.438,-1.666C-0.181,-1.602 0,-1.37 0,-1.105Z" style="fill:rgb(220,220,220);fill-rule:nonzero;stroke:rgb(22,33,45);stroke-width:0.5px;stroke-linejoin:round;"/>
                        </g>
                        <g transform="matrix(1,0,0,1,180.632,254.757)">
                            <path d="M0,-0.356L-4.001,-1.366L-4.001,1.01" style="fill:rgb(220,220,220);fill-rule:nonzero;stroke:rgb(22,33,45);stroke-width:0.5px;stroke-linejoin:round;"/>
                        </g>
                        <g transform="matrix(-0.968966,0.247195,0.247195,0.968966,175.523,256.572)">
                            <path d="M-9.595,1.472L0.498,1.472L-0.185,-1.205L-10.278,-1.205L-9.595,1.472Z" style="fill:rgb(220,220,220);fill-rule:nonzero;stroke:rgb(22,33,45);stroke-width:0.5px;stroke-linejoin:round;"/>
                        </g>
                        <g transform="matrix(1,0,0,1,182.837,255.536)">
                            <path d="M0,-0.409L5.459,-1.714L5.459,1.127L4.779,1.305" style="fill:rgb(220,220,220);fill-rule:nonzero;stroke:rgb(22,33,45);stroke-width:0.5px;stroke-linejoin:round;"/>
                        </g>
                        <g transform="matrix(1,0,0,1,187.616,257.458)">
                            <path d="M0,-1.105L0,1.25L-3.548,0.352C-3.798,0.288 -4.059,0.288 -4.309,0.349L-8.721,1.399L-8.721,-0.954C-8.721,-1.212 -8.545,-1.437 -8.295,-1.499L-4.321,-2.44C-4.063,-2.504 -3.794,-2.503 -3.536,-2.439L-0.438,-1.666C-0.181,-1.602 0,-1.37 0,-1.105Z" style="fill:rgb(220,220,220);fill-rule:nonzero;stroke:rgb(22,33,45);stroke-width:0.5px;stroke-linejoin:round;"/>
                        </g>
                        <g transform="matrix(1,0,0,1,200.842,259.87)">
                            <path d="M0,-0.356L-4.001,-1.366L-4.001,1.01" style="fill:rgb(220,220,220);fill-rule:nonzero;stroke:rgb(22,33,45);stroke-width:0.5px;stroke-linejoin:round;"/>
                        </g>
                        <g transform="matrix(-0.968966,0.247195,0.247195,0.968966,195.733,261.685)">
                            <path d="M-9.595,1.472L0.498,1.472L-0.185,-1.205L-10.278,-1.205L-9.595,1.472Z" style="fill:rgb(220,220,220);fill-rule:nonzero;stroke:rgb(22,33,45);stroke-width:0.5px;stroke-linejoin:round;"/>
                        </g>
                        <g transform="matrix(1,0,0,1,203.046,260.648)">
                            <path d="M0,-0.409L5.459,-1.714L5.459,1.127L4.779,1.305" style="fill:rgb(220,220,220);fill-rule:nonzero;stroke:rgb(22,33,45);stroke-width:0.5px;stroke-linejoin:round;"/>
                        </g>
                        <g transform="matrix(1,0,0,1,207.826,262.571)">
                            <path d="M0,-1.105L0,1.25L-3.548,0.352C-3.798,0.288 -4.059,0.288 -4.309,0.349L-8.721,1.399L-8.721,-0.954C-8.721,-1.212 -8.545,-1.437 -8.295,-1.499L-4.321,-2.44C-4.063,-2.504 -3.794,-2.503 -3.536,-2.439L-0.438,-1.666C-0.181,-1.602 0,-1.37 0,-1.105Z" style="fill:rgb(220,220,220);fill-rule:nonzero;stroke:rgb(22,33,45);stroke-width:0.5px;stroke-linejoin:round;"/>
                        </g>
                        <g transform="matrix(1,0,0,1,193.821,251.311)">
                            <path d="M0,-0.356L-4.001,-1.366L-4.001,1.01" style="fill:rgb(220,220,220);fill-rule:nonzero;stroke:rgb(22,33,45);stroke-width:0.5px;stroke-linejoin:round;"/>
                        </g>
                        <g transform="matrix(-0.968966,0.247195,0.247195,0.968966,188.711,253.126)">
                            <path d="M-9.595,1.472L0.498,1.472L-0.185,-1.205L-10.278,-1.205L-9.595,1.472Z" style="fill:rgb(220,220,220);fill-rule:nonzero;stroke:rgb(22,33,45);stroke-width:0.5px;stroke-linejoin:round;"/>
                        </g>
                        <g transform="matrix(1,0,0,1,196.025,252.09)">
                            <path d="M0,-0.409L5.459,-1.714L5.459,1.127L4.779,1.305" style="fill:rgb(220,220,220);fill-rule:nonzero;stroke:rgb(22,33,45);stroke-width:0.5px;stroke-linejoin:round;"/>
                        </g>
                        <g transform="matrix(1,0,0,1,200.805,254.012)">
                            <path d="M0,-1.105L0,1.25L-3.548,0.352C-3.798,0.288 -4.059,0.288 -4.309,0.349L-8.721,1.399L-8.721,-0.954C-8.721,-1.212 -8.545,-1.437 -8.295,-1.499L-4.321,-2.44C-4.063,-2.504 -3.794,-2.503 -3.536,-2.439L-0.438,-1.666C-0.181,-1.602 0,-1.37 0,-1.105Z" style="fill:rgb(220,220,220);fill-rule:nonzero;stroke:rgb(22,33,45);stroke-width:0.5px;stroke-linejoin:round;"/>
                        </g>
                        <g transform="matrix(1,0,0,1,214.03,256.423)">
                            <path d="M0,-0.356L-4.001,-1.366L-4.001,1.01" style="fill:white;fill-rule:nonzero;stroke:rgb(22,33,45);stroke-width:0.5px;stroke-linejoin:round;"/>
                        </g>
                        <g transform="matrix(-0.968966,0.247195,0.247195,0.968966,208.921,258.239)">
                            <path d="M-9.595,1.472L0.498,1.472L-0.185,-1.205L-10.278,-1.205L-9.595,1.472Z" style="fill:white;fill-rule:nonzero;stroke:rgb(22,33,45);stroke-width:0.5px;stroke-linejoin:round;"/>
                        </g>
                        <g transform="matrix(1,0,0,1,221.014,259.125)">
                            <path d="M0,-1.105L0,1.25L-3.548,0.352C-3.798,0.288 -4.059,0.288 -4.309,0.349L-8.721,1.399L-8.721,-0.954C-8.721,-1.212 -8.545,-1.437 -8.295,-1.499L-4.321,-2.44C-4.063,-2.504 -3.794,-2.503 -3.536,-2.439L-0.438,-1.666C-0.181,-1.602 0,-1.37 0,-1.105Z" style="fill:rgb(220,220,220);fill-rule:nonzero;stroke:rgb(22,33,45);stroke-width:0.5px;stroke-linejoin:round;"/>
                        </g>
                        <g transform="matrix(0.96893,-0.247336,-0.247336,-0.96893,157.544,262.008)">
                            <path d="M0.445,0.463L4.707,0.463L3.423,-4.567L-0.317,-2.524L0.445,0.463Z" style="fill:rgb(220,220,220);fill-rule:nonzero;stroke:rgb(22,33,45);stroke-width:0.5px;stroke-linejoin:round;"/>
                        </g>
                        <g transform="matrix(0.972171,0.234272,0.234272,-0.972171,158.035,260.979)">
                            <path d="M-0.059,-0.498L4.188,-0.497" style="fill:none;fill-rule:nonzero;stroke:rgb(22,33,45);stroke-width:0.5px;stroke-linejoin:round;"/>
                        </g>
                        <g transform="matrix(1,0,0,1,187.46,263.156)">
                            <path d="M0,-0.356L-4.001,-1.366L-4.001,1.01" style="fill:rgb(220,220,220);fill-rule:nonzero;stroke:rgb(22,33,45);stroke-width:0.5px;stroke-linejoin:round;"/>
                        </g>
                        <g transform="matrix(-0.968966,0.247195,0.247195,0.968966,182.351,264.972)">
                            <path d="M-9.595,1.472L0.498,1.472L-0.185,-1.205L-10.278,-1.205L-9.595,1.472Z" style="fill:rgb(220,220,220);fill-rule:nonzero;stroke:rgb(22,33,45);stroke-width:0.5px;stroke-linejoin:round;"/>
                        </g>
                        <g transform="matrix(1,0,0,1,194.402,270.151)">
                            <path d="M0,3.977L-3.486,3.057C-3.627,3.02 -3.725,2.893 -3.725,2.747L-3.725,0.483C-3.725,0.209 -3.465,0.009 -3.2,0.079L-0.249,0.86C0.013,0.929 0.288,0.935 0.553,0.878L3.973,0.016C4.109,-0.019 4.239,-0.047 4.239,0.305C4.239,0.576 4.249,2.017 4.254,2.666C4.255,2.854 4.126,3.015 3.943,3.058L0.516,3.984C0.346,4.024 0.169,4.022 0,3.977Z" style="fill:rgb(220,220,220);fill-rule:nonzero;stroke:rgb(22,33,45);stroke-width:0.5px;stroke-linejoin:round;"/>
                        </g>
                        <g transform="matrix(0,-1,-1,0,195.985,272.6)">
                            <path d="M-1.432,1.432L1.432,1.432" style="fill:none;fill-rule:nonzero;stroke:rgb(22,33,45);stroke-width:0.5px;"/>
                        </g>
                        <g transform="matrix(1,0,0,1,189.888,264.269)">
                            <path d="M0,-0.409L5.459,-1.714L5.459,1.127L4.779,1.305" style="fill:rgb(220,220,220);fill-rule:nonzero;stroke:rgb(22,33,45);stroke-width:0.5px;stroke-linejoin:round;"/>
                        </g>
                        <g transform="matrix(1,0,0,1,194.667,266.191)">
                            <path d="M0,-1.105L0,1.25L-3.548,0.352C-3.798,0.288 -4.059,0.288 -4.309,0.349L-8.721,1.399L-8.721,-0.954C-8.721,-1.212 -8.545,-1.437 -8.295,-1.499L-4.321,-2.44C-4.063,-2.504 -3.794,-2.503 -3.536,-2.439L-0.438,-1.666C-0.181,-1.602 0,-1.37 0,-1.105Z" style="fill:rgb(220,220,220);fill-rule:nonzero;stroke:rgb(22,33,45);stroke-width:0.5px;stroke-linejoin:round;"/>
                        </g>
                        <g transform="matrix(0.96893,-0.247336,-0.247336,-0.96893,177.802,267.376)">
                            <path d="M0.445,0.463L4.707,0.463L3.423,-4.567L-0.317,-2.524L0.445,0.463Z" style="fill:rgb(220,220,220);fill-rule:nonzero;stroke:rgb(22,33,45);stroke-width:0.5px;stroke-linejoin:round;"/>
                        </g>
                        <g transform="matrix(0.972171,0.234272,0.234272,-0.972171,178.293,266.348)">
                            <path d="M-0.059,-0.498L4.188,-0.497" style="fill:none;fill-rule:nonzero;stroke:rgb(22,33,45);stroke-width:0.5px;stroke-linejoin:round;"/>
                        </g>
                        <g transform="matrix(1,0,0,1,207.718,268.525)">
                            <path d="M0,-0.356L-4.001,-1.366L-4.001,1.01" style="fill:white;fill-rule:nonzero;stroke:rgb(22,33,45);stroke-width:0.5px;stroke-linejoin:round;"/>
                        </g>
                        <g transform="matrix(-0.960353,0.278786,0.278786,0.960353,202.594,270.266)">
                            <path d="M-7.891,1.53L0.552,1.53L-0.218,-1.122L-8.661,-1.122L-7.891,1.53Z" style="fill:white;fill-rule:nonzero;stroke:rgb(22,33,45);stroke-width:0.5px;stroke-linejoin:round;"/>
                        </g>
                        <g transform="matrix(1,0,0,1,218.678,265.317)">
                            <path d="M0,-0.356L-4.001,-1.366L-4.001,1.01" style="fill:rgb(220,220,220);fill-rule:nonzero;stroke:rgb(22,33,45);stroke-width:0.5px;stroke-linejoin:round;"/>
                        </g>
                        <g transform="matrix(-0.960353,0.278786,0.278786,0.960353,213.554,267.058)">
                            <path d="M-7.891,1.53L0.552,1.53L-0.218,-1.122L-8.661,-1.122L-7.891,1.53Z" style="fill:rgb(220,220,220);fill-rule:nonzero;stroke:rgb(22,33,45);stroke-width:0.5px;stroke-linejoin:round;"/>
                        </g>
                        <g transform="matrix(1,0,0,1,230.724,261.949)">
                            <path d="M0,-0.794L-3.103,-1.585L-3.103,0.791" style="fill:white;fill-rule:nonzero;stroke:rgb(22,33,45);stroke-width:0.5px;stroke-linejoin:round;"/>
                        </g>
                        <g transform="matrix(-0.964985,0.262306,0.262306,0.964985,226.262,262.928)">
                            <path d="M-4.046,2.125L0.441,2.125L-0.284,-0.54L-4.771,-0.54L-4.046,2.125Z" style="fill:rgb(220,220,220);fill-rule:nonzero;stroke:rgb(22,33,45);stroke-width:0.5px;stroke-linejoin:round;"/>
                        </g>
                        <g transform="matrix(1,0,0,1,137.584,185.674)">
                            <path d="M0,13.06L-0.175,-5.354C-0.175,-5.768 -0.551,-6.08 -0.958,-6.002C-1.547,-5.89 -2.695,-5.524 -3.002,-5.456C-3.537,-5.337 -5.144,-4.721 -5.144,-1.513L-5.144,3.093C-5.144,4.103 -5.322,6.42 -7.401,6.954C-9.48,7.489 -21.48,10.519 -22.55,10.816C-23.619,11.113 -23.441,12.123 -23.441,12.479L-23.441,18.263C-23.441,18.77 -22.962,19.14 -22.472,19.013L0,13.06Z" style="fill:rgb(220,220,220);fill-rule:nonzero;stroke:rgb(22,33,45);stroke-width:0.5px;"/>
                        </g>
                        <g transform="matrix(1,0,0,1,224.336,179.48)">
                            <path d="M0,47.08L-88.901,23.979C-90.564,23.561 -90.951,22.224 -90.951,20.917L-90.951,3.987C-90.951,1.343 -89.673,0.69 -88.901,0.511C-88.313,0.376 -87.284,0.14 -86.828,0.035C-86.676,0 -86.52,0.003 -86.369,0.042L10.944,25.331" style="fill:rgb(220,220,220);fill-rule:nonzero;stroke:rgb(22,33,45);stroke-width:0.5px;"/>
                        </g>
                        <g transform="matrix(1,0,0,1,160.151,211.217)">
                            <path d="M0,-65.485L-16.722,-69.775C-16.985,-69.842 -17.424,-69.917 -17.748,-69.815L-30.223,-66.576C-30.272,-66.565 -30.322,-66.555 -30.366,-66.539L-30.431,-66.522L-30.428,-66.508C-31.099,-66.218 -31.213,-65.367 -31.213,-64.704L-31.213,-3.375C-31.213,-1.883 -30.889,-0.416 -29.624,-0.084L-12.724,4.357C-12.479,4.425 -12.237,4.432 -12.008,4.391L-12.008,4.394C-12.008,4.394 -11.994,4.391 -11.99,4.39C-11.971,4.386 -11.954,4.38 -11.936,4.376C-11.381,4.232 -7.489,3.219 -6.538,2.929C-5.513,2.617 -5.275,1.578 -5.275,0.969L-5.275,-22.214C-5.275,-25.407 -3.166,-26.477 -2.364,-26.685C-1.721,-26.851 0.611,-27.428 1.511,-27.651C1.724,-27.703 1.868,-27.893 1.868,-28.112L1.868,-62.243C1.868,-63.424 1.628,-65.067 0,-65.485" style="fill:rgb(220,220,220);fill-rule:nonzero;"/>
                        </g>
                        <g transform="matrix(1,0,0,1,147.587,211.131)">
                            <path d="M0,-62.157L-16.722,-66.447C-18.444,-66.888 -18.649,-65.554 -18.649,-64.618L-18.649,-3.289C-18.649,-1.797 -18.324,-0.33 -17.06,0.002L-0.159,4.443C0.866,4.731 1.868,3.996 1.868,2.726L1.868,-58.915C1.868,-60.096 1.628,-61.739 0,-62.157Z" style="fill:rgb(87,87,92);fill-rule:nonzero;stroke:rgb(22,33,45);stroke-width:0.5px;"/>
                        </g>
                        <g transform="matrix(1,0,0,1,160.151,211.217)">
                            <path d="M0,-65.485L-16.722,-69.775C-16.985,-69.842 -17.424,-69.917 -17.748,-69.815L-30.223,-66.576C-30.272,-66.565 -30.322,-66.555 -30.366,-66.539L-30.431,-66.522L-30.428,-66.508C-31.099,-66.218 -31.213,-65.367 -31.213,-64.704L-31.213,-3.375C-31.213,-1.883 -30.889,-0.416 -29.624,-0.084L-12.724,4.357C-12.479,4.425 -12.237,4.432 -12.008,4.391L-12.008,4.394C-12.008,4.394 -11.994,4.391 -11.99,4.39C-11.971,4.386 -11.954,4.38 -11.936,4.376C-11.381,4.232 -7.489,3.219 -6.538,2.929C-5.513,2.617 -5.275,1.578 -5.275,0.969L-5.275,-22.214C-5.275,-25.407 -3.166,-26.477 -2.364,-26.685C-1.721,-26.851 0.611,-27.428 1.511,-27.651C1.724,-27.703 1.868,-27.893 1.868,-28.112L1.868,-62.243C1.868,-63.424 1.628,-65.067 0,-65.485Z" style="fill:none;fill-rule:nonzero;stroke:rgb(22,33,45);stroke-width:0.5px;"/>
                        </g>
                        <g transform="matrix(1,0,0,1,138.473,190.034)">
                            <path d="M0,-34.549L-5.975,-36.068C-6.186,-36.122 -6.407,-36.121 -6.618,-36.066L-7.723,-35.777C-7.761,-35.772 -7.795,-35.761 -7.831,-35.749L-7.931,-35.723L-7.927,-35.704C-8.145,-35.592 -8.307,-35.38 -8.307,-35.11L-8.307,-1.296C-8.307,-0.652 -7.872,-0.089 -7.249,0.074L-1.648,1.535C-1.502,1.573 -1.364,1.547 -1.236,1.497L-1.233,1.516L-0.027,1.193C0.44,1.068 0.764,0.645 0.764,0.162L0.766,-33.564C0.766,-34.029 0.45,-34.434 0,-34.549Z" style="fill:rgb(87,87,92);fill-rule:nonzero;stroke:rgb(22,33,45);stroke-width:0.5px;"/>
                        </g>
                        <g transform="matrix(1,0,0,1,136.825,154.263)">
                            <path d="M0,37.306L-5.601,35.845C-6.224,35.682 -6.659,35.119 -6.659,34.475L-6.659,0.661C-6.659,0.214 -6.236,-0.113 -5.804,0L-0.203,1.461C0.421,1.624 0.856,2.187 0.856,2.831L0.856,36.645C0.856,37.092 0.433,37.419 0,37.306Z" style="fill:none;fill-rule:nonzero;stroke:rgb(22,33,45);stroke-width:0.5px;"/>
                        </g>
                        <g transform="matrix(1,0,0,1,137.24,153.913)">
                            <path d="M0,37.637L1.206,37.314C1.672,37.189 1.997,36.766 1.997,36.284L1.998,2.557C1.998,2.092 1.683,1.687 1.232,1.572L-4.743,0.053C-4.954,0 -5.175,0 -5.385,0.055L-6.698,0.398" style="fill:none;fill-rule:nonzero;stroke:rgb(22,33,45);stroke-width:0.5px;"/>
                        </g>
                        <g transform="matrix(1,0,0,1,145.985,192.072)">
                            <path d="M0,-34.549L-5.975,-36.068C-6.186,-36.122 -6.407,-36.121 -6.618,-36.066L-7.723,-35.777C-7.761,-35.772 -7.795,-35.761 -7.831,-35.749L-7.931,-35.723L-7.927,-35.704C-8.145,-35.592 -8.307,-35.38 -8.307,-35.11L-8.307,-1.296C-8.307,-0.652 -7.872,-0.089 -7.249,0.074L-1.648,1.535C-1.502,1.573 -1.364,1.547 -1.236,1.497L-1.233,1.516L-0.027,1.193C0.44,1.068 0.764,0.645 0.764,0.162L0.766,-33.564C0.766,-34.029 0.45,-34.434 0,-34.549Z" style="fill:rgb(87,87,92);fill-rule:nonzero;stroke:rgb(22,33,45);stroke-width:0.5px;"/>
                        </g>
                        <g transform="matrix(1,0,0,1,144.337,156.3)">
                            <path d="M0,37.306L-5.601,35.845C-6.224,35.682 -6.659,35.119 -6.659,34.475L-6.659,0.661C-6.659,0.214 -6.236,-0.113 -5.804,0L-0.203,1.461C0.421,1.624 0.856,2.187 0.856,2.831L0.856,36.645C0.856,37.092 0.433,37.419 0,37.306Z" style="fill:none;fill-rule:nonzero;stroke:rgb(22,33,45);stroke-width:0.5px;"/>
                        </g>
                        <g transform="matrix(1,0,0,1,144.753,155.95)">
                            <path d="M0,37.637L1.206,37.314C1.672,37.189 1.997,36.766 1.997,36.284L1.998,2.557C1.998,2.092 1.683,1.687 1.233,1.572L-4.743,0.053C-4.954,0 -5.175,0 -5.385,0.055L-6.698,0.398" style="fill:none;fill-rule:nonzero;stroke:rgb(22,33,45);stroke-width:0.5px;"/>
                        </g>
                        <g transform="matrix(1,0,0,1,281.5,160.302)">
                            <path d="M0,104.071L-61.63,120.074C-62.511,120.267 -62.941,120.107 -62.941,118.657L-62.941,74.767L1.418,58.055L1.418,102.237C1.418,103.223 1.061,103.76 0,104.071M-163.374,-19.925C-163.641,-19.994 -163.641,-20.372 -163.375,-20.441L-99.68,-37.006C-98.903,-37.208 -98.087,-37.208 -97.31,-37.006L-3.586,-12.688C-3.32,-12.619 -3.32,-12.242 -3.587,-12.173L-67.284,4.328C-68.059,4.529 -68.872,4.529 -69.647,4.328L-163.374,-19.925ZM-78.757,119.488C-78.757,120.939 -79.187,121.099 -80.068,120.906L-169.344,97.953C-170.404,97.642 -170.762,97.106 -170.762,96.12L-170.762,0.644C-170.762,-0.595 -170.78,-1.565 -169.581,-1.253L-80.092,21.754C-79.257,21.971 -78.757,22.705 -78.757,23.994L-78.757,119.488ZM1.418,6.762L1.418,31.292L-0.526,30.787L-62.941,46.995L-62.941,23.162C-62.941,21.873 -62.441,21.139 -61.606,20.922L0.237,4.864C1.437,4.553 1.418,5.523 1.418,6.762M10.925,-13.621L-93.898,-40.84C-94.585,-41.019 -95.305,-41.019 -95.992,-40.84L-173.569,-20.696C-176.511,-19.932 -178.301,-16.128 -178.301,-13.382C-178.3,-10.703 -178.3,110.028 -178.301,113.08C-178.301,115.608 -176.877,118.7 -174.178,119.392C-172.424,119.842 -77.135,144.6 -76.153,144.855C-75.248,145.09 -74.883,145.041 -74.387,144.915C-73.085,144.584 7.57,123.633 9.114,123.232C10.659,122.831 11.843,120.914 11.843,118.537L11.843,-12.433C11.843,-12.992 11.466,-13.48 10.925,-13.621" style="fill:rgb(87,87,92);fill-rule:nonzero;"/>
                        </g>
                        <g transform="matrix(1,0,0,1,284.945,187.058)">
                            <path d="M0,77.742C0,78.775 -0.375,79.338 -1.487,79.663L-66.555,96.593C-67.478,96.796 -67.928,96.627 -67.928,95.108L-67.928,-5.478C-67.928,-6.828 -67.405,-7.598 -66.529,-7.825L-1.238,-24.812C0.019,-25.138 0,-24.122 0,-22.823L0,77.742ZM8.398,91.781L8.398,-39.189L7.942,-40.138L-69.95,-19.783C-73.701,-18.803 -74.916,-15.06 -74.916,-12.744L-74.916,112.454C-74.916,117.177 -77.119,117.88 -77.119,117.88C-77.119,117.88 2.495,97.395 5.669,96.476C8.843,95.556 8.398,91.781 8.398,91.781" style="fill:rgb(220,220,220);fill-rule:nonzero;"/>
                        </g>
                        <g transform="matrix(1,0,0,1,282.918,208.246)">
                            <path d="M0,9.656L-64.359,26.812L-64.359,-0.949L-1.894,-17.156L0,-16.652L0,9.656Z" style="fill:rgb(220,220,220);fill-rule:nonzero;"/>
                        </g>
                        <g transform="matrix(1,0,0,1,243.616,296.706)">
                            <path d="M0,-13.842C-0.055,-13.842 -0.111,-13.835 -0.167,-13.821L-22.552,-8.061C-23.222,-7.888 -23.69,-7.284 -23.69,-6.593L-23.69,-0.668C-23.69,-0.29 -23.382,0 -23.025,0C-22.97,0 -22.914,-0.007 -22.857,-0.022L-0.472,-5.782C0.198,-5.954 0.666,-6.558 0.666,-7.25L0.666,-13.175C0.666,-13.552 0.357,-13.842 0,-13.842" style="fill:rgb(87,87,92);fill-rule:nonzero;"/>
                        </g>
                        <g transform="matrix(1,0,0,1,269.924,289.914)">
                            <path d="M0,-13.842C-0.055,-13.842 -0.111,-13.835 -0.167,-13.821L-22.552,-8.061C-23.222,-7.888 -23.69,-7.284 -23.69,-6.593L-23.69,-0.668C-23.69,-0.29 -23.382,0 -23.025,0C-22.97,0 -22.914,-0.007 -22.857,-0.022L-0.472,-5.782C0.198,-5.954 0.666,-6.558 0.666,-7.25L0.666,-13.175C0.666,-13.552 0.357,-13.842 0,-13.842" style="fill:rgb(87,87,92);fill-rule:nonzero;"/>
                        </g>
                        <g transform="matrix(1,0,0,1,289.134,251.765)">
                            <path d="M0,13.515L-1.652,13.983C-2.269,14.158 -2.882,13.695 -2.882,13.054L-2.882,1.178C-2.882,0.631 -2.518,0.15 -1.991,0L-0.339,-0.468C0.277,-0.643 0.89,-0.179 0.89,0.462L0.89,12.337C0.89,12.885 0.527,13.366 0,13.515" style="fill:rgb(87,87,92);fill-rule:nonzero;"/>
                        </g>
                        <g transform="matrix(1,0,0,1,292.424,277.994)">
                            <path d="M0,-131.313C0.541,-131.173 0.919,-130.684 0.919,-130.125L0.919,0.845C0.919,3.221 -0.266,5.139 -1.811,5.54C-3.355,5.941 -84.01,26.891 -85.312,27.223C-85.807,27.349 -86.173,27.398 -87.078,27.163C-88.06,26.907 -183.349,2.15 -185.103,1.7C-187.801,1.007 -189.226,-2.084 -189.225,-4.613C-189.224,-7.665 -189.225,-128.395 -189.225,-131.074C-189.226,-133.821 -187.436,-137.624 -184.494,-138.388L-106.917,-158.533C-106.23,-158.711 -105.51,-158.711 -104.823,-158.533L0,-131.313Z" style="fill:none;fill-rule:nonzero;stroke:rgb(22,33,45);stroke-width:1px;"/>
                        </g>
                        <g transform="matrix(-0.9679,0.251337,0.251337,0.9679,228.389,313.513)">
                            <path d="M-104.74,-144.92L-23.506,-144.92C-20.335,-144.92 -17.773,-141.662 -17.067,-138.941L14.551,-17.18C14.914,-15.783 16.152,-13.377 18.509,-13.377" style="fill:none;fill-rule:nonzero;stroke:rgb(22,33,45);stroke-width:1px;"/>
                        </g>
                        <g transform="matrix(1,0,0,1,204.346,270.805)">
                            <path d="M0,-88.426C0,-89.763 -0.518,-90.524 -1.385,-90.749L-94.723,-114.98C-95.967,-115.303 -95.948,-114.298 -95.948,-113.012L-95.948,0.6C-95.948,1.622 -95.577,2.179 -94.477,2.502L-1.359,26.676C-0.446,26.877 0,26.71 0,25.206L0,-88.426Z" style="fill:none;fill-rule:nonzero;stroke:rgb(22,33,45);stroke-width:1px;"/>
                        </g>
                        <g transform="matrix(0.967901,-0.251333,-0.251333,-0.967901,220.242,243.751)">
                            <path d="M-1.127,8.827L69.11,8.827" style="fill:none;fill-rule:nonzero;stroke:rgb(22,33,45);stroke-width:1px;"/>
                        </g>
                        <g transform="matrix(0.967901,-0.251333,-0.251333,-0.967901,221.692,217.163)">
                            <path d="M-1.067,8.356L65.426,8.356" style="fill:none;fill-rule:nonzero;stroke:rgb(22,33,45);stroke-width:0.5px;"/>
                        </g>
                        <g transform="matrix(1,0,0,1,218.559,191.09)">
                            <path d="M0,16.207L62.415,0L64.359,0.504" style="fill:none;fill-rule:nonzero;stroke:rgb(22,33,45);stroke-width:0.5px;"/>
                        </g>
                        <g transform="matrix(1,0,0,1,281.5,181.051)">
                            <path d="M0,83.322L-61.63,99.325C-62.511,99.518 -62.941,99.358 -62.941,97.908L-62.941,2.413C-62.941,1.124 -62.441,0.39 -61.606,0.173L0.237,-15.885C1.436,-16.196 1.418,-15.226 1.418,-13.987L1.418,81.488C1.418,82.474 1.061,83.011 0,83.322Z" style="fill:none;fill-rule:nonzero;stroke:rgb(22,33,45);stroke-width:0.5px;"/>
                        </g>
                        <g transform="matrix(1,0,0,1,202.742,255.843)">
                            <path d="M0,-71.547C0,-72.836 -0.5,-73.57 -1.335,-73.787L-90.823,-96.794C-92.023,-97.105 -92.005,-96.136 -92.005,-94.896L-92.005,0.579C-92.005,1.565 -91.647,2.102 -90.586,2.413L-1.31,25.365C-0.43,25.558 0,25.398 0,23.948L0,-71.547Z" style="fill:none;fill-rule:nonzero;stroke:rgb(22,33,45);stroke-width:0.5px;"/>
                        </g>
                        <g transform="matrix(0.96788,0.251412,0.251412,-0.96788,113.072,256.01)">
                            <path d="M-1.592,-12.461L97.54,-12.461" style="fill:none;fill-rule:nonzero;stroke:rgb(22,33,45);stroke-width:1px;"/>
                        </g>
                        <g transform="matrix(1,0,0,1,182.922,275.861)">
                            <path d="M0,7.521L-53.559,-6.387C-53.981,-6.496 -54.392,-6.178 -54.392,-5.742L-54.392,-0.645C-54.392,-0.342 -54.187,-0.077 -53.894,-0L-0.335,13.907C0.087,14.017 0.499,13.698 0.499,13.263L0.499,8.166C0.499,7.862 0.294,7.597 0,7.521Z" style="fill:none;fill-rule:nonzero;stroke:rgb(22,33,45);stroke-width:1px;"/>
                        </g>
                        <g transform="matrix(1,0,0,1,283.459,179.052)">
                            <path d="M0,87.67L-65.069,104.6C-65.991,104.802 -66.442,104.634 -66.442,103.114L-66.442,2.529C-66.442,1.178 -65.918,0.409 -65.043,0.182L0.248,-16.805C1.505,-17.132 1.486,-16.116 1.486,-14.817L1.486,85.749C1.486,86.782 1.111,87.344 0,87.67Z" style="fill:none;fill-rule:nonzero;stroke:rgb(22,33,45);stroke-width:1px;"/>
                        </g>
                        <g transform="matrix(1,0,0,1,118.125,148.064)">
                            <path d="M0,-8.203L63.694,-24.767C64.472,-24.97 65.288,-24.97 66.065,-24.768L159.788,-0.45C160.054,-0.381 160.054,-0.003 159.788,0.066L96.091,16.566C95.316,16.767 94.503,16.767 93.728,16.567L0,-7.687C-0.266,-7.756 -0.266,-8.134 0,-8.203Z" style="fill:none;fill-rule:nonzero;stroke:rgb(22,33,45);stroke-width:1px;"/>
                        </g>
                        <g transform="matrix(1,0,0,1,289.134,251.765)">
                            <path d="M0,13.515L-1.652,13.983C-2.269,14.158 -2.882,13.695 -2.882,13.054L-2.882,1.178C-2.882,0.631 -2.518,0.15 -1.991,0L-0.339,-0.468C0.277,-0.643 0.89,-0.179 0.89,0.462L0.89,12.337C0.89,12.885 0.527,13.366 0,13.515Z" style="fill:none;fill-rule:nonzero;stroke:rgb(22,33,45);stroke-width:0.5px;"/>
                        </g>
                        <g transform="matrix(0.964646,-0.26355,-0.26355,-0.964646,287.18,262.189)">
                            <path d="M-0.028,0.206L1.536,0.206" style="fill:none;fill-rule:nonzero;stroke:rgb(22,33,45);stroke-width:1px;stroke-linecap:round;"/>
                        </g>
                        <g transform="matrix(0.964646,-0.26355,-0.26355,-0.964646,287.18,259.806)">
                            <path d="M-0.028,0.206L1.536,0.206" style="fill:none;fill-rule:nonzero;stroke:rgb(22,33,45);stroke-width:1px;stroke-linecap:round;"/>
                        </g>
                        <g transform="matrix(0.964646,-0.26355,-0.26355,-0.964646,287.18,257.792)">
                            <path d="M-0.028,0.206L1.536,0.206" style="fill:none;fill-rule:nonzero;stroke:rgb(22,33,45);stroke-width:1px;stroke-linecap:round;"/>
                        </g>
                        <g transform="matrix(0.964646,-0.26355,-0.26355,-0.964646,287.18,255.59)">
                            <path d="M-0.028,0.206L1.536,0.206" style="fill:none;fill-rule:nonzero;stroke:rgb(22,33,45);stroke-width:1px;stroke-linecap:round;"/>
                        </g>
                        <g transform="matrix(1,0,0,1,243.616,296.706)">
                            <path d="M0,-13.842C-0.055,-13.842 -0.111,-13.835 -0.167,-13.821L-22.552,-8.061C-23.222,-7.888 -23.69,-7.284 -23.69,-6.593L-23.69,-0.668C-23.69,-0.29 -23.382,0 -23.025,0C-22.97,0 -22.914,-0.007 -22.857,-0.022L-0.472,-5.782C0.198,-5.954 0.666,-6.558 0.666,-7.25L0.666,-13.175C0.666,-13.552 0.357,-13.842 0,-13.842Z" style="fill:none;fill-rule:nonzero;stroke:rgb(22,33,45);stroke-width:0.5px;"/>
                        </g>
                        <g transform="matrix(1,0,0,1,233.864,294.141)">
                            <path d="M0,-8.819C-0.67,-8.647 -1.138,-8.043 -1.138,-7.351L-1.138,-1.426C-1.138,-1.049 -0.829,-0.759 -0.472,-0.759C-0.417,-0.759 -0.361,-0.766 -0.305,-0.78M-3.268,0C-2.598,-0.173 -2.129,-0.777 -2.129,-1.469L-2.129,-7.393C-2.129,-7.771 -2.438,-8.061 -2.795,-8.061C-2.85,-8.061 -2.906,-8.054 -2.963,-8.039" style="fill:none;fill-rule:nonzero;stroke:rgb(22,33,45);stroke-width:0.5px;"/>
                        </g>
                        <g transform="matrix(1,0,0,1,269.924,289.914)">
                            <path d="M0,-13.842C-0.055,-13.842 -0.111,-13.835 -0.167,-13.821L-22.552,-8.061C-23.222,-7.888 -23.69,-7.284 -23.69,-6.593L-23.69,-0.668C-23.69,-0.29 -23.382,0 -23.025,0C-22.97,0 -22.914,-0.007 -22.857,-0.022L-0.472,-5.782C0.198,-5.954 0.666,-6.558 0.666,-7.25L0.666,-13.175C0.666,-13.552 0.357,-13.842 0,-13.842Z" style="fill:none;fill-rule:nonzero;stroke:rgb(22,33,45);stroke-width:0.5px;"/>
                        </g>
                        <g transform="matrix(1,0,0,1,260.172,287.349)">
                            <path d="M0,-8.819C-0.67,-8.647 -1.138,-8.043 -1.138,-7.351L-1.138,-1.426C-1.138,-1.049 -0.829,-0.759 -0.472,-0.759C-0.417,-0.759 -0.361,-0.766 -0.305,-0.78M-3.268,0C-2.598,-0.173 -2.129,-0.777 -2.129,-1.469L-2.129,-7.393C-2.129,-7.771 -2.438,-8.061 -2.795,-8.061C-2.85,-8.061 -2.906,-8.054 -2.963,-8.039" style="fill:none;fill-rule:nonzero;stroke:rgb(22,33,45);stroke-width:0.5px;"/>
                        </g>
                        <g transform="matrix(0.161797,-0.986824,-0.986824,-0.161797,216.203,291.058)">
                            <ellipse cx="-1.814" cy="0.297" rx="2.929" ry="1.839" style="fill:none;stroke:rgb(22,33,45);stroke-width:0.5px;"/>
                        </g>
                        <g transform="matrix(0.161797,-0.986824,-0.986824,-0.161797,277.678,275.179)">
                            <ellipse cx="-1.814" cy="0.297" rx="2.929" ry="1.839" style="fill:none;stroke:rgb(22,33,45);stroke-width:0.5px;"/>
                        </g>
                        <g transform="matrix(1,0,0,1,207.955,230.873)">
                            <path d="M0,-18.152L-23.302,-24.256C-23.302,-24.256 -26.277,-25.173 -26.277,-20.861C-26.714,-20.424 -26.733,-1.622 -26.733,-1.622C-26.733,-1.622 -26.861,-0.276 -24.73,0.304C-22.6,0.883 0,7.021 0,7.021L0,-18.152Z" style="fill:rgb(87,87,92);fill-rule:nonzero;"/>
                        </g>
                        <g transform="matrix(1,0,0,1,204.118,208.625)">
                            <path d="M0,27.538L2.114,26.394C2.482,26.094 2.723,25.637 2.723,25.11L2.723,7.549C2.723,6.536 2.045,5.649 1.068,5.383L-18.559,0.101C-18.929,0 -19.297,0.033 -19.619,0.165L-22.003,1.052C-22.003,1.052 -20.712,0.799 -19.42,1.245C-18.128,1.69 -0.975,6.324 -0.975,6.324C-0.975,6.324 0.852,6.454 0.852,9.24L0.852,26.106L0,27.538Z" style="fill:rgb(220,220,220);fill-rule:nonzero;"/>
                        </g>
                        <g transform="matrix(1,0,0,1,202.879,209.548)">
                            <path d="M0,26.766L-20.001,21.534C-20.979,21.269 -21.657,20.381 -21.657,19.369L-21.657,1.598C-21.657,0.506 -20.619,-0.287 -19.566,0L0.435,5.441C1.413,5.707 2.091,6.594 2.091,7.607L2.091,25.168C2.091,26.26 1.053,27.053 0,26.766Z" style="fill:none;fill-rule:nonzero;stroke:rgb(22,33,45);stroke-width:1px;stroke-linejoin:round;"/>
                        </g>
                        <g transform="matrix(1,0,0,1,182.115,235.112)">
                            <path d="M0,-25.435L2.385,-26.322C2.707,-26.454 3.075,-26.486 3.445,-26.386L23.071,-21.103C24.049,-20.838 24.727,-19.95 24.727,-18.938L24.727,-1.376C24.727,-0.85 24.485,-0.393 24.117,-0.093L22.003,1.051" style="fill:none;fill-rule:nonzero;stroke:rgb(22,33,45);stroke-width:1px;stroke-linejoin:round;"/>
                        </g>
                        <g transform="matrix(1,0,0,1,181.678,207.744)">
                            <path d="M0,2.268C0,-1.376 1.773,-1.439 2.975,-1.127C4.001,-0.861 22.669,3.997 22.669,3.997L22.669,-1.729" style="fill:none;fill-rule:nonzero;stroke:rgb(22,33,45);stroke-width:1px;stroke-linejoin:round;"/>
                        </g>
                        <g transform="matrix(-0.967425,-0.253157,-0.253157,0.967425,186.325,210.748)">
                            <path d="M-21.262,17.046L-1.551,17.046L2.193,2.736L-17.518,2.736L-21.262,17.046Z" style="fill:none;fill-rule:nonzero;stroke:rgb(22,33,45);stroke-width:0.5px;stroke-linejoin:round;"/>
                        </g>
                        <g transform="matrix(0,-1,-1,0,205.452,237.056)">
                            <path d="M-1.106,1.106L1.106,1.106" style="fill:none;fill-rule:nonzero;stroke:rgb(22,33,45);stroke-width:1px;stroke-linejoin:round;"/>
                        </g>
                    </g>
                </g>
                <g transform="matrix(-0.967315,-0.253577,-0.253577,0.967315,94.0557,257.341)">
                    <path d="M-11.101,6.295L-1.972,6.295C-1.051,6.382 -0.193,5.263 -0.055,3.798C0.083,2.333 -0.552,1.074 -1.473,0.987L-9.64,0.721" style="fill:rgb(255,214,0);fill-rule:nonzero;"/>
                </g>
                <g transform="matrix(1,0,0,1,215.141,294.99)">
                    <path d="M0,0.724C-1.002,0.56 -1.602,-0.867 -1.341,-2.464C-1.079,-4.06 -0.054,-5.22 0.948,-5.056L20.887,-0.001C21.889,0.164 22.489,1.591 22.228,3.187C21.966,4.783 20.941,5.944 19.939,5.779L0,0.724Z" style="fill:rgb(255,214,0);fill-rule:nonzero;"/>
                </g>
                <g transform="matrix(1,0,0,1,302.258,281.04)">
                    <path d="M0,-0.804L-19.939,-5.859C-20.454,-5.944 -20.973,-5.674 -21.393,-5.18L-21.392,-5.187L-23.699,-5.617C-24.343,-5.76 -25.051,-5.045 -25.28,-4.019C-25.509,-2.993 -25.172,-2.045 -24.528,-1.901L-22.014,-1.099L-22.013,-1.103C-21.769,-0.546 -21.377,-0.16 -20.887,-0.079L-0.948,4.976C0.054,5.14 1.079,3.98 1.341,2.384C1.602,0.787 1.002,-0.64 0,-0.804" style="fill:rgb(255,214,0);fill-rule:nonzero;"/>
                </g>
                <g transform="matrix(1,0,0,1,215.141,294.99)">
                    <path d="M0,0.724C-1.002,0.56 -1.602,-0.867 -1.341,-2.464C-1.079,-4.06 -0.054,-5.22 0.948,-5.056L20.887,-0.001C21.889,0.164 22.489,1.591 22.228,3.187C21.966,4.783 20.941,5.944 19.939,5.779L0,0.724Z" style="fill:none;fill-rule:nonzero;stroke:rgb(22,33,45);stroke-width:1px;"/>
                </g>
                <g transform="matrix(0.16188,-0.98681,-0.98681,-0.16188,236.112,296.293)">
                    <ellipse cx="-1.652" cy="0.27" rx="2.666" ry="1.674" style="fill:none;stroke:rgb(22,33,45);stroke-width:0.5px;"/>
                </g>
                <g transform="matrix(1,0,0,1,217.038,290.471)">
                    <path d="M0,5.462C-0.912,5.312 -1.457,4.002 -1.216,2.535C-0.976,1.068 -0.041,0 0.871,0.15" style="fill:none;fill-rule:nonzero;stroke:rgb(22,33,45);stroke-width:0.5px;"/>
                </g>
                <g transform="matrix(1,0,0,1,218.061,290.768)">
                    <path d="M0,5.478C-0.912,5.328 -1.456,4.014 -1.215,2.543C-0.974,1.071 -0.038,0 0.874,0.149" style="fill:none;fill-rule:nonzero;stroke:rgb(22,33,45);stroke-width:0.5px;"/>
                </g>
                <g transform="matrix(1,0,0,1,221.2,291.573)">
                    <path d="M0,5.411C-0.912,5.261 -1.459,3.962 -1.22,2.509C-0.982,1.056 -0.049,0 0.863,0.149" style="fill:none;fill-rule:nonzero;stroke:rgb(22,33,45);stroke-width:0.5px;"/>
                </g>
                <g transform="matrix(1,0,0,1,281.372,280.236)">
                    <path d="M0,0.724C-1.002,0.56 -1.602,-0.867 -1.341,-2.464C-1.079,-4.06 -0.054,-5.22 0.948,-5.056L20.887,-0.001C21.889,0.164 22.489,1.591 22.228,3.187C21.966,4.783 20.941,5.944 19.939,5.779L0,0.724Z" style="fill:none;fill-rule:nonzero;stroke:rgb(22,33,45);stroke-width:1px;"/>
                </g>
                <g transform="matrix(0.16188,-0.98681,-0.98681,-0.16188,302.343,281.54)">
                    <ellipse cx="-1.652" cy="0.27" rx="2.666" ry="1.674" style="fill:none;stroke:rgb(22,33,45);stroke-width:0.5px;"/>
                </g>
                <g transform="matrix(1,0,0,1,283.269,275.717)">
                    <path d="M0,5.462C-0.912,5.312 -1.457,4.002 -1.216,2.535C-0.976,1.068 -0.041,0 0.871,0.15" style="fill:none;fill-rule:nonzero;stroke:rgb(22,33,45);stroke-width:0.5px;"/>
                </g>
                <g transform="matrix(1,0,0,1,284.292,276.015)">
                    <path d="M0,5.478C-0.912,5.328 -1.456,4.014 -1.215,2.543C-0.974,1.071 -0.038,0 0.874,0.149" style="fill:none;fill-rule:nonzero;stroke:rgb(22,33,45);stroke-width:0.5px;"/>
                </g>
                <g transform="matrix(1,0,0,1,287.431,276.82)">
                    <path d="M0,5.411C-0.912,5.261 -1.459,3.962 -1.22,2.509C-0.982,1.056 -0.049,0 0.863,0.149" style="fill:none;fill-rule:nonzero;stroke:rgb(22,33,45);stroke-width:0.5px;"/>
                </g>
                <g transform="matrix(-0.952697,-0.303923,-0.303923,0.952697,278.148,274.953)">
                    <path d="M-3.513,4.114L-0.875,4.114C-0.217,4.173 0.392,3.372 0.486,2.325C0.579,1.278 0.122,0.381 -0.535,0.322L-2.863,0.031" style="fill:none;fill-rule:nonzero;stroke:rgb(22,33,45);stroke-width:0.5px;"/>
                </g>
                <g transform="matrix(-0.967315,-0.253577,-0.253577,0.967315,94.0557,257.341)">
                    <path d="M-11.101,6.295L-1.972,6.295C-1.051,6.382 -0.193,5.263 -0.055,3.798C0.083,2.333 -0.552,1.074 -1.473,0.987L-9.64,0.721" style="fill:none;fill-rule:nonzero;stroke:rgb(22,33,45);stroke-width:1px;"/>
                </g>
                <g transform="matrix(0,1,1,0,109.569,263.825)">
                    <path d="M-6.371,-6.371L6.371,-6.371" style="fill:none;fill-rule:nonzero;stroke:black;stroke-width:1px;"/>
                </g>
                <g transform="matrix(1,0,0,1,277.911,275.424)">
                    <path d="M0,3.68C-0.59,3.357 -0.657,2.344 -0.15,1.417C0.357,0.49 1.246,0 1.836,0.322" style="fill:none;fill-rule:nonzero;stroke:rgb(22,33,45);stroke-width:0.25px;"/>
                </g>
                <g transform="matrix(1,0,0,1,278.622,275.629)">
                    <path d="M0,3.68C-0.59,3.357 -0.657,2.344 -0.15,1.417C0.357,0.49 1.246,0 1.836,0.322" style="fill:none;fill-rule:nonzero;stroke:rgb(22,33,45);stroke-width:0.25px;"/>
                </g>
                <g transform="matrix(1,0,0,1,279.438,276.12)">
                    <path d="M0,3.413C-0.59,3.09 -0.657,2.077 -0.15,1.15C0.178,0.549 0.668,0.131 1.133,0" style="fill:none;fill-rule:nonzero;stroke:rgb(22,33,45);stroke-width:0.25px;"/>
                </g>
                <g transform="matrix(1,0,0,1,322.733,273.433)">
                    <path d="M0,5.515C-0.301,-3.866 -4.081,-11.206 -10.052,-12.494C-18.057,-14.22 -26.963,-4.416 -29.944,9.406C-30.717,12.987 -31.012,16.485 -30.892,19.735" style="fill:none;fill-rule:nonzero;stroke:rgb(0,108,250);stroke-width:10px;stroke-linecap:round;stroke-linejoin:round;stroke-miterlimit:4;"/>
                </g>
            </g>
        </g>
        <g transform="matrix(1,0,0,1,312.672,292.654)">
            <path d="M0,-16.304L10.52,0.639L19.935,-16.943L0,-16.304Z" style="fill:rgb(0,108,250);fill-rule:nonzero;"/>
        </g>
    </g>
</svg>
