<?xml version="1.0" encoding="UTF-8" standalone="no"?>
<!DOCTYPE svg PUBLIC "-//W3C//DTD SVG 1.1//EN" "http://www.w3.org/Graphics/SVG/1.1/DTD/svg11.dtd">
<svg width="100%" height="100%" viewBox="0 0 426 426" version="1.1" xmlns="http://www.w3.org/2000/svg" xmlns:xlink="http://www.w3.org/1999/xlink" xml:space="preserve" xmlns:serif="http://www.serif.com/" style="fill-rule:evenodd;clip-rule:evenodd;stroke-miterlimit:10;">
    <g id="Layer-1" serif:id="Layer 1">
        <g>
            <clipPath id="_clip1">
                <rect x="194.872" y="45.676" width="191.143" height="187.541" clip-rule="nonzero"/>
            </clipPath>
            <g clip-path="url(#_clip1)">
                <g transform="matrix(1,0,0,1,268.796,196.144)">
                    <path d="M0,-113.917L-34.059,-122.778L0,-131.639L0,-113.917ZM-0.272,-33.743C-0.272,-33.743 -0.25,-32.522 -1.46,-32.207C-2.67,-31.892 -61.698,-16.536 -61.698,-16.536L-61.698,-60.273L-0.272,-76.656L-0.272,-33.743ZM-61.698,-109.475L-17.857,-98.092L-61.698,-86.709L-61.698,-109.475ZM115.801,-122.615L10.978,-149.834C10.291,-150.013 9.571,-150.013 8.884,-149.834L-68.693,-129.69C-71.635,-128.926 -73.425,-125.122 -73.425,-122.376C-73.424,-119.697 -73.424,1.034 -73.425,4.085C-73.425,6.614 -72.001,9.706 -69.302,10.398C-67.548,10.848 27.74,35.606 28.723,35.861C29.628,36.096 29.993,36.047 30.489,35.921C31.791,35.589 112.446,14.639 113.99,14.238C115.535,13.837 116.719,11.92 116.719,9.543L116.719,-121.427C116.719,-121.986 116.342,-122.474 115.801,-122.615" style="fill:rgb(87,87,92);fill-rule:nonzero;"/>
                </g>
                <g transform="matrix(1,0,0,1,350.674,182.943)">
                    <path d="M0,7.767C0.176,7.721 0.176,7.471 0,7.425L-80.103,-13.273C-80.511,-13.378 -80.939,-13.378 -81.346,-13.273L-132.521,-0.001C-132.697,0.045 -132.697,0.295 -132.521,0.341L-52.564,21.039C-52.157,21.145 -51.729,21.145 -51.321,21.039L0,7.767Z" style="fill:rgb(220,220,220);fill-rule:nonzero;"/>
                </g>
                <g transform="matrix(1,0,0,1,280.434,136.955)">
                    <path d="M0,-46.812L-73.485,-27.312L-74.406,-25.233L-77.458,-24.475L-77.458,0L-1.013,-20.286C-0.416,-20.444 0,-20.985 0,-21.603L0,-46.812Z" style="fill:rgb(220,220,220);fill-rule:nonzero;"/>
                </g>
                <g transform="matrix(1,0,0,1,207.097,119.488)">
                    <path d="M0,60.12L60.238,44.449C60.938,44.267 61.426,43.635 61.426,42.913L61.426,0" style="fill:none;fill-rule:nonzero;stroke:rgb(22,33,45);stroke-width:0.5px;"/>
                </g>
                <g transform="matrix(1,0,0,1,294.914,163.468)">
                    <path d="M0,5.134L-8.433,2.944L-15.95,2.937L-26.805,0" style="fill:none;fill-rule:nonzero;stroke:rgb(22,33,45);stroke-width:0.5px;"/>
                </g>
                <g transform="matrix(1,0,0,1,286.493,138.811)">
                    <path d="M0,27.848L0,0L-7.396,0" style="fill:none;fill-rule:nonzero;stroke:rgb(22,33,45);stroke-width:0.5px;"/>
                </g>
                <g transform="matrix(1,0,0,1,268.523,166.253)">
                    <path d="M0,-30.231L10.574,-27.485L10.574,0" style="fill:none;fill-rule:nonzero;stroke:rgb(22,33,45);stroke-width:0.5px;"/>
                </g>
                <g transform="matrix(-0.967499,-0.252876,-0.252876,0.967499,286.908,137.782)">
                    <path d="M-8.562,1.101L0.141,1.101" style="fill:none;fill-rule:nonzero;stroke:rgb(22,33,45);stroke-width:0.5px;"/>
                </g>
                <g transform="matrix(1,0,0,1,294.914,117.662)">
                    <path d="M0,21.124L-11.894,18.035L-19.548,20.077L-19.548,0" style="fill:none;fill-rule:nonzero;stroke:rgb(22,33,45);stroke-width:0.5px;"/>
                </g>
                <g transform="matrix(0,-1,-1,0,297.714,121.004)">
                    <path d="M-14.694,14.694L14.694,14.694" style="fill:none;fill-rule:nonzero;stroke:rgb(22,33,45);stroke-width:0.5px;"/>
                </g>
                <g transform="matrix(1,0,0,1,202.976,105.524)">
                    <path d="M0,78.378L3.052,77.664L4.122,75.483L4.122,30.347L76.796,10.964C77.187,10.86 77.458,10.506 77.458,10.102L77.458,0" style="fill:none;fill-rule:nonzero;stroke:rgb(22,33,45);stroke-width:0.5px;"/>
                </g>
                <g transform="matrix(1,0,0,1,207.038,109.45)">
                    <path d="M0,-22.796L0,0L44.286,-11.41" style="fill:none;fill-rule:nonzero;stroke:rgb(22,33,45);stroke-width:0.5px;"/>
                </g>
                <g transform="matrix(1,0,0,1,202.909,109.449)">
                    <path d="M0,3.03L3.074,2.273L4.129,0" style="fill:none;fill-rule:nonzero;stroke:rgb(22,33,45);stroke-width:0.5px;"/>
                </g>
                <g transform="matrix(1,0,0,1,234.385,50.0153)">
                    <path d="M0,23.442L36.283,14.002C36.758,13.879 37.172,13.587 37.45,13.182L40.852,8.212C41.084,7.873 41.208,7.472 41.208,7.062L41.208,0" style="fill:none;fill-rule:nonzero;stroke:rgb(22,33,45);stroke-width:0.5px;"/>
                </g>
                <g transform="matrix(0,-1,-1,0,289.114,70.5986)">
                    <path d="M-13.522,13.522L13.522,13.522" style="fill:none;fill-rule:nonzero;stroke:rgb(22,33,45);stroke-width:0.5px;"/>
                </g>
                <g transform="matrix(0.967862,0.251483,0.251483,-0.967862,279.838,43.6732)">
                    <path d="M-1.446,-11.316L88.544,-11.316" style="fill:none;fill-rule:nonzero;stroke:rgb(22,33,45);stroke-width:0.5px;"/>
                </g>
                <g transform="matrix(1,0,0,1,349.201,54.8851)">
                    <path d="M0,25.502L-70.546,7.172C-70.936,7.07 -71.209,6.718 -71.209,6.315L-71.209,0" style="fill:none;fill-rule:nonzero;stroke:rgb(22,33,45);stroke-width:0.5px;"/>
                </g>
                <g transform="matrix(0,1,1,0,277.657,73.3656)">
                    <path d="M-8.861,-8.861L8.861,-8.861" style="fill:none;fill-rule:nonzero;stroke:rgb(22,33,45);stroke-width:0.5px;"/>
                </g>
                <g transform="matrix(0,-1,-1,0,294.451,74.6123)">
                    <path d="M-11.431,11.431L11.431,11.431" style="fill:none;fill-rule:nonzero;stroke:rgb(22,33,45);stroke-width:0.5px;"/>
                </g>
                <g transform="matrix(-0.968708,0.248204,0.248204,0.968708,225.571,76.8386)">
                    <path d="M-53.361,-6.728L0.848,-6.728" style="fill:none;fill-rule:nonzero;stroke:rgb(22,33,45);stroke-width:0.5px;"/>
                </g>
                <g transform="matrix(0,1,1,0,376.582,154.343)">
                    <path d="M-7.562,-7.562L7.562,-7.562" style="fill:none;fill-rule:nonzero;stroke:rgb(22,33,45);stroke-width:0.5px;"/>
                </g>
                <g transform="matrix(0.967905,0.251317,0.251317,-0.967905,348.107,150.2)">
                    <path d="M-4.185,-4.558L16.638,-4.558C17.163,-4.558 17.623,-4.914 17.755,-5.423L24.855,-32.767L35.692,-32.768" style="fill:none;fill-rule:nonzero;stroke:rgb(22,33,45);stroke-width:0.5px;"/>
                </g>
                <g transform="matrix(0.9679,0.251336,0.251336,-0.9679,313.321,166.245)">
                    <path d="M-0.882,-6.907L54.08,-6.907" style="fill:none;fill-rule:nonzero;stroke:rgb(22,33,45);stroke-width:0.5px;"/>
                </g>
                <g transform="matrix(0.967905,0.251316,0.251316,-0.967905,348.415,149.774)">
                    <path d="M-0.359,-2.812L22.019,-2.812" style="fill:none;fill-rule:nonzero;stroke:rgb(22,33,45);stroke-width:0.5px;"/>
                </g>
                <g transform="matrix(0,1,1,0,381.821,106.084)">
                    <path d="M-12.801,-12.801L12.801,-12.801" style="fill:none;fill-rule:nonzero;stroke:rgb(22,33,45);stroke-width:0.5px;"/>
                </g>
                <g transform="matrix(0.967904,0.25132,0.25132,-0.967904,364.472,159.44)">
                    <path d="M-0.185,-1.449L11.346,-1.449" style="fill:none;fill-rule:nonzero;stroke:rgb(22,33,45);stroke-width:0.5px;"/>
                </g>
                <g transform="matrix(-0.967117,0.254332,0.254332,0.967117,203.181,137.461)">
                    <path d="M-4.192,-0.542L0.07,-0.542" style="fill:none;fill-rule:nonzero;stroke:rgb(22,33,45);stroke-width:0.5px;"/>
                </g>
                <g transform="matrix(0.967694,-0.252127,-0.252127,-0.967694,206.662,121.811)">
                    <path d="M-1.278,9.976L77.86,9.977" style="fill:none;fill-rule:nonzero;stroke:rgb(22,33,45);stroke-width:0.5px;"/>
                </g>
                <g transform="matrix(0.967694,-0.252127,-0.252127,-0.967694,206.662,123.032)">
                    <path d="M-1.278,9.976L77.86,9.977" style="fill:none;fill-rule:nonzero;stroke:rgb(22,33,45);stroke-width:0.5px;"/>
                </g>
                <g transform="matrix(0.966102,-0.258159,-0.258159,-0.966102,206.897,145.677)">
                    <path d="M-1.36,10.358L78.885,10.358" style="fill:none;fill-rule:nonzero;stroke:rgb(22,33,45);stroke-width:0.5px;"/>
                </g>
                <g transform="matrix(0.966217,-0.257729,-0.257729,-0.966217,206.884,144.403)">
                    <path d="M-1.355,10.34L78.88,10.339" style="fill:none;fill-rule:nonzero;stroke:rgb(22,33,45);stroke-width:0.5px;"/>
                </g>
                <g transform="matrix(0.967694,-0.252127,-0.252127,-0.967694,206.662,134.614)">
                    <path d="M-1.278,9.976L77.86,9.977" style="fill:none;fill-rule:nonzero;stroke:rgb(22,33,45);stroke-width:0.5px;"/>
                </g>
                <g transform="matrix(0.967694,-0.252127,-0.252127,-0.967694,206.662,133.009)">
                    <path d="M-1.278,9.976L77.86,9.977" style="fill:none;fill-rule:nonzero;stroke:rgb(22,33,45);stroke-width:0.5px;"/>
                </g>
                <g transform="matrix(0.967693,-0.252131,-0.252131,-0.967693,206.708,136.622)">
                    <path d="M-1.294,10.1L78.819,10.1" style="fill:none;fill-rule:nonzero;stroke:rgb(22,33,45);stroke-width:0.5px;"/>
                </g>
                <g transform="matrix(0,-1,-1,0,299.645,228.66)">
                    <ellipse cx="-3.126" cy="0" rx="0.93" ry="3.126" style="fill:none;stroke:rgb(22,33,45);stroke-width:1px;"/>
                </g>
                <g transform="matrix(0,-1,-1,0,206.102,204.454)">
                    <ellipse cx="-3.126" cy="0" rx="0.93" ry="3.126" style="fill:none;stroke:rgb(22,33,45);stroke-width:1px;"/>
                </g>
                <g transform="matrix(0,-1,-1,0,369.92,210.312)">
                    <ellipse cx="-3.126" cy="0" rx="0.93" ry="3.126" style="fill:none;stroke:rgb(22,33,45);stroke-width:1px;"/>
                </g>
                <g transform="matrix(1,0,0,1,350.674,182.943)">
                    <path d="M0,7.767C0.176,7.721 0.176,7.471 0,7.425L-80.103,-13.273C-80.511,-13.378 -80.939,-13.378 -81.346,-13.273L-132.521,-0.001C-132.697,0.045 -132.697,0.295 -132.521,0.341L-52.564,21.039C-52.157,21.145 -51.729,21.145 -51.321,21.039L0,7.767Z" style="fill:none;fill-rule:nonzero;stroke:rgb(22,33,45);stroke-width:0.5px;"/>
                </g>
                <g transform="matrix(0.967978,-0.251036,-0.251036,-0.967978,250.329,197.323)">
                    <path d="M-0.868,6.805L53.351,6.806" style="fill:none;fill-rule:nonzero;stroke:rgb(22,33,45);stroke-width:0.5px;"/>
                </g>
                <g transform="matrix(0.967977,-0.251038,-0.251038,-0.967977,270.962,202.666)">
                    <path d="M-0.868,6.808L53.37,6.808" style="fill:none;fill-rule:nonzero;stroke:rgb(22,33,45);stroke-width:0.5px;"/>
                </g>
                <g transform="matrix(-0.967979,-0.251032,-0.251032,0.967979,260.825,163.042)">
                    <path d="M-82.562,10.532L1.343,10.532" style="fill:none;fill-rule:nonzero;stroke:rgb(22,33,45);stroke-width:0.5px;"/>
                </g>
                <g transform="matrix(-0.967976,-0.251042,-0.251042,0.967976,247.546,166.486)">
                    <path d="M-82.543,10.53L1.343,10.53" style="fill:none;fill-rule:nonzero;stroke:rgb(22,33,45);stroke-width:0.5px;"/>
                </g>
                <g transform="matrix(-0.967976,-0.251041,-0.251041,0.967976,234.42,169.893)">
                    <path d="M-82.524,10.527L1.343,10.527" style="fill:none;fill-rule:nonzero;stroke:rgb(22,33,45);stroke-width:0.5px;"/>
                </g>
                <g transform="matrix(1,0,0,1,349.992,178.973)">
                    <path d="M0,11.913L-0.199,5.458C-0.208,5.142 -0.426,4.87 -0.732,4.79L-29.055,-2.556C-29.485,-2.667 -29.936,-2.667 -30.365,-2.555L-39.397,-0.204C-39.713,-0.121 -39.94,0.156 -39.958,0.482L-40.293,6.533C-40.306,6.773 -40.149,6.989 -39.917,7.051L-11.097,14.485C-10.743,14.579 -10.371,14.58 -10.017,14.489L0,11.913Z" style="fill:rgb(87,87,92);fill-rule:nonzero;stroke:rgb(22,33,45);stroke-width:0.5px;"/>
                </g>
                <g transform="matrix(1,0,0,1,348.912,179.152)">
                    <path d="M0,4.521L-9.469,7.001C-9.919,7.119 -10.391,7.12 -10.842,7.004L-37.538,0.129L-27.452,-2.599L-27.457,2.725" style="fill:none;fill-rule:nonzero;stroke:rgb(22,33,45);stroke-width:0.5px;stroke-linecap:round;stroke-linejoin:round;"/>
                </g>
                <g transform="matrix(0.0440884,-0.999028,-0.999028,-0.0440884,341.297,190.146)">
                    <path d="M-2.58,2.697L2.818,2.697" style="fill:none;fill-rule:nonzero;stroke:rgb(22,33,45);stroke-width:0.5px;stroke-linecap:round;stroke-linejoin:round;"/>
                </g>
                <g transform="matrix(1,0,0,1,321.957,178.828)">
                    <path d="M0,10.083L0.35,3.151L9.883,0" style="fill:none;fill-rule:nonzero;stroke:rgb(220,220,220);stroke-width:0.5px;stroke-linecap:round;stroke-linejoin:round;"/>
                </g>
                <g transform="matrix(1,0,0,1,246.282,186.595)">
                    <path d="M0,3.977L-3.486,3.057C-3.627,3.02 -3.725,2.893 -3.725,2.747L-3.725,0.483C-3.725,0.209 -3.465,0.009 -3.2,0.079L-0.249,0.86C0.013,0.929 0.288,0.935 0.553,0.878L3.973,0.016C4.109,-0.019 4.239,-0.047 4.239,0.305C4.239,0.576 4.249,2.017 4.254,2.666C4.255,2.854 4.126,3.015 3.943,3.058L0.516,3.984C0.346,4.024 0.169,4.022 0,3.977Z" style="fill:rgb(220,220,220);fill-rule:nonzero;stroke:rgb(22,33,45);stroke-width:0.5px;stroke-linejoin:round;"/>
                </g>
                <g transform="matrix(0,-1,-1,0,247.864,189.044)">
                    <path d="M-1.432,1.432L1.432,1.432" style="fill:none;fill-rule:nonzero;stroke:rgb(22,33,45);stroke-width:0.5px;"/>
                </g>
                <g transform="matrix(1,0,0,1,241.767,180.713)">
                    <path d="M0,-0.409L5.459,-1.714L5.459,1.127L4.779,1.305" style="fill:rgb(220,220,220);fill-rule:nonzero;stroke:rgb(22,33,45);stroke-width:0.5px;stroke-linejoin:round;"/>
                </g>
                <g transform="matrix(1,0,0,1,246.547,182.635)">
                    <path d="M0,-1.105L0,1.25L-3.548,0.352C-3.798,0.288 -4.059,0.288 -4.309,0.349L-8.721,1.399L-8.721,-0.954C-8.721,-1.212 -8.545,-1.437 -8.295,-1.499L-4.321,-2.44C-4.063,-2.504 -3.794,-2.503 -3.536,-2.439L-0.438,-1.666C-0.181,-1.602 0,-1.37 0,-1.105Z" style="fill:rgb(220,220,220);fill-rule:nonzero;stroke:rgb(22,33,45);stroke-width:0.5px;stroke-linejoin:round;"/>
                </g>
                <g transform="matrix(1,0,0,1,255.178,177.36)">
                    <path d="M0,-0.409L5.459,-1.714L5.459,1.127L4.779,1.305" style="fill:rgb(220,220,220);fill-rule:nonzero;stroke:rgb(22,33,45);stroke-width:0.5px;stroke-linejoin:round;"/>
                </g>
                <g transform="matrix(1,0,0,1,259.957,179.283)">
                    <path d="M0,-1.105L0,1.25L-3.548,0.352C-3.798,0.288 -4.059,0.288 -4.309,0.349L-8.721,1.399L-8.721,-0.954C-8.721,-1.212 -8.545,-1.437 -8.295,-1.499L-4.321,-2.44C-4.063,-2.504 -3.794,-2.503 -3.536,-2.439L-0.438,-1.666C-0.181,-1.602 0,-1.37 0,-1.105Z" style="fill:rgb(220,220,220);fill-rule:nonzero;stroke:rgb(22,33,45);stroke-width:0.5px;stroke-linejoin:round;"/>
                </g>
                <g transform="matrix(1,0,0,1,268.091,173.902)">
                    <path d="M0,-0.409L5.459,-1.714L5.459,1.127L4.779,1.305" style="fill:rgb(220,220,220);fill-rule:nonzero;stroke:rgb(22,33,45);stroke-width:0.5px;stroke-linejoin:round;"/>
                </g>
                <g transform="matrix(1,0,0,1,272.871,175.825)">
                    <path d="M0,-1.105L0,1.25L-3.548,0.352C-3.798,0.288 -4.059,0.288 -4.309,0.349L-8.721,1.399L-8.721,-0.954C-8.721,-1.212 -8.545,-1.437 -8.295,-1.499L-4.321,-2.44C-4.063,-2.504 -3.794,-2.503 -3.536,-2.439L-0.438,-1.666C-0.181,-1.602 0,-1.37 0,-1.105Z" style="fill:rgb(220,220,220);fill-rule:nonzero;stroke:rgb(22,33,45);stroke-width:0.5px;stroke-linejoin:round;"/>
                </g>
                <g transform="matrix(1,0,0,1,285.125,172.906)">
                    <path d="M0,-1.105L0,1.25L-3.548,0.352C-3.798,0.288 -4.059,0.288 -4.309,0.349L-7.769,1.399L-7.769,-1.134C-7.769,-1.392 -7.593,-1.617 -7.342,-1.679L-4.321,-2.44C-4.063,-2.504 -3.794,-2.503 -3.536,-2.439L-0.438,-1.666C-0.181,-1.602 0,-1.37 0,-1.105Z" style="fill:rgb(220,220,220);fill-rule:nonzero;stroke:rgb(22,33,45);stroke-width:0.5px;stroke-linejoin:round;"/>
                </g>
                <g transform="matrix(-0.96893,-0.247336,-0.247336,0.96893,294.456,176.986)">
                    <path d="M-3.684,-3.546L0.578,-3.546L-0.706,1.484L-4.446,-0.559L-3.684,-3.546Z" style="fill:white;fill-rule:nonzero;stroke:rgb(22,33,45);stroke-width:0.5px;stroke-linejoin:round;"/>
                </g>
                <g transform="matrix(-0.972171,0.234272,0.234272,0.972171,294.947,175.926)">
                    <path d="M-4.188,-0.497L0.059,-0.498" style="fill:none;fill-rule:nonzero;stroke:rgb(22,33,45);stroke-width:0.5px;stroke-linejoin:round;"/>
                </g>
                <g transform="matrix(1,0,0,1,304.606,177.63)">
                    <path d="M0,-0.967L0,1.388L-3.548,0.49C-3.798,0.426 -4.059,0.426 -4.309,0.487L-7.769,1.399L-7.769,-0.996C-7.769,-1.254 -7.593,-1.479 -7.342,-1.541L-4.321,-2.302C-4.063,-2.366 -3.794,-2.365 -3.536,-2.301L-0.438,-1.528C-0.181,-1.464 0,-1.232 0,-0.967Z" style="fill:white;fill-rule:nonzero;stroke:rgb(22,33,45);stroke-width:0.5px;stroke-linejoin:round;"/>
                </g>
                <g transform="matrix(0.96893,-0.247336,-0.247336,-0.96893,229.681,183.82)">
                    <path d="M0.445,0.463L4.707,0.463L3.423,-4.567L-0.317,-2.524L0.445,0.463Z" style="fill:rgb(220,220,220);fill-rule:nonzero;stroke:rgb(22,33,45);stroke-width:0.5px;stroke-linejoin:round;"/>
                </g>
                <g transform="matrix(0.972171,0.234272,0.234272,-0.972171,230.172,182.792)">
                    <path d="M-0.059,-0.498L4.188,-0.497" style="fill:none;fill-rule:nonzero;stroke:rgb(22,33,45);stroke-width:0.5px;stroke-linejoin:round;"/>
                </g>
                <g transform="matrix(1,0,0,1,259.597,184.969)">
                    <path d="M0,-0.356L-4.001,-1.366L-4.001,1.01" style="fill:rgb(220,220,220);fill-rule:nonzero;stroke:rgb(22,33,45);stroke-width:0.5px;stroke-linejoin:round;"/>
                </g>
                <g transform="matrix(-0.968966,0.247195,0.247195,0.968966,254.488,186.784)">
                    <path d="M-9.595,1.472L0.498,1.472L-0.185,-1.205L-10.278,-1.205L-9.595,1.472Z" style="fill:rgb(220,220,220);fill-rule:nonzero;stroke:rgb(22,33,45);stroke-width:0.5px;stroke-linejoin:round;"/>
                </g>
                <g transform="matrix(1,0,0,1,266.317,191.63)">
                    <path d="M0,3.977L-3.486,3.057C-3.627,3.02 -3.725,2.893 -3.725,2.747L-3.725,0.483C-3.725,0.209 -3.465,0.009 -3.2,0.079L-0.249,0.86C0.013,0.929 0.288,0.935 0.553,0.878L3.973,0.016C4.109,-0.019 4.239,-0.047 4.239,0.305C4.239,0.576 4.249,2.017 4.254,2.666C4.255,2.854 4.126,3.015 3.943,3.058L0.516,3.984C0.346,4.024 0.169,4.022 0,3.977Z" style="fill:rgb(220,220,220);fill-rule:nonzero;stroke:rgb(22,33,45);stroke-width:0.5px;stroke-linejoin:round;"/>
                </g>
                <g transform="matrix(0,-1,-1,0,267.898,194.08)">
                    <path d="M-1.432,1.432L1.432,1.432" style="fill:none;fill-rule:nonzero;stroke:rgb(22,33,45);stroke-width:0.5px;"/>
                </g>
                <g transform="matrix(1,0,0,1,261.802,185.748)">
                    <path d="M0,-0.409L5.459,-1.714L5.459,1.127L4.779,1.305" style="fill:rgb(220,220,220);fill-rule:nonzero;stroke:rgb(22,33,45);stroke-width:0.5px;stroke-linejoin:round;"/>
                </g>
                <g transform="matrix(1,0,0,1,266.581,187.67)">
                    <path d="M0,-1.105L0,1.25L-3.548,0.352C-3.798,0.288 -4.059,0.288 -4.309,0.349L-8.721,1.399L-8.721,-0.954C-8.721,-1.212 -8.545,-1.437 -8.295,-1.499L-4.321,-2.44C-4.063,-2.504 -3.794,-2.503 -3.536,-2.439L-0.438,-1.666C-0.181,-1.602 0,-1.37 0,-1.105Z" style="fill:rgb(220,220,220);fill-rule:nonzero;stroke:rgb(22,33,45);stroke-width:0.5px;stroke-linejoin:round;"/>
                </g>
                <g transform="matrix(1,0,0,1,272.804,181.605)">
                    <path d="M0,-0.356L-4.001,-1.366L-4.001,1.01" style="fill:rgb(220,220,220);fill-rule:nonzero;stroke:rgb(22,33,45);stroke-width:0.5px;stroke-linejoin:round;"/>
                </g>
                <g transform="matrix(-0.968966,0.247195,0.247195,0.968966,267.695,183.42)">
                    <path d="M-9.595,1.472L0.498,1.472L-0.185,-1.205L-10.278,-1.205L-9.595,1.472Z" style="fill:rgb(220,220,220);fill-rule:nonzero;stroke:rgb(22,33,45);stroke-width:0.5px;stroke-linejoin:round;"/>
                </g>
                <g transform="matrix(1,0,0,1,275.009,182.383)">
                    <path d="M0,-0.409L5.459,-1.714L5.459,1.127L4.779,1.305" style="fill:rgb(220,220,220);fill-rule:nonzero;stroke:rgb(22,33,45);stroke-width:0.5px;stroke-linejoin:round;"/>
                </g>
                <g transform="matrix(1,0,0,1,279.788,184.306)">
                    <path d="M0,-1.105L0,1.25L-3.548,0.352C-3.798,0.288 -4.059,0.288 -4.309,0.349L-8.721,1.399L-8.721,-0.954C-8.721,-1.212 -8.545,-1.437 -8.295,-1.499L-4.321,-2.44C-4.063,-2.504 -3.794,-2.503 -3.536,-2.439L-0.438,-1.666C-0.181,-1.602 0,-1.37 0,-1.105Z" style="fill:rgb(220,220,220);fill-rule:nonzero;stroke:rgb(22,33,45);stroke-width:0.5px;stroke-linejoin:round;"/>
                </g>
                <g transform="matrix(1,0,0,1,293.014,186.717)">
                    <path d="M0,-0.356L-4.001,-1.366L-4.001,1.01" style="fill:rgb(220,220,220);fill-rule:nonzero;stroke:rgb(22,33,45);stroke-width:0.5px;stroke-linejoin:round;"/>
                </g>
                <g transform="matrix(-0.968966,0.247195,0.247195,0.968966,287.904,188.532)">
                    <path d="M-9.595,1.472L0.498,1.472L-0.185,-1.205L-10.278,-1.205L-9.595,1.472Z" style="fill:rgb(220,220,220);fill-rule:nonzero;stroke:rgb(22,33,45);stroke-width:0.5px;stroke-linejoin:round;"/>
                </g>
                <g transform="matrix(1,0,0,1,295.218,187.496)">
                    <path d="M0,-0.409L5.459,-1.714L5.459,1.127L4.779,1.305" style="fill:rgb(220,220,220);fill-rule:nonzero;stroke:rgb(22,33,45);stroke-width:0.5px;stroke-linejoin:round;"/>
                </g>
                <g transform="matrix(1,0,0,1,299.998,189.418)">
                    <path d="M0,-1.105L0,1.25L-3.548,0.352C-3.798,0.288 -4.059,0.288 -4.309,0.349L-8.721,1.399L-8.721,-0.954C-8.721,-1.212 -8.545,-1.437 -8.295,-1.499L-4.321,-2.44C-4.063,-2.504 -3.794,-2.503 -3.536,-2.439L-0.438,-1.666C-0.181,-1.602 0,-1.37 0,-1.105Z" style="fill:rgb(220,220,220);fill-rule:nonzero;stroke:rgb(22,33,45);stroke-width:0.5px;stroke-linejoin:round;"/>
                </g>
                <g transform="matrix(1,0,0,1,285.992,178.159)">
                    <path d="M0,-0.356L-4.001,-1.366L-4.001,1.01" style="fill:rgb(220,220,220);fill-rule:nonzero;stroke:rgb(22,33,45);stroke-width:0.5px;stroke-linejoin:round;"/>
                </g>
                <g transform="matrix(-0.968966,0.247195,0.247195,0.968966,280.883,179.974)">
                    <path d="M-9.595,1.472L0.498,1.472L-0.185,-1.205L-10.278,-1.205L-9.595,1.472Z" style="fill:rgb(220,220,220);fill-rule:nonzero;stroke:rgb(22,33,45);stroke-width:0.5px;stroke-linejoin:round;"/>
                </g>
                <g transform="matrix(1,0,0,1,288.197,178.937)">
                    <path d="M0,-0.409L5.459,-1.714L5.459,1.127L4.779,1.305" style="fill:rgb(220,220,220);fill-rule:nonzero;stroke:rgb(22,33,45);stroke-width:0.5px;stroke-linejoin:round;"/>
                </g>
                <g transform="matrix(1,0,0,1,292.976,180.86)">
                    <path d="M0,-1.105L0,1.25L-3.548,0.352C-3.798,0.288 -4.059,0.288 -4.309,0.349L-8.721,1.399L-8.721,-0.954C-8.721,-1.212 -8.545,-1.437 -8.295,-1.499L-4.321,-2.44C-4.063,-2.504 -3.794,-2.503 -3.536,-2.439L-0.438,-1.666C-0.181,-1.602 0,-1.37 0,-1.105Z" style="fill:rgb(220,220,220);fill-rule:nonzero;stroke:rgb(22,33,45);stroke-width:0.5px;stroke-linejoin:round;"/>
                </g>
                <g transform="matrix(1,0,0,1,306.202,183.271)">
                    <path d="M0,-0.356L-4.001,-1.366L-4.001,1.01" style="fill:white;fill-rule:nonzero;stroke:rgb(22,33,45);stroke-width:0.5px;stroke-linejoin:round;"/>
                </g>
                <g transform="matrix(-0.968966,0.247195,0.247195,0.968966,301.093,185.086)">
                    <path d="M-9.595,1.472L0.498,1.472L-0.185,-1.205L-10.278,-1.205L-9.595,1.472Z" style="fill:white;fill-rule:nonzero;stroke:rgb(22,33,45);stroke-width:0.5px;stroke-linejoin:round;"/>
                </g>
                <g transform="matrix(1,0,0,1,313.186,185.972)">
                    <path d="M0,-1.105L0,1.25L-3.548,0.352C-3.798,0.288 -4.059,0.288 -4.309,0.349L-8.721,1.399L-8.721,-0.954C-8.721,-1.212 -8.545,-1.437 -8.295,-1.499L-4.321,-2.44C-4.063,-2.504 -3.794,-2.503 -3.536,-2.439L-0.438,-1.666C-0.181,-1.602 0,-1.37 0,-1.105Z" style="fill:rgb(220,220,220);fill-rule:nonzero;stroke:rgb(22,33,45);stroke-width:0.5px;stroke-linejoin:round;"/>
                </g>
                <g transform="matrix(0.96893,-0.247336,-0.247336,-0.96893,249.716,188.855)">
                    <path d="M0.445,0.463L4.707,0.463L3.423,-4.567L-0.317,-2.524L0.445,0.463Z" style="fill:rgb(220,220,220);fill-rule:nonzero;stroke:rgb(22,33,45);stroke-width:0.5px;stroke-linejoin:round;"/>
                </g>
                <g transform="matrix(0.972171,0.234272,0.234272,-0.972171,250.207,187.827)">
                    <path d="M-0.059,-0.498L4.188,-0.497" style="fill:none;fill-rule:nonzero;stroke:rgb(22,33,45);stroke-width:0.5px;stroke-linejoin:round;"/>
                </g>
                <g transform="matrix(1,0,0,1,279.632,190.004)">
                    <path d="M0,-0.356L-4.001,-1.366L-4.001,1.01" style="fill:rgb(220,220,220);fill-rule:nonzero;stroke:rgb(22,33,45);stroke-width:0.5px;stroke-linejoin:round;"/>
                </g>
                <g transform="matrix(-0.968966,0.247195,0.247195,0.968966,274.523,191.819)">
                    <path d="M-9.595,1.472L0.498,1.472L-0.185,-1.205L-10.278,-1.205L-9.595,1.472Z" style="fill:rgb(220,220,220);fill-rule:nonzero;stroke:rgb(22,33,45);stroke-width:0.5px;stroke-linejoin:round;"/>
                </g>
                <g transform="matrix(1,0,0,1,286.574,196.999)">
                    <path d="M0,3.977L-3.486,3.057C-3.627,3.02 -3.725,2.893 -3.725,2.747L-3.725,0.483C-3.725,0.209 -3.465,0.009 -3.2,0.079L-0.249,0.86C0.013,0.929 0.288,0.935 0.553,0.878L3.973,0.016C4.109,-0.019 4.239,-0.047 4.239,0.305C4.239,0.576 4.249,2.017 4.254,2.666C4.255,2.854 4.126,3.015 3.943,3.058L0.516,3.984C0.346,4.024 0.169,4.022 0,3.977Z" style="fill:rgb(220,220,220);fill-rule:nonzero;stroke:rgb(22,33,45);stroke-width:0.5px;stroke-linejoin:round;"/>
                </g>
                <g transform="matrix(0,-1,-1,0,288.156,199.448)">
                    <path d="M-1.432,1.432L1.432,1.432" style="fill:none;fill-rule:nonzero;stroke:rgb(22,33,45);stroke-width:0.5px;"/>
                </g>
                <g transform="matrix(1,0,0,1,282.059,191.116)">
                    <path d="M0,-0.409L5.459,-1.714L5.459,1.127L4.779,1.305" style="fill:rgb(220,220,220);fill-rule:nonzero;stroke:rgb(22,33,45);stroke-width:0.5px;stroke-linejoin:round;"/>
                </g>
                <g transform="matrix(1,0,0,1,286.839,193.039)">
                    <path d="M0,-1.105L0,1.25L-3.548,0.352C-3.798,0.288 -4.059,0.288 -4.309,0.349L-8.721,1.399L-8.721,-0.954C-8.721,-1.212 -8.545,-1.437 -8.295,-1.499L-4.321,-2.44C-4.063,-2.504 -3.794,-2.503 -3.536,-2.439L-0.438,-1.666C-0.181,-1.602 0,-1.37 0,-1.105Z" style="fill:rgb(220,220,220);fill-rule:nonzero;stroke:rgb(22,33,45);stroke-width:0.5px;stroke-linejoin:round;"/>
                </g>
                <g transform="matrix(0.96893,-0.247336,-0.247336,-0.96893,269.973,194.224)">
                    <path d="M0.445,0.463L4.707,0.463L3.423,-4.567L-0.317,-2.524L0.445,0.463Z" style="fill:rgb(220,220,220);fill-rule:nonzero;stroke:rgb(22,33,45);stroke-width:0.5px;stroke-linejoin:round;"/>
                </g>
                <g transform="matrix(0.972171,0.234272,0.234272,-0.972171,270.465,193.195)">
                    <path d="M-0.059,-0.498L4.188,-0.497" style="fill:none;fill-rule:nonzero;stroke:rgb(22,33,45);stroke-width:0.5px;stroke-linejoin:round;"/>
                </g>
                <g transform="matrix(1,0,0,1,299.89,195.373)">
                    <path d="M0,-0.356L-4.001,-1.366L-4.001,1.01" style="fill:white;fill-rule:nonzero;stroke:rgb(22,33,45);stroke-width:0.5px;stroke-linejoin:round;"/>
                </g>
                <g transform="matrix(-0.960353,0.278786,0.278786,0.960353,294.766,197.113)">
                    <path d="M-7.891,1.53L0.552,1.53L-0.218,-1.122L-8.661,-1.122L-7.891,1.53Z" style="fill:white;fill-rule:nonzero;stroke:rgb(22,33,45);stroke-width:0.5px;stroke-linejoin:round;"/>
                </g>
                <g transform="matrix(1,0,0,1,310.85,192.165)">
                    <path d="M0,-0.356L-4.001,-1.366L-4.001,1.01" style="fill:rgb(220,220,220);fill-rule:nonzero;stroke:rgb(22,33,45);stroke-width:0.5px;stroke-linejoin:round;"/>
                </g>
                <g transform="matrix(-0.960353,0.278786,0.278786,0.960353,305.726,193.906)">
                    <path d="M-7.891,1.53L0.552,1.53L-0.218,-1.122L-8.661,-1.122L-7.891,1.53Z" style="fill:rgb(220,220,220);fill-rule:nonzero;stroke:rgb(22,33,45);stroke-width:0.5px;stroke-linejoin:round;"/>
                </g>
                <g transform="matrix(1,0,0,1,322.896,188.797)">
                    <path d="M0,-0.794L-3.103,-1.585L-3.103,0.791" style="fill:white;fill-rule:nonzero;stroke:rgb(22,33,45);stroke-width:0.5px;stroke-linejoin:round;"/>
                </g>
                <g transform="matrix(-0.964985,0.262306,0.262306,0.964985,318.434,189.776)">
                    <path d="M-4.046,2.125L0.441,2.125L-0.284,-0.54L-4.771,-0.54L-4.046,2.125Z" style="fill:rgb(220,220,220);fill-rule:nonzero;stroke:rgb(22,33,45);stroke-width:0.5px;stroke-linejoin:round;"/>
                </g>
                <g transform="matrix(1,0,0,1,229.756,112.522)">
                    <path d="M0,13.06L-0.175,-5.354C-0.175,-5.768 -0.551,-6.08 -0.958,-6.002C-1.547,-5.89 -2.695,-5.524 -3.002,-5.456C-3.537,-5.337 -5.144,-4.721 -5.144,-1.513L-5.144,3.093C-5.144,4.103 -5.322,6.42 -7.401,6.954C-9.48,7.489 -21.48,10.519 -22.55,10.816C-23.619,11.113 -23.441,12.123 -23.441,12.479L-23.441,18.263C-23.441,18.77 -22.962,19.14 -22.472,19.013L0,13.06Z" style="fill:rgb(220,220,220);fill-rule:nonzero;stroke:rgb(22,33,45);stroke-width:0.5px;"/>
                </g>
                <g transform="matrix(1,0,0,1,316.508,106.327)">
                    <path d="M0,47.08L-88.901,23.979C-90.564,23.561 -90.951,22.224 -90.951,20.917L-90.951,3.987C-90.951,1.343 -89.673,0.69 -88.901,0.511C-88.313,0.376 -87.284,0.14 -86.828,0.035C-86.676,0 -86.52,0.003 -86.369,0.042L10.944,25.331" style="fill:rgb(220,220,220);fill-rule:nonzero;stroke:rgb(22,33,45);stroke-width:0.5px;"/>
                </g>
                <g transform="matrix(1,0,0,1,252.323,138.065)">
                    <path d="M0,-65.485L-16.722,-69.775C-16.985,-69.842 -17.424,-69.917 -17.748,-69.815L-30.223,-66.576C-30.272,-66.565 -30.322,-66.555 -30.366,-66.539L-30.431,-66.522L-30.428,-66.508C-31.099,-66.218 -31.213,-65.367 -31.213,-64.704L-31.213,-3.375C-31.213,-1.883 -30.889,-0.416 -29.624,-0.084L-12.724,4.357C-12.479,4.425 -12.237,4.432 -12.008,4.391L-12.008,4.394C-12.008,4.394 -11.994,4.391 -11.99,4.39C-11.971,4.386 -11.954,4.38 -11.936,4.376C-11.381,4.232 -7.489,3.219 -6.538,2.929C-5.513,2.617 -5.275,1.578 -5.275,0.969L-5.275,-22.214C-5.275,-25.407 -3.166,-26.477 -2.364,-26.685C-1.721,-26.851 0.611,-27.428 1.511,-27.651C1.724,-27.703 1.868,-27.893 1.868,-28.112L1.868,-62.243C1.868,-63.424 1.628,-65.067 0,-65.485" style="fill:rgb(220,220,220);fill-rule:nonzero;"/>
                </g>
                <g transform="matrix(1,0,0,1,239.759,137.979)">
                    <path d="M0,-62.157L-16.722,-66.447C-18.444,-66.888 -18.649,-65.554 -18.649,-64.618L-18.649,-3.289C-18.649,-1.797 -18.324,-0.33 -17.06,0.002L-0.159,4.443C0.866,4.731 1.868,3.996 1.868,2.726L1.868,-58.915C1.868,-60.096 1.628,-61.739 0,-62.157Z" style="fill:rgb(87,87,92);fill-rule:nonzero;stroke:rgb(22,33,45);stroke-width:0.5px;"/>
                </g>
                <g transform="matrix(1,0,0,1,252.323,138.065)">
                    <path d="M0,-65.485L-16.722,-69.775C-16.985,-69.842 -17.424,-69.917 -17.748,-69.815L-30.223,-66.576C-30.272,-66.565 -30.322,-66.555 -30.366,-66.539L-30.431,-66.522L-30.428,-66.508C-31.099,-66.218 -31.213,-65.367 -31.213,-64.704L-31.213,-3.375C-31.213,-1.883 -30.889,-0.416 -29.624,-0.084L-12.724,4.357C-12.479,4.425 -12.237,4.432 -12.008,4.391L-12.008,4.394C-12.008,4.394 -11.994,4.391 -11.99,4.39C-11.971,4.386 -11.954,4.38 -11.936,4.376C-11.381,4.232 -7.489,3.219 -6.538,2.929C-5.513,2.617 -5.275,1.578 -5.275,0.969L-5.275,-22.214C-5.275,-25.407 -3.166,-26.477 -2.364,-26.685C-1.721,-26.851 0.611,-27.428 1.511,-27.651C1.724,-27.703 1.868,-27.893 1.868,-28.112L1.868,-62.243C1.868,-63.424 1.628,-65.067 0,-65.485Z" style="fill:none;fill-rule:nonzero;stroke:rgb(22,33,45);stroke-width:0.5px;"/>
                </g>
                <g transform="matrix(1,0,0,1,230.645,116.882)">
                    <path d="M0,-34.549L-5.975,-36.068C-6.186,-36.122 -6.407,-36.121 -6.618,-36.066L-7.723,-35.777C-7.761,-35.772 -7.795,-35.761 -7.831,-35.749L-7.931,-35.723L-7.927,-35.704C-8.145,-35.592 -8.307,-35.38 -8.307,-35.11L-8.307,-1.296C-8.307,-0.652 -7.872,-0.089 -7.249,0.074L-1.648,1.535C-1.502,1.573 -1.364,1.547 -1.236,1.497L-1.233,1.516L-0.027,1.193C0.44,1.068 0.764,0.645 0.764,0.162L0.766,-33.564C0.766,-34.029 0.45,-34.434 0,-34.549Z" style="fill:rgb(87,87,92);fill-rule:nonzero;stroke:rgb(22,33,45);stroke-width:0.5px;"/>
                </g>
                <g transform="matrix(1,0,0,1,228.996,81.1108)">
                    <path d="M0,37.306L-5.601,35.845C-6.224,35.682 -6.659,35.119 -6.659,34.475L-6.659,0.661C-6.659,0.214 -6.236,-0.113 -5.804,0L-0.203,1.461C0.421,1.624 0.856,2.187 0.856,2.831L0.856,36.645C0.856,37.092 0.433,37.419 0,37.306Z" style="fill:none;fill-rule:nonzero;stroke:rgb(22,33,45);stroke-width:0.5px;"/>
                </g>
                <g transform="matrix(1,0,0,1,229.412,80.7606)">
                    <path d="M0,37.637L1.206,37.314C1.672,37.189 1.997,36.766 1.997,36.284L1.998,2.557C1.998,2.092 1.683,1.687 1.232,1.572L-4.743,0.053C-4.954,0 -5.175,0 -5.385,0.055L-6.698,0.398" style="fill:none;fill-rule:nonzero;stroke:rgb(22,33,45);stroke-width:0.5px;"/>
                </g>
                <g transform="matrix(1,0,0,1,238.157,118.919)">
                    <path d="M0,-34.549L-5.975,-36.068C-6.186,-36.122 -6.407,-36.121 -6.618,-36.066L-7.723,-35.777C-7.761,-35.772 -7.795,-35.761 -7.831,-35.749L-7.931,-35.723L-7.927,-35.704C-8.145,-35.592 -8.307,-35.38 -8.307,-35.11L-8.307,-1.296C-8.307,-0.652 -7.872,-0.089 -7.249,0.074L-1.648,1.535C-1.502,1.573 -1.364,1.547 -1.236,1.497L-1.233,1.516L-0.027,1.193C0.44,1.068 0.764,0.645 0.764,0.162L0.766,-33.564C0.766,-34.029 0.45,-34.434 0,-34.549Z" style="fill:rgb(87,87,92);fill-rule:nonzero;stroke:rgb(22,33,45);stroke-width:0.5px;"/>
                </g>
                <g transform="matrix(1,0,0,1,236.509,83.1481)">
                    <path d="M0,37.306L-5.601,35.845C-6.224,35.682 -6.659,35.119 -6.659,34.475L-6.659,0.661C-6.659,0.214 -6.236,-0.113 -5.804,0L-0.203,1.461C0.421,1.624 0.856,2.187 0.856,2.831L0.856,36.645C0.856,37.092 0.433,37.419 0,37.306Z" style="fill:none;fill-rule:nonzero;stroke:rgb(22,33,45);stroke-width:0.5px;"/>
                </g>
                <g transform="matrix(1,0,0,1,236.925,82.7979)">
                    <path d="M0,37.637L1.206,37.314C1.672,37.189 1.997,36.766 1.997,36.284L1.998,2.557C1.998,2.092 1.683,1.687 1.233,1.572L-4.743,0.053C-4.954,0 -5.175,0 -5.385,0.055L-6.698,0.398" style="fill:none;fill-rule:nonzero;stroke:rgb(22,33,45);stroke-width:0.5px;"/>
                </g>
                <g transform="matrix(1,0,0,1,373.672,87.1497)">
                    <path d="M0,104.071L-61.63,120.074C-62.511,120.267 -62.941,120.107 -62.941,118.657L-62.941,74.767L1.418,58.055L1.418,102.237C1.418,103.223 1.061,103.76 0,104.071M-163.374,-19.925C-163.641,-19.994 -163.641,-20.372 -163.375,-20.441L-99.68,-37.006C-98.903,-37.208 -98.087,-37.208 -97.31,-37.006L-3.586,-12.688C-3.32,-12.619 -3.32,-12.242 -3.587,-12.173L-67.284,4.328C-68.059,4.529 -68.872,4.529 -69.647,4.328L-163.374,-19.925ZM-78.757,119.488C-78.757,120.939 -79.187,121.099 -80.068,120.906L-169.344,97.953C-170.404,97.642 -170.762,97.106 -170.762,96.12L-170.762,0.644C-170.762,-0.595 -170.78,-1.565 -169.581,-1.253L-80.092,21.754C-79.257,21.971 -78.757,22.705 -78.757,23.994L-78.757,119.488ZM1.418,6.762L1.418,31.292L-0.526,30.787L-62.941,46.995L-62.941,23.162C-62.941,21.873 -62.441,21.139 -61.606,20.922L0.237,4.864C1.437,4.553 1.418,5.523 1.418,6.762M10.925,-13.621L-93.898,-40.84C-94.585,-41.019 -95.305,-41.019 -95.992,-40.84L-173.569,-20.696C-176.511,-19.932 -178.301,-16.128 -178.301,-13.382C-178.3,-10.703 -178.3,110.028 -178.301,113.08C-178.301,115.608 -176.877,118.7 -174.178,119.392C-172.424,119.842 -77.135,144.6 -76.153,144.855C-75.248,145.09 -74.883,145.041 -74.387,144.915C-73.085,144.584 7.57,123.633 9.114,123.232C10.659,122.831 11.843,120.914 11.843,118.537L11.843,-12.433C11.843,-12.992 11.466,-13.48 10.925,-13.621" style="fill:rgb(87,87,92);fill-rule:nonzero;"/>
                </g>
                <g transform="matrix(1,0,0,1,377.117,113.906)">
                    <path d="M0,77.742C0,78.775 -0.375,79.338 -1.487,79.663L-66.555,96.593C-67.478,96.796 -67.928,96.627 -67.928,95.108L-67.928,-5.478C-67.928,-6.828 -67.405,-7.598 -66.529,-7.825L-1.238,-24.812C0.019,-25.138 0,-24.122 0,-22.823L0,77.742ZM8.398,91.781L8.398,-39.189L7.942,-40.138L-69.95,-19.783C-73.701,-18.803 -74.916,-15.06 -74.916,-12.744L-74.916,112.454C-74.916,117.177 -77.119,117.88 -77.119,117.88C-77.119,117.88 2.495,97.395 5.669,96.476C8.843,95.556 8.398,91.781 8.398,91.781" style="fill:rgb(220,220,220);fill-rule:nonzero;"/>
                </g>
                <g transform="matrix(1,0,0,1,375.09,135.093)">
                    <path d="M0,9.656L-64.359,26.812L-64.359,-0.949L-1.894,-17.156L0,-16.652L0,9.656Z" style="fill:rgb(220,220,220);fill-rule:nonzero;"/>
                </g>
                <g transform="matrix(1,0,0,1,335.788,223.554)">
                    <path d="M0,-13.842C-0.055,-13.842 -0.111,-13.835 -0.167,-13.821L-22.552,-8.061C-23.222,-7.888 -23.69,-7.284 -23.69,-6.593L-23.69,-0.668C-23.69,-0.29 -23.382,0 -23.025,0C-22.97,0 -22.914,-0.007 -22.857,-0.022L-0.472,-5.782C0.198,-5.954 0.666,-6.558 0.666,-7.25L0.666,-13.175C0.666,-13.552 0.357,-13.842 0,-13.842" style="fill:rgb(87,87,92);fill-rule:nonzero;"/>
                </g>
                <g transform="matrix(1,0,0,1,362.096,216.762)">
                    <path d="M0,-13.842C-0.055,-13.842 -0.111,-13.835 -0.167,-13.821L-22.552,-8.061C-23.222,-7.888 -23.69,-7.284 -23.69,-6.593L-23.69,-0.668C-23.69,-0.29 -23.382,0 -23.025,0C-22.97,0 -22.914,-0.007 -22.857,-0.022L-0.472,-5.782C0.198,-5.954 0.666,-6.558 0.666,-7.25L0.666,-13.175C0.666,-13.552 0.357,-13.842 0,-13.842" style="fill:rgb(87,87,92);fill-rule:nonzero;"/>
                </g>
                <g transform="matrix(1,0,0,1,381.306,178.613)">
                    <path d="M0,13.515L-1.652,13.983C-2.269,14.158 -2.882,13.695 -2.882,13.054L-2.882,1.178C-2.882,0.631 -2.518,0.15 -1.991,0L-0.339,-0.468C0.277,-0.643 0.89,-0.179 0.89,0.462L0.89,12.337C0.89,12.885 0.527,13.366 0,13.515" style="fill:rgb(87,87,92);fill-rule:nonzero;"/>
                </g>
                <g transform="matrix(1,0,0,1,384.596,204.842)">
                    <path d="M0,-131.313C0.541,-131.173 0.919,-130.684 0.919,-130.125L0.919,0.845C0.919,3.221 -0.266,5.139 -1.811,5.54C-3.355,5.941 -84.01,26.891 -85.312,27.223C-85.807,27.349 -86.173,27.398 -87.078,27.163C-88.06,26.907 -183.349,2.15 -185.103,1.7C-187.801,1.007 -189.226,-2.084 -189.225,-4.613C-189.224,-7.665 -189.225,-128.395 -189.225,-131.074C-189.226,-133.821 -187.436,-137.624 -184.494,-138.388L-106.917,-158.533C-106.23,-158.711 -105.51,-158.711 -104.823,-158.533L0,-131.313Z" style="fill:none;fill-rule:nonzero;stroke:rgb(22,33,45);stroke-width:1px;"/>
                </g>
                <g transform="matrix(-0.9679,0.251337,0.251337,0.9679,320.561,240.36)">
                    <path d="M-104.74,-144.92L-23.506,-144.92C-20.335,-144.92 -17.773,-141.662 -17.067,-138.941L14.551,-17.18C14.914,-15.783 16.152,-13.377 18.509,-13.377" style="fill:none;fill-rule:nonzero;stroke:rgb(22,33,45);stroke-width:1px;"/>
                </g>
                <g transform="matrix(1,0,0,1,296.518,197.653)">
                    <path d="M0,-88.426C0,-89.763 -0.518,-90.524 -1.385,-90.749L-94.723,-114.98C-95.967,-115.303 -95.948,-114.298 -95.948,-113.012L-95.948,0.6C-95.948,1.622 -95.577,2.179 -94.477,2.502L-1.359,26.676C-0.446,26.877 0,26.71 0,25.206L0,-88.426Z" style="fill:none;fill-rule:nonzero;stroke:rgb(22,33,45);stroke-width:1px;"/>
                </g>
                <g transform="matrix(0.967901,-0.251333,-0.251333,-0.967901,312.414,170.599)">
                    <path d="M-1.127,8.827L69.11,8.827" style="fill:none;fill-rule:nonzero;stroke:rgb(22,33,45);stroke-width:1px;"/>
                </g>
                <g transform="matrix(0.967901,-0.251333,-0.251333,-0.967901,313.864,144.011)">
                    <path d="M-1.067,8.356L65.426,8.356" style="fill:none;fill-rule:nonzero;stroke:rgb(22,33,45);stroke-width:0.5px;"/>
                </g>
                <g transform="matrix(1,0,0,1,310.731,117.937)">
                    <path d="M0,16.207L62.415,0L64.359,0.504" style="fill:none;fill-rule:nonzero;stroke:rgb(22,33,45);stroke-width:0.5px;"/>
                </g>
                <g transform="matrix(1,0,0,1,373.672,107.899)">
                    <path d="M0,83.322L-61.63,99.325C-62.511,99.518 -62.941,99.358 -62.941,97.908L-62.941,2.413C-62.941,1.124 -62.441,0.39 -61.606,0.173L0.237,-15.885C1.436,-16.196 1.418,-15.226 1.418,-13.987L1.418,81.488C1.418,82.474 1.061,83.011 0,83.322Z" style="fill:none;fill-rule:nonzero;stroke:rgb(22,33,45);stroke-width:0.5px;"/>
                </g>
                <g transform="matrix(1,0,0,1,294.914,182.69)">
                    <path d="M0,-71.547C0,-72.836 -0.5,-73.57 -1.335,-73.787L-90.823,-96.794C-92.023,-97.105 -92.005,-96.136 -92.005,-94.896L-92.005,0.579C-92.005,1.565 -91.647,2.102 -90.586,2.413L-1.31,25.365C-0.43,25.558 0,25.398 0,23.948L0,-71.547Z" style="fill:none;fill-rule:nonzero;stroke:rgb(22,33,45);stroke-width:0.5px;"/>
                </g>
                <g transform="matrix(0.96788,0.251412,0.251412,-0.96788,205.244,182.858)">
                    <path d="M-1.592,-12.461L97.54,-12.461" style="fill:none;fill-rule:nonzero;stroke:rgb(22,33,45);stroke-width:1px;"/>
                </g>
                <g transform="matrix(1,0,0,1,275.094,202.708)">
                    <path d="M0,7.521L-53.559,-6.387C-53.981,-6.496 -54.392,-6.178 -54.392,-5.742L-54.392,-0.645C-54.392,-0.342 -54.187,-0.077 -53.894,-0L-0.335,13.907C0.087,14.017 0.499,13.698 0.499,13.263L0.499,8.166C0.499,7.862 0.294,7.597 0,7.521Z" style="fill:none;fill-rule:nonzero;stroke:rgb(22,33,45);stroke-width:1px;"/>
                </g>
                <g transform="matrix(1,0,0,1,375.631,105.9)">
                    <path d="M0,87.67L-65.069,104.6C-65.991,104.802 -66.442,104.634 -66.442,103.114L-66.442,2.529C-66.442,1.178 -65.918,0.409 -65.043,0.182L0.248,-16.805C1.505,-17.132 1.486,-16.116 1.486,-14.817L1.486,85.749C1.486,86.782 1.111,87.344 0,87.67Z" style="fill:none;fill-rule:nonzero;stroke:rgb(22,33,45);stroke-width:1px;"/>
                </g>
                <g transform="matrix(1,0,0,1,210.297,74.9113)">
                    <path d="M0,-8.203L63.694,-24.767C64.472,-24.97 65.288,-24.97 66.065,-24.768L159.788,-0.45C160.054,-0.381 160.054,-0.003 159.788,0.066L96.091,16.566C95.316,16.767 94.503,16.767 93.728,16.567L0,-7.687C-0.266,-7.756 -0.266,-8.134 0,-8.203Z" style="fill:none;fill-rule:nonzero;stroke:rgb(22,33,45);stroke-width:1px;"/>
                </g>
                <g transform="matrix(1,0,0,1,381.306,178.613)">
                    <path d="M0,13.515L-1.652,13.983C-2.269,14.158 -2.882,13.695 -2.882,13.054L-2.882,1.178C-2.882,0.631 -2.518,0.15 -1.991,0L-0.339,-0.468C0.277,-0.643 0.89,-0.179 0.89,0.462L0.89,12.337C0.89,12.885 0.527,13.366 0,13.515Z" style="fill:none;fill-rule:nonzero;stroke:rgb(22,33,45);stroke-width:0.5px;"/>
                </g>
                <g transform="matrix(0.964646,-0.26355,-0.26355,-0.964646,379.352,189.037)">
                    <path d="M-0.028,0.206L1.536,0.206" style="fill:none;fill-rule:nonzero;stroke:rgb(22,33,45);stroke-width:1px;stroke-linecap:round;"/>
                </g>
                <g transform="matrix(0.964646,-0.26355,-0.26355,-0.964646,379.352,186.653)">
                    <path d="M-0.028,0.206L1.536,0.206" style="fill:none;fill-rule:nonzero;stroke:rgb(22,33,45);stroke-width:1px;stroke-linecap:round;"/>
                </g>
                <g transform="matrix(0.964646,-0.26355,-0.26355,-0.964646,379.352,184.64)">
                    <path d="M-0.028,0.206L1.536,0.206" style="fill:none;fill-rule:nonzero;stroke:rgb(22,33,45);stroke-width:1px;stroke-linecap:round;"/>
                </g>
                <g transform="matrix(0.964646,-0.26355,-0.26355,-0.964646,379.352,182.438)">
                    <path d="M-0.028,0.206L1.536,0.206" style="fill:none;fill-rule:nonzero;stroke:rgb(22,33,45);stroke-width:1px;stroke-linecap:round;"/>
                </g>
                <g transform="matrix(1,0,0,1,335.788,223.554)">
                    <path d="M0,-13.842C-0.055,-13.842 -0.111,-13.835 -0.167,-13.821L-22.552,-8.061C-23.222,-7.888 -23.69,-7.284 -23.69,-6.593L-23.69,-0.668C-23.69,-0.29 -23.382,0 -23.025,0C-22.97,0 -22.914,-0.007 -22.857,-0.022L-0.472,-5.782C0.198,-5.954 0.666,-6.558 0.666,-7.25L0.666,-13.175C0.666,-13.552 0.357,-13.842 0,-13.842Z" style="fill:none;fill-rule:nonzero;stroke:rgb(22,33,45);stroke-width:0.5px;"/>
                </g>
                <g transform="matrix(1,0,0,1,326.035,220.989)">
                    <path d="M0,-8.819C-0.67,-8.647 -1.138,-8.043 -1.138,-7.351L-1.138,-1.426C-1.138,-1.049 -0.829,-0.759 -0.472,-0.759C-0.417,-0.759 -0.361,-0.766 -0.305,-0.78M-3.268,0C-2.598,-0.173 -2.129,-0.777 -2.129,-1.469L-2.129,-7.393C-2.129,-7.771 -2.438,-8.061 -2.795,-8.061C-2.85,-8.061 -2.906,-8.054 -2.963,-8.039" style="fill:none;fill-rule:nonzero;stroke:rgb(22,33,45);stroke-width:0.5px;"/>
                </g>
                <g transform="matrix(1,0,0,1,362.096,216.762)">
                    <path d="M0,-13.842C-0.055,-13.842 -0.111,-13.835 -0.167,-13.821L-22.552,-8.061C-23.222,-7.888 -23.69,-7.284 -23.69,-6.593L-23.69,-0.668C-23.69,-0.29 -23.382,0 -23.025,0C-22.97,0 -22.914,-0.007 -22.857,-0.022L-0.472,-5.782C0.198,-5.954 0.666,-6.558 0.666,-7.25L0.666,-13.175C0.666,-13.552 0.357,-13.842 0,-13.842Z" style="fill:none;fill-rule:nonzero;stroke:rgb(22,33,45);stroke-width:0.5px;"/>
                </g>
                <g transform="matrix(1,0,0,1,352.344,214.197)">
                    <path d="M0,-8.819C-0.67,-8.647 -1.138,-8.043 -1.138,-7.351L-1.138,-1.426C-1.138,-1.049 -0.829,-0.759 -0.472,-0.759C-0.417,-0.759 -0.361,-0.766 -0.305,-0.78M-3.268,0C-2.598,-0.173 -2.129,-0.777 -2.129,-1.469L-2.129,-7.393C-2.129,-7.771 -2.438,-8.061 -2.795,-8.061C-2.85,-8.061 -2.906,-8.054 -2.963,-8.039" style="fill:none;fill-rule:nonzero;stroke:rgb(22,33,45);stroke-width:0.5px;"/>
                </g>
                <g transform="matrix(0.161797,-0.986824,-0.986824,-0.161797,308.375,217.906)">
                    <ellipse cx="-1.814" cy="0.297" rx="2.929" ry="1.839" style="fill:none;stroke:rgb(22,33,45);stroke-width:0.5px;"/>
                </g>
                <g transform="matrix(0.161797,-0.986824,-0.986824,-0.161797,369.85,202.026)">
                    <ellipse cx="-1.814" cy="0.297" rx="2.929" ry="1.839" style="fill:none;stroke:rgb(22,33,45);stroke-width:0.5px;"/>
                </g>
                <g transform="matrix(1,0,0,1,300.127,157.721)">
                    <path d="M0,-18.152L-23.302,-24.256C-23.302,-24.256 -26.277,-25.173 -26.277,-20.861C-26.714,-20.424 -26.733,-1.622 -26.733,-1.622C-26.733,-1.622 -26.861,-0.276 -24.73,0.304C-22.6,0.883 0,7.021 0,7.021L0,-18.152Z" style="fill:rgb(87,87,92);fill-rule:nonzero;"/>
                </g>
                <g transform="matrix(1,0,0,1,296.29,135.472)">
                    <path d="M0,27.538L2.114,26.394C2.482,26.094 2.723,25.637 2.723,25.11L2.723,7.549C2.723,6.536 2.045,5.649 1.068,5.383L-18.559,0.101C-18.929,0 -19.297,0.033 -19.619,0.165L-22.003,1.052C-22.003,1.052 -20.712,0.799 -19.42,1.245C-18.128,1.69 -0.975,6.324 -0.975,6.324C-0.975,6.324 0.852,6.454 0.852,9.24L0.852,26.106L0,27.538Z" style="fill:rgb(220,220,220);fill-rule:nonzero;"/>
                </g>
                <g transform="matrix(1,0,0,1,295.051,136.395)">
                    <path d="M0,26.766L-20.001,21.534C-20.979,21.269 -21.657,20.381 -21.657,19.369L-21.657,1.598C-21.657,0.506 -20.619,-0.287 -19.566,0L0.435,5.441C1.413,5.707 2.091,6.594 2.091,7.607L2.091,25.168C2.091,26.26 1.053,27.053 0,26.766Z" style="fill:none;fill-rule:nonzero;stroke:rgb(22,33,45);stroke-width:1px;stroke-linejoin:round;"/>
                </g>
                <g transform="matrix(1,0,0,1,274.286,161.959)">
                    <path d="M0,-25.435L2.385,-26.322C2.707,-26.454 3.075,-26.486 3.445,-26.386L23.071,-21.103C24.049,-20.838 24.727,-19.95 24.727,-18.938L24.727,-1.376C24.727,-0.85 24.485,-0.393 24.117,-0.093L22.003,1.051" style="fill:none;fill-rule:nonzero;stroke:rgb(22,33,45);stroke-width:1px;stroke-linejoin:round;"/>
                </g>
                <g transform="matrix(1,0,0,1,273.85,134.592)">
                    <path d="M0,2.268C0,-1.376 1.773,-1.439 2.975,-1.127C4.001,-0.861 22.669,3.997 22.669,3.997L22.669,-1.729" style="fill:none;fill-rule:nonzero;stroke:rgb(22,33,45);stroke-width:1px;stroke-linejoin:round;"/>
                </g>
                <g transform="matrix(-0.967425,-0.253157,-0.253157,0.967425,278.496,137.596)">
                    <path d="M-21.262,17.046L-1.551,17.046L2.193,2.736L-17.518,2.736L-21.262,17.046Z" style="fill:none;fill-rule:nonzero;stroke:rgb(22,33,45);stroke-width:0.5px;stroke-linejoin:round;"/>
                </g>
                <g transform="matrix(0,-1,-1,0,297.624,163.904)">
                    <path d="M-1.106,1.106L1.106,1.106" style="fill:none;fill-rule:nonzero;stroke:rgb(22,33,45);stroke-width:1px;stroke-linejoin:round;"/>
                </g>
            </g>
        </g>
        <g transform="matrix(0.2802,-0.959942,-0.959942,-0.2802,352.761,274.102)">
            <path d="M-59.919,79.909L106.569,79.909" style="fill:none;fill-rule:nonzero;stroke:rgb(0,108,250);stroke-width:3px;stroke-linecap:round;"/>
        </g>
        <g transform="matrix(1,0,0,1,111.408,141.57)">
            <path d="M0,128.043L64.229,98.07C93.99,85.545 137.95,67.01 137.95,0" style="fill:none;fill-rule:nonzero;stroke:rgb(0,108,250);stroke-width:3px;stroke-linecap:round;"/>
        </g>
        <g transform="matrix(0.994828,0.101578,0.101578,-0.994828,112.173,111.565)">
            <path d="M-0.256,-5.029L98.761,-5.029" style="fill:none;fill-rule:nonzero;stroke:rgb(0,108,250);stroke-width:3px;stroke-linecap:round;"/>
        </g>
        <g>
            <clipPath id="_clip2">
                <path d="M188.395,309.231C188.395,348.369 220.125,380.097 259.263,380.097C298.401,380.097 330.13,348.369 330.13,309.231C330.13,270.093 298.401,238.365 259.263,238.365C220.125,238.365 188.395,270.093 188.395,309.231Z" clip-rule="nonzero"/>
            </clipPath>
            <g clip-path="url(#_clip2)">
                <g transform="matrix(1,0,0,1,0,151.748)">
                    <rect x="56.498" y="-5.008" width="283.465" height="283.465" style="fill:white;"/>
                </g>
                <g transform="matrix(0.967807,0.251693,0.251693,-0.967807,69.3386,202.81)">
                    <path d="M-8.221,-19.404L126.872,-19.404C130.816,-19.345 135.437,-21.182 137.467,-28.986L144.184,-54.815C145.227,-58.826 147.381,-62.684 151.708,-64.276" style="fill:none;fill-rule:nonzero;stroke:rgb(22,33,45);stroke-width:1px;stroke-linecap:round;stroke-linejoin:round;"/>
                </g>
                <g transform="matrix(1,0,0,1,170.445,255.822)">
                    <path d="M0,109.585L0,112.072C0,112.072 3.52,110.869 10.069,108.775C16.619,106.681 20.941,99.507 20.941,92.646L20.941,81.329C20.941,76.161 25.752,75.671 25.752,79.859L25.752,85.25C25.752,87.567 27.401,87.166 28.381,86.898C29.361,86.631 103.634,67.517 105.549,67.116C107.465,66.715 108.267,64.755 108.267,62.928C108.267,60.879 106.485,61.77 104.257,62.349C102.03,62.928 100.337,62.616 100.337,60.21C100.337,57.804 102.431,56.78 102.431,56.78C102.431,56.78 105.594,55.933 106.708,55.666C107.822,55.398 108.267,54.908 108.267,53.616L108.267,31.785C108.267,28.532 106.975,27.819 104.837,28.398C102.698,28.978 41.569,44.839 32.881,47.067C24.193,49.294 20.941,42.032 20.941,35.616L20.941,8.572C20.941,3.091 18.965,-0.58 16.077,-2.487" style="fill:none;fill-rule:nonzero;stroke:rgb(22,33,45);stroke-width:1px;stroke-linecap:round;stroke-linejoin:round;"/>
                </g>
                <g transform="matrix(1,0,0,1,196.064,368.518)">
                    <path d="M0,-33.949C0,-33.949 -1.649,-33.55 -1.649,-31.634L-1.649,-19.07C-1.649,-12.609 -5.569,-4.812 -11.941,-2.718C-14.86,-1.759 -21.876,0 -21.876,0L-25.619,-0.624" style="fill:none;fill-rule:nonzero;stroke:rgb(22,33,45);stroke-width:1px;stroke-linecap:round;stroke-linejoin:round;"/>
                </g>
                <g transform="matrix(1,0,0,1,274.123,284.044)">
                    <path d="M0,34.127C-1.114,31.097 0.936,29.672 2.049,29.36C3.163,29.048 5.525,28.558 6.416,28.364C7.307,28.17 7.797,27.399 7.797,26.375L7.797,3.607C7.797,1.914 7.389,0.581 2.447,0" style="fill:none;fill-rule:nonzero;stroke:rgb(22,33,45);stroke-width:1px;stroke-linecap:round;stroke-linejoin:round;"/>
                </g>
                <g transform="matrix(-0.985498,0.169685,0.169685,0.985498,203.562,350.452)">
                    <path d="M-79.025,-19.8C-82.198,-19.363 -82.101,-17.67 -81.996,-17.055C-81.701,-15.344 -80.988,-13.567 -79.025,-13.453C-77.061,-13.339 1.716,-6.649 1.716,-6.649L4.837,-8.486" style="fill:none;fill-rule:nonzero;stroke:rgb(22,33,45);stroke-width:1px;stroke-linecap:round;stroke-linejoin:round;"/>
                </g>
                <g transform="matrix(0,1,1,0,219.901,319.953)">
                    <path d="M-28.515,-28.515L28.515,-28.515" style="fill:none;fill-rule:nonzero;stroke:rgb(22,33,45);stroke-width:1px;stroke-linecap:round;stroke-linejoin:round;"/>
                </g>
                <g transform="matrix(-0.968292,0.249823,0.249823,0.968292,70.1271,452.704)">
                    <path d="M-288.106,-36.567L4.641,-36.568" style="fill:none;fill-rule:nonzero;stroke:rgb(22,33,45);stroke-width:1px;stroke-linecap:round;stroke-linejoin:round;"/>
                </g>
                <g transform="matrix(-0.968292,0.249823,0.249823,0.968292,196.911,272.592)">
                    <path d="M-152.738,-19.386L2.461,-19.386" style="fill:none;fill-rule:nonzero;stroke:rgb(22,33,45);stroke-width:1px;stroke-linecap:round;stroke-linejoin:round;"/>
                </g>
                <g transform="matrix(-0.968292,0.249822,0.249822,0.968292,201.545,278.451)">
                    <path d="M-147.79,-18.758L2.381,-18.758" style="fill:none;fill-rule:nonzero;stroke:rgb(22,33,45);stroke-width:1px;stroke-linecap:round;stroke-linejoin:round;"/>
                </g>
                <g transform="matrix(-0.968292,0.249822,0.249822,0.968292,284.711,297.664)">
                    <path d="M-58.992,-7.488L0.95,-7.488" style="fill:none;fill-rule:nonzero;stroke:rgb(22,33,45);stroke-width:1px;stroke-linecap:round;stroke-linejoin:round;"/>
                </g>
                <g transform="matrix(-0.968292,0.249822,0.249822,0.968292,284.711,304.645)">
                    <path d="M-58.992,-7.488L0.95,-7.488" style="fill:none;fill-rule:nonzero;stroke:rgb(22,33,45);stroke-width:1px;stroke-linecap:round;stroke-linejoin:round;"/>
                </g>
                <g transform="matrix(0.236232,-0.971697,-0.971697,-0.236232,293.731,325.896)">
                    <ellipse cx="-6.098" cy="1.482" rx="9.1" ry="6.276" style="fill:none;stroke:rgb(22,33,45);stroke-width:1px;stroke-linecap:round;stroke-linejoin:round;"/>
                </g>
                <g transform="matrix(0.971675,0.23632,0.23632,-0.971675,295.499,321.986)">
                    <path d="M-2.277,-1.216L4.959,-1.216C8.425,-1.215 11.234,-5.289 11.235,-10.314C11.236,-15.339 8.426,-19.414 4.961,-19.415L-2.276,-19.415" style="fill:none;fill-rule:nonzero;stroke:rgb(22,33,45);stroke-width:1px;stroke-linecap:round;stroke-linejoin:round;"/>
                </g>
                <g transform="matrix(-0.968242,0.250016,0.250016,0.968242,68.0194,432.721)">
                    <path d="M-243.156,-30.887L3.923,-30.887" style="fill:none;fill-rule:nonzero;stroke:rgb(22,33,45);stroke-width:1px;stroke-linecap:round;stroke-linejoin:round;"/>
                </g>
                <g transform="matrix(-0.968291,0.249824,0.249824,0.968291,67.6405,428.086)">
                    <path d="M-235.526,-29.894L3.794,-29.894" style="fill:none;fill-rule:nonzero;stroke:rgb(22,33,45);stroke-width:1px;stroke-linecap:round;stroke-linejoin:round;"/>
                </g>
                <g transform="matrix(-0.968291,0.249824,0.249824,0.968291,198.487,363.609)">
                    <path d="M-92.343,-11.721L1.488,-11.721" style="fill:none;fill-rule:nonzero;stroke:rgb(22,33,45);stroke-width:1px;stroke-linecap:round;stroke-linejoin:round;"/>
                </g>
                <g transform="matrix(-0.968291,0.249824,0.249824,0.968291,198.888,360.015)">
                    <path d="M-94.556,-12.001L1.523,-12.002" style="fill:none;fill-rule:nonzero;stroke:rgb(22,33,45);stroke-width:1px;stroke-linecap:round;stroke-linejoin:round;"/>
                </g>
                <g transform="matrix(-0.967401,-0.253251,-0.253251,0.967401,63.1588,293.499)">
                    <path d="M-136.976,17.632L2.27,17.632" style="fill:none;fill-rule:nonzero;stroke:rgb(22,33,45);stroke-width:0.5px;stroke-linecap:round;stroke-linejoin:round;"/>
                </g>
                <g transform="matrix(-0.968224,-0.250086,-0.250086,0.968224,62.9832,212.137)">
                    <path d="M-136.796,17.382L2.209,17.382" style="fill:none;fill-rule:nonzero;stroke:rgb(22,33,45);stroke-width:0.5px;stroke-linecap:round;stroke-linejoin:round;"/>
                </g>
                <g transform="matrix(1,0,0,1,297.47,294.219)">
                    <path d="M0,-1.611C0,-0.831 -0.528,-0.149 -1.283,0.046L-7.982,1.778C-7.995,1.781 -8.007,1.776 -8.02,1.779L-8.02,-2.658C-8.02,-3.438 -7.492,-4.12 -6.737,-4.315L-0.038,-6.047L0,-6.057L0,-1.611ZM-11.533,1.294C-11.533,1.797 -12.002,2.17 -12.492,2.055L-14.168,1.664C-15.951,1.248 -17.733,1.664 -17.733,1.664L-25.308,3.846C-25.488,3.898 -25.667,3.903 -25.838,3.881L-25.838,-0.447C-25.838,-1.214 -25.318,-1.884 -24.575,-2.075L-17.893,-3.845C-17.893,-3.845 -16.111,-4.261 -14.329,-3.845L-11.694,-3.23L-11.533,-3.197L-11.533,1.294ZM-28.761,1.83C-28.93,2.646 -29.517,3.233 -30.159,3.304L-30.159,3.309L-36.595,4.941C-36.669,4.968 -36.744,4.986 -36.821,4.998L-36.883,5.014L-36.883,5.009C-36.976,5.019 -37.071,5.012 -37.165,5.001C-37.314,4.65 -37.362,4.224 -37.272,3.786C-37.103,2.97 -36.516,2.383 -35.874,2.312L-35.874,2.306L-29.373,0.647C-29.361,0.644 -29.35,0.642 -29.338,0.638L-29.266,0.62L-29.266,0.626C-29.138,0.599 -29.008,0.588 -28.876,0.603C-28.723,0.957 -28.67,1.386 -28.761,1.83M4.01,-10.934C2.078,-10.439 -6.795,-8.043 -9.689,-7.261C-10.293,-7.097 -10.923,-7.088 -11.533,-7.23L-14.168,-7.845C-15.951,-8.261 -17.733,-7.845 -17.733,-7.845L-37.574,-2.914C-39.406,-2.459 -40.426,-1.073 -40.426,0.769L-40.426,7.304C-40.426,9.917 -38.525,9.858 -36.327,9.442C-34.129,9.026 -19.337,5.046 -17.733,4.63C-16.129,4.215 -15.297,4.333 -13.99,4.749C-13.21,4.997 -12.177,5.245 -11.47,5.405C-10.946,5.524 -10.409,5.516 -9.888,5.383C-7.021,4.65 2.923,2.108 4.901,1.601C7.218,1.007 7.99,-0.954 7.99,-2.659L7.99,-8.083C7.99,-10.756 6.327,-11.528 4.01,-10.934" style="fill:rgb(255,214,0);fill-rule:nonzero;"/>
                </g>
                <g transform="matrix(1,0,0,1,259.896,295.523)">
                    <path d="M0,-4.218L19.842,-9.149C19.842,-9.149 21.624,-9.565 23.406,-9.149L26.041,-8.534C26.651,-8.392 27.281,-8.401 27.886,-8.564C30.779,-9.347 39.652,-11.742 41.584,-12.238C43.901,-12.832 45.564,-12.06 45.564,-9.386L45.564,-3.963C45.564,-2.258 44.792,-0.297 42.475,0.297C40.497,0.804 30.553,3.346 27.686,4.079C27.165,4.212 26.628,4.22 26.105,4.101C25.398,3.942 24.364,3.693 23.584,3.445C22.277,3.03 21.446,2.911 19.842,3.327C18.238,3.742 3.446,7.723 1.248,8.138C-0.951,8.554 -2.851,8.614 -2.851,6L-2.851,-0.535C-2.851,-2.376 -1.832,-3.763 0,-4.218Z" style="fill:none;fill-rule:nonzero;stroke:rgb(22,33,45);stroke-width:1px;stroke-linecap:round;stroke-linejoin:round;"/>
                </g>
                <g transform="matrix(1,0,0,1,285.937,291.279)">
                    <path d="M0,4.234C0,4.737 -0.469,5.11 -0.959,4.995L-2.635,4.604C-4.417,4.188 -6.2,4.604 -6.2,4.604L-13.775,6.786C-14.622,7.03 -15.467,6.394 -15.467,5.513L-15.467,1.299C-15.467,0.532 -14.947,-0.138 -14.204,-0.328L-6.2,-2.38C-6.2,-2.38 -4.417,-2.796 -2.635,-2.38L-1.018,-2.003C-0.422,-1.864 0,-1.332 0,-0.72L0,4.234Z" style="fill:none;fill-rule:nonzero;stroke:rgb(22,33,45);stroke-width:0.5px;stroke-linecap:round;stroke-linejoin:round;"/>
                </g>
                <g transform="matrix(1,0,0,1,285.776,297.087)">
                    <path d="M0,-6.098L-2.635,-6.713C-4.417,-7.129 -6.2,-6.713 -6.2,-6.713L-12.881,-4.943C-13.625,-4.752 -14.145,-4.082 -14.145,-3.315L-14.145,1.031" style="fill:none;fill-rule:nonzero;stroke:rgb(22,33,45);stroke-width:0.5px;stroke-linecap:round;stroke-linejoin:round;"/>
                </g>
                <g transform="matrix(1,0,0,1,289.62,294.265)">
                    <path d="M0,-5.297L6.699,-7.029C7.282,-7.18 7.85,-6.739 7.85,-6.137L7.85,-1.657C7.85,-0.877 7.323,-0.195 6.567,-0L-0.131,1.732C-0.715,1.883 -1.283,1.443 -1.283,0.84L-1.283,-3.64C-1.283,-4.42 -0.756,-5.102 0,-5.297Z" style="fill:none;fill-rule:nonzero;stroke:rgb(22,33,45);stroke-width:0.5px;stroke-linecap:round;stroke-linejoin:round;"/>
                </g>
                <g transform="matrix(1,0,0,1,289.45,288.172)">
                    <path d="M0,7.869L0,3.389C0,2.609 0.528,1.927 1.283,1.732L7.982,0" style="fill:none;fill-rule:nonzero;stroke:rgb(22,33,45);stroke-width:0.5px;stroke-linecap:round;stroke-linejoin:round;"/>
                </g>
                <g transform="matrix(1,0,0,1,267.673,299.209)">
                    <path d="M0,-5.201C-0.161,-5.234 -0.321,-5.224 -0.478,-5.192L-0.478,-5.198L-0.55,-5.179C-0.561,-5.176 -0.573,-5.174 -0.585,-5.171L-7.086,-3.512L-7.086,-3.506C-7.728,-3.435 -8.315,-2.848 -8.483,-2.032C-8.683,-1.065 -8.219,-0.151 -7.448,0.008C-7.326,0.033 -7.206,0.032 -7.086,0.019L-7.086,0.024L-7.024,0.008C-6.947,-0.005 -6.872,-0.022 -6.798,-0.049L-0.362,-1.682L-0.362,-1.687C0.28,-1.758 0.867,-2.345 1.036,-3.161C1.236,-4.128 0.772,-5.042 0,-5.201Z" style="fill:none;fill-rule:nonzero;stroke:rgb(22,33,45);stroke-width:0.5px;stroke-linecap:round;stroke-linejoin:round;"/>
                </g>
                <g transform="matrix(1,0,0,1,268.595,299.223)">
                    <path d="M0,-4.401C-0.132,-4.416 -0.263,-4.405 -0.391,-4.378L-0.391,-4.384L-0.463,-4.366C-0.475,-4.362 -0.487,-4.36 -0.498,-4.357L-7,-2.698L-7,-2.692C-7.642,-2.621 -8.229,-2.034 -8.397,-1.218C-8.489,-0.773 -8.44,-0.339 -8.286,0.015" style="fill:none;fill-rule:nonzero;stroke:rgb(22,33,45);stroke-width:0.5px;stroke-linecap:round;stroke-linejoin:round;"/>
                </g>
                <g transform="matrix(1,0,0,1,297.842,286.335)">
                    <path d="M0,5.173C-1.004,4.929 -1.506,3.447 -1.121,1.862C-0.736,0.278 0.391,-0.808 1.395,-0.564L3.714,0C4.718,0.244 5.22,1.726 4.835,3.31C4.45,4.895 3.323,5.981 2.319,5.737L0,5.173Z" style="fill:rgb(255,214,0);fill-rule:nonzero;stroke:rgb(22,33,45);stroke-width:1px;stroke-linecap:round;stroke-linejoin:round;"/>
                </g>
                <g transform="matrix(0.971687,0.236274,0.236274,-0.971687,297.184,291.262)">
                    <ellipse cx="0.698" cy="2.868" rx="1.872" ry="2.952" style="fill:none;stroke:rgb(22,33,45);stroke-width:0.5px;stroke-linecap:round;stroke-linejoin:round;"/>
                </g>
                <g transform="matrix(1,0,0,1,299.198,289.007)">
                    <path d="M0,-0.735L-0.242,0.261L-0.899,0.62L-1.31,0.065L-1.039,-1.051L-0.419,-1.355L0,-0.735Z" style="fill:none;fill-rule:nonzero;stroke:rgb(22,33,45);stroke-width:0.5px;stroke-linecap:round;stroke-linejoin:round;"/>
                </g>
                <g transform="matrix(1,0,0,1,261.403,293.44)">
                    <path d="M0,5.174C-1.004,4.93 -1.506,3.448 -1.121,1.863C-0.736,0.279 0.391,-0.808 1.395,-0.563L3.714,0C4.718,0.245 5.22,1.727 4.835,3.311C4.45,4.896 3.323,5.982 2.319,5.738L0,5.174Z" style="fill:rgb(255,214,0);fill-rule:nonzero;stroke:rgb(22,33,45);stroke-width:1px;stroke-linecap:round;stroke-linejoin:round;"/>
                </g>
                <g transform="matrix(0.971687,0.236274,0.236274,-0.971687,260.744,298.367)">
                    <ellipse cx="0.698" cy="2.869" rx="1.872" ry="2.953" style="fill:none;stroke:rgb(22,33,45);stroke-width:0.5px;stroke-linecap:round;stroke-linejoin:round;"/>
                </g>
                <g transform="matrix(1,0,0,1,262.759,296.112)">
                    <path d="M0,-0.735L-0.242,0.261L-0.899,0.62L-1.31,0.065L-1.039,-1.051L-0.419,-1.355L0,-0.735Z" style="fill:none;fill-rule:nonzero;stroke:rgb(22,33,45);stroke-width:0.5px;stroke-linecap:round;stroke-linejoin:round;"/>
                </g>
            </g>
        </g>
        <g transform="matrix(0,-1,-1,0,259.263,238.364)">
            <ellipse cx="-70.867" cy="0" rx="70.866" ry="70.867" style="fill:none;stroke:rgb(0,108,250);stroke-width:3px;"/>
        </g>
        <g>
            <clipPath id="_clip3">
                <path d="M40.54,269.613C40.54,308.751 72.268,340.479 111.407,340.479C150.547,340.479 182.274,308.751 182.274,269.613C182.274,230.475 150.547,198.747 111.407,198.747C72.268,198.747 40.54,230.475 40.54,269.613Z" clip-rule="nonzero"/>
            </clipPath>
            <g clip-path="url(#_clip3)">
                <g transform="matrix(1,0,0,1,0,-22.95)">
                    <rect x="-11.2" y="82.341" width="283.465" height="283.465" style="fill:white;"/>
                </g>
                <g transform="matrix(1,0,0,1,144.56,287.935)">
                    <path d="M0,-213.139C-0.865,-213.139 -1.84,-212.961 -2.821,-212.625L-81.55,-180.529C-86.265,-178.486 -88.809,-174.65 -88.809,-172.078L-88.809,-2.177C-88.809,-1.101 -88.52,0 -86.38,0C-85.43,0 -84.316,-0.243 -83.171,-0.698C-82.428,-0.999 -8.817,-30.833 -4.483,-32.649C-0.856,-34.168 2.572,-38.009 2.572,-40.553L2.572,-210.93C2.572,-211.999 2.374,-213.139 0,-213.139" style="fill:rgb(87,87,92);fill-rule:nonzero;"/>
                </g>
                <g transform="matrix(1,0,0,1,128.389,290.184)">
                    <path d="M0,3.49C0,5.001 1.933,6.226 4.317,6.226C6.701,6.226 8.633,5.001 8.633,3.49L8.633,0C8.633,-1.511 6.701,-2.736 4.317,-2.736C1.933,-2.736 0,-1.511 0,0L0,3.49Z" style="fill:rgb(255,214,0);fill-rule:nonzero;"/>
                </g>
                <g transform="matrix(1,0,0,1,144.56,290.185)">
                    <path d="M0,-217.639C-1.163,-217.639 -2.416,-217.399 -3.613,-216.982L-82.445,-184.843C-87.792,-182.526 -91.059,-178.011 -91.059,-174.328L-91.059,-4.427C-91.059,-1.437 -89.11,0 -86.38,0C-85.152,0 -83.765,-0.291 -82.326,-0.863C-82.326,-0.863 -8.009,-30.982 -3.613,-32.823C0.783,-34.665 4.822,-39.18 4.822,-42.803L4.822,-213.18C4.822,-216.398 2.644,-217.639 0,-217.639Z" style="fill:none;fill-rule:nonzero;stroke:rgb(22,33,45);stroke-width:1px;stroke-linecap:round;stroke-linejoin:round;"/>
                </g>
                <g transform="matrix(1,0,0,1,54.4124,213.317)">
                    <path d="M0,75.335C0,75.335 11.505,89.311 13.406,91.509C15.307,93.707 18.099,94.301 21.318,93.009C21.318,93.009 95.635,62.891 100.031,61.049C104.427,59.207 108.467,54.693 108.467,51.069L108.467,-11.56C108.467,-18.807 111.579,-18.966 114.252,-16.114" style="fill:none;fill-rule:nonzero;stroke:rgb(22,33,45);stroke-width:1px;stroke-linecap:round;stroke-linejoin:round;"/>
                </g>
                <g transform="matrix(0.926358,-0.376645,-0.376645,-0.926358,175.344,218.967)">
                    <path d="M-4.345,22.223L113.66,22.223" style="fill:none;fill-rule:nonzero;stroke:rgb(22,33,45);stroke-width:1px;stroke-linecap:round;stroke-linejoin:round;"/>
                </g>
                <g transform="matrix(0.926358,-0.376645,-0.376645,-0.926358,-3.86399,282.04)">
                    <path d="M-2.572,13.153L67.274,13.154" style="fill:none;fill-rule:nonzero;stroke:rgb(22,33,45);stroke-width:1px;stroke-linecap:round;stroke-linejoin:round;"/>
                </g>
                <g transform="matrix(1,0,0,1,75.7306,303.493)">
                    <path d="M0,2.834L1.311,4.586L11.314,0.525L11.314,-1.752" style="fill:none;fill-rule:nonzero;stroke:rgb(22,33,45);stroke-width:1px;stroke-linecap:round;stroke-linejoin:round;"/>
                </g>
                <g transform="matrix(1,0,0,1,144.471,302.371)">
                    <path d="M0,-23.975L0,-21.667L-53.371,0L-54.621,-1.768" style="fill:none;fill-rule:nonzero;stroke:rgb(22,33,45);stroke-width:1px;stroke-linecap:round;stroke-linejoin:round;"/>
                </g>
                <g transform="matrix(1,0,0,1,158.913,278.902)">
                    <path d="M0,-7.428L0,-4.061L-10.003,0L-11.55,-1.642" style="fill:none;fill-rule:nonzero;stroke:rgb(22,33,45);stroke-width:1px;stroke-linecap:round;stroke-linejoin:round;"/>
                </g>
                <g transform="matrix(0.639617,0.768693,0.768693,-0.639617,97.4706,269.473)">
                    <path d="M19.166,-32.368L42.765,-32.368L66.514,42.985L58.055,50.024C56.925,50.964 54.72,50.451 53.096,50.078" style="fill:none;fill-rule:nonzero;stroke:rgb(22,33,45);stroke-width:1px;stroke-linecap:round;stroke-linejoin:round;"/>
                </g>
                <g transform="matrix(0.637666,0.770313,0.770313,-0.637666,166.328,270.484)">
                    <path d="M-3.259,-6.928L14.729,-6.928L9.684,-2.752C8.552,-1.815 6.52,-1.753 5.845,-4.664C5.71,-5.247 5.459,-6.928 5.459,-6.928" style="fill:none;fill-rule:nonzero;stroke:rgb(22,33,45);stroke-width:1px;stroke-linecap:round;stroke-linejoin:round;"/>
                </g>
                <g transform="matrix(1,0,0,1,144.56,287.935)">
                    <path d="M0,-213.139C-0.865,-213.139 -1.84,-212.961 -2.821,-212.625L-81.55,-180.529C-86.265,-178.486 -88.809,-174.65 -88.809,-172.078L-88.809,-2.177C-88.809,-1.101 -88.52,0 -86.38,0C-85.43,0 -84.316,-0.243 -83.171,-0.698C-82.428,-0.999 -8.817,-30.833 -4.483,-32.649C-0.856,-34.168 2.572,-38.009 2.572,-40.553L2.572,-210.93C2.572,-211.999 2.374,-213.139 0,-213.139" style="fill:none;fill-rule:nonzero;stroke:rgb(22,33,45);stroke-width:0.5px;stroke-linecap:round;stroke-linejoin:round;"/>
                </g>
                <g transform="matrix(1,0,0,1,138.333,202.723)">
                    <path d="M0,-97.025C0,-97.025 -5.688,-103.649 -6,-103.961C-6.312,-104.273 -7.248,-104.584 -8.629,-103.961C-10.01,-103.337 -37.545,-92.109 -38.257,-91.842C-38.97,-91.574 -40.396,-90.862 -40.396,-88.99L-40.396,5.421C-40.396,6.401 -39.149,7.559 -37.366,6.802C-35.584,6.044 -9.832,-4.381 -8.985,-4.827C-8.139,-5.273 -6,-6.164 -6,-7.946L-6,-103.961" style="fill:none;fill-rule:nonzero;stroke:rgb(22,33,45);stroke-width:1px;stroke-linecap:round;stroke-linejoin:round;"/>
                </g>
                <g transform="matrix(1,0,0,1,134.962,213.669)">
                    <path d="M0,-58.411L0,-16.307C0,-14.703 -0.579,-13.238 -2.762,-12.277C-4.946,-11.317 -30.698,-0.847 -31.411,-0.535C-32.124,-0.223 -33.505,0 -34.173,-0.98C-34.842,-1.96 -36.633,-4.563 -36.633,-4.563" style="fill:none;fill-rule:nonzero;stroke:rgb(22,33,45);stroke-width:1px;stroke-linecap:round;stroke-linejoin:round;"/>
                </g>
                <g transform="matrix(1,0,0,1,96.1551,129.579)">
                    <path d="M0,81.208L0,-13.841C0,-14.614 -0.475,-15.564 -2.436,-14.673C-4.396,-13.782 -30.772,-3.089 -31.901,-2.495C-33.03,-1.901 -34.099,-1.129 -34.099,0.594L-34.099,95.05C-34.099,96.475 -32.733,96.772 -31.188,96.119C-29.644,95.465 -3.921,85.069 -2.733,84.535C-1.545,84 0,83.465 0,81.208Z" style="fill:none;fill-rule:nonzero;stroke:rgb(22,33,45);stroke-width:1px;stroke-linecap:round;stroke-linejoin:round;"/>
                </g>
                <g transform="matrix(1,0,0,1,99.176,229.679)">
                    <path d="M0,-19.342L0,-15.802C0,-14.436 -0.942,-12.951 -3.021,-12.119C-5.1,-11.287 -30.466,-0.951 -31.536,-0.476C-32.605,0 -33.912,-0.297 -34.506,-1.07C-35.1,-1.842 -36.779,-4.067 -36.779,-4.067" style="fill:none;fill-rule:nonzero;stroke:rgb(22,33,45);stroke-width:1px;stroke-linecap:round;stroke-linejoin:round;"/>
                </g>
                <g transform="matrix(1,0,0,1,64.9075,282.567)">
                    <path d="M0,-53.602L0,0.653C0,1.156 0.509,1.499 0.975,1.31L5.614,-0.571C6.417,-0.896 6.942,-1.675 6.942,-2.541L6.942,-55.101" style="fill:none;fill-rule:nonzero;stroke:rgb(22,33,45);stroke-width:1px;stroke-linecap:round;stroke-linejoin:round;"/>
                </g>
                <g transform="matrix(1,0,0,1,107.755,271.716)">
                    <path d="M0,-60.305L0,-6.244C0,-5.378 -0.525,-4.599 -1.327,-4.274L-11.405,-0.188C-11.871,0 -12.38,-0.342 -12.38,-0.845L-12.38,-53.842" style="fill:none;fill-rule:nonzero;stroke:rgb(22,33,45);stroke-width:1px;stroke-linecap:round;stroke-linejoin:round;"/>
                </g>
                <g transform="matrix(1,0,0,1,131.422,152.728)">
                    <path d="M0,48.993L0,103.531C0,104.034 0.509,104.377 0.975,104.188L5.584,102.32C6.386,101.994 6.911,101.215 6.911,100.349L6.911,-53.684C6.911,-54.694 5.961,-55.384 4.06,-54.326C2.991,-53.803 1.646,-53.118 1.646,-53.118" style="fill:none;fill-rule:nonzero;stroke:rgb(22,33,45);stroke-width:1px;stroke-linecap:round;stroke-linejoin:round;"/>
                </g>
                <g transform="matrix(0.925467,-0.378828,-0.378828,-0.925467,175.13,295.875)">
                    <path d="M-4.419,22.458L114.15,22.458" style="fill:none;fill-rule:nonzero;stroke:rgb(22,33,45);stroke-width:1px;stroke-linecap:round;stroke-linejoin:round;"/>
                </g>
                <g transform="matrix(0.925468,-0.378826,-0.378826,-0.925468,10.9514,357.841)">
                    <path d="M-3.465,17.61L89.507,17.61" style="fill:none;fill-rule:nonzero;stroke:rgb(22,33,45);stroke-width:1px;stroke-linecap:round;stroke-linejoin:round;"/>
                </g>
                <g transform="matrix(0.925465,-0.378834,-0.378834,-0.925465,-1.86103,354.011)">
                    <path d="M-3.276,16.65L84.628,16.65" style="fill:none;fill-rule:nonzero;stroke:rgb(22,33,45);stroke-width:0.5px;stroke-linecap:round;stroke-linejoin:round;"/>
                </g>
                <g transform="matrix(0.925465,-0.378832,-0.378832,-0.925465,-3.20559,334.174)">
                    <path d="M-2.804,14.254L72.445,14.253" style="fill:none;fill-rule:nonzero;stroke:rgb(22,33,45);stroke-width:0.5px;stroke-linecap:round;stroke-linejoin:round;"/>
                </g>
                <g transform="matrix(0.925467,-0.378829,-0.378829,-0.925467,-3.77273,285.139)">
                    <path d="M-2.605,13.243L67.307,13.242" style="fill:none;fill-rule:nonzero;stroke:rgb(22,33,45);stroke-width:0.5px;stroke-linecap:round;stroke-linejoin:round;"/>
                </g>
                <g transform="matrix(0.925466,-0.37883,-0.37883,-0.925466,173.56,288.909)">
                    <path d="M-4.49,22.822L115.994,22.822" style="fill:none;fill-rule:nonzero;stroke:rgb(22,33,45);stroke-width:0.5px;stroke-linecap:round;stroke-linejoin:round;"/>
                </g>
                <g transform="matrix(0.925466,-0.37883,-0.37883,-0.925466,175.499,270.031)">
                    <path d="M-4.402,22.374L113.717,22.374" style="fill:none;fill-rule:nonzero;stroke:rgb(22,33,45);stroke-width:0.5px;stroke-linecap:round;stroke-linejoin:round;"/>
                </g>
                <g transform="matrix(0.925466,-0.37883,-0.37883,-0.925466,175.499,221.774)">
                    <path d="M-4.402,22.374L113.717,22.374" style="fill:none;fill-rule:nonzero;stroke:rgb(22,33,45);stroke-width:0.5px;stroke-linecap:round;stroke-linejoin:round;"/>
                </g>
                <g transform="matrix(1,0,0,1,128.389,290.184)">
                    <path d="M0,3.49C0,5.001 1.933,6.226 4.317,6.226C6.701,6.226 8.633,5.001 8.633,3.49L8.633,0C8.633,-1.511 6.701,-2.736 4.317,-2.736C1.933,-2.736 0,-1.511 0,0L0,3.49Z" style="fill:none;fill-rule:nonzero;stroke:rgb(22,33,45);stroke-width:1px;stroke-linecap:round;stroke-linejoin:round;"/>
                </g>
                <g transform="matrix(0,1,1,0,132.705,289.358)">
                    <ellipse cx="4.316" cy="0" rx="2.736" ry="4.316" style="fill:none;stroke:rgb(22,33,45);stroke-width:0.5px;stroke-linecap:round;stroke-linejoin:round;"/>
                </g>
                <g transform="matrix(1,0,0,1,133.455,294.45)">
                    <path d="M0,-1.585L-1.499,-1.585L-2.235,-0.776L-1.59,0L0.091,0L0.736,-0.776L0,-1.585Z" style="fill:none;fill-rule:nonzero;stroke:rgb(22,33,45);stroke-width:0.5px;stroke-linecap:round;stroke-linejoin:round;"/>
                </g>
            </g>
        </g>
        <g transform="matrix(0,-1,-1,0,111.407,198.746)">
            <ellipse cx="-70.867" cy="0" rx="70.866" ry="70.867" style="fill:none;stroke:rgb(0,108,250);stroke-width:3px;"/>
        </g>
        <g>
            <clipPath id="_clip4">
                <path d="M40.54,116.543C40.54,155.68 72.268,187.409 111.407,187.409C150.547,187.409 182.274,155.68 182.274,116.543C182.274,77.404 150.547,45.676 111.407,45.676C72.268,45.676 40.54,77.404 40.54,116.543Z" clip-rule="nonzero"/>
            </clipPath>
            <g clip-path="url(#_clip4)">
                <g transform="matrix(1,0,0,1,0,-263.252)">
                    <rect x="3.123" y="202.492" width="283.465" height="283.465" style="fill:white;"/>
                </g>
                <g transform="matrix(1,0,0,1,88.7325,90.1841)">
                    <path d="M0,-9.172C1.478,-9.488 3.08,-7.854 3.578,-5.522C4.076,-3.191 3.282,-1.045 1.804,-0.729L-1.609,0C-3.086,0.316 -4.688,-1.318 -5.186,-3.65C-5.684,-5.981 -4.89,-8.127 -3.412,-8.443L0,-9.172Z" style="fill:rgb(255,214,0);fill-rule:nonzero;"/>
                </g>
                <g transform="matrix(1,0,0,1,286.587,41.5813)">
                    <path d="M0,89.317L-101.701,115.56C-101.701,115.56 -104.018,115.204 -109.454,113.689C-114.89,112.174 -120.058,103.442 -120.058,97.026L-120.058,14.511C-120.058,8.808 -118.231,4.263 -111.726,2.659C-105.221,1.056 0,-26.243 0,-26.243" style="fill:none;fill-rule:nonzero;stroke:rgb(22,33,45);stroke-width:1px;stroke-linecap:round;stroke-linejoin:round;"/>
                </g>
                <g transform="matrix(1,0,0,1,171.386,94.859)">
                    <path d="M0,-49.231C-6.505,-47.627 -8.332,-43.082 -8.332,-37.38L-8.332,-10.787C-8.332,-5.262 -10.772,-1.778 -13.629,0" style="fill:none;fill-rule:nonzero;stroke:rgb(22,33,45);stroke-width:1px;stroke-linecap:round;stroke-linejoin:round;"/>
                </g>
                <g transform="matrix(1,0,0,1,166.529,126.711)">
                    <path d="M0,-43.797C0,-36.891 -4.277,-30.297 -11.451,-32.168L-83.803,-51.073C-85.545,-51.572 -86.502,-50.592 -86.502,-48.386L-86.502,-28.047C-86.502,-27.067 -86.302,-26.153 -85.099,-25.819C-83.896,-25.485 -83.317,-25.329 -81.223,-24.795C-79.129,-24.26 -78.75,-22.188 -78.75,-21.252C-78.75,-20.317 -79.441,-18.401 -81.446,-18.913C-83.451,-19.426 -84.03,-19.582 -84.72,-19.782C-85.411,-19.983 -86.502,-20.116 -86.502,-18.713L-86.502,-16.329C-86.502,-15.304 -86.28,-13.188 -84.453,-12.609C-82.626,-12.03 -6.683,7.507 -6.683,7.507C-5.681,7.775 -5.057,7.441 -5.057,6.349L-5.057,-2.495C-5.057,-6.148 0,-5.903 0,-0.668" style="fill:none;fill-rule:nonzero;stroke:rgb(22,33,45);stroke-width:1px;stroke-linecap:round;stroke-linejoin:round;"/>
                </g>
                <g transform="matrix(1,0,0,1,187.529,126.51)">
                    <path d="M0,29.95L0,31.534C0,31.965 -0.291,32.342 -0.708,32.452L-2.659,32.963C-3.313,33.135 -3.992,33.144 -4.649,32.985C-6.178,32.616 -9.388,31.755 -14.079,30.068C-20.851,27.632 -24.594,20.682 -24.594,13.434L-24.594,-0.17C-24.594,-2.249 -25.559,-2.832 -25.938,-3.194" style="fill:none;fill-rule:nonzero;stroke:rgb(22,33,45);stroke-width:1px;stroke-linecap:round;stroke-linejoin:round;"/>
                </g>
                <g transform="matrix(1,0,0,1,84.611,75.6197)">
                    <path d="M0,32.057C0.71,30.344 0.235,27.73 -2.022,27.106C-4.28,26.482 -5.111,26.364 -6.002,26.096C-6.894,25.829 -7.458,25.086 -7.458,24.047L-7.458,3.463C-7.458,1.68 -6.86,0.755 -3.342,0" style="fill:none;fill-rule:nonzero;stroke:rgb(22,33,45);stroke-width:1px;stroke-linecap:round;stroke-linejoin:round;"/>
                </g>
                <g transform="matrix(1,0,0,1,80.5471,135.054)">
                    <path d="M0,-28.147C-3.646,-27.69 -3.951,-26.265 -3.951,-25.518L-3.951,-23.636C-3.951,-21.174 -3.294,-20.239 -1.517,-19.73L74.456,-0.208C75.163,-0.027 75.901,0 76.619,-0.131L80.078,-0.76" style="fill:none;fill-rule:nonzero;stroke:rgb(22,33,45);stroke-width:1px;stroke-linecap:round;stroke-linejoin:round;"/>
                </g>
                <g transform="matrix(0.967399,-0.253257,-0.253257,-0.967399,169.05,154.678)">
                    <path d="M-2.084,16.185L125.736,16.185" style="fill:none;fill-rule:nonzero;stroke:rgb(22,33,45);stroke-width:0.5px;stroke-linecap:round;stroke-linejoin:round;"/>
                </g>
                <g transform="matrix(0.968223,-0.250088,-0.250088,-0.968223,169.007,72.4196)">
                    <path d="M-2.027,15.954L125.56,15.954" style="fill:none;fill-rule:nonzero;stroke:rgb(22,33,45);stroke-width:0.5px;stroke-linecap:round;stroke-linejoin:round;"/>
                </g>
                <g transform="matrix(0.968227,-0.250072,-0.250072,-0.968227,163.221,84.4886)">
                    <path d="M-0.057,0.449L3.53,0.449" style="fill:none;fill-rule:nonzero;stroke:rgb(22,33,45);stroke-width:0.5px;stroke-linecap:round;stroke-linejoin:round;"/>
                </g>
                <g transform="matrix(-0.969058,-0.246835,-0.246835,0.969058,10.9374,-16.1986)">
                    <path d="M-169.269,21.219L2.66,21.219" style="fill:none;fill-rule:nonzero;stroke:rgb(22,33,45);stroke-width:1px;stroke-linecap:round;stroke-linejoin:round;"/>
                </g>
                <g transform="matrix(-0.969058,-0.246832,-0.246832,0.969058,10.6516,-7.41979)">
                    <path d="M-163.085,20.443L2.563,20.443" style="fill:none;fill-rule:nonzero;stroke:rgb(22,33,45);stroke-width:1px;stroke-linecap:round;stroke-linejoin:round;"/>
                </g>
                <g transform="matrix(-0.969056,-0.246839,-0.246839,0.969056,6.5958,54.5724)">
                    <path d="M-75.212,9.429L1.182,9.429" style="fill:none;fill-rule:nonzero;stroke:rgb(22,33,45);stroke-width:1px;stroke-linecap:round;stroke-linejoin:round;"/>
                </g>
                <g transform="matrix(-0.969056,-0.246839,-0.246839,0.969056,6.5958,61.4609)">
                    <path d="M-75.212,9.429L1.182,9.429" style="fill:none;fill-rule:nonzero;stroke:rgb(22,33,45);stroke-width:1px;stroke-linecap:round;stroke-linejoin:round;"/>
                </g>
                <g transform="matrix(-0.969058,-0.246834,-0.246834,0.969058,16.4188,98.0502)">
                    <path d="M-287.991,36.102L4.526,36.102" style="fill:none;fill-rule:nonzero;stroke:rgb(22,33,45);stroke-width:1px;stroke-linecap:round;stroke-linejoin:round;"/>
                </g>
                <g transform="matrix(-0.157439,-0.987529,-0.987529,0.157439,65.9513,117.012)">
                    <ellipse cx="-5.975" cy="-0.953" rx="9.007" ry="6.051" style="fill:none;stroke:rgb(22,33,45);stroke-width:1px;stroke-linecap:round;stroke-linejoin:round;"/>
                </g>
                <g transform="matrix(-0.979567,0.201118,0.201118,0.979567,52.4174,117.587)">
                    <path d="M-13.661,17.168L-6.282,17.168C-2.944,17.019 -0.416,12.871 -0.637,7.901C-0.857,2.931 -3.743,-0.978 -7.081,-0.829L-14.46,-0.829" style="fill:none;fill-rule:nonzero;stroke:rgb(22,33,45);stroke-width:1px;stroke-linecap:round;stroke-linejoin:round;"/>
                </g>
                <g transform="matrix(0.968117,0.250498,0.250498,-0.968117,75.4671,104.633)">
                    <path d="M-1.513,-11.891L93.425,-11.891" style="fill:none;fill-rule:nonzero;stroke:rgb(22,33,45);stroke-width:1px;stroke-linecap:round;stroke-linejoin:round;"/>
                </g>
                <g transform="matrix(0.967825,0.251624,0.251624,-0.967825,78.0227,110.039)">
                    <path d="M-1.492,-11.667L91.242,-11.667" style="fill:none;fill-rule:nonzero;stroke:rgb(22,33,45);stroke-width:1px;stroke-linecap:round;stroke-linejoin:round;"/>
                </g>
                <g transform="matrix(0.96745,0.253063,0.253063,-0.96745,79.9823,105.083)">
                    <path d="M-3.656,-28.425L220.991,-28.425" style="fill:none;fill-rule:nonzero;stroke:rgb(22,33,45);stroke-width:1px;stroke-linecap:round;stroke-linejoin:round;"/>
                </g>
                <g transform="matrix(0.967623,0.2524,0.2524,-0.967623,73.8806,105.908)">
                    <path d="M-3.742,-29.175L227.434,-29.174" style="fill:none;fill-rule:nonzero;stroke:rgb(22,33,45);stroke-width:1px;stroke-linecap:round;stroke-linejoin:round;"/>
                </g>
                <g transform="matrix(1,0,0,1,88.7325,90.1841)">
                    <path d="M0,-9.172C1.478,-9.488 3.08,-7.854 3.578,-5.522C4.076,-3.191 3.282,-1.045 1.804,-0.729L-1.609,0C-3.086,0.316 -4.688,-1.318 -5.186,-3.65C-5.684,-5.981 -4.89,-8.127 -3.412,-8.443L0,-9.172Z" style="fill:none;fill-rule:nonzero;stroke:rgb(22,33,45);stroke-width:1px;stroke-linecap:round;stroke-linejoin:round;"/>
                </g>
                <g transform="matrix(-0.977926,0.208952,0.208952,0.977926,91.3986,89.1725)">
                    <ellipse cx="0.902" cy="-4.221" rx="2.737" ry="4.317" style="fill:none;stroke:rgb(22,33,45);stroke-width:0.5px;stroke-linecap:round;stroke-linejoin:round;"/>
                </g>
                <g transform="matrix(1,0,0,1,89,84.3315)">
                    <path d="M0,1.804L-0.313,0.338L0.324,-0.551L1.218,-0.082L1.569,1.561L0.945,2.355L0,1.804Z" style="fill:none;fill-rule:nonzero;stroke:rgb(22,33,45);stroke-width:0.5px;stroke-linecap:round;stroke-linejoin:round;"/>
                </g>
            </g>
        </g>
        <g transform="matrix(0,-1,-1,0,111.407,45.6751)">
            <ellipse cx="-70.867" cy="0" rx="70.866" ry="70.867" style="fill:none;stroke:rgb(0,108,250);stroke-width:3px;"/>
        </g>
    </g>
</svg>
