<?xml version="1.0" encoding="UTF-8" standalone="no"?>
<!DOCTYPE svg PUBLIC "-//W3C//DTD SVG 1.1//EN" "http://www.w3.org/Graphics/SVG/1.1/DTD/svg11.dtd">
<svg width="100%" height="100%" viewBox="0 0 450 284" version="1.1" xmlns="http://www.w3.org/2000/svg" xmlns:xlink="http://www.w3.org/1999/xlink" xml:space="preserve" xmlns:serif="http://www.serif.com/" style="fill-rule:evenodd;clip-rule:evenodd;stroke-linecap:round;stroke-linejoin:round;stroke-miterlimit:10;">
    <g transform="matrix(1,0,0,1,-15.8457,-95.624)">
        <g id="Layer-1" serif:id="Layer 1">
            <g>
                <g>
                    <g transform="matrix(1,0,0,1,221.525,239.876)">
                        <path d="M0,-54.864L-42.39,-38.165L-42.39,-61.66L0,-80.487L0,-54.864ZM0,14.469L-42.39,8.182L-42.39,-7.274L0,-26.107L0,14.469ZM-113.318,-87.967L-113.318,-103.719L-23.016,-90.336L-49.754,-78.456L-113.318,-87.967ZM-146.484,-92.929L-127.756,-101.492L-127.756,-90.127L-146.484,-92.929ZM9.713,-100.093L9.76,-100.094L-123.112,-120.138C-124.088,-120.285 -125.085,-120.147 -125.984,-119.74L-182.202,-94.274L-182.202,39.746C-182.202,43.266 -181.545,46.732 -176.807,47.426L-55.247,65.228C-53.673,65.421 -52.412,65.292 -51.426,64.897L-51.426,64.913L-51.302,64.859C-51.288,64.853 -51.274,64.847 -51.261,64.841L8.628,38.698C10.318,37.964 11.766,36.672 11.766,33.375L11.766,-96.791C11.766,-98.746 11.13,-99.929 9.713,-100.093" style="fill:rgb(87,87,92);fill-rule:nonzero;"/>
                    </g>
                    <g transform="matrix(1,0,0,1,228.205,184.186)">
                        <path d="M0,75.242C0,76.125 -0.519,76.926 -1.325,77.287L-47.753,98.084C-48.371,98.361 -49.069,97.909 -49.069,97.231L-49.069,48.416L-3.223,28.048C-2.386,27.674 -2.02,26.848 -2.02,25.931L-2.02,2.919C-2.02,1.967 -2.788,1.061 -3.726,0.904L-5.941,0.535L-49.069,17.525L-49.069,-7.155C-49.069,-8.042 -48.547,-8.845 -47.736,-9.204L-1.313,-29.774C-0.695,-30.048 0,-29.596 0,-28.92L0,75.242ZM0.119,-43.774L-55.485,-18.623L-55.485,115.976C-55.485,118.222 -56.281,119.793 -57.94,120.531L1.949,94.389C3.639,93.654 5.087,92.362 5.087,89.065L5.087,-41.101C5.087,-44.086 3.616,-45.289 0.119,-43.774" style="fill:rgb(220,220,220);fill-rule:nonzero;"/>
                    </g>
                    <g transform="matrix(1,0,0,1,172.719,285.682)">
                        <path d="M0,-120.119L0,14.48C0,18.089 -2.05,19.96 -6.441,19.422L-128.001,1.621C-132.739,0.927 -133.396,-2.54 -133.396,-6.06L-133.396,-140.079L0,-120.119Z" style="fill:none;fill-rule:nonzero;stroke:rgb(22,33,45);stroke-width:1px;"/>
                    </g>
                    <g transform="matrix(1,0,0,1,170.099,138.897)">
                        <path d="M0,165.892L60.054,139.677C61.744,138.943 63.192,137.651 63.192,134.354L63.192,4.188C63.192,1.203 61.722,0 58.224,1.514L2.62,26.665" style="fill:none;fill-rule:nonzero;stroke:rgb(22,33,45);stroke-width:1px;"/>
                    </g>
                    <g transform="matrix(1,0,0,1,39.3234,119.591)">
                        <path d="M0,26.011L56.218,0.545C57.117,0.138 58.114,0 59.09,0.147L191.962,20.19" style="fill:none;fill-rule:nonzero;stroke:rgb(22,33,45);stroke-width:1px;"/>
                    </g>
                    <g transform="matrix(-0.988989,-0.147986,-0.147986,0.988989,104.241,117.006)">
                        <path d="M-73.36,33.932L47.037,33.932L3.567,5.614L-117.893,5.598L-73.36,33.932Z" style="fill:none;fill-rule:nonzero;stroke:rgb(22,33,45);stroke-width:1px;"/>
                    </g>
                    <g transform="matrix(1,0,0,1,179.135,259.654)">
                        <path d="M0,-82.623L0,21.764C0,22.441 0.698,22.893 1.316,22.616L47.745,1.819C48.551,1.458 49.069,0.658 49.069,-0.226L49.069,-104.387C49.069,-105.063 48.374,-105.516 47.756,-105.242L1.333,-84.672C0.523,-84.313 0,-83.509 0,-82.623Z" style="fill:none;fill-rule:nonzero;stroke:rgb(22,33,45);stroke-width:1px;"/>
                    </g>
                    <g transform="matrix(1,0,0,1,179.135,184.721)">
                        <path d="M0,47.881L45.847,27.512C46.683,27.139 47.05,26.312 47.05,25.396L47.05,2.383C47.05,1.432 46.282,0.525 45.343,0.369L43.129,0L0,16.99" style="fill:none;fill-rule:nonzero;stroke:rgb(22,33,45);stroke-width:0.5px;"/>
                    </g>
                    <g transform="matrix(0,-1,-1,0,234.337,172.201)">
                        <path d="M-12.812,12.812L12.812,12.812" style="fill:none;fill-rule:nonzero;stroke:rgb(22,33,45);stroke-width:0.5px;"/>
                    </g>
                    <g transform="matrix(1,0,0,1,179.135,237.819)">
                        <path d="M0,-59.603L47.05,-80.499L47.05,20.896L43.96,20.09L42.39,18.189L42.39,-24.05" style="fill:none;fill-rule:nonzero;stroke:rgb(22,33,45);stroke-width:0.5px;"/>
                    </g>
                    <g transform="matrix(-0.912338,0.409437,0.409437,0.912338,185.52,288.537)">
                        <path d="M-49.31,-10.558L2.26,-10.558" style="fill:none;fill-rule:nonzero;stroke:rgb(22,33,45);stroke-width:0.5px;"/>
                    </g>
                    <g transform="matrix(-0.988945,-0.148283,-0.148283,0.988945,179.841,244.881)">
                        <path d="M-42.627,3.178L0.237,3.178" style="fill:none;fill-rule:nonzero;stroke:rgb(22,33,45);stroke-width:0.5px;"/>
                    </g>
                    <g transform="matrix(1,0,0,1,179.135,254.315)">
                        <path d="M0,15.475L26.692,4.95C27.088,4.801 27.029,4.223 26.611,4.158L0,0" style="fill:none;fill-rule:nonzero;stroke:rgb(22,33,45);stroke-width:0.5px;"/>
                    </g>
                    <g transform="matrix(1,0,0,1,163.272,262.852)">
                        <path d="M0,-23.202L0,-25.345L-10.572,-26.893L-10.572,-24.974C-10.572,-24.663 -10.848,-24.425 -11.156,-24.47L-15.428,-25.096C-15.678,-25.132 -15.863,-25.347 -15.863,-25.6L-15.863,-27.668L-98.735,-39.804L-98.735,-38.149C-98.735,-37.782 -99.06,-37.501 -99.423,-37.555L-103.513,-38.154C-103.808,-38.197 -104.026,-38.45 -104.026,-38.748L-104.026,-40.579L-114.323,-42.087L-114.323,-40.314C-114.323,-40.028 -114.577,-39.808 -114.86,-39.849L-116.968,-40.158L-116.968,1.434L-85.721,6.01L-85.721,3.653C-85.721,2.988 -85.131,2.479 -84.473,2.575L-29.979,10.555C-29.444,10.634 -29.048,11.092 -29.048,11.633L-29.048,14.309L2.2,18.885L2.2,-22.402L0.473,-22.654C0.201,-22.694 0,-22.927 0,-23.202Z" style="fill:none;fill-rule:nonzero;stroke:rgb(22,33,45);stroke-width:0.5px;"/>
                    </g>
                    <g transform="matrix(1,0,0,1,52.1254,259.092)">
                        <path d="M0,6.047L0,1.315C0,1.041 -0.201,0.808 -0.472,0.769L-5.822,0" style="fill:none;fill-rule:nonzero;stroke:rgb(22,33,45);stroke-width:0.5px;"/>
                    </g>
                    <g transform="matrix(-0.98982,-0.142327,-0.142327,0.98982,159.742,279.767)">
                        <path d="M-5.264,-3.645L-0.318,-3.645C0.017,-3.644 0.275,-3.347 0.227,-3.016L-0.368,1.12L-5.6,-1.313" style="fill:none;fill-rule:nonzero;stroke:rgb(22,33,45);stroke-width:0.5px;"/>
                    </g>
                    <g transform="matrix(1,0,0,1,159.139,260.7)">
                        <path d="M0,-9.58L0,5.687C0,6.556 -0.771,7.222 -1.63,7.096L-10.635,5.779C-11.569,5.642 -12.261,4.841 -12.261,3.898L-12.261,-15.267C-12.261,-16.136 -11.49,-16.802 -10.631,-16.676L2.657,-14.732C3.109,-14.666 3.443,-14.279 3.443,-13.823L3.443,-10.491C3.443,-10.111 3.106,-9.82 2.731,-9.875L0.643,-10.136C0.304,-10.186 0,-9.923 0,-9.58Z" style="fill:none;fill-rule:nonzero;stroke:rgb(22,33,45);stroke-width:0.5px;"/>
                    </g>
                    <g transform="matrix(1,0,0,1,97.8191,255.69)">
                        <path d="M0,-19.081L-22.816,-22.419C-23.727,-22.552 -24.545,-21.845 -24.545,-20.924L-24.545,-1.706C-24.545,-0.851 -23.917,-0.124 -23.071,0L-0.255,3.337C0.657,3.471 1.475,2.764 1.475,1.842L1.475,-17.375C1.475,-18.231 0.847,-18.957 0,-19.081Z" style="fill:none;fill-rule:nonzero;stroke:rgb(22,33,45);stroke-width:0.5px;"/>
                    </g>
                    <g transform="matrix(1,0,0,1,73.2739,233.623)">
                        <path d="M0,20.066L2.736,9.308C3.069,7.997 3.238,6.651 3.238,5.299L3.238,0" style="fill:none;fill-rule:nonzero;stroke:rgb(22,33,45);stroke-width:0.5px;"/>
                    </g>
                    <g transform="matrix(1,0,0,1,146.878,244.282)">
                        <path d="M0,20.066L2.736,9.308C3.069,7.997 3.238,6.651 3.238,5.299L3.238,0" style="fill:none;fill-rule:nonzero;stroke:rgb(22,33,45);stroke-width:0.5px;"/>
                    </g>
                    <g transform="matrix(0.936976,-0.349394,-0.349394,-0.936976,46.8663,265.235)">
                        <path d="M-0.196,1.086L6.018,1.085" style="fill:none;fill-rule:nonzero;stroke:rgb(22,33,45);stroke-width:0.5px;"/>
                    </g>
                    <g transform="matrix(0,-1,-1,0,161.906,248.352)">
                        <path d="M-2.768,2.768L2.768,2.768" style="fill:none;fill-rule:nonzero;stroke:rgb(22,33,45);stroke-width:0.5px;"/>
                    </g>
                    <g transform="matrix(1,0,0,1,75.0416,122.948)">
                        <path d="M0,23.999L21.846,14.011L30.98,5.902L30.98,0" style="fill:none;fill-rule:nonzero;stroke:rgb(22,33,45);stroke-width:0.5px;"/>
                    </g>
                    <g transform="matrix(0,1,1,0,99.556,144.172)">
                        <path d="M-5.787,-5.787L5.787,-5.787" style="fill:none;fill-rule:nonzero;stroke:rgb(22,33,45);stroke-width:0.5px;"/>
                    </g>
                    <g transform="matrix(1,0,0,1,108.208,136.156)">
                        <path d="M0,15.753L0,0L90.302,13.384" style="fill:none;fill-rule:nonzero;stroke:rgb(22,33,45);stroke-width:0.5px;"/>
                    </g>
                    <g transform="matrix(0.912846,-0.408304,-0.408304,-0.912846,73.0757,152.916)">
                        <path d="M-1.818,8.517L39.901,8.517" style="fill:none;fill-rule:nonzero;stroke:rgb(22,33,45);stroke-width:0.5px;"/>
                    </g>
                    <g transform="matrix(0.914301,-0.405035,-0.405035,-0.914301,174.2,248.763)">
                        <path d="M-0.061,0.29L1.368,0.29" style="fill:none;fill-rule:nonzero;stroke:rgb(87,87,92);stroke-width:0.5px;"/>
                    </g>
                    <g transform="matrix(1,0,0,1,151.605,250.904)">
                        <path d="M0,-6.426L0,-4.276C0,-3.789 0.118,-3.309 0.345,-2.877L1.763,-0.178L3.597,0L4.72,-1.978C4.977,-2.431 5.112,-2.943 5.112,-3.464L5.112,-5.638L0,-6.426Z" style="fill:rgb(255,214,0);fill-rule:nonzero;"/>
                    </g>
                    <g transform="matrix(0,1,1,0,108.576,347.084)">
                        <path d="M-99.557,45.706L-96.507,45.706C-92.705,45.706 -82.725,44.34 -73.576,35.785C-64.427,27.231 -45.706,-16.315 -46.19,-45.364C-46.649,-72.866 -59.675,-99.557 -74.052,-69.253" style="fill:none;fill-rule:nonzero;stroke:rgb(255,214,0);stroke-width:2px;stroke-linecap:butt;stroke-linejoin:miter;"/>
                    </g>
                    <g transform="matrix(0.989465,0.144773,0.144773,-0.989465,149.391,243.482)">
                        <path d="M-0.048,-0.665L9.138,-0.665" style="fill:none;fill-rule:nonzero;stroke:rgb(22,33,45);stroke-width:0.5px;"/>
                    </g>
                    <g transform="matrix(0,-1,-1,0,42.8436,272.491)">
                        <path d="M-3.52,3.52L3.52,3.52" style="fill:none;fill-rule:nonzero;stroke:black;stroke-width:1px;"/>
                    </g>
                    <g transform="matrix(-0.972376,0.233421,0.233421,0.972376,161.957,260.782)">
                        <path d="M-175.225,-20.737L2.454,-20.737" style="fill:none;fill-rule:nonzero;stroke:rgb(0,108,250);stroke-width:3px;stroke-linejoin:miter;"/>
                    </g>
                    <g>
                        <g>
                            <clipPath id="_clip1">
                                <path d="M256.635,199.717C256.635,238.855 288.362,270.583 327.502,270.583C366.64,270.583 398.368,238.855 398.368,199.717C398.368,160.579 366.64,128.851 327.502,128.851C288.362,128.851 256.635,160.579 256.635,199.717Z"/>
                            </clipPath>
                            <g clip-path="url(#_clip1)">
                                <g transform="matrix(1,0,0,1,0,49.516)">
                                    <rect x="181.75" y="46.108" width="283.465" height="283.465" style="fill:rgb(87,87,92);"/>
                                </g>
                                <g transform="matrix(1,0,0,1,381.804,286.897)">
                                    <path d="M0,-114.411L0,-95.17C0,-93.486 -1.366,-92.12 -3.05,-92.12L-16.096,-92.12C-17.781,-92.12 -19.146,-90.754 -19.146,-89.07L-19.146,-6.899C-19.146,-1.404 -23.601,3.05 -29.095,3.05L-83.532,3.05C-89.026,3.05 -93.48,-1.404 -93.48,-6.899L-93.48,-107.512C-93.48,-113.007 -89.026,-117.461 -83.532,-117.461L-3.05,-117.461C-1.366,-117.461 0,-116.096 0,-114.411Z" style="fill:none;fill-rule:nonzero;stroke:rgb(22,33,45);stroke-width:1px;stroke-linecap:butt;stroke-linejoin:miter;"/>
                                </g>
                                <g transform="matrix(1,0,0,1,352.85,171.736)">
                                    <path d="M0,115.302L-54.718,115.302C-58.735,115.302 -61.992,112.045 -61.992,108.028L-61.992,7.274C-61.992,3.257 -58.735,0 -54.718,0L0,0C4.017,0 7.274,3.257 7.274,7.274L7.274,108.028C7.274,112.045 4.017,115.302 0,115.302Z" style="fill:none;fill-rule:nonzero;stroke:rgb(22,33,45);stroke-width:0.5px;stroke-linecap:butt;stroke-linejoin:miter;"/>
                                </g>
                                <g transform="matrix(1,0,0,1,378.817,171.736)">
                                    <path d="M0,20.554L-13.594,20.554C-14,20.554 -14.329,20.225 -14.329,19.819L-14.329,0.735C-14.329,0.329 -14,0 -13.594,0L0,0C0.406,0 0.735,0.329 0.735,0.735L0.735,19.819C0.735,20.225 0.406,20.554 0,20.554Z" style="fill:none;fill-rule:nonzero;stroke:rgb(22,33,45);stroke-width:0.5px;stroke-linecap:butt;stroke-linejoin:miter;"/>
                                </g>
                                <g transform="matrix(1,0,0,1,377.268,173.073)">
                                    <path d="M0,17.88L-10.496,17.88C-10.902,17.88 -11.231,17.551 -11.231,17.145L-11.231,0.736C-11.231,0.33 -10.902,0 -10.496,0L0,0C0.406,0 0.735,0.33 0.735,0.736L0.735,17.145C0.735,17.551 0.406,17.88 0,17.88Z" style="fill:none;fill-rule:nonzero;stroke:rgb(22,33,45);stroke-width:0.5px;stroke-linecap:butt;stroke-linejoin:miter;"/>
                                </g>
                                <g transform="matrix(1,0,0,1,332.795,160.836)">
                                    <path d="M0,-12.915L-14.608,-12.915C-15.881,-12.915 -16.913,-11.883 -16.913,-10.61L-16.913,-4.468C-16.913,-4.223 -16.816,-3.989 -16.643,-3.816L-13.098,-0.271C-12.925,-0.098 -12.69,0 -12.446,0L-2.162,0C-1.917,0 -1.683,-0.098 -1.51,-0.271L2.035,-3.816C2.208,-3.989 2.305,-4.223 2.305,-4.468L2.305,-10.61C2.305,-11.883 1.273,-12.915 0,-12.915M0,-12.508C1.047,-12.508 1.899,-11.657 1.899,-10.61L1.899,-4.468C1.899,-4.33 1.845,-4.201 1.748,-4.103L-1.797,-0.558C-1.895,-0.461 -2.024,-0.407 -2.162,-0.407L-12.446,-0.407C-12.583,-0.407 -12.713,-0.461 -12.81,-0.558L-16.355,-4.103C-16.453,-4.201 -16.506,-4.33 -16.506,-4.468L-16.506,-10.61C-16.506,-11.657 -15.655,-12.508 -14.608,-12.508L0,-12.508Z" style="fill:rgb(22,33,45);fill-rule:nonzero;"/>
                                </g>
                                <g transform="matrix(1,0,0,1,330.657,154.457)">
                                    <path d="M0,-3.385L0.683,-3.385C1.008,-3.385 1.272,-3.121 1.272,-2.796L1.272,-0.589C1.272,-0.263 1.008,0 0.683,0L0,0C-0.325,0 -0.589,-0.263 -0.589,-0.589L-0.589,-2.796C-0.589,-3.121 -0.325,-3.385 0,-3.385" style="fill:rgb(22,33,45);fill-rule:nonzero;"/>
                                </g>
                                <g transform="matrix(1,0,0,1,320.324,154.457)">
                                    <path d="M0,-3.385L-0.683,-3.385C-1.008,-3.385 -1.272,-3.121 -1.272,-2.796L-1.272,-0.589C-1.272,-0.263 -1.008,0 -0.683,0L0,0C0.325,0 0.589,-0.263 0.589,-0.589L0.589,-2.796C0.589,-3.121 0.325,-3.385 0,-3.385" style="fill:rgb(22,33,45);fill-rule:nonzero;"/>
                                </g>
                                <g transform="matrix(1,0,0,1,325.149,157.622)">
                                    <path d="M0,-3.385L0.683,-3.385C1.008,-3.385 1.272,-3.121 1.272,-2.796L1.272,-0.589C1.272,-0.263 1.008,0 0.683,0L0,0C-0.325,0 -0.589,-0.263 -0.589,-0.589L-0.589,-2.796C-0.589,-3.121 -0.325,-3.385 0,-3.385" style="fill:rgb(22,33,45);fill-rule:nonzero;"/>
                                </g>
                                <g transform="matrix(1,0,0,1,369.983,161.013)">
                                    <path d="M0,-6.429C-0.97,-5.721 -1.558,-4.521 -1.394,-3.196C-1.201,-1.634 0.074,-0.375 1.638,-0.2C3.726,0.034 5.495,-1.594 5.495,-3.636C5.495,-4.784 4.935,-5.8 4.074,-6.429C4.027,-6.463 3.962,-6.457 3.921,-6.416L3.592,-6.083C3.541,-6.031 3.551,-5.949 3.61,-5.908C4.448,-5.327 4.952,-4.298 4.764,-3.164C4.567,-1.968 3.562,-1.022 2.357,-0.887C0.686,-0.7 -0.73,-2.002 -0.73,-3.636C-0.73,-4.578 -0.256,-5.409 0.464,-5.908C0.523,-5.949 0.533,-6.031 0.482,-6.083L0.152,-6.416C0.112,-6.457 0.046,-6.463 0,-6.429" style="fill:rgb(22,33,45);fill-rule:nonzero;"/>
                                </g>
                                <g transform="matrix(1,0,0,1,372.25,153.588)">
                                    <path d="M0,4.29L-0.461,4.29C-0.525,4.29 -0.576,4.238 -0.576,4.175L-0.576,0.116C-0.576,0.052 -0.525,0 -0.461,0L0,0C0.064,0 0.115,0.052 0.115,0.116L0.115,4.175C0.115,4.238 0.064,4.29 0,4.29" style="fill:rgb(22,33,45);fill-rule:nonzero;"/>
                                </g>
                                <g transform="matrix(1,0,0,1,332.319,316.1)">
                                    <path d="M0,-89.334C0.61,-90.226 3.332,-94.825 3.613,-99.353L2.804,-99.353L2.804,-114.159L-16.343,-114.159L-16.343,-99.353L-17.153,-99.353C-16.871,-94.825 -14.149,-90.226 -13.539,-89.334C-12.929,-88.442 -12.765,-87.199 -13.727,-86.119L-13.727,-83.421L-11.803,-81.732L-11.474,-62.186L-10.777,-62.186L-10.772,-60.591C-10.725,-49.08 -10.637,-27.656 -28.051,-10.167C-45.955,7.811 -77.844,16.926 -122.833,16.926L-150.569,16.926L-150.569,24.825L-122.833,24.825C-75.666,24.825 -41.894,14.928 -22.455,-4.593C-2.723,-24.406 -2.825,-48.869 -2.873,-60.624L-2.877,-62.186L-2.065,-62.186L-1.736,-81.732L0.188,-83.421L0.188,-86.119C-0.774,-87.199 -0.61,-88.442 0,-89.334" style="fill:rgb(255,214,0);fill-rule:nonzero;"/>
                                </g>
                                <g transform="matrix(1,0,0,1,335.932,253.914)">
                                    <path d="M0,-37.167C-0.282,-32.638 -3.003,-28.039 -3.613,-27.148C-4.224,-26.256 -4.388,-25.013 -3.426,-23.933L-3.426,-21.235L-5.35,-19.546L-5.678,0L-15.088,0L-15.416,-19.546L-17.341,-21.235L-17.341,-23.933C-16.379,-25.013 -16.543,-26.256 -17.153,-27.148C-17.763,-28.039 -20.485,-32.638 -20.766,-37.167L0,-37.167Z" style="fill:none;fill-rule:nonzero;stroke:rgb(22,33,45);stroke-width:1px;"/>
                                </g>
                                <g transform="matrix(-1,0,0,1,315.976,201.942)">
                                    <rect x="-19.147" y="0" width="19.147" height="14.806" style="fill:none;stroke:rgb(22,33,45);stroke-width:1px;"/>
                                </g>
                                <g transform="matrix(0,1,1,0,339.44,209.344)">
                                    <path d="M-7.403,-7.403L7.403,-7.403" style="fill:none;fill-rule:nonzero;stroke:rgb(22,33,45);stroke-width:0.5px;"/>
                                </g>
                                <g transform="matrix(0,1,1,0,326.464,209.344)">
                                    <path d="M-7.403,-7.403L7.403,-7.403" style="fill:none;fill-rule:nonzero;stroke:rgb(22,33,45);stroke-width:0.5px;"/>
                                </g>
                                <g transform="matrix(1,0,0,1,320.516,234.369)">
                                    <path d="M0,0L10.067,0" style="fill:none;fill-rule:nonzero;stroke:rgb(22,33,45);stroke-width:0.5px;"/>
                                </g>
                                <g transform="matrix(1,0,0,1,318.592,230.075)">
                                    <path d="M0,0L13.915,0" style="fill:none;fill-rule:nonzero;stroke:rgb(22,33,45);stroke-width:0.5px;"/>
                                </g>
                                <g transform="matrix(0.00313478,0.999995,0.999995,-0.00313478,291.491,363.172)">
                                    <path d="M-109.163,30.393L-107.568,30.393C-96.056,30.404 -74.632,30.425 -57.198,12.956C-39.277,-5.004 -30.261,-36.922 -30.402,-81.91L-30.489,-109.646" style="fill:none;fill-rule:nonzero;stroke:rgb(22,33,45);stroke-width:1px;"/>
                                </g>
                                <g transform="matrix(0.00319896,0.999995,0.999995,-0.00319896,299.414,371.049)">
                                    <path d="M-117.039,30.402L-115.476,30.402C-103.721,30.411 -79.258,30.435 -59.508,10.64C-40.049,-8.861 -30.26,-42.664 -30.411,-89.832L-30.5,-117.568" style="fill:none;fill-rule:nonzero;stroke:rgb(22,33,45);stroke-width:1px;"/>
                                </g>
                            </g>
                        </g>
                    </g>
                    <g transform="matrix(0,-1,-1,0,327.501,128.85)">
                        <ellipse cx="-70.867" cy="0" rx="70.866" ry="70.867" style="fill:none;stroke:rgb(0,108,250);stroke-width:3px;stroke-linecap:butt;stroke-linejoin:miter;"/>
                    </g>
                    <g transform="matrix(0,-1,-1,0,330.807,190.428)">
                        <path d="M-5.273,5.273L5.273,5.273" style="fill:none;fill-rule:nonzero;stroke:rgb(0,108,250);stroke-width:8px;stroke-miterlimit:4;"/>
                    </g>
                    <g transform="matrix(1,0,0,1,333.512,173.673)">
                        <path d="M0,13.816L-7.978,0L-15.956,13.816L0,13.816Z" style="fill:rgb(0,108,250);fill-rule:nonzero;"/>
                    </g>
                </g>
            </g>
        </g>
    </g>
</svg>
