<?xml version="1.0" encoding="UTF-8" standalone="no"?>
<!DOCTYPE svg PUBLIC "-//W3C//DTD SVG 1.1//EN" "http://www.w3.org/Graphics/SVG/1.1/DTD/svg11.dtd">
<svg width="100%" height="100%" viewBox="0 0 426 310" version="1.1" xmlns="http://www.w3.org/2000/svg" xmlns:xlink="http://www.w3.org/1999/xlink" xml:space="preserve" xmlns:serif="http://www.serif.com/" style="fill-rule:evenodd;clip-rule:evenodd;stroke-linejoin:round;stroke-miterlimit:10;">
    <g id="Layer-1" serif:id="Layer 1" transform="matrix(1,0,0,1,0,-58)">
        <g transform="matrix(1,0,0,1,109.215,328.332)">
            <path d="M0,-168.318L0,-6.631L116.384,23.59L207.23,0L207.23,-161.686L90.846,-191.908L0,-168.318Z" style="fill:white;fill-rule:nonzero;"/>
        </g>
        <g transform="matrix(0.968373,0.249507,0.249507,-0.968373,113.29,134.262)">
            <path d="M2.479,-25.954L122.664,-25.954L204.81,19.329L84.566,19.557L2.479,-25.954Z" style="fill:rgb(87,87,92);fill-rule:nonzero;"/>
        </g>
        <g transform="matrix(1,0,0,1,109.215,93.7048)">
            <path d="M0,-9.183L0,-6.852L116.383,23.59L207.231,-0L207.231,-2.551L90.846,-32.773L0,-9.183Z" style="fill:white;fill-rule:nonzero;"/>
        </g>
        <g transform="matrix(1,0,0,1,109.228,350.113)">
            <path d="M0,-15.659L23.368,-9.579L36.523,-12.009L36.523,-6.131L69.927,2.768L83.605,-0.885L83.605,5.764L116.398,14.182L125.955,11.696L125.955,-1.645L158.033,-10.237L184.052,-3.498L193.61,-5.984L193.61,-21.643L0,-29.841L0,-15.659Z" style="fill:white;fill-rule:nonzero;"/>
        </g>
        <g transform="matrix(-0.9678,0.251721,0.251721,0.9678,227.626,365.23)">
            <path d="M-11.264,-13.336L-1.388,-13.336L1.706,-1.441L-8.17,-1.441L-11.264,-13.336Z" style="fill:none;fill-rule:nonzero;stroke:rgb(22,33,45);stroke-width:1px;"/>
        </g>
        <g transform="matrix(1,0,0,1,179.142,352.851)">
            <path d="M0,-12.992L0,0L13.878,-3.652" style="fill:none;fill-rule:nonzero;stroke:rgb(22,33,45);stroke-width:1px;"/>
        </g>
        <g transform="matrix(1,0,0,1,132.583,340.505)">
            <path d="M0,-12.663L0,0L13.013,-2.431" style="fill:none;fill-rule:nonzero;stroke:rgb(22,33,45);stroke-width:1px;"/>
        </g>
        <g transform="matrix(1,0,0,1,192.82,364.265)">
            <path d="M0,-20.753L0,-8.419L32.792,0" style="fill:none;fill-rule:nonzero;stroke:rgb(22,33,45);stroke-width:1px;"/>
        </g>
        <g>
            <g>
                <g transform="matrix(-0.9678,0.251721,0.251721,0.9678,295.28,347.55)">
                    <path d="M-11.264,-13.336L-1.388,-13.336L1.706,-1.441L-8.17,-1.441L-11.264,-13.336Z" style="fill:none;fill-rule:nonzero;stroke:rgb(22,33,45);stroke-width:1px;"/>
                </g>
                <g transform="matrix(0.968591,0.248659,0.248659,-0.968591,270.705,337.653)">
                    <path d="M-0.384,-3.041L24.075,-3.041" style="fill:none;fill-rule:nonzero;stroke:rgb(22,33,45);stroke-width:1px;"/>
                </g>
                <g transform="matrix(1,0,0,1,145.738,352.85)">
                    <path d="M0,-21.666L0,-8.898L33.404,0" style="fill:none;fill-rule:nonzero;stroke:rgb(22,33,45);stroke-width:1px;"/>
                </g>
                <g transform="matrix(1,0,0,1,109.215,340.504)">
                    <path d="M0,-18.989L0,-6.08L23.368,0" style="fill:none;fill-rule:nonzero;stroke:rgb(22,33,45);stroke-width:1px;"/>
                </g>
                <g transform="matrix(1,0,0,1,109.215,328.332)">
                    <path d="M0,-168.553L90.846,-192.143L207.231,-161.921L207.231,0L116.385,23.59L0,-6.632L0,-168.553Z" style="fill:none;fill-rule:nonzero;stroke:rgb(22,33,45);stroke-width:1px;"/>
                </g>
                <g transform="matrix(1,0,0,1,109.215,351.922)">
                    <path d="M0,-192.143L116.385,-161.921L116.385,0" style="fill:none;fill-rule:nonzero;stroke:rgb(22,33,45);stroke-width:1px;stroke-linejoin:miter;"/>
                </g>
                <g transform="matrix(0.967901,-0.251332,-0.251332,-0.967901,230.022,201.039)">
                    <path d="M-1.506,11.795L92.353,11.795" style="fill:none;fill-rule:nonzero;stroke:rgb(22,33,45);stroke-width:1px;stroke-linejoin:miter;"/>
                </g>
                <g transform="matrix(0.967899,-0.251339,-0.251339,-0.967899,230.06,213.178)">
                    <path d="M-1.506,11.79L92.312,11.79" style="fill:none;fill-rule:nonzero;stroke:rgb(22,33,45);stroke-width:1px;stroke-linejoin:miter;"/>
                </g>
                <g transform="matrix(0.967899,-0.251339,-0.251339,-0.967899,230.06,349.101)">
                    <path d="M-1.506,11.79L92.312,11.79" style="fill:none;fill-rule:nonzero;stroke:rgb(22,33,45);stroke-width:1px;stroke-linejoin:miter;"/>
                </g>
                <g transform="matrix(0,1,1,0,303.212,267.426)">
                    <path d="M-67.815,-67.815L67.815,-67.815" style="fill:none;fill-rule:nonzero;stroke:rgb(22,33,45);stroke-width:1px;stroke-linejoin:miter;"/>
                </g>
                <g transform="matrix(0,-1,-1,0,374.465,248.951)">
                    <path d="M-67.841,67.841L67.841,67.841" style="fill:none;fill-rule:nonzero;stroke:rgb(22,33,45);stroke-width:1px;stroke-linejoin:miter;"/>
                </g>
                <g transform="matrix(-0.967901,-0.251332,-0.251332,0.967901,114.878,157.893)">
                    <path d="M-118.274,15.106L1.929,15.105" style="fill:none;fill-rule:nonzero;stroke:rgb(22,33,45);stroke-width:1px;stroke-linejoin:miter;"/>
                </g>
                <g transform="matrix(-0.967901,-0.251332,-0.251332,0.967901,114.878,293.721)">
                    <path d="M-118.274,15.106L1.929,15.105" style="fill:none;fill-rule:nonzero;stroke:rgb(22,33,45);stroke-width:1px;stroke-linejoin:miter;"/>
                </g>
                <g transform="matrix(0,1,1,0,283.716,267.62)">
                    <path d="M-67.915,-67.915L67.915,-67.915" style="fill:none;fill-rule:nonzero;stroke:rgb(22,33,45);stroke-width:1px;stroke-linejoin:miter;"/>
                </g>
                <g transform="matrix(0,1,1,0,187.18,242.553)">
                    <path d="M-67.915,-67.915L67.915,-67.915" style="fill:none;fill-rule:nonzero;stroke:rgb(22,33,45);stroke-width:1px;stroke-linejoin:miter;"/>
                </g>
                <g transform="matrix(1,0,0,1,304.406,334.207)">
                    <path d="M0,-152.521L0,-17.92L-69.009,0" style="fill:none;fill-rule:nonzero;stroke:rgb(22,33,45);stroke-width:0.5px;stroke-linejoin:miter;"/>
                </g>
                <g transform="matrix(0.975046,0.222001,0.222001,-0.975046,304.489,316.048)">
                    <path d="M-0.028,-0.253L2.246,-0.253" style="fill:none;fill-rule:nonzero;stroke:rgb(22,33,45);stroke-width:0.5px;stroke-linejoin:miter;"/>
                </g>
                <g transform="matrix(1,0,0,1,121.484,334.421)">
                    <path d="M0,-159.174L0,-24.459L94.318,0" style="fill:none;fill-rule:nonzero;stroke:rgb(22,33,45);stroke-width:0.5px;stroke-linejoin:miter;"/>
                </g>
                <g transform="matrix(-0.975046,0.222001,0.222001,0.975046,119.349,310.707)">
                    <path d="M-2.246,-0.253L0.028,-0.253" style="fill:none;fill-rule:nonzero;stroke:rgb(22,33,45);stroke-width:0.5px;stroke-linejoin:miter;"/>
                </g>
                <g transform="matrix(0.967454,-0.253045,-0.253045,-0.967454,119.425,184.016)">
                    <path d="M3.968,24.164L89.644,24.164L187.893,-30.778L101.71,-30.722L3.968,24.164Z" style="fill:none;fill-rule:nonzero;stroke:rgb(22,33,45);stroke-width:0.5px;"/>
                </g>
                <g transform="matrix(1,0,0,1,316.446,343.132)">
                    <g>
                        <path d="M0,-16.739L-90.847,6.851L-207.231,-23.59" style="fill:none;fill-rule:nonzero;stroke:rgb(22,33,45);stroke-width:0.5px;stroke-linejoin:miter;"/>
                    </g>
                </g>
                <g transform="matrix(0,1,1,0,200.999,138.916)">
                    <path d="M-0.962,-0.962L0.962,-0.962" style="fill:none;fill-rule:nonzero;stroke:rgb(22,33,45);stroke-width:0.5px;"/>
                </g>
                <g transform="matrix(1,0,0,1,121.015,146.541)">
                    <path d="M0,14.006L79.023,-6.663L184.28,20.669" style="fill:none;fill-rule:nonzero;stroke:rgb(22,33,45);stroke-width:0.5px;"/>
                </g>
                <g transform="matrix(1,0,0,1,199.334,161.108)">
                    <path d="M0,20.023L76.908,0L103.191,6.825" style="fill:none;fill-rule:nonzero;stroke:rgb(22,33,45);stroke-width:0.5px;"/>
                </g>
                <g transform="matrix(1,0,0,1,208.959,166.131)">
                    <path d="M0,17.517L67.283,0L83.917,4.319" style="fill:none;fill-rule:nonzero;stroke:rgb(22,33,45);stroke-width:0.5px;"/>
                </g>
                <g transform="matrix(1,0,0,1,157.604,174.651)">
                    <path d="M0,-4.406L11.757,-7.467L40.418,-0.013L28.687,3.061" style="fill:none;fill-rule:nonzero;stroke:rgb(22,33,45);stroke-width:0.5px;"/>
                </g>
                <g transform="matrix(1,0,0,1,123.971,166.329)">
                    <path d="M0,-4.901L11.757,-7.962L42.067,-0.013L30.337,3.061" style="fill:none;fill-rule:nonzero;stroke:rgb(22,33,45);stroke-width:0.5px;"/>
                </g>
                <g transform="matrix(1,0,0,1,132.689,167.826)">
                    <path d="M0,-4.169L3.04,-4.96L24.915,0.791" style="fill:none;fill-rule:nonzero;stroke:rgb(22,33,45);stroke-width:0.5px;"/>
                </g>
                <g transform="matrix(-0.967453,-0.253051,-0.253051,0.967453,204.908,140.506)">
                    <path d="M-15.4,33.227L60.439,33.227L4.501,2.04L-71.549,1.923L-15.4,33.227Z" style="fill:none;fill-rule:nonzero;stroke:rgb(22,33,45);stroke-width:0.5px;"/>
                </g>
                <g transform="matrix(0,1,1,0,171.752,169.575)">
                    <path d="M-2.391,-2.391L2.391,-2.391" style="fill:none;fill-rule:nonzero;stroke:rgb(22,33,45);stroke-width:0.5px;"/>
                </g>
                <g transform="matrix(1,0,0,1,166.288,176.098)">
                    <path d="M0,-3.611L3.073,-4.411L23.109,0.8" style="fill:none;fill-rule:nonzero;stroke:rgb(22,33,45);stroke-width:0.5px;"/>
                </g>
                <g transform="matrix(0,-1,-1,0,137.951,160.643)">
                    <path d="M-2.223,2.223L2.223,2.223" style="fill:none;fill-rule:nonzero;stroke:rgb(22,33,45);stroke-width:0.5px;"/>
                </g>
                <g transform="matrix(0,-1,-1,0,278.754,163.62)">
                    <path d="M-2.512,2.512L2.512,2.512" style="fill:none;fill-rule:nonzero;stroke:rgb(22,33,45);stroke-width:0.5px;"/>
                </g>
                <g>
                    <g>
                        <g transform="matrix(1,0,0,1,239.576,205.683)">
                            <path d="M0,-0.349L0.872,-0.573C1.127,-0.638 1.329,-0.774 1.478,-0.981C1.628,-1.188 1.702,-1.424 1.702,-1.689C1.702,-1.957 1.63,-2.15 1.487,-2.269C1.343,-2.387 1.161,-2.418 0.941,-2.362L0,-2.12L0,-0.349ZM-0.95,3.036L-0.95,-2.772L1.042,-3.283C1.419,-3.38 1.727,-3.385 1.967,-3.3C2.206,-3.214 2.383,-3.055 2.496,-2.823C2.609,-2.591 2.666,-2.305 2.666,-1.965C2.666,-1.659 2.627,-1.392 2.55,-1.162C2.472,-0.932 2.371,-0.731 2.246,-0.56C2.121,-0.388 1.984,-0.239 1.836,-0.113L2.715,2.095L1.725,2.349L0.957,0.309L0,0.555L0,2.792L-0.95,3.036Z" style="fill:rgb(22,33,45);fill-rule:nonzero;"/>
                        </g>
                        <g transform="matrix(0,-1,-1,0,246.673,205.002)">
                            <path d="M-2.551,3.501L3.257,3.501L3.501,2.551L-2.306,2.551L-2.551,3.501Z" style="fill:rgb(22,33,45);fill-rule:nonzero;"/>
                        </g>
                        <g transform="matrix(1,0,0,1,247.093,200.674)">
                            <path d="M0,5.954C-0.433,6.065 -0.809,6.04 -1.129,5.88C-1.448,5.719 -1.694,5.439 -1.867,5.039C-2.04,4.639 -2.126,4.136 -2.126,3.531C-2.126,2.915 -2.036,2.36 -1.854,1.865C-1.672,1.369 -1.418,0.958 -1.091,0.631C-0.764,0.303 -0.383,0.084 0.052,-0.028C0.333,-0.1 0.589,-0.111 0.82,-0.06C1.051,-0.01 1.252,0.089 1.423,0.235C1.594,0.381 1.727,0.562 1.825,0.777C1.921,0.991 1.974,1.226 1.983,1.481L0.977,1.739C0.949,1.561 0.892,1.407 0.808,1.276C0.725,1.145 0.618,1.05 0.487,0.991C0.356,0.932 0.204,0.925 0.03,0.97C-0.18,1.024 -0.369,1.138 -0.539,1.314C-0.709,1.491 -0.843,1.736 -0.941,2.05C-1.039,2.364 -1.088,2.759 -1.088,3.233C-1.088,3.616 -1.056,3.926 -0.991,4.164C-0.927,4.402 -0.841,4.581 -0.732,4.702C-0.623,4.822 -0.499,4.896 -0.359,4.921C-0.22,4.947 -0.077,4.942 0.069,4.904C0.208,4.868 0.333,4.808 0.443,4.722C0.553,4.636 0.647,4.538 0.725,4.427C0.804,4.315 0.866,4.2 0.911,4.079C0.957,3.959 0.987,3.845 1,3.737L1.035,3.375L0.059,3.625L0.059,2.814L2.035,2.319L2.035,5.352L1.385,5.518L1.385,4.759C1.305,4.911 1.205,5.067 1.086,5.228C0.967,5.388 0.82,5.533 0.645,5.662C0.47,5.791 0.255,5.889 0,5.954" style="fill:rgb(22,33,45);fill-rule:nonzero;"/>
                        </g>
                        <g transform="matrix(1,0,0,1,250.141,198.938)">
                            <path d="M0,6.827L0,1.019L0.95,0.775L0.95,3.105L3.018,2.575L3.018,0.245L3.972,0L3.972,5.808L3.018,6.053L3.018,3.558L0.95,4.089L0.95,6.583L0,6.827Z" style="fill:rgb(22,33,45);fill-rule:nonzero;"/>
                        </g>
                        <g transform="matrix(1,0,0,1,256.194,197.802)">
                            <path d="M0,6.411L0,1.647L-1.428,2.013L-1.428,0.969L2.352,0L2.352,1.044L0.957,1.402L0.957,6.166L0,6.411Z" style="fill:rgb(22,33,45);fill-rule:nonzero;"/>
                        </g>
                        <g transform="matrix(1,0,0,1,124.023,180.61)">
                            <path d="M0,5.425L0,-0.257L3.2,0.604L3.196,1.562L0.956,0.959L0.956,2.385L2.897,2.908L2.897,3.847L0.956,3.324L0.956,5.682L0,5.425Z" style="fill:rgb(22,33,45);fill-rule:nonzero;"/>
                        </g>
                        <g transform="matrix(1,0,0,1,128.958,185.227)">
                            <path d="M0,-0.936L0.868,-0.702C1.122,-0.634 1.323,-0.662 1.472,-0.787C1.62,-0.912 1.694,-1.105 1.694,-1.364C1.694,-1.626 1.623,-1.852 1.48,-2.043C1.337,-2.233 1.156,-2.358 0.937,-2.417L0,-2.669L0,-0.936ZM-0.946,1.882L-0.946,-3.8L1.037,-3.266C1.412,-3.165 1.719,-3.01 1.958,-2.802C2.196,-2.594 2.372,-2.347 2.484,-2.061C2.597,-1.776 2.653,-1.466 2.653,-1.134C2.653,-0.835 2.615,-0.593 2.538,-0.408C2.461,-0.223 2.36,-0.079 2.236,0.023C2.111,0.126 1.975,0.201 1.827,0.247L2.702,2.864L1.717,2.599L0.953,0.205L0,-0.052L0,2.137L-0.946,1.882Z" style="fill:rgb(22,33,45);fill-rule:nonzero;"/>
                        </g>
                        <g transform="matrix(1,0,0,1,134.393,184.01)">
                            <path d="M0,3.952C0.23,4.014 0.429,4.001 0.597,3.914C0.764,3.827 0.894,3.652 0.985,3.39C1.076,3.128 1.122,2.766 1.122,2.305C1.122,1.831 1.076,1.434 0.984,1.116C0.892,0.798 0.761,0.547 0.593,0.365C0.425,0.182 0.228,0.06 0,-0.001C-0.228,-0.063 -0.426,-0.047 -0.595,0.045C-0.764,0.137 -0.895,0.318 -0.989,0.587C-1.082,0.857 -1.128,1.227 -1.128,1.699C-1.128,2.163 -1.082,2.55 -0.989,2.861C-0.895,3.171 -0.764,3.416 -0.595,3.593C-0.426,3.771 -0.228,3.891 0,3.952M0,4.895C-0.445,4.775 -0.829,4.555 -1.153,4.233C-1.477,3.911 -1.727,3.51 -1.904,3.029C-2.081,2.548 -2.169,2.006 -2.169,1.403C-2.169,0.798 -2.079,0.301 -1.901,-0.089C-1.722,-0.478 -1.47,-0.747 -1.145,-0.897C-0.82,-1.046 -0.438,-1.062 0,-0.944C0.436,-0.827 0.815,-0.607 1.138,-0.284C1.461,0.038 1.711,0.442 1.888,0.927C2.064,1.412 2.152,1.959 2.152,2.567C2.152,3.166 2.065,3.66 1.891,4.048C1.716,4.436 1.468,4.704 1.145,4.851C0.821,4.999 0.44,5.014 0,4.895" style="fill:rgb(22,33,45);fill-rule:nonzero;"/>
                        </g>
                        <g transform="matrix(1,0,0,1,137.384,185.035)">
                            <path d="M0,4.596L0,-1.086L0.94,-0.833L3.086,3.505L3.086,-0.256L4.035,0L4.035,5.682L3.18,5.452L0.946,0.94L0.946,4.851L0,4.596Z" style="fill:rgb(22,33,45);fill-rule:nonzero;"/>
                        </g>
                        <g transform="matrix(1,0,0,1,143.487,185.465)">
                            <path d="M0,5.809L0,1.148L-1.421,0.766L-1.421,-0.256L2.341,0.757L2.341,1.778L0.953,1.405L0.953,6.065L0,5.809Z" style="fill:rgb(22,33,45);fill-rule:nonzero;"/>
                        </g>
                        <g transform="matrix(1,0,0,1,183.016,86.1401)">
                            <path d="M0,1.354C-0.477,1.365 -0.913,1.312 -1.439,1.181C-1.966,1.051 -2.175,0.944 -2.155,0.819C-2.128,0.682 -1.747,0.483 -1.101,0.301C-0.448,0.118 0.232,0.016 0.748,0.004C1.226,-0.011 1.648,0.05 2.162,0.177C2.694,0.309 2.917,0.412 2.903,0.539C2.87,0.674 2.528,0.856 1.875,1.04C1.229,1.221 0.51,1.337 0,1.354M-1.108,0.847C-1.123,0.894 -1.062,0.933 -0.793,1C-0.505,1.071 -0.353,1.085 -0.18,1.077C0.093,1.066 0.576,0.963 1.048,0.831C1.527,0.697 1.82,0.581 1.85,0.507C1.872,0.461 1.804,0.423 1.528,0.355C1.246,0.285 1.101,0.269 0.923,0.277C0.642,0.289 0.218,0.372 -0.261,0.506C-0.733,0.639 -1.084,0.774 -1.108,0.847" style="fill:rgb(22,33,45);fill-rule:nonzero;"/>
                        </g>
                        <g transform="matrix(1,0,0,1,188.138,87.2273)">
                            <path d="M0,0.748C-1.222,1.091 -2.173,1.149 -3.332,0.862C-3.47,0.827 -3.663,0.773 -3.739,0.754C-3.776,0.745 -3.802,0.745 -3.84,0.756L-4.901,1.054C-4.94,1.064 -4.991,1.066 -5.028,1.056L-5.723,0.884C-5.761,0.874 -5.76,0.861 -5.721,0.85L-1.305,-0.39C-1.28,-0.397 -1.241,-0.401 -1.166,-0.393C-0.843,-0.357 -0.265,-0.241 0.129,-0.143C1.426,0.179 1.261,0.394 0,0.748M-3.116,0.553C-3.149,0.562 -3.162,0.572 -3.131,0.583C-3.044,0.618 -2.906,0.653 -2.793,0.681C-2.23,0.821 -1.822,0.809 -0.859,0.538C0.066,0.279 0.104,0.182 -0.504,0.031C-0.661,-0.008 -0.774,-0.029 -0.887,-0.047C-0.938,-0.056 -0.983,-0.046 -1.015,-0.037L-3.116,0.553Z" style="fill:rgb(22,33,45);fill-rule:nonzero;"/>
                        </g>
                        <g transform="matrix(1,0,0,1,188.25,87.9059)">
                            <path d="M0,1.072C-1.222,0.769 -0.918,0.478 0.174,0.171C1.332,-0.154 2.454,-0.217 3.476,0.037C4.478,0.285 4.216,0.518 3.279,0.781C2.839,0.904 2.71,0.931 2.56,0.893L0.793,0.455C0.762,0.447 0.743,0.449 0.717,0.456C0.025,0.651 0.17,0.779 0.753,0.924C1.072,1.003 1.526,1.071 1.785,1.101C1.816,1.109 1.835,1.117 1.821,1.127L1.361,1.28C1.335,1.287 1.303,1.289 1.259,1.285C0.898,1.257 0.439,1.181 0,1.072M1.305,0.305L2.463,0.592C2.514,0.605 2.545,0.606 2.72,0.557C3.211,0.419 3.351,0.317 2.875,0.199C2.317,0.06 1.816,0.141 1.312,0.283C1.286,0.29 1.279,0.299 1.305,0.305" style="fill:rgb(22,33,45);fill-rule:nonzero;"/>
                        </g>
                        <g transform="matrix(1,0,0,1,191.899,88.5911)">
                            <path d="M0,1.258C-0.038,1.249 -0.037,1.235 0.002,1.224L2.187,0.611C2.679,0.473 2.702,0.41 2.2,0.286C2.012,0.239 1.849,0.205 1.717,0.186C1.66,0.179 1.628,0.178 1.589,0.189L-1.113,0.948C-1.152,0.958 -1.203,0.959 -1.241,0.95L-1.936,0.778C-1.974,0.768 -1.973,0.755 -1.934,0.744L1.325,-0.171C1.364,-0.182 1.408,-0.181 1.452,-0.174C1.849,-0.106 2.49,0.012 2.885,0.11C3.987,0.384 3.991,0.538 3.047,0.804L0.823,1.428C0.784,1.439 0.733,1.44 0.695,1.431L0,1.258Z" style="fill:rgb(22,33,45);fill-rule:nonzero;"/>
                        </g>
                        <g transform="matrix(1,0,0,1,194.158,89.1329)">
                            <path d="M0,1.311C-0.501,1.187 -0.519,1.056 -0.047,0.923L2.074,0.328C2.1,0.32 2.1,0.314 2.075,0.308L1.643,0.2C1.605,0.191 1.606,0.177 1.645,0.167L2.168,0.019C2.207,0.009 2.258,0.008 2.296,0.017L2.728,0.124C2.753,0.13 2.779,0.13 2.804,0.123L3.613,-0.104C3.651,-0.115 3.702,-0.116 3.74,-0.107L4.435,0.066C4.473,0.075 4.472,0.088 4.433,0.099L3.625,0.326C3.599,0.334 3.599,0.34 3.624,0.346L4.15,0.477C4.188,0.486 4.187,0.5 4.148,0.511L3.625,0.658C3.586,0.669 3.535,0.67 3.497,0.66L2.971,0.53C2.946,0.524 2.921,0.524 2.895,0.531L0.974,1.071C0.761,1.13 0.772,1.164 0.972,1.214L1.167,1.262C1.198,1.27 1.216,1.281 1.164,1.296L0.712,1.413C0.674,1.423 0.603,1.427 0.566,1.421C0.396,1.395 0.176,1.355 0,1.311" style="fill:rgb(22,33,45);fill-rule:nonzero;"/>
                        </g>
                        <g transform="matrix(1,0,0,1,199.384,90.446)">
                            <path d="M0,-0.251C-0.1,-0.276 -0.276,-0.313 -0.415,-0.327C-0.472,-0.331 -0.498,-0.327 -0.53,-0.318L-3.201,0.432C-3.246,0.445 -3.297,0.446 -3.334,0.433L-4.023,0.262C-4.061,0.253 -4.06,0.239 -4.021,0.228L-0.762,-0.686C-0.724,-0.697 -0.679,-0.697 -0.635,-0.689C-0.251,-0.631 0.278,-0.534 0.679,-0.435C0.885,-0.384 1.01,-0.349 1.16,-0.302C1.185,-0.292 1.178,-0.287 1.146,-0.278L0.52,-0.119C0.5,-0.113 0.468,-0.111 0.444,-0.12C0.319,-0.165 0.175,-0.207 0,-0.251" style="fill:rgb(22,33,45);fill-rule:nonzero;"/>
                        </g>
                        <g transform="matrix(1,0,0,1,200.051,90.3677)">
                            <path d="M0,1.354C-0.477,1.365 -0.913,1.312 -1.439,1.181C-1.965,1.051 -2.175,0.944 -2.155,0.819C-2.128,0.682 -1.747,0.483 -1.1,0.301C-0.447,0.118 0.232,0.016 0.748,0.004C1.226,-0.011 1.648,0.05 2.162,0.177C2.694,0.309 2.917,0.412 2.903,0.539C2.87,0.674 2.528,0.856 1.875,1.04C1.229,1.221 0.51,1.337 0,1.354M-1.108,0.846C-1.123,0.894 -1.062,0.933 -0.793,1C-0.504,1.071 -0.353,1.085 -0.18,1.077C0.094,1.066 0.576,0.964 1.048,0.831C1.527,0.697 1.82,0.581 1.85,0.507C1.872,0.461 1.804,0.423 1.528,0.355C1.246,0.285 1.101,0.269 0.922,0.276C0.642,0.289 0.218,0.372 -0.261,0.506C-0.733,0.639 -1.084,0.774 -1.108,0.846" style="fill:rgb(22,33,45);fill-rule:nonzero;"/>
                        </g>
                        <g transform="matrix(1,0,0,1,202.542,91.2323)">
                            <path d="M0,1.258C-0.038,1.249 -0.037,1.235 0.002,1.224L2.187,0.611C2.679,0.473 2.702,0.41 2.201,0.286C2.013,0.239 1.849,0.205 1.717,0.186C1.66,0.179 1.628,0.178 1.589,0.189L-1.113,0.948C-1.152,0.958 -1.203,0.959 -1.24,0.95L-1.936,0.778C-1.974,0.768 -1.973,0.755 -1.934,0.744L1.325,-0.171C1.363,-0.182 1.408,-0.181 1.452,-0.174C1.849,-0.106 2.49,0.012 2.885,0.11C3.987,0.384 3.991,0.538 3.047,0.804L0.823,1.428C0.784,1.439 0.733,1.44 0.696,1.431L0,1.258Z" style="fill:rgb(22,33,45);fill-rule:nonzero;"/>
                        </g>
                        <g transform="matrix(1,0,0,1,203.778,92.3821)">
                            <path d="M0,0.384L0.594,0.234C0.613,0.228 0.651,0.231 0.67,0.239C0.832,0.303 1.106,0.385 1.313,0.436C1.758,0.547 1.872,0.551 2.196,0.46C2.39,0.406 2.38,0.352 2.234,0.131C2.076,-0.093 2.081,-0.187 2.515,-0.309C3.245,-0.514 3.867,-0.489 4.681,-0.287C4.982,-0.213 5.294,-0.118 5.449,-0.059C5.462,-0.053 5.468,-0.048 5.435,-0.039L4.823,0.114C4.81,0.117 4.771,0.118 4.753,0.11C4.597,0.054 4.36,-0.022 4.178,-0.067C3.784,-0.165 3.626,-0.19 3.348,-0.112C3.122,-0.048 3.157,-0.002 3.335,0.21C3.525,0.448 3.436,0.553 3.035,0.665C2.207,0.898 1.581,0.841 0.804,0.649C0.46,0.563 0.148,0.469 -0.014,0.408C-0.026,0.401 -0.032,0.393 0,0.384" style="fill:rgb(22,33,45);fill-rule:nonzero;"/>
                        </g>
                        <g transform="matrix(1,0,0,1,214.212,93.4247)">
                            <path d="M0,1.834L2.644,1.691L3.416,1.114L3.936,1.244L3.339,1.665L5.199,1.557L5.651,1.669L3.189,1.801L2.365,2.421L1.843,2.291L2.484,1.831L0.461,1.948L0,1.834ZM-2.285,1.267L1.097,0.539L2.872,0.98L2.433,1.072L1.079,0.736L0.055,0.958L1.26,1.257L0.831,1.349L-0.376,1.049L-1.425,1.275L-0.037,1.621L-0.48,1.715L-2.285,1.267ZM-4.507,0.716L-1.125,-0.012L-0.702,0.093L-3.641,0.727L-2.385,1.038L-2.825,1.133L-4.507,0.716ZM-6.82,0.141L-3.44,-0.587L-1.685,-0.151L-2.118,-0.059L-3.448,-0.389L-4.489,-0.163L-3.31,0.129L-3.736,0.221L-4.916,-0.072L-6.395,0.247L-6.82,0.141Z" style="fill:rgb(22,33,45);fill-rule:nonzero;"/>
                        </g>
                        <g transform="matrix(1,0,0,1,225.14,88.7245)">
                            <path d="M0,-3.986C3.094,-2.843 2.543,-1.162 -1.589,-0.002C-6.235,1.302 -13.648,1.455 -18.147,0.338C-22.646,-0.778 -22.527,-2.741 -17.882,-4.045C-13.75,-5.205 -7.429,-5.454 -2.916,-4.71L-0.635,-5.581C-6.628,-6.579 -15.049,-6.251 -20.548,-4.707C-26.715,-2.976 -26.873,-0.371 -20.901,1.111C-14.929,2.593 -5.089,2.391 1.077,0.66C6.577,-0.884 7.297,-3.123 3.153,-4.641L0,-3.986Z" style="fill:rgb(22,33,45);fill-rule:nonzero;"/>
                        </g>
                        <g transform="matrix(1,0,0,1,210.556,85.818)">
                            <path d="M0,2.27C-1.756,1.834 -1.869,1.112 -0.065,0.606C2.419,1.27 6.349,0.805 7.492,1.088C7.903,1.19 8.218,1.407 7.158,1.89C6.963,1.979 6.725,2.064 6.446,2.142C4.642,2.649 1.756,2.706 0,2.27M3.7,-0.381C1.801,-0.259 -0.098,0.02 -1.264,0.347C-3.584,0.998 -3.559,2 -1.207,2.583C1.144,3.167 4.931,3.112 7.251,2.46C8.417,2.133 9.354,1.615 9.7,1.107C9.7,1.107 10.622,-0.026 11.189,-0.897C7.923,-0.688 3.7,-0.381 3.7,-0.381" style="fill:rgb(22,33,45);fill-rule:nonzero;"/>
                        </g>
                        <g transform="matrix(1,0,0,1,199.334,131.511)">
                            <path d="M0,20.468L0,13.231L76.908,-6.792L103.178,0L103.178,7.237L26.27,27.26L0,20.468Z" style="fill:rgb(255,214,0);fill-rule:nonzero;"/>
                        </g>
                        <g transform="matrix(1,0,0,1,159.735,140.715)">
                            <path d="M0,3.048L0,-4.189L11.198,-6.792L37.468,-0L37.468,7.237L26.27,9.84L0,3.048Z" style="fill:rgb(255,214,0);fill-rule:nonzero;"/>
                        </g>
                        <g transform="matrix(1,0,0,1,302.513,151.98)">
                            <path d="M0,-20.468L0,-13.231L-76.908,6.792L-103.178,0L-103.178,-7.237L-26.27,-27.26L0,-20.468Z" style="fill:none;fill-rule:nonzero;stroke:rgb(22,33,45);stroke-width:1px;stroke-linecap:round;"/>
                        </g>
                        <g transform="matrix(1,0,0,1,302.513,151.535)">
                            <path d="M0,-20.023L-76.908,0L-103.178,-6.792" style="fill:none;fill-rule:nonzero;stroke:rgb(22,33,45);stroke-width:0.5px;stroke-linecap:round;"/>
                        </g>
                        <g transform="matrix(0,-1,-1,0,229.223,155.153)">
                            <path d="M-3.619,3.619L3.619,3.619" style="fill:none;fill-rule:nonzero;stroke:rgb(22,33,45);stroke-width:0.5px;stroke-linecap:round;"/>
                        </g>
                        <g transform="matrix(1,0,0,1,197.203,143.763)">
                            <path d="M0,-3.048L0,4.189L-11.198,6.792L-37.468,-0L-37.468,-7.237L-26.27,-9.84L0,-3.048Z" style="fill:none;fill-rule:nonzero;stroke:rgb(22,33,45);stroke-width:1px;stroke-linecap:round;"/>
                        </g>
                        <g transform="matrix(1,0,0,1,197.203,139.129)">
                            <path d="M0,1.586L-11.198,4.189L-37.468,-2.603" style="fill:none;fill-rule:nonzero;stroke:rgb(22,33,45);stroke-width:0.5px;stroke-linecap:round;"/>
                        </g>
                        <g transform="matrix(0,-1,-1,0,189.624,146.937)">
                            <path d="M-3.619,3.619L3.619,3.619" style="fill:none;fill-rule:nonzero;stroke:rgb(22,33,45);stroke-width:0.5px;stroke-linecap:round;"/>
                        </g>
                        <g transform="matrix(1,0,0,1,143.829,138.696)">
                            <path d="M0,-0.72C-2.037,-0.72 -3.591,-0.907 -4.63,-1.131L-4.696,-1.147L-4.696,-1.145C-5.319,-1.282 -5.748,-1.433 -5.975,-1.56C-5.369,-1.901 -3.325,-2.4 0,-2.4C1.866,-2.4 3.328,-2.243 4.359,-2.045L5.414,-1.786C5.66,-1.708 5.85,-1.631 5.975,-1.56C5.369,-1.219 3.326,-0.72 0,-0.72M14.126,-1.161L11.702,-1.759C11.542,-1.799 11.38,-1.702 11.336,-1.543L5.657,-2.938C3.769,-3.534 0.81,-3.578 0,-3.578C-1.216,-3.578 -7.284,-3.481 -7.284,-1.56C-7.284,-0.736 -6.166,-0.249 -4.794,0.041L2.623,1.862C2.591,2.022 2.687,2.18 2.847,2.219L5.27,2.818C5.433,2.858 5.598,2.758 5.639,2.595L5.916,1.473C5.957,1.309 5.857,1.144 5.693,1.103L3.27,0.505C3.11,0.465 2.949,0.561 2.905,0.72L1.653,0.412C3.752,0.301 6.912,-0.077 7.251,-1.335L11.055,-0.4C11.024,-0.242 11.12,-0.084 11.279,-0.045L13.702,0.554C13.865,0.594 14.031,0.494 14.071,0.331L14.349,-0.791C14.389,-0.955 14.289,-1.12 14.126,-1.161" style="fill:rgb(255,213,0);fill-rule:nonzero;"/>
                        </g>
                        <g transform="matrix(1,0,0,1,143.829,138.696)">
                            <path d="M0,-0.72C-2.037,-0.72 -3.591,-0.907 -4.63,-1.131L-4.696,-1.147L-4.696,-1.145C-5.319,-1.282 -5.748,-1.433 -5.975,-1.56C-5.369,-1.901 -3.325,-2.4 0,-2.4C1.866,-2.4 3.328,-2.243 4.359,-2.045L5.414,-1.786C5.66,-1.708 5.85,-1.631 5.975,-1.56C5.369,-1.219 3.326,-0.72 0,-0.72ZM14.126,-1.161L11.702,-1.759C11.542,-1.799 11.38,-1.702 11.336,-1.543L5.657,-2.938C3.769,-3.534 0.81,-3.578 0,-3.578C-1.216,-3.578 -7.284,-3.481 -7.284,-1.56C-7.284,-0.736 -6.166,-0.249 -4.794,0.041L2.623,1.862C2.591,2.022 2.687,2.18 2.847,2.219L5.27,2.818C5.433,2.858 5.598,2.758 5.639,2.595L5.916,1.473C5.957,1.309 5.857,1.144 5.693,1.103L3.27,0.505C3.11,0.465 2.949,0.561 2.905,0.72L1.653,0.412C3.752,0.301 6.912,-0.077 7.251,-1.335L11.055,-0.4C11.024,-0.242 11.12,-0.084 11.279,-0.045L13.702,0.554C13.865,0.594 14.031,0.494 14.071,0.331L14.349,-0.791C14.389,-0.955 14.289,-1.12 14.126,-1.161Z" style="fill:none;fill-rule:nonzero;stroke:rgb(22,33,45);stroke-width:0.5px;stroke-linejoin:miter;"/>
                        </g>
                        <g transform="matrix(0,-1,-1,0,143.829,129.871)">
                            <ellipse cx="-7.265" cy="0" rx="2.051" ry="7.265" style="fill:none;stroke:rgb(22,33,45);stroke-width:0.5px;stroke-linejoin:miter;"/>
                        </g>
                        <g transform="matrix(1,0,0,1,143.829,128.834)">
                            <path d="M0,-0.72C-2.037,-0.72 -3.591,-0.907 -4.63,-1.131L-4.696,-1.147L-4.696,-1.145C-5.319,-1.282 -5.748,-1.433 -5.975,-1.56C-5.369,-1.901 -3.325,-2.4 0,-2.4C1.866,-2.4 3.328,-2.243 4.359,-2.045L5.414,-1.786C5.66,-1.708 5.85,-1.631 5.975,-1.56C5.369,-1.219 3.326,-0.72 0,-0.72M14.126,-1.161L11.702,-1.759C11.542,-1.799 11.38,-1.702 11.336,-1.543L5.657,-2.938C3.769,-3.534 0.81,-3.578 0,-3.578C-1.216,-3.578 -7.284,-3.481 -7.284,-1.56C-7.284,-0.736 -6.166,-0.249 -4.794,0.041L2.623,1.862C2.591,2.022 2.687,2.18 2.847,2.219L5.27,2.818C5.433,2.858 5.598,2.758 5.639,2.595L5.916,1.473C5.957,1.309 5.857,1.144 5.693,1.103L3.27,0.505C3.11,0.465 2.949,0.561 2.905,0.72L1.653,0.412C3.752,0.301 6.912,-0.077 7.251,-1.335L11.055,-0.4C11.024,-0.242 11.12,-0.084 11.279,-0.045L13.702,0.554C13.865,0.594 14.031,0.494 14.071,0.331L14.349,-0.791C14.389,-0.955 14.289,-1.12 14.126,-1.161" style="fill:rgb(255,214,0);fill-rule:nonzero;"/>
                        </g>
                        <g transform="matrix(1,0,0,1,143.829,128.834)">
                            <path d="M0,-0.72C-2.037,-0.72 -3.591,-0.907 -4.63,-1.131L-4.696,-1.147L-4.696,-1.145C-5.319,-1.282 -5.748,-1.433 -5.975,-1.56C-5.369,-1.901 -3.325,-2.4 0,-2.4C1.866,-2.4 3.328,-2.243 4.359,-2.045L5.414,-1.786C5.66,-1.708 5.85,-1.631 5.975,-1.56C5.369,-1.219 3.326,-0.72 0,-0.72ZM14.126,-1.161L11.702,-1.759C11.542,-1.799 11.38,-1.702 11.336,-1.543L5.657,-2.938C3.769,-3.534 0.81,-3.578 0,-3.578C-1.216,-3.578 -7.284,-3.481 -7.284,-1.56C-7.284,-0.736 -6.166,-0.249 -4.794,0.041L2.623,1.862C2.591,2.022 2.687,2.18 2.847,2.219L5.27,2.818C5.433,2.858 5.598,2.758 5.639,2.595L5.916,1.473C5.957,1.309 5.857,1.144 5.693,1.103L3.27,0.505C3.11,0.465 2.949,0.561 2.905,0.72L1.653,0.412C3.752,0.301 6.912,-0.077 7.251,-1.335L11.055,-0.4C11.024,-0.242 11.12,-0.084 11.279,-0.045L13.702,0.554C13.865,0.594 14.031,0.494 14.071,0.331L14.349,-0.791C14.389,-0.955 14.289,-1.12 14.126,-1.161Z" style="fill:none;fill-rule:nonzero;stroke:rgb(22,33,45);stroke-width:0.5px;stroke-linejoin:miter;"/>
                        </g>
                        <g transform="matrix(0,-1,-1,0,143.829,120.008)">
                            <ellipse cx="-7.265" cy="0" rx="2.051" ry="7.265" style="fill:none;stroke:rgb(22,33,45);stroke-width:0.5px;stroke-linejoin:miter;"/>
                        </g>
                        <g transform="matrix(1,0,0,1,127.223,148.937)">
                            <path d="M0,-8.246L-2.024,-7.718C-2.462,-7.603 -2.767,-7.208 -2.767,-6.756L-2.767,-0.899L2.57,0.227C3.133,0.346 3.716,0.334 4.274,0.193L9.07,-1.018L9.07,-7.202C9.07,-7.681 8.728,-8.091 8.257,-8.179L6.031,-8.592" style="fill:rgb(255,214,0);fill-rule:nonzero;stroke:rgb(22,33,45);stroke-width:0.5px;stroke-linecap:round;"/>
                        </g>
                        <g transform="matrix(1,0,0,1,133.253,140.578)">
                            <path d="M0,-2.35L0,0C0,0.461 -1.343,0.836 -3,0.836C-4.657,0.836 -6,0.461 -6,0L-6,-2.35C-6,-2.812 -4.657,-3.186 -3,-3.186C-1.343,-3.186 0,-2.812 0,-2.35Z" style="fill:rgb(255,214,0);fill-rule:nonzero;stroke:rgb(22,33,45);stroke-width:0.5px;stroke-linecap:round;"/>
                        </g>
                        <g transform="matrix(1,0,0,1,133.253,139.064)">
                            <path d="M0,-0.836C0,-0.374 -1.343,0 -3,0C-4.657,0 -6,-0.374 -6,-0.836" style="fill:none;fill-rule:nonzero;stroke:rgb(22,33,45);stroke-width:0.5px;stroke-linecap:round;"/>
                        </g>
                        <g transform="matrix(1,0,0,1,218.873,215.414)">
                            <path d="M0,-6.997L-0.031,-0.801L6.694,0.916L16.695,-1.821L16.798,-7.913L6.909,-5.203L0,-6.997Z" style="fill:white;fill-rule:nonzero;stroke:rgb(22,33,45);stroke-width:1px;"/>
                        </g>
                        <g transform="matrix(1,0,0,1,229.992,212.338)">
                            <path d="M0,-1.556L0.08,1.303L2.553,3.042C2.928,3.306 3.445,3.038 3.446,2.58L3.461,-4.091C3.462,-4.62 2.804,-4.862 2.462,-4.459L0,-1.556Z" style="fill:white;fill-rule:nonzero;stroke:rgb(22,33,45);stroke-width:1px;"/>
                        </g>
                        <g transform="matrix(0,1,1,0,228.816,213.245)">
                            <path d="M-3.034,-3.034L3.034,-3.034" style="fill:none;fill-rule:nonzero;stroke:rgb(22,33,45);stroke-width:0.5px;"/>
                        </g>
                        <g transform="matrix(0.251614,-0.967828,-0.967828,-0.251614,229.869,211.527)">
                            <path d="M-0.927,-0.717C-1.85,-0.717 -2.598,-0.288 -2.598,0.241C-2.598,0.77 -1.851,1.198 -0.927,1.199C-0.004,1.199 0.744,0.77 0.744,0.241C0.744,-0.288 -0.004,-0.717 -0.927,-0.717" style="fill:white;fill-rule:nonzero;"/>
                        </g>
                        <g transform="matrix(0.251614,-0.967828,-0.967828,-0.251614,229.869,211.527)">
                            <ellipse cx="-0.927" cy="0.241" rx="1.671" ry="0.958" style="fill:none;stroke:rgb(22,33,45);stroke-width:1px;"/>
                        </g>
                        <g transform="matrix(1,0,0,1,218.873,332.777)">
                            <path d="M0,-6.997L-0.031,-0.801L6.694,0.916L16.695,-1.821L16.798,-7.913L6.909,-5.203L0,-6.997Z" style="fill:white;fill-rule:nonzero;stroke:rgb(22,33,45);stroke-width:1px;"/>
                        </g>
                        <g transform="matrix(1,0,0,1,229.992,329.701)">
                            <path d="M0,-1.556L0.08,1.303L2.553,3.042C2.928,3.306 3.445,3.038 3.446,2.58L3.461,-4.091C3.462,-4.62 2.804,-4.862 2.462,-4.459L0,-1.556Z" style="fill:white;fill-rule:nonzero;stroke:rgb(22,33,45);stroke-width:1px;"/>
                        </g>
                        <g transform="matrix(0,1,1,0,228.816,330.608)">
                            <path d="M-3.034,-3.034L3.034,-3.034" style="fill:none;fill-rule:nonzero;stroke:black;stroke-width:0.5px;"/>
                        </g>
                        <g transform="matrix(0.251614,-0.967828,-0.967828,-0.251614,229.869,328.89)">
                            <path d="M-0.927,-0.717C-1.85,-0.717 -2.598,-0.288 -2.598,0.241C-2.598,0.77 -1.851,1.198 -0.927,1.199C-0.004,1.199 0.744,0.77 0.744,0.241C0.744,-0.288 -0.004,-0.717 -0.927,-0.717" style="fill:white;fill-rule:nonzero;"/>
                        </g>
                        <g transform="matrix(0.251614,-0.967828,-0.967828,-0.251614,229.869,328.89)">
                            <ellipse cx="-0.927" cy="0.241" rx="1.671" ry="0.958" style="fill:none;stroke:rgb(22,33,45);stroke-width:1px;"/>
                        </g>
                        <g transform="matrix(-0.958945,0.283593,0.283593,0.958945,306.459,191.454)">
                            <path d="M-9.049,4.371L1.12,4.371L-0.705,-1.443L-10.802,-1.31L-9.049,4.371Z" style="fill:white;fill-rule:nonzero;stroke:rgb(22,33,45);stroke-width:1px;"/>
                        </g>
                        <g transform="matrix(1,0,0,1,312.303,191.126)">
                            <path d="M0,1.556L-0.08,-1.303L-2.553,-3.042C-2.928,-3.306 -3.445,-3.038 -3.446,-2.58L-3.461,4.091C-3.462,4.62 -2.804,4.862 -2.462,4.459L0,1.556Z" style="fill:white;fill-rule:nonzero;stroke:rgb(22,33,45);stroke-width:1px;"/>
                        </g>
                        <g transform="matrix(-0.251614,0.967828,0.967828,0.251614,313.359,190.264)">
                            <path d="M0.927,-1.199C0.004,-1.199 -0.744,-0.77 -0.744,-0.241C-0.744,0.288 0.003,0.716 0.927,0.717C1.85,0.717 2.598,0.288 2.598,-0.241C2.598,-0.77 1.85,-1.199 0.927,-1.199" style="fill:white;fill-rule:nonzero;"/>
                        </g>
                        <g transform="matrix(-0.251614,0.967828,0.967828,0.251614,313.359,190.264)">
                            <ellipse cx="0.927" cy="-0.241" rx="1.671" ry="0.958" style="fill:none;stroke:rgb(22,33,45);stroke-width:1px;"/>
                        </g>
                        <g transform="matrix(-0.958945,0.283593,0.283593,0.958945,306.459,308.866)">
                            <path d="M-9.049,4.371L1.12,4.371L-0.705,-1.443L-10.802,-1.31L-9.049,4.371Z" style="fill:white;fill-rule:nonzero;stroke:rgb(22,33,45);stroke-width:1px;"/>
                        </g>
                        <g transform="matrix(1,0,0,1,312.303,308.539)">
                            <path d="M0,1.556L-0.08,-1.303L-2.553,-3.042C-2.928,-3.306 -3.445,-3.038 -3.446,-2.58L-3.461,4.091C-3.462,4.62 -2.804,4.862 -2.462,4.459L0,1.556Z" style="fill:white;fill-rule:nonzero;stroke:rgb(22,33,45);stroke-width:1px;"/>
                        </g>
                        <g transform="matrix(-0.251614,0.967828,0.967828,0.251614,313.359,307.676)">
                            <path d="M0.927,-1.199C0.004,-1.199 -0.744,-0.77 -0.744,-0.241C-0.744,0.288 0.003,0.716 0.927,0.717C1.85,0.717 2.598,0.288 2.598,-0.241C2.598,-0.77 1.85,-1.199 0.927,-1.199" style="fill:white;fill-rule:nonzero;"/>
                        </g>
                        <g transform="matrix(-0.251614,0.967828,0.967828,0.251614,313.359,307.676)">
                            <ellipse cx="0.927" cy="-0.241" rx="1.671" ry="0.958" style="fill:none;stroke:rgb(22,33,45);stroke-width:1px;"/>
                        </g>
                        <g transform="matrix(-0.956448,-0.291904,-0.291904,0.956448,110.41,180.216)">
                            <path d="M-5.263,6.769L-0.816,6.769L1.01,0.785L-3.437,0.785L-5.263,6.769Z" style="fill:white;fill-rule:nonzero;stroke:rgb(22,33,45);stroke-width:1px;"/>
                        </g>
                        <g transform="matrix(-0.956448,-0.291904,-0.291904,0.956448,110.41,296.51)">
                            <path d="M-5.263,6.769L-0.816,6.769L1.01,0.785L-3.437,0.785L-5.263,6.769Z" style="fill:white;fill-rule:nonzero;stroke:rgb(22,33,45);stroke-width:1px;"/>
                        </g>
                        <g transform="matrix(0,-1,-1,0,240.208,346.393)">
                            <path d="M-12.592,6.69L8.32,6.69L6.805,12.592L-14.222,12.592L-12.592,6.69Z" style="fill:white;fill-rule:nonzero;stroke:rgb(22,33,45);stroke-width:1px;"/>
                        </g>
                        <g transform="matrix(1,0,0,1,232.227,342.222)">
                            <path d="M0,3.493L-2.8,4.079L-5.065,2.078C-5.409,1.774 -5.269,1.209 -4.823,1.102L1.662,-0.462C2.176,-0.586 2.565,-0.002 2.252,0.424L0,3.493Z" style="fill:white;fill-rule:nonzero;stroke:rgb(22,33,45);stroke-width:1px;"/>
                        </g>
                        <g transform="matrix(-0.251614,0.967828,0.967828,0.251614,231.338,345.577)">
                            <path d="M0.927,-1.199C0.004,-1.199 -0.744,-0.77 -0.744,-0.241C-0.744,0.288 0.003,0.716 0.927,0.717C1.85,0.717 2.598,0.288 2.598,-0.241C2.598,-0.77 1.85,-1.199 0.927,-1.199" style="fill:white;fill-rule:nonzero;"/>
                        </g>
                        <g transform="matrix(-0.251614,0.967828,0.967828,0.251614,231.338,345.577)">
                            <ellipse cx="0.927" cy="-0.241" rx="1.671" ry="0.958" style="fill:none;stroke:rgb(22,33,45);stroke-width:1px;"/>
                        </g>
                        <g transform="matrix(0.967803,-0.251708,-0.251708,-0.967803,227.904,352.171)">
                            <path d="M-0.098,0.768L6,0.768" style="fill:none;fill-rule:nonzero;stroke:rgb(22,33,45);stroke-width:0.5px;stroke-linejoin:miter;"/>
                        </g>
                        <g transform="matrix(0,-1,-1,0,228.214,351.389)">
                            <path d="M-6.69,12.592L14.222,12.592L12.707,6.69L-8.32,6.69L-6.69,12.592Z" style="fill:white;fill-rule:nonzero;stroke:rgb(22,33,45);stroke-width:1px;"/>
                        </g>
                        <g transform="matrix(1,0,0,1,216.912,341.315)">
                            <path d="M0,3.493L2.8,4.079L5.065,2.078C5.409,1.774 5.269,1.21 4.823,1.102L-1.662,-0.462C-2.176,-0.586 -2.565,-0.002 -2.252,0.424L0,3.493Z" style="fill:white;fill-rule:nonzero;stroke:rgb(22,33,45);stroke-width:1px;"/>
                        </g>
                        <g transform="matrix(-0.251614,-0.967828,-0.967828,0.251614,217.802,344.67)">
                            <path d="M-0.927,-1.199C-0.004,-1.199 0.744,-0.77 0.744,-0.241C0.744,0.288 -0.003,0.716 -0.927,0.717C-1.85,0.717 -2.598,0.288 -2.598,-0.241C-2.598,-0.77 -1.85,-1.199 -0.927,-1.199" style="fill:white;fill-rule:nonzero;"/>
                        </g>
                        <g transform="matrix(-0.251614,-0.967828,-0.967828,0.251614,217.802,344.67)">
                            <ellipse cx="-0.927" cy="-0.241" rx="1.671" ry="0.958" style="fill:none;stroke:rgb(22,33,45);stroke-width:1px;"/>
                        </g>
                        <g transform="matrix(-0.967803,-0.251708,-0.251708,0.967803,215.91,348.293)">
                            <path d="M-6,0.768L0.098,0.768" style="fill:none;fill-rule:nonzero;stroke:rgb(22,33,45);stroke-width:0.5px;stroke-linejoin:miter;"/>
                        </g>
                        <g transform="matrix(0,-1,-1,0,125.812,325.322)">
                            <path d="M-6.69,12.592L14.222,12.592L12.707,6.69L-8.32,6.69L-6.69,12.592Z" style="fill:white;fill-rule:nonzero;stroke:rgb(22,33,45);stroke-width:1px;"/>
                        </g>
                        <g transform="matrix(1,0,0,1,114.511,315.249)">
                            <path d="M0,3.493L2.8,4.079L5.065,2.078C5.409,1.774 5.269,1.21 4.823,1.102L-1.662,-0.462C-2.176,-0.586 -2.565,-0.002 -2.252,0.424L0,3.493Z" style="fill:white;fill-rule:nonzero;stroke:rgb(22,33,45);stroke-width:1px;"/>
                        </g>
                        <g transform="matrix(-0.251614,-0.967828,-0.967828,0.251614,115.4,318.603)">
                            <path d="M-0.927,-1.199C-0.004,-1.199 0.744,-0.77 0.744,-0.241C0.744,0.288 -0.003,0.716 -0.927,0.717C-1.85,0.717 -2.598,0.288 -2.598,-0.241C-2.598,-0.77 -1.85,-1.199 -0.927,-1.199" style="fill:white;fill-rule:nonzero;"/>
                        </g>
                        <g transform="matrix(-0.251614,-0.967828,-0.967828,0.251614,115.4,318.603)">
                            <ellipse cx="-0.927" cy="-0.241" rx="1.671" ry="0.958" style="fill:none;stroke:rgb(22,33,45);stroke-width:1px;"/>
                        </g>
                        <g transform="matrix(-0.967803,-0.251708,-0.251708,0.967803,113.508,322.226)">
                            <path d="M-6,0.768L0.098,0.768" style="fill:none;fill-rule:nonzero;stroke:rgb(22,33,45);stroke-width:0.5px;stroke-linejoin:miter;"/>
                        </g>
                        <g transform="matrix(0,-1,-1,0,308.192,328.856)">
                            <path d="M-12.592,6.69L8.32,6.69L6.805,12.592L-14.222,12.592L-12.592,6.69Z" style="fill:white;fill-rule:nonzero;stroke:rgb(22,33,45);stroke-width:1px;"/>
                        </g>
                        <g transform="matrix(1,0,0,1,300.211,324.685)">
                            <path d="M0,3.493L-2.8,4.079L-5.065,2.078C-5.409,1.774 -5.269,1.21 -4.823,1.102L1.662,-0.462C2.176,-0.586 2.565,-0.002 2.252,0.424L0,3.493Z" style="fill:white;fill-rule:nonzero;stroke:rgb(22,33,45);stroke-width:1px;"/>
                        </g>
                        <g transform="matrix(-0.251614,0.967828,0.967828,0.251614,299.322,328.04)">
                            <path d="M0.927,-1.199C0.004,-1.199 -0.744,-0.77 -0.744,-0.241C-0.744,0.288 0.003,0.716 0.927,0.717C1.85,0.717 2.598,0.288 2.598,-0.241C2.598,-0.77 1.85,-1.199 0.927,-1.199" style="fill:white;fill-rule:nonzero;"/>
                        </g>
                        <g transform="matrix(-0.251614,0.967828,0.967828,0.251614,299.322,328.04)">
                            <ellipse cx="0.927" cy="-0.241" rx="1.671" ry="0.958" style="fill:none;stroke:rgb(22,33,45);stroke-width:1px;"/>
                        </g>
                        <g transform="matrix(0.967803,-0.251708,-0.251708,-0.967803,295.888,334.634)">
                            <path d="M-0.098,0.768L6,0.768" style="fill:none;fill-rule:nonzero;stroke:rgb(22,33,45);stroke-width:0.5px;stroke-linejoin:miter;"/>
                        </g>
                        <g transform="matrix(1,0,0,1,109.215,67.5641)">
                            <path d="M0,16.958L90.846,-6.632L207.231,23.59" style="fill:none;fill-rule:nonzero;stroke:rgb(22,33,45);stroke-width:1px;"/>
                        </g>
                        <g transform="matrix(0.967899,-0.251341,-0.251341,-0.967899,229.107,118.32)">
                            <path d="M-1.181,9.248L72.408,9.248" style="fill:none;fill-rule:nonzero;stroke:rgb(22,33,45);stroke-width:1px;stroke-linejoin:miter;"/>
                        </g>
                        <g transform="matrix(0.967899,-0.251341,-0.251341,-0.967899,132.531,93.2421)">
                            <path d="M-1.181,9.248L72.408,9.248" style="fill:none;fill-rule:nonzero;stroke:rgb(22,33,45);stroke-width:1px;stroke-linejoin:miter;"/>
                        </g>
                        <g transform="matrix(0.9679,0.251337,0.251337,-0.9679,124.678,67.837)">
                            <path d="M-1.93,-15.111L118.315,-15.111" style="fill:none;fill-rule:nonzero;stroke:rgb(22,33,45);stroke-width:1px;stroke-linejoin:miter;"/>
                        </g>
                        <g transform="matrix(0.9679,0.251337,0.251337,-0.9679,195.905,49.3414)">
                            <path d="M-1.93,-15.111L118.315,-15.111" style="fill:none;fill-rule:nonzero;stroke:rgb(22,33,45);stroke-width:1px;stroke-linejoin:miter;"/>
                        </g>
                        <g transform="matrix(1,0,0,1,132.914,74.6748)">
                            <path d="M0,10.913L67.376,-6.583L160.101,17.496" style="fill:none;fill-rule:nonzero;stroke:rgb(22,33,45);stroke-width:0.5px;stroke-linejoin:miter;"/>
                        </g>
                        <g transform="matrix(0,-1,-1,0,201.29,67.0923)">
                            <path d="M-1,1L1,1" style="fill:none;fill-rule:nonzero;stroke:rgb(22,33,45);stroke-width:0.5px;stroke-linejoin:miter;"/>
                        </g>
                        <g transform="matrix(1,0,0,1,109.215,117.294)">
                            <path d="M0,-32.772L116.385,-2.55L207.231,-26.14L207.231,-23.59L116.385,0L0,-30.441L0,-32.772Z" style="fill:none;fill-rule:nonzero;stroke:rgb(22,33,45);stroke-width:1px;"/>
                        </g>
                        <g transform="matrix(0,-1,-1,0,226.875,116.019)">
                            <path d="M-1.275,1.275L1.275,1.275" style="fill:none;fill-rule:nonzero;stroke:rgb(22,33,45);stroke-width:1px;"/>
                        </g>
                    </g>
                </g>
            </g>
        </g>
    </g>
</svg>
