<?xml version="1.0" encoding="UTF-8" standalone="no"?>
<!DOCTYPE svg PUBLIC "-//W3C//DTD SVG 1.1//EN" "http://www.w3.org/Graphics/SVG/1.1/DTD/svg11.dtd">
<svg width="100%" height="100%" viewBox="0 0 433 284" version="1.1" xmlns="http://www.w3.org/2000/svg" xmlns:xlink="http://www.w3.org/1999/xlink" xml:space="preserve" xmlns:serif="http://www.serif.com/" style="fill-rule:evenodd;clip-rule:evenodd;stroke-linejoin:round;stroke-miterlimit:10;">
    <g transform="matrix(1,0,0,1,-26.7621,-67.539)">
        <g id="Layer-1" serif:id="Layer 1">
            <g transform="matrix(1,0,0,1,28.4033,278.638)">
                <path d="M0,7.002L0,-7.879L91.865,-31.66L210.738,0.791L210.738,2.729L197.117,6.205L197.117,18.496L187.559,20.982L164.374,14.9L129.462,23.885L129.462,36.176L119.904,38.662L87.112,30.244L87.112,23.596L73.434,27.248L40.03,18.35L40.03,12.47L26.875,14.901L0,7.002Z" style="fill:white;fill-rule:nonzero;"/>
            </g>
            <g transform="matrix(-0.9678,0.251721,0.251721,0.9678,150.321,318.265)">
                <path d="M-11.264,-13.336L-1.388,-13.336L1.706,-1.441L-8.17,-1.441L-11.264,-13.336Z" style="fill:none;fill-rule:nonzero;stroke:rgb(22,33,45);stroke-width:1px;"/>
            </g>
            <g transform="matrix(1,0,0,1,101.837,305.886)">
                <path d="M0,-12.992L0,0L13.878,-3.652" style="fill:none;fill-rule:nonzero;stroke:rgb(22,33,45);stroke-width:1px;"/>
            </g>
            <g transform="matrix(1,0,0,1,55.2779,293.539)">
                <path d="M0,-13.44L0,0L13.013,-2.431" style="fill:none;fill-rule:nonzero;stroke:rgb(22,33,45);stroke-width:1px;"/>
            </g>
            <g transform="matrix(1,0,0,1,115.516,317.3)">
                <path d="M0,-20.753L0,-8.419L32.792,0" style="fill:none;fill-rule:nonzero;stroke:rgb(22,33,45);stroke-width:1px;"/>
            </g>
            <g transform="matrix(-0.9678,0.251721,0.251721,0.9678,217.976,300.585)">
                <path d="M-11.264,-13.336L-1.388,-13.336L1.706,-1.441L-8.17,-1.441L-11.264,-13.336Z" style="fill:none;fill-rule:nonzero;stroke:rgb(22,33,45);stroke-width:1px;"/>
            </g>
            <g transform="matrix(0.968591,0.248659,0.248659,-0.968591,193.4,290.688)">
                <path d="M-0.384,-3.041L24.075,-3.041" style="fill:none;fill-rule:nonzero;stroke:rgb(22,33,45);stroke-width:1px;"/>
            </g>
            <g transform="matrix(1,0,0,1,68.433,305.886)">
                <path d="M0,-22.271L0,-8.898L33.404,0" style="fill:none;fill-rule:nonzero;stroke:rgb(22,33,45);stroke-width:1px;"/>
            </g>
            <g transform="matrix(1,0,0,1,28.4033,293.539)">
                <path d="M0,-20.808L0,-7.899L26.875,0" style="fill:none;fill-rule:nonzero;stroke:rgb(22,33,45);stroke-width:1px;"/>
            </g>
            <g transform="matrix(1,0,0,1,28.4033,281.176)">
                <path d="M0,-10.418L119.891,21.842L210.738,-1.748L91.865,-34.199L0,-10.614L0,-8.259L119.891,23.781L210.738,0.191L210.738,-1.748" style="fill:none;fill-rule:nonzero;stroke:rgb(22,33,45);stroke-width:1px;"/>
            </g>
            <g>
                <g>
                    <g transform="matrix(0.967803,-0.251708,-0.251708,-0.967803,150.6,305.206)">
                        <path d="M-0.098,0.768L6,0.768" style="fill:none;fill-rule:nonzero;stroke:rgb(22,33,45);stroke-width:0.5px;stroke-linejoin:miter;"/>
                    </g>
                    <g transform="matrix(-0.967803,-0.251708,-0.251708,0.967803,138.605,301.328)">
                        <path d="M-6,0.768L0.098,0.768" style="fill:none;fill-rule:nonzero;stroke:rgb(22,33,45);stroke-width:0.5px;stroke-linejoin:miter;"/>
                    </g>
                    <g transform="matrix(0.967803,-0.251708,-0.251708,-0.967803,218.583,287.669)">
                        <path d="M-0.098,0.768L6,0.768" style="fill:none;fill-rule:nonzero;stroke:rgb(22,33,45);stroke-width:0.5px;stroke-linejoin:miter;"/>
                    </g>
                    <g transform="matrix(1,0,0,1,34.5142,228.97)">
                        <path d="M0,39.515L0,19.012L83.347,-2.208L91.024,0L91.024,20.503L7.676,41.723L0,39.515Z" style="fill:white;fill-rule:nonzero;"/>
                    </g>
                    <g transform="matrix(1,0,0,1,125.538,268.484)">
                        <path d="M0,-39.515L0,-19.012L-83.347,2.208L-91.024,-0L-91.024,-20.503L-7.676,-41.723L0,-39.515Z" style="fill:none;fill-rule:nonzero;stroke:black;stroke-width:1px;stroke-linejoin:miter;"/>
                    </g>
                    <g transform="matrix(1,0,0,1,125.538,250.189)">
                        <path d="M0,-21.22L-83.347,0L-91.024,-2.208" style="fill:none;fill-rule:nonzero;stroke:black;stroke-width:0.5px;"/>
                    </g>
                    <g transform="matrix(0,-1,-1,0,52.4422,260.441)">
                        <path d="M-10.252,10.252L10.252,10.252" style="fill:none;fill-rule:nonzero;stroke:black;stroke-width:0.5px;"/>
                    </g>
                    <g transform="matrix(1,0,0,1,34.5142,230.271)">
                        <path d="M0,17.71L0,3.953C0,2.815 0.777,1.824 1.882,1.553L16.2,-1.583C17.394,-1.834 18.624,-1.869 19.831,-1.687L22.704,-1.251C23.384,-1.148 23.887,-0.563 23.887,0.125L23.887,15.381L7.276,19.579L0,17.71Z" style="fill:rgb(255,214,0);fill-rule:nonzero;"/>
                    </g>
                    <g transform="matrix(1,0,0,1,104.591,212.212)">
                        <path d="M0,17.71L0,3.953C0,2.815 0.777,1.824 1.882,1.553L16.2,-1.583C17.394,-1.834 18.624,-1.869 19.831,-1.687L22.704,-1.251C23.384,-1.148 23.887,-0.563 23.887,0.125L23.887,15.381L7.276,19.579L0,17.71Z" style="fill:rgb(255,214,0);fill-rule:nonzero;"/>
                    </g>
                    <g transform="matrix(1,0,0,1,34.5142,230.271)">
                        <path d="M0,17.71L0,3.953C0,2.815 0.777,1.824 1.882,1.553L16.2,-1.583C17.394,-1.834 18.624,-1.869 19.831,-1.687L22.704,-1.251C23.384,-1.148 23.887,-0.563 23.887,0.125L23.887,15.381L7.276,19.579L0,17.71Z" style="fill:none;fill-rule:nonzero;stroke:rgb(22,33,45);stroke-width:1px;stroke-linejoin:miter;"/>
                    </g>
                    <g transform="matrix(1,0,0,1,104.591,212.212)">
                        <path d="M0,17.71L0,3.953C0,2.815 0.777,1.824 1.882,1.553L16.2,-1.583C17.394,-1.834 18.624,-1.869 19.831,-1.687L22.704,-1.251C23.384,-1.148 23.887,-0.563 23.887,0.125L23.887,15.381L7.276,19.579L0,17.71Z" style="fill:none;fill-rule:nonzero;stroke:rgb(22,33,45);stroke-width:1px;stroke-linejoin:miter;"/>
                    </g>
                    <g>
                        <g>
                            <g transform="matrix(1,0,0,1,115.754,261.066)">
                                <path d="M0,-113.917L-34.059,-122.778L0,-131.639L0,-113.917ZM-0.272,-33.743C-0.272,-33.743 -0.25,-32.522 -1.46,-32.207C-2.67,-31.892 -61.698,-16.536 -61.698,-16.536L-61.698,-60.273L-0.272,-76.656L-0.272,-33.743ZM-61.698,-109.475L-17.857,-98.092L-61.698,-86.709L-61.698,-109.475ZM115.801,-122.615L10.978,-149.834C10.291,-150.013 9.571,-150.013 8.884,-149.834L-68.693,-129.69C-71.635,-128.926 -73.425,-125.122 -73.425,-122.376C-73.424,-119.697 -73.424,1.034 -73.425,4.085C-73.425,6.614 -72.001,9.706 -69.302,10.398C-67.548,10.848 27.74,35.606 28.723,35.861C29.628,36.096 29.993,36.047 30.489,35.921C31.791,35.589 112.446,14.639 113.99,14.238C115.535,13.837 116.719,11.92 116.719,9.543L116.719,-121.427C116.719,-121.986 116.342,-122.474 115.801,-122.615" style="fill:rgb(87,87,92);fill-rule:nonzero;"/>
                            </g>
                            <g transform="matrix(1,0,0,1,197.632,247.865)">
                                <path d="M0,7.767C0.176,7.721 0.176,7.471 0,7.425L-80.103,-13.273C-80.511,-13.378 -80.939,-13.378 -81.346,-13.273L-132.521,-0.001C-132.697,0.045 -132.697,0.295 -132.521,0.341L-52.564,21.039C-52.157,21.145 -51.729,21.145 -51.321,21.039L0,7.767Z" style="fill:rgb(220,220,220);fill-rule:nonzero;"/>
                            </g>
                            <g transform="matrix(1,0,0,1,127.392,201.877)">
                                <path d="M0,-46.812L-73.485,-27.312L-74.406,-25.233L-77.458,-24.475L-77.458,0L-1.013,-20.286C-0.416,-20.444 0,-20.985 0,-21.603L0,-46.812Z" style="fill:rgb(220,220,220);fill-rule:nonzero;"/>
                            </g>
                            <g transform="matrix(1,0,0,1,54.0558,184.41)">
                                <path d="M0,60.12L60.238,44.449C60.938,44.267 61.426,43.635 61.426,42.913L61.426,0" style="fill:none;fill-rule:nonzero;stroke:rgb(22,33,45);stroke-width:0.5px;stroke-linejoin:miter;"/>
                            </g>
                            <g transform="matrix(1,0,0,1,141.873,228.39)">
                                <path d="M0,5.134L-8.433,2.944L-15.95,2.937L-26.805,0" style="fill:none;fill-rule:nonzero;stroke:rgb(22,33,45);stroke-width:0.5px;stroke-linejoin:miter;"/>
                            </g>
                            <g transform="matrix(1,0,0,1,133.452,203.733)">
                                <path d="M0,27.848L0,0L-7.396,0" style="fill:none;fill-rule:nonzero;stroke:rgb(22,33,45);stroke-width:0.5px;stroke-linejoin:miter;"/>
                            </g>
                            <g transform="matrix(1,0,0,1,115.482,231.174)">
                                <path d="M0,-30.231L10.574,-27.485L10.574,0" style="fill:none;fill-rule:nonzero;stroke:rgb(22,33,45);stroke-width:0.5px;stroke-linejoin:miter;"/>
                            </g>
                            <g transform="matrix(-0.967499,-0.252876,-0.252876,0.967499,133.867,202.704)">
                                <path d="M-8.562,1.101L0.141,1.101" style="fill:none;fill-rule:nonzero;stroke:rgb(22,33,45);stroke-width:0.5px;stroke-linejoin:miter;"/>
                            </g>
                            <g transform="matrix(1,0,0,1,141.873,182.584)">
                                <path d="M0,21.124L-11.894,18.035L-19.548,20.077L-19.548,0" style="fill:none;fill-rule:nonzero;stroke:rgb(22,33,45);stroke-width:0.5px;stroke-linejoin:miter;"/>
                            </g>
                            <g transform="matrix(0,-1,-1,0,144.673,185.926)">
                                <path d="M-14.694,14.694L14.694,14.694" style="fill:none;fill-rule:nonzero;stroke:rgb(22,33,45);stroke-width:0.5px;stroke-linejoin:miter;"/>
                            </g>
                            <g transform="matrix(1,0,0,1,49.934,170.446)">
                                <path d="M0,78.378L3.052,77.664L4.122,75.483L4.122,30.347L76.796,10.964C77.187,10.86 77.458,10.506 77.458,10.102L77.458,0" style="fill:none;fill-rule:nonzero;stroke:rgb(22,33,45);stroke-width:0.5px;stroke-linejoin:miter;"/>
                            </g>
                            <g transform="matrix(1,0,0,1,53.9968,174.372)">
                                <path d="M0,-22.796L0,0L44.286,-11.41" style="fill:none;fill-rule:nonzero;stroke:rgb(22,33,45);stroke-width:0.5px;stroke-linejoin:miter;"/>
                            </g>
                            <g transform="matrix(1,0,0,1,49.8677,174.371)">
                                <path d="M0,3.03L3.074,2.273L4.129,0" style="fill:none;fill-rule:nonzero;stroke:rgb(22,33,45);stroke-width:0.5px;stroke-linejoin:miter;"/>
                            </g>
                            <g transform="matrix(1,0,0,1,81.3431,114.937)">
                                <path d="M0,23.442L36.283,14.002C36.758,13.879 37.172,13.587 37.45,13.182L40.852,8.212C41.084,7.873 41.208,7.472 41.208,7.062L41.208,0" style="fill:none;fill-rule:nonzero;stroke:rgb(22,33,45);stroke-width:0.5px;stroke-linejoin:miter;"/>
                            </g>
                            <g transform="matrix(0,-1,-1,0,136.073,135.52)">
                                <path d="M-13.522,13.522L13.522,13.522" style="fill:none;fill-rule:nonzero;stroke:rgb(22,33,45);stroke-width:0.5px;stroke-linejoin:miter;"/>
                            </g>
                            <g transform="matrix(0.967862,0.251483,0.251483,-0.967862,126.796,108.595)">
                                <path d="M-1.446,-11.316L88.544,-11.316" style="fill:none;fill-rule:nonzero;stroke:rgb(22,33,45);stroke-width:0.5px;stroke-linejoin:miter;"/>
                            </g>
                            <g transform="matrix(1,0,0,1,196.159,119.807)">
                                <path d="M0,25.502L-70.546,7.172C-70.936,7.07 -71.209,6.718 -71.209,6.315L-71.209,0" style="fill:none;fill-rule:nonzero;stroke:rgb(22,33,45);stroke-width:0.5px;stroke-linejoin:miter;"/>
                            </g>
                            <g transform="matrix(0,1,1,0,124.615,138.287)">
                                <path d="M-8.861,-8.861L8.861,-8.861" style="fill:none;fill-rule:nonzero;stroke:rgb(22,33,45);stroke-width:0.5px;stroke-linejoin:miter;"/>
                            </g>
                            <g transform="matrix(0,-1,-1,0,141.409,139.534)">
                                <path d="M-11.431,11.431L11.431,11.431" style="fill:none;fill-rule:nonzero;stroke:rgb(22,33,45);stroke-width:0.5px;stroke-linejoin:miter;"/>
                            </g>
                            <g transform="matrix(-0.968708,0.248204,0.248204,0.968708,72.5292,141.76)">
                                <path d="M-53.361,-6.728L0.848,-6.728" style="fill:none;fill-rule:nonzero;stroke:rgb(22,33,45);stroke-width:0.5px;stroke-linejoin:miter;"/>
                            </g>
                            <g transform="matrix(0,1,1,0,223.541,219.265)">
                                <path d="M-7.562,-7.562L7.562,-7.562" style="fill:none;fill-rule:nonzero;stroke:rgb(22,33,45);stroke-width:0.5px;stroke-linejoin:miter;"/>
                            </g>
                            <g transform="matrix(0.967905,0.251317,0.251317,-0.967905,195.065,215.122)">
                                <path d="M-4.185,-4.558L16.638,-4.558C17.163,-4.558 17.623,-4.914 17.755,-5.423L24.855,-32.767L35.692,-32.768" style="fill:none;fill-rule:nonzero;stroke:rgb(22,33,45);stroke-width:0.5px;stroke-linejoin:miter;"/>
                            </g>
                            <g transform="matrix(0.9679,0.251336,0.251336,-0.9679,160.279,231.167)">
                                <path d="M-0.882,-6.907L54.08,-6.907" style="fill:none;fill-rule:nonzero;stroke:rgb(22,33,45);stroke-width:0.5px;stroke-linejoin:miter;"/>
                            </g>
                            <g transform="matrix(0.967905,0.251316,0.251316,-0.967905,195.373,214.696)">
                                <path d="M-0.359,-2.812L22.019,-2.812" style="fill:none;fill-rule:nonzero;stroke:rgb(22,33,45);stroke-width:0.5px;stroke-linejoin:miter;"/>
                            </g>
                            <g transform="matrix(0,1,1,0,228.779,171.006)">
                                <path d="M-12.801,-12.801L12.801,-12.801" style="fill:none;fill-rule:nonzero;stroke:rgb(22,33,45);stroke-width:0.5px;stroke-linejoin:miter;"/>
                            </g>
                            <g transform="matrix(0.967904,0.25132,0.25132,-0.967904,211.431,224.362)">
                                <path d="M-0.185,-1.449L11.346,-1.449" style="fill:none;fill-rule:nonzero;stroke:rgb(22,33,45);stroke-width:0.5px;stroke-linejoin:miter;"/>
                            </g>
                            <g transform="matrix(-0.967117,0.254332,0.254332,0.967117,50.1394,202.383)">
                                <path d="M-4.192,-0.542L0.07,-0.542" style="fill:none;fill-rule:nonzero;stroke:rgb(22,33,45);stroke-width:0.5px;stroke-linejoin:miter;"/>
                            </g>
                            <g transform="matrix(0.967694,-0.252127,-0.252127,-0.967694,53.6201,186.733)">
                                <path d="M-1.278,9.976L77.86,9.977" style="fill:none;fill-rule:nonzero;stroke:rgb(22,33,45);stroke-width:0.5px;stroke-linejoin:miter;"/>
                            </g>
                            <g transform="matrix(0.967694,-0.252127,-0.252127,-0.967694,53.6201,187.954)">
                                <path d="M-1.278,9.976L77.86,9.977" style="fill:none;fill-rule:nonzero;stroke:rgb(22,33,45);stroke-width:0.5px;stroke-linejoin:miter;"/>
                            </g>
                            <g transform="matrix(0.966102,-0.258159,-0.258159,-0.966102,53.8557,210.599)">
                                <path d="M-1.36,10.358L78.885,10.358" style="fill:none;fill-rule:nonzero;stroke:rgb(22,33,45);stroke-width:0.5px;stroke-linejoin:miter;"/>
                            </g>
                            <g transform="matrix(0.966217,-0.257729,-0.257729,-0.966217,53.842,209.325)">
                                <path d="M-1.355,10.34L78.88,10.339" style="fill:none;fill-rule:nonzero;stroke:rgb(22,33,45);stroke-width:0.5px;stroke-linejoin:miter;"/>
                            </g>
                            <g transform="matrix(0.967694,-0.252127,-0.252127,-0.967694,53.6201,199.536)">
                                <path d="M-1.278,9.976L77.86,9.977" style="fill:none;fill-rule:nonzero;stroke:rgb(22,33,45);stroke-width:0.5px;stroke-linejoin:miter;"/>
                            </g>
                            <g transform="matrix(0.967694,-0.252127,-0.252127,-0.967694,53.6201,197.931)">
                                <path d="M-1.278,9.976L77.86,9.977" style="fill:none;fill-rule:nonzero;stroke:rgb(22,33,45);stroke-width:0.5px;stroke-linejoin:miter;"/>
                            </g>
                            <g transform="matrix(0.967693,-0.252131,-0.252131,-0.967693,53.6664,201.544)">
                                <path d="M-1.294,10.1L78.819,10.1" style="fill:none;fill-rule:nonzero;stroke:rgb(22,33,45);stroke-width:0.5px;stroke-linejoin:miter;"/>
                            </g>
                            <g transform="matrix(0,-1,-1,0,146.603,293.582)">
                                <ellipse cx="-3.126" cy="0" rx="0.93" ry="3.126" style="fill:none;stroke:rgb(22,33,45);stroke-width:1px;stroke-linejoin:miter;"/>
                            </g>
                            <g transform="matrix(0,-1,-1,0,53.0605,269.376)">
                                <ellipse cx="-3.126" cy="0" rx="0.93" ry="3.126" style="fill:none;stroke:rgb(22,33,45);stroke-width:1px;stroke-linejoin:miter;"/>
                            </g>
                            <g transform="matrix(0,-1,-1,0,216.879,275.234)">
                                <ellipse cx="-3.126" cy="0" rx="0.93" ry="3.126" style="fill:none;stroke:rgb(22,33,45);stroke-width:1px;stroke-linejoin:miter;"/>
                            </g>
                            <g transform="matrix(1,0,0,1,197.632,247.865)">
                                <path d="M0,7.767C0.176,7.721 0.176,7.471 0,7.425L-80.103,-13.273C-80.511,-13.378 -80.939,-13.378 -81.346,-13.273L-132.521,-0.001C-132.697,0.045 -132.697,0.295 -132.521,0.341L-52.564,21.039C-52.157,21.145 -51.729,21.145 -51.321,21.039L0,7.767Z" style="fill:none;fill-rule:nonzero;stroke:rgb(22,33,45);stroke-width:0.5px;stroke-linejoin:miter;"/>
                            </g>
                            <g transform="matrix(0.967978,-0.251036,-0.251036,-0.967978,97.2878,262.245)">
                                <path d="M-0.868,6.805L53.351,6.806" style="fill:none;fill-rule:nonzero;stroke:rgb(22,33,45);stroke-width:0.5px;stroke-linejoin:miter;"/>
                            </g>
                            <g transform="matrix(0.967977,-0.251038,-0.251038,-0.967977,117.921,267.588)">
                                <path d="M-0.868,6.808L53.37,6.808" style="fill:none;fill-rule:nonzero;stroke:rgb(22,33,45);stroke-width:0.5px;stroke-linejoin:miter;"/>
                            </g>
                            <g transform="matrix(-0.967979,-0.251032,-0.251032,0.967979,107.783,227.963)">
                                <path d="M-82.562,10.532L1.343,10.532" style="fill:none;fill-rule:nonzero;stroke:rgb(22,33,45);stroke-width:0.5px;stroke-linejoin:miter;"/>
                            </g>
                            <g transform="matrix(-0.967976,-0.251042,-0.251042,0.967976,94.5043,231.408)">
                                <path d="M-82.543,10.53L1.343,10.53" style="fill:none;fill-rule:nonzero;stroke:rgb(22,33,45);stroke-width:0.5px;stroke-linejoin:miter;"/>
                            </g>
                            <g transform="matrix(-0.967976,-0.251041,-0.251041,0.967976,81.3784,234.815)">
                                <path d="M-82.524,10.527L1.343,10.527" style="fill:none;fill-rule:nonzero;stroke:rgb(22,33,45);stroke-width:0.5px;stroke-linejoin:miter;"/>
                            </g>
                            <g transform="matrix(1,0,0,1,196.95,243.895)">
                                <path d="M0,11.913L-0.199,5.458C-0.208,5.142 -0.426,4.87 -0.732,4.79L-29.055,-2.556C-29.485,-2.667 -29.936,-2.667 -30.365,-2.555L-39.397,-0.204C-39.713,-0.121 -39.94,0.156 -39.958,0.482L-40.293,6.533C-40.306,6.773 -40.149,6.989 -39.917,7.051L-11.097,14.485C-10.743,14.579 -10.371,14.58 -10.017,14.489L0,11.913Z" style="fill:rgb(87,87,92);fill-rule:nonzero;stroke:rgb(22,33,45);stroke-width:0.5px;stroke-linejoin:miter;"/>
                            </g>
                            <g transform="matrix(1,0,0,1,195.87,244.074)">
                                <path d="M0,4.521L-9.469,7.001C-9.919,7.119 -10.391,7.12 -10.842,7.004L-37.538,0.129L-27.452,-2.599L-27.457,2.725" style="fill:none;fill-rule:nonzero;stroke:rgb(22,33,45);stroke-width:0.5px;stroke-linecap:round;"/>
                            </g>
                            <g transform="matrix(0.0440884,-0.999028,-0.999028,-0.0440884,188.256,255.068)">
                                <path d="M-2.58,2.697L2.818,2.697" style="fill:none;fill-rule:nonzero;stroke:rgb(22,33,45);stroke-width:0.5px;stroke-linecap:round;"/>
                            </g>
                            <g transform="matrix(1,0,0,1,168.915,243.75)">
                                <path d="M0,10.083L0.35,3.151L9.883,0" style="fill:none;fill-rule:nonzero;stroke:rgb(220,220,220);stroke-width:0.5px;stroke-linecap:round;"/>
                            </g>
                            <g transform="matrix(1,0,0,1,93.2405,251.517)">
                                <path d="M0,3.977L-3.486,3.057C-3.627,3.02 -3.725,2.893 -3.725,2.747L-3.725,0.483C-3.725,0.209 -3.465,0.009 -3.2,0.079L-0.249,0.86C0.013,0.929 0.288,0.935 0.553,0.878L3.973,0.016C4.109,-0.019 4.239,-0.047 4.239,0.305C4.239,0.576 4.249,2.017 4.254,2.666C4.255,2.854 4.126,3.015 3.943,3.058L0.516,3.984C0.346,4.024 0.169,4.022 0,3.977Z" style="fill:rgb(220,220,220);fill-rule:nonzero;stroke:rgb(22,33,45);stroke-width:0.5px;"/>
                            </g>
                            <g transform="matrix(0,-1,-1,0,94.8226,253.966)">
                                <path d="M-1.432,1.432L1.432,1.432" style="fill:none;fill-rule:nonzero;stroke:rgb(22,33,45);stroke-width:0.5px;stroke-linejoin:miter;"/>
                            </g>
                            <g transform="matrix(1,0,0,1,88.7256,245.635)">
                                <path d="M0,-0.409L5.459,-1.714L5.459,1.127L4.779,1.305" style="fill:rgb(220,220,220);fill-rule:nonzero;stroke:rgb(22,33,45);stroke-width:0.5px;"/>
                            </g>
                            <g transform="matrix(1,0,0,1,93.505,247.557)">
                                <path d="M0,-1.105L0,1.25L-3.548,0.352C-3.798,0.288 -4.059,0.288 -4.309,0.349L-8.721,1.399L-8.721,-0.954C-8.721,-1.212 -8.545,-1.437 -8.295,-1.499L-4.321,-2.44C-4.063,-2.504 -3.794,-2.503 -3.536,-2.439L-0.438,-1.666C-0.181,-1.602 0,-1.37 0,-1.105Z" style="fill:rgb(220,220,220);fill-rule:nonzero;stroke:rgb(22,33,45);stroke-width:0.5px;"/>
                            </g>
                            <g transform="matrix(1,0,0,1,102.136,242.282)">
                                <path d="M0,-0.409L5.459,-1.714L5.459,1.127L4.779,1.305" style="fill:rgb(220,220,220);fill-rule:nonzero;stroke:rgb(22,33,45);stroke-width:0.5px;"/>
                            </g>
                            <g transform="matrix(1,0,0,1,106.916,244.204)">
                                <path d="M0,-1.105L0,1.25L-3.548,0.352C-3.798,0.288 -4.059,0.288 -4.309,0.349L-8.721,1.399L-8.721,-0.954C-8.721,-1.212 -8.545,-1.437 -8.295,-1.499L-4.321,-2.44C-4.063,-2.504 -3.794,-2.503 -3.536,-2.439L-0.438,-1.666C-0.181,-1.602 0,-1.37 0,-1.105Z" style="fill:rgb(220,220,220);fill-rule:nonzero;stroke:rgb(22,33,45);stroke-width:0.5px;"/>
                            </g>
                            <g transform="matrix(1,0,0,1,115.05,238.824)">
                                <path d="M0,-0.409L5.459,-1.714L5.459,1.127L4.779,1.305" style="fill:rgb(220,220,220);fill-rule:nonzero;stroke:rgb(22,33,45);stroke-width:0.5px;"/>
                            </g>
                            <g transform="matrix(1,0,0,1,119.829,240.746)">
                                <path d="M0,-1.105L0,1.25L-3.548,0.352C-3.798,0.288 -4.059,0.288 -4.309,0.349L-8.721,1.399L-8.721,-0.954C-8.721,-1.212 -8.545,-1.437 -8.295,-1.499L-4.321,-2.44C-4.063,-2.504 -3.794,-2.503 -3.536,-2.439L-0.438,-1.666C-0.181,-1.602 0,-1.37 0,-1.105Z" style="fill:rgb(220,220,220);fill-rule:nonzero;stroke:rgb(22,33,45);stroke-width:0.5px;"/>
                            </g>
                            <g transform="matrix(1,0,0,1,132.084,237.828)">
                                <path d="M0,-1.105L0,1.25L-3.548,0.352C-3.798,0.288 -4.059,0.288 -4.309,0.349L-7.769,1.399L-7.769,-1.134C-7.769,-1.392 -7.593,-1.617 -7.342,-1.679L-4.321,-2.44C-4.063,-2.504 -3.794,-2.503 -3.536,-2.439L-0.438,-1.666C-0.181,-1.602 0,-1.37 0,-1.105Z" style="fill:rgb(220,220,220);fill-rule:nonzero;stroke:rgb(22,33,45);stroke-width:0.5px;"/>
                            </g>
                            <g transform="matrix(-0.96893,-0.247336,-0.247336,0.96893,141.414,241.908)">
                                <path d="M-3.684,-3.546L0.578,-3.546L-0.706,1.484L-4.446,-0.559L-3.684,-3.546Z" style="fill:white;fill-rule:nonzero;stroke:rgb(22,33,45);stroke-width:0.5px;"/>
                            </g>
                            <g transform="matrix(-0.972171,0.234272,0.234272,0.972171,141.905,240.848)">
                                <path d="M-4.188,-0.497L0.059,-0.498" style="fill:none;fill-rule:nonzero;stroke:rgb(22,33,45);stroke-width:0.5px;"/>
                            </g>
                            <g transform="matrix(1,0,0,1,151.565,242.552)">
                                <path d="M0,-0.967L0,1.388L-3.548,0.49C-3.798,0.426 -4.059,0.426 -4.309,0.487L-7.769,1.399L-7.769,-0.996C-7.769,-1.254 -7.593,-1.479 -7.342,-1.541L-4.321,-2.302C-4.063,-2.366 -3.794,-2.365 -3.536,-2.301L-0.438,-1.528C-0.181,-1.464 0,-1.232 0,-0.967Z" style="fill:white;fill-rule:nonzero;stroke:rgb(22,33,45);stroke-width:0.5px;"/>
                            </g>
                            <g transform="matrix(0.96893,-0.247336,-0.247336,-0.96893,76.6397,248.742)">
                                <path d="M0.445,0.463L4.707,0.463L3.423,-4.567L-0.317,-2.524L0.445,0.463Z" style="fill:rgb(220,220,220);fill-rule:nonzero;stroke:rgb(22,33,45);stroke-width:0.5px;"/>
                            </g>
                            <g transform="matrix(0.972171,0.234272,0.234272,-0.972171,77.1308,247.713)">
                                <path d="M-0.059,-0.498L4.188,-0.497" style="fill:none;fill-rule:nonzero;stroke:rgb(22,33,45);stroke-width:0.5px;"/>
                            </g>
                            <g transform="matrix(1,0,0,1,106.556,249.891)">
                                <path d="M0,-0.356L-4.001,-1.366L-4.001,1.01" style="fill:rgb(220,220,220);fill-rule:nonzero;stroke:rgb(22,33,45);stroke-width:0.5px;"/>
                            </g>
                            <g transform="matrix(-0.968966,0.247195,0.247195,0.968966,101.447,251.706)">
                                <path d="M-9.595,1.472L0.498,1.472L-0.185,-1.205L-10.278,-1.205L-9.595,1.472Z" style="fill:rgb(220,220,220);fill-rule:nonzero;stroke:rgb(22,33,45);stroke-width:0.5px;"/>
                            </g>
                            <g transform="matrix(1,0,0,1,113.275,256.552)">
                                <path d="M0,3.977L-3.486,3.057C-3.627,3.02 -3.725,2.893 -3.725,2.747L-3.725,0.483C-3.725,0.209 -3.465,0.009 -3.2,0.079L-0.249,0.86C0.013,0.929 0.288,0.935 0.553,0.878L3.973,0.016C4.109,-0.019 4.239,-0.047 4.239,0.305C4.239,0.576 4.249,2.017 4.254,2.666C4.255,2.854 4.126,3.015 3.943,3.058L0.516,3.984C0.346,4.024 0.169,4.022 0,3.977Z" style="fill:rgb(220,220,220);fill-rule:nonzero;stroke:rgb(22,33,45);stroke-width:0.5px;"/>
                            </g>
                            <g transform="matrix(0,-1,-1,0,114.857,259.002)">
                                <path d="M-1.432,1.432L1.432,1.432" style="fill:none;fill-rule:nonzero;stroke:rgb(22,33,45);stroke-width:0.5px;stroke-linejoin:miter;"/>
                            </g>
                            <g transform="matrix(1,0,0,1,108.76,250.67)">
                                <path d="M0,-0.409L5.459,-1.714L5.459,1.127L4.779,1.305" style="fill:rgb(220,220,220);fill-rule:nonzero;stroke:rgb(22,33,45);stroke-width:0.5px;"/>
                            </g>
                            <g transform="matrix(1,0,0,1,113.54,252.592)">
                                <path d="M0,-1.105L0,1.25L-3.548,0.352C-3.798,0.288 -4.059,0.288 -4.309,0.349L-8.721,1.399L-8.721,-0.954C-8.721,-1.212 -8.545,-1.437 -8.295,-1.499L-4.321,-2.44C-4.063,-2.504 -3.794,-2.503 -3.536,-2.439L-0.438,-1.666C-0.181,-1.602 0,-1.37 0,-1.105Z" style="fill:rgb(220,220,220);fill-rule:nonzero;stroke:rgb(22,33,45);stroke-width:0.5px;"/>
                            </g>
                            <g transform="matrix(1,0,0,1,119.763,246.526)">
                                <path d="M0,-0.356L-4.001,-1.366L-4.001,1.01" style="fill:rgb(220,220,220);fill-rule:nonzero;stroke:rgb(22,33,45);stroke-width:0.5px;"/>
                            </g>
                            <g transform="matrix(-0.968966,0.247195,0.247195,0.968966,114.654,248.342)">
                                <path d="M-9.595,1.472L0.498,1.472L-0.185,-1.205L-10.278,-1.205L-9.595,1.472Z" style="fill:rgb(220,220,220);fill-rule:nonzero;stroke:rgb(22,33,45);stroke-width:0.5px;"/>
                            </g>
                            <g transform="matrix(1,0,0,1,121.967,247.305)">
                                <path d="M0,-0.409L5.459,-1.714L5.459,1.127L4.779,1.305" style="fill:rgb(220,220,220);fill-rule:nonzero;stroke:rgb(22,33,45);stroke-width:0.5px;"/>
                            </g>
                            <g transform="matrix(1,0,0,1,126.747,249.228)">
                                <path d="M0,-1.105L0,1.25L-3.548,0.352C-3.798,0.288 -4.059,0.288 -4.309,0.349L-8.721,1.399L-8.721,-0.954C-8.721,-1.212 -8.545,-1.437 -8.295,-1.499L-4.321,-2.44C-4.063,-2.504 -3.794,-2.503 -3.536,-2.439L-0.438,-1.666C-0.181,-1.602 0,-1.37 0,-1.105Z" style="fill:rgb(220,220,220);fill-rule:nonzero;stroke:rgb(22,33,45);stroke-width:0.5px;"/>
                            </g>
                            <g transform="matrix(1,0,0,1,139.972,251.639)">
                                <path d="M0,-0.356L-4.001,-1.366L-4.001,1.01" style="fill:rgb(220,220,220);fill-rule:nonzero;stroke:rgb(22,33,45);stroke-width:0.5px;"/>
                            </g>
                            <g transform="matrix(-0.968966,0.247195,0.247195,0.968966,134.863,253.454)">
                                <path d="M-9.595,1.472L0.498,1.472L-0.185,-1.205L-10.278,-1.205L-9.595,1.472Z" style="fill:rgb(220,220,220);fill-rule:nonzero;stroke:rgb(22,33,45);stroke-width:0.5px;"/>
                            </g>
                            <g transform="matrix(1,0,0,1,142.177,252.418)">
                                <path d="M0,-0.409L5.459,-1.714L5.459,1.127L4.779,1.305" style="fill:rgb(220,220,220);fill-rule:nonzero;stroke:rgb(22,33,45);stroke-width:0.5px;"/>
                            </g>
                            <g transform="matrix(1,0,0,1,146.956,254.34)">
                                <path d="M0,-1.105L0,1.25L-3.548,0.352C-3.798,0.288 -4.059,0.288 -4.309,0.349L-8.721,1.399L-8.721,-0.954C-8.721,-1.212 -8.545,-1.437 -8.295,-1.499L-4.321,-2.44C-4.063,-2.504 -3.794,-2.503 -3.536,-2.439L-0.438,-1.666C-0.181,-1.602 0,-1.37 0,-1.105Z" style="fill:rgb(220,220,220);fill-rule:nonzero;stroke:rgb(22,33,45);stroke-width:0.5px;"/>
                            </g>
                            <g transform="matrix(1,0,0,1,132.951,243.081)">
                                <path d="M0,-0.356L-4.001,-1.366L-4.001,1.01" style="fill:rgb(220,220,220);fill-rule:nonzero;stroke:rgb(22,33,45);stroke-width:0.5px;"/>
                            </g>
                            <g transform="matrix(-0.968966,0.247195,0.247195,0.968966,127.842,244.896)">
                                <path d="M-9.595,1.472L0.498,1.472L-0.185,-1.205L-10.278,-1.205L-9.595,1.472Z" style="fill:rgb(220,220,220);fill-rule:nonzero;stroke:rgb(22,33,45);stroke-width:0.5px;"/>
                            </g>
                            <g transform="matrix(1,0,0,1,135.155,243.859)">
                                <path d="M0,-0.409L5.459,-1.714L5.459,1.127L4.779,1.305" style="fill:rgb(220,220,220);fill-rule:nonzero;stroke:rgb(22,33,45);stroke-width:0.5px;"/>
                            </g>
                            <g transform="matrix(1,0,0,1,139.935,245.782)">
                                <path d="M0,-1.105L0,1.25L-3.548,0.352C-3.798,0.288 -4.059,0.288 -4.309,0.349L-8.721,1.399L-8.721,-0.954C-8.721,-1.212 -8.545,-1.437 -8.295,-1.499L-4.321,-2.44C-4.063,-2.504 -3.794,-2.503 -3.536,-2.439L-0.438,-1.666C-0.181,-1.602 0,-1.37 0,-1.105Z" style="fill:rgb(220,220,220);fill-rule:nonzero;stroke:rgb(22,33,45);stroke-width:0.5px;"/>
                            </g>
                            <g transform="matrix(1,0,0,1,153.16,248.193)">
                                <path d="M0,-0.356L-4.001,-1.366L-4.001,1.01" style="fill:white;fill-rule:nonzero;stroke:rgb(22,33,45);stroke-width:0.5px;"/>
                            </g>
                            <g transform="matrix(-0.968966,0.247195,0.247195,0.968966,148.051,250.008)">
                                <path d="M-9.595,1.472L0.498,1.472L-0.185,-1.205L-10.278,-1.205L-9.595,1.472Z" style="fill:white;fill-rule:nonzero;stroke:rgb(22,33,45);stroke-width:0.5px;"/>
                            </g>
                            <g transform="matrix(1,0,0,1,160.144,250.894)">
                                <path d="M0,-1.105L0,1.25L-3.548,0.352C-3.798,0.288 -4.059,0.288 -4.309,0.349L-8.721,1.399L-8.721,-0.954C-8.721,-1.212 -8.545,-1.437 -8.295,-1.499L-4.321,-2.44C-4.063,-2.504 -3.794,-2.503 -3.536,-2.439L-0.438,-1.666C-0.181,-1.602 0,-1.37 0,-1.105Z" style="fill:rgb(220,220,220);fill-rule:nonzero;stroke:rgb(22,33,45);stroke-width:0.5px;"/>
                            </g>
                            <g transform="matrix(0.96893,-0.247336,-0.247336,-0.96893,96.6745,253.777)">
                                <path d="M0.445,0.463L4.707,0.463L3.423,-4.567L-0.317,-2.524L0.445,0.463Z" style="fill:rgb(220,220,220);fill-rule:nonzero;stroke:rgb(22,33,45);stroke-width:0.5px;"/>
                            </g>
                            <g transform="matrix(0.972171,0.234272,0.234272,-0.972171,97.1656,252.749)">
                                <path d="M-0.059,-0.498L4.188,-0.497" style="fill:none;fill-rule:nonzero;stroke:rgb(22,33,45);stroke-width:0.5px;"/>
                            </g>
                            <g transform="matrix(1,0,0,1,126.591,254.926)">
                                <path d="M0,-0.356L-4.001,-1.366L-4.001,1.01" style="fill:rgb(220,220,220);fill-rule:nonzero;stroke:rgb(22,33,45);stroke-width:0.5px;"/>
                            </g>
                            <g transform="matrix(-0.968966,0.247195,0.247195,0.968966,121.481,256.741)">
                                <path d="M-9.595,1.472L0.498,1.472L-0.185,-1.205L-10.278,-1.205L-9.595,1.472Z" style="fill:rgb(220,220,220);fill-rule:nonzero;stroke:rgb(22,33,45);stroke-width:0.5px;"/>
                            </g>
                            <g transform="matrix(1,0,0,1,133.533,261.921)">
                                <path d="M0,3.977L-3.486,3.057C-3.627,3.02 -3.725,2.893 -3.725,2.747L-3.725,0.483C-3.725,0.209 -3.465,0.009 -3.2,0.079L-0.249,0.86C0.013,0.929 0.288,0.935 0.553,0.878L3.973,0.016C4.109,-0.019 4.239,-0.047 4.239,0.305C4.239,0.576 4.249,2.017 4.254,2.666C4.255,2.854 4.126,3.015 3.943,3.058L0.516,3.984C0.346,4.024 0.169,4.022 0,3.977Z" style="fill:rgb(220,220,220);fill-rule:nonzero;stroke:rgb(22,33,45);stroke-width:0.5px;"/>
                            </g>
                            <g transform="matrix(0,-1,-1,0,135.115,264.37)">
                                <path d="M-1.432,1.432L1.432,1.432" style="fill:none;fill-rule:nonzero;stroke:rgb(22,33,45);stroke-width:0.5px;stroke-linejoin:miter;"/>
                            </g>
                            <g transform="matrix(1,0,0,1,129.018,256.038)">
                                <path d="M0,-0.409L5.459,-1.714L5.459,1.127L4.779,1.305" style="fill:rgb(220,220,220);fill-rule:nonzero;stroke:rgb(22,33,45);stroke-width:0.5px;"/>
                            </g>
                            <g transform="matrix(1,0,0,1,133.797,257.961)">
                                <path d="M0,-1.105L0,1.25L-3.548,0.352C-3.798,0.288 -4.059,0.288 -4.309,0.349L-8.721,1.399L-8.721,-0.954C-8.721,-1.212 -8.545,-1.437 -8.295,-1.499L-4.321,-2.44C-4.063,-2.504 -3.794,-2.503 -3.536,-2.439L-0.438,-1.666C-0.181,-1.602 0,-1.37 0,-1.105Z" style="fill:rgb(220,220,220);fill-rule:nonzero;stroke:rgb(22,33,45);stroke-width:0.5px;"/>
                            </g>
                            <g transform="matrix(0.96893,-0.247336,-0.247336,-0.96893,116.932,259.146)">
                                <path d="M0.445,0.463L4.707,0.463L3.423,-4.567L-0.317,-2.524L0.445,0.463Z" style="fill:rgb(220,220,220);fill-rule:nonzero;stroke:rgb(22,33,45);stroke-width:0.5px;"/>
                            </g>
                            <g transform="matrix(0.972171,0.234272,0.234272,-0.972171,117.423,258.117)">
                                <path d="M-0.059,-0.498L4.188,-0.497" style="fill:none;fill-rule:nonzero;stroke:rgb(22,33,45);stroke-width:0.5px;"/>
                            </g>
                            <g transform="matrix(1,0,0,1,146.848,260.295)">
                                <path d="M0,-0.356L-4.001,-1.366L-4.001,1.01" style="fill:white;fill-rule:nonzero;stroke:rgb(22,33,45);stroke-width:0.5px;"/>
                            </g>
                            <g transform="matrix(-0.960353,0.278786,0.278786,0.960353,141.724,262.035)">
                                <path d="M-7.891,1.53L0.552,1.53L-0.218,-1.122L-8.661,-1.122L-7.891,1.53Z" style="fill:white;fill-rule:nonzero;stroke:rgb(22,33,45);stroke-width:0.5px;"/>
                            </g>
                            <g transform="matrix(1,0,0,1,157.808,257.087)">
                                <path d="M0,-0.356L-4.001,-1.366L-4.001,1.01" style="fill:rgb(220,220,220);fill-rule:nonzero;stroke:rgb(22,33,45);stroke-width:0.5px;"/>
                            </g>
                            <g transform="matrix(-0.960353,0.278786,0.278786,0.960353,152.684,258.827)">
                                <path d="M-7.891,1.53L0.552,1.53L-0.218,-1.122L-8.661,-1.122L-7.891,1.53Z" style="fill:rgb(220,220,220);fill-rule:nonzero;stroke:rgb(22,33,45);stroke-width:0.5px;"/>
                            </g>
                            <g transform="matrix(1,0,0,1,169.854,253.719)">
                                <path d="M0,-0.794L-3.103,-1.585L-3.103,0.791" style="fill:white;fill-rule:nonzero;stroke:rgb(22,33,45);stroke-width:0.5px;"/>
                            </g>
                            <g transform="matrix(-0.964985,0.262306,0.262306,0.964985,165.392,254.698)">
                                <path d="M-4.046,2.125L0.441,2.125L-0.284,-0.54L-4.771,-0.54L-4.046,2.125Z" style="fill:rgb(220,220,220);fill-rule:nonzero;stroke:rgb(22,33,45);stroke-width:0.5px;"/>
                            </g>
                            <g transform="matrix(1,0,0,1,76.7142,177.444)">
                                <path d="M0,13.06L-0.175,-5.354C-0.175,-5.768 -0.551,-6.08 -0.958,-6.002C-1.547,-5.89 -2.695,-5.524 -3.002,-5.456C-3.537,-5.337 -5.144,-4.721 -5.144,-1.513L-5.144,3.093C-5.144,4.103 -5.322,6.42 -7.401,6.954C-9.48,7.489 -21.48,10.519 -22.55,10.816C-23.619,11.113 -23.441,12.123 -23.441,12.479L-23.441,18.263C-23.441,18.77 -22.962,19.14 -22.472,19.013L0,13.06Z" style="fill:rgb(220,220,220);fill-rule:nonzero;stroke:rgb(22,33,45);stroke-width:0.5px;stroke-linejoin:miter;"/>
                            </g>
                            <g transform="matrix(1,0,0,1,163.467,171.249)">
                                <path d="M0,47.08L-88.901,23.979C-90.564,23.561 -90.951,22.224 -90.951,20.917L-90.951,3.987C-90.951,1.343 -89.673,0.69 -88.901,0.511C-88.313,0.376 -87.284,0.14 -86.828,0.035C-86.676,0 -86.52,0.003 -86.369,0.042L10.944,25.331" style="fill:rgb(220,220,220);fill-rule:nonzero;stroke:rgb(22,33,45);stroke-width:0.5px;stroke-linejoin:miter;"/>
                            </g>
                            <g transform="matrix(1,0,0,1,99.2814,202.987)">
                                <path d="M0,-65.485L-16.722,-69.775C-16.985,-69.842 -17.424,-69.917 -17.748,-69.815L-30.223,-66.576C-30.272,-66.565 -30.322,-66.555 -30.366,-66.539L-30.431,-66.522L-30.428,-66.508C-31.099,-66.218 -31.213,-65.367 -31.213,-64.704L-31.213,-3.375C-31.213,-1.883 -30.889,-0.416 -29.624,-0.084L-12.724,4.357C-12.479,4.425 -12.237,4.432 -12.008,4.391L-12.008,4.394C-12.008,4.394 -11.994,4.391 -11.99,4.39C-11.971,4.386 -11.954,4.38 -11.936,4.376C-11.381,4.232 -7.489,3.219 -6.538,2.929C-5.513,2.617 -5.275,1.578 -5.275,0.969L-5.275,-22.214C-5.275,-25.407 -3.166,-26.477 -2.364,-26.685C-1.721,-26.851 0.611,-27.428 1.511,-27.651C1.724,-27.703 1.868,-27.893 1.868,-28.112L1.868,-62.243C1.868,-63.424 1.628,-65.067 0,-65.485" style="fill:rgb(220,220,220);fill-rule:nonzero;"/>
                            </g>
                            <g transform="matrix(1,0,0,1,86.7171,202.901)">
                                <path d="M0,-62.157L-16.722,-66.447C-18.444,-66.888 -18.649,-65.554 -18.649,-64.618L-18.649,-3.289C-18.649,-1.797 -18.324,-0.33 -17.06,0.002L-0.159,4.443C0.866,4.731 1.868,3.996 1.868,2.726L1.868,-58.915C1.868,-60.096 1.628,-61.739 0,-62.157Z" style="fill:rgb(87,87,92);fill-rule:nonzero;stroke:rgb(22,33,45);stroke-width:0.5px;stroke-linejoin:miter;"/>
                            </g>
                            <g transform="matrix(1,0,0,1,99.2814,202.987)">
                                <path d="M0,-65.485L-16.722,-69.775C-16.985,-69.842 -17.424,-69.917 -17.748,-69.815L-30.223,-66.576C-30.272,-66.565 -30.322,-66.555 -30.366,-66.539L-30.431,-66.522L-30.428,-66.508C-31.099,-66.218 -31.213,-65.367 -31.213,-64.704L-31.213,-3.375C-31.213,-1.883 -30.889,-0.416 -29.624,-0.084L-12.724,4.357C-12.479,4.425 -12.237,4.432 -12.008,4.391L-12.008,4.394C-12.008,4.394 -11.994,4.391 -11.99,4.39C-11.971,4.386 -11.954,4.38 -11.936,4.376C-11.381,4.232 -7.489,3.219 -6.538,2.929C-5.513,2.617 -5.275,1.578 -5.275,0.969L-5.275,-22.214C-5.275,-25.407 -3.166,-26.477 -2.364,-26.685C-1.721,-26.851 0.611,-27.428 1.511,-27.651C1.724,-27.703 1.868,-27.893 1.868,-28.112L1.868,-62.243C1.868,-63.424 1.628,-65.067 0,-65.485Z" style="fill:none;fill-rule:nonzero;stroke:rgb(22,33,45);stroke-width:0.5px;stroke-linejoin:miter;"/>
                            </g>
                            <g transform="matrix(1,0,0,1,77.6031,181.804)">
                                <path d="M0,-34.549L-5.975,-36.068C-6.186,-36.122 -6.407,-36.121 -6.618,-36.066L-7.723,-35.777C-7.761,-35.772 -7.795,-35.761 -7.831,-35.749L-7.931,-35.723L-7.927,-35.704C-8.145,-35.592 -8.307,-35.38 -8.307,-35.11L-8.307,-1.296C-8.307,-0.652 -7.872,-0.089 -7.249,0.074L-1.648,1.535C-1.502,1.573 -1.364,1.547 -1.236,1.497L-1.233,1.516L-0.027,1.193C0.44,1.068 0.764,0.645 0.764,0.162L0.766,-33.564C0.766,-34.029 0.45,-34.434 0,-34.549Z" style="fill:rgb(87,87,92);fill-rule:nonzero;stroke:rgb(22,33,45);stroke-width:0.5px;stroke-linejoin:miter;"/>
                            </g>
                            <g transform="matrix(1,0,0,1,75.9549,146.033)">
                                <path d="M0,37.306L-5.601,35.845C-6.224,35.682 -6.659,35.119 -6.659,34.475L-6.659,0.661C-6.659,0.214 -6.236,-0.113 -5.804,0L-0.203,1.461C0.421,1.624 0.856,2.187 0.856,2.831L0.856,36.645C0.856,37.092 0.433,37.419 0,37.306Z" style="fill:none;fill-rule:nonzero;stroke:rgb(22,33,45);stroke-width:0.5px;stroke-linejoin:miter;"/>
                            </g>
                            <g transform="matrix(1,0,0,1,76.3705,145.683)">
                                <path d="M0,37.637L1.206,37.314C1.672,37.189 1.997,36.766 1.997,36.284L1.998,2.557C1.998,2.092 1.683,1.687 1.232,1.572L-4.743,0.053C-4.954,0 -5.175,0 -5.385,0.055L-6.698,0.398" style="fill:none;fill-rule:nonzero;stroke:rgb(22,33,45);stroke-width:0.5px;stroke-linejoin:miter;"/>
                            </g>
                            <g transform="matrix(1,0,0,1,85.1157,183.841)">
                                <path d="M0,-34.549L-5.975,-36.068C-6.186,-36.122 -6.407,-36.121 -6.618,-36.066L-7.723,-35.777C-7.761,-35.772 -7.795,-35.761 -7.831,-35.749L-7.931,-35.723L-7.927,-35.704C-8.145,-35.592 -8.307,-35.38 -8.307,-35.11L-8.307,-1.296C-8.307,-0.652 -7.872,-0.089 -7.249,0.074L-1.648,1.535C-1.502,1.573 -1.364,1.547 -1.236,1.497L-1.233,1.516L-0.027,1.193C0.44,1.068 0.764,0.645 0.764,0.162L0.766,-33.564C0.766,-34.029 0.45,-34.434 0,-34.549Z" style="fill:rgb(87,87,92);fill-rule:nonzero;stroke:rgb(22,33,45);stroke-width:0.5px;stroke-linejoin:miter;"/>
                            </g>
                            <g transform="matrix(1,0,0,1,83.4674,148.07)">
                                <path d="M0,37.306L-5.601,35.845C-6.224,35.682 -6.659,35.119 -6.659,34.475L-6.659,0.661C-6.659,0.214 -6.236,-0.113 -5.804,0L-0.203,1.461C0.421,1.624 0.856,2.187 0.856,2.831L0.856,36.645C0.856,37.092 0.433,37.419 0,37.306Z" style="fill:none;fill-rule:nonzero;stroke:rgb(22,33,45);stroke-width:0.5px;stroke-linejoin:miter;"/>
                            </g>
                            <g transform="matrix(1,0,0,1,83.8831,147.72)">
                                <path d="M0,37.637L1.206,37.314C1.672,37.189 1.997,36.766 1.997,36.284L1.998,2.557C1.998,2.092 1.683,1.687 1.233,1.572L-4.743,0.053C-4.954,0 -5.175,0 -5.385,0.055L-6.698,0.398" style="fill:none;fill-rule:nonzero;stroke:rgb(22,33,45);stroke-width:0.5px;stroke-linejoin:miter;"/>
                            </g>
                            <g transform="matrix(1,0,0,1,220.63,152.072)">
                                <path d="M0,104.071L-61.63,120.074C-62.511,120.267 -62.941,120.107 -62.941,118.657L-62.941,74.767L1.418,58.055L1.418,102.237C1.418,103.223 1.061,103.76 0,104.071M-163.374,-19.925C-163.641,-19.994 -163.641,-20.372 -163.375,-20.441L-99.68,-37.006C-98.903,-37.208 -98.087,-37.208 -97.31,-37.006L-3.586,-12.688C-3.32,-12.619 -3.32,-12.242 -3.587,-12.173L-67.284,4.328C-68.059,4.529 -68.872,4.529 -69.647,4.328L-163.374,-19.925ZM-78.757,119.488C-78.757,120.939 -79.187,121.099 -80.068,120.906L-169.344,97.953C-170.404,97.642 -170.762,97.106 -170.762,96.12L-170.762,0.644C-170.762,-0.595 -170.78,-1.565 -169.581,-1.253L-80.092,21.754C-79.257,21.971 -78.757,22.705 -78.757,23.994L-78.757,119.488ZM1.418,6.762L1.418,31.292L-0.526,30.787L-62.941,46.995L-62.941,23.162C-62.941,21.873 -62.441,21.139 -61.606,20.922L0.237,4.864C1.437,4.553 1.418,5.523 1.418,6.762M10.925,-13.621L-93.898,-40.84C-94.585,-41.019 -95.305,-41.019 -95.992,-40.84L-173.569,-20.696C-176.511,-19.932 -178.301,-16.128 -178.301,-13.382C-178.3,-10.703 -178.3,110.028 -178.301,113.08C-178.301,115.608 -176.877,118.7 -174.178,119.392C-172.424,119.842 -77.135,144.6 -76.153,144.855C-75.248,145.09 -74.883,145.041 -74.387,144.915C-73.085,144.584 7.57,123.633 9.114,123.232C10.659,122.831 11.843,120.914 11.843,118.537L11.843,-12.433C11.843,-12.992 11.466,-13.48 10.925,-13.621" style="fill:rgb(87,87,92);fill-rule:nonzero;"/>
                            </g>
                            <g transform="matrix(1,0,0,1,224.076,178.828)">
                                <path d="M0,77.742C0,78.775 -0.375,79.338 -1.487,79.663L-66.555,96.593C-67.478,96.796 -67.928,96.627 -67.928,95.108L-67.928,-5.478C-67.928,-6.828 -67.405,-7.598 -66.529,-7.825L-1.238,-24.812C0.019,-25.138 0,-24.122 0,-22.823L0,77.742ZM8.398,91.781L8.398,-39.189L7.942,-40.138L-69.95,-19.783C-73.701,-18.803 -74.916,-15.06 -74.916,-12.744L-74.916,112.454C-74.916,117.177 -77.119,117.88 -77.119,117.88C-77.119,117.88 2.495,97.395 5.669,96.476C8.843,95.556 8.398,91.781 8.398,91.781" style="fill:rgb(220,220,220);fill-rule:nonzero;"/>
                            </g>
                            <g transform="matrix(1,0,0,1,222.048,200.015)">
                                <path d="M0,9.656L-64.359,26.812L-64.359,-0.949L-1.894,-17.156L0,-16.652L0,9.656Z" style="fill:rgb(220,220,220);fill-rule:nonzero;"/>
                            </g>
                            <g transform="matrix(1,0,0,1,182.746,288.476)">
                                <path d="M0,-13.842C-0.055,-13.842 -0.111,-13.835 -0.167,-13.821L-22.552,-8.061C-23.222,-7.888 -23.69,-7.284 -23.69,-6.593L-23.69,-0.668C-23.69,-0.29 -23.382,0 -23.025,0C-22.97,0 -22.914,-0.007 -22.857,-0.022L-0.472,-5.782C0.198,-5.954 0.666,-6.558 0.666,-7.25L0.666,-13.175C0.666,-13.552 0.357,-13.842 0,-13.842" style="fill:rgb(87,87,92);fill-rule:nonzero;"/>
                            </g>
                            <g transform="matrix(1,0,0,1,209.054,281.684)">
                                <path d="M0,-13.842C-0.055,-13.842 -0.111,-13.835 -0.167,-13.821L-22.552,-8.061C-23.222,-7.888 -23.69,-7.284 -23.69,-6.593L-23.69,-0.668C-23.69,-0.29 -23.382,0 -23.025,0C-22.97,0 -22.914,-0.007 -22.857,-0.022L-0.472,-5.782C0.198,-5.954 0.666,-6.558 0.666,-7.25L0.666,-13.175C0.666,-13.552 0.357,-13.842 0,-13.842" style="fill:rgb(87,87,92);fill-rule:nonzero;"/>
                            </g>
                            <g transform="matrix(1,0,0,1,228.264,243.535)">
                                <path d="M0,13.515L-1.652,13.983C-2.269,14.158 -2.882,13.695 -2.882,13.054L-2.882,1.178C-2.882,0.631 -2.518,0.15 -1.991,0L-0.339,-0.468C0.277,-0.643 0.89,-0.179 0.89,0.462L0.89,12.337C0.89,12.885 0.527,13.366 0,13.515" style="fill:rgb(87,87,92);fill-rule:nonzero;"/>
                            </g>
                            <g transform="matrix(1,0,0,1,231.555,269.764)">
                                <path d="M0,-131.313C0.541,-131.173 0.919,-130.684 0.919,-130.125L0.919,0.845C0.919,3.221 -0.266,5.139 -1.811,5.54C-3.355,5.941 -84.01,26.891 -85.312,27.223C-85.807,27.349 -86.173,27.398 -87.078,27.163C-88.06,26.907 -183.349,2.15 -185.103,1.7C-187.801,1.007 -189.226,-2.084 -189.225,-4.613C-189.224,-7.665 -189.225,-128.395 -189.225,-131.074C-189.226,-133.821 -187.436,-137.624 -184.494,-138.388L-106.917,-158.533C-106.23,-158.711 -105.51,-158.711 -104.823,-158.533L0,-131.313Z" style="fill:none;fill-rule:nonzero;stroke:rgb(22,33,45);stroke-width:1px;stroke-linejoin:miter;"/>
                            </g>
                            <g transform="matrix(-0.9679,0.251337,0.251337,0.9679,167.519,305.282)">
                                <path d="M-104.74,-144.92L-23.506,-144.92C-20.335,-144.92 -17.773,-141.662 -17.067,-138.941L14.551,-17.18C14.914,-15.783 16.152,-13.377 18.509,-13.377" style="fill:none;fill-rule:nonzero;stroke:rgb(22,33,45);stroke-width:1px;stroke-linejoin:miter;"/>
                            </g>
                            <g transform="matrix(1,0,0,1,143.477,262.575)">
                                <path d="M0,-88.426C0,-89.763 -0.518,-90.524 -1.385,-90.749L-94.723,-114.98C-95.967,-115.303 -95.948,-114.298 -95.948,-113.012L-95.948,0.6C-95.948,1.622 -95.577,2.179 -94.477,2.502L-1.359,26.676C-0.446,26.877 0,26.71 0,25.206L0,-88.426Z" style="fill:none;fill-rule:nonzero;stroke:rgb(22,33,45);stroke-width:1px;stroke-linejoin:miter;"/>
                            </g>
                            <g transform="matrix(0.967901,-0.251333,-0.251333,-0.967901,159.373,235.521)">
                                <path d="M-1.127,8.827L69.11,8.827" style="fill:none;fill-rule:nonzero;stroke:rgb(22,33,45);stroke-width:1px;stroke-linejoin:miter;"/>
                            </g>
                            <g transform="matrix(0.967901,-0.251333,-0.251333,-0.967901,160.822,208.933)">
                                <path d="M-1.067,8.356L65.426,8.356" style="fill:none;fill-rule:nonzero;stroke:rgb(22,33,45);stroke-width:0.5px;stroke-linejoin:miter;"/>
                            </g>
                            <g transform="matrix(1,0,0,1,157.689,182.859)">
                                <path d="M0,16.207L62.415,0L64.359,0.504" style="fill:none;fill-rule:nonzero;stroke:rgb(22,33,45);stroke-width:0.5px;stroke-linejoin:miter;"/>
                            </g>
                            <g transform="matrix(1,0,0,1,220.63,172.821)">
                                <path d="M0,83.322L-61.63,99.325C-62.511,99.518 -62.941,99.358 -62.941,97.908L-62.941,2.413C-62.941,1.124 -62.441,0.39 -61.606,0.173L0.237,-15.885C1.436,-16.196 1.418,-15.226 1.418,-13.987L1.418,81.488C1.418,82.474 1.061,83.011 0,83.322Z" style="fill:none;fill-rule:nonzero;stroke:rgb(22,33,45);stroke-width:0.5px;stroke-linejoin:miter;"/>
                            </g>
                            <g transform="matrix(1,0,0,1,141.873,247.612)">
                                <path d="M0,-71.547C0,-72.836 -0.5,-73.57 -1.335,-73.787L-90.823,-96.794C-92.023,-97.105 -92.005,-96.136 -92.005,-94.896L-92.005,0.579C-92.005,1.565 -91.647,2.102 -90.586,2.413L-1.31,25.365C-0.43,25.558 0,25.398 0,23.948L0,-71.547Z" style="fill:none;fill-rule:nonzero;stroke:rgb(22,33,45);stroke-width:0.5px;stroke-linejoin:miter;"/>
                            </g>
                            <g transform="matrix(0.96788,0.251412,0.251412,-0.96788,52.202,247.78)">
                                <path d="M-1.592,-12.461L97.54,-12.461" style="fill:none;fill-rule:nonzero;stroke:rgb(22,33,45);stroke-width:1px;stroke-linejoin:miter;"/>
                            </g>
                            <g transform="matrix(1,0,0,1,122.052,267.63)">
                                <path d="M0,7.521L-53.559,-6.387C-53.981,-6.496 -54.392,-6.178 -54.392,-5.742L-54.392,-0.645C-54.392,-0.342 -54.187,-0.077 -53.894,-0L-0.335,13.907C0.087,14.017 0.499,13.698 0.499,13.263L0.499,8.166C0.499,7.862 0.294,7.597 0,7.521Z" style="fill:none;fill-rule:nonzero;stroke:rgb(22,33,45);stroke-width:1px;stroke-linejoin:miter;"/>
                            </g>
                            <g transform="matrix(1,0,0,1,222.589,170.821)">
                                <path d="M0,87.67L-65.069,104.6C-65.991,104.802 -66.442,104.634 -66.442,103.114L-66.442,2.529C-66.442,1.178 -65.918,0.409 -65.043,0.182L0.248,-16.805C1.505,-17.132 1.486,-16.116 1.486,-14.817L1.486,85.749C1.486,86.782 1.111,87.344 0,87.67Z" style="fill:none;fill-rule:nonzero;stroke:rgb(22,33,45);stroke-width:1px;stroke-linejoin:miter;"/>
                            </g>
                            <g transform="matrix(1,0,0,1,57.2554,139.833)">
                                <path d="M0,-8.203L63.694,-24.767C64.472,-24.97 65.288,-24.97 66.065,-24.768L159.788,-0.45C160.054,-0.381 160.054,-0.003 159.788,0.066L96.091,16.566C95.316,16.767 94.503,16.767 93.728,16.567L0,-7.687C-0.266,-7.756 -0.266,-8.134 0,-8.203Z" style="fill:none;fill-rule:nonzero;stroke:rgb(22,33,45);stroke-width:1px;stroke-linejoin:miter;"/>
                            </g>
                            <g transform="matrix(1,0,0,1,228.264,243.535)">
                                <path d="M0,13.515L-1.652,13.983C-2.269,14.158 -2.882,13.695 -2.882,13.054L-2.882,1.178C-2.882,0.631 -2.518,0.15 -1.991,0L-0.339,-0.468C0.277,-0.643 0.89,-0.179 0.89,0.462L0.89,12.337C0.89,12.885 0.527,13.366 0,13.515Z" style="fill:none;fill-rule:nonzero;stroke:rgb(22,33,45);stroke-width:0.5px;stroke-linejoin:miter;"/>
                            </g>
                            <g transform="matrix(0.964646,-0.26355,-0.26355,-0.964646,226.31,253.959)">
                                <path d="M-0.028,0.206L1.536,0.206" style="fill:none;fill-rule:nonzero;stroke:rgb(22,33,45);stroke-width:1px;stroke-linecap:round;stroke-linejoin:miter;"/>
                            </g>
                            <g transform="matrix(0.964646,-0.26355,-0.26355,-0.964646,226.31,251.575)">
                                <path d="M-0.028,0.206L1.536,0.206" style="fill:none;fill-rule:nonzero;stroke:rgb(22,33,45);stroke-width:1px;stroke-linecap:round;stroke-linejoin:miter;"/>
                            </g>
                            <g transform="matrix(0.964646,-0.26355,-0.26355,-0.964646,226.31,249.562)">
                                <path d="M-0.028,0.206L1.536,0.206" style="fill:none;fill-rule:nonzero;stroke:rgb(22,33,45);stroke-width:1px;stroke-linecap:round;stroke-linejoin:miter;"/>
                            </g>
                            <g transform="matrix(0.964646,-0.26355,-0.26355,-0.964646,226.31,247.36)">
                                <path d="M-0.028,0.206L1.536,0.206" style="fill:none;fill-rule:nonzero;stroke:rgb(22,33,45);stroke-width:1px;stroke-linecap:round;stroke-linejoin:miter;"/>
                            </g>
                            <g transform="matrix(1,0,0,1,182.746,288.476)">
                                <path d="M0,-13.842C-0.055,-13.842 -0.111,-13.835 -0.167,-13.821L-22.552,-8.061C-23.222,-7.888 -23.69,-7.284 -23.69,-6.593L-23.69,-0.668C-23.69,-0.29 -23.382,0 -23.025,0C-22.97,0 -22.914,-0.007 -22.857,-0.022L-0.472,-5.782C0.198,-5.954 0.666,-6.558 0.666,-7.25L0.666,-13.175C0.666,-13.552 0.357,-13.842 0,-13.842Z" style="fill:none;fill-rule:nonzero;stroke:rgb(22,33,45);stroke-width:0.5px;stroke-linejoin:miter;"/>
                            </g>
                            <g transform="matrix(1,0,0,1,172.994,285.911)">
                                <path d="M0,-8.819C-0.67,-8.647 -1.138,-8.043 -1.138,-7.351L-1.138,-1.426C-1.138,-1.049 -0.829,-0.759 -0.472,-0.759C-0.417,-0.759 -0.361,-0.766 -0.305,-0.78M-3.268,0C-2.598,-0.173 -2.129,-0.777 -2.129,-1.469L-2.129,-7.393C-2.129,-7.771 -2.438,-8.061 -2.795,-8.061C-2.85,-8.061 -2.906,-8.054 -2.963,-8.039" style="fill:none;fill-rule:nonzero;stroke:rgb(22,33,45);stroke-width:0.5px;stroke-linejoin:miter;"/>
                            </g>
                            <g transform="matrix(1,0,0,1,209.054,281.684)">
                                <path d="M0,-13.842C-0.055,-13.842 -0.111,-13.835 -0.167,-13.821L-22.552,-8.061C-23.222,-7.888 -23.69,-7.284 -23.69,-6.593L-23.69,-0.668C-23.69,-0.29 -23.382,0 -23.025,0C-22.97,0 -22.914,-0.007 -22.857,-0.022L-0.472,-5.782C0.198,-5.954 0.666,-6.558 0.666,-7.25L0.666,-13.175C0.666,-13.552 0.357,-13.842 0,-13.842Z" style="fill:none;fill-rule:nonzero;stroke:rgb(22,33,45);stroke-width:0.5px;stroke-linejoin:miter;"/>
                            </g>
                            <g transform="matrix(1,0,0,1,199.302,279.119)">
                                <path d="M0,-8.819C-0.67,-8.647 -1.138,-8.043 -1.138,-7.351L-1.138,-1.426C-1.138,-1.049 -0.829,-0.759 -0.472,-0.759C-0.417,-0.759 -0.361,-0.766 -0.305,-0.78M-3.268,0C-2.598,-0.173 -2.129,-0.777 -2.129,-1.469L-2.129,-7.393C-2.129,-7.771 -2.438,-8.061 -2.795,-8.061C-2.85,-8.061 -2.906,-8.054 -2.963,-8.039" style="fill:none;fill-rule:nonzero;stroke:rgb(22,33,45);stroke-width:0.5px;stroke-linejoin:miter;"/>
                            </g>
                            <g transform="matrix(0.161797,-0.986824,-0.986824,-0.161797,155.333,282.828)">
                                <ellipse cx="-1.814" cy="0.297" rx="2.929" ry="1.839" style="fill:none;stroke:rgb(22,33,45);stroke-width:0.5px;stroke-linejoin:miter;"/>
                            </g>
                            <g transform="matrix(0.161797,-0.986824,-0.986824,-0.161797,216.809,266.948)">
                                <ellipse cx="-1.814" cy="0.297" rx="2.929" ry="1.839" style="fill:none;stroke:rgb(22,33,45);stroke-width:0.5px;stroke-linejoin:miter;"/>
                            </g>
                            <g transform="matrix(1,0,0,1,147.085,222.642)">
                                <path d="M0,-18.152L-23.302,-24.256C-23.302,-24.256 -26.277,-25.173 -26.277,-20.861C-26.714,-20.424 -26.733,-1.622 -26.733,-1.622C-26.733,-1.622 -26.861,-0.276 -24.73,0.304C-22.6,0.883 0,7.021 0,7.021L0,-18.152Z" style="fill:rgb(87,87,92);fill-rule:nonzero;"/>
                            </g>
                            <g transform="matrix(1,0,0,1,143.248,200.394)">
                                <path d="M0,27.538L2.114,26.394C2.482,26.094 2.723,25.637 2.723,25.11L2.723,7.549C2.723,6.536 2.045,5.649 1.068,5.383L-18.559,0.101C-18.929,0 -19.297,0.033 -19.619,0.165L-22.003,1.052C-22.003,1.052 -20.712,0.799 -19.42,1.245C-18.128,1.69 -0.975,6.324 -0.975,6.324C-0.975,6.324 0.852,6.454 0.852,9.24L0.852,26.106L0,27.538Z" style="fill:rgb(220,220,220);fill-rule:nonzero;"/>
                            </g>
                            <g transform="matrix(1,0,0,1,142.009,201.317)">
                                <path d="M0,26.766L-20.001,21.534C-20.979,21.269 -21.657,20.381 -21.657,19.369L-21.657,1.598C-21.657,0.506 -20.619,-0.287 -19.566,0L0.435,5.441C1.413,5.707 2.091,6.594 2.091,7.607L2.091,25.168C2.091,26.26 1.053,27.053 0,26.766Z" style="fill:none;fill-rule:nonzero;stroke:rgb(22,33,45);stroke-width:1px;"/>
                            </g>
                            <g transform="matrix(1,0,0,1,121.245,226.881)">
                                <path d="M0,-25.435L2.385,-26.322C2.707,-26.454 3.075,-26.486 3.445,-26.386L23.071,-21.103C24.049,-20.838 24.727,-19.95 24.727,-18.938L24.727,-1.376C24.727,-0.85 24.485,-0.393 24.117,-0.093L22.003,1.051" style="fill:none;fill-rule:nonzero;stroke:rgb(22,33,45);stroke-width:1px;"/>
                            </g>
                            <g transform="matrix(1,0,0,1,120.808,199.514)">
                                <path d="M0,2.268C0,-1.376 1.773,-1.439 2.975,-1.127C4.001,-0.861 22.669,3.997 22.669,3.997L22.669,-1.729" style="fill:none;fill-rule:nonzero;stroke:rgb(22,33,45);stroke-width:1px;"/>
                            </g>
                            <g transform="matrix(-0.967425,-0.253157,-0.253157,0.967425,125.455,202.518)">
                                <path d="M-21.262,17.046L-1.551,17.046L2.193,2.736L-17.518,2.736L-21.262,17.046Z" style="fill:none;fill-rule:nonzero;stroke:rgb(22,33,45);stroke-width:0.5px;"/>
                            </g>
                            <g transform="matrix(0,-1,-1,0,144.582,228.825)">
                                <path d="M-1.106,1.106L1.106,1.106" style="fill:none;fill-rule:nonzero;stroke:rgb(22,33,45);stroke-width:1px;"/>
                            </g>
                        </g>
                    </g>
                    <g transform="matrix(1,0,0,1,148.843,259.16)">
                        <path d="M0,39.878L0,19.375L83.347,-1.845L90.112,0L90.112,20.503L6.765,41.723L0,39.878Z" style="fill:white;fill-rule:nonzero;"/>
                    </g>
                    <g transform="matrix(1,0,0,1,238.955,299.038)">
                        <path d="M0,-39.878L0,-19.375L-83.347,1.845L-90.112,-0L-90.112,-20.503L-6.765,-41.723L0,-39.878Z" style="fill:none;fill-rule:nonzero;stroke:black;stroke-width:1px;stroke-linejoin:miter;"/>
                    </g>
                    <g transform="matrix(1,0,0,1,238.955,280.38)">
                        <path d="M0,-21.22L-83.347,0L-90.112,-1.845" style="fill:none;fill-rule:nonzero;stroke:black;stroke-width:0.5px;"/>
                    </g>
                    <g transform="matrix(0,-1,-1,0,165.859,290.632)">
                        <path d="M-10.252,10.252L10.252,10.252" style="fill:none;fill-rule:nonzero;stroke:black;stroke-width:0.5px;"/>
                    </g>
                    <g opacity="0.5">
                        <g transform="matrix(1,0,0,1,238.955,149.613)">
                            <path d="M0,109.547L0,130.05L-83.347,151.27C-83.347,151.27 -94.056,150.04 -99.523,148.257C-104.99,146.475 -166.296,126.436 -195.346,122.634C-195.346,122.634 -207.168,121.988 -207.168,114.826C-207.168,109.361 -205.837,102.248 -205.205,99.183C-205.038,98.37 -204.233,97.858 -203.427,98.056C-200.932,98.667 -197.922,100.034 -197.841,97.145C-197.115,71.089 -204.441,75.901 -200.99,44.927C-198.489,22.486 -199.477,3.354 -201.065,-3.857C-202.653,-11.069 -202.744,-18.915 -197.115,-21.764C-191.485,-24.614 -128.472,-38.634 -123.741,-39.822C-119.009,-41.01 -111.317,-41.723 -105.183,-39.822C-99.049,-37.921 -80.735,-32.057 -68.743,-29.167C-56.752,-26.277 -16.144,-17.015 -11.854,-15.468C-7.564,-13.921 -4.712,-12.78 -4.712,-8.598C-4.712,-4.416 -1.386,36.992 -2.811,49.199C-4.237,61.406 -5.425,78.656 -4.712,84.645C-4.712,84.645 -6.851,104.87 -6.138,106.069C-5.425,107.267 0,109.547 0,109.547" style="fill:white;fill-rule:nonzero;"/>
                        </g>
                    </g>
                    <g transform="matrix(1,0,0,1,238.955,149.613)">
                        <path d="M0,109.547L0,130.05L-83.347,151.27C-83.347,151.27 -94.056,150.04 -99.523,148.257C-104.99,146.475 -166.296,126.436 -195.346,122.634C-195.346,122.634 -207.168,121.988 -207.168,114.826C-207.168,109.361 -205.837,102.248 -205.205,99.183C-205.038,98.37 -204.233,97.858 -203.427,98.056C-200.932,98.667 -197.922,100.034 -197.841,97.145C-197.115,71.089 -204.441,75.901 -200.99,44.927C-198.489,22.486 -199.477,3.354 -201.065,-3.857C-202.653,-11.069 -202.744,-18.915 -197.115,-21.764C-191.485,-24.614 -128.472,-38.634 -123.741,-39.822C-119.009,-41.01 -111.317,-41.723 -105.183,-39.822C-99.049,-37.921 -80.735,-32.057 -68.743,-29.167C-56.752,-26.277 -16.144,-17.015 -11.854,-15.468C-7.564,-13.921 -4.712,-12.78 -4.712,-8.598C-4.712,-4.416 -1.386,36.992 -2.811,49.199C-4.237,61.406 -5.425,78.656 -4.712,84.645C-4.712,84.645 -6.851,104.87 -6.138,106.069C-5.425,107.267 0,109.547 0,109.547Z" style="fill:none;fill-rule:nonzero;stroke:rgb(22,33,45);stroke-width:1px;stroke-linejoin:miter;"/>
                    </g>
                    <g transform="matrix(1,0,0,1,175.727,264.507)">
                        <path d="M0,-26.601L-3.976,-29.25L-20.16,-30.759L-23.606,-20.367L-20.804,-18.505L-26.678,-0.792L-23.697,1.398L-24.22,2.974L-7.796,4.158L1.25,-23.12C1.684,-24.43 1.168,-25.867 0,-26.601" style="fill:rgb(255,214,0);fill-rule:nonzero;"/>
                    </g>
                    <g transform="matrix(1,0,0,1,167.931,233.748)">
                        <path d="M0,34.917L9.046,7.639C9.481,6.329 8.965,4.892 7.796,4.158L3.82,1.509L-12.364,0L-15.81,10.391L-9.97,14.272L-16.424,33.733L0,34.917Z" style="fill:none;fill-rule:nonzero;stroke:rgb(22,33,45);stroke-width:1px;"/>
                    </g>
                    <g transform="matrix(1,0,0,1,152.156,233.916)">
                        <path d="M0,33.408L9.046,6.13C9.481,4.82 8.965,3.383 7.796,2.649L3.82,0" style="fill:none;fill-rule:nonzero;stroke:rgb(22,33,45);stroke-width:0.5px;"/>
                    </g>
                    <g transform="matrix(-0.314794,0.94916,0.94916,0.314794,182.1,260.948)">
                        <path d="M-21.127,-17.91L-10.453,-17.91L-9.816,-16.248L9.923,-16.249L11.526,-11.019" style="fill:none;fill-rule:nonzero;stroke:rgb(22,33,45);stroke-width:0.5px;"/>
                    </g>
                    <g transform="matrix(-0.995437,-0.0954199,-0.0954199,0.995437,152.862,263.708)">
                        <path d="M-10.791,0.516L0.025,0.516" style="fill:none;fill-rule:nonzero;stroke:rgb(22,33,45);stroke-width:0.5px;"/>
                    </g>
                    <g transform="matrix(-0.995438,-0.0954124,-0.0954124,0.995438,159.281,245.397)">
                        <path d="M-10.457,0.5L0.024,0.5" style="fill:none;fill-rule:nonzero;stroke:rgb(22,33,45);stroke-width:0.5px;"/>
                    </g>
                    <g transform="matrix(-0.995296,-0.0968811,-0.0968811,0.995296,159.772,244.124)">
                        <path d="M-8.702,0.423L0.021,0.423" style="fill:none;fill-rule:nonzero;stroke:rgb(22,33,45);stroke-width:0.5px;"/>
                    </g>
                    <g transform="matrix(1,0,0,1,152.03,245.897)">
                        <path d="M0,20.009L-2.981,17.818L2.928,0" style="fill:none;fill-rule:nonzero;stroke:rgb(22,33,45);stroke-width:0.5px;"/>
                    </g>
                    <g transform="matrix(1,0,0,1,239.065,250.754)">
                        <path d="M0,28.866L0,0.127C0,-1.253 -0.942,-2.454 -2.282,-2.784L-6.89,-4.046L-22.726,-0.384L-22.726,10.563L-15.962,12.409L-15.962,32.912L0,28.866Z" style="fill:rgb(255,214,0);fill-rule:nonzero;stroke:rgb(22,33,45);stroke-width:1px;"/>
                    </g>
                    <g transform="matrix(1,0,0,1,223.669,250.4)">
                        <path d="M0,32.912L0,4.173C0,2.793 -0.942,1.592 -2.282,1.262L-6.89,0" style="fill:none;fill-rule:nonzero;stroke:rgb(22,33,45);stroke-width:0.5px;"/>
                    </g>
                    <g transform="matrix(0,1,1,0,251.946,259.59)">
                        <path d="M-12.881,-19.772L-2.208,-19.772L-1.57,-18.11L18.168,-18.11L19.772,-12.881" style="fill:none;fill-rule:nonzero;stroke:rgb(22,33,45);stroke-width:0.5px;"/>
                    </g>
                    <g transform="matrix(-0.974875,0.222752,0.222752,0.974875,223.694,281.31)">
                        <path d="M-10.679,-1.204L0.136,-1.204" style="fill:none;fill-rule:nonzero;stroke:rgb(22,33,45);stroke-width:0.5px;"/>
                    </g>
                    <g transform="matrix(-0.974865,0.222796,0.222796,0.974865,224.008,261.859)">
                        <path d="M-10.349,-1.167L0.132,-1.167" style="fill:none;fill-rule:nonzero;stroke:rgb(22,33,45);stroke-width:0.5px;"/>
                    </g>
                    <g transform="matrix(-0.975187,0.221383,0.221383,0.975187,223.988,260.23)">
                        <path d="M-8.614,-0.965L0.108,-0.965" style="fill:none;fill-rule:nonzero;stroke:rgb(22,33,45);stroke-width:0.5px;"/>
                    </g>
                    <g transform="matrix(-0.852433,0.522836,0.522836,0.852433,171.41,254.515)">
                        <path d="M-2.614,3.584L-1.331,3.584C-1.011,3.584 -0.752,2.616 -0.751,1.423C-0.753,0.229 -1.012,-0.738 -1.332,-0.738L-2.615,-0.738" style="fill:white;fill-rule:nonzero;stroke:rgb(22,33,45);stroke-width:0.5px;"/>
                    </g>
                    <g transform="matrix(0.852491,-0.522741,-0.522741,-0.852491,176.309,255.341)">
                        <path d="M-1.129,-0.319C-1.45,-0.318 -1.709,0.649 -1.709,1.842C-1.708,3.036 -1.45,4.003 -1.129,4.003C-0.81,4.003 -0.551,3.036 -0.55,1.842C-0.55,0.649 -0.809,-0.319 -1.129,-0.319" style="fill:white;fill-rule:nonzero;"/>
                    </g>
                    <g transform="matrix(0.852491,-0.522741,-0.522741,-0.852491,176.309,255.341)">
                        <ellipse cx="-1.13" cy="1.842" rx="0.58" ry="2.161" style="fill:none;stroke:rgb(22,33,45);stroke-width:0.5px;"/>
                    </g>
                    <g transform="matrix(-0.620982,0.783825,0.783825,0.620982,169.149,258.714)">
                        <path d="M-2.992,2.876L-1.708,2.876C-1.389,2.875 -1.13,1.907 -1.13,0.714C-1.13,-0.48 -1.39,-1.447 -1.71,-1.447L-2.993,-1.446" style="fill:white;fill-rule:nonzero;stroke:rgb(22,33,45);stroke-width:0.5px;"/>
                    </g>
                    <g transform="matrix(0.621331,-0.783548,-0.783548,-0.621331,173.671,256.32)">
                        <path d="M-1.693,-0.818C-2.013,-0.818 -2.272,0.149 -2.272,1.343C-2.272,2.536 -2.013,3.504 -1.693,3.503C-1.373,3.503 -1.114,2.536 -1.113,1.343C-1.114,0.149 -1.373,-0.818 -1.693,-0.818" style="fill:white;fill-rule:nonzero;"/>
                    </g>
                    <g transform="matrix(0.621331,-0.783548,-0.783548,-0.621331,173.671,256.32)">
                        <ellipse cx="-1.693" cy="1.343" rx="0.58" ry="2.161" style="fill:none;stroke:rgb(22,33,45);stroke-width:0.5px;"/>
                    </g>
                    <g transform="matrix(0,1,1,0,231.014,281.812)">
                        <path d="M-3.092,1.229L-1.809,1.229C-1.489,1.229 -1.229,0.262 -1.229,-0.932C-1.229,-2.125 -1.489,-3.092 -1.809,-3.092L-3.092,-3.092" style="fill:white;fill-rule:nonzero;stroke:rgb(22,33,45);stroke-width:0.5px;"/>
                    </g>
                    <g transform="matrix(0,-1,-1,0,230.083,276.559)">
                        <path d="M-2.161,-2.161C-2.481,-2.161 -2.74,-1.194 -2.74,0C-2.74,1.193 -2.481,2.161 -2.161,2.161C-1.841,2.161 -1.582,1.193 -1.582,0C-1.582,-1.194 -1.841,-2.161 -2.161,-2.161" style="fill:white;fill-rule:nonzero;"/>
                    </g>
                    <g transform="matrix(0,-1,-1,0,230.083,276.559)">
                        <ellipse cx="-2.161" cy="0" rx="0.579" ry="2.161" style="fill:none;stroke:rgb(22,33,45);stroke-width:0.5px;"/>
                    </g>
                    <g transform="matrix(0.314658,-0.949205,-0.949205,-0.314658,159.527,264.781)">
                        <path d="M-1.634,-1.179C-1.88,-1.18 -2.079,-0.408 -2.079,0.542C-2.079,1.492 -1.879,2.262 -1.634,2.262C-1.387,2.262 -1.187,1.492 -1.187,0.541C-1.188,-0.409 -1.387,-1.179 -1.634,-1.179" style="fill:white;fill-rule:nonzero;"/>
                    </g>
                    <g transform="matrix(0.314658,-0.949205,-0.949205,-0.314658,159.527,264.781)">
                        <ellipse cx="-1.633" cy="0.541" rx="0.446" ry="1.721" style="fill:none;stroke:rgb(22,33,45);stroke-width:0.5px;"/>
                    </g>
                    <g transform="matrix(-0.835507,0.54948,0.54948,0.835507,254.949,293.472)">
                        <path d="M-103.879,-31.098L9.309,-31.098" style="fill:none;fill-rule:nonzero;stroke:rgb(0,108,250);stroke-width:3px;stroke-linecap:round;stroke-linejoin:miter;"/>
                    </g>
                    <g>
                        <g>
                            <clipPath id="_clip1">
                                <path d="M253.786,210.41C253.786,249.548 285.514,281.276 324.653,281.276C363.793,281.276 395.52,249.548 395.52,210.41C395.52,171.273 363.793,139.543 324.653,139.543C285.514,139.543 253.786,171.273 253.786,210.41Z"/>
                            </clipPath>
                            <g clip-path="url(#_clip1)">
                                <g transform="matrix(1,0,0,1,0,-6.654)">
                                    <rect x="175.949" y="74.193" width="283.465" height="283.465" style="fill:white;"/>
                                </g>
                                <g transform="matrix(1,0,0,1,346.028,216.433)">
                                    <path d="M0,-18.891C0,-16.693 -1.01,-16.723 -1.871,-16.96C-2.733,-17.198 -3.743,-18.238 -3.743,-20.673L-3.743,-47.109C-3.743,-48.238 -3.03,-49.396 -1.723,-48.832C-0.416,-48.267 0,-46.723 0,-45.327L0,-18.891ZM0,23.644C0,25.842 -1.01,25.812 -1.871,25.574C-2.733,25.337 -3.743,24.297 -3.743,21.862L-3.743,-4.574C-3.743,-5.703 -3.03,-6.861 -1.723,-6.297C-0.416,-5.733 0,-4.188 0,-2.792L0,23.644ZM-9.668,-53.162L-20.584,-56.896C-21.951,-57.342 -22.738,-58.53 -22.738,-60.134C-22.738,-61.738 -21.878,-62.655 -20.584,-62.213L-9.668,-58.478C-8.716,-58.152 -8.109,-56.228 -8.109,-55.292C-8.109,-54.356 -8.376,-52.738 -9.668,-53.162M-11.094,-19.292C-11.094,-13.47 -13.604,-10.075 -17.632,-8.374L-29.955,-4.218C-33.155,-3.058 -36.535,-4.061 -36.535,-11.97L-36.535,-21.505C-36.535,-27.386 -34.085,-30.368 -30.408,-31.701L-17.887,-35.928C-13.961,-37.352 -11.094,-33.178 -11.094,-27.787L-11.094,-19.292ZM-11.094,17.439C-11.094,23.261 -13.604,26.657 -17.632,28.357L-29.955,32.513C-33.155,33.673 -36.535,32.671 -36.535,24.761L-36.535,15.226C-36.535,9.345 -34.085,6.363 -30.408,5.03L-17.887,0.803C-13.961,-0.62 -11.094,3.553 -11.094,8.944L-11.094,17.439ZM-39.278,-40.893L-44.519,-45.676L-31.054,-50.243C-28.693,-51.044 -24.282,-51 -21.431,-49.931C-18.579,-48.861 -18.378,-47.554 -20.286,-46.901L-36.535,-41.338C-37.916,-40.708 -39.278,-40.893 -39.278,-40.893M-51.728,-50.468C-53.02,-50.044 -53.287,-51.663 -53.287,-52.599C-53.287,-53.534 -52.68,-55.459 -51.728,-55.785L-33.148,-61.945C-31.855,-62.388 -30.995,-61.47 -30.995,-59.866C-30.995,-58.262 -31.782,-57.074 -33.148,-56.629L-51.728,-50.468ZM3.683,33.405L3.683,-52.856C3.683,-55.998 1.701,-58.798 -1.261,-59.842L-26.139,-68.614L-67.66,-54.281L-67.66,-40.618L-49.618,-34.429C-48.186,-33.938 -47.225,-32.591 -47.225,-31.077L-47.225,44.689L-33.267,49.723L6.654,36.06L6.654,34.634L3.683,33.405Z" style="fill:white;fill-rule:nonzero;"/>
                                </g>
                                <g transform="matrix(1,0,0,1,298.803,152.853)">
                                    <path d="M0,108.269L13.957,113.303L53.878,99.639L53.878,98.214L41.522,93.936L41.522,18.17C41.522,16.656 40.56,15.31 39.128,14.818L21.086,8.63L21.086,-5.034" style="fill:none;fill-rule:nonzero;stroke:rgb(22,33,45);stroke-width:0.5px;stroke-linecap:round;"/>
                                </g>
                                <g transform="matrix(1,0,0,1,307.176,147.82)">
                                    <path d="M0,116.454L0,30.193C0,27.052 -1.982,24.252 -4.945,23.207L-28.809,14.332L12.713,0L37.59,8.771C40.553,9.816 42.535,12.616 42.535,15.758L42.535,102.018" style="fill:none;fill-rule:nonzero;stroke:rgb(22,33,45);stroke-width:0.5px;stroke-linecap:round;"/>
                                </g>
                                <g transform="matrix(-0.945274,0.326279,0.326279,0.945274,309.95,263.327)">
                                    <path d="M-34.109,-5.721L0.96,-5.721" style="fill:none;fill-rule:nonzero;stroke:rgb(22,33,45);stroke-width:0.5px;stroke-linecap:round;"/>
                                </g>
                                <g transform="matrix(0,-1,-1,0,338.07,201.419)">
                                    <path d="M-59.703,39.267L16.063,39.267C17.577,39.267 18.924,40.229 19.415,41.661L25.604,59.703L39.267,59.703" style="fill:none;fill-rule:nonzero;stroke:rgb(22,33,45);stroke-width:0.5px;stroke-linecap:round;"/>
                                </g>
                                <g transform="matrix(-0.94994,0.312432,0.312432,0.94994,298.657,172.446)">
                                    <path d="M-23.595,-3.781L0.606,-3.781" style="fill:none;fill-rule:nonzero;stroke:rgb(22,33,45);stroke-width:0.5px;stroke-linecap:round;"/>
                                </g>
                                <g transform="matrix(-0.944641,0.328105,0.328105,0.944641,309.855,184.004)">
                                    <path d="M-32.571,-5.496L0.927,-5.496" style="fill:none;fill-rule:nonzero;stroke:rgb(22,33,45);stroke-width:0.5px;stroke-linecap:round;"/>
                                </g>
                                <g transform="matrix(-0.944882,0.327411,0.327411,0.944882,309.967,187.112)">
                                    <path d="M-34.079,-5.737L0.966,-5.737" style="fill:none;fill-rule:nonzero;stroke:rgb(22,33,45);stroke-width:0.5px;stroke-linecap:round;"/>
                                </g>
                                <g transform="matrix(1,0,0,1,342.285,171.017)">
                                    <path d="M0,24.743L0,-1.693C0,-2.821 0.713,-3.98 2.02,-3.415C3.327,-2.851 3.743,-1.307 3.743,0.09L3.743,26.525C3.743,28.723 2.733,28.693 1.871,28.456C1.01,28.218 0,27.179 0,24.743Z" style="fill:none;fill-rule:nonzero;stroke:rgb(22,33,45);stroke-width:0.5px;stroke-linecap:round;"/>
                                </g>
                                <g transform="matrix(1,0,0,1,342.285,213.552)">
                                    <path d="M0,24.743L0,-1.693C0,-2.821 0.713,-3.98 2.02,-3.415C3.327,-2.851 3.743,-1.307 3.743,0.09L3.743,26.525C3.743,28.723 2.733,28.693 1.871,28.456C1.01,28.218 0,27.179 0,24.743Z" style="fill:none;fill-rule:nonzero;stroke:rgb(22,33,45);stroke-width:0.5px;stroke-linecap:round;"/>
                                </g>
                                <g transform="matrix(1,0,0,1,336.36,159.519)">
                                    <path d="M0,-1.564L-10.916,-5.298C-12.209,-5.741 -13.069,-4.823 -13.069,-3.219C-13.069,-1.615 -12.282,-0.427 -10.916,0.018L0,3.753C1.292,4.177 1.559,2.558 1.559,1.622C1.559,0.687 0.953,-1.238 0,-1.564Z" style="fill:none;fill-rule:nonzero;stroke:rgb(22,33,45);stroke-width:0.5px;stroke-linecap:round;"/>
                                </g>
                                <g transform="matrix(1,0,0,1,294.3,159.786)">
                                    <path d="M0,0.862L18.579,-5.298C19.873,-5.741 20.733,-4.823 20.733,-3.219C20.733,-1.615 19.946,-0.427 18.579,0.019L0,6.179C-1.292,6.603 -1.559,4.984 -1.559,4.048C-1.559,3.113 -0.953,1.188 0,0.862Z" style="fill:none;fill-rule:nonzero;stroke:rgb(22,33,45);stroke-width:0.5px;stroke-linecap:round;"/>
                                </g>
                                <g transform="matrix(1,0,0,1,309.493,187.993)">
                                    <path d="M0,16.47C0,24.38 3.38,25.382 6.579,24.222L18.903,20.066C22.931,18.365 25.441,14.97 25.441,9.148L25.441,0.653C25.441,-4.738 22.574,-8.912 18.647,-7.488L6.127,-3.261C2.449,-1.928 0,1.054 0,6.935L0,16.47Z" style="fill:none;fill-rule:nonzero;stroke:rgb(22,33,45);stroke-width:0.5px;stroke-linecap:round;"/>
                                </g>
                                <g transform="matrix(1,0,0,1,309.493,224.724)">
                                    <path d="M0,16.47C0,24.38 3.38,25.382 6.579,24.222L18.903,20.066C22.931,18.365 25.441,14.97 25.441,9.148L25.441,0.653C25.441,-4.738 22.574,-8.912 18.647,-7.488L6.127,-3.261C2.449,-1.928 0,1.054 0,6.935L0,16.47Z" style="fill:none;fill-rule:nonzero;stroke:rgb(22,33,45);stroke-width:0.5px;stroke-linecap:round;"/>
                                </g>
                                <g transform="matrix(1,0,0,1,301.508,170.357)">
                                    <path d="M0,0.401L13.465,-4.166C15.826,-4.968 20.237,-4.923 23.089,-3.854C25.94,-2.785 26.141,-1.477 24.234,-0.824L7.985,4.739C6.604,5.369 5.241,5.184 5.241,5.184" style="fill:none;fill-rule:nonzero;stroke:rgb(22,33,45);stroke-width:0.5px;stroke-linecap:round;"/>
                                </g>
                                <g transform="matrix(1,0,0,1,278.368,251.823)">
                                    <path d="M0,-89.671L41.522,-104.004L66.399,-95.232C69.362,-94.187 71.344,-91.387 71.344,-88.246L71.344,-1.985L74.314,-0.756L74.314,0.67L34.393,14.333L20.436,9.299L20.436,-66.467C20.436,-67.981 19.474,-69.328 18.042,-69.819L0,-76.008L0,-89.671" style="fill:none;fill-rule:nonzero;stroke:rgb(22,33,45);stroke-width:1px;stroke-linecap:round;"/>
                                </g>
                                <g transform="matrix(1,0,0,1,323.149,256.264)">
                                    <path d="M0,-5.057L-2.28,-3.872L-2.28,-1.24L-0.854,0.661L5.176,1.136L9.542,-0.379L9.542,-3.201L8.978,-3.872C8.131,-4.723 5.191,-6.193 0,-5.057Z" style="fill:white;fill-rule:nonzero;stroke:rgb(22,33,45);stroke-width:1px;stroke-linecap:round;"/>
                                </g>
                                <g transform="matrix(0,-1,-1,0,326.683,249.4)">
                                    <ellipse cx="-2.992" cy="0" rx="0.944" ry="2.992" style="fill:none;stroke:rgb(22,33,45);stroke-width:0.5px;stroke-linecap:round;"/>
                                </g>
                                <g transform="matrix(1,0,0,1,328.325,254.192)">
                                    <path d="M0,3.208L0,0.594L-6.03,0L-6.03,2.733" style="fill:none;fill-rule:nonzero;stroke:rgb(22,33,45);stroke-width:0.5px;stroke-linecap:round;"/>
                                </g>
                                <g transform="matrix(0.930186,-0.367089,-0.367089,-0.930186,328.794,255.528)">
                                    <path d="M-0.164,0.861L4.53,0.861" style="fill:none;fill-rule:nonzero;stroke:rgb(22,33,45);stroke-width:0.5px;stroke-linecap:round;"/>
                                </g>
                                <g transform="matrix(-0.650942,-0.759128,-0.759128,0.650942,321.749,252.278)">
                                    <path d="M-1.808,0.832L0.382,0.832" style="fill:none;fill-rule:nonzero;stroke:rgb(22,33,45);stroke-width:0.5px;stroke-linecap:round;"/>
                                </g>
                                <g transform="matrix(1,0,0,1,323.149,253.317)">
                                    <path d="M0,-5.057L-2.28,-3.872L-2.28,-1.24L-0.854,0.661L5.176,1.136L9.542,-0.379L9.542,-3.201L8.978,-3.872C8.131,-4.723 5.191,-6.193 0,-5.057Z" style="fill:white;fill-rule:nonzero;stroke:rgb(22,33,45);stroke-width:1px;stroke-linecap:round;"/>
                                </g>
                                <g transform="matrix(0,-1,-1,0,326.683,246.453)">
                                    <ellipse cx="-2.992" cy="0" rx="0.944" ry="2.992" style="fill:none;stroke:rgb(22,33,45);stroke-width:0.5px;stroke-linecap:round;"/>
                                </g>
                                <g transform="matrix(1,0,0,1,328.325,251.245)">
                                    <path d="M0,3.208L0,0.594L-6.03,0L-6.03,2.733" style="fill:none;fill-rule:nonzero;stroke:rgb(22,33,45);stroke-width:0.5px;stroke-linecap:round;"/>
                                </g>
                                <g transform="matrix(0.930186,-0.367089,-0.367089,-0.930186,328.794,252.58)">
                                    <path d="M-0.164,0.861L4.53,0.861" style="fill:none;fill-rule:nonzero;stroke:rgb(22,33,45);stroke-width:0.5px;stroke-linecap:round;"/>
                                </g>
                                <g transform="matrix(-0.650942,-0.759128,-0.759128,0.650942,321.749,249.331)">
                                    <path d="M-1.808,0.832L0.382,0.832" style="fill:none;fill-rule:nonzero;stroke:rgb(22,33,45);stroke-width:0.5px;stroke-linecap:round;"/>
                                </g>
                                <g transform="matrix(1,0,0,1,337.569,256.55)">
                                    <path d="M0,-5.786C-0.887,-6.616 -2.665,-6.806 -4.878,-7.105L-4.878,-5.263L-8.35,-3.939L-15.764,-4.183L-15.764,-2.815C-15.246,-1.261 -11.798,-0.059 -7.611,-0.059C-4.408,-0.059 -2.077,-0.475 -0.718,-1.502L32.993,1.319L35.013,-1.148L35.013,-2.515L0,-5.786Z" style="fill:rgb(255,214,0);fill-rule:nonzero;stroke:rgb(22,33,45);stroke-width:1px;stroke-linecap:round;"/>
                                </g>
                                <g transform="matrix(-0.087001,0.996208,0.996208,0.087001,351.462,229.322)">
                                    <path d="M25.538,-27.539C27.041,-26.889 27.94,-23.348 27.575,-19.177C27.297,-15.986 26.679,-13.7 25.538,-12.436L25.448,21.011L22.782,23.191" style="fill:none;fill-rule:nonzero;stroke:rgb(22,33,45);stroke-width:0.5px;stroke-linecap:round;"/>
                                </g>
                            </g>
                        </g>
                    </g>
                    <g>
                        <g>
                            <g transform="matrix(0,-1,-1,0,324.653,139.543)">
                                <ellipse cx="-70.867" cy="0" rx="70.866" ry="70.867" style="fill:none;stroke:rgb(0,108,250);stroke-width:3px;stroke-linejoin:miter;"/>
                            </g>
                            <g transform="matrix(1,0,0,1,361.267,266.332)">
                                <path d="M0,-16.894C-3.993,-12.773 -9.935,-8.86 -17.041,-6.026C-32.148,0 -46.793,-1.13 -49.753,-8.549" style="fill:none;fill-rule:nonzero;stroke:rgb(0,108,250);stroke-width:10px;stroke-linecap:round;stroke-linejoin:miter;"/>
                            </g>
                        </g>
                    </g>
                    <g transform="matrix(1,0,0,1,351.608,253.511)">
                        <path d="M0,-9.299L19.318,-14.253L13.952,4.954L0,-9.299Z" style="fill:rgb(0,108,250);fill-rule:nonzero;"/>
                    </g>
                </g>
            </g>
        </g>
    </g>
</svg>
