<svg width="3083" height="557" viewBox="0 0 3083 557" fill="none" xmlns="http://www.w3.org/2000/svg">
<path d="M699.921 341.352C705.253 347.507 712.22 350.38 729.861 350.38C748.73 350.38 755.708 347.507 760.633 341.352C768.829 331.918 772.932 305.259 772.932 275.31C772.932 244.952 768.829 222.395 760.633 212.546C755.708 206.391 748.731 203.934 730.684 203.934C712.22 203.934 705.253 206.391 699.921 212.546C691.714 222.395 687.205 244.952 687.205 275.31C687.205 305.259 691.714 331.918 699.921 341.352ZM801.237 369.251C786.062 384.831 764.32 391.4 729.861 391.4C695.402 391.4 674.896 384.831 660.129 369.251C644.133 352.016 632.646 316.744 632.646 275.715C632.646 234.288 643.718 201.88 660.129 185.063C674.896 169.067 697.047 163.735 730.684 163.735C765.549 163.735 786.062 169.474 801.237 185.063C816.826 202.296 827.49 234.288 827.49 275.715C827.49 316.744 816.826 352.016 801.237 369.251Z" fill="black"/>
<path d="M906.336 343.811C906.336 345.863 907.159 347.507 909.616 347.914C917 349.558 926.028 349.558 933.412 349.558C970.33 349.558 983.044 336.021 983.044 274.902C983.044 216.242 972.38 203.526 932.59 203.526C922.332 203.526 915.771 204.349 909.616 205.578C906.743 205.985 906.336 208.442 906.336 210.494V343.811ZM1038.83 274.487C1038.83 352.017 1012.98 387.298 937.099 387.298C928.08 387.298 914.542 386.477 909.616 386.477C907.159 386.477 906.336 387.298 906.336 389.757V457.03C906.336 459.489 904.692 461.133 902.234 461.133H856.704C854.236 461.133 852.602 459.489 852.602 457.03V176.858C852.602 175.221 853.423 173.577 857.111 172.347C872.7 167.015 907.159 163.735 932.996 163.735C1017.91 163.735 1038.83 194.498 1038.83 274.487Z" fill="black"/>
<path d="M1117.21 260.543H1193.1C1196.38 260.543 1197.61 259.719 1197.61 248.65C1197.61 217.471 1189.82 201.059 1158.64 201.059C1122.14 201.059 1114.75 225.676 1114.75 257.668C1114.75 259.314 1115.57 260.543 1117.21 260.543ZM1166.85 391.4C1086.86 391.4 1061.43 347.507 1061.43 278.183C1061.43 204.755 1092.6 163.735 1159.46 163.735C1225.1 163.735 1244.78 199.423 1244.78 258.896C1244.78 286.795 1243.55 293.771 1233.71 293.771H1118.04C1115.98 293.771 1115.57 294.586 1115.57 296.23C1115.57 340.123 1136.49 351.195 1174.65 351.195C1195.56 351.195 1219.76 345.863 1232.48 341.76C1234.54 341.76 1236.17 342.175 1236.99 343.811L1239.87 375.812C1239.87 377.447 1239.04 378.686 1236.99 379.499C1221 386.882 1195.56 391.4 1166.85 391.4Z" fill="black"/>
<path d="M1401.49 387.298C1399.02 387.298 1397.38 385.654 1397.38 383.195V244.546C1397.38 213.368 1390.41 205.162 1357.6 205.162C1345.29 205.162 1335.44 205.985 1328.48 207.629C1325.6 208.442 1324.37 209.266 1324.37 211.731V383.195C1324.37 385.654 1322.73 387.298 1320.26 387.298H1274.74C1272.27 387.298 1270.64 385.654 1270.64 383.195V176.45C1270.64 173.991 1272.27 172.755 1274.74 172.347C1296.89 168.659 1333.81 163.735 1359.64 163.735C1431.84 163.735 1451.13 182.19 1451.13 242.079V383.195C1451.13 385.654 1449.48 387.298 1447.02 387.298H1401.49Z" fill="black"/>
<path d="M1553.65 391.4C1520.84 391.4 1504.01 376.218 1504.01 346.278V211.731C1504.01 210.087 1503.2 209.266 1501.56 209.266H1473.25C1470.8 209.266 1469.14 207.628 1469.14 205.162V171.94C1469.14 169.474 1470.8 167.838 1473.25 167.838H1501.56C1503.2 167.838 1504.01 167.015 1504.01 165.371V114.102C1504.01 111.635 1505.66 109.999 1508.12 109.999H1553.65C1556.12 109.999 1557.76 111.635 1557.76 114.102V165.371C1557.76 167.015 1558.57 167.838 1560.21 167.838H1594.68C1597.13 167.838 1598.78 169.474 1598.78 171.94V205.162C1598.78 207.628 1597.13 209.266 1594.68 209.266H1560.21C1558.57 209.266 1557.76 210.087 1557.76 211.731V333.563C1557.76 347.092 1562.26 350.787 1575.38 350.787H1588.12C1590.16 350.787 1592.21 351.61 1592.21 354.89L1590.98 382.374C1590.98 384.831 1588.93 387.298 1586.88 387.706C1577.85 389.756 1565.14 391.4 1553.65 391.4Z" fill="black"/>
<path d="M1704.48 205.985C1697.92 205.985 1687.25 206.808 1680.69 209.266C1678.22 210.494 1677.81 211.732 1677.81 213.784V383.196C1677.81 386.069 1676.17 387.706 1673.3 387.298H1628.18C1625.72 387.298 1624.08 385.654 1624.08 383.196V176.451C1624.08 173.992 1625.72 172.756 1628.18 172.348C1648.69 167.839 1679.05 163.736 1705.3 163.736C1718.84 163.736 1727.45 164.142 1738.53 165.372C1740.58 165.786 1740.98 166.609 1740.98 168.66L1738.93 206.392C1738.93 207.629 1738.12 208.858 1736.06 208.442C1726.22 206.808 1715.96 205.985 1704.48 205.985Z" fill="black"/>
<path d="M1815.33 341.352C1820.66 347.507 1827.64 350.38 1845.28 350.38C1864.14 350.38 1871.12 347.507 1876.05 341.352C1884.25 331.918 1888.34 305.259 1888.34 275.31C1888.34 244.952 1884.25 222.395 1876.05 212.546C1871.12 206.391 1864.14 203.934 1846.1 203.934C1827.64 203.934 1820.66 206.391 1815.33 212.546C1807.13 222.395 1802.62 244.952 1802.62 275.31C1802.62 305.259 1807.13 331.918 1815.33 341.352ZM1916.65 369.251C1901.48 384.831 1879.73 391.4 1845.28 391.4C1810.82 391.4 1790.32 384.831 1775.54 369.251C1759.54 352.016 1748.06 316.744 1748.06 275.715C1748.06 234.288 1759.13 201.88 1775.54 185.063C1790.32 169.067 1812.46 163.735 1846.1 163.735C1880.97 163.735 1901.48 169.474 1916.65 185.063C1932.24 202.296 1942.9 234.288 1942.9 275.715C1942.9 316.744 1932.24 352.016 1916.65 369.251Z" fill="black"/>
<path d="M2098.35 387.297C2095.9 387.297 2094.25 385.653 2094.25 383.195V244.544C2094.25 213.366 2087.29 205.16 2054.47 205.16C2042.16 205.16 2032.31 205.982 2025.34 207.627C2022.48 208.44 2021.23 209.264 2021.23 211.73V383.195C2021.23 385.653 2019.6 387.297 2017.14 387.297H1971.61C1969.13 387.297 1967.5 385.653 1967.5 383.195V176.449C1967.5 173.99 1969.13 172.753 1971.61 172.345C1993.75 168.657 2030.68 163.733 2056.52 163.733C2128.71 163.733 2147.99 182.188 2147.99 242.077V383.195C2147.99 385.653 2146.36 387.297 2143.9 387.297H2098.35Z" fill="black"/>
<path d="M2175.43 383.603L2177.5 347.914C2177.5 346.685 2179.14 345.864 2180.77 346.278C2194.32 349.144 2213.99 350.787 2227.55 350.787C2256.67 350.787 2261.19 347.914 2261.19 327.409C2261.19 315.101 2254.2 308.945 2221.8 286.796C2188.58 264.647 2177.09 253.159 2177.09 225.676C2177.09 179.324 2201.69 163.735 2255.03 163.735C2274.71 163.735 2297.28 165.786 2309.99 168.244C2311.22 168.66 2312.04 169.067 2312.04 171.117L2309.58 207.629C2309.58 208.442 2308.36 209.681 2306.7 209.266C2294.42 207.213 2276.78 205.162 2264.87 205.162C2239.02 205.162 2230.41 206.808 2230.41 224.448C2230.41 238.799 2237.39 243.318 2269.78 263.417C2305.89 286.389 2315.73 301.563 2315.73 326.993C2315.73 379.499 2287.01 391.4 2236.15 391.4C2213.6 391.4 2191.04 389.35 2177.91 386.883C2176.68 386.477 2175.43 385.654 2175.43 383.603Z" fill="black"/>
<path d="M2400.08 370L2427.38 182.02H2542.3L2538.66 205.94H2451.56L2443.37 264.05H2520.59L2517.08 287.71H2439.86L2427.9 370H2400.08ZM2551.53 370L2578.96 182.02H2606.65L2582.99 345.56H2665.28L2661.64 370H2551.53ZM2697.02 370L2724.45 182.02H2840.67L2836.9 206.2H2748.24L2740.05 263.27H2818.96L2815.45 287.06H2736.41L2727.96 345.43L2818.96 345.56L2815.19 370H2697.02ZM2846.63 370L2920.86 274.19L2876.27 182.02H2910.33L2941.79 250.4L2993.01 182.02H3022.65L2953.36 271.07L3001.46 370H2967.27L2932.56 295.64L2876.79 370H2846.63Z" fill="black"/>
<path d="M328.906 254.952C319.176 254.094 309.383 259.873 301.964 266.696C273.509 292.863 240.61 323.539 199 321.298C198.953 339.139 204.593 356.624 217.32 371.414C232.168 388.677 252.424 397.846 273.366 399.361C275.028 399.578 276.901 399.748 279.17 399.822C324.516 401.316 362.48 365.619 363.968 320.096C364.617 300.157 355.531 262.288 332.963 255.709C331.618 255.317 330.267 255.069 328.911 254.952H328.906Z" fill="url(#paint0_linear_337_1968)"/>
<path d="M329.219 0L318.475 68.3589C417.072 86.249 492.097 172.675 492.097 276.35C492.097 392.947 397.242 487.804 280.647 487.804C164.053 487.804 69.1969 392.947 69.1969 276.35C69.1969 172.675 144.222 86.249 242.819 68.3589L232.075 0C100.406 23.0828 0 138.174 0 276.35C0 431.104 125.899 557 280.647 557C435.396 557 561.293 431.104 561.293 276.35C561.293 138.174 460.888 23.0828 329.219 0Z" fill="black"/>
<path fill-rule="evenodd" clip-rule="evenodd" d="M280.654 116.965C280.668 116.98 324.123 177.707 362.39 235.886C395.398 286.068 405.009 348.049 364.296 392.19C341.797 416.584 311.415 428.483 281.086 428.544C281.067 428.545 281.048 428.549 281.03 428.553C281.01 428.558 280.991 428.563 280.97 428.563V428.58C280.939 428.58 280.909 428.578 280.878 428.575C280.848 428.573 280.818 428.571 280.787 428.571C280.767 428.571 280.746 428.572 280.726 428.573C280.716 428.574 280.705 428.574 280.695 428.575V428.58C280.68 428.58 280.665 428.579 280.649 428.577L280.648 428.577C280.634 428.579 280.618 428.58 280.602 428.58V428.575C280.592 428.574 280.583 428.574 280.573 428.573C280.553 428.572 280.532 428.571 280.511 428.571C280.48 428.571 280.45 428.573 280.42 428.575C280.389 428.578 280.359 428.58 280.328 428.58V428.563C280.308 428.563 280.288 428.558 280.267 428.553C280.249 428.549 280.23 428.545 280.211 428.544C249.883 428.483 219.501 416.584 197.001 392.19C156.29 348.049 165.9 286.068 198.908 235.886C237.175 177.707 280.63 116.98 280.644 116.965L280.648 116.981L280.654 116.965ZM302.396 266.739C309.819 259.937 319.619 254.176 329.354 255.032C330.708 255.151 332.063 255.399 333.409 255.789C355.993 262.344 365.083 300.085 364.432 319.959C362.944 365.328 324.958 400.903 279.588 399.416C277.317 399.341 275.444 399.173 273.78 398.956C252.828 397.449 232.558 388.309 217.703 371.105C204.973 356.361 199.327 338.938 199.375 321.156C240.587 323.366 273.261 293.431 301.536 267.527C301.823 267.264 302.109 267.001 302.396 266.739Z" fill="black"/>
<path d="M3053.3 197.901V177.606H3063.58C3064.41 177.606 3065.31 177.844 3066.28 178.321C3067.25 178.779 3068.08 179.494 3068.75 180.466C3069.45 181.419 3069.8 182.629 3069.8 184.096C3069.8 185.581 3069.44 186.846 3068.73 187.891C3068.01 188.918 3067.14 189.697 3066.11 190.228C3065.11 190.76 3064.15 191.026 3063.25 191.026H3055.83V187.726H3061.88C3062.48 187.726 3063.14 187.423 3063.83 186.818C3064.55 186.213 3064.9 185.306 3064.9 184.096C3064.9 182.849 3064.55 182.006 3063.83 181.566C3063.14 181.126 3062.52 180.906 3061.99 180.906H3057.75V197.901H3053.3ZM3065.57 188.331L3070.62 197.901H3065.73L3060.78 188.331H3065.57ZM3061 210.001C3057.96 210.001 3055.11 209.433 3052.45 208.296C3049.79 207.159 3047.45 205.583 3045.43 203.566C3043.42 201.549 3041.84 199.212 3040.7 196.554C3039.57 193.895 3039 191.044 3039 188.001C3039 184.958 3039.57 182.107 3040.7 179.448C3041.84 176.79 3043.42 174.453 3045.43 172.436C3047.45 170.419 3049.79 168.843 3052.45 167.706C3055.11 166.569 3057.96 166.001 3061 166.001C3064.04 166.001 3066.89 166.569 3069.55 167.706C3072.21 168.843 3074.55 170.419 3076.57 172.436C3078.58 174.453 3080.16 176.79 3081.29 179.448C3082.43 182.107 3083 184.958 3083 188.001C3083 191.044 3082.43 193.895 3081.29 196.554C3080.16 199.212 3078.58 201.549 3076.57 203.566C3074.55 205.583 3072.21 207.159 3069.55 208.296C3066.89 209.433 3064.04 210.001 3061 210.001ZM3061 204.721C3064.08 204.721 3066.89 203.969 3069.41 202.466C3071.94 200.962 3073.96 198.946 3075.47 196.416C3076.97 193.886 3077.72 191.081 3077.72 188.001C3077.72 184.921 3076.97 182.116 3075.47 179.586C3073.96 177.056 3071.94 175.039 3069.41 173.536C3066.89 172.033 3064.08 171.281 3061 171.281C3057.92 171.281 3055.11 172.033 3052.58 173.536C3050.05 175.039 3048.04 177.056 3046.53 179.586C3045.03 182.116 3044.28 184.921 3044.28 188.001C3044.28 191.081 3045.03 193.886 3046.53 196.416C3048.04 198.946 3050.05 200.962 3052.58 202.466C3055.11 203.969 3057.92 204.721 3061 204.721Z" fill="#16212D"/>
<defs>
<linearGradient id="paint0_linear_337_1968" x1="198.897" y1="323.924" x2="407.063" y2="330.731" gradientUnits="userSpaceOnUse">
<stop stop-color="#006FFF"/>
<stop offset="0.16" stop-color="#037FFA"/>
<stop offset="0.48" stop-color="#0BABEF"/>
<stop offset="0.92" stop-color="#19F1DD"/>
<stop offset="1" stop-color="#1CFFDA"/>
</linearGradient>
</defs>
</svg>
