<?xml version="1.0" encoding="UTF-8" standalone="no"?>
<!DOCTYPE svg PUBLIC "-//W3C//DTD SVG 1.1//EN" "http://www.w3.org/Graphics/SVG/1.1/DTD/svg11.dtd">
<svg width="100%" height="100%" viewBox="0 0 228 211" version="1.1" xmlns="http://www.w3.org/2000/svg" xmlns:xlink="http://www.w3.org/1999/xlink" xml:space="preserve" xmlns:serif="http://www.serif.com/" style="fill-rule:evenodd;clip-rule:evenodd;stroke-linecap:round;stroke-linejoin:round;stroke-miterlimit:10;">
    <g transform="matrix(1,0,0,1,-27.8176,-52.2509)">
        <g transform="matrix(1,0,0,1,86.2965,161.096)">
            <path d="M0,100.079L122.139,29.562C123.438,28.734 123.43,27.264 122.139,26.519L117.704,23.958C116.889,23.543 116.198,23.321 115.018,23.321L109.626,23.321C108.446,23.321 107.844,23.142 107.066,22.697L82.761,8.665C81.979,8.213 81.624,7.65 81.624,6.899L81.624,3.94C81.624,3.249 81.156,2.826 80.664,2.562L76.13,-0.055C74.512,-0.989 72.518,-0.989 70.9,-0.055L-51.617,70.68C-52.931,71.506 -52.889,72.933 -51.617,73.667L-45.76,77.049C-44.978,77.499 -44.064,77.789 -42.995,77.789L-40.589,77.789C-39.876,77.789 -38.944,77.967 -38.25,78.368L-13.954,92.395C-13.143,92.863 -12.698,93.338 -12.698,94.229L-12.698,95.321C-12.698,95.922 -12.199,96.393 -11.572,96.755L-5.814,100.079C-4.121,101.068 -1.712,101.067 0,100.079Z" style="fill:none;fill-rule:nonzero;stroke:rgb(22,33,45);stroke-width:1px;"/>
        </g>
        <g transform="matrix(1,0,0,1,209.121,206.056)">
            <path d="M0,-16.05C-0.161,-16.28 -0.389,-16.489 -0.685,-16.66L-5.12,-19.221C-5.935,-19.636 -6.626,-19.858 -7.807,-19.858L-13.198,-19.858C-14.378,-19.858 -14.98,-20.036 -15.759,-20.482L-40.063,-34.514C-40.845,-34.966 -41.2,-35.529 -41.2,-36.28L-41.2,-39.239C-41.2,-39.93 -41.668,-40.353 -42.161,-40.616L-46.694,-43.234C-48.313,-44.168 -50.306,-44.168 -51.924,-43.234L-174.441,27.501C-174.729,27.682 -174.952,27.892 -175.111,28.118" style="fill:none;fill-rule:nonzero;stroke:rgb(22,33,45);stroke-width:1px;"/>
        </g>
        <g transform="matrix(0,-1,-1,0,183.672,173.48)">
            <ellipse cx="-1.827" cy="0" rx="0.925" ry="1.827" style="fill:none;stroke:rgb(22,33,45);stroke-width:1px;"/>
        </g>
        <g transform="matrix(0,-1,-1,0,57.981,246.009)">
            <ellipse cx="-1.827" cy="0" rx="0.925" ry="1.827" style="fill:none;stroke:rgb(22,33,45);stroke-width:1px;"/>
        </g>
        <g transform="matrix(1,0,0,1,254.245,185.389)">
            <path d="M0,-82.139C-0.804,-82.649 -42.165,-106.522 -52.074,-112.241C-53.387,-112.999 -54.991,-112.999 -56.303,-112.24C-69.309,-104.71 -137.986,-64.951 -138.631,-64.547C-139.344,-64.102 -139.433,-63.567 -139.433,-63.241L-139.433,-55.546L-225.927,-4.883L-225.927,-1.087C-225.927,-0.415 -225.63,-0.206 -225.017,0.168L-172.764,30.259C-171.95,30.727 -171.362,30.86 -170.588,30.86C-169.814,30.86 -169.007,30.606 -168.451,30.271L-42.193,-42.664C-41.536,-43.026 -41.283,-43.312 -41.283,-43.91L-41.283,-44.936L-0.152,-68.829C0.505,-69.191 0.757,-69.478 0.757,-70.076L0.757,-80.758C0.757,-81.137 0.913,-81.56 0,-82.139" style="fill:white;fill-rule:nonzero;"/>
        </g>
        <g transform="matrix(0,1,1,0,90.7663,166.863)">
            <ellipse cx="1.158" cy="0" rx="0.664" ry="1.158" style="fill:none;stroke:rgb(22,33,45);stroke-width:0.5px;"/>
        </g>
        <g transform="matrix(0,1,1,0,105.656,175.499)">
            <ellipse cx="1.158" cy="0" rx="0.664" ry="1.158" style="fill:none;stroke:rgb(22,33,45);stroke-width:0.5px;"/>
        </g>
        <g transform="matrix(0,1,1,0,101.744,168.657)">
            <path d="M-1.503,-1.503L1.503,-1.503" style="fill:none;fill-rule:nonzero;stroke:rgb(22,33,45);stroke-width:0.5px;"/>
        </g>
        <g transform="matrix(0,1,1,0,97.58,168.891)">
            <path d="M-1.534,-1.534L1.534,-1.534" style="fill:none;fill-rule:nonzero;stroke:rgb(22,33,45);stroke-width:0.5px;"/>
        </g>
        <g transform="matrix(0.432647,-0.901563,-0.901563,-0.432647,59.0129,197.741)">
            <path d="M-1.163,0.156C-1.216,0.243 -1.267,0.335 -1.314,0.433C-1.737,1.315 -1.67,2.228 -1.163,2.472C-0.657,2.715 0.098,2.196 0.522,1.314C0.791,0.752 0.862,0.178 0.748,-0.227" style="fill:none;fill-rule:nonzero;stroke:rgb(22,33,45);stroke-width:0.5px;"/>
        </g>
        <g transform="matrix(1,0,0,1,56.6183,197.897)">
            <path d="M0,0.421C0.322,0.166 0.846,0 1.437,0C1.573,0 1.706,0.009 1.833,0.026" style="fill:none;fill-rule:nonzero;stroke:rgb(22,33,45);stroke-width:0.5px;"/>
        </g>
        <g transform="matrix(0,1,1,0,177.737,107.765)">
            <ellipse cx="1.158" cy="0" rx="0.664" ry="1.158" style="fill:none;stroke:rgb(22,33,45);stroke-width:0.5px;"/>
        </g>
        <g transform="matrix(0,1,1,0,192.627,116.401)">
            <ellipse cx="1.158" cy="0" rx="0.664" ry="1.158" style="fill:none;stroke:rgb(22,33,45);stroke-width:0.5px;"/>
        </g>
        <g transform="matrix(0,1,1,0,188.715,109.559)">
            <path d="M-1.503,-1.503L1.503,-1.503" style="fill:none;fill-rule:nonzero;stroke:rgb(22,33,45);stroke-width:0.5px;"/>
        </g>
        <g transform="matrix(0,1,1,0,184.551,109.792)">
            <path d="M-1.534,-1.534L1.534,-1.534" style="fill:none;fill-rule:nonzero;stroke:rgb(22,33,45);stroke-width:0.5px;"/>
        </g>
        <g transform="matrix(1,0,0,1,117.519,173.378)">
            <path d="M0,-2.396L-17.396,-12.471C-18.409,-13.073 -20.283,-12.99 -21.24,-12.472L-38.63,-2.406C-39.077,-2.147 -39.395,-1.847 -39.395,-1.207C-39.395,-0.567 -38.991,-0.23 -38.63,-0.023L-21.24,10.048C-20.155,10.677 -18.591,10.652 -17.396,10.037L0,-0.015C0.309,-0.214 0.831,-0.553 0.831,-1.192C0.831,-1.831 0.462,-2.129 0,-2.396Z" style="fill:none;fill-rule:nonzero;stroke:rgb(22,33,45);stroke-width:1px;"/>
        </g>
        <g transform="matrix(1,0,0,1,107.011,166.552)">
            <path d="M0,4.549L-6.769,0.602C-7.782,0 -9.656,0.083 -10.614,0.602L-17.402,4.539" style="fill:none;fill-rule:nonzero;stroke:rgb(22,33,45);stroke-width:1px;"/>
        </g>
        <g transform="matrix(1,0,0,1,89.6083,178.052)">
            <path d="M0,-6.961C-0.447,-6.702 -0.765,-6.403 -0.765,-5.763C-0.765,-5.122 -0.361,-4.786 0,-4.578L6.789,-0.628C7.874,0 9.438,-0.025 10.634,-0.64L17.402,-4.571C17.711,-4.769 18.234,-5.108 18.234,-5.747C18.234,-6.386 17.864,-6.684 17.402,-6.951" style="fill:none;fill-rule:nonzero;stroke:rgb(22,33,45);stroke-width:1px;"/>
        </g>
        <g transform="matrix(1,0,0,1,106.44,169.598)">
            <path d="M0,4.215L-6.198,0.601C-7.211,0 -9.085,0.082 -10.042,0.601L-16.261,4.207" style="fill:none;fill-rule:nonzero;stroke:rgb(22,33,45);stroke-width:1px;"/>
        </g>
        <g transform="matrix(1,0,0,1,51.9173,200.974)">
            <path d="M0,-6.147L0,-3.693C0,-3.693 5.155,-0.749 6.452,0L6.452,-2.798" style="fill:none;fill-rule:nonzero;stroke:rgb(22,33,45);stroke-width:1px;"/>
        </g>
        <g transform="matrix(0.0350768,-0.999385,-0.999385,-0.0350768,56.2258,192.331)">
            <path d="M-4.002,-4.562C-3.582,-3.935 -3.332,-2.989 -3.369,-1.939C-3.4,-1.034 -3.639,-0.22 -4.002,0.37L-5.014,2.021C-5.398,2.663 -5.332,3.675 -5.09,4.132" style="fill:none;fill-rule:nonzero;stroke:rgb(22,33,45);stroke-width:1px;"/>
        </g>
        <g transform="matrix(1,0,0,1,28.3176,108.133)">
            <path d="M0,72.373L0,76.169C0,76.841 0.297,77.05 0.91,77.424L53.163,107.515C53.977,107.983 54.565,108.116 55.339,108.116C56.113,108.116 56.92,107.863 57.476,107.527L183.734,34.592C184.391,34.23 184.644,33.944 184.644,33.346L184.644,32.32L225.775,8.427C226.432,8.065 226.685,7.778 226.685,7.18L226.685,-3.502C226.685,-3.88 226.84,-4.304 225.927,-4.883C225.123,-5.393 183.762,-29.266 173.853,-34.985C172.54,-35.743 170.936,-35.743 169.624,-34.984C156.618,-27.454 87.941,12.305 87.296,12.709C86.583,13.154 86.494,13.689 86.494,14.016L86.494,21.71C86.494,23.313 87.19,23.796 87.695,24.093C87.695,24.093 138.623,53.372 139.246,53.728C139.87,54.085 141.74,55.038 143.557,53.988L57.476,103.731C56.92,104.067 56.113,104.32 55.339,104.32C54.565,104.32 53.977,104.187 53.163,103.719L30.524,90.682C30.212,90.515 30.052,90.33 30.052,90.044C30.052,89.757 30.351,89.557 30.524,89.453L32.169,88.465C32.726,88.116 33.067,87.649 33.067,87.135C33.067,86.059 31.572,85.187 29.728,85.187C28.822,85.187 28,85.397 27.398,85.739L25.713,86.691C25.057,87.053 24.048,86.952 23.6,86.694L0.91,73.628C0.297,73.255 0,73.045 0,72.373C0,71.701 0.91,71.166 0.91,71.166L86.494,21.71" style="fill:none;fill-rule:nonzero;stroke:rgb(22,33,45);stroke-width:1px;"/>
        </g>
        <g transform="matrix(1,0,0,1,114.812,135.925)">
            <path d="M0,-13.776C0,-13.248 0.832,-12.87 1.258,-12.599L52.885,17.131C53.698,17.6 54.287,17.733 55.061,17.733C55.834,17.733 56.642,17.479 57.197,17.144L138.628,-29.913C139.054,-30.172 140.201,-30.766 140.201,-31.509" style="fill:none;fill-rule:nonzero;stroke:rgb(22,33,45);stroke-width:1px;"/>
        </g>
        <g transform="matrix(1,0,0,1,204.49,114.28)">
            <path d="M0,-2.396L-17.396,-12.471C-18.409,-13.073 -20.283,-12.99 -21.24,-12.472L-38.63,-2.406C-39.077,-2.147 -39.395,-1.847 -39.395,-1.207C-39.395,-0.567 -38.991,-0.23 -38.63,-0.023L-21.24,10.048C-20.155,10.677 -18.591,10.652 -17.396,10.037L0,-0.015C0.309,-0.214 0.831,-0.553 0.831,-1.192C0.831,-1.831 0.462,-2.129 0,-2.396Z" style="fill:none;fill-rule:nonzero;stroke:rgb(22,33,45);stroke-width:1px;"/>
        </g>
        <g transform="matrix(1,0,0,1,193.982,107.454)">
            <path d="M0,4.549L-6.769,0.602C-7.782,0 -9.656,0.083 -10.614,0.602L-17.402,4.539" style="fill:none;fill-rule:nonzero;stroke:rgb(22,33,45);stroke-width:1px;"/>
        </g>
        <g transform="matrix(1,0,0,1,176.579,118.954)">
            <path d="M0,-6.961C-0.447,-6.702 -0.765,-6.403 -0.765,-5.763C-0.765,-5.122 -0.361,-4.786 0,-4.578L6.789,-0.628C7.874,0 9.438,-0.025 10.634,-0.64L17.402,-4.571C17.711,-4.769 18.234,-5.108 18.234,-5.747C18.234,-6.386 17.864,-6.684 17.402,-6.951" style="fill:none;fill-rule:nonzero;stroke:rgb(22,33,45);stroke-width:1px;"/>
        </g>
        <g transform="matrix(1,0,0,1,193.41,110.5)">
            <path d="M0,4.215L-6.198,0.601C-7.211,0 -9.085,0.082 -10.042,0.601L-16.261,4.207" style="fill:none;fill-rule:nonzero;stroke:rgb(22,33,45);stroke-width:1px;"/>
        </g>
        <g transform="matrix(1,0,0,1,185.419,115.191)">
            <path d="M0,3.597C0.912,3.244 1.511,2.645 1.511,1.966C1.511,0.88 -0.023,0 -1.916,0C-3.419,0 -4.696,0.555 -5.159,1.327" style="fill:none;fill-rule:nonzero;stroke:rgb(22,33,45);stroke-width:1px;"/>
        </g>
        <g transform="matrix(1,0,0,1,190.436,149.39)">
            <path d="M0,-21.168C0,-21.168 -5.134,-18.037 -9.443,-15.419L-23.63,-15.419C-27.896,-18.002 -32.983,-21.084 -32.983,-21.084L-34.06,-20.359L-34.06,-9.575L-18.85,-0.816C-17.433,0 -15.312,-0.246 -14.285,-0.84L1.112,-9.667L1.112,-20.494L0,-21.168Z" style="fill:white;fill-rule:nonzero;"/>
        </g>
        <g transform="matrix(1,0,0,1,171.587,129.038)">
            <path d="M0,19.536L-15.211,10.777L-15.211,-0.008L-14.133,-0.732C-14.133,-0.732 0.522,8.145 0.943,8.398C1.364,8.651 2.847,8.853 3.639,8.415C4.43,7.977 18.85,-0.816 18.85,-0.816L19.962,-0.142L19.962,10.685L4.565,19.512C3.537,20.106 1.417,20.352 0,19.536Z" style="fill:none;fill-rule:nonzero;stroke:rgb(22,33,45);stroke-width:1px;"/>
        </g>
        <g transform="matrix(-1,0,0,1,166.863,133.971)">
            <path d="M-14.13,0L0,0" style="fill:none;fill-rule:nonzero;stroke:rgb(22,33,45);stroke-width:1px;stroke-linecap:butt;stroke-linejoin:miter;"/>
        </g>
        <g transform="matrix(-1,0,0,1,169.312,135.497)">
            <path d="M-9.166,0L0,0" style="fill:none;fill-rule:nonzero;stroke:rgb(22,33,45);stroke-width:0.5px;"/>
        </g>
        <g transform="matrix(1,0,0,1,247.567,106.708)">
            <path d="M0,-10.515C0,-11.154 -0.369,-11.452 -0.831,-11.719L-16.298,-20.599C-16.476,-20.693 -16.898,-20.756 -17.132,-20.639C-17.367,-20.522 -18.131,-20.078 -18.131,-20.078L-18.841,-18.342L-19.582,-12.37L-19.585,-9.664C-19.585,-9.664 -24.805,-6.651 -25.158,-6.449C-25.512,-6.247 -25.672,-5.91 -25.672,-5.615L-25.672,5.181L-17.446,9.973C-17.1,10.175 -16.495,10.241 -16.033,9.973L-0.831,1.189C-0.522,0.991 0,0.652 0,0.012L0,-10.515Z" style="fill:white;fill-rule:nonzero;stroke:rgb(22,33,45);stroke-width:1px;"/>
        </g>
        <g transform="matrix(1,0,0,1,227.962,96.1926)">
            <path d="M0,19.231L0,15.061L0.674,10.568L1.281,9.509C1.281,9.509 1.801,9.878 1.966,9.961C2.131,10.044 2.733,10.328 3.379,9.961L18.581,1.177C18.89,0.978 19.412,0.639 19.412,0" style="fill:none;fill-rule:nonzero;stroke:rgb(22,33,45);stroke-width:0.5px;"/>
        </g>
        <g transform="matrix(1,0,0,1,229.243,87.1995)">
            <path d="M0,18.502L15.805,9.379C16.231,9.133 16.231,8.516 15.803,8.271L1.397,0L0.51,1.832L-0.223,7.686L-0.223,12.158L-2.16,13.32L3.349,16.569" style="fill:none;fill-rule:nonzero;stroke:rgb(22,33,45);stroke-width:0.5px;"/>
        </g>
        <g transform="matrix(1,0,0,1,236.287,102.606)">
            <path d="M0,-12.164L-0.949,-10.205L-1.681,-4.351L-1.681,0" style="fill:none;fill-rule:nonzero;stroke:rgb(22,33,45);stroke-width:0.5px;"/>
        </g>
        <g transform="matrix(1,0,0,1,237.26,102.062)">
            <path d="M0,-11.061L-0.98,-9.038L-1.713,-3.184L-1.713,0" style="fill:none;fill-rule:nonzero;stroke:rgb(22,33,45);stroke-width:0.5px;"/>
        </g>
        <g transform="matrix(1,0,0,1,240.462,100.085)">
            <path d="M0,-7.246L-0.783,-5.63L-1.488,0" style="fill:none;fill-rule:nonzero;stroke:rgb(22,33,45);stroke-width:0.5px;"/>
        </g>
        <g transform="matrix(1,0,0,1,241.435,99.4495)">
            <path d="M0,-6.052L-0.814,-4.371L-1.361,0" style="fill:none;fill-rule:nonzero;stroke:rgb(22,33,45);stroke-width:0.5px;"/>
        </g>
        <g transform="matrix(0,1,1,0,242.321,96.0611)">
            <path d="M-5.06,-5.06L5.06,-5.06" style="fill:none;fill-rule:nonzero;stroke:rgb(22,33,45);stroke-width:0.5px;"/>
        </g>
        <g transform="matrix(0,1,1,0,244.069,96.0305)">
            <path d="M-2.633,-2.633L2.633,-2.633" style="fill:none;fill-rule:nonzero;stroke:rgb(22,33,45);stroke-width:0.5px;"/>
        </g>
        <g transform="matrix(1,0,0,1,230.64,101.122)">
            <path d="M0,-13.922L0,-1.52L-2.536,0" style="fill:none;fill-rule:nonzero;stroke:rgb(22,33,45);stroke-width:0.5px;"/>
        </g>
        <g transform="matrix(0.857875,0.513859,0.513859,-0.857875,231.532,98.7519)">
            <path d="M-0.328,-1.187L4.293,-1.188" style="fill:none;fill-rule:nonzero;stroke:rgb(22,33,45);stroke-width:0.5px;"/>
        </g>
        <g transform="matrix(1,0,0,1,228.203,102.348)">
            <path d="M0,-5.441L0,-3.571L-6.309,0" style="fill:none;fill-rule:nonzero;stroke:rgb(22,33,45);stroke-width:0.5px;"/>
        </g>
        <g transform="matrix(1,0,0,1,122.848,119.712)">
            <path d="M0,-10.515L0,0.012C0,0.652 0.522,0.991 0.831,1.189L16.033,9.973C16.495,10.241 17.1,10.175 17.446,9.973L25.672,5.181L25.672,-5.615C25.672,-5.91 25.512,-6.247 25.158,-6.449C24.804,-6.651 19.585,-9.664 19.585,-9.664L19.582,-12.37L18.841,-18.342L18.131,-20.078C18.131,-20.078 17.367,-20.522 17.132,-20.639C16.898,-20.756 16.476,-20.693 16.298,-20.599L0.831,-11.719C0.369,-11.452 0,-11.154 0,-10.515Z" style="fill:rgb(0,108,250);fill-rule:nonzero;stroke:rgb(22,33,45);stroke-width:1px;"/>
        </g>
        <g transform="matrix(1,0,0,1,123.041,128.428)">
            <path d="M0,-19.231C0,-18.592 0.522,-18.253 0.831,-18.055L16.033,-9.27C16.679,-8.903 17.281,-9.187 17.446,-9.27C17.611,-9.353 18.131,-9.722 18.131,-9.722L18.738,-8.663L19.412,-4.171L19.412,0" style="fill:none;fill-rule:nonzero;stroke:rgb(22,33,45);stroke-width:0.5px;"/>
        </g>
        <g transform="matrix(1,0,0,1,141.172,100.204)">
            <path d="M0,18.502L-15.805,9.379C-16.231,9.133 -16.231,8.516 -15.803,8.271L-1.397,0L-0.51,1.832L0.223,7.686L0.223,12.158L2.16,13.32L-3.349,16.569" style="fill:none;fill-rule:nonzero;stroke:rgb(22,33,45);stroke-width:0.5px;"/>
        </g>
        <g transform="matrix(1,0,0,1,134.128,115.61)">
            <path d="M0,-12.164L0.949,-10.205L1.681,-4.351L1.681,0" style="fill:none;fill-rule:nonzero;stroke:rgb(22,33,45);stroke-width:0.5px;"/>
        </g>
        <g transform="matrix(1,0,0,1,133.154,115.066)">
            <path d="M0,-11.061L0.98,-9.038L1.713,-3.184L1.713,0" style="fill:none;fill-rule:nonzero;stroke:rgb(22,33,45);stroke-width:0.5px;"/>
        </g>
        <g transform="matrix(1,0,0,1,129.953,113.089)">
            <path d="M0,-7.246L0.783,-5.63L1.487,0" style="fill:none;fill-rule:nonzero;stroke:rgb(22,33,45);stroke-width:0.5px;"/>
        </g>
        <g transform="matrix(1,0,0,1,128.979,112.454)">
            <path d="M0,-6.052L0.814,-4.371L1.361,0" style="fill:none;fill-rule:nonzero;stroke:rgb(22,33,45);stroke-width:0.5px;"/>
        </g>
        <g transform="matrix(0,1,1,0,138.215,109.066)">
            <path d="M-5.06,-5.06L5.06,-5.06" style="fill:none;fill-rule:nonzero;stroke:rgb(22,33,45);stroke-width:0.5px;"/>
        </g>
        <g transform="matrix(0,1,1,0,131.612,109.035)">
            <path d="M-2.633,-2.633L2.633,-2.633" style="fill:none;fill-rule:nonzero;stroke:rgb(22,33,45);stroke-width:0.5px;"/>
        </g>
        <g transform="matrix(1,0,0,1,139.775,114.126)">
            <path d="M0,-13.922L0,-1.52L2.536,0" style="fill:none;fill-rule:nonzero;stroke:rgb(22,33,45);stroke-width:0.5px;"/>
        </g>
        <g transform="matrix(-0.857875,0.513859,0.513859,0.857875,136.702,115.831)">
            <path d="M-4.293,-1.188L0.328,-1.187" style="fill:none;fill-rule:nonzero;stroke:rgb(22,33,45);stroke-width:0.5px;"/>
        </g>
        <g transform="matrix(1,0,0,1,142.211,115.352)">
            <path d="M0,-5.441L0,-3.571L6.309,0" style="fill:none;fill-rule:nonzero;stroke:rgb(22,33,45);stroke-width:0.5px;"/>
        </g>
        <g transform="matrix(1,0,0,1,178.572,70.7542)">
            <path d="M0,16.152L0,5.876C0,5.535 0.18,5.22 0.474,5.048L15.657,-3.859C16.795,-4.527 18.204,-4.537 19.351,-3.885L34.889,4.938C35.189,5.108 35.375,5.427 35.375,5.773L35.375,16.152L27.581,20.689L7.636,20.689L0,16.152Z" style="fill:none;fill-rule:nonzero;stroke:rgb(22,33,45);stroke-width:1px;"/>
            <path d="M0,16.152L0,5.876C0,5.535 0.18,5.22 0.474,5.048L15.657,-3.859C16.795,-4.527 18.204,-4.537 19.351,-3.885L34.889,4.938C35.189,5.108 35.375,5.427 35.375,5.773L35.375,16.152L27.581,20.689L7.636,20.689L0,16.152Z" style="fill:white;fill-rule:nonzero;"/>
        </g>
        <g transform="matrix(1,0,0,1,178.572,70.7542)">
            <path d="M0,16.152L0,5.876C0,5.535 0.18,5.22 0.474,5.048L15.657,-3.859C16.795,-4.527 18.204,-4.537 19.351,-3.885L34.889,4.938C35.189,5.108 35.375,5.427 35.375,5.773L35.375,16.152L27.581,20.689L7.636,20.689L0,16.152Z" style="fill:none;fill-rule:nonzero;stroke:rgb(22,33,45);stroke-width:1px;stroke-linecap:butt;stroke-linejoin:miter;"/>
        </g>
        <g transform="matrix(1,0,0,1,211.881,89.287)">
            <path d="M0,-12.69L-0.876,-10.843L-1.729,-5.143L-1.729,-1.288L-3.931,0L-9.456,-3.282L-7.524,-4.38" style="fill:none;fill-rule:nonzero;stroke:rgb(22,33,45);stroke-width:0.5px;"/>
        </g>
        <g transform="matrix(1,0,0,1,205.03,84.9076)">
            <path d="M0,-12.039L-0.876,-10.192L-1.729,-4.492L-1.729,-0.637L-0.674,0L-0.674,-4.021L0.18,-9.721L1.056,-11.567" style="fill:none;fill-rule:nonzero;stroke:rgb(22,33,45);stroke-width:0.5px;"/>
        </g>
        <g transform="matrix(1,0,0,1,202.229,81.7334)">
            <path d="M0,-10.635L-0.725,-9.107L-1.578,-3.407L-1.578,0.564L-2.634,-0.024L-2.634,-3.879L-1.78,-9.579L-1.012,-11.199" style="fill:none;fill-rule:nonzero;stroke:rgb(22,33,45);stroke-width:0.5px;"/>
        </g>
        <g transform="matrix(1,0,0,1,206.244,87.6245)">
            <path d="M0,-14.287L0,-2.268L3.907,0" style="fill:none;fill-rule:nonzero;stroke:rgb(22,33,45);stroke-width:0.5px;"/>
        </g>
        <g transform="matrix(-0.869477,0.493974,0.493974,0.869477,204.25,87.3094)">
            <path d="M-2.698,-0.713L0.188,-0.713" style="fill:none;fill-rule:nonzero;stroke:rgb(22,33,45);stroke-width:0.5px;"/>
        </g>
        <g transform="matrix(1,0,0,1,180.661,89.287)">
            <path d="M0,-12.69L0.876,-10.843L1.729,-5.143L1.729,-1.288L3.931,0L9.456,-3.282L7.524,-4.38" style="fill:none;fill-rule:nonzero;stroke:rgb(22,33,45);stroke-width:0.5px;"/>
        </g>
        <g transform="matrix(1,0,0,1,187.511,84.9076)">
            <path d="M0,-12.039L0.876,-10.192L1.729,-4.492L1.729,-0.637L0.674,0L0.674,-4.021L-0.18,-9.721L-1.056,-11.567" style="fill:none;fill-rule:nonzero;stroke:rgb(22,33,45);stroke-width:0.5px;"/>
        </g>
        <g transform="matrix(1,0,0,1,190.312,81.7334)">
            <path d="M0,-10.635L0.725,-9.107L1.578,-3.407L1.578,0.564L2.634,-0.024L2.634,-3.879L1.78,-9.579L1.012,-11.199" style="fill:none;fill-rule:nonzero;stroke:rgb(22,33,45);stroke-width:0.5px;"/>
        </g>
        <g transform="matrix(1,0,0,1,186.297,87.6245)">
            <path d="M0,-14.287L0,-2.268L-3.907,0" style="fill:none;fill-rule:nonzero;stroke:rgb(22,33,45);stroke-width:0.5px;"/>
        </g>
        <g transform="matrix(0.869477,0.493974,0.493974,-0.869477,186.813,84.8296)">
            <path d="M-0.188,-0.713L2.698,-0.713" style="fill:none;fill-rule:nonzero;stroke:rgb(22,33,45);stroke-width:0.5px;"/>
        </g>
        <g transform="matrix(1,0,0,1,181.424,68.0143)">
            <path d="M0,20.456L0,16.601L-0.853,10.901L-1.729,9.054L13.678,0.405C14.397,0.002 15.274,0 15.994,0.402L31.512,9.054L30.636,10.901L29.782,16.601L29.782,20.456" style="fill:none;fill-rule:nonzero;stroke:rgb(22,33,45);stroke-width:0.5px;"/>
        </g>
        <g transform="matrix(1,0,0,1,192.946,78.3645)">
            <path d="M0,1.615L2.156,0.405C2.875,0.001 3.752,0 4.472,0.401L6.648,1.615" style="fill:none;fill-rule:nonzero;stroke:rgb(22,33,45);stroke-width:0.5px;"/>
        </g>
        <g transform="matrix(1,0,0,1,191.891,81.3918)">
            <path d="M0,0.906L-1.774,0L-2.65,0.453" style="fill:none;fill-rule:nonzero;stroke:rgb(22,33,45);stroke-width:0.5px;"/>
        </g>
        <g transform="matrix(1,0,0,1,200.65,81.3918)">
            <path d="M0,0.906L1.932,0L2.65,0.354" style="fill:none;fill-rule:nonzero;stroke:rgb(22,33,45);stroke-width:0.5px;"/>
        </g>
        <g transform="matrix(0,1,1,0,196.299,85.9572)">
            <ellipse cx="2.46" cy="0" rx="1.331" ry="2.46" style="fill:none;stroke:rgb(22,33,45);stroke-width:0.5px;"/>
        </g>
        <g transform="matrix(1,0,0,1,103.817,208.574)">
            <path d="M0,-21.168C0,-21.168 -5.134,-18.037 -9.443,-15.419L-23.63,-15.419C-27.896,-18.002 -32.983,-21.084 -32.983,-21.084L-34.06,-20.359L-34.06,-9.575L-18.85,-0.816C-17.433,0 -15.312,-0.246 -14.285,-0.84L1.112,-9.667L1.112,-20.494L0,-21.168Z" style="fill:white;fill-rule:nonzero;"/>
        </g>
        <g transform="matrix(1,0,0,1,84.9667,188.222)">
            <path d="M0,19.536L-15.211,10.777L-15.211,-0.008L-14.133,-0.732C-14.133,-0.732 0.522,8.145 0.943,8.398C1.364,8.651 2.847,8.853 3.639,8.415C4.43,7.977 18.85,-0.816 18.85,-0.816L19.962,-0.142L19.962,10.685L4.565,19.512C3.537,20.106 1.417,20.352 0,19.536Z" style="fill:none;fill-rule:nonzero;stroke:rgb(22,33,45);stroke-width:1px;"/>
        </g>
        <g transform="matrix(-1,0,0,1,80.243,193.155)">
            <path d="M-14.13,0L0,0" style="fill:none;fill-rule:nonzero;stroke:rgb(22,33,45);stroke-width:1px;stroke-linecap:butt;stroke-linejoin:miter;"/>
        </g>
        <g transform="matrix(-1,0,0,1,82.6924,194.681)">
            <path d="M-9.166,0L0,0" style="fill:none;fill-rule:nonzero;stroke:rgb(22,33,45);stroke-width:0.5px;"/>
        </g>
        <g transform="matrix(1,0,0,1,160.947,165.892)">
            <path d="M0,-10.515C0,-11.154 -0.369,-11.452 -0.831,-11.719L-16.298,-20.599C-16.476,-20.693 -16.898,-20.756 -17.132,-20.639C-17.367,-20.522 -18.131,-20.078 -18.131,-20.078L-18.841,-18.342L-19.583,-12.37L-19.585,-9.664C-19.585,-9.664 -24.805,-6.651 -25.158,-6.449C-25.512,-6.247 -25.672,-5.91 -25.672,-5.615L-25.672,5.181L-17.446,9.973C-17.1,10.175 -16.495,10.241 -16.033,9.973L-0.831,1.189C-0.522,0.991 0,0.652 0,0.012L0,-10.515Z" style="fill:white;fill-rule:nonzero;stroke:rgb(22,33,45);stroke-width:1px;"/>
        </g>
        <g transform="matrix(1,0,0,1,141.342,155.376)">
            <path d="M0,19.231L0,15.061L0.674,10.568L1.281,9.509C1.281,9.509 1.801,9.878 1.966,9.961C2.131,10.044 2.733,10.328 3.379,9.961L18.581,1.177C18.89,0.978 19.412,0.639 19.412,0" style="fill:none;fill-rule:nonzero;stroke:rgb(22,33,45);stroke-width:0.5px;"/>
        </g>
        <g transform="matrix(1,0,0,1,142.623,146.383)">
            <path d="M0,18.502L15.805,9.379C16.231,9.133 16.231,8.516 15.803,8.271L1.397,0L0.51,1.832L-0.223,7.686L-0.223,12.158L-2.16,13.32L3.349,16.569" style="fill:none;fill-rule:nonzero;stroke:rgb(22,33,45);stroke-width:0.5px;"/>
        </g>
        <g transform="matrix(1,0,0,1,149.667,161.789)">
            <path d="M0,-12.164L-0.949,-10.205L-1.681,-4.351L-1.681,0" style="fill:none;fill-rule:nonzero;stroke:rgb(22,33,45);stroke-width:0.5px;"/>
        </g>
        <g transform="matrix(1,0,0,1,150.64,161.245)">
            <path d="M0,-11.061L-0.98,-9.038L-1.713,-3.184L-1.713,0" style="fill:none;fill-rule:nonzero;stroke:rgb(22,33,45);stroke-width:0.5px;"/>
        </g>
        <g transform="matrix(1,0,0,1,153.842,159.268)">
            <path d="M0,-7.246L-0.783,-5.63L-1.488,0" style="fill:none;fill-rule:nonzero;stroke:rgb(22,33,45);stroke-width:0.5px;"/>
        </g>
        <g transform="matrix(1,0,0,1,154.815,158.633)">
            <path d="M0,-6.052L-0.814,-4.371L-1.361,0" style="fill:none;fill-rule:nonzero;stroke:rgb(22,33,45);stroke-width:0.5px;"/>
        </g>
        <g transform="matrix(0,1,1,0,155.701,155.245)">
            <path d="M-5.06,-5.06L5.06,-5.06" style="fill:none;fill-rule:nonzero;stroke:rgb(22,33,45);stroke-width:0.5px;"/>
        </g>
        <g transform="matrix(0,1,1,0,157.448,155.214)">
            <path d="M-2.633,-2.633L2.633,-2.633" style="fill:none;fill-rule:nonzero;stroke:rgb(22,33,45);stroke-width:0.5px;"/>
        </g>
        <g transform="matrix(1,0,0,1,144.02,160.306)">
            <path d="M0,-13.922L0,-1.52L-2.536,0" style="fill:none;fill-rule:nonzero;stroke:rgb(22,33,45);stroke-width:0.5px;"/>
        </g>
        <g transform="matrix(0.857875,0.513859,0.513859,-0.857875,144.912,157.936)">
            <path d="M-0.328,-1.187L4.293,-1.188" style="fill:none;fill-rule:nonzero;stroke:rgb(22,33,45);stroke-width:0.5px;"/>
        </g>
        <g transform="matrix(1,0,0,1,141.583,161.531)">
            <path d="M0,-5.441L0,-3.571L-6.309,0" style="fill:none;fill-rule:nonzero;stroke:rgb(22,33,45);stroke-width:0.5px;"/>
        </g>
        <g transform="matrix(1,0,0,1,36.2279,178.896)">
            <path d="M0,-10.515L0,0.012C0,0.652 0.522,0.991 0.831,1.189L16.033,9.973C16.495,10.241 17.1,10.175 17.446,9.973L25.672,5.181L25.672,-5.615C25.672,-5.91 25.512,-6.247 25.158,-6.449C24.804,-6.651 19.585,-9.664 19.585,-9.664L19.582,-12.37L18.841,-18.342L18.131,-20.078C18.131,-20.078 17.367,-20.522 17.132,-20.639C16.898,-20.756 16.476,-20.693 16.298,-20.599L0.831,-11.719C0.369,-11.452 0,-11.154 0,-10.515Z" style="fill:rgb(0,108,250);fill-rule:nonzero;stroke:rgb(22,33,45);stroke-width:1px;"/>
        </g>
        <g transform="matrix(1,0,0,1,36.4208,187.612)">
            <path d="M0,-19.231C0,-18.592 0.522,-18.253 0.831,-18.055L16.033,-9.27C16.679,-8.903 17.281,-9.187 17.446,-9.27C17.611,-9.353 18.131,-9.722 18.131,-9.722L18.738,-8.663L19.412,-4.171L19.412,0" style="fill:none;fill-rule:nonzero;stroke:rgb(22,33,45);stroke-width:0.5px;"/>
        </g>
        <g transform="matrix(1,0,0,1,54.5516,159.388)">
            <path d="M0,18.502L-15.805,9.379C-16.231,9.133 -16.231,8.516 -15.803,8.271L-1.397,0L-0.51,1.832L0.223,7.686L0.223,12.158L2.16,13.32L-3.349,16.569" style="fill:none;fill-rule:nonzero;stroke:rgb(22,33,45);stroke-width:0.5px;"/>
        </g>
        <g transform="matrix(1,0,0,1,47.5079,174.794)">
            <path d="M0,-12.164L0.949,-10.205L1.681,-4.351L1.681,0" style="fill:none;fill-rule:nonzero;stroke:rgb(22,33,45);stroke-width:0.5px;"/>
        </g>
        <g transform="matrix(1,0,0,1,46.5343,174.25)">
            <path d="M0,-11.061L0.98,-9.038L1.713,-3.184L1.713,0" style="fill:none;fill-rule:nonzero;stroke:rgb(22,33,45);stroke-width:0.5px;"/>
        </g>
        <g transform="matrix(1,0,0,1,43.333,172.273)">
            <path d="M0,-7.246L0.783,-5.63L1.488,0" style="fill:none;fill-rule:nonzero;stroke:rgb(22,33,45);stroke-width:0.5px;"/>
        </g>
        <g transform="matrix(1,0,0,1,42.3594,171.638)">
            <path d="M0,-6.052L0.814,-4.371L1.361,0" style="fill:none;fill-rule:nonzero;stroke:rgb(22,33,45);stroke-width:0.5px;"/>
        </g>
        <g transform="matrix(0,1,1,0,51.5948,168.249)">
            <path d="M-5.06,-5.06L5.06,-5.06" style="fill:none;fill-rule:nonzero;stroke:rgb(22,33,45);stroke-width:0.5px;"/>
        </g>
        <g transform="matrix(0,1,1,0,44.9924,168.219)">
            <path d="M-2.633,-2.633L2.633,-2.633" style="fill:none;fill-rule:nonzero;stroke:rgb(22,33,45);stroke-width:0.5px;"/>
        </g>
        <g transform="matrix(1,0,0,1,53.1546,173.31)">
            <path d="M0,-13.922L0,-1.52L2.536,0" style="fill:none;fill-rule:nonzero;stroke:rgb(22,33,45);stroke-width:0.5px;"/>
        </g>
        <g transform="matrix(-0.857875,0.513859,0.513859,0.857875,50.0816,175.015)">
            <path d="M-4.293,-1.188L0.328,-1.187" style="fill:none;fill-rule:nonzero;stroke:rgb(22,33,45);stroke-width:0.5px;"/>
        </g>
        <g transform="matrix(1,0,0,1,55.5914,174.536)">
            <path d="M0,-5.441L0,-3.571L6.309,0" style="fill:none;fill-rule:nonzero;stroke:rgb(22,33,45);stroke-width:0.5px;"/>
        </g>
        <g transform="matrix(1,0,0,1,91.9518,129.938)">
            <path d="M0,16.152L0,5.876C0,5.535 0.18,5.22 0.474,5.048L15.657,-3.859C16.795,-4.527 18.204,-4.537 19.351,-3.885L34.889,4.938C35.189,5.108 35.375,5.427 35.375,5.773L35.375,16.152L27.581,20.689L7.636,20.689L0,16.152Z" style="fill:white;fill-rule:nonzero;stroke:rgb(22,33,45);stroke-width:1px;"/>
        </g>
        <g transform="matrix(1,0,0,1,125.26,148.471)">
            <path d="M0,-12.69L-0.876,-10.843L-1.729,-5.143L-1.729,-1.288L-3.931,0L-9.456,-3.282L-7.524,-4.38" style="fill:none;fill-rule:nonzero;stroke:rgb(22,33,45);stroke-width:0.5px;"/>
        </g>
        <g transform="matrix(1,0,0,1,118.41,144.091)">
            <path d="M0,-12.039L-0.876,-10.192L-1.729,-4.492L-1.729,-0.637L-0.674,0L-0.674,-4.021L0.18,-9.721L1.056,-11.567" style="fill:none;fill-rule:nonzero;stroke:rgb(22,33,45);stroke-width:0.5px;"/>
        </g>
        <g transform="matrix(1,0,0,1,115.608,140.917)">
            <path d="M0,-10.635L-0.725,-9.107L-1.578,-3.407L-1.578,0.564L-2.634,-0.024L-2.634,-3.879L-1.78,-9.579L-1.012,-11.199" style="fill:none;fill-rule:nonzero;stroke:rgb(22,33,45);stroke-width:0.5px;"/>
        </g>
        <g transform="matrix(1,0,0,1,119.624,146.808)">
            <path d="M0,-14.287L0,-2.268L3.907,0" style="fill:none;fill-rule:nonzero;stroke:rgb(22,33,45);stroke-width:0.5px;"/>
        </g>
        <g transform="matrix(-0.869477,0.493974,0.493974,0.869477,117.63,146.493)">
            <path d="M-2.698,-0.713L0.188,-0.713" style="fill:none;fill-rule:nonzero;stroke:rgb(22,33,45);stroke-width:0.5px;"/>
        </g>
        <g transform="matrix(1,0,0,1,94.0406,148.471)">
            <path d="M0,-12.69L0.876,-10.843L1.729,-5.143L1.729,-1.288L3.931,0L9.456,-3.282L7.524,-4.38" style="fill:none;fill-rule:nonzero;stroke:rgb(22,33,45);stroke-width:0.5px;"/>
        </g>
        <g transform="matrix(1,0,0,1,100.891,144.091)">
            <path d="M0,-12.039L0.876,-10.192L1.729,-4.492L1.729,-0.637L0.674,0L0.674,-4.021L-0.18,-9.721L-1.056,-11.567" style="fill:none;fill-rule:nonzero;stroke:rgb(22,33,45);stroke-width:0.5px;"/>
        </g>
        <g transform="matrix(1,0,0,1,103.692,140.917)">
            <path d="M0,-10.635L0.725,-9.107L1.578,-3.407L1.578,0.564L2.634,-0.024L2.634,-3.879L1.78,-9.579L1.012,-11.199" style="fill:none;fill-rule:nonzero;stroke:rgb(22,33,45);stroke-width:0.5px;"/>
        </g>
        <g transform="matrix(1,0,0,1,99.6766,146.808)">
            <path d="M0,-14.287L0,-2.268L-3.907,0" style="fill:none;fill-rule:nonzero;stroke:rgb(22,33,45);stroke-width:0.5px;"/>
        </g>
        <g transform="matrix(0.869477,0.493974,0.493974,-0.869477,100.193,144.013)">
            <path d="M-0.188,-0.713L2.698,-0.713" style="fill:none;fill-rule:nonzero;stroke:rgb(22,33,45);stroke-width:0.5px;"/>
        </g>
        <g transform="matrix(1,0,0,1,94.8043,127.198)">
            <path d="M0,20.456L0,16.601L-0.854,10.901L-1.729,9.054L13.678,0.405C14.397,0.002 15.274,0 15.994,0.402L31.512,9.054L30.636,10.901L29.782,16.601L29.782,20.456" style="fill:none;fill-rule:nonzero;stroke:rgb(22,33,45);stroke-width:0.5px;"/>
        </g>
        <g transform="matrix(1,0,0,1,106.326,137.548)">
            <path d="M0,1.615L2.156,0.405C2.875,0.001 3.752,0 4.472,0.401L6.648,1.615" style="fill:none;fill-rule:nonzero;stroke:rgb(22,33,45);stroke-width:0.5px;"/>
        </g>
        <g transform="matrix(1,0,0,1,105.271,140.576)">
            <path d="M0,0.906L-1.774,0L-2.65,0.453" style="fill:none;fill-rule:nonzero;stroke:rgb(22,33,45);stroke-width:0.5px;"/>
        </g>
        <g transform="matrix(1,0,0,1,114.03,140.576)">
            <path d="M0,0.906L1.932,0L2.65,0.354" style="fill:none;fill-rule:nonzero;stroke:rgb(22,33,45);stroke-width:0.5px;"/>
        </g>
        <g transform="matrix(0,1,1,0,109.679,145.141)">
            <ellipse cx="2.46" cy="0" rx="1.331" ry="2.46" style="fill:none;stroke:rgb(22,33,45);stroke-width:0.5px;"/>
        </g>
        <g transform="matrix(1,0,0,1,60.5145,128.593)">
            <path d="M0,-1.828C0,-2.561 -1.174,-3.155 -2.621,-3.155C-4.069,-3.155 -5.243,-2.561 -5.243,-1.828L-5.243,-0.001C-5.243,0.733 -4.069,1.327 -2.621,1.327C-1.174,1.327 0,0.733 0,-0.001L0,-1.828Z" style="fill:rgb(255,214,0);fill-rule:nonzero;"/>
        </g>
        <g transform="matrix(0,1,1,0,60.8082,131.059)">
            <path d="M-1.318,-4.512L3.704,-4.512C4.15,-4.512 4.512,-3.797 4.512,-2.915C4.512,-2.033 4.15,-1.318 3.704,-1.318L-1.318,-1.318" style="fill:rgb(255,214,0);fill-rule:nonzero;"/>
        </g>
        <g transform="matrix(1,0,0,1,186.294,55.9059)">
            <path d="M0,-1.828C0,-2.561 -1.174,-3.155 -2.621,-3.155C-4.069,-3.155 -5.243,-2.561 -5.243,-1.828L-5.243,-0.001C-5.243,0.733 -4.069,1.327 -2.621,1.327C-1.174,1.327 0,0.733 0,-0.001L0,-1.828Z" style="fill:rgb(255,214,0);fill-rule:nonzero;"/>
        </g>
        <g transform="matrix(0,1,1,0,186.587,58.3716)">
            <path d="M-1.318,-4.512L3.704,-4.512C4.15,-4.512 4.512,-3.797 4.512,-2.915C4.512,-2.033 4.15,-1.318 3.704,-1.318L-1.318,-1.318" style="fill:rgb(255,214,0);fill-rule:nonzero;"/>
        </g>
        <g transform="matrix(0,1,1,0,58.6613,138.537)">
            <path d="M-0.75,-0.75L0.75,-0.75" style="fill:none;fill-rule:nonzero;stroke:rgb(255,214,0);stroke-width:1px;stroke-linejoin:miter;"/>
        </g>
        <g transform="matrix(0,1,1,0,83.0868,167.34)">
            <path d="M-25.175,-25.175L25.175,-25.175" style="fill:none;fill-rule:nonzero;stroke:rgb(255,214,0);stroke-width:1px;stroke-linejoin:miter;stroke-dasharray:2.88,2.88;"/>
        </g>
        <g transform="matrix(0,1,1,0,58.6613,194.704)">
            <path d="M-0.75,-0.75L0.75,-0.75" style="fill:none;fill-rule:nonzero;stroke:rgb(255,214,0);stroke-width:1px;stroke-linejoin:miter;"/>
        </g>
        <g transform="matrix(0,1,1,0,58.6613,205)">
            <path d="M-0.75,-0.75L0.75,-0.75" style="fill:none;fill-rule:nonzero;stroke:rgb(255,214,0);stroke-width:1px;stroke-linejoin:miter;"/>
        </g>
        <g transform="matrix(0,1,1,0,75.2783,226.137)">
            <path d="M-17.367,-17.367L17.367,-17.367" style="fill:none;fill-rule:nonzero;stroke:rgb(255,214,0);stroke-width:1px;stroke-linejoin:miter;stroke-dasharray:3.02,3.02;"/>
        </g>
        <g transform="matrix(0,1,1,0,58.6613,245.765)">
            <path d="M-0.75,-0.75L0.75,-0.75" style="fill:none;fill-rule:nonzero;stroke:rgb(255,214,0);stroke-width:1px;stroke-linejoin:miter;"/>
        </g>
        <g transform="matrix(0,1,1,0,184.345,65.8831)">
            <path d="M-0.75,-0.75L0.75,-0.75" style="fill:none;fill-rule:nonzero;stroke:rgb(255,214,0);stroke-width:1px;stroke-linejoin:miter;"/>
        </g>
        <g transform="matrix(0,1,1,0,205.868,91.78)">
            <path d="M-22.273,-22.273L22.273,-22.273" style="fill:none;fill-rule:nonzero;stroke:rgb(255,214,0);stroke-width:1px;stroke-linejoin:miter;stroke-dasharray:2.87,2.87;"/>
        </g>
        <g transform="matrix(0,1,1,0,184.345,116.239)">
            <path d="M-0.75,-0.75L0.75,-0.75" style="fill:none;fill-rule:nonzero;stroke:rgb(255,214,0);stroke-width:1px;stroke-linejoin:miter;"/>
        </g>
        <g transform="matrix(0,1,1,0,184.345,161.631)">
            <path d="M-0.75,-0.75L0.75,-0.75" style="fill:none;fill-rule:nonzero;stroke:rgb(255,214,0);stroke-width:1px;stroke-linejoin:miter;"/>
        </g>
        <g transform="matrix(0,1,1,0,186.09,168.203)">
            <path d="M-2.495,-2.495L2.495,-2.495" style="fill:none;fill-rule:nonzero;stroke:rgb(255,214,0);stroke-width:1px;stroke-linejoin:miter;stroke-dasharray:3.33,3.33;"/>
        </g>
        <g transform="matrix(0,1,1,0,184.345,173.111)">
            <path d="M-0.75,-0.75L0.75,-0.75" style="fill:none;fill-rule:nonzero;stroke:rgb(255,214,0);stroke-width:1px;stroke-linejoin:miter;"/>
        </g>
        <g transform="matrix(1,0,0,1,60.5145,128.593)">
            <path d="M0,-1.828C0,-2.561 -1.174,-3.155 -2.621,-3.155C-4.069,-3.155 -5.243,-2.561 -5.243,-1.828L-5.243,-0.001C-5.243,0.733 -4.069,1.327 -2.621,1.327C-1.174,1.327 0,0.733 0,-0.001L0,-1.828Z" style="fill:none;fill-rule:nonzero;stroke:rgb(22,33,45);stroke-width:1px;"/>
        </g>
        <g transform="matrix(0,1,1,0,60.8082,131.059)">
            <path d="M-1.318,-4.512L3.704,-4.512C4.15,-4.512 4.512,-3.797 4.512,-2.915C4.512,-2.033 4.15,-1.318 3.704,-1.318L-1.318,-1.318" style="fill:none;fill-rule:nonzero;stroke:rgb(22,33,45);stroke-width:1px;"/>
        </g>
        <g transform="matrix(1,0,0,1,186.294,55.9059)">
            <path d="M0,-1.828C0,-2.561 -1.174,-3.155 -2.621,-3.155C-4.069,-3.155 -5.243,-2.561 -5.243,-1.828L-5.243,-0.001C-5.243,0.733 -4.069,1.327 -2.621,1.327C-1.174,1.327 0,0.733 0,-0.001L0,-1.828Z" style="fill:none;fill-rule:nonzero;stroke:rgb(22,33,45);stroke-width:1px;"/>
        </g>
        <g transform="matrix(0,1,1,0,186.587,58.3716)">
            <path d="M-1.318,-4.512L3.704,-4.512C4.15,-4.512 4.512,-3.797 4.512,-2.915C4.512,-2.033 4.15,-1.318 3.704,-1.318L-1.318,-1.318" style="fill:none;fill-rule:nonzero;stroke:rgb(22,33,45);stroke-width:1px;"/>
        </g>
        <g transform="matrix(1,0,0,1,55.4871,128.033)">
            <path d="M0,-1.218C0,-0.545 1.077,0 2.406,0C3.735,0 4.812,-0.545 4.812,-1.218" style="fill:none;fill-rule:nonzero;stroke:rgb(22,33,45);stroke-width:0.5px;"/>
        </g>
        <g transform="matrix(0,-1,-1,0,57.893,125.856)">
            <ellipse cx="-0.959" cy="0" rx="0.486" ry="0.959" style="fill:none;stroke:rgb(22,33,45);stroke-width:0.5px;"/>
        </g>
        <g transform="matrix(1,0,0,1,181.266,55.3461)">
            <path d="M0,-1.218C0,-0.545 1.077,0 2.406,0C3.735,0 4.812,-0.545 4.812,-1.218" style="fill:none;fill-rule:nonzero;stroke:rgb(22,33,45);stroke-width:0.5px;"/>
        </g>
        <g transform="matrix(0,-1,-1,0,183.672,53.1686)">
            <ellipse cx="-0.959" cy="0" rx="0.486" ry="0.959" style="fill:none;stroke:rgb(22,33,45);stroke-width:0.5px;"/>
        </g>
    </g>
</svg>
