<?xml version="1.0" encoding="UTF-8" standalone="no"?>
<!DOCTYPE svg PUBLIC "-//W3C//DTD SVG 1.1//EN" "http://www.w3.org/Graphics/SVG/1.1/DTD/svg11.dtd">
<svg width="100%" height="100%" viewBox="0 0 284 284" version="1.1" xmlns="http://www.w3.org/2000/svg" xmlns:xlink="http://www.w3.org/1999/xlink" xml:space="preserve" xmlns:serif="http://www.serif.com/" style="fill-rule:evenodd;clip-rule:evenodd;stroke-linecap:round;stroke-linejoin:round;stroke-miterlimit:10;">
    <g id="Calibration-Probe" serif:id="Calibration Probe">
        <g transform="matrix(1,0,0,1,159.696,85.3278)">
            <path d="M0,113.584L0,87.566C0,86.748 -0.625,85.661 -1.09,85.202L-4.909,19.002L-4.909,-5.216C-4.909,-5.216 -5.646,-11.925 -18.409,-11.925C-31.173,-11.925 -31.827,-3.58 -31.827,-3.58L-31.827,49.602L-35.868,84.328L-35.868,104.093C-35.868,106.22 -35.305,107.652 -33.177,108.879C-32.057,109.526 -27.648,112.103 -23.728,114.396L-23.728,122.189C-23.728,124.022 -21.163,125.509 -18,125.509C-14.837,125.509 -12.273,124.022 -12.273,122.189L-12.273,119.991C-10.198,120.322 -7.575,120.287 -4.623,119.189C0.436,117.307 0,113.584 0,113.584" style="fill:rgb(220,220,220);fill-rule:nonzero;"/>
        </g>
        <g transform="matrix(1,0,0,1,141.737,160.088)">
            <path d="M0,-71.872C-6.869,-71.872 -12.437,-75.163 -12.437,-79.05C-12.437,-82.938 -6.869,-86.089 0,-86.089C6.868,-86.089 12.436,-82.938 12.436,-79.05C12.436,-75.163 6.868,-71.872 0,-71.872M21.201,-52.459C21.174,-55.601 19.024,-58.435 15.552,-60.553L15.552,-78.587C15.508,-83.562 8.504,-87.534 -0.093,-87.458C-8.689,-87.383 -15.623,-83.289 -15.579,-78.314L-15.579,-60.359C-19.089,-58.171 -21.239,-55.267 -21.211,-52.086L-21.211,3.196C-21.188,5.852 -19.643,8.286 -17.075,10.258L-17.101,10.26C-13.207,13.54 -6.999,15.662 -0.005,15.662C9.058,15.662 16.801,12.099 19.898,7.071L19.87,7.073C20.729,5.745 21.214,4.317 21.201,2.824L21.201,-52.459Z" style="fill:rgb(87,87,92);fill-rule:nonzero;"/>
        </g>
        <g transform="matrix(1,0,0,1,120.526,171.871)">
            <path d="M0,-11.264C1.016,-10.514 2.147,-10.241 2.147,-10.241L2.147,-8.879C4.209,-6.491 7.627,-4.559 11.829,-3.402L11.829,-4.637C11.829,-4.637 14.475,-2.659 17.297,-1.296C15.838,-0.859 11.829,0 11.829,0L11.829,-1.239C7.627,-2.396 4.209,-4.327 2.147,-6.715L2.147,-5.704C2.147,-5.704 0.647,-9.123 0.266,-10.664" style="fill:rgb(220,220,220);fill-rule:nonzero;"/>
        </g>
        <g transform="matrix(1,0,0,1,142.651,172.306)">
            <path d="M0,-2.601C0,-2.894 0.334,-3.512 1.077,-3.556C1.821,-3.6 2.155,-3.058 2.155,-2.844L2.155,-1.765L0,-1.654L0,-2.601ZM3.409,-1.83L3.409,-3.176C3.409,-3.639 2.686,-4.812 1.077,-4.717C-0.532,-4.621 -1.255,-3.285 -1.255,-2.65L-1.255,-1.59L-1.964,-1.553L-1.964,2.211L4.118,1.924L4.118,-1.867L3.409,-1.83Z" style="fill:rgb(220,220,220);fill-rule:nonzero;"/>
        </g>
        <g transform="matrix(0,-1,-1,0,141.653,66.2762)">
            <path d="M-14.748,-14.915C-19.384,-14.915 -23.309,-8.275 -23.309,-0.084C-23.309,8.107 -19.384,14.748 -14.748,14.748C-10.112,14.748 -6.354,8.107 -6.354,-0.084C-6.354,-8.275 -10.112,-14.915 -14.748,-14.915Z" style="fill:none;fill-rule:nonzero;stroke:rgb(22,33,45);stroke-width:0.5px;"/>
        </g>
        <g transform="matrix(0,-1,-1,0,141.653,66.2762)">
            <path d="M-14.748,-14.915C-19.384,-14.915 -23.309,-8.275 -23.309,-0.084C-23.309,8.107 -19.384,14.748 -14.748,14.748C-10.112,14.748 -6.354,8.107 -6.354,-0.084C-6.354,-8.275 -10.112,-14.915 -14.748,-14.915Z" style="fill:none;fill-rule:nonzero;stroke:rgb(22,33,45);stroke-width:0.5px;"/>
        </g>
        <g transform="matrix(1,0,0,1,162.938,119.996)">
            <path d="M0,-12.367C0.059,-5.697 -9.388,-0.206 -21.1,-0.103C-32.812,0 -42.354,-5.324 -42.412,-11.995" style="fill:none;fill-rule:nonzero;stroke:rgb(22,33,45);stroke-width:0.5px;"/>
        </g>
        <g transform="matrix(1,0,0,1,162.938,129.034)">
            <path d="M0,-12.367C0.059,-5.697 -9.388,-0.206 -21.1,-0.103C-32.812,0 -42.354,-5.324 -42.412,-11.995" style="fill:none;fill-rule:nonzero;stroke:rgb(22,33,45);stroke-width:0.5px;"/>
        </g>
        <g transform="matrix(1,0,0,1,162.938,166.269)">
            <path d="M0,-12.367C0.059,-5.697 -9.388,-0.206 -21.1,-0.103C-32.812,0 -42.354,-5.324 -42.412,-11.995" style="fill:none;fill-rule:nonzero;stroke:rgb(22,33,45);stroke-width:0.5px;"/>
        </g>
        <g transform="matrix(1,0,0,1,157.289,106.207)">
            <path d="M0,-24.706C-0.044,-29.681 -7.048,-33.653 -15.644,-33.577C-24.241,-33.502 -31.174,-29.408 -31.131,-24.433L-31.131,-0C-31.087,4.975 -24.083,8.947 -15.486,8.871C-6.89,8.796 0.044,4.702 0,-0.273L0,-24.706Z" style="fill:none;fill-rule:nonzero;stroke:rgb(22,33,45);stroke-width:1px;"/>
        </g>
        <g transform="matrix(1,0,0,1,162.938,140.675)">
            <path d="M0,-33.046C-0.028,-36.188 -2.177,-39.022 -5.649,-41.14L-5.649,-59.174C-5.693,-64.149 -12.697,-68.121 -21.294,-68.046C-29.89,-67.97 -36.824,-63.876 -36.78,-58.901L-36.78,-40.946C-40.29,-38.758 -42.44,-35.854 -42.412,-32.674L-42.412,22.609C-42.389,25.265 -40.844,27.699 -38.276,29.67L-38.302,29.673C-34.408,32.953 -28.2,35.075 -21.206,35.075C-12.144,35.075 -4.4,31.511 -1.303,26.484L-1.331,26.486C-0.473,25.158 0.013,23.73 0,22.237L0,-33.046Z" style="fill:none;fill-rule:nonzero;stroke:rgb(22,33,45);stroke-width:1px;"/>
        </g>
        <g transform="matrix(-0.764038,-0.645171,-0.645171,0.764038,123.938,105.809)">
            <path d="M-21.479,-26.258C-24.697,-26.509 -27.437,-25.702 -29.134,-23.728C-33.188,-19.011 -29.761,-9.416 -21.479,-2.298C-13.197,4.821 -3.197,6.768 0.857,2.052C2.568,0.062 2.947,-2.796 2.192,-5.97" style="fill:none;fill-rule:nonzero;stroke:rgb(22,33,45);stroke-width:0.5px;"/>
        </g>
        <g transform="matrix(0,-1,-1,0,141.653,66.2762)">
            <path d="M-14.748,-14.915C-19.384,-14.915 -23.309,-8.275 -23.309,-0.084C-23.309,8.107 -19.384,14.748 -14.748,14.748C-10.112,14.748 -6.354,8.107 -6.354,-0.084C-6.354,-8.275 -10.112,-14.915 -14.748,-14.915Z" style="fill:none;fill-rule:nonzero;stroke:rgb(22,33,45);stroke-width:0.5px;"/>
        </g>
        <g transform="matrix(1,0,0,1,157.289,90.7211)">
            <path d="M0,-8.561C0,-3.925 -6.963,0 -15.552,0C-24.141,0 -31.104,-3.925 -31.104,-8.561" style="fill:none;fill-rule:nonzero;stroke:rgb(22,33,45);stroke-width:0.5px;"/>
        </g>
        <g transform="matrix(0,-1,-1,0,141.667,68.6707)">
            <path d="M-12.367,-12.506C-16.254,-12.506 -19.545,-6.938 -19.545,-0.07C-19.545,6.799 -16.254,12.367 -12.367,12.367C-8.48,12.367 -5.328,6.799 -5.328,-0.07C-5.328,-6.938 -8.48,-12.506 -12.367,-12.506Z" style="fill:none;fill-rule:nonzero;stroke:rgb(22,33,45);stroke-width:0.5px;"/>
        </g>
        <g transform="matrix(1,0,0,1,149.448,75.7753)">
            <path d="M0,0.757L-2.279,2.127C-3.755,1.437 -5.647,1.022 -7.711,1.022C-9.776,1.022 -11.668,1.437 -13.144,2.127L-15.341,0.859C-11.23,-1.329 -4.745,-1.37 0,0.757Z" style="fill:none;fill-rule:nonzero;stroke:rgb(22,33,45);stroke-width:0.5px;"/>
        </g>
        <g transform="matrix(0.869849,-0.493318,-0.493318,-0.869849,135.887,90.3298)">
            <path d="M0.61,3.577L3.171,3.577C4.094,2.409 5.384,1.295 6.954,0.404C8.525,-0.487 10.144,-1.022 11.619,-1.214L12.934,-3.412" style="fill:none;fill-rule:nonzero;stroke:rgb(22,33,45);stroke-width:0.5px;"/>
        </g>
        <g transform="matrix(1,0,0,1,132.574,77.514)">
            <path d="M0,8.347L2.449,7.118C1.315,6.279 0.633,5.232 0.633,4.111C0.633,3.111 1.17,2.182 2.09,1.411L-0.185,0C-3.478,2.741 -2.917,5.212 -2.917,5.212" style="fill:none;fill-rule:nonzero;stroke:rgb(22,33,45);stroke-width:0.5px;"/>
        </g>
        <g transform="matrix(1,0,0,1,150.899,77.657)">
            <path d="M0,8.204L-2.449,6.975C-1.315,6.136 -0.633,5.089 -0.633,3.968C-0.633,2.968 -1.17,2.039 -2.089,1.268L0.267,0C2.476,1.8 2.794,2.692 2.794,5.335" style="fill:none;fill-rule:nonzero;stroke:rgb(22,33,45);stroke-width:0.5px;"/>
        </g>
        <g transform="matrix(1,0,0,1,134.664,86.4404)">
            <path d="M0,-7.515L0.773,-6.738L0.773,0" style="fill:none;fill-rule:nonzero;stroke:rgb(22,33,45);stroke-width:0.5px;"/>
        </g>
        <g transform="matrix(1,0,0,1,148.81,86.3434)">
            <path d="M0,-7.418L-0.773,-6.6L-0.773,0" style="fill:none;fill-rule:nonzero;stroke:rgb(22,33,45);stroke-width:0.5px;"/>
        </g>
        <g transform="matrix(1,0,0,1,136.305,85.7427)">
            <path d="M0,-7.84L0.421,-6.817L0.421,0" style="fill:none;fill-rule:nonzero;stroke:rgb(22,33,45);stroke-width:0.5px;"/>
        </g>
        <g transform="matrix(1,0,0,1,147.169,85.7197)">
            <path d="M0,-7.817L-0.462,-6.794L-0.462,0" style="fill:none;fill-rule:nonzero;stroke:rgb(22,33,45);stroke-width:0.5px;"/>
        </g>
        <g transform="matrix(0,1,1,0,135.038,77.565)">
            <path d="M-0.931,-0.931L0.931,-0.931" style="fill:none;fill-rule:nonzero;stroke:rgb(22,33,45);stroke-width:0.5px;"/>
        </g>
        <g transform="matrix(0,1,1,0,150.43,77.5143)">
            <path d="M-0.982,-0.982L0.982,-0.982" style="fill:none;fill-rule:nonzero;stroke:rgb(22,33,45);stroke-width:0.5px;"/>
        </g>
        <g transform="matrix(0.765486,0.643452,0.643452,-0.765486,135.184,84.5398)">
            <path d="M-0.063,-0.174L0.477,-0.174" style="fill:none;fill-rule:nonzero;stroke:rgb(22,33,45);stroke-width:0.5px;"/>
        </g>
        <g transform="matrix(-0.921887,0.38746,0.38746,0.921887,148.086,84.8796)">
            <path d="M-0.432,-0.087L0.018,-0.087" style="fill:none;fill-rule:nonzero;stroke:rgb(22,33,45);stroke-width:0.5px;"/>
        </g>
        <g transform="matrix(1,0,0,1,123.829,207.184)">
            <path d="M0,-37.528L0,-17.763C0,-15.636 0.563,-14.204 2.69,-12.977C4.817,-11.749 18.791,-3.568 18.791,-3.568C18.791,-3.568 24.074,0 31.245,-2.668C36.304,-4.549 35.867,-8.272 35.867,-8.272L35.867,-34.29C35.867,-35.108 35.243,-36.195 34.778,-36.654" style="fill:none;fill-rule:nonzero;stroke:rgb(22,33,45);stroke-width:1px;"/>
        </g>
        <g transform="matrix(0,1,1,0,141.65,211.008)">
            <path d="M-5.682,5.773L-3.492,5.773C-1.658,5.773 -0.171,3.209 -0.171,0.046C-0.171,-3.117 -1.658,-5.682 -3.492,-5.682L-11.284,-5.682" style="fill:none;fill-rule:nonzero;stroke:rgb(22,33,45);stroke-width:1px;"/>
        </g>
        <g transform="matrix(1,0,0,1,159.705,178.567)">
            <path d="M0,-5.118C0,-2.292 -4.55,0 -10.164,0C-12.761,0 -15.13,-0.491 -16.927,-1.298L-19.977,-2.876" style="fill:none;fill-rule:nonzero;stroke:rgb(22,33,45);stroke-width:0.5px;"/>
        </g>
        <g transform="matrix(1,0,0,1,157.946,176.821)">
            <path d="M0,-5.784C0.11,-5.471 0.168,-5.146 0.168,-4.814C0.168,-2.155 -3.538,0 -8.109,0C-10.182,0 -12.077,-0.443 -13.53,-1.176" style="fill:none;fill-rule:nonzero;stroke:rgb(22,33,45);stroke-width:0.5px;"/>
        </g>
        <g transform="matrix(0.60631,-0.795228,-0.795228,-0.60631,157.65,189.709)">
            <ellipse cx="-1.166" cy="0.889" rx="2.674" ry="1.467" style="fill:none;stroke:rgb(22,33,45);stroke-width:0.5px;"/>
        </g>
        <g transform="matrix(-0.919847,0.392276,0.392276,0.919847,157.674,190.884)">
            <path d="M1.268,-3.273C3.206,-2.732 4.47,-0.977 4.405,-0.089C4.339,0.799 3.351,2.584 1.268,1.871C-0.815,1.158 -1.976,-1.252 -2.155,-1.635C-2.333,-2.019 -3.646,-4.646 1.268,-3.273Z" style="fill:none;fill-rule:nonzero;stroke:rgb(22,33,45);stroke-width:0.5px;"/>
        </g>
        <g transform="matrix(1,0,0,1,162.938,166.269)">
            <path d="M0,-12.367C0.059,-5.697 -9.388,-0.206 -21.1,-0.103C-32.812,0 -42.354,-5.324 -42.412,-11.995" style="fill:none;fill-rule:nonzero;stroke:rgb(22,33,45);stroke-width:0.5px;"/>
        </g>
        <g transform="matrix(1,0,0,1,120.526,171.871)">
            <path d="M0,-11.264C1.016,-10.514 2.147,-10.241 2.147,-10.241L2.147,-8.879C4.209,-6.491 7.627,-4.559 11.829,-3.402L11.829,-4.637C11.829,-4.637 14.475,-2.659 17.297,-1.296C15.838,-0.859 11.829,0 11.829,0L11.829,-1.239C7.627,-2.396 4.209,-4.327 2.147,-6.715L2.147,-5.704C2.147,-5.704 0.647,-9.123 0.266,-10.664" style="fill:none;fill-rule:nonzero;stroke:rgb(22,33,45);stroke-width:0.5px;"/>
        </g>
        <g transform="matrix(1,0,0,1,142.651,172.306)">
            <path d="M0,-2.601C0,-2.894 0.334,-3.512 1.077,-3.556C1.821,-3.6 2.155,-3.058 2.155,-2.844L2.155,-1.765L0,-1.654L0,-2.601ZM3.409,-1.83L3.409,-3.176C3.409,-3.639 2.686,-4.812 1.077,-4.717C-0.532,-4.621 -1.255,-3.285 -1.255,-2.65L-1.255,-1.59L-1.964,-1.553L-1.964,2.211L4.118,1.924L4.118,-1.867L3.409,-1.83Z" style="fill:none;fill-rule:nonzero;stroke:rgb(22,33,45);stroke-width:0.5px;"/>
        </g>
    </g>
</svg>
