<?xml version="1.0" encoding="UTF-8" standalone="no"?>
<!DOCTYPE svg PUBLIC "-//W3C//DTD SVG 1.1//EN" "http://www.w3.org/Graphics/SVG/1.1/DTD/svg11.dtd">
<svg width="100%" height="100%" viewBox="0 0 284 284" version="1.1" xmlns="http://www.w3.org/2000/svg" xmlns:xlink="http://www.w3.org/1999/xlink" xml:space="preserve" xmlns:serif="http://www.serif.com/" style="fill-rule:evenodd;clip-rule:evenodd;stroke-miterlimit:10;">
    <g id="Handles-and-Caps" serif:id="Handles and Caps">
        <g transform="matrix(1,0,0,1,168.206,107.676)">
            <path d="M0,51.389C2.579,55.797 6.725,58.168 9.26,56.685L86.447,11.522C87.784,10.741 88.398,9.04 88.31,6.965L88.317,6.978L91.614,5.048C93.333,4.043 93.309,0.805 91.56,-2.183C89.811,-5.172 87.001,-6.779 85.282,-5.774L81.985,-3.844L81.992,-3.832C80.226,-4.925 78.443,-5.223 77.107,-4.441L-0.08,40.722C-2.615,42.205 -2.579,46.981 0,51.389" style="fill:rgb(220,220,220);fill-rule:nonzero;"/>
        </g>
        <g transform="matrix(1,0,0,1,187.976,170.464)">
            <path d="M0,6.75C2.827,11.582 7.371,14.181 10.15,12.555L13.238,10.748C14.403,10.066 15.066,8.746 15.242,7.091L15.248,7.101C15.611,6.443 15.805,5.622 15.831,4.693L16.073,4.552C17.777,3.554 17.753,0.342 16.018,-2.622C14.284,-5.587 11.495,-7.182 9.791,-6.185L9.549,-6.043C8.727,-6.476 7.916,-6.709 7.164,-6.715L7.17,-6.704C5.641,-7.361 4.165,-7.431 3,-6.749L-0.088,-4.942C-2.867,-3.317 -2.827,1.918 0,6.75" style="fill:rgb(220,220,220);fill-rule:nonzero;"/>
        </g>
        <g transform="matrix(1,0,0,1,254.653,148.397)">
            <path d="M0,-29.199C2.535,-30.682 2.499,-35.458 -0.08,-39.866C-2.66,-44.274 -6.805,-46.646 -9.34,-45.163L-86.528,0C-89.063,1.483 -89.027,6.259 -86.447,10.668C-83.868,15.076 -79.722,17.447 -77.187,15.964L0,-29.199Z" style="fill:none;fill-rule:nonzero;stroke:rgb(22,33,45);stroke-width:1px;"/>
        </g>
        <g transform="matrix(1,0,0,1,171.35,160.992)">
            <path d="M0,-14.481C2.535,-15.964 6.681,-13.593 9.26,-9.185C11.839,-4.777 11.875,-0.001 9.34,1.483" style="fill:none;fill-rule:nonzero;stroke:rgb(22,33,45);stroke-width:1px;"/>
        </g>
        <g transform="matrix(1,0,0,1,171.35,160.992)">
            <path d="M0,-14.481C2.535,-15.964 6.681,-13.593 9.26,-9.185C11.839,-4.777 11.875,-0.001 9.34,1.483" style="fill:none;fill-rule:nonzero;stroke:rgb(22,33,45);stroke-width:1px;"/>
        </g>
        <g transform="matrix(1,0,0,1,222.681,130.958)">
            <path d="M0,-14.481C2.535,-15.964 6.681,-13.593 9.26,-9.185C11.839,-4.777 11.875,-0.001 9.34,1.483" style="fill:none;fill-rule:nonzero;stroke:rgb(22,33,45);stroke-width:1px;"/>
        </g>
        <g transform="matrix(1,0,0,1,222.681,130.958)">
            <path d="M0,-14.481C2.535,-15.964 6.681,-13.593 9.26,-9.185C11.839,-4.777 11.875,-0.001 9.34,1.483" style="fill:none;fill-rule:nonzero;stroke:rgb(22,33,45);stroke-width:1px;"/>
        </g>
        <g transform="matrix(0.863123,-0.504994,-0.504994,-0.863123,259.907,113.38)">
            <path d="M-3.564,0.609L0.256,0.609C2.248,0.609 3.862,3.417 3.862,6.879C3.861,10.341 2.248,13.148 0.256,13.148L-3.564,13.148" style="fill:none;fill-rule:nonzero;stroke:rgb(22,33,45);stroke-width:1px;"/>
        </g>
        <g transform="matrix(1,0,0,1,168.585,162.667)">
            <path d="M0,-14.481C2.535,-15.964 6.681,-13.593 9.26,-9.185C11.839,-4.777 11.875,-0.001 9.34,1.483" style="fill:none;fill-rule:nonzero;stroke:rgb(22,33,45);stroke-width:0.5px;"/>
        </g>
        <g transform="matrix(1,0,0,1,168.585,162.667)">
            <path d="M0,-14.481C2.535,-15.964 6.681,-13.593 9.26,-9.185C11.839,-4.777 11.875,-0.001 9.34,1.483" style="fill:none;fill-rule:nonzero;stroke:rgb(22,33,45);stroke-width:0.5px;"/>
        </g>
        <g transform="matrix(-0.863105,0.505025,0.505025,0.863105,178.251,160.639)">
            <ellipse cx="3.753" cy="-6.414" rx="4.122" ry="7.432" style="fill:none;stroke:rgb(22,33,45);stroke-width:1px;"/>
        </g>
        <g transform="matrix(1,0,0,1,168.585,162.667)">
            <path d="M0,-14.481C2.535,-15.964 6.681,-13.593 9.26,-9.185C11.839,-4.777 11.875,-0.001 9.34,1.483" style="fill:none;fill-rule:nonzero;stroke:rgb(22,33,45);stroke-width:0.5px;"/>
        </g>
        <g transform="matrix(1,0,0,1,168.585,162.667)">
            <path d="M0,-14.481C2.535,-15.964 6.681,-13.593 9.26,-9.185C11.839,-4.777 11.875,-0.001 9.34,1.483" style="fill:none;fill-rule:nonzero;stroke:rgb(22,33,45);stroke-width:0.5px;"/>
        </g>
        <g transform="matrix(-0.863116,0.505005,0.505005,0.863116,174.998,158.811)">
            <ellipse cx="1.868" cy="-3.194" rx="2.052" ry="3.7" style="fill:none;stroke:rgb(22,33,45);stroke-width:1px;"/>
        </g>
        <g transform="matrix(1,0,0,1,223.966,130.264)">
            <path d="M0,-14.481C2.535,-15.964 6.681,-13.593 9.26,-9.185C11.839,-4.777 11.875,-0.001 9.34,1.483" style="fill:none;fill-rule:nonzero;stroke:rgb(22,33,45);stroke-width:0.5px;"/>
        </g>
        <g transform="matrix(1,0,0,1,241.309,120.117)">
            <path d="M0,-14.481C2.535,-15.964 6.681,-13.593 9.26,-9.185C11.839,-4.777 11.875,-0.001 9.34,1.483" style="fill:none;fill-rule:nonzero;stroke:rgb(22,33,45);stroke-width:0.5px;"/>
        </g>
        <g transform="matrix(1,0,0,1,242.439,119.455)">
            <path d="M0,-14.481C2.535,-15.964 6.681,-13.593 9.26,-9.185C11.839,-4.777 11.875,-0.001 9.34,1.483" style="fill:none;fill-rule:nonzero;stroke:rgb(22,33,45);stroke-width:0.5px;"/>
        </g>
        <g transform="matrix(-0.968564,-0.248766,-0.248766,0.968564,171.805,159.753)">
            <path d="M1.54,-5.543C1.927,-5.565 2.261,-5.468 2.494,-5.237C3.164,-4.573 2.737,-3.054 1.54,-1.845C0.341,-0.636 -1.173,-0.195 -1.844,-0.86C-2.077,-1.09 -2.177,-1.425 -2.159,-1.813" style="fill:none;fill-rule:nonzero;stroke:rgb(22,33,45);stroke-width:0.5px;"/>
        </g>
        <g transform="matrix(1,0,0,1,201.214,165.522)">
            <path d="M0,15.69C2.778,14.064 2.739,8.83 -0.088,3.998C-2.915,-0.834 -7.459,-3.433 -10.238,-1.807L-13.326,0C-16.104,1.625 -16.065,6.86 -13.238,11.692C-10.411,16.524 -5.867,19.123 -3.088,17.497L0,15.69Z" style="fill:none;fill-rule:nonzero;stroke:rgb(22,33,45);stroke-width:1px;"/>
        </g>
        <g transform="matrix(-0.863104,0.505027,0.505027,0.863104,201.843,179.236)">
            <ellipse cx="5.119" cy="-8.749" rx="5.829" ry="10.137" style="fill:none;stroke:rgb(22,33,45);stroke-width:0.5px;"/>
        </g>
        <g transform="matrix(1,0,0,1,203.224,163.283)">
            <path d="M0,14.283C0.363,13.625 0.557,12.803 0.583,11.875L0.824,11.734C2.529,10.736 2.505,7.524 0.77,4.559C-0.965,1.594 -3.753,0 -5.458,0.997L-5.699,1.138C-6.521,0.706 -7.332,0.473 -8.084,0.467" style="fill:none;fill-rule:nonzero;stroke:rgb(22,33,45);stroke-width:1px;stroke-linecap:round;stroke-linejoin:round;"/>
        </g>
        <g transform="matrix(-0.863104,0.505027,0.505027,0.863104,201.843,179.236)">
            <ellipse cx="5.119" cy="-8.749" rx="5.829" ry="10.137" style="fill:none;stroke:rgb(22,33,45);stroke-width:0.5px;"/>
        </g>
        <g transform="matrix(1,0,0,1,195.374,177.311)">
            <path d="M0,-13.457C2.156,-13.232 4.733,-11.255 6.503,-8.23C8.273,-5.204 8.734,-1.99 7.874,0" style="fill:none;fill-rule:nonzero;stroke:rgb(22,33,45);stroke-width:0.5px;"/>
        </g>
        <g transform="matrix(-0.862992,0.505218,0.505218,0.862992,194.233,174.96)">
            <ellipse cx="0.71" cy="-1.214" rx="0.81" ry="1.407" style="fill:none;stroke:rgb(22,33,45);stroke-width:0.5px;"/>
        </g>
        <g transform="matrix(1,0,0,1,121.549,107.676)">
            <path d="M0,51.389C2.579,55.797 6.725,58.168 9.26,56.685L86.447,11.522C87.784,10.741 88.398,9.04 88.31,6.965L88.317,6.978L91.614,5.048C93.333,4.043 93.309,0.805 91.56,-2.183C89.811,-5.172 87.001,-6.779 85.282,-5.774L81.985,-3.844L81.992,-3.832C80.226,-4.925 78.443,-5.223 77.107,-4.441L-0.08,40.722C-2.615,42.205 -2.579,46.981 0,51.389" style="fill:rgb(220,220,220);fill-rule:nonzero;"/>
        </g>
        <g transform="matrix(1,0,0,1,141.319,170.464)">
            <path d="M0,6.75C2.827,11.582 7.371,14.181 10.15,12.555L13.238,10.748C14.403,10.066 15.066,8.746 15.242,7.091L15.248,7.101C15.611,6.443 15.805,5.622 15.831,4.693L16.073,4.552C17.777,3.554 17.753,0.342 16.018,-2.622C14.284,-5.587 11.495,-7.182 9.791,-6.185L9.549,-6.043C8.727,-6.476 7.916,-6.709 7.164,-6.715L7.17,-6.704C5.641,-7.361 4.165,-7.431 3,-6.749L-0.088,-4.942C-2.867,-3.317 -2.827,1.918 0,6.75" style="fill:rgb(220,220,220);fill-rule:nonzero;"/>
        </g>
        <g transform="matrix(1,0,0,1,207.996,148.397)">
            <path d="M0,-29.199C2.535,-30.682 2.499,-35.458 -0.08,-39.866C-2.66,-44.274 -6.805,-46.646 -9.34,-45.163L-86.528,0C-89.063,1.483 -89.027,6.259 -86.447,10.668C-83.868,15.076 -79.722,17.447 -77.187,15.964L0,-29.199Z" style="fill:none;fill-rule:nonzero;stroke:rgb(22,33,45);stroke-width:1px;"/>
        </g>
        <g transform="matrix(1,0,0,1,124.693,160.992)">
            <path d="M0,-14.481C2.535,-15.964 6.681,-13.593 9.26,-9.185C11.839,-4.777 11.875,-0.001 9.34,1.483" style="fill:none;fill-rule:nonzero;stroke:rgb(22,33,45);stroke-width:1px;"/>
        </g>
        <g transform="matrix(1,0,0,1,124.693,160.992)">
            <path d="M0,-14.481C2.535,-15.964 6.681,-13.593 9.26,-9.185C11.839,-4.777 11.875,-0.001 9.34,1.483" style="fill:none;fill-rule:nonzero;stroke:rgb(22,33,45);stroke-width:1px;"/>
        </g>
        <g transform="matrix(1,0,0,1,176.024,130.958)">
            <path d="M0,-14.481C2.535,-15.964 6.681,-13.593 9.26,-9.185C11.839,-4.777 11.875,-0.001 9.34,1.483" style="fill:none;fill-rule:nonzero;stroke:rgb(22,33,45);stroke-width:1px;"/>
        </g>
        <g transform="matrix(1,0,0,1,176.024,130.958)">
            <path d="M0,-14.481C2.535,-15.964 6.681,-13.593 9.26,-9.185C11.839,-4.777 11.875,-0.001 9.34,1.483" style="fill:none;fill-rule:nonzero;stroke:rgb(22,33,45);stroke-width:1px;"/>
        </g>
        <g transform="matrix(0.863123,-0.504994,-0.504994,-0.863123,213.25,113.38)">
            <path d="M-3.564,0.609L0.256,0.609C2.248,0.609 3.862,3.417 3.862,6.879C3.861,10.341 2.248,13.148 0.256,13.148L-3.564,13.148" style="fill:none;fill-rule:nonzero;stroke:rgb(22,33,45);stroke-width:1px;"/>
        </g>
        <g transform="matrix(1,0,0,1,121.928,162.667)">
            <path d="M0,-14.481C2.535,-15.964 6.681,-13.593 9.26,-9.185C11.839,-4.777 11.875,-0.001 9.34,1.483" style="fill:none;fill-rule:nonzero;stroke:rgb(22,33,45);stroke-width:0.5px;"/>
        </g>
        <g transform="matrix(1,0,0,1,121.928,162.667)">
            <path d="M0,-14.481C2.535,-15.964 6.681,-13.593 9.26,-9.185C11.839,-4.777 11.875,-0.001 9.34,1.483" style="fill:none;fill-rule:nonzero;stroke:rgb(22,33,45);stroke-width:0.5px;"/>
        </g>
        <g transform="matrix(-0.863105,0.505025,0.505025,0.863105,131.594,160.639)">
            <ellipse cx="3.753" cy="-6.414" rx="4.122" ry="7.432" style="fill:none;stroke:rgb(22,33,45);stroke-width:1px;"/>
        </g>
        <g transform="matrix(1,0,0,1,121.928,162.667)">
            <path d="M0,-14.481C2.535,-15.964 6.681,-13.593 9.26,-9.185C11.839,-4.777 11.875,-0.001 9.34,1.483" style="fill:none;fill-rule:nonzero;stroke:rgb(22,33,45);stroke-width:0.5px;"/>
        </g>
        <g transform="matrix(1,0,0,1,121.928,162.667)">
            <path d="M0,-14.481C2.535,-15.964 6.681,-13.593 9.26,-9.185C11.839,-4.777 11.875,-0.001 9.34,1.483" style="fill:none;fill-rule:nonzero;stroke:rgb(22,33,45);stroke-width:0.5px;"/>
        </g>
        <g transform="matrix(-0.863116,0.505005,0.505005,0.863116,128.341,158.811)">
            <ellipse cx="1.868" cy="-3.194" rx="2.052" ry="3.7" style="fill:none;stroke:rgb(22,33,45);stroke-width:1px;"/>
        </g>
        <g transform="matrix(1,0,0,1,177.309,130.264)">
            <path d="M0,-14.481C2.535,-15.964 6.681,-13.593 9.26,-9.185C11.839,-4.777 11.875,-0.001 9.34,1.483" style="fill:none;fill-rule:nonzero;stroke:rgb(22,33,45);stroke-width:0.5px;"/>
        </g>
        <g transform="matrix(1,0,0,1,194.652,120.117)">
            <path d="M0,-14.481C2.535,-15.964 6.681,-13.593 9.26,-9.185C11.839,-4.777 11.875,-0.001 9.34,1.483" style="fill:none;fill-rule:nonzero;stroke:rgb(22,33,45);stroke-width:0.5px;"/>
        </g>
        <g transform="matrix(1,0,0,1,195.781,119.455)">
            <path d="M0,-14.481C2.535,-15.964 6.681,-13.593 9.26,-9.185C11.839,-4.777 11.875,-0.001 9.34,1.483" style="fill:none;fill-rule:nonzero;stroke:rgb(22,33,45);stroke-width:0.5px;"/>
        </g>
        <g transform="matrix(-0.968564,-0.248766,-0.248766,0.968564,125.148,159.753)">
            <path d="M1.54,-5.543C1.927,-5.565 2.261,-5.468 2.494,-5.237C3.164,-4.573 2.737,-3.054 1.54,-1.845C0.341,-0.636 -1.173,-0.195 -1.844,-0.86C-2.077,-1.09 -2.177,-1.425 -2.159,-1.813" style="fill:none;fill-rule:nonzero;stroke:rgb(22,33,45);stroke-width:0.5px;"/>
        </g>
        <g transform="matrix(1,0,0,1,154.557,165.522)">
            <path d="M0,15.69C2.778,14.064 2.739,8.83 -0.088,3.998C-2.915,-0.834 -7.459,-3.433 -10.238,-1.807L-13.326,0C-16.104,1.625 -16.065,6.86 -13.238,11.692C-10.411,16.524 -5.867,19.123 -3.088,17.497L0,15.69Z" style="fill:none;fill-rule:nonzero;stroke:rgb(22,33,45);stroke-width:1px;"/>
        </g>
        <g transform="matrix(-0.863104,0.505027,0.505027,0.863104,155.186,179.236)">
            <ellipse cx="5.119" cy="-8.749" rx="5.829" ry="10.137" style="fill:none;stroke:rgb(22,33,45);stroke-width:0.5px;"/>
        </g>
        <g transform="matrix(1,0,0,1,156.567,163.283)">
            <path d="M0,14.283C0.363,13.625 0.557,12.803 0.583,11.875L0.824,11.734C2.529,10.736 2.505,7.524 0.77,4.559C-0.965,1.594 -3.753,0 -5.458,0.997L-5.699,1.138C-6.521,0.706 -7.332,0.473 -8.084,0.467" style="fill:none;fill-rule:nonzero;stroke:rgb(22,33,45);stroke-width:1px;stroke-linecap:round;stroke-linejoin:round;"/>
        </g>
        <g transform="matrix(-0.863104,0.505027,0.505027,0.863104,155.186,179.236)">
            <ellipse cx="5.119" cy="-8.749" rx="5.829" ry="10.137" style="fill:none;stroke:rgb(22,33,45);stroke-width:0.5px;"/>
        </g>
        <g transform="matrix(1,0,0,1,148.717,177.311)">
            <path d="M0,-13.457C2.156,-13.232 4.733,-11.255 6.503,-8.23C8.273,-5.204 8.734,-1.99 7.874,0" style="fill:none;fill-rule:nonzero;stroke:rgb(22,33,45);stroke-width:0.5px;"/>
        </g>
        <g transform="matrix(-0.862992,0.505218,0.505218,0.862992,147.576,174.96)">
            <ellipse cx="0.71" cy="-1.214" rx="0.81" ry="1.407" style="fill:none;stroke:rgb(22,33,45);stroke-width:0.5px;"/>
        </g>
        <g transform="matrix(1,0,0,1,75.9571,107.676)">
            <path d="M0,51.389C2.579,55.797 6.725,58.168 9.26,56.685L86.447,11.522C87.784,10.741 88.398,9.04 88.31,6.965L88.317,6.978L91.614,5.048C93.333,4.043 93.309,0.805 91.56,-2.183C89.811,-5.172 87.001,-6.779 85.282,-5.774L81.985,-3.844L81.992,-3.832C80.226,-4.925 78.443,-5.223 77.107,-4.441L-0.08,40.722C-2.615,42.205 -2.579,46.981 0,51.389" style="fill:rgb(220,220,220);fill-rule:nonzero;"/>
        </g>
        <g transform="matrix(1,0,0,1,95.7274,170.464)">
            <path d="M0,6.75C2.827,11.582 7.371,14.181 10.15,12.555L13.238,10.748C14.403,10.066 15.066,8.746 15.242,7.091L15.248,7.101C15.611,6.443 15.805,5.622 15.831,4.693L16.073,4.552C17.777,3.554 17.753,0.342 16.018,-2.622C14.284,-5.587 11.495,-7.182 9.791,-6.185L9.549,-6.043C8.727,-6.476 7.916,-6.709 7.164,-6.715L7.17,-6.704C5.641,-7.361 4.165,-7.431 3,-6.749L-0.088,-4.942C-2.867,-3.317 -2.827,1.918 0,6.75" style="fill:rgb(220,220,220);fill-rule:nonzero;"/>
        </g>
        <g transform="matrix(1,0,0,1,162.404,148.397)">
            <path d="M0,-29.199C2.535,-30.682 2.499,-35.458 -0.08,-39.866C-2.66,-44.274 -6.805,-46.646 -9.34,-45.163L-86.528,0C-89.063,1.483 -89.027,6.259 -86.447,10.668C-83.868,15.076 -79.722,17.447 -77.187,15.964L0,-29.199Z" style="fill:none;fill-rule:nonzero;stroke:rgb(22,33,45);stroke-width:1px;"/>
        </g>
        <g transform="matrix(1,0,0,1,79.1009,160.992)">
            <path d="M0,-14.481C2.535,-15.964 6.681,-13.593 9.26,-9.185C11.839,-4.777 11.875,-0.001 9.34,1.483" style="fill:none;fill-rule:nonzero;stroke:rgb(22,33,45);stroke-width:1px;"/>
        </g>
        <g transform="matrix(1,0,0,1,79.1009,160.992)">
            <path d="M0,-14.481C2.535,-15.964 6.681,-13.593 9.26,-9.185C11.839,-4.777 11.875,-0.001 9.34,1.483" style="fill:none;fill-rule:nonzero;stroke:rgb(22,33,45);stroke-width:1px;"/>
        </g>
        <g transform="matrix(1,0,0,1,130.433,130.958)">
            <path d="M0,-14.481C2.535,-15.964 6.681,-13.593 9.26,-9.185C11.839,-4.777 11.875,-0.001 9.34,1.483" style="fill:none;fill-rule:nonzero;stroke:rgb(22,33,45);stroke-width:1px;"/>
        </g>
        <g transform="matrix(1,0,0,1,130.433,130.958)">
            <path d="M0,-14.481C2.535,-15.964 6.681,-13.593 9.26,-9.185C11.839,-4.777 11.875,-0.001 9.34,1.483" style="fill:none;fill-rule:nonzero;stroke:rgb(22,33,45);stroke-width:1px;"/>
        </g>
        <g transform="matrix(0.863123,-0.504994,-0.504994,-0.863123,167.658,113.38)">
            <path d="M-3.564,0.609L0.256,0.609C2.248,0.609 3.862,3.417 3.862,6.879C3.861,10.341 2.248,13.148 0.256,13.148L-3.564,13.148" style="fill:none;fill-rule:nonzero;stroke:rgb(22,33,45);stroke-width:1px;"/>
        </g>
        <g transform="matrix(1,0,0,1,76.3365,162.667)">
            <path d="M0,-14.481C2.535,-15.964 6.681,-13.593 9.26,-9.185C11.839,-4.777 11.875,-0.001 9.34,1.483" style="fill:none;fill-rule:nonzero;stroke:rgb(22,33,45);stroke-width:0.5px;"/>
        </g>
        <g transform="matrix(1,0,0,1,76.3365,162.667)">
            <path d="M0,-14.481C2.535,-15.964 6.681,-13.593 9.26,-9.185C11.839,-4.777 11.875,-0.001 9.34,1.483" style="fill:none;fill-rule:nonzero;stroke:rgb(22,33,45);stroke-width:0.5px;"/>
        </g>
        <g transform="matrix(-0.863105,0.505025,0.505025,0.863105,86.0024,160.639)">
            <ellipse cx="3.753" cy="-6.414" rx="4.122" ry="7.432" style="fill:none;stroke:rgb(22,33,45);stroke-width:1px;"/>
        </g>
        <g transform="matrix(1,0,0,1,76.3365,162.667)">
            <path d="M0,-14.481C2.535,-15.964 6.681,-13.593 9.26,-9.185C11.839,-4.777 11.875,-0.001 9.34,1.483" style="fill:none;fill-rule:nonzero;stroke:rgb(22,33,45);stroke-width:0.5px;"/>
        </g>
        <g transform="matrix(1,0,0,1,76.3365,162.667)">
            <path d="M0,-14.481C2.535,-15.964 6.681,-13.593 9.26,-9.185C11.839,-4.777 11.875,-0.001 9.34,1.483" style="fill:none;fill-rule:nonzero;stroke:rgb(22,33,45);stroke-width:0.5px;"/>
        </g>
        <g transform="matrix(-0.863116,0.505005,0.505005,0.863116,82.7495,158.811)">
            <ellipse cx="1.868" cy="-3.194" rx="2.052" ry="3.7" style="fill:none;stroke:rgb(22,33,45);stroke-width:1px;"/>
        </g>
        <g transform="matrix(1,0,0,1,131.717,130.264)">
            <path d="M0,-14.481C2.535,-15.964 6.681,-13.593 9.26,-9.185C11.839,-4.777 11.875,-0.001 9.34,1.483" style="fill:none;fill-rule:nonzero;stroke:rgb(22,33,45);stroke-width:0.5px;"/>
        </g>
        <g transform="matrix(1,0,0,1,149.06,120.117)">
            <path d="M0,-14.481C2.535,-15.964 6.681,-13.593 9.26,-9.185C11.839,-4.777 11.875,-0.001 9.34,1.483" style="fill:none;fill-rule:nonzero;stroke:rgb(22,33,45);stroke-width:0.5px;"/>
        </g>
        <g transform="matrix(1,0,0,1,150.19,119.455)">
            <path d="M0,-14.481C2.535,-15.964 6.681,-13.593 9.26,-9.185C11.839,-4.777 11.875,-0.001 9.34,1.483" style="fill:none;fill-rule:nonzero;stroke:rgb(22,33,45);stroke-width:0.5px;"/>
        </g>
        <g transform="matrix(-0.968564,-0.248766,-0.248766,0.968564,79.5565,159.753)">
            <path d="M1.54,-5.543C1.927,-5.565 2.261,-5.468 2.494,-5.237C3.164,-4.573 2.737,-3.054 1.54,-1.845C0.341,-0.636 -1.173,-0.195 -1.844,-0.86C-2.077,-1.09 -2.177,-1.425 -2.159,-1.813" style="fill:none;fill-rule:nonzero;stroke:rgb(22,33,45);stroke-width:0.5px;"/>
        </g>
        <g transform="matrix(1,0,0,1,108.965,165.522)">
            <path d="M0,15.69C2.778,14.064 2.739,8.83 -0.088,3.998C-2.915,-0.834 -7.459,-3.433 -10.238,-1.807L-13.326,0C-16.104,1.625 -16.065,6.86 -13.238,11.692C-10.411,16.524 -5.867,19.123 -3.088,17.497L0,15.69Z" style="fill:none;fill-rule:nonzero;stroke:rgb(22,33,45);stroke-width:1px;"/>
        </g>
        <g transform="matrix(-0.863104,0.505027,0.505027,0.863104,109.595,179.236)">
            <ellipse cx="5.119" cy="-8.749" rx="5.829" ry="10.137" style="fill:none;stroke:rgb(22,33,45);stroke-width:0.5px;"/>
        </g>
        <g transform="matrix(1,0,0,1,110.976,163.283)">
            <path d="M0,14.283C0.363,13.625 0.557,12.803 0.583,11.875L0.824,11.734C2.529,10.736 2.505,7.524 0.77,4.559C-0.965,1.594 -3.753,0 -5.458,0.997L-5.699,1.138C-6.521,0.706 -7.332,0.473 -8.084,0.467" style="fill:none;fill-rule:nonzero;stroke:rgb(22,33,45);stroke-width:1px;stroke-linecap:round;stroke-linejoin:round;"/>
        </g>
        <g transform="matrix(-0.863104,0.505027,0.505027,0.863104,109.595,179.236)">
            <ellipse cx="5.119" cy="-8.749" rx="5.829" ry="10.137" style="fill:none;stroke:rgb(22,33,45);stroke-width:0.5px;"/>
        </g>
        <g transform="matrix(1,0,0,1,103.125,177.311)">
            <path d="M0,-13.457C2.156,-13.232 4.733,-11.255 6.503,-8.23C8.273,-5.204 8.734,-1.99 7.874,0" style="fill:none;fill-rule:nonzero;stroke:rgb(22,33,45);stroke-width:0.5px;"/>
        </g>
        <g transform="matrix(-0.862992,0.505218,0.505218,0.862992,101.985,174.96)">
            <ellipse cx="0.71" cy="-1.214" rx="0.81" ry="1.407" style="fill:none;stroke:rgb(22,33,45);stroke-width:0.5px;"/>
        </g>
        <g transform="matrix(1,0,0,1,30.3654,107.676)">
            <path d="M0,51.389C2.579,55.797 6.725,58.168 9.26,56.685L86.447,11.522C87.784,10.741 88.398,9.04 88.31,6.965L88.317,6.978L91.614,5.048C93.333,4.043 93.309,0.805 91.56,-2.183C89.811,-5.172 87.001,-6.779 85.282,-5.774L81.985,-3.844L81.992,-3.832C80.226,-4.925 78.443,-5.223 77.107,-4.441L-0.08,40.722C-2.615,42.205 -2.579,46.981 0,51.389" style="fill:rgb(220,220,220);fill-rule:nonzero;"/>
        </g>
        <g transform="matrix(1,0,0,1,50.1357,170.464)">
            <path d="M0,6.75C2.827,11.582 7.371,14.181 10.15,12.555L13.238,10.748C14.403,10.066 15.066,8.746 15.242,7.091L15.248,7.101C15.611,6.443 15.805,5.622 15.831,4.693L16.073,4.552C17.777,3.554 17.753,0.342 16.018,-2.622C14.284,-5.587 11.495,-7.182 9.791,-6.185L9.549,-6.043C8.727,-6.476 7.916,-6.709 7.164,-6.715L7.17,-6.704C5.641,-7.361 4.165,-7.431 3,-6.749L-0.088,-4.942C-2.867,-3.317 -2.827,1.918 0,6.75" style="fill:rgb(220,220,220);fill-rule:nonzero;"/>
        </g>
        <g transform="matrix(1,0,0,1,116.813,148.397)">
            <path d="M0,-29.199C2.535,-30.682 2.499,-35.458 -0.08,-39.866C-2.66,-44.274 -6.805,-46.646 -9.34,-45.163L-86.528,0C-89.063,1.483 -89.027,6.259 -86.447,10.668C-83.868,15.076 -79.722,17.447 -77.187,15.964L0,-29.199Z" style="fill:none;fill-rule:nonzero;stroke:rgb(22,33,45);stroke-width:1px;"/>
        </g>
        <g transform="matrix(1,0,0,1,33.5092,160.992)">
            <path d="M0,-14.481C2.535,-15.964 6.681,-13.593 9.26,-9.185C11.839,-4.777 11.875,-0.001 9.34,1.483" style="fill:none;fill-rule:nonzero;stroke:rgb(22,33,45);stroke-width:1px;"/>
        </g>
        <g transform="matrix(1,0,0,1,33.5092,160.992)">
            <path d="M0,-14.481C2.535,-15.964 6.681,-13.593 9.26,-9.185C11.839,-4.777 11.875,-0.001 9.34,1.483" style="fill:none;fill-rule:nonzero;stroke:rgb(22,33,45);stroke-width:1px;"/>
        </g>
        <g transform="matrix(1,0,0,1,84.8409,130.958)">
            <path d="M0,-14.481C2.535,-15.964 6.681,-13.593 9.26,-9.185C11.839,-4.777 11.875,-0.001 9.34,1.483" style="fill:none;fill-rule:nonzero;stroke:rgb(22,33,45);stroke-width:1px;"/>
        </g>
        <g transform="matrix(1,0,0,1,84.8409,130.958)">
            <path d="M0,-14.481C2.535,-15.964 6.681,-13.593 9.26,-9.185C11.839,-4.777 11.875,-0.001 9.34,1.483" style="fill:none;fill-rule:nonzero;stroke:rgb(22,33,45);stroke-width:1px;"/>
        </g>
        <g transform="matrix(0.863123,-0.504994,-0.504994,-0.863123,122.066,113.38)">
            <path d="M-3.564,0.609L0.256,0.609C2.248,0.609 3.862,3.417 3.862,6.879C3.861,10.341 2.248,13.148 0.256,13.148L-3.564,13.148" style="fill:none;fill-rule:nonzero;stroke:rgb(22,33,45);stroke-width:1px;"/>
        </g>
        <g transform="matrix(1,0,0,1,30.7448,162.667)">
            <path d="M0,-14.481C2.535,-15.964 6.681,-13.593 9.26,-9.185C11.839,-4.777 11.875,-0.001 9.34,1.483" style="fill:none;fill-rule:nonzero;stroke:rgb(22,33,45);stroke-width:0.5px;"/>
        </g>
        <g transform="matrix(1,0,0,1,30.7448,162.667)">
            <path d="M0,-14.481C2.535,-15.964 6.681,-13.593 9.26,-9.185C11.839,-4.777 11.875,-0.001 9.34,1.483" style="fill:none;fill-rule:nonzero;stroke:rgb(22,33,45);stroke-width:0.5px;"/>
        </g>
        <g transform="matrix(-0.863105,0.505025,0.505025,0.863105,40.4107,160.639)">
            <ellipse cx="3.753" cy="-6.414" rx="4.122" ry="7.432" style="fill:none;stroke:rgb(22,33,45);stroke-width:1px;"/>
        </g>
        <g transform="matrix(1,0,0,1,30.7448,162.667)">
            <path d="M0,-14.481C2.535,-15.964 6.681,-13.593 9.26,-9.185C11.839,-4.777 11.875,-0.001 9.34,1.483" style="fill:none;fill-rule:nonzero;stroke:rgb(22,33,45);stroke-width:0.5px;"/>
        </g>
        <g transform="matrix(1,0,0,1,30.7448,162.667)">
            <path d="M0,-14.481C2.535,-15.964 6.681,-13.593 9.26,-9.185C11.839,-4.777 11.875,-0.001 9.34,1.483" style="fill:none;fill-rule:nonzero;stroke:rgb(22,33,45);stroke-width:0.5px;"/>
        </g>
        <g transform="matrix(-0.863116,0.505005,0.505005,0.863116,37.1578,158.811)">
            <ellipse cx="1.868" cy="-3.194" rx="2.052" ry="3.7" style="fill:none;stroke:rgb(22,33,45);stroke-width:1px;"/>
        </g>
        <g transform="matrix(1,0,0,1,86.1257,130.264)">
            <path d="M0,-14.481C2.535,-15.964 6.681,-13.593 9.26,-9.185C11.839,-4.777 11.875,-0.001 9.34,1.483" style="fill:none;fill-rule:nonzero;stroke:rgb(22,33,45);stroke-width:0.5px;"/>
        </g>
        <g transform="matrix(1,0,0,1,103.468,120.117)">
            <path d="M0,-14.481C2.535,-15.964 6.681,-13.593 9.26,-9.185C11.839,-4.777 11.875,-0.001 9.34,1.483" style="fill:none;fill-rule:nonzero;stroke:rgb(22,33,45);stroke-width:0.5px;"/>
        </g>
        <g transform="matrix(1,0,0,1,104.598,119.455)">
            <path d="M0,-14.481C2.535,-15.964 6.681,-13.593 9.26,-9.185C11.839,-4.777 11.875,-0.001 9.34,1.483" style="fill:none;fill-rule:nonzero;stroke:rgb(22,33,45);stroke-width:0.5px;"/>
        </g>
        <g transform="matrix(-0.968564,-0.248766,-0.248766,0.968564,33.9648,159.753)">
            <path d="M1.54,-5.543C1.927,-5.565 2.261,-5.468 2.494,-5.237C3.164,-4.573 2.737,-3.054 1.54,-1.845C0.341,-0.636 -1.173,-0.195 -1.844,-0.86C-2.077,-1.09 -2.177,-1.425 -2.159,-1.813" style="fill:none;fill-rule:nonzero;stroke:rgb(22,33,45);stroke-width:0.5px;"/>
        </g>
        <g transform="matrix(1,0,0,1,63.3736,165.522)">
            <path d="M0,15.69C2.778,14.064 2.739,8.83 -0.088,3.998C-2.915,-0.834 -7.459,-3.433 -10.238,-1.807L-13.326,0C-16.104,1.625 -16.065,6.86 -13.238,11.692C-10.411,16.524 -5.867,19.123 -3.088,17.497L0,15.69Z" style="fill:none;fill-rule:nonzero;stroke:rgb(22,33,45);stroke-width:1px;"/>
        </g>
        <g transform="matrix(-0.863104,0.505027,0.505027,0.863104,64.0031,179.236)">
            <ellipse cx="5.119" cy="-8.749" rx="5.829" ry="10.137" style="fill:none;stroke:rgb(22,33,45);stroke-width:0.5px;"/>
        </g>
        <g transform="matrix(1,0,0,1,65.384,163.283)">
            <path d="M0,14.283C0.363,13.625 0.557,12.803 0.583,11.875L0.824,11.734C2.529,10.736 2.505,7.524 0.77,4.559C-0.965,1.594 -3.753,0 -5.458,0.997L-5.699,1.138C-6.521,0.706 -7.332,0.473 -8.084,0.467" style="fill:none;fill-rule:nonzero;stroke:rgb(22,33,45);stroke-width:1px;stroke-linecap:round;stroke-linejoin:round;"/>
        </g>
        <g transform="matrix(-0.863104,0.505027,0.505027,0.863104,64.0031,179.236)">
            <ellipse cx="5.119" cy="-8.749" rx="5.829" ry="10.137" style="fill:none;stroke:rgb(22,33,45);stroke-width:0.5px;"/>
        </g>
        <g transform="matrix(1,0,0,1,57.5333,177.311)">
            <path d="M0,-13.457C2.156,-13.232 4.733,-11.255 6.503,-8.23C8.273,-5.204 8.734,-1.99 7.874,0" style="fill:none;fill-rule:nonzero;stroke:rgb(22,33,45);stroke-width:0.5px;"/>
        </g>
        <g transform="matrix(-0.862992,0.505218,0.505218,0.862992,56.3929,174.96)">
            <ellipse cx="0.71" cy="-1.214" rx="0.81" ry="1.407" style="fill:none;stroke:rgb(22,33,45);stroke-width:0.5px;"/>
        </g>
    </g>
</svg>
