<?xml version="1.0" encoding="UTF-8" standalone="no"?>
<!DOCTYPE svg PUBLIC "-//W3C//DTD SVG 1.1//EN" "http://www.w3.org/Graphics/SVG/1.1/DTD/svg11.dtd">
<svg width="100%" height="100%" viewBox="0 0 284 284" version="1.1" xmlns="http://www.w3.org/2000/svg" xmlns:xlink="http://www.w3.org/1999/xlink" xml:space="preserve" xmlns:serif="http://www.serif.com/" style="fill-rule:evenodd;clip-rule:evenodd;stroke-linecap:round;stroke-linejoin:round;stroke-miterlimit:10;">
    <g id="Spare-Deck-Clip-Screws" serif:id="Spare Deck Clip Screws">
        <g transform="matrix(1,0,0,1,141.732,165.875)">
            <path d="M0,-48.285C-7.487,-48.285 -13.556,-44.796 -13.556,-40.492L-13.556,-28.41C-13.556,-25.676 -11.102,-23.275 -7.396,-21.884L-7.411,-21.884L-7.411,-4.26C-7.411,-1.907 -4.093,0 0,0C4.093,0 7.411,-1.907 7.411,-4.26L7.411,-21.884L7.396,-21.884C11.102,-23.275 13.556,-25.676 13.556,-28.41L13.556,-40.492C13.556,-44.796 7.487,-48.285 0,-48.285" style="fill:white;fill-rule:nonzero;"/>
        </g>
        <g transform="matrix(1,0,0,1,155.288,133.176)">
            <path d="M0,-7.793C0,-3.489 -6.069,0 -13.556,0C-21.042,0 -27.111,-3.489 -27.111,-7.793" style="fill:none;fill-rule:nonzero;stroke:rgb(22,33,45);stroke-width:1px;"/>
        </g>
        <g transform="matrix(1,0,0,1,148.607,124.326)">
            <path d="M0,2.091L-1.831,-1.883L-8.717,-2.919L-13.761,0.02L-11.907,3.974L-5.021,5.01L0,2.091Z" style="fill:none;fill-rule:nonzero;stroke:rgb(22,33,45);stroke-width:1px;"/>
        </g>
        <g transform="matrix(0,-1,-1,0,143.564,125.082)">
            <path d="M-3.675,3.675L3.675,3.675" style="fill:none;fill-rule:nonzero;stroke:rgb(22,33,45);stroke-width:1px;"/>
        </g>
        <g transform="matrix(0,1,1,0,149.291,124.958)">
            <path d="M-2.515,-2.515L2.515,-2.515" style="fill:none;fill-rule:nonzero;stroke:rgb(22,33,45);stroke-width:1px;"/>
        </g>
        <g transform="matrix(1,0,0,1,155.288,137.465)">
            <path d="M0,-12.082C0,-16.386 -6.069,-19.875 -13.556,-19.875C-21.042,-19.875 -27.111,-16.386 -27.111,-12.082L-27.111,0.001C-27.111,4.304 -21.042,7.793 -13.556,7.793C-6.069,7.793 0,4.304 0,0.001L0,-12.082Z" style="fill:none;fill-rule:nonzero;stroke:rgb(22,33,45);stroke-width:1px;"/>
        </g>
        <g transform="matrix(0,1,1,0,152.674,162.344)">
            <path d="M-18.353,-3.531L-0.729,-3.531C1.624,-3.531 3.531,-6.849 3.531,-10.942C3.531,-15.035 1.624,-18.353 -0.729,-18.353L-18.353,-18.353" style="fill:none;fill-rule:nonzero;stroke:rgb(22,33,45);stroke-width:1px;"/>
        </g>
    </g>
</svg>
