<?xml version="1.0" encoding="UTF-8" standalone="no"?>
<!DOCTYPE svg PUBLIC "-//W3C//DTD SVG 1.1//EN" "http://www.w3.org/Graphics/SVG/1.1/DTD/svg11.dtd">
<svg width="100%" height="100%" viewBox="0 0 284 284" version="1.1" xmlns="http://www.w3.org/2000/svg" xmlns:xlink="http://www.w3.org/1999/xlink" xml:space="preserve" xmlns:serif="http://www.serif.com/" style="fill-rule:evenodd;clip-rule:evenodd;stroke-miterlimit:10;">
    <g id="Spare-Deck-Plate" serif:id="Spare Deck Plate">
        <g transform="matrix(1,0,0,1,65.4866,194.597)">
            <path d="M0,-100.212C0,-100.62 0.547,-100.936 0.547,-100.936L28.703,-117.15C29.947,-117.866 31.478,-117.865 32.721,-117.147L188.351,-27.214C188.351,-27.214 189.455,-26.564 189.455,-25.748L189.455,-21.139C189.455,-20.323 189.094,-20.068 188.351,-19.615L124.901,16.924C123.913,17.492 123.198,17.654 122.259,17.654C121.319,17.654 120.339,17.346 119.664,16.938L-35.34,-72.633C-36.138,-73.073 -36.445,-73.421 -36.445,-74.147L-36.445,-78.756C-36.445,-79.482 -35.956,-79.915 -35.34,-80.27L-7.756,-96.154C-6.956,-96.615 -5.966,-96.594 -5.186,-96.1L-3.98,-95.336L0,-97.641L0,-100.212Z" style="fill:rgb(220,220,220);fill-rule:nonzero;stroke:rgb(22,33,45);stroke-width:1px;"/>
        </g>
        <g transform="matrix(0,-1,-1,0,123.654,120.094)">
            <ellipse cx="-1.406" cy="0" rx="0.807" ry="1.406" style="fill:none;stroke:rgb(22,33,45);stroke-width:0.5px;stroke-linecap:round;stroke-linejoin:round;"/>
        </g>
        <g transform="matrix(0,-1,-1,0,105.573,130.581)">
            <ellipse cx="-1.406" cy="0" rx="0.807" ry="1.406" style="fill:none;stroke:rgb(22,33,45);stroke-width:0.5px;stroke-linecap:round;stroke-linejoin:round;"/>
        </g>
        <g transform="matrix(0,1,1,0,113.972,122.272)">
            <path d="M-1.825,-1.825L1.825,-1.825" style="fill:none;fill-rule:nonzero;stroke:rgb(22,33,45);stroke-width:0.5px;stroke-linecap:round;stroke-linejoin:round;"/>
        </g>
        <g transform="matrix(0,1,1,0,119.104,122.556)">
            <path d="M-1.862,-1.862L1.862,-1.862" style="fill:none;fill-rule:nonzero;stroke:rgb(22,33,45);stroke-width:0.5px;stroke-linecap:round;stroke-linejoin:round;"/>
        </g>
        <g transform="matrix(0.43265,0.901562,0.901562,-0.43265,217.67,189.777)">
            <path d="M1.412,0.188C1.478,0.295 1.539,0.407 1.595,0.525C2.11,1.597 2.028,2.706 1.412,3.001C0.798,3.296 -0.118,2.667 -0.633,1.594C-0.96,0.912 -1.047,0.216 -0.908,-0.276" style="fill:none;fill-rule:nonzero;stroke:rgb(22,33,45);stroke-width:0.5px;stroke-linecap:round;stroke-linejoin:round;"/>
        </g>
        <g transform="matrix(1,0,0,1,220.577,189.967)">
            <path d="M0,0.511C-0.391,0.202 -1.027,0 -1.744,0C-1.91,0 -2.071,0.011 -2.226,0.031" style="fill:none;fill-rule:nonzero;stroke:rgb(22,33,45);stroke-width:0.5px;stroke-linecap:round;stroke-linejoin:round;"/>
        </g>
        <g transform="matrix(1,0,0,1,91.1692,128.005)">
            <path d="M0,-2.909L21.123,-15.143C22.353,-15.874 24.629,-15.774 25.792,-15.144L46.907,-2.921C47.45,-2.607 47.836,-2.243 47.836,-1.466C47.836,-0.688 47.345,-0.279 46.907,-0.028L25.792,12.202C24.474,12.965 22.575,12.934 21.123,12.188L0,-0.018C-0.375,-0.259 -1.009,-0.671 -1.009,-1.447C-1.009,-2.223 -0.561,-2.584 0,-2.909Z" style="fill:none;fill-rule:nonzero;stroke:rgb(22,33,45);stroke-width:1px;stroke-linecap:round;stroke-linejoin:round;"/>
        </g>
        <g transform="matrix(1,0,0,1,103.929,119.717)">
            <path d="M0,5.523L8.219,0.731C9.45,0 11.725,0.1 12.888,0.73L21.131,5.511" style="fill:none;fill-rule:nonzero;stroke:rgb(22,33,45);stroke-width:1px;stroke-linecap:round;stroke-linejoin:round;"/>
        </g>
        <g transform="matrix(1,0,0,1,125.06,133.681)">
            <path d="M0,-8.453C0.543,-8.139 0.929,-7.775 0.929,-6.998C0.929,-6.22 0.438,-5.811 0,-5.56L-8.243,-0.763C-9.561,0 -11.46,-0.031 -12.912,-0.777L-21.131,-5.55C-21.506,-5.791 -22.14,-6.203 -22.14,-6.979C-22.14,-7.755 -21.692,-8.116 -21.131,-8.441" style="fill:none;fill-rule:nonzero;stroke:rgb(22,33,45);stroke-width:1px;stroke-linecap:round;stroke-linejoin:round;"/>
        </g>
        <g transform="matrix(1,0,0,1,104.622,123.414)">
            <path d="M0,5.119L7.526,0.731C8.756,0 11.032,0.1 12.194,0.73L19.745,5.11" style="fill:none;fill-rule:nonzero;stroke:rgb(22,33,45);stroke-width:1px;stroke-linecap:round;stroke-linejoin:round;"/>
        </g>
        <g transform="matrix(1,0,0,1,60.301,185.876)">
            <path d="M0,-87.379C-0.78,-87.873 -1.77,-87.894 -2.57,-87.433L-30.154,-71.549C-30.77,-71.194 -31.259,-70.761 -31.259,-70.035C-31.259,-69.309 -30.952,-68.961 -30.154,-68.521L124.85,21.05C125.525,21.458 126.505,21.766 127.445,21.766C128.384,21.766 129.099,21.604 130.086,21.035L157.576,5.205C157.956,5.002 158.15,4.777 158.15,4.43C158.15,4.082 157.787,3.839 157.576,3.712L155.58,2.513C154.903,2.09 154.489,1.522 154.489,0.898C154.489,-0.408 156.304,-1.468 158.544,-1.468C159.644,-1.468 160.642,-1.212 161.372,-0.797L163.419,0.359C164.215,0.799 165.441,0.676 165.985,0.363L193.536,-15.503C194.28,-15.957 194.641,-16.211 194.641,-17.027C194.641,-17.843 193.536,-18.493 193.536,-18.493L37.907,-108.426C36.664,-109.144 35.132,-109.145 33.888,-108.429L5.733,-92.215C5.733,-92.215 5.186,-91.899 5.186,-91.491C5.186,-91.083 5.417,-90.89 5.733,-90.71L7.625,-89.626C8.328,-89.235 8.89,-88.557 8.89,-87.949C8.89,-86.57 7.157,-85.508 4.785,-85.508C3.413,-85.508 2.316,-85.948 1.558,-86.392L0,-87.379Z" style="fill:none;fill-rule:nonzero;stroke:rgb(22,33,45);stroke-width:1px;stroke-linecap:round;stroke-linejoin:round;"/>
        </g>
        <g transform="matrix(0,1,1,0,69.4342,95.5797)">
            <path d="M-1.194,-3.947L1.807,-3.947C2.216,-3.947 2.408,-3.717 2.588,-3.4L3.672,-1.509C3.672,-1.509 3.776,-1.298 3.947,-1.194" style="fill:none;fill-rule:nonzero;stroke:rgb(22,33,45);stroke-width:1px;stroke-linecap:round;stroke-linejoin:round;"/>
        </g>
        <g transform="matrix(-0.865352,0.501165,0.501165,0.865352,62.3522,100.103)">
            <path d="M-4.29,-1.152L0.31,-1.152" style="fill:none;fill-rule:nonzero;stroke:rgb(22,33,45);stroke-width:1px;stroke-linecap:round;stroke-linejoin:round;"/>
        </g>
        <g transform="matrix(1,0,0,1,254.942,159.243)">
            <path d="M0,9.606L0,14.215C0,15.031 -0.361,15.285 -1.105,15.739L-64.555,52.277C-65.542,52.846 -66.257,53.008 -67.196,53.008C-68.136,53.008 -69.116,52.7 -69.791,52.292L-224.795,-37.279C-225.593,-37.719 -225.9,-38.067 -225.9,-38.793L-225.9,-43.402" style="fill:none;fill-rule:nonzero;stroke:rgb(22,33,45);stroke-width:1px;stroke-linecap:round;stroke-linejoin:round;"/>
        </g>
        <g transform="matrix(1,0,0,1,226.286,193.703)">
            <path d="M0,-7.464L0,-4.484C0,-4.484 -6.26,-0.91 -7.835,0L-7.835,-3.397" style="fill:none;fill-rule:nonzero;stroke:rgb(22,33,45);stroke-width:1px;stroke-linecap:round;stroke-linejoin:round;"/>
        </g>
        <g transform="matrix(0.0350661,0.999385,0.999385,-0.0350661,221.054,183.208)">
            <path d="M4.86,-5.539C4.349,-4.778 4.046,-3.629 4.091,-2.354C4.13,-1.254 4.419,-0.267 4.86,0.449L6.088,2.453C6.555,3.234 6.475,4.463 6.181,5.018" style="fill:none;fill-rule:nonzero;stroke:rgb(22,33,45);stroke-width:1px;stroke-linecap:round;stroke-linejoin:round;"/>
        </g>
        <g transform="matrix(1,0,0,1,38.7272,119.253)">
            <path d="M0,-12.767C0,-13.543 0.448,-13.905 1.009,-14.229L19.79,-25.012C20.006,-25.126 20.518,-25.203 20.803,-25.06C21.088,-24.918 22.016,-24.379 22.016,-24.379L22.878,-22.271L23.778,-15.02L23.781,-11.734C23.781,-11.734 30.119,-8.075 30.549,-7.83C30.978,-7.584 31.173,-7.175 31.173,-6.817L31.173,6.292L21.184,12.111C20.764,12.356 20.029,12.436 19.468,12.111L1.009,1.444C0.634,1.204 0,0.792 0,0.016L0,-12.767Z" style="fill:white;fill-rule:nonzero;stroke:rgb(22,33,45);stroke-width:1px;"/>
        </g>
        <g transform="matrix(1,0,0,1,190.169,135.044)">
            <path d="M0,-12.767L0,0.016C0,0.792 -0.634,1.204 -1.009,1.444L-19.468,12.111C-20.029,12.436 -20.764,12.356 -21.184,12.111L-31.173,6.292L-31.173,-6.817C-31.173,-7.175 -30.978,-7.584 -30.549,-7.83C-30.119,-8.075 -23.781,-11.734 -23.781,-11.734L-23.778,-15.02L-22.878,-22.271L-22.016,-24.379C-22.016,-24.379 -21.088,-24.918 -20.803,-25.06C-20.518,-25.203 -20.006,-25.126 -19.79,-25.012L-1.009,-14.229C-0.448,-13.905 0,-13.543 0,-12.767Z" style="fill:white;fill-rule:nonzero;stroke:rgb(22,33,45);stroke-width:1px;"/>
        </g>
        <g transform="matrix(1,0,0,1,122.506,75.5965)">
            <path d="M0,19.613L0,7.135C0,6.722 -0.219,6.339 -0.576,6.13L-19.011,-4.685C-20.394,-5.497 -22.104,-5.509 -23.498,-4.717L-42.364,5.996C-42.729,6.203 -42.955,6.59 -42.955,7.01L-42.955,19.613L-33.491,25.122L-9.273,25.122L0,19.613Z" style="fill:rgb(0,108,250);fill-rule:nonzero;stroke:rgb(22,33,45);stroke-width:1px;"/>
        </g>
        <g transform="matrix(1,0,0,1,148.149,170.98)">
            <path d="M0,-25.5C0,-25.5 -6.222,-21.731 -11.414,-18.586L-11.426,-18.621L-28.583,-18.621C-33.816,-21.801 -40.05,-25.602 -40.05,-25.602L-41.4,-24.784L-41.4,-11.637L-22.705,-0.918C-21.457,-0.198 -18.882,0.102 -17.161,-0.889L1.308,-11.525L1.308,-24.62L0,-25.5Z" style="fill:white;fill-rule:nonzero;"/>
        </g>
        <g transform="matrix(1,0,0,1,130.987,146.369)">
            <path d="M0,23.722L18.47,13.086L18.47,-0.009L17.161,-0.889C17.161,-0.889 -0.634,9.891 -1.145,10.198C-1.657,10.504 -3.457,10.75 -4.418,10.218C-5.38,9.686 -22.889,-0.991 -22.889,-0.991L-24.239,-0.173L-24.239,12.975L-5.543,23.693C-4.295,24.414 -1.721,24.713 0,23.722Z" style="fill:none;fill-rule:nonzero;stroke:rgb(22,33,45);stroke-width:1px;stroke-linecap:round;stroke-linejoin:round;"/>
        </g>
        <g transform="matrix(1,0,0,1,119.566,152.359)">
            <path d="M0,0L17.157,0" style="fill:none;fill-rule:nonzero;stroke:rgb(22,33,45);stroke-width:1px;stroke-linecap:round;stroke-linejoin:round;"/>
        </g>
        <g transform="matrix(1,0,0,1,122.619,154.212)">
            <path d="M0,0L11.13,0" style="fill:none;fill-rule:nonzero;stroke:rgb(22,33,45);stroke-width:0.5px;stroke-linecap:round;stroke-linejoin:round;"/>
        </g>
        <g transform="matrix(1,0,0,1,38.7272,119.253)">
            <path d="M0,-12.767C0,-13.543 0.448,-13.905 1.009,-14.229L19.79,-25.012C20.006,-25.126 20.518,-25.203 20.803,-25.06C21.088,-24.918 22.016,-24.379 22.016,-24.379L22.878,-22.271L23.778,-15.02L23.781,-11.734C23.781,-11.734 30.119,-8.075 30.549,-7.83C30.978,-7.584 31.173,-7.175 31.173,-6.817L31.173,6.292L21.184,12.111C20.764,12.356 20.029,12.436 19.468,12.111L1.009,1.444C0.634,1.204 0,0.792 0,0.016L0,-12.767Z" style="fill:none;fill-rule:nonzero;stroke:rgb(22,33,45);stroke-width:1px;stroke-linecap:round;stroke-linejoin:round;"/>
        </g>
        <g transform="matrix(1,0,0,1,62.5329,106.486)">
            <path d="M0,23.351L0,18.287L-0.818,12.832L-1.556,11.546C-1.556,11.546 -2.187,11.994 -2.387,12.095C-2.587,12.196 -3.319,12.541 -4.103,12.095L-22.562,1.428C-22.937,1.188 -23.571,0.776 -23.571,0" style="fill:none;fill-rule:nonzero;stroke:rgb(22,33,45);stroke-width:0.5px;stroke-linecap:round;stroke-linejoin:round;"/>
        </g>
        <g transform="matrix(1,0,0,1,60.9771,95.566)">
            <path d="M0,22.466L-19.191,11.388C-19.709,11.089 -19.708,10.341 -19.189,10.043L-1.696,0L-0.619,2.224L0.271,9.332L0.271,14.763L2.623,16.174L-4.067,20.119" style="fill:none;fill-rule:nonzero;stroke:rgb(22,33,45);stroke-width:0.5px;stroke-linecap:round;stroke-linejoin:round;"/>
        </g>
        <g transform="matrix(1,0,0,1,52.4242,114.273)">
            <path d="M0,-14.771L1.152,-12.392L2.042,-5.284L2.042,0" style="fill:none;fill-rule:nonzero;stroke:rgb(22,33,45);stroke-width:0.5px;stroke-linecap:round;stroke-linejoin:round;"/>
        </g>
        <g transform="matrix(1,0,0,1,51.242,113.613)">
            <path d="M0,-13.432L1.19,-10.975L2.08,-3.867L2.08,0" style="fill:none;fill-rule:nonzero;stroke:rgb(22,33,45);stroke-width:0.5px;stroke-linecap:round;stroke-linejoin:round;"/>
        </g>
        <g transform="matrix(1,0,0,1,47.3547,111.211)">
            <path d="M0,-8.798L0.951,-6.835L1.806,0" style="fill:none;fill-rule:nonzero;stroke:rgb(22,33,45);stroke-width:0.5px;stroke-linecap:round;stroke-linejoin:round;"/>
        </g>
        <g transform="matrix(1,0,0,1,46.1725,110.44)">
            <path d="M0,-7.348L0.988,-5.307L1.653,0" style="fill:none;fill-rule:nonzero;stroke:rgb(22,33,45);stroke-width:0.5px;stroke-linecap:round;stroke-linejoin:round;"/>
        </g>
        <g transform="matrix(0,1,1,0,57.387,106.326)">
            <path d="M-6.145,-6.145L6.145,-6.145" style="fill:none;fill-rule:nonzero;stroke:rgb(22,33,45);stroke-width:0.5px;stroke-linecap:round;stroke-linejoin:round;"/>
        </g>
        <g transform="matrix(0,1,1,0,49.3695,106.289)">
            <path d="M-3.197,-3.197L3.197,-3.197" style="fill:none;fill-rule:nonzero;stroke:rgb(22,33,45);stroke-width:0.5px;stroke-linecap:round;stroke-linejoin:round;"/>
        </g>
        <g transform="matrix(1,0,0,1,59.2808,112.471)">
            <path d="M0,-16.905L0,-1.846L3.08,0" style="fill:none;fill-rule:nonzero;stroke:rgb(22,33,45);stroke-width:0.5px;stroke-linecap:round;stroke-linejoin:round;"/>
        </g>
        <g transform="matrix(-0.857886,0.513841,0.513841,0.857886,55.5489,114.542)">
            <path d="M-5.214,-1.442L0.399,-1.442" style="fill:none;fill-rule:nonzero;stroke:rgb(22,33,45);stroke-width:0.5px;stroke-linecap:round;stroke-linejoin:round;"/>
        </g>
        <g transform="matrix(1,0,0,1,62.2397,113.96)">
            <path d="M0,-6.607L0,-4.337L7.66,0" style="fill:none;fill-rule:nonzero;stroke:rgb(22,33,45);stroke-width:0.5px;stroke-linecap:round;stroke-linejoin:round;"/>
        </g>
        <g transform="matrix(1,0,0,1,190.169,135.044)">
            <path d="M0,-12.767L0,0.016C0,0.792 -0.634,1.204 -1.009,1.444L-19.468,12.111C-20.029,12.436 -20.764,12.356 -21.184,12.111L-31.173,6.292L-31.173,-6.817C-31.173,-7.175 -30.978,-7.584 -30.549,-7.83C-30.119,-8.075 -23.781,-11.734 -23.781,-11.734L-23.778,-15.02L-22.878,-22.271L-22.016,-24.379C-22.016,-24.379 -21.088,-24.918 -20.803,-25.06C-20.518,-25.203 -20.006,-25.126 -19.79,-25.012L-1.009,-14.229C-0.448,-13.905 0,-13.543 0,-12.767Z" style="fill:none;fill-rule:nonzero;stroke:rgb(22,33,45);stroke-width:1px;stroke-linecap:round;stroke-linejoin:round;"/>
        </g>
        <g transform="matrix(1,0,0,1,189.935,145.628)">
            <path d="M0,-23.351C0,-22.575 -0.634,-22.163 -1.009,-21.923L-19.468,-11.256C-20.252,-10.81 -20.984,-11.155 -21.184,-11.256C-21.384,-11.357 -22.016,-11.805 -22.016,-11.805L-22.753,-10.518L-23.571,-5.064L-23.571,0" style="fill:none;fill-rule:nonzero;stroke:rgb(22,33,45);stroke-width:0.5px;stroke-linecap:round;stroke-linejoin:round;"/>
        </g>
        <g transform="matrix(1,0,0,1,167.919,111.357)">
            <path d="M0,22.466L19.191,11.388C19.709,11.089 19.708,10.341 19.189,10.043L1.696,0L0.619,2.224L-0.271,9.332L-0.271,14.763L-2.623,16.174L4.067,20.119" style="fill:none;fill-rule:nonzero;stroke:rgb(22,33,45);stroke-width:0.5px;stroke-linecap:round;stroke-linejoin:round;"/>
        </g>
        <g transform="matrix(1,0,0,1,176.472,130.064)">
            <path d="M0,-14.771L-1.152,-12.392L-2.042,-5.284L-2.042,0" style="fill:none;fill-rule:nonzero;stroke:rgb(22,33,45);stroke-width:0.5px;stroke-linecap:round;stroke-linejoin:round;"/>
        </g>
        <g transform="matrix(1,0,0,1,177.654,129.404)">
            <path d="M0,-13.432L-1.19,-10.975L-2.08,-3.867L-2.08,0" style="fill:none;fill-rule:nonzero;stroke:rgb(22,33,45);stroke-width:0.5px;stroke-linecap:round;stroke-linejoin:round;"/>
        </g>
        <g transform="matrix(1,0,0,1,181.542,127.002)">
            <path d="M0,-8.798L-0.951,-6.835L-1.806,0" style="fill:none;fill-rule:nonzero;stroke:rgb(22,33,45);stroke-width:0.5px;stroke-linecap:round;stroke-linejoin:round;"/>
        </g>
        <g transform="matrix(1,0,0,1,182.724,126.231)">
            <path d="M0,-7.348L-0.988,-5.307L-1.653,0" style="fill:none;fill-rule:nonzero;stroke:rgb(22,33,45);stroke-width:0.5px;stroke-linecap:round;stroke-linejoin:round;"/>
        </g>
        <g transform="matrix(0,1,1,0,183.799,122.117)">
            <path d="M-6.145,-6.145L6.145,-6.145" style="fill:none;fill-rule:nonzero;stroke:rgb(22,33,45);stroke-width:0.5px;stroke-linecap:round;stroke-linejoin:round;"/>
        </g>
        <g transform="matrix(0,1,1,0,185.921,122.08)">
            <path d="M-3.197,-3.197L3.197,-3.197" style="fill:none;fill-rule:nonzero;stroke:rgb(22,33,45);stroke-width:0.5px;stroke-linecap:round;stroke-linejoin:round;"/>
        </g>
        <g transform="matrix(1,0,0,1,169.616,128.262)">
            <path d="M0,-16.905L0,-1.846L-3.08,0" style="fill:none;fill-rule:nonzero;stroke:rgb(22,33,45);stroke-width:0.5px;stroke-linecap:round;stroke-linejoin:round;"/>
        </g>
        <g transform="matrix(0.857886,0.513841,0.513841,-0.857886,170.699,125.384)">
            <path d="M-0.399,-1.442L5.214,-1.442" style="fill:none;fill-rule:nonzero;stroke:rgb(22,33,45);stroke-width:0.5px;stroke-linecap:round;stroke-linejoin:round;"/>
        </g>
        <g transform="matrix(1,0,0,1,166.657,129.751)">
            <path d="M0,-6.607L0,-4.337L-7.66,0" style="fill:none;fill-rule:nonzero;stroke:rgb(22,33,45);stroke-width:0.5px;stroke-linecap:round;stroke-linejoin:round;"/>
        </g>
        <g transform="matrix(1,0,0,1,122.506,75.5965)">
            <path d="M0,19.613L0,7.135C0,6.722 -0.219,6.339 -0.576,6.13L-19.011,-4.685C-20.394,-5.497 -22.104,-5.509 -23.498,-4.717L-42.364,5.996C-42.729,6.203 -42.955,6.59 -42.955,7.01L-42.955,19.613L-33.491,25.122L-9.273,25.122L0,19.613Z" style="fill:none;fill-rule:nonzero;stroke:rgb(22,33,45);stroke-width:1px;stroke-linecap:round;stroke-linejoin:round;"/>
        </g>
        <g transform="matrix(1,0,0,1,82.0601,98.1003)">
            <path d="M0,-15.409L1.064,-13.167L2.1,-6.245L2.1,-1.564L4.773,0L11.482,-3.985L9.136,-5.318" style="fill:none;fill-rule:nonzero;stroke:rgb(22,33,45);stroke-width:0.5px;stroke-linecap:round;stroke-linejoin:round;"/>
        </g>
        <g transform="matrix(1,0,0,1,90.3783,92.7821)">
            <path d="M0,-14.618L1.064,-12.376L2.1,-5.454L2.1,-0.773L0.818,0L0.818,-4.882L-0.218,-11.803L-1.282,-14.045" style="fill:none;fill-rule:nonzero;stroke:rgb(22,33,45);stroke-width:0.5px;stroke-linecap:round;stroke-linejoin:round;"/>
        </g>
        <g transform="matrix(1,0,0,1,93.78,88.9286)">
            <path d="M0,-12.914L0.88,-11.059L1.916,-4.137L1.916,0.685L3.198,-0.029L3.198,-4.71L2.162,-11.631L1.229,-13.599" style="fill:none;fill-rule:nonzero;stroke:rgb(22,33,45);stroke-width:0.5px;stroke-linecap:round;stroke-linejoin:round;"/>
        </g>
        <g transform="matrix(1,0,0,1,88.9038,96.0825)">
            <path d="M0,-17.349L0,-2.755L-4.744,0" style="fill:none;fill-rule:nonzero;stroke:rgb(22,33,45);stroke-width:0.5px;stroke-linecap:round;stroke-linejoin:round;"/>
        </g>
        <g transform="matrix(0.869434,0.494049,0.494049,-0.869434,89.5306,92.6878)">
            <path d="M-0.229,-0.866L3.277,-0.866" style="fill:none;fill-rule:nonzero;stroke:rgb(22,33,45);stroke-width:0.5px;stroke-linecap:round;stroke-linejoin:round;"/>
        </g>
        <g transform="matrix(1,0,0,1,119.969,98.1003)">
            <path d="M0,-15.409L-1.064,-13.167L-2.1,-6.245L-2.1,-1.564L-4.773,0L-11.482,-3.985L-9.136,-5.318" style="fill:none;fill-rule:nonzero;stroke:rgb(22,33,45);stroke-width:0.5px;stroke-linecap:round;stroke-linejoin:round;"/>
        </g>
        <g transform="matrix(1,0,0,1,111.651,92.7821)">
            <path d="M0,-14.618L-1.064,-12.376L-2.1,-5.454L-2.1,-0.773L-0.818,0L-0.818,-4.882L0.218,-11.803L1.282,-14.045" style="fill:none;fill-rule:nonzero;stroke:rgb(22,33,45);stroke-width:0.5px;stroke-linecap:round;stroke-linejoin:round;"/>
        </g>
        <g transform="matrix(1,0,0,1,108.249,88.9286)">
            <path d="M0,-12.914L-0.88,-11.059L-1.916,-4.137L-1.916,0.685L-3.198,-0.029L-3.198,-4.71L-2.162,-11.631L-1.229,-13.599" style="fill:none;fill-rule:nonzero;stroke:rgb(22,33,45);stroke-width:0.5px;stroke-linecap:round;stroke-linejoin:round;"/>
        </g>
        <g transform="matrix(1,0,0,1,113.126,96.0825)">
            <path d="M0,-17.349L0,-2.755L4.744,0" style="fill:none;fill-rule:nonzero;stroke:rgb(22,33,45);stroke-width:0.5px;stroke-linecap:round;stroke-linejoin:round;"/>
        </g>
        <g transform="matrix(-0.869434,0.494049,0.494049,0.869434,110.704,95.6996)">
            <path d="M-3.277,-0.866L0.229,-0.866" style="fill:none;fill-rule:nonzero;stroke:rgb(22,33,45);stroke-width:0.5px;stroke-linecap:round;stroke-linejoin:round;"/>
        </g>
        <g transform="matrix(1,0,0,1,119.042,72.2698)">
            <path d="M0,24.839L0,20.158L1.036,13.237L2.1,10.994L-16.609,0.492C-17.482,0.002 -18.546,0 -19.421,0.488L-38.264,10.994L-37.2,13.237L-36.164,20.158L-36.164,24.839" style="fill:none;fill-rule:nonzero;stroke:rgb(22,33,45);stroke-width:0.5px;stroke-linecap:round;stroke-linejoin:round;"/>
        </g>
        <g transform="matrix(1,0,0,1,105.051,84.8376)">
            <path d="M0,1.961L-2.618,0.491C-3.491,0.001 -4.555,0 -5.43,0.487L-8.073,1.961" style="fill:none;fill-rule:nonzero;stroke:rgb(22,33,45);stroke-width:0.5px;stroke-linecap:round;stroke-linejoin:round;"/>
        </g>
        <g transform="matrix(1,0,0,1,106.333,88.5137)">
            <path d="M0,1.1L2.155,0L3.218,0.55" style="fill:none;fill-rule:nonzero;stroke:rgb(22,33,45);stroke-width:0.5px;stroke-linecap:round;stroke-linejoin:round;"/>
        </g>
        <g transform="matrix(1,0,0,1,95.6965,88.5137)">
            <path d="M0,1.1L-2.345,0L-3.218,0.43" style="fill:none;fill-rule:nonzero;stroke:rgb(22,33,45);stroke-width:0.5px;stroke-linecap:round;stroke-linejoin:round;"/>
        </g>
        <g transform="matrix(0,-1,-1,0,100.98,94.0571)">
            <ellipse cx="-2.987" cy="0" rx="1.616" ry="2.987" style="fill:none;stroke:rgb(22,33,45);stroke-width:0.5px;stroke-linecap:round;stroke-linejoin:round;"/>
        </g>
    </g>
</svg>
