<?xml version="1.0" encoding="UTF-8" standalone="no"?>
<!DOCTYPE svg PUBLIC "-//W3C//DTD SVG 1.1//EN" "http://www.w3.org/Graphics/SVG/1.1/DTD/svg11.dtd">
<svg width="100%" height="100%" viewBox="0 0 284 284" version="1.1" xmlns="http://www.w3.org/2000/svg" xmlns:xlink="http://www.w3.org/1999/xlink" xml:space="preserve" xmlns:serif="http://www.serif.com/" style="fill-rule:evenodd;clip-rule:evenodd;stroke-miterlimit:10;">
    <g id="E-Stop">
        <g transform="matrix(57.6877,0,0,-57.6877,46.9797,152.735)">
            <path d="M0,0.101L0.066,-0.055C0.372,0.035 0.78,-0.095 0.895,-0.162L0.895,-0.162L1,0.009L1,0.01C0.918,0.058 0.666,0.162 0.37,0.162C0.251,0.162 0.125,0.145 0,0.101Z" style="fill:url(#_Linear1);fill-rule:nonzero;"/>
        </g>
        <g transform="matrix(1,0,0,1,98.3618,154.065)">
            <path d="M0,8.435C-3.502,6.473 -7.395,5.099 -11.283,3.906C-15.19,2.73 -19.178,1.81 -23.212,1.159C-27.246,0.514 -31.335,0.186 -35.423,0.239C-39.507,0.3 -43.604,0.756 -47.558,1.855C-43.628,0.676 -39.528,0.133 -35.429,-0.011C-31.326,-0.148 -27.209,0.098 -23.139,0.664C-19.069,1.236 -15.037,2.081 -11.074,3.186C-7.117,4.316 -3.198,5.598 0.502,7.57C0.746,7.7 0.838,8.003 0.708,8.247C0.578,8.49 0.275,8.583 0.032,8.453C0.029,8.451 0.027,8.45 0.025,8.449L0,8.435Z" style="fill:rgb(22,33,45);fill-rule:nonzero;"/>
        </g>
        <g transform="matrix(1,0,0,1,104.416,143.238)">
            <path d="M0,9.343C-2.102,8.123 -4.367,7.122 -6.653,6.216C-8.934,5.289 -11.28,4.52 -13.641,3.808C-18.371,2.409 -23.226,1.415 -28.133,0.866C-33.039,0.328 -38.002,0.191 -42.931,0.632C-47.855,1.108 -52.719,2.121 -57.437,3.647C-52.747,2.043 -47.889,0.943 -42.955,0.383C-38.016,-0.143 -33.027,-0.089 -28.081,0.369C-23.134,0.838 -18.228,1.756 -13.434,3.087C-11.041,3.765 -8.661,4.502 -6.336,5.401C-4.004,6.281 -1.705,7.248 0.502,8.478C0.743,8.613 0.83,8.917 0.696,9.159C0.561,9.4 0.257,9.486 0.015,9.352C0.013,9.351 0.012,9.35 0.01,9.349L0,9.343Z" style="fill:rgb(22,33,45);fill-rule:nonzero;"/>
        </g>
        <g transform="matrix(1,0,0,1,163.551,210.764)">
            <path d="M0,-97.21C0,-97.21 25.296,-82.69 26.332,-82.09C27.369,-81.49 29.278,-80.618 29.278,-78.327L29.278,-30.327C29.278,-29.454 28.841,-28.527 28.405,-27.927C27.969,-27.327 21.641,-20.672 21.641,-20.672L-5.631,-4.909C-5.631,-4.909 -15.395,-1.69 -18.177,-0.981C-20.959,-0.272 -24.777,0 -27.668,-1.69C-30.559,-3.381 -64.704,-23.127 -65.741,-23.781C-66.777,-24.436 -68.141,-25.036 -68.141,-27.436L-68.141,-74.945C-68.141,-76.09 -67.541,-77.4 -67.104,-77.727C-66.668,-78.054 -60.122,-85.036 -60.122,-85.036L-38.906,-97.21" style="fill:rgb(255,214,0);fill-rule:nonzero;stroke:rgb(22,33,45);stroke-width:1px;"/>
        </g>
        <g transform="matrix(1,0,0,1,163.551,210.764)">
            <path d="M0,-97.21C0,-97.21 25.296,-82.69 26.332,-82.09C27.369,-81.49 29.278,-80.618 29.278,-78.327L29.278,-30.327C29.278,-29.454 28.841,-28.527 28.405,-27.927C27.969,-27.327 21.641,-20.672 21.641,-20.672L-5.631,-4.909C-5.631,-4.909 -15.395,-1.69 -18.177,-0.981C-20.959,-0.272 -24.777,0 -27.668,-1.69C-30.559,-3.381 -64.704,-23.127 -65.741,-23.781C-66.777,-24.436 -68.141,-25.036 -68.141,-27.436L-68.141,-74.945C-68.141,-76.09 -67.541,-77.4 -67.104,-77.727C-66.668,-78.054 -60.122,-85.036 -60.122,-85.036L-38.906,-97.21" style="fill:none;fill-rule:nonzero;stroke:rgb(22,33,45);stroke-width:1px;stroke-linecap:round;stroke-linejoin:round;"/>
        </g>
        <g transform="matrix(1,0,0,1,192.823,162.374)">
            <path d="M0,-30.152C0,-29.279 -0.431,-28.528 -0.867,-27.928C-1.303,-27.328 -7.631,-20.673 -7.631,-20.673L-34.903,-4.91C-34.903,-4.91 -44.667,-1.691 -47.449,-0.982C-50.231,-0.273 -54.049,0 -56.94,-1.691C-59.831,-3.382 -93.976,-23.128 -95.012,-23.782C-96.049,-24.437 -97.398,-25.019 -97.398,-26.875" style="fill:none;fill-rule:nonzero;stroke:rgb(22,33,45);stroke-width:1px;stroke-linecap:round;stroke-linejoin:round;"/>
        </g>
        <g transform="matrix(1,0,0,1,162.849,154.132)">
            <path d="M0,-37.798L16.398,-28.268L15.008,-27.572C15.008,-27.572 12.103,-26.263 12.103,-23.563C12.103,-20.863 15.212,-19.268 15.212,-19.268L18.894,-17.1L-10.315,0L-14.365,-2.413C-14.365,-2.413 -17.065,-4.131 -21.32,-4.131C-25.656,-4.131 -28.274,-2.495 -28.274,-2.495L-29.829,-1.677L-53.924,-15.545L-52.656,-16.24C-52.656,-16.24 -49.547,-17.672 -49.547,-20.495C-49.547,-22.868 -52.411,-24.348 -52.411,-24.348L-56.256,-26.713L-37.424,-37.537" style="fill:none;fill-rule:nonzero;stroke:rgb(22,33,45);stroke-width:1px;stroke-linecap:round;stroke-linejoin:round;"/>
        </g>
        <g transform="matrix(1,0,0,1,106.593,155.56)">
            <path d="M0,-28.141L-1.432,-27.118L-1.432,-25.973L2.495,-23.559C2.495,-23.559 7.65,-20.573 0.982,-17.055C0.982,-17.055 -0.695,-15.5 1.268,-14.355C3.232,-13.209 24.791,-0.773 24.791,-0.773C24.791,-0.773 26.182,0.086 28.064,-0.773C28.555,-0.936 29.373,-1.427 29.373,-1.427C29.373,-1.427 35.141,-4.291 40.541,-1.427C40.95,-1.182 43.486,0.332 43.486,0.332C43.486,0.332 45.409,1.927 48.395,0.332C51.382,-1.264 75.764,-15.5 75.764,-15.5C75.764,-15.5 76.745,-16.196 76.745,-17.014C76.745,-17.832 76.623,-18.527 75.477,-19.1C74.332,-19.673 70.364,-21.514 70.364,-23.723C70.364,-25.932 72.573,-26.832 72.573,-26.832L74.618,-27.896L74.618,-28.591L72.013,-30.068" style="fill:none;fill-rule:nonzero;stroke:rgb(22,33,45);stroke-width:1px;stroke-linecap:round;stroke-linejoin:round;"/>
        </g>
        <g transform="matrix(0.0913866,0.995815,0.995815,-0.0913866,154.551,148.088)">
            <path d="M-23.584,7.851L-15.213,7.851C-9.9,7.363 -6.283,-0.548 -7.134,-9.82C-7.985,-19.092 -12.981,-26.214 -18.294,-25.726L-26.341,-24.077" style="fill:none;fill-rule:nonzero;stroke:rgb(22,33,45);stroke-width:1px;"/>
        </g>
        <g transform="matrix(0,1,1,0,160.079,184.878)">
            <path d="M-24.196,-24.196L24.196,-24.196" style="fill:none;fill-rule:nonzero;stroke:rgb(22,33,45);stroke-width:0.5px;"/>
        </g>
        <g transform="matrix(0,1,1,0,169.624,185.587)">
            <path d="M-24.196,-24.196L24.196,-24.196" style="fill:none;fill-rule:nonzero;stroke:rgb(22,33,45);stroke-width:0.5px;"/>
        </g>
        <g transform="matrix(0,1,1,0,181.952,181.66)">
            <path d="M-24.196,-24.196L24.196,-24.196" style="fill:none;fill-rule:nonzero;stroke:rgb(22,33,45);stroke-width:0.5px;"/>
        </g>
        <g transform="matrix(0,1,1,0,209.224,165.896)">
            <path d="M-24.196,-24.196L24.196,-24.196" style="fill:none;fill-rule:nonzero;stroke:rgb(22,33,45);stroke-width:0.5px;"/>
        </g>
        <g transform="matrix(1,0,0,1,166.449,113.582)">
            <path d="M0,-13.793C0.076,-13.363 0.116,-12.927 0.116,-12.485C0.116,-11.432 -0.106,-10.408 -0.523,-9.428L-4.917,7.959C-6.48,12.654 -13.682,16.202 -22.33,16.202C-31.177,16.202 -38.511,12.488 -39.841,7.633L-44.372,-10.047C-44.637,-10.837 -44.775,-11.652 -44.775,-12.485C-44.775,-13.067 -44.707,-13.639 -44.576,-14.2L-43.059,-19.723C-41.596,-25.531 -32.872,-29.995 -22.33,-29.995C-12.234,-29.995 -3.806,-25.902 -1.825,-20.453L0,-13.793Z" style="fill:rgb(227,30,30);fill-rule:nonzero;stroke:rgb(22,33,45);stroke-width:1px;"/>
        </g>
        <g transform="matrix(1,0,0,1,166.449,113.582)">
            <path d="M0,-13.793C0.076,-13.363 0.116,-12.927 0.116,-12.485C0.116,-11.432 -0.106,-10.408 -0.523,-9.428L-4.917,7.959C-6.48,12.654 -13.682,16.202 -22.33,16.202C-31.177,16.202 -38.511,12.488 -39.841,7.633L-44.372,-10.047C-44.637,-10.837 -44.775,-11.652 -44.775,-12.485C-44.775,-13.067 -44.707,-13.639 -44.576,-14.2L-43.059,-19.723C-41.596,-25.531 -32.872,-29.995 -22.33,-29.995C-12.234,-29.995 -3.806,-25.902 -1.825,-20.453L0,-13.793Z" style="fill:none;fill-rule:nonzero;stroke:rgb(22,33,45);stroke-width:1px;"/>
        </g>
        <g transform="matrix(0,-1,-1,0,144.12,74.6438)">
            <ellipse cx="-20.946" cy="0" rx="12.002" ry="20.946" style="fill:none;stroke:rgb(22,33,45);stroke-width:1px;"/>
        </g>
        <g transform="matrix(1,0,0,1,166.565,113.958)">
            <path d="M0,-12.862C0,-5.759 -10.049,0 -22.445,0C-34.842,0 -44.891,-5.759 -44.891,-12.862" style="fill:none;fill-rule:nonzero;stroke:rgb(22,33,45);stroke-width:1px;"/>
        </g>
    </g>
    <defs>
        <linearGradient id="_Linear1" x1="0" y1="0" x2="1" y2="0" gradientUnits="userSpaceOnUse" gradientTransform="matrix(1,0,0,-1,0,-8.7367e-06)"><stop offset="0" style="stop-color:white;stop-opacity:1"/><stop offset="0.78" style="stop-color:rgb(91,91,96);stop-opacity:1"/><stop offset="1" style="stop-color:rgb(87,87,92);stop-opacity:1"/></linearGradient>
    </defs>
</svg>
