<?xml version="1.0" encoding="UTF-8" standalone="no"?>
<!DOCTYPE svg PUBLIC "-//W3C//DTD SVG 1.1//EN" "http://www.w3.org/Graphics/SVG/1.1/DTD/svg11.dtd">
<svg width="100%" height="100%" viewBox="0 0 284 284" version="1.1" xmlns="http://www.w3.org/2000/svg" xmlns:xlink="http://www.w3.org/1999/xlink" xml:space="preserve" xmlns:serif="http://www.serif.com/" style="fill-rule:evenodd;clip-rule:evenodd;stroke-miterlimit:10;">
    <g id="Spare-Deck-Clips" serif:id="Spare Deck Clips">
        <g transform="matrix(1,0,0,1,240.935,133.799)">
            <path d="M0,-2.453C-0.559,-2.767 -8.386,-7.253 -8.495,-7.321C-8.605,-7.389 -8.782,-7.526 -8.782,-7.948L-8.782,-15.639L-10.309,-26.494L-11.523,-29.739C-11.523,-29.739 -12.995,-30.452 -13.296,-30.6C-13.595,-30.748 -14.477,-30.873 -14.953,-30.6L-42.73,-14.651C-44.207,-13.803 -44.611,-12.854 -44.611,-12.189L-44.611,9.449C-44.611,10.758 -43.865,11.484 -42.73,12.133L-15.464,27.899C-14.577,28.42 -13.636,28.379 -12.709,27.899C-11.641,27.346 0.286,20.388 0.286,20.388C0.491,20.265 0.682,20.129 0.682,19.597L0.682,-1.635C0.682,-1.853 0.559,-2.139 0,-2.453" style="fill:white;fill-rule:nonzero;"/>
        </g>
        <g transform="matrix(1,0,0,1,240.935,133.799)">
            <path d="M0,-2.453C-0.559,-2.767 -8.386,-7.253 -8.495,-7.321C-8.605,-7.389 -8.782,-7.526 -8.782,-7.948L-8.782,-15.639L-10.309,-26.494L-11.523,-29.739C-11.523,-29.739 -12.995,-30.452 -13.296,-30.6C-13.595,-30.748 -14.477,-30.873 -14.953,-30.6L-42.73,-14.651C-44.207,-13.803 -44.611,-12.854 -44.611,-12.189L-44.611,9.449C-44.611,10.758 -43.865,11.484 -42.73,12.133L-15.464,27.899C-14.577,28.42 -13.636,28.379 -12.709,27.899C-11.641,27.346 0.286,20.388 0.286,20.388C0.491,20.265 0.682,20.129 0.682,19.597L0.682,-1.635C0.682,-1.853 0.559,-2.139 0,-2.453Z" style="fill:none;fill-rule:nonzero;stroke:rgb(22,33,45);stroke-width:1px;"/>
        </g>
        <g transform="matrix(1,0,0,1,196.324,143.534)">
            <path d="M0,-21.925L0,-0.287C0,1.022 0.747,1.749 1.882,2.397L29.148,18.163C30.034,18.684 30.975,18.643 31.902,18.163C32.971,17.61 44.898,10.652 44.898,10.652C45.102,10.53 45.293,10.393 45.293,9.861L45.293,-11.37C45.293,-11.589 45.17,-11.875 44.611,-12.189C44.052,-12.502 36.225,-16.989 36.116,-17.057C36.007,-17.125 35.83,-17.261 35.83,-17.684L35.83,-25.375L34.302,-36.23L33.089,-39.475C33.089,-39.475 31.616,-40.188 31.316,-40.336C31.016,-40.484 30.134,-40.609 29.659,-40.336L1.882,-24.387C0.404,-23.539 0,-22.59 0,-21.925C0,-20.616 0.747,-19.89 1.882,-19.241L29.148,-3.475C29.823,-3.107 31.132,-3.168 31.807,-3.577C32.482,-3.986 33.348,-4.518 33.348,-4.518L34.384,-2.923L35.673,6.016L35.673,13.789L45.293,8.155" style="fill:none;fill-rule:nonzero;stroke:rgb(22,33,45);stroke-width:1px;stroke-linecap:round;stroke-linejoin:round;"/>
        </g>
        <g transform="matrix(1,0,0,1,229.672,104.059)">
            <path d="M0,34.957L-28.825,18.234C-29.564,17.768 -29.904,17.074 -28.825,16.453L-0.259,0" style="fill:none;fill-rule:nonzero;stroke:rgb(22,33,45);stroke-width:1px;stroke-linecap:round;stroke-linejoin:round;"/>
        </g>
        <g transform="matrix(1,0,0,1,227.313,135.416)">
            <path d="M0,-29.945L1.214,-26.7L2.741,-15.845L2.741,-8.154L6.484,-6.054L-3.846,0" style="fill:none;fill-rule:nonzero;stroke:rgb(22,33,45);stroke-width:1px;stroke-linecap:round;stroke-linejoin:round;"/>
        </g>
        <g transform="matrix(1,0,0,1,217.235,133.391)">
            <path d="M0,-22.206L1.214,-18.961L2.741,-8.106L2.741,0" style="fill:none;fill-rule:nonzero;stroke:rgb(22,33,45);stroke-width:1px;stroke-linecap:round;stroke-linejoin:round;"/>
        </g>
        <g transform="matrix(1,0,0,1,215.393,132.274)">
            <path d="M0,-19.841L1.214,-16.596L2.741,-5.741L2.741,0" style="fill:none;fill-rule:nonzero;stroke:rgb(22,33,45);stroke-width:1px;stroke-linecap:round;stroke-linejoin:round;"/>
        </g>
        <g transform="matrix(1,0,0,1,209.923,129.113)">
            <path d="M0,-13.672L1.214,-10.427L2.681,0" style="fill:none;fill-rule:nonzero;stroke:rgb(22,33,45);stroke-width:1px;stroke-linecap:round;stroke-linejoin:round;"/>
        </g>
        <g transform="matrix(1,0,0,1,208.081,127.839)">
            <path d="M0,-11.15L1.214,-7.905L2.326,0" style="fill:none;fill-rule:nonzero;stroke:rgb(22,33,45);stroke-width:1px;stroke-linecap:round;stroke-linejoin:round;"/>
        </g>
        <g transform="matrix(-0.861849,0.507166,0.507166,0.861849,221.501,133.334)">
            <path d="M-7.546,-2.055L0.56,-2.056" style="fill:none;fill-rule:nonzero;stroke:rgb(22,33,45);stroke-width:1px;stroke-linecap:round;stroke-linejoin:round;"/>
        </g>
        <g transform="matrix(1,0,0,1,229.716,144.071)">
            <path d="M0,-4.987C0.341,-5.031 0.698,-5.055 1.063,-5.055C3.622,-5.055 5.696,-3.906 5.696,-2.488C5.696,-1.152 3.854,-0.054 1.5,0.068" style="fill:none;fill-rule:nonzero;stroke:rgb(22,33,45);stroke-width:1px;stroke-linecap:round;stroke-linejoin:round;"/>
        </g>
        <g transform="matrix(0.864188,0.503169,0.503169,-0.864188,227.996,126.713)">
            <path d="M-0.379,-1.404L5.2,-1.404" style="fill:none;fill-rule:nonzero;stroke:rgb(22,33,45);stroke-width:1px;stroke-linecap:round;stroke-linejoin:round;"/>
        </g>
        <g transform="matrix(0,1,1,0,238.095,116.603)">
            <path d="M-11.132,-11.132L11.132,-11.132" style="fill:none;fill-rule:nonzero;stroke:rgb(22,33,45);stroke-width:0.5px;stroke-linecap:round;stroke-linejoin:round;"/>
        </g>
        <g transform="matrix(0,1,1,0,224.013,121.359)">
            <path d="M-9.097,-9.097L9.097,-9.097" style="fill:none;fill-rule:nonzero;stroke:rgb(22,33,45);stroke-width:0.5px;stroke-linecap:round;stroke-linejoin:round;"/>
        </g>
        <g transform="matrix(0,1,1,0,212.688,121.524)">
            <path d="M-4.835,-4.835L4.835,-4.835" style="fill:none;fill-rule:nonzero;stroke:rgb(22,33,45);stroke-width:0.5px;stroke-linecap:round;stroke-linejoin:round;"/>
        </g>
        <g transform="matrix(0.969851,0.2437,0.2437,-0.969851,231.131,142.183)">
            <path d="M-0.049,-0.394C1.152,-0.123 2.297,-0.142 3.185,-0.394" style="fill:none;fill-rule:nonzero;stroke:rgb(22,33,45);stroke-width:0.5px;stroke-linecap:round;stroke-linejoin:round;"/>
        </g>
        <g transform="matrix(0,-1,-1,0,208.955,135.182)">
            <path d="M-10.75,10.75L10.75,10.75" style="fill:none;fill-rule:nonzero;stroke:rgb(22,33,45);stroke-width:0.5px;stroke-linecap:round;stroke-linejoin:round;"/>
        </g>
        <g transform="matrix(0,1,1,0,236.291,150.878)">
            <path d="M-10.819,-10.819L10.819,-10.819" style="fill:none;fill-rule:nonzero;stroke:rgb(22,33,45);stroke-width:0.5px;stroke-linecap:round;stroke-linejoin:round;"/>
        </g>
        <g transform="matrix(0,1,1,0,239.001,150.828)">
            <path d="M-10.871,-10.871L10.871,-10.871" style="fill:none;fill-rule:nonzero;stroke:rgb(22,33,45);stroke-width:0.5px;stroke-linecap:round;stroke-linejoin:round;"/>
        </g>
        <g transform="matrix(1,0,0,1,185.642,133.799)">
            <path d="M0,-2.453C-0.559,-2.767 -8.386,-7.253 -8.495,-7.321C-8.605,-7.389 -8.782,-7.526 -8.782,-7.948L-8.782,-15.639L-10.309,-26.494L-11.523,-29.739C-11.523,-29.739 -12.995,-30.452 -13.296,-30.6C-13.595,-30.748 -14.477,-30.873 -14.953,-30.6L-42.73,-14.651C-44.207,-13.803 -44.611,-12.854 -44.611,-12.189L-44.611,9.449C-44.611,10.758 -43.865,11.484 -42.73,12.133L-15.464,27.899C-14.577,28.42 -13.636,28.379 -12.709,27.899C-11.641,27.346 0.286,20.388 0.286,20.388C0.491,20.265 0.682,20.129 0.682,19.597L0.682,-1.635C0.682,-1.853 0.559,-2.139 0,-2.453" style="fill:white;fill-rule:nonzero;"/>
        </g>
        <g transform="matrix(1,0,0,1,185.642,133.799)">
            <path d="M0,-2.453C-0.559,-2.767 -8.386,-7.253 -8.495,-7.321C-8.605,-7.389 -8.782,-7.526 -8.782,-7.948L-8.782,-15.639L-10.309,-26.494L-11.523,-29.739C-11.523,-29.739 -12.995,-30.452 -13.296,-30.6C-13.595,-30.748 -14.477,-30.873 -14.953,-30.6L-42.73,-14.651C-44.207,-13.803 -44.611,-12.854 -44.611,-12.189L-44.611,9.449C-44.611,10.758 -43.865,11.484 -42.73,12.133L-15.464,27.899C-14.577,28.42 -13.636,28.379 -12.709,27.899C-11.641,27.346 0.286,20.388 0.286,20.388C0.491,20.265 0.682,20.129 0.682,19.597L0.682,-1.635C0.682,-1.853 0.559,-2.139 0,-2.453Z" style="fill:none;fill-rule:nonzero;stroke:rgb(22,33,45);stroke-width:1px;"/>
        </g>
        <g transform="matrix(1,0,0,1,141.031,143.534)">
            <path d="M0,-21.925L0,-0.287C0,1.022 0.747,1.749 1.882,2.397L29.148,18.163C30.034,18.684 30.975,18.643 31.902,18.163C32.971,17.61 44.898,10.652 44.898,10.652C45.102,10.53 45.293,10.393 45.293,9.861L45.293,-11.37C45.293,-11.589 45.17,-11.875 44.611,-12.189C44.052,-12.502 36.225,-16.989 36.116,-17.057C36.007,-17.125 35.83,-17.261 35.83,-17.684L35.83,-25.375L34.302,-36.23L33.089,-39.475C33.089,-39.475 31.616,-40.188 31.316,-40.336C31.016,-40.484 30.134,-40.609 29.659,-40.336L1.882,-24.387C0.404,-23.539 0,-22.59 0,-21.925C0,-20.616 0.747,-19.89 1.882,-19.241L29.148,-3.475C29.823,-3.107 31.132,-3.168 31.807,-3.577C32.482,-3.986 33.348,-4.518 33.348,-4.518L34.384,-2.923L35.673,6.016L35.673,13.789L45.293,8.155" style="fill:none;fill-rule:nonzero;stroke:rgb(22,33,45);stroke-width:1px;stroke-linecap:round;stroke-linejoin:round;"/>
        </g>
        <g transform="matrix(1,0,0,1,174.379,104.059)">
            <path d="M0,34.957L-28.825,18.234C-29.564,17.768 -29.904,17.074 -28.825,16.453L-0.259,0" style="fill:none;fill-rule:nonzero;stroke:rgb(22,33,45);stroke-width:1px;stroke-linecap:round;stroke-linejoin:round;"/>
        </g>
        <g transform="matrix(1,0,0,1,172.019,135.416)">
            <path d="M0,-29.945L1.214,-26.7L2.741,-15.845L2.741,-8.154L6.484,-6.054L-3.846,0" style="fill:none;fill-rule:nonzero;stroke:rgb(22,33,45);stroke-width:1px;stroke-linecap:round;stroke-linejoin:round;"/>
        </g>
        <g transform="matrix(1,0,0,1,161.942,133.391)">
            <path d="M0,-22.206L1.214,-18.961L2.741,-8.106L2.741,0" style="fill:none;fill-rule:nonzero;stroke:rgb(22,33,45);stroke-width:1px;stroke-linecap:round;stroke-linejoin:round;"/>
        </g>
        <g transform="matrix(1,0,0,1,160.1,132.274)">
            <path d="M0,-19.841L1.214,-16.596L2.741,-5.741L2.741,0" style="fill:none;fill-rule:nonzero;stroke:rgb(22,33,45);stroke-width:1px;stroke-linecap:round;stroke-linejoin:round;"/>
        </g>
        <g transform="matrix(1,0,0,1,154.629,129.113)">
            <path d="M0,-13.672L1.214,-10.427L2.681,0" style="fill:none;fill-rule:nonzero;stroke:rgb(22,33,45);stroke-width:1px;stroke-linecap:round;stroke-linejoin:round;"/>
        </g>
        <g transform="matrix(1,0,0,1,152.787,127.839)">
            <path d="M0,-11.15L1.214,-7.905L2.326,0" style="fill:none;fill-rule:nonzero;stroke:rgb(22,33,45);stroke-width:1px;stroke-linecap:round;stroke-linejoin:round;"/>
        </g>
        <g transform="matrix(-0.861849,0.507166,0.507166,0.861849,166.208,133.334)">
            <path d="M-7.546,-2.055L0.56,-2.056" style="fill:none;fill-rule:nonzero;stroke:rgb(22,33,45);stroke-width:1px;stroke-linecap:round;stroke-linejoin:round;"/>
        </g>
        <g transform="matrix(1,0,0,1,174.423,144.071)">
            <path d="M0,-4.987C0.341,-5.031 0.698,-5.055 1.063,-5.055C3.622,-5.055 5.696,-3.906 5.696,-2.488C5.696,-1.152 3.854,-0.054 1.5,0.068" style="fill:none;fill-rule:nonzero;stroke:rgb(22,33,45);stroke-width:1px;stroke-linecap:round;stroke-linejoin:round;"/>
        </g>
        <g transform="matrix(0.864188,0.503169,0.503169,-0.864188,172.702,126.713)">
            <path d="M-0.379,-1.404L5.2,-1.404" style="fill:none;fill-rule:nonzero;stroke:rgb(22,33,45);stroke-width:1px;stroke-linecap:round;stroke-linejoin:round;"/>
        </g>
        <g transform="matrix(0,1,1,0,182.801,116.603)">
            <path d="M-11.132,-11.132L11.132,-11.132" style="fill:none;fill-rule:nonzero;stroke:rgb(22,33,45);stroke-width:0.5px;stroke-linecap:round;stroke-linejoin:round;"/>
        </g>
        <g transform="matrix(0,1,1,0,168.72,121.359)">
            <path d="M-9.097,-9.097L9.097,-9.097" style="fill:none;fill-rule:nonzero;stroke:rgb(22,33,45);stroke-width:0.5px;stroke-linecap:round;stroke-linejoin:round;"/>
        </g>
        <g transform="matrix(0,1,1,0,157.395,121.524)">
            <path d="M-4.835,-4.835L4.835,-4.835" style="fill:none;fill-rule:nonzero;stroke:rgb(22,33,45);stroke-width:0.5px;stroke-linecap:round;stroke-linejoin:round;"/>
        </g>
        <g transform="matrix(0.969851,0.2437,0.2437,-0.969851,175.838,142.183)">
            <path d="M-0.049,-0.394C1.152,-0.123 2.297,-0.142 3.185,-0.394" style="fill:none;fill-rule:nonzero;stroke:rgb(22,33,45);stroke-width:0.5px;stroke-linecap:round;stroke-linejoin:round;"/>
        </g>
        <g transform="matrix(0,-1,-1,0,153.662,135.182)">
            <path d="M-10.75,10.75L10.75,10.75" style="fill:none;fill-rule:nonzero;stroke:rgb(22,33,45);stroke-width:0.5px;stroke-linecap:round;stroke-linejoin:round;"/>
        </g>
        <g transform="matrix(0,1,1,0,180.997,150.878)">
            <path d="M-10.819,-10.819L10.819,-10.819" style="fill:none;fill-rule:nonzero;stroke:rgb(22,33,45);stroke-width:0.5px;stroke-linecap:round;stroke-linejoin:round;"/>
        </g>
        <g transform="matrix(0,1,1,0,183.708,150.828)">
            <path d="M-10.871,-10.871L10.871,-10.871" style="fill:none;fill-rule:nonzero;stroke:rgb(22,33,45);stroke-width:0.5px;stroke-linecap:round;stroke-linejoin:round;"/>
        </g>
        <g transform="matrix(1,0,0,1,130.349,133.799)">
            <path d="M0,-2.453C-0.559,-2.767 -8.386,-7.253 -8.495,-7.321C-8.605,-7.389 -8.782,-7.526 -8.782,-7.948L-8.782,-15.639L-10.309,-26.494L-11.523,-29.739C-11.523,-29.739 -12.995,-30.452 -13.296,-30.6C-13.595,-30.748 -14.477,-30.873 -14.953,-30.6L-42.73,-14.651C-44.207,-13.803 -44.611,-12.854 -44.611,-12.189L-44.611,9.449C-44.611,10.758 -43.865,11.484 -42.73,12.133L-15.464,27.899C-14.577,28.42 -13.636,28.379 -12.709,27.899C-11.641,27.346 0.286,20.388 0.286,20.388C0.491,20.265 0.682,20.129 0.682,19.597L0.682,-1.635C0.682,-1.853 0.559,-2.139 0,-2.453" style="fill:white;fill-rule:nonzero;"/>
        </g>
        <g transform="matrix(1,0,0,1,130.349,133.799)">
            <path d="M0,-2.453C-0.559,-2.767 -8.386,-7.253 -8.495,-7.321C-8.605,-7.389 -8.782,-7.526 -8.782,-7.948L-8.782,-15.639L-10.309,-26.494L-11.523,-29.739C-11.523,-29.739 -12.995,-30.452 -13.296,-30.6C-13.595,-30.748 -14.477,-30.873 -14.953,-30.6L-42.73,-14.651C-44.207,-13.803 -44.611,-12.854 -44.611,-12.189L-44.611,9.449C-44.611,10.758 -43.865,11.484 -42.73,12.133L-15.464,27.899C-14.577,28.42 -13.636,28.379 -12.709,27.899C-11.641,27.346 0.286,20.388 0.286,20.388C0.491,20.265 0.682,20.129 0.682,19.597L0.682,-1.635C0.682,-1.853 0.559,-2.139 0,-2.453Z" style="fill:none;fill-rule:nonzero;stroke:rgb(22,33,45);stroke-width:1px;"/>
        </g>
        <g transform="matrix(1,0,0,1,85.7376,143.534)">
            <path d="M0,-21.925L0,-0.287C0,1.022 0.747,1.749 1.882,2.397L29.148,18.163C30.034,18.684 30.975,18.643 31.902,18.163C32.971,17.61 44.898,10.652 44.898,10.652C45.102,10.53 45.293,10.393 45.293,9.861L45.293,-11.37C45.293,-11.589 45.17,-11.875 44.611,-12.189C44.052,-12.502 36.225,-16.989 36.116,-17.057C36.007,-17.125 35.83,-17.261 35.83,-17.684L35.83,-25.375L34.302,-36.23L33.089,-39.475C33.089,-39.475 31.616,-40.188 31.316,-40.336C31.016,-40.484 30.134,-40.609 29.659,-40.336L1.882,-24.387C0.404,-23.539 0,-22.59 0,-21.925C0,-20.616 0.747,-19.89 1.882,-19.241L29.148,-3.475C29.823,-3.107 31.132,-3.168 31.807,-3.577C32.482,-3.986 33.348,-4.518 33.348,-4.518L34.384,-2.923L35.673,6.016L35.673,13.789L45.293,8.155" style="fill:none;fill-rule:nonzero;stroke:rgb(22,33,45);stroke-width:1px;stroke-linecap:round;stroke-linejoin:round;"/>
        </g>
        <g transform="matrix(1,0,0,1,119.086,104.059)">
            <path d="M0,34.957L-28.825,18.234C-29.564,17.768 -29.904,17.074 -28.825,16.453L-0.259,0" style="fill:none;fill-rule:nonzero;stroke:rgb(22,33,45);stroke-width:1px;stroke-linecap:round;stroke-linejoin:round;"/>
        </g>
        <g transform="matrix(1,0,0,1,116.726,135.416)">
            <path d="M0,-29.945L1.214,-26.7L2.741,-15.845L2.741,-8.154L6.484,-6.054L-3.846,0" style="fill:none;fill-rule:nonzero;stroke:rgb(22,33,45);stroke-width:1px;stroke-linecap:round;stroke-linejoin:round;"/>
        </g>
        <g transform="matrix(1,0,0,1,106.649,133.391)">
            <path d="M0,-22.206L1.214,-18.961L2.741,-8.106L2.741,0" style="fill:none;fill-rule:nonzero;stroke:rgb(22,33,45);stroke-width:1px;stroke-linecap:round;stroke-linejoin:round;"/>
        </g>
        <g transform="matrix(1,0,0,1,104.807,132.274)">
            <path d="M0,-19.841L1.214,-16.596L2.741,-5.741L2.741,0" style="fill:none;fill-rule:nonzero;stroke:rgb(22,33,45);stroke-width:1px;stroke-linecap:round;stroke-linejoin:round;"/>
        </g>
        <g transform="matrix(1,0,0,1,99.3361,129.113)">
            <path d="M0,-13.672L1.214,-10.427L2.681,0" style="fill:none;fill-rule:nonzero;stroke:rgb(22,33,45);stroke-width:1px;stroke-linecap:round;stroke-linejoin:round;"/>
        </g>
        <g transform="matrix(1,0,0,1,97.4941,127.839)">
            <path d="M0,-11.15L1.214,-7.905L2.326,0" style="fill:none;fill-rule:nonzero;stroke:rgb(22,33,45);stroke-width:1px;stroke-linecap:round;stroke-linejoin:round;"/>
        </g>
        <g transform="matrix(-0.861849,0.507166,0.507166,0.861849,110.915,133.334)">
            <path d="M-7.546,-2.055L0.56,-2.056" style="fill:none;fill-rule:nonzero;stroke:rgb(22,33,45);stroke-width:1px;stroke-linecap:round;stroke-linejoin:round;"/>
        </g>
        <g transform="matrix(1,0,0,1,119.13,144.071)">
            <path d="M0,-4.987C0.341,-5.031 0.698,-5.055 1.063,-5.055C3.622,-5.055 5.696,-3.906 5.696,-2.488C5.696,-1.152 3.854,-0.054 1.5,0.068" style="fill:none;fill-rule:nonzero;stroke:rgb(22,33,45);stroke-width:1px;stroke-linecap:round;stroke-linejoin:round;"/>
        </g>
        <g transform="matrix(0.864188,0.503169,0.503169,-0.864188,117.409,126.713)">
            <path d="M-0.379,-1.404L5.2,-1.404" style="fill:none;fill-rule:nonzero;stroke:rgb(22,33,45);stroke-width:1px;stroke-linecap:round;stroke-linejoin:round;"/>
        </g>
        <g transform="matrix(0,1,1,0,127.508,116.603)">
            <path d="M-11.132,-11.132L11.132,-11.132" style="fill:none;fill-rule:nonzero;stroke:rgb(22,33,45);stroke-width:0.5px;stroke-linecap:round;stroke-linejoin:round;"/>
        </g>
        <g transform="matrix(0,1,1,0,113.426,121.359)">
            <path d="M-9.097,-9.097L9.097,-9.097" style="fill:none;fill-rule:nonzero;stroke:rgb(22,33,45);stroke-width:0.5px;stroke-linecap:round;stroke-linejoin:round;"/>
        </g>
        <g transform="matrix(0,1,1,0,102.102,121.524)">
            <path d="M-4.835,-4.835L4.835,-4.835" style="fill:none;fill-rule:nonzero;stroke:rgb(22,33,45);stroke-width:0.5px;stroke-linecap:round;stroke-linejoin:round;"/>
        </g>
        <g transform="matrix(0.969851,0.2437,0.2437,-0.969851,120.545,142.183)">
            <path d="M-0.049,-0.394C1.152,-0.123 2.297,-0.142 3.185,-0.394" style="fill:none;fill-rule:nonzero;stroke:rgb(22,33,45);stroke-width:0.5px;stroke-linecap:round;stroke-linejoin:round;"/>
        </g>
        <g transform="matrix(0,-1,-1,0,98.3689,135.182)">
            <path d="M-10.75,10.75L10.75,10.75" style="fill:none;fill-rule:nonzero;stroke:rgb(22,33,45);stroke-width:0.5px;stroke-linecap:round;stroke-linejoin:round;"/>
        </g>
        <g transform="matrix(0,1,1,0,125.704,150.878)">
            <path d="M-10.819,-10.819L10.819,-10.819" style="fill:none;fill-rule:nonzero;stroke:rgb(22,33,45);stroke-width:0.5px;stroke-linecap:round;stroke-linejoin:round;"/>
        </g>
        <g transform="matrix(0,1,1,0,128.415,150.828)">
            <path d="M-10.871,-10.871L10.871,-10.871" style="fill:none;fill-rule:nonzero;stroke:rgb(22,33,45);stroke-width:0.5px;stroke-linecap:round;stroke-linejoin:round;"/>
        </g>
        <g transform="matrix(1,0,0,1,75.0557,133.799)">
            <path d="M0,-2.453C-0.559,-2.767 -8.386,-7.253 -8.495,-7.321C-8.605,-7.389 -8.782,-7.526 -8.782,-7.948L-8.782,-15.639L-10.309,-26.494L-11.523,-29.739C-11.523,-29.739 -12.995,-30.452 -13.296,-30.6C-13.595,-30.748 -14.477,-30.873 -14.953,-30.6L-42.73,-14.651C-44.207,-13.803 -44.611,-12.854 -44.611,-12.189L-44.611,9.449C-44.611,10.758 -43.865,11.484 -42.73,12.133L-15.464,27.899C-14.577,28.42 -13.636,28.379 -12.709,27.899C-11.641,27.346 0.286,20.388 0.286,20.388C0.491,20.265 0.682,20.129 0.682,19.597L0.682,-1.635C0.682,-1.853 0.559,-2.139 0,-2.453" style="fill:rgb(0,108,250);fill-rule:nonzero;"/>
        </g>
        <g transform="matrix(1,0,0,1,75.0557,133.799)">
            <path d="M0,-2.453C-0.559,-2.767 -8.386,-7.253 -8.495,-7.321C-8.605,-7.389 -8.782,-7.526 -8.782,-7.948L-8.782,-15.639L-10.309,-26.494L-11.523,-29.739C-11.523,-29.739 -12.995,-30.452 -13.296,-30.6C-13.595,-30.748 -14.477,-30.873 -14.953,-30.6L-42.73,-14.651C-44.207,-13.803 -44.611,-12.854 -44.611,-12.189L-44.611,9.449C-44.611,10.758 -43.865,11.484 -42.73,12.133L-15.464,27.899C-14.577,28.42 -13.636,28.379 -12.709,27.899C-11.641,27.346 0.286,20.388 0.286,20.388C0.491,20.265 0.682,20.129 0.682,19.597L0.682,-1.635C0.682,-1.853 0.559,-2.139 0,-2.453Z" style="fill:none;fill-rule:nonzero;stroke:rgb(22,33,45);stroke-width:1px;"/>
        </g>
        <g transform="matrix(1,0,0,1,30.4444,143.534)">
            <path d="M0,-21.925L0,-0.287C0,1.022 0.747,1.749 1.882,2.397L29.148,18.163C30.034,18.684 30.975,18.643 31.902,18.163C32.971,17.61 44.898,10.652 44.898,10.652C45.102,10.53 45.293,10.393 45.293,9.861L45.293,-11.37C45.293,-11.589 45.17,-11.875 44.611,-12.189C44.052,-12.502 36.225,-16.989 36.116,-17.057C36.007,-17.125 35.83,-17.261 35.83,-17.684L35.83,-25.375L34.302,-36.23L33.089,-39.475C33.089,-39.475 31.616,-40.188 31.316,-40.336C31.016,-40.484 30.134,-40.609 29.659,-40.336L1.882,-24.387C0.404,-23.539 0,-22.59 0,-21.925C0,-20.616 0.747,-19.89 1.882,-19.241L29.148,-3.475C29.823,-3.107 31.132,-3.168 31.807,-3.577C32.482,-3.986 33.348,-4.518 33.348,-4.518L34.384,-2.923L35.673,6.016L35.673,13.789L45.293,8.155" style="fill:none;fill-rule:nonzero;stroke:rgb(22,33,45);stroke-width:1px;stroke-linecap:round;stroke-linejoin:round;"/>
        </g>
        <g transform="matrix(1,0,0,1,63.7925,104.059)">
            <path d="M0,34.957L-28.825,18.234C-29.564,17.768 -29.904,17.074 -28.825,16.453L-0.259,0" style="fill:none;fill-rule:nonzero;stroke:rgb(22,33,45);stroke-width:1px;stroke-linecap:round;stroke-linejoin:round;"/>
        </g>
        <g transform="matrix(1,0,0,1,61.433,135.416)">
            <path d="M0,-29.945L1.214,-26.7L2.741,-15.845L2.741,-8.154L6.484,-6.054L-3.846,0" style="fill:none;fill-rule:nonzero;stroke:rgb(22,33,45);stroke-width:1px;stroke-linecap:round;stroke-linejoin:round;"/>
        </g>
        <g transform="matrix(1,0,0,1,51.3556,133.391)">
            <path d="M0,-22.206L1.214,-18.961L2.741,-8.106L2.741,0" style="fill:none;fill-rule:nonzero;stroke:rgb(22,33,45);stroke-width:1px;stroke-linecap:round;stroke-linejoin:round;"/>
        </g>
        <g transform="matrix(1,0,0,1,49.5136,132.274)">
            <path d="M0,-19.841L1.214,-16.596L2.741,-5.741L2.741,0" style="fill:none;fill-rule:nonzero;stroke:rgb(22,33,45);stroke-width:1px;stroke-linecap:round;stroke-linejoin:round;"/>
        </g>
        <g transform="matrix(1,0,0,1,44.0429,129.113)">
            <path d="M0,-13.672L1.214,-10.427L2.681,0" style="fill:none;fill-rule:nonzero;stroke:rgb(22,33,45);stroke-width:1px;stroke-linecap:round;stroke-linejoin:round;"/>
        </g>
        <g transform="matrix(1,0,0,1,42.2009,127.839)">
            <path d="M0,-11.15L1.214,-7.905L2.326,0" style="fill:none;fill-rule:nonzero;stroke:rgb(22,33,45);stroke-width:1px;stroke-linecap:round;stroke-linejoin:round;"/>
        </g>
        <g transform="matrix(-0.861849,0.507166,0.507166,0.861849,55.6216,133.334)">
            <path d="M-7.546,-2.055L0.56,-2.056" style="fill:none;fill-rule:nonzero;stroke:rgb(22,33,45);stroke-width:1px;stroke-linecap:round;stroke-linejoin:round;"/>
        </g>
        <g transform="matrix(1,0,0,1,63.8366,144.071)">
            <path d="M0,-4.987C0.341,-5.031 0.698,-5.055 1.063,-5.055C3.622,-5.055 5.696,-3.906 5.696,-2.488C5.696,-1.152 3.854,-0.054 1.5,0.068" style="fill:none;fill-rule:nonzero;stroke:rgb(22,33,45);stroke-width:1px;stroke-linecap:round;stroke-linejoin:round;"/>
        </g>
        <g transform="matrix(0.864188,0.503169,0.503169,-0.864188,62.1162,126.713)">
            <path d="M-0.379,-1.404L5.2,-1.404" style="fill:none;fill-rule:nonzero;stroke:rgb(22,33,45);stroke-width:1px;stroke-linecap:round;stroke-linejoin:round;"/>
        </g>
        <g transform="matrix(0,1,1,0,72.2151,116.603)">
            <path d="M-11.132,-11.132L11.132,-11.132" style="fill:none;fill-rule:nonzero;stroke:rgb(22,33,45);stroke-width:0.5px;stroke-linecap:round;stroke-linejoin:round;"/>
        </g>
        <g transform="matrix(0,1,1,0,58.1332,121.359)">
            <path d="M-9.097,-9.097L9.097,-9.097" style="fill:none;fill-rule:nonzero;stroke:rgb(22,33,45);stroke-width:0.5px;stroke-linecap:round;stroke-linejoin:round;"/>
        </g>
        <g transform="matrix(0,1,1,0,46.8084,121.524)">
            <path d="M-4.835,-4.835L4.835,-4.835" style="fill:none;fill-rule:nonzero;stroke:rgb(22,33,45);stroke-width:0.5px;stroke-linecap:round;stroke-linejoin:round;"/>
        </g>
        <g transform="matrix(0.969851,0.2437,0.2437,-0.969851,65.2517,142.183)">
            <path d="M-0.049,-0.394C1.152,-0.123 2.297,-0.142 3.185,-0.394" style="fill:none;fill-rule:nonzero;stroke:rgb(22,33,45);stroke-width:0.5px;stroke-linecap:round;stroke-linejoin:round;"/>
        </g>
        <g transform="matrix(0,-1,-1,0,43.0757,135.182)">
            <path d="M-10.75,10.75L10.75,10.75" style="fill:none;fill-rule:nonzero;stroke:rgb(22,33,45);stroke-width:0.5px;stroke-linecap:round;stroke-linejoin:round;"/>
        </g>
        <g transform="matrix(0,1,1,0,70.4111,150.878)">
            <path d="M-10.819,-10.819L10.819,-10.819" style="fill:none;fill-rule:nonzero;stroke:rgb(22,33,45);stroke-width:0.5px;stroke-linecap:round;stroke-linejoin:round;"/>
        </g>
        <g transform="matrix(0,1,1,0,73.1217,150.828)">
            <path d="M-10.871,-10.871L10.871,-10.871" style="fill:none;fill-rule:nonzero;stroke:rgb(22,33,45);stroke-width:0.5px;stroke-linecap:round;stroke-linejoin:round;"/>
        </g>
    </g>
</svg>
