<?xml version="1.0" encoding="UTF-8" standalone="no"?>
<!DOCTYPE svg PUBLIC "-//W3C//DTD SVG 1.1//EN" "http://www.w3.org/Graphics/SVG/1.1/DTD/svg11.dtd">
<svg width="100%" height="100%" viewBox="0 0 284 284" version="1.1" xmlns="http://www.w3.org/2000/svg" xmlns:xlink="http://www.w3.org/1999/xlink" xml:space="preserve" xmlns:serif="http://www.serif.com/" style="fill-rule:evenodd;clip-rule:evenodd;stroke-linecap:round;stroke-linejoin:round;stroke-miterlimit:10;">
    <g id="IEC-POWER-CABLES" serif:id="IEC POWER CABLES">
        <g transform="matrix(251.812,0,0,-251.812,18.4747,152.36)">
            <path d="M-0,0.218L0.028,0.151C0.159,0.189 0.334,0.134 0.383,0.105L0.383,0.105C0.384,0.094 0.387,0.078 0.394,0.074L0.56,-0.026L0.56,-0.059L0.562,-0.068L0.568,-0.076L0.586,-0.086L0.6,-0.091L0.61,-0.091L0.616,-0.094L0.627,-0.116L0.649,-0.148L0.675,-0.173L0.688,-0.183L0.702,-0.181L0.725,-0.168L0.86,-0.244L0.875,-0.241L0.946,-0.2L0.964,-0.183L0.993,-0.134L1,-0.111L1,-0.064L0.997,-0.053L0.987,-0.043L0.869,0.024L0.865,0.034L0.848,0.042C0.848,0.042 0.796,0.061 0.725,0.066C0.718,0.069 0.713,0.082 0.707,0.088C0.705,0.089 0.69,0.097 0.682,0.102C0.663,0.107 0.631,0.089 0.631,0.089L0.462,0.181C0.455,0.186 0.438,0.183 0.428,0.178L0.428,0.179C0.393,0.199 0.285,0.244 0.158,0.244C0.107,0.244 0.054,0.237 -0,0.218Z" style="fill:url(#_Linear1);fill-rule:nonzero;"/>
        </g>
        <g transform="matrix(1,0,0,1,114.703,110.945)">
            <path d="M0,15.371C-6.63,11.701 -13.915,9.173 -21.211,6.972C-28.535,4.805 -36.006,3.118 -43.559,1.935C-51.113,0.766 -58.765,0.188 -66.41,0.322C-74.047,0.473 -81.705,1.364 -89.083,3.452C-81.728,1.283 -74.068,0.307 -66.416,0.073C-58.756,-0.146 -51.076,0.35 -43.486,1.441C-35.897,2.544 -28.382,4.155 -21.001,6.252C-13.637,8.39 -6.325,10.826 0.502,14.506C0.745,14.637 0.836,14.941 0.705,15.184C0.574,15.427 0.271,15.517 0.028,15.386C0.027,15.386 0.026,15.385 0.025,15.385L0,15.371Z" style="fill:rgb(22,33,45);fill-rule:nonzero;"/>
        </g>
        <g transform="matrix(1,0,0,1,126.016,90.7203)">
            <path d="M0,17.06C-3.972,14.773 -8.221,12.921 -12.504,11.218C-16.799,9.532 -21.181,8.061 -25.614,6.766C-34.482,4.184 -43.575,2.352 -52.762,1.337C-61.948,0.327 -71.239,0.191 -80.45,1.038C-85.053,1.485 -89.634,2.165 -94.165,3.103C-98.687,4.084 -103.152,5.319 -107.542,6.792C-103.166,5.279 -98.71,4.004 -94.192,2.981C-89.664,2.001 -85.083,1.278 -80.475,0.79C-71.254,-0.142 -61.936,-0.09 -52.71,0.839C-43.483,1.775 -34.34,3.531 -25.408,6.045C-20.943,7.306 -16.525,8.744 -12.188,10.403C-7.857,12.08 -3.575,13.897 0.502,16.195C0.743,16.331 0.828,16.636 0.692,16.876C0.557,17.117 0.252,17.202 0.011,17.066L0.007,17.064L0,17.06Z" style="fill:rgb(22,33,45);fill-rule:nonzero;"/>
        </g>
        <g transform="matrix(1,0,0,1,191.065,183.73)">
            <path d="M0,-9.666L0,1.297C0,1.297 -0.137,5.112 2.302,6.482C4.741,7.853 41.222,28.741 42.296,29.26C43.37,29.778 45.37,30.593 47.815,29.26C50.259,27.927 63.778,20.075 65.667,18.964C67.556,17.853 69.815,15.408 71.519,12.445C73.222,9.482 76.481,4.001 77.222,2.778C77.963,1.556 79.222,-1.555 79.222,-5.296L79.222,-15.147C79.222,-17.74 78.259,-19.11 76.481,-20.11C74.704,-21.11 43.794,-38.891 43.037,-39.37C41.63,-40.259 39.148,-40.11 37.852,-39.37C36.556,-38.629 10.852,-23.629 6.741,-21.296C2.63,-18.962 0,-13.777 0,-9.666Z" style="fill:none;fill-rule:nonzero;stroke:rgb(22,33,45);stroke-width:1px;"/>
        </g>
        <g transform="matrix(0.141511,-0.989937,-0.989937,-0.141511,209.297,176.845)">
            <path d="M-18.777,5.552C-18.777,5.552 -21.306,8.788 -22.317,10.102C-24.984,13.574 -23.901,17.32 -18.777,18.053L-2.499,20.38C2.415,21.082 8.362,18.863 12.639,13.415" style="fill:none;fill-rule:nonzero;stroke:rgb(22,33,45);stroke-width:1px;"/>
        </g>
        <g transform="matrix(-0.975285,-0.220951,-0.220951,0.975285,229.625,139.956)">
            <path d="M-8.995,4.453C-8.22,2.274 -5.426,-0.336 -0.283,4.453" style="fill:none;fill-rule:nonzero;stroke:rgb(22,33,45);stroke-width:1px;"/>
        </g>
        <g transform="matrix(1,0,0,1,227.809,163.287)">
            <path d="M0,46.577C-1.978,45.454 -2.04,43.592 -2.04,41.759L-2.04,30.759C-2.04,26.537 0.46,21.592 4.626,19.259C8.793,16.926 35.849,1.259 35.849,1.259C37.96,0.037 42.478,0 42.478,5.296" style="fill:none;fill-rule:nonzero;stroke:rgb(22,33,45);stroke-width:1px;"/>
        </g>
        <g transform="matrix(1,0,0,1,190.534,125.823)">
            <path d="M0,71.782C-11.234,64.064 -15.571,52.917 -16.516,50.611C-17.46,48.306 -21.043,50 -22.682,49.139C-24.321,48.278 -26.849,46.861 -28.405,45.944C-29.96,45.028 -31.071,43.806 -31.071,41.028L-31.071,24.444C-31.071,19.574 -29.847,13.774 -25.488,11.278C-23.287,10.018 -12.432,3.722 -11.821,3.333C-11.21,2.944 -10.321,2.556 -9.988,2.5C-9.655,2.444 -4.099,0.778 -4.099,0.778C-4.099,0.778 -1.932,0 -0.432,0.778C-0.432,0.778 4.457,3.499 5.512,4.111C8.957,6.111 7.179,9.944 12.012,10.111C16.845,10.278 30.763,11.586 44.471,17.182" style="fill:none;fill-rule:nonzero;stroke:rgb(22,33,45);stroke-width:1px;"/>
        </g>
        <g transform="matrix(-0.876881,-0.480707,-0.480707,0.876881,117.13,117.565)">
            <path d="M-58.704,-17.972L-9.551,-17.972C-4.676,-18.08 -0.566,-11.013 -0.372,-2.188C-0.176,6.637 -3.969,13.88 -8.844,13.988L-57.052,16.008" style="fill:none;fill-rule:nonzero;stroke:rgb(22,33,45);stroke-width:1px;"/>
        </g>
        <g transform="matrix(0,1,1,0,239.028,192.25)">
            <path d="M-1.741,-7.222L10.333,-7.222L7.148,-1.741L-4.852,-1.741L-1.741,-7.222Z" style="fill:none;fill-rule:nonzero;stroke:rgb(22,33,45);stroke-width:1px;"/>
        </g>
        <g transform="matrix(-0.879687,-0.475554,-0.475554,0.879687,232.84,195.309)">
            <path d="M-5.856,1.482L0.375,1.482" style="fill:none;fill-rule:nonzero;stroke:rgb(22,33,45);stroke-width:1px;"/>
        </g>
        <g transform="matrix(0,1,1,0,266.139,176.535)">
            <path d="M-1.741,-7.222L10.333,-7.222L7.148,-1.741L-4.852,-1.741L-1.741,-7.222Z" style="fill:none;fill-rule:nonzero;stroke:rgb(22,33,45);stroke-width:1px;"/>
        </g>
        <g transform="matrix(-0.879687,-0.475554,-0.475554,0.879687,259.951,179.595)">
            <path d="M-5.856,1.482L0.375,1.482" style="fill:none;fill-rule:nonzero;stroke:rgb(22,33,45);stroke-width:1px;"/>
        </g>
        <g transform="matrix(0,1,1,0,252.509,191.72)">
            <path d="M-1.741,-7.222L10.333,-7.222L7.148,-1.741L-4.852,-1.741L-1.741,-7.222Z" style="fill:none;fill-rule:nonzero;stroke:rgb(22,33,45);stroke-width:1px;"/>
        </g>
        <g transform="matrix(-0.879687,-0.475554,-0.475554,0.879687,246.322,194.78)">
            <path d="M-5.856,1.482L0.375,1.482" style="fill:none;fill-rule:nonzero;stroke:rgb(22,33,45);stroke-width:1px;"/>
        </g>
        <g transform="matrix(-0.864754,-0.502196,-0.502196,0.864754,205.197,155.099)">
            <path d="M-37.338,10.056L2.708,10.056" style="fill:none;fill-rule:nonzero;stroke:rgb(22,33,45);stroke-width:0.5px;"/>
        </g>
        <g transform="matrix(-0.866623,-0.498963,-0.498963,0.866623,198.364,166.739)">
            <path d="M-37.375,9.991L2.671,9.99" style="fill:none;fill-rule:nonzero;stroke:rgb(22,33,45);stroke-width:0.5px;"/>
        </g>
        <g transform="matrix(0.866213,0.499675,0.499675,-0.866213,198.388,177.696)">
            <path d="M-2.68,-10.01L37.384,-10.01" style="fill:none;fill-rule:nonzero;stroke:rgb(22,33,45);stroke-width:0.5px;"/>
        </g>
        <g transform="matrix(-0.864651,-0.502374,-0.502374,0.864651,236.338,137)">
            <path d="M-37.46,10.093L2.719,10.093" style="fill:none;fill-rule:nonzero;stroke:rgb(22,33,45);stroke-width:0.5px;"/>
        </g>
        <g transform="matrix(1,0,0,1,186.435,176.434)">
            <path d="M0,-49.833L-20.167,-38.222C-23.111,-36.444 -26.972,-31.333 -26.972,-26.166L-20.889,-22.555C-20.889,-22.555 -14.111,-22.389 -12.611,-18.5C-11.111,-14.611 -9.111,-8.444 2.333,0" style="fill:none;fill-rule:nonzero;stroke:rgb(22,33,45);stroke-width:0.5px;"/>
        </g>
        <g transform="matrix(1,0,0,1,196.046,174.851)">
            <path d="M0,-44.917C-1.611,-45.028 -2.833,-44.806 -4.389,-43.973C-5.944,-43.139 -19.944,-35.028 -23.611,-32.917C-27.278,-30.806 -30.5,-26.084 -30.5,-20.973L-30.5,-4.361C-30.5,-2.528 -29.944,-1.028 -28.194,0.111" style="fill:none;fill-rule:nonzero;stroke:rgb(22,33,45);stroke-width:0.5px;"/>
        </g>
        <g transform="matrix(1,0,0,1,166.268,163.272)">
            <path d="M0,-25.06L6.167,-21.338C6.167,-21.338 8.111,-19.727 12.667,-14.449C17.222,-9.171 22.229,-4.996 30.281,0" style="fill:none;fill-rule:nonzero;stroke:rgb(22,33,45);stroke-width:0.5px;"/>
        </g>
        <g transform="matrix(1,0,0,1,225.365,155.206)">
            <path d="M0,-8.781L-10.874,-13.938L-34.707,-0.16L-23.962,5.157" style="fill:none;fill-rule:nonzero;stroke:rgb(22,33,45);stroke-width:0.5px;"/>
        </g>
        <g transform="matrix(0.85761,0.514301,0.514301,-0.85761,216.682,139.183)">
            <path d="M-0.807,-2.915L10.527,-2.915" style="fill:none;fill-rule:nonzero;stroke:rgb(22,33,45);stroke-width:0.5px;"/>
        </g>
        <g transform="matrix(1,0,0,1,185.438,143.749)">
            <path d="M0,-16.573L6.486,-13.005C6.486,-13.005 8.498,-7.981 15.164,-7.203C21.831,-6.425 33.925,-4.909 44.628,0" style="fill:none;fill-rule:nonzero;stroke:rgb(22,33,45);stroke-width:0.5px;"/>
        </g>
        <g transform="matrix(1,0,0,1,159.463,192.879)">
            <path d="M0,-26.028L6.083,-22.389C6.083,-22.389 12.472,-22.556 14.25,-18.556C16.028,-14.556 18.972,-6.611 29.306,0" style="fill:none;fill-rule:nonzero;stroke:rgb(22,33,45);stroke-width:0.5px;"/>
        </g>
        <g transform="matrix(1,0,0,1,133.775,133.412)">
            <path d="M0,-17.36C-1.84,-15.978 -3.228,-13.767 -4.561,-11.457C-6.758,-7.653 -7.9,-3.717 -7.972,-0.422L-3.904,2.049C-3.901,-1.308 -2.757,-5.375 -0.49,-9.303C0.917,-11.739 2.582,-13.832 4.344,-15.463C6.16,-17.145 2.729,-19.409 0,-17.36Z" style="fill:none;fill-rule:nonzero;stroke:rgb(22,33,45);stroke-width:0.5px;"/>
        </g>
        <g transform="matrix(1,0,0,1,125.803,131.045)">
            <path d="M0,1.945L3.743,0L4.538,0.449" style="fill:none;fill-rule:nonzero;stroke:rgb(22,33,45);stroke-width:0.5px;"/>
        </g>
        <g transform="matrix(1,0,0,1,129.546,119.579)">
            <path d="M0,11.467C0.795,4.411 3.5,1.911 4.5,0.967C5.5,0.023 6.404,0 6.924,0.067" style="fill:none;fill-rule:nonzero;stroke:rgb(22,33,45);stroke-width:0.5px;"/>
        </g>
        <g transform="matrix(1,0,0,1,146.005,140.429)">
            <path d="M0,-17.36C-1.84,-15.978 -3.228,-13.767 -4.561,-11.457C-6.758,-7.653 -7.9,-3.717 -7.972,-0.422L-3.904,2.049C-3.901,-1.308 -2.757,-5.375 -0.49,-9.303C0.917,-11.739 2.582,-13.832 4.344,-15.463C6.16,-17.145 2.729,-19.409 0,-17.36Z" style="fill:none;fill-rule:nonzero;stroke:rgb(22,33,45);stroke-width:0.5px;"/>
        </g>
        <g transform="matrix(1,0,0,1,138.033,138.062)">
            <path d="M0,1.945L3.743,0L4.539,0.449" style="fill:none;fill-rule:nonzero;stroke:rgb(22,33,45);stroke-width:0.5px;"/>
        </g>
        <g transform="matrix(1,0,0,1,141.776,126.595)">
            <path d="M0,11.467C0.795,4.411 3.5,1.911 4.5,0.967C5.5,0.023 6.404,0 6.924,0.067" style="fill:none;fill-rule:nonzero;stroke:rgb(22,33,45);stroke-width:0.5px;"/>
        </g>
        <g transform="matrix(1,0,0,1,158.133,147.615)">
            <path d="M0,-17.36C-1.84,-15.978 -3.228,-13.767 -4.561,-11.457C-6.758,-7.653 -7.9,-3.717 -7.972,-0.422L-3.904,2.049C-3.901,-1.308 -2.757,-5.375 -0.49,-9.303C0.917,-11.739 2.582,-13.832 4.344,-15.463C6.16,-17.145 2.729,-19.409 0,-17.36Z" style="fill:none;fill-rule:nonzero;stroke:rgb(22,33,45);stroke-width:0.5px;"/>
        </g>
        <g transform="matrix(1,0,0,1,150.161,145.247)">
            <path d="M0,1.945L3.743,0L4.538,0.449" style="fill:none;fill-rule:nonzero;stroke:rgb(22,33,45);stroke-width:0.5px;"/>
        </g>
        <g transform="matrix(1,0,0,1,153.904,133.781)">
            <path d="M0,11.467C0.795,4.411 3.5,1.911 4.5,0.967C5.5,0.023 6.404,0 6.924,0.067" style="fill:none;fill-rule:nonzero;stroke:rgb(22,33,45);stroke-width:0.5px;"/>
        </g>
        <g transform="matrix(1,0,0,1,126.062,129.908)">
            <path d="M0,8.945C-2.54,6.808 -2.571,2.11 -2.571,2.11L-6.238,0C-6.238,0 -6.719,4.406 -3.506,6.827" style="fill:none;fill-rule:nonzero;stroke:rgb(22,33,45);stroke-width:0.5px;"/>
        </g>
        <g transform="matrix(1,0,0,1,138.033,136.796)">
            <path d="M0,8.945C-2.54,6.808 -2.571,2.11 -2.571,2.11L-6.238,0C-6.238,0 -6.719,4.406 -3.506,6.827" style="fill:none;fill-rule:nonzero;stroke:rgb(22,33,45);stroke-width:0.5px;"/>
        </g>
        <g transform="matrix(1,0,0,1,150.464,144.431)">
            <path d="M0,8.945C-2.54,6.808 -2.571,2.11 -2.571,2.11L-6.238,0C-6.238,0 -6.719,4.406 -3.506,6.827" style="fill:none;fill-rule:nonzero;stroke:rgb(22,33,45);stroke-width:0.5px;"/>
        </g>
        <g transform="matrix(1,0,0,1,166.268,124.198)">
            <path d="M0,-0.191C-2.387,-1.499 -5.222,-2.134 -7.111,-1.726C-9,-1.319 -7.389,0.792 -4.889,0.681C-2.389,0.57 -0.21,-0.306 3.892,1.943" style="fill:none;fill-rule:nonzero;stroke:rgb(22,33,45);stroke-width:0.5px;"/>
        </g>
        <g transform="matrix(1,0,0,1,154.106,117.326)">
            <path d="M0,-0.191C-2.387,-1.499 -5.222,-2.134 -7.111,-1.726C-9,-1.319 -7.389,0.792 -4.889,0.681C-2.389,0.57 -0.21,-0.306 3.892,1.943" style="fill:none;fill-rule:nonzero;stroke:rgb(22,33,45);stroke-width:0.5px;"/>
        </g>
        <g transform="matrix(1,0,0,1,141.346,110.3)">
            <path d="M0,-0.191C-2.387,-1.499 -5.222,-2.134 -7.111,-1.726C-9,-1.319 -7.389,0.792 -4.889,0.681C-2.389,0.57 -0.21,-0.306 3.892,1.943" style="fill:none;fill-rule:nonzero;stroke:rgb(22,33,45);stroke-width:0.5px;"/>
        </g>
    </g>
    <defs>
        <linearGradient id="_Linear1" x1="0" y1="0" x2="1" y2="0" gradientUnits="userSpaceOnUse" gradientTransform="matrix(1,0,0,-1,0,-5.42229e-06)"><stop offset="0" style="stop-color:white;stop-opacity:1"/><stop offset="0.78" style="stop-color:rgb(91,91,96);stop-opacity:1"/><stop offset="1" style="stop-color:rgb(87,87,92);stop-opacity:1"/></linearGradient>
    </defs>
</svg>
