<?xml version="1.0" encoding="UTF-8" standalone="no"?>
<!DOCTYPE svg PUBLIC "-//W3C//DTD SVG 1.1//EN" "http://www.w3.org/Graphics/SVG/1.1/DTD/svg11.dtd">
<svg width="100%" height="100%" viewBox="0 0 284 284" version="1.1" xmlns="http://www.w3.org/2000/svg" xmlns:xlink="http://www.w3.org/1999/xlink" xml:space="preserve" xmlns:serif="http://www.serif.com/" style="fill-rule:evenodd;clip-rule:evenodd;stroke-miterlimit:10;">
    <g id="Side-Windows" serif:id="Side Windows">
        <g opacity="0.5">
            <g>
                <clipPath id="_clip1">
                    <rect x="108.521" y="112.715" width="94.658" height="110.91" clip-rule="nonzero"/>
                </clipPath>
                <g clip-path="url(#_clip1)">
                    <g transform="matrix(1,0,0,1,201.45,170.533)">
                        <path d="M0,-4.504L-90.885,-57.24L-92.051,-56.566C-92.051,-56.566 -92.474,-56.397 -92.404,-55.131C-92.404,-55.131 -92.438,-2.59 -92.427,-2.047C-92.413,-1.357 -92.325,-0.589 -91.114,0.034C-89.903,0.657 -1.749,51.929 -1.239,52.233C-0.729,52.536 -0.125,52.736 0.347,52.463C0.82,52.19 1.209,51.965 1.209,51.965C1.209,51.965 1.229,14.6 1.229,-2.568C1.229,-3.289 0.772,-4.068 0,-4.504Z" style="fill:white;fill-rule:nonzero;stroke:rgb(22,33,45);stroke-width:1px;"/>
                    </g>
                </g>
            </g>
        </g>
        <g transform="matrix(1,0,0,1,201.45,170.533)">
            <path d="M0,-4.504L-90.885,-57.24L-92.051,-56.566C-92.051,-56.566 -92.474,-56.397 -92.404,-55.131C-92.404,-55.131 -92.438,-2.59 -92.427,-2.047C-92.413,-1.357 -92.325,-0.589 -91.114,0.034C-89.903,0.657 -1.749,51.929 -1.239,52.233C-0.729,52.536 -0.125,52.736 0.347,52.463C0.82,52.19 1.209,51.965 1.209,51.965C1.209,51.965 1.229,14.6 1.229,-2.568C1.229,-3.289 0.772,-4.068 0,-4.504Z" style="fill:none;fill-rule:nonzero;stroke:rgb(22,33,45);stroke-width:1px;stroke-linecap:round;stroke-linejoin:round;"/>
        </g>
        <g transform="matrix(0.865797,-0.500396,-0.500396,-0.865797,200.907,169.023)">
            <ellipse cx="-0.6" cy="1.039" rx="0.791" ry="1.2" style="fill:none;stroke:rgb(22,33,45);stroke-width:0.5px;stroke-linecap:round;stroke-linejoin:round;"/>
        </g>
        <g transform="matrix(0.865797,-0.500396,-0.500396,-0.865797,200.858,221.105)">
            <ellipse cx="-0.6" cy="1.039" rx="0.791" ry="1.2" style="fill:none;stroke:rgb(22,33,45);stroke-width:0.5px;stroke-linecap:round;stroke-linejoin:round;"/>
        </g>
        <g transform="matrix(0.865797,-0.500396,-0.500396,-0.865797,111.913,116.819)">
            <ellipse cx="-0.6" cy="1.039" rx="0.791" ry="1.2" style="fill:none;stroke:rgb(22,33,45);stroke-width:0.5px;stroke-linecap:round;stroke-linejoin:round;"/>
        </g>
        <g transform="matrix(0.865797,-0.500396,-0.500396,-0.865797,112.044,169.325)">
            <ellipse cx="-0.6" cy="1.039" rx="0.791" ry="1.2" style="fill:none;stroke:rgb(22,33,45);stroke-width:0.5px;stroke-linecap:round;stroke-linejoin:round;"/>
        </g>
        <g opacity="0.5">
            <g>
                <clipPath id="_clip2">
                    <rect x="108.521" y="37.849" width="94.658" height="118.807" clip-rule="nonzero"/>
                </clipPath>
                <g clip-path="url(#_clip2)">
                    <g transform="matrix(1,0,0,1,201.45,103.564)">
                        <path d="M0,-12.401L-90.885,-65.137L-92.051,-64.463C-92.051,-64.463 -92.474,-64.294 -92.404,-63.028C-92.404,-63.028 -92.438,-2.59 -92.427,-2.048C-92.413,-1.357 -92.325,-0.589 -91.114,0.034C-89.903,0.657 -1.749,51.929 -1.239,52.232C-0.729,52.536 -0.125,52.736 0.347,52.463C0.82,52.19 1.209,51.965 1.209,51.965C1.209,51.965 1.229,6.703 1.229,-10.465C1.229,-11.186 0.772,-11.965 0,-12.401Z" style="fill:white;fill-rule:nonzero;stroke:rgb(22,33,45);stroke-width:1px;"/>
                    </g>
                </g>
            </g>
        </g>
        <g transform="matrix(1,0,0,1,201.45,103.564)">
            <path d="M0,-12.401L-90.885,-65.137L-92.051,-64.463C-92.051,-64.463 -92.474,-64.294 -92.404,-63.028C-92.404,-63.028 -92.438,-2.59 -92.427,-2.048C-92.413,-1.357 -92.325,-0.589 -91.114,0.034C-89.903,0.657 -1.749,51.929 -1.239,52.232C-0.729,52.536 -0.125,52.736 0.347,52.463C0.82,52.19 1.209,51.965 1.209,51.965C1.209,51.965 1.229,6.703 1.229,-10.465C1.229,-11.186 0.772,-11.965 0,-12.401Z" style="fill:none;fill-rule:nonzero;stroke:rgb(22,33,45);stroke-width:1px;stroke-linecap:round;stroke-linejoin:round;"/>
        </g>
        <g transform="matrix(0.865797,-0.500396,-0.500396,-0.865797,200.907,94.157)">
            <ellipse cx="-0.6" cy="1.039" rx="0.791" ry="1.2" style="fill:none;stroke:rgb(22,33,45);stroke-width:0.5px;stroke-linecap:round;stroke-linejoin:round;"/>
        </g>
        <g transform="matrix(0.865797,-0.500396,-0.500396,-0.865797,200.858,154.136)">
            <ellipse cx="-0.6" cy="1.039" rx="0.791" ry="1.2" style="fill:none;stroke:rgb(22,33,45);stroke-width:0.5px;stroke-linecap:round;stroke-linejoin:round;"/>
        </g>
        <g transform="matrix(0.865797,-0.500396,-0.500396,-0.865797,111.913,41.9529)">
            <ellipse cx="-0.6" cy="1.039" rx="0.791" ry="1.2" style="fill:none;stroke:rgb(22,33,45);stroke-width:0.5px;stroke-linecap:round;stroke-linejoin:round;"/>
        </g>
        <g transform="matrix(0.865797,-0.500396,-0.500396,-0.865797,112.044,102.356)">
            <ellipse cx="-0.6" cy="1.039" rx="0.791" ry="1.2" style="fill:none;stroke:rgb(22,33,45);stroke-width:0.5px;stroke-linecap:round;stroke-linejoin:round;"/>
        </g>
        <g opacity="0.5">
            <g>
                <clipPath id="_clip3">
                    <rect x="85.448" y="122.86" width="94.658" height="110.91" clip-rule="nonzero"/>
                </clipPath>
                <g clip-path="url(#_clip3)">
                    <g transform="matrix(1,0,0,1,178.377,180.678)">
                        <path d="M0,-4.504L-90.885,-57.24L-92.051,-56.566C-92.051,-56.566 -92.474,-56.397 -92.404,-55.131C-92.404,-55.131 -92.438,-2.59 -92.427,-2.047C-92.413,-1.357 -92.325,-0.589 -91.114,0.034C-89.903,0.657 -1.749,51.929 -1.239,52.233C-0.729,52.537 -0.125,52.736 0.347,52.463C0.82,52.19 1.209,51.965 1.209,51.965C1.209,51.965 1.229,14.6 1.229,-2.568C1.229,-3.289 0.772,-4.068 0,-4.504Z" style="fill:white;fill-rule:nonzero;stroke:rgb(22,33,45);stroke-width:1px;"/>
                    </g>
                </g>
            </g>
        </g>
        <g transform="matrix(1,0,0,1,178.377,180.678)">
            <path d="M0,-4.504L-90.885,-57.24L-92.051,-56.566C-92.051,-56.566 -92.474,-56.397 -92.404,-55.131C-92.404,-55.131 -92.438,-2.59 -92.427,-2.047C-92.413,-1.357 -92.325,-0.589 -91.114,0.034C-89.903,0.657 -1.749,51.929 -1.239,52.233C-0.729,52.537 -0.125,52.736 0.347,52.463C0.82,52.19 1.209,51.965 1.209,51.965C1.209,51.965 1.229,14.6 1.229,-2.568C1.229,-3.289 0.772,-4.068 0,-4.504Z" style="fill:none;fill-rule:nonzero;stroke:rgb(22,33,45);stroke-width:1px;stroke-linecap:round;stroke-linejoin:round;"/>
        </g>
        <g transform="matrix(0.865797,-0.500396,-0.500396,-0.865797,177.834,179.169)">
            <ellipse cx="-0.6" cy="1.039" rx="0.791" ry="1.2" style="fill:none;stroke:rgb(22,33,45);stroke-width:0.5px;stroke-linecap:round;stroke-linejoin:round;"/>
        </g>
        <g transform="matrix(0.865797,-0.500396,-0.500396,-0.865797,177.786,231.251)">
            <ellipse cx="-0.6" cy="1.039" rx="0.791" ry="1.2" style="fill:none;stroke:rgb(22,33,45);stroke-width:0.5px;stroke-linecap:round;stroke-linejoin:round;"/>
        </g>
        <g transform="matrix(0.865797,-0.500396,-0.500396,-0.865797,88.8404,126.965)">
            <ellipse cx="-0.6" cy="1.039" rx="0.791" ry="1.2" style="fill:none;stroke:rgb(22,33,45);stroke-width:0.5px;stroke-linecap:round;stroke-linejoin:round;"/>
        </g>
        <g transform="matrix(0.865797,-0.500396,-0.500396,-0.865797,88.9716,179.47)">
            <ellipse cx="-0.6" cy="1.039" rx="0.791" ry="1.2" style="fill:none;stroke:rgb(22,33,45);stroke-width:0.5px;stroke-linecap:round;stroke-linejoin:round;"/>
        </g>
        <g opacity="0.5">
            <g>
                <clipPath id="_clip4">
                    <rect x="85.448" y="47.994" width="94.658" height="118.807" clip-rule="nonzero"/>
                </clipPath>
                <g clip-path="url(#_clip4)">
                    <g transform="matrix(1,0,0,1,178.377,113.709)">
                        <path d="M0,-12.401L-90.885,-65.137L-92.051,-64.463C-92.051,-64.463 -92.474,-64.294 -92.404,-63.028C-92.404,-63.028 -92.438,-2.59 -92.427,-2.048C-92.413,-1.357 -92.325,-0.589 -91.114,0.034C-89.903,0.657 -1.749,51.929 -1.239,52.233C-0.729,52.536 -0.125,52.736 0.347,52.463C0.82,52.19 1.209,51.965 1.209,51.965C1.209,51.965 1.229,6.703 1.229,-10.465C1.229,-11.186 0.772,-11.965 0,-12.401Z" style="fill:white;fill-rule:nonzero;stroke:rgb(22,33,45);stroke-width:1px;"/>
                    </g>
                </g>
            </g>
        </g>
        <g transform="matrix(1,0,0,1,178.377,113.709)">
            <path d="M0,-12.401L-90.885,-65.137L-92.051,-64.463C-92.051,-64.463 -92.474,-64.294 -92.404,-63.028C-92.404,-63.028 -92.438,-2.59 -92.427,-2.048C-92.413,-1.357 -92.325,-0.589 -91.114,0.034C-89.903,0.657 -1.749,51.929 -1.239,52.233C-0.729,52.536 -0.125,52.736 0.347,52.463C0.82,52.19 1.209,51.965 1.209,51.965C1.209,51.965 1.229,6.703 1.229,-10.465C1.229,-11.186 0.772,-11.965 0,-12.401Z" style="fill:none;fill-rule:nonzero;stroke:rgb(22,33,45);stroke-width:1px;stroke-linecap:round;stroke-linejoin:round;"/>
        </g>
        <g transform="matrix(0.865797,-0.500396,-0.500396,-0.865797,177.834,104.302)">
            <ellipse cx="-0.6" cy="1.039" rx="0.791" ry="1.2" style="fill:none;stroke:rgb(22,33,45);stroke-width:0.5px;stroke-linecap:round;stroke-linejoin:round;"/>
        </g>
        <g transform="matrix(0.865797,-0.500396,-0.500396,-0.865797,177.786,164.281)">
            <ellipse cx="-0.6" cy="1.039" rx="0.791" ry="1.2" style="fill:none;stroke:rgb(22,33,45);stroke-width:0.5px;stroke-linecap:round;stroke-linejoin:round;"/>
        </g>
        <g transform="matrix(0.865797,-0.500396,-0.500396,-0.865797,88.8404,52.0984)">
            <ellipse cx="-0.6" cy="1.039" rx="0.791" ry="1.2" style="fill:none;stroke:rgb(22,33,45);stroke-width:0.5px;stroke-linecap:round;stroke-linejoin:round;"/>
        </g>
        <g transform="matrix(0.865797,-0.500396,-0.500396,-0.865797,88.9716,112.501)">
            <ellipse cx="-0.6" cy="1.039" rx="0.791" ry="1.2" style="fill:none;stroke:rgb(22,33,45);stroke-width:0.5px;stroke-linecap:round;stroke-linejoin:round;"/>
        </g>
    </g>
</svg>
