<?xml version="1.0" encoding="UTF-8" standalone="no"?>
<!DOCTYPE svg PUBLIC "-//W3C//DTD SVG 1.1//EN" "http://www.w3.org/Graphics/SVG/1.1/DTD/svg11.dtd">
<svg width="100%" height="100%" viewBox="0 0 284 284" version="1.1" xmlns="http://www.w3.org/2000/svg" xmlns:xlink="http://www.w3.org/1999/xlink" xml:space="preserve" xmlns:serif="http://www.serif.com/" style="fill-rule:evenodd;clip-rule:evenodd;stroke-miterlimit:10;">
    <g id="Top-Window" serif:id="Top Window">
        <g opacity="0.5">
            <g transform="matrix(1,0,0,1,158.971,58.1533)">
                <path d="M0,127.35L-128.962,52.784L-128.962,51.438C-128.962,51.438 -129.027,50.986 -127.895,50.414C-127.895,50.414 -41.525,0.453 -41.05,0.191C-40.446,-0.143 -39.736,-0.45 -38.591,0.286C-37.445,1.023 88.882,73.957 89.4,74.247C89.918,74.536 90.393,74.959 90.393,75.505L90.393,76.5C90.393,76.5 2.918,127.091 2.291,127.445C1.664,127.8 0.764,127.8 0,127.35" style="fill:white;fill-rule:nonzero;"/>
            </g>
        </g>
        <g transform="matrix(0,-1,-1,0,160.253,181.734)">
            <ellipse cx="-1.2" cy="0" rx="0.791" ry="1.2" style="fill:none;stroke:rgb(22,33,45);stroke-width:0.5px;"/>
        </g>
        <g transform="matrix(0,-1,-1,0,246.219,131.991)">
            <ellipse cx="-1.2" cy="0" rx="0.791" ry="1.2" style="fill:none;stroke:rgb(22,33,45);stroke-width:0.5px;"/>
        </g>
        <g transform="matrix(0,-1,-1,0,32.6985,108.54)">
            <ellipse cx="-1.2" cy="0" rx="0.791" ry="1.2" style="fill:none;stroke:rgb(22,33,45);stroke-width:0.5px;"/>
        </g>
        <g transform="matrix(0,-1,-1,0,119.121,58.7397)">
            <ellipse cx="-1.2" cy="0" rx="0.791" ry="1.2" style="fill:none;stroke:rgb(22,33,45);stroke-width:0.5px;"/>
        </g>
        <g transform="matrix(1,0,0,1,158.971,58.1533)">
            <path d="M0,127.35L-128.962,52.784L-128.962,51.438C-128.962,51.438 -129.027,50.986 -127.895,50.414C-127.895,50.414 -41.525,0.453 -41.05,0.191C-40.446,-0.143 -39.736,-0.45 -38.591,0.286C-37.445,1.023 88.882,73.957 89.4,74.247C89.918,74.536 90.393,74.959 90.393,75.505L90.393,76.5C90.393,76.5 2.918,127.091 2.291,127.445C1.664,127.8 0.764,127.8 0,127.35Z" style="fill:none;fill-rule:nonzero;stroke:rgb(22,33,45);stroke-width:1px;"/>
        </g>
    </g>
</svg>
