<?xml version="1.0" encoding="UTF-8" standalone="no"?>
<!DOCTYPE svg PUBLIC "-//W3C//DTD SVG 1.1//EN" "http://www.w3.org/Graphics/SVG/1.1/DTD/svg11.dtd">
<svg width="100%" height="100%" viewBox="0 0 284 284" version="1.1" xmlns="http://www.w3.org/2000/svg" xmlns:xlink="http://www.w3.org/1999/xlink" xml:space="preserve" xmlns:serif="http://www.serif.com/" style="fill-rule:evenodd;clip-rule:evenodd;stroke-linecap:round;stroke-linejoin:round;stroke-miterlimit:10;">
    <g id="Window-Screws" serif:id="Window Screws">
        <g transform="matrix(1,0,0,1,141.732,166.358)">
            <path d="M0,-49.251C-10.882,-49.251 -19.703,-44.18 -19.703,-37.924L-19.703,-36.654C-19.703,-33.469 -17.409,-30.597 -13.729,-28.539L-13.745,-28.539L-10.024,-26.375L-10.024,-5.694C-10.024,-2.549 -5.59,0 -0.119,0C5.351,0 9.786,-2.549 9.786,-5.694L9.786,-26.306L13.745,-28.539L13.729,-28.539C17.409,-30.597 19.703,-33.469 19.703,-36.654L19.703,-37.924C19.703,-44.18 10.881,-49.251 0,-49.251" style="fill:white;fill-rule:nonzero;"/>
        </g>
        <g transform="matrix(1,0,0,1,148.613,127.418)">
            <path d="M0,2.091L-1.831,-1.883L-8.717,-2.919L-13.761,0.02L-11.907,3.974L-5.021,5.01L0,2.091Z" style="fill:none;fill-rule:nonzero;stroke:rgb(22,33,45);stroke-width:1px;"/>
        </g>
        <g transform="matrix(0,-1,-1,0,143.57,128.174)">
            <path d="M-3.675,3.675L3.675,3.675" style="fill:none;fill-rule:nonzero;stroke:rgb(22,33,45);stroke-width:1px;"/>
        </g>
        <g transform="matrix(0,1,1,0,149.297,128.05)">
            <path d="M-2.515,-2.515L2.515,-2.515" style="fill:none;fill-rule:nonzero;stroke:rgb(22,33,45);stroke-width:1px;"/>
        </g>
        <g transform="matrix(1,0,0,1,122.03,129.704)">
            <path d="M0,-1.27C0,-7.526 8.821,-12.597 19.703,-12.597C30.584,-12.597 39.405,-7.526 39.405,-1.27L39.405,0.001C39.405,6.256 30.584,11.327 19.703,11.327C8.821,11.327 0,6.256 0,0.001L0,-1.27Z" style="fill:none;fill-rule:nonzero;stroke:rgb(22,33,45);stroke-width:1px;"/>
        </g>
        <g transform="matrix(0,1,1,0,154.732,163.076)">
            <path d="M-23.024,-3.213L-2.412,-3.213C0.733,-3.213 3.282,-7.649 3.282,-13.119C3.282,-18.59 0.733,-23.024 -2.412,-23.024L-23.093,-23.024" style="fill:none;fill-rule:nonzero;stroke:rgb(22,33,45);stroke-width:1px;"/>
        </g>
        <g transform="matrix(-0.87102,0.491248,0.491248,0.87102,131.135,149.808)">
            <path d="M-27.092,1.516L-18.005,1.516C-16.596,1.501 -14.458,0.817 -12.267,-0.419C-10.075,-1.655 -8.382,-3.132 -7.641,-4.329L-3.148,-11.988" style="fill:none;fill-rule:nonzero;stroke:rgb(22,33,45);stroke-width:1px;"/>
        </g>
    </g>
</svg>
